<svg width="158" height="80" viewBox="0 0 158 80" fill="none" xmlns="http://www.w3.org/2000/svg">
<path d="M11.8697 79.4378C11.4856 79.8091 0.542969 79.4378 0.542969 79.4378C0.542969 79.4378 1.93988 73.5983 2.26583 70.0204H7.44612C6.92227 73.6546 8.13291 74.4422 9.01764 74.5547C9.94892 74.6785 10.8337 75.0835 11.4273 75.7811C12.8476 77.4576 12.1724 79.1453 11.8697 79.4378Z" fill="black" stroke="black" stroke-width="0.5" stroke-linecap="round" stroke-linejoin="round"/>
<path d="M11.8695 56.4728C11.8695 56.4728 9.20373 62.8523 7.95813 67.5892C7.71367 68.5118 7.55069 69.3219 7.44592 70.0195H2.26562C2.31219 69.5469 2.33547 69.1081 2.33547 68.7368C2.33547 65.5302 2.90587 56.9678 2.90587 56.9678L11.8812 56.4728H11.8695Z" fill="white" stroke="black" stroke-width="0.5" stroke-linecap="round" stroke-linejoin="round"/>
<path d="M26.7447 79.4378C26.3606 79.8091 15.418 79.4378 15.418 79.4378C15.418 79.4378 16.8149 73.5983 17.1408 70.0204H22.3211C21.7973 73.6546 23.008 74.4422 23.8927 74.5547C24.824 74.6785 25.7087 75.0835 26.3024 75.7811C27.7226 77.4576 27.0474 79.1453 26.7447 79.4378Z" fill="black" stroke="black" stroke-width="0.5" stroke-linecap="round" stroke-linejoin="round"/>
<path d="M21.9497 55.6515C21.9497 55.6515 24.08 62.8636 22.8344 67.5892C22.5899 68.5118 22.427 69.3219 22.3222 70.0195H17.1419C17.1885 69.547 17.2118 69.1082 17.2118 68.7369C17.2118 65.5302 13.8242 56.3941 13.8242 56.3941L21.9497 55.6515Z" fill="white" stroke="black" stroke-width="0.5" stroke-linecap="round" stroke-linejoin="round"/>
<path d="M2.89844 44.9186V56.9689L11.8737 56.4738L12.805 51.8607L13.8294 56.3951L21.9549 55.6525L19.3706 42.7358L2.89844 44.9186Z" fill="white" stroke="black" stroke-width="0.5" stroke-linecap="round" stroke-linejoin="round"/>
<path d="M21.3008 37.9756C21.3008 37.9756 43.966 56.8554 64.4077 54.2563" stroke="black" stroke-width="0.5" stroke-linecap="round" stroke-linejoin="round"/>
<path d="M45.8201 60.6693C45.8201 60.6693 40.4653 47.2689 48.1251 46.1326C55.785 44.9962 48.5442 58.1828 48.5442 58.1828" fill="white"/>
<path d="M45.8201 60.6693C45.8201 60.6693 40.4653 47.2689 48.1251 46.1326C55.785 44.9962 48.5442 58.1828 48.5442 58.1828" stroke="black" stroke-width="0.5" stroke-linecap="round" stroke-linejoin="round"/>
<path d="M72.9225 58.4968C72.9225 59.5319 72.9457 63.0536 72.3753 64.46C71.1996 67.3854 69.3952 70.5358 69.3952 71.5259C69.3952 72.561 71.025 72.9099 71.9563 73.3712C72.3404 73.5512 72.6082 73.7537 72.6082 74.0237C72.6082 74.9576 69.8842 74.2375 67.521 74.2375C65.1579 74.2375 63.761 67.2729 63.761 67.2729C58.3828 67.2729 51.5029 64.5726 51.5029 64.5726C51.5029 64.5726 48.1735 68.2068 48.1735 70.5921C48.1735 72.9774 51.3166 72.6736 51.3166 73.72C51.3166 74.7663 46.3692 73.72 44.332 73.72C42.7372 73.72 42.2133 69.5457 42.6789 65.7427C42.9816 63.2449 44.0759 60.8821 45.8453 59.0481C46.7184 58.148 47.673 57.4617 48.5461 57.4617C49.6753 57.4617 52.2945 57.8442 54.8439 58.2605C58.569 58.8794 62.3175 57.3154 64.4129 54.2663L64.7504 53.7825" fill="white"/>
<path d="M72.9225 58.4968C72.9225 59.5319 72.9457 63.0536 72.3753 64.46C71.1996 67.3854 69.3952 70.5358 69.3952 71.5259C69.3952 72.561 71.025 72.9099 71.9563 73.3712C72.3404 73.5512 72.6082 73.7537 72.6082 74.0237C72.6082 74.9576 69.8842 74.2375 67.521 74.2375C65.1579 74.2375 63.761 67.2729 63.761 67.2729C58.3828 67.2729 51.5029 64.5726 51.5029 64.5726C51.5029 64.5726 48.1735 68.2068 48.1735 70.5921C48.1735 72.9774 51.3166 72.6736 51.3166 73.72C51.3166 74.7663 46.3692 73.72 44.332 73.72C42.7372 73.72 42.2133 69.5457 42.6789 65.7427C42.9816 63.2449 44.0759 60.8821 45.8453 59.0481C46.7184 58.148 47.673 57.4617 48.5461 57.4617C49.6753 57.4617 52.2945 57.8442 54.8439 58.2605C58.569 58.8794 62.3175 57.3154 64.4129 54.2663L64.7504 53.7825" stroke="black" stroke-width="0.5" stroke-linecap="round" stroke-linejoin="round"/>
<path d="M69.3978 49.8004C69.3978 49.8004 61.0163 43.7922 60.1432 46.1888C59.2701 48.5853 66.9766 52.467 66.9766 52.467" fill="white"/>
<path d="M69.3978 49.8004C69.3978 49.8004 61.0163 43.7922 60.1432 46.1888C59.2701 48.5853 66.9766 52.467 66.9766 52.467" stroke="black" stroke-width="0.5" stroke-linecap="round" stroke-linejoin="round"/>
<path d="M81.6512 53.8728C81.2904 54.6267 80.5337 55.1668 79.6257 55.223L72.7924 54.8517C72.7924 54.8517 72.3965 56.562 74.911 56.8545C77.3673 57.147 80.3357 57.8333 72.6526 58.4409C70.9996 58.5759 69.6027 58.4859 68.4502 58.2384C62.3969 56.9557 64.2245 48.1571 70.3361 49.1135L78.0424 50.3174C78.0774 50.4299 79.4627 54.1766 81.6512 53.8728Z" fill="white" stroke="black" stroke-width="0.5" stroke-linecap="round" stroke-linejoin="round"/>
<path d="M71.7252 53.3669C72.156 53.3669 72.5052 53.0294 72.5052 52.6131C72.5052 52.1967 72.156 51.8593 71.7252 51.8593C71.2945 51.8593 70.9453 52.1967 70.9453 52.6131C70.9453 53.0294 71.2945 53.3669 71.7252 53.3669Z" fill="black"/>
<path d="M66.5982 52.8494C66.5982 52.8494 63.036 64.067 66.086 64.067C69.1359 64.067 70.5561 54.3796 70.5561 54.3796" fill="white"/>
<path d="M66.5982 52.8494C66.5982 52.8494 63.036 64.067 66.086 64.067C69.1359 64.067 70.5561 54.3796 70.5561 54.3796" stroke="black" stroke-width="0.5" stroke-linecap="round" stroke-linejoin="round"/>
<path d="M81.8768 52.9055C81.8768 53.2543 81.7953 53.5806 81.6557 53.8844C79.4671 54.1882 78.0934 50.4527 78.0469 50.3402L79.8629 50.6215C80.4449 50.7115 80.9456 51.004 81.3064 51.4091C81.6673 51.8141 81.8768 52.343 81.8768 52.9168V52.9055Z" fill="black" stroke="black" stroke-width="0.5" stroke-linecap="round" stroke-linejoin="round"/>
<path d="M16.5008 3.94043C16.5008 3.94043 16.7221 7.38334 17.7814 8.21595C18.8407 9.04855 17.0829 10.23 17.0829 10.23C17.0829 10.23 17.6882 15.6644 15.5579 15.3606C13.4276 15.0568 12.2868 13.8979 11.6815 15.8106L6.96679 15.3043L5.5 11.4001L5.89583 4.7505L16.4776 3.94043H16.5008Z" fill="white" stroke="black" stroke-width="0.5" stroke-linecap="round" stroke-linejoin="round"/>
<path d="M6.55868 14.9779C1.87896 18.8709 0.994267 28.8734 1.85571 37.5594C2.12345 40.2148 2.11177 42.6001 2.10012 45.0191L19.3639 42.7351C18.9448 39.0671 18.0833 35.4554 16.7795 32.0012C14.8005 26.7356 11.7739 21.7962 11.8787 15.3379L6.55868 14.9779Z" fill="white" stroke="black" stroke-width="0.5" stroke-linecap="round" stroke-linejoin="round"/>
<path d="M15.8993 8.12632C15.8993 7.77717 15.6196 7.49561 15.2816 7.49561C14.9437 7.49561 14.6641 7.77717 14.6641 8.12632C14.6641 8.47546 14.9437 8.75706 15.2816 8.75706C15.6196 8.75706 15.8993 8.47546 15.8993 8.12632Z" fill="black"/>
<path d="M6.12891 25.5763C8.06133 32.2484 12.578 36.2314 18.0959 39.9444L20.5871 33.0473C13.4046 27.219 10.4827 20.637 10.4827 20.637" fill="white"/>
<path d="M6.12891 25.5763C8.06133 32.2484 12.578 36.2314 18.0959 39.9444L20.5871 33.0473C13.4046 27.219 10.4827 20.637 10.4827 20.637" stroke="black" stroke-width="0.5" stroke-linecap="round" stroke-linejoin="round"/>
<path d="M20.9108 41.7226C19.5721 41.0137 18.082 39.9448 18.082 39.9448L20.5732 33.059C20.5732 33.059 24.4031 33.2503 23.6814 34.7692C22.9596 36.2881 21.7024 36.5582 21.7024 36.5582L23.5416 38.3921C24.2867 39.1347 24.3682 40.2824 23.7396 41.1262C23.0877 41.9926 21.877 42.2514 20.8992 41.7338L20.9108 41.7226Z" fill="white" stroke="black" stroke-width="0.5" stroke-linecap="round" stroke-linejoin="round"/>
<path d="M18.0952 39.9343C18.0952 39.9343 16.7216 50.4544 23.3221 49.8806C28.1881 49.4643 25.0915 44.3336 23.1242 41.6558" stroke="black" stroke-width="0.5" stroke-linecap="round" stroke-linejoin="round"/>
<path d="M16.5063 3.94021C16.5063 3.94021 16.937 0.159712 11.5472 1.17234C6.15737 2.18496 5.15625 5.0991 5.15625 5.0991L16.5063 3.94021Z" fill="white" stroke="black" stroke-width="0.5" stroke-linecap="round" stroke-linejoin="round"/>
<path d="M5.29477 6.09968C5.29477 6.09968 4.79423 11.4441 3.50207 11.7141C2.20991 11.9841 2.19828 13.7956 4.23546 13.5931C5.53927 13.4693 7.42511 13.0756 8.65906 10.9603C8.91516 10.5215 7.28545 10.1052 8.2633 8.3387C8.97341 7.05604 10.0676 7.84365 10.1258 7.55112C10.2655 6.87603 9.89303 6.53847 9.83482 5.73962L5.30642 6.08841L5.29477 6.09968Z" fill="white" stroke="black" stroke-width="0.5" stroke-linecap="round" stroke-linejoin="round"/>
<path d="M17.1826 3.61847L4.76172 4.35693L4.93683 7.10831L17.3577 6.36984L17.1826 3.61847Z" fill="black" stroke="black" stroke-width="0.5" stroke-linecap="round" stroke-linejoin="round"/>
<path d="M14.0938 11.1395C14.0938 11.1395 15.4907 11.9744 17.1554 11.1395Z" fill="white"/>
<path d="M14.0938 11.1395C14.0938 11.1395 15.4907 11.9744 17.1554 11.1395" stroke="black" stroke-width="0.5" stroke-linecap="round" stroke-linejoin="round"/>
<path d="M124.357 26.0543C124.357 26.0543 131.823 32.3835 136.125 32.3835C140.426 32.3835 145.344 30.4106 145.344 30.4106V23.6709C145.344 23.6709 137.864 26.7428 135.81 26.7428C133.755 26.7428 126.809 20.93 126.809 20.93C126.809 20.93 125.987 18.2686 125.384 18.2686C125.014 18.2686 124.59 19.0895 124.316 19.7383C122.658 18.7982 120.781 18.1759 120.082 19.5927C118.74 22.3468 124.357 26.0543 124.357 26.0543Z" fill="white" stroke="black" stroke-width="0.5" stroke-linecap="round" stroke-linejoin="round"/>
<path d="M157.36 79.6028H144.387C144.387 79.6028 144.688 75.2465 148.168 74.3461C148.661 74.2137 148.99 73.6443 149.182 72.7439H156.579L157.347 79.5895L157.36 79.6028Z" fill="#A6A6A6" stroke="black" stroke-width="0.5" stroke-linecap="round" stroke-linejoin="round"/>
<path d="M153.561 45.6912L156.588 72.7559H149.19C150.382 67.3668 146.793 50.4182 146.793 50.4182" fill="white"/>
<path d="M153.561 45.6912L156.588 72.7559H149.19C150.382 67.3668 146.793 50.4182 146.793 50.4182" stroke="black" stroke-width="0.5" stroke-linecap="round" stroke-linejoin="round"/>
<path d="M145.191 8.28491C142.863 8.28491 144.452 11.1847 143.232 12.3632C142.013 13.5416 140.26 14.9452 141.958 15.3821C143.657 15.8191 141.41 19.8841 143.301 21.7114C143.767 22.1616 146.767 20.3475 146.767 21.2082C146.767 21.6716 146.26 23.4724 146.534 23.7505C147.699 24.9289 151.165 24.0947 151.562 20.2946C152.028 15.8985 155.151 8.29817 145.191 8.29817V8.28491Z" fill="white" stroke="black" stroke-width="0.5" stroke-linecap="round" stroke-linejoin="round"/>
<path d="M142.57 17.9633C142.57 17.9633 143.817 18.9167 145.762 17.4734Z" fill="white"/>
<path d="M142.57 17.9633C142.57 17.9633 143.817 18.9167 145.762 17.4734" stroke="black" stroke-width="0.5" stroke-linecap="round" stroke-linejoin="round"/>
<path d="M145.342 13.8602C145.66 13.8602 145.918 13.611 145.918 13.3035C145.918 12.9961 145.66 12.7468 145.342 12.7468C145.024 12.7468 144.766 12.9961 144.766 13.3035C144.766 13.611 145.024 13.8602 145.342 13.8602Z" fill="black"/>
<path d="M145.656 79.6028H130.285C130.573 77.7623 132.052 76.319 133.943 76.0012C135.436 75.7496 136.971 75.1273 137.642 72.7439H145.711C145.588 76.65 145.642 79.5895 145.642 79.5895L145.656 79.6028Z" fill="#A6A6A6" stroke="black" stroke-width="0.5" stroke-linecap="round" stroke-linejoin="round"/>
<path d="M149.434 52.0469C148.886 53.1856 148.215 54.9732 147.434 57.7935C146.297 61.9115 145.872 68.0421 145.721 72.7559H137.652C137.803 72.213 137.913 71.5774 137.967 70.8492C138.461 63.9903 143.406 45.6912 143.406 45.6912" fill="white"/>
<path d="M149.434 52.0469C148.886 53.1856 148.215 54.9732 147.434 57.7935C146.297 61.9115 145.872 68.0421 145.721 72.7559H137.652C137.803 72.213 137.913 71.5774 137.967 70.8492C138.461 63.9903 143.406 45.6912 143.406 45.6912" stroke="black" stroke-width="0.5" stroke-linecap="round" stroke-linejoin="round"/>
<path d="M146.674 10.8537C146.674 10.8537 141.934 9.88709 141.934 9.10587C141.934 8.32465 145.263 5.13355 146.331 6.16635C147.4 7.19915 149.03 6.35175 150.455 6.81519C151.879 7.27863 154.989 9.75467 154.989 10.9993C154.989 12.244 153.4 14.548 153.208 15.7794C153.017 17.0108 150.619 16.6136 150.619 16.6136L149.92 15.4616C149.92 15.4616 152.51 13.8462 150.989 12.7472C149.468 11.6482 148.455 13.0385 148.455 13.0385L146.66 10.8537H146.674Z" fill="black" stroke="black" stroke-width="0.5" stroke-linecap="round" stroke-linejoin="round"/>
<path d="M143.177 45.6913H150.232L150.698 50.4449L151.671 53.6227C152.068 54.9071 153.027 55.9929 154.301 56.496C154.89 56.7344 155.452 56.8138 155.808 56.5887C156.205 56.3504 156.452 55.9929 156.493 55.6883C156.726 54.1921 156.452 51.6498 155.657 49.2797C155.657 49.2797 154.972 25.459 150.506 24.4924C149.355 24.2408 147.246 23.2213 146.122 23.8039C145.095 24.3468 143.985 27.2068 143.396 32.3311C142.793 37.4554 143.163 45.6913 143.163 45.6913H143.177Z" fill="white" stroke="black" stroke-width="0.5" stroke-linecap="round" stroke-linejoin="round"/>
<path d="M148.566 29.4177L150.238 45.691" stroke="black" stroke-width="0.5" stroke-linecap="round" stroke-linejoin="round"/>
<path d="M150.538 23.2605C152.688 24.1476 154.784 22.0688 155.428 31.2184C156.072 40.3679 155.497 45.095 155.497 45.095C155.497 45.095 151.209 45.6908 146.811 45.6908H141.948C141.948 45.6908 141.811 25.3791 143.564 23.6974C145.318 22.0158 150.551 23.2605 150.551 23.2605H150.538Z" fill="black" stroke="black" stroke-width="0.5" stroke-linecap="round" stroke-linejoin="round"/>
<path d="M150.349 46.7898C150.349 46.7898 146.13 24.9685 151.692 24.9685C156.226 24.9685 155.555 46.4985 155.555 46.4985" fill="white"/>
<path d="M150.349 46.7898C150.349 46.7898 146.13 24.9685 151.692 24.9685C156.226 24.9685 155.555 46.4985 155.555 46.4985" stroke="black" stroke-width="0.5" stroke-linecap="round" stroke-linejoin="round"/>
<path d="M145.827 29.0224C145.964 29.0224 146.088 28.996 146.197 28.9297C146.307 28.8635 146.403 28.7841 146.457 28.6782C146.526 28.5722 146.553 28.4531 146.553 28.3207C146.553 28.1883 146.526 28.0691 146.457 27.9632C146.389 27.8572 146.307 27.7778 146.197 27.7116C146.088 27.6454 145.964 27.6189 145.814 27.6189C145.704 27.6189 145.608 27.6321 145.526 27.6719C145.444 27.7116 145.361 27.7646 145.293 27.8308L145.567 28.0956C145.567 28.0956 145.635 28.0294 145.677 28.0161C145.718 28.0029 145.772 27.9896 145.827 27.9896C145.896 27.9896 145.951 27.9896 145.992 28.0294C146.033 28.0558 146.074 28.0956 146.101 28.1353C146.129 28.1882 146.142 28.2412 146.142 28.3074C146.142 28.3736 146.129 28.4266 146.101 28.4796C146.074 28.5325 146.033 28.5722 145.992 28.5987C145.937 28.6252 145.882 28.6384 145.827 28.6384C145.772 28.6384 145.718 28.6385 145.677 28.612C145.635 28.5987 145.594 28.559 145.567 28.5325L145.293 28.7973C145.361 28.8768 145.444 28.9298 145.526 28.9563C145.608 28.996 145.718 29.0092 145.827 29.0092" fill="#10A96C"/>
<path d="M143.895 27.6572V28.9813H144.306V28.8754C144.306 28.8754 144.388 28.9416 144.429 28.9549C144.497 28.9946 144.593 29.0078 144.675 29.0078C144.799 29.0078 144.908 28.9813 145.004 28.9151C145.1 28.8489 145.182 28.7695 145.237 28.6636C145.292 28.5576 145.319 28.4384 145.319 28.306C145.319 28.1736 145.292 28.0545 145.237 27.9485C145.182 27.8426 145.1 27.7632 145.004 27.6969C144.908 27.6307 144.799 27.6042 144.675 27.6042C144.58 27.6042 144.497 27.6175 144.429 27.6572C144.388 27.6837 144.333 27.7102 144.306 27.7367V27.6175H143.895V27.6572ZM144.278 28.3193C144.278 28.3193 144.278 28.2001 144.319 28.1471C144.347 28.0942 144.388 28.0677 144.429 28.0412C144.47 28.0147 144.525 28.0015 144.593 28.0015C144.662 28.0015 144.703 28.0147 144.758 28.0412C144.799 28.0677 144.84 28.1074 144.867 28.1604C144.895 28.2134 144.908 28.2663 144.908 28.3325C144.908 28.3987 144.908 28.4517 144.867 28.4914C144.84 28.5444 144.799 28.5708 144.758 28.5973C144.717 28.6238 144.662 28.637 144.593 28.637C144.497 28.637 144.429 28.6106 144.36 28.5444C144.306 28.4914 144.278 28.412 144.278 28.3193Z" fill="#00A6BF"/>
<path d="M142.883 27.6433C142.883 27.6433 142.938 27.6433 142.965 27.6433C143.034 27.6433 143.102 27.6566 143.171 27.6963C143.239 27.736 143.294 27.7757 143.335 27.8287C143.335 27.8419 143.362 27.8552 143.362 27.8684V27.6698H143.76V28.9939H143.349V28.3319C143.349 28.3319 143.349 28.2524 143.335 28.2259C143.335 28.1994 143.308 28.173 143.28 28.1465C143.253 28.12 143.225 28.1067 143.198 28.0935C143.171 28.0935 143.13 28.0803 143.089 28.0803C143.061 28.0803 143.02 28.0803 142.993 28.0803C142.965 28.0803 142.938 28.0935 142.91 28.1068L142.801 27.6566C142.801 27.6566 142.842 27.6566 142.869 27.6433H142.883Z" fill="#8280B8"/>
<path d="M147.063 27.658V28.4127C147.063 28.5451 147.173 28.6378 147.296 28.6378C147.42 28.6378 147.529 28.5319 147.529 28.4127V27.658H147.94V28.3862C147.94 28.7305 147.652 29.0218 147.296 29.0218C146.94 29.0218 146.652 28.7437 146.652 28.3862V27.658H147.063Z" fill="#EF664E"/>
<path d="M155.672 49.28L150.645 49.7978" stroke="black" stroke-width="0.5" stroke-linecap="round" stroke-linejoin="round"/>
<path d="M128.031 21.9246L124.359 26.0558" stroke="black" stroke-width="0.5" stroke-linecap="round" stroke-linejoin="round"/>
</svg>
