<svg width="690" height="411" viewBox="0 0 690 411" fill="none" xmlns="http://www.w3.org/2000/svg">
<g clip-path="url(#clip0_546_3472)">
<mask id="mask0_546_3472" style="mask-type:alpha" maskUnits="userSpaceOnUse" x="-33" y="2" width="786" height="488">
<rect x="-32.1602" y="2" width="785" height="488" fill="#D9D9D9"/>
</mask>
<g mask="url(#mask0_546_3472)">
<path d="M178.216 198.72L161.076 215.86V239.234H195.362V215.86L178.216 198.72Z" fill="white"/>
<path d="M195.362 239.84H161.07C160.732 239.84 160.459 239.567 160.459 239.234V215.86C160.459 215.702 160.524 215.544 160.639 215.429L177.785 198.283C178.025 198.043 178.407 198.043 178.647 198.283L195.793 215.429C195.908 215.544 195.973 215.696 195.973 215.86V239.234C195.973 239.567 195.701 239.84 195.362 239.84ZM161.682 238.623H194.751V216.111L178.216 199.577L161.682 216.111V238.623Z" fill="#1D1D1B"/>
<path d="M217.289 198.72L200.144 215.86V239.234H234.43V215.86L217.289 198.72Z" fill="white"/>
<path d="M234.43 239.84H200.144C199.805 239.84 199.532 239.567 199.532 239.234V215.86C199.532 215.702 199.598 215.544 199.712 215.429L216.858 198.283C217.088 198.054 217.491 198.054 217.721 198.283L234.861 215.429C234.976 215.544 235.041 215.696 235.041 215.86V239.234C235.041 239.567 234.768 239.84 234.43 239.84ZM200.755 238.623H233.824V216.111L217.289 199.577L200.755 216.111V238.623Z" fill="#1D1D1B"/>
<path d="M303.079 239.9C302.915 239.9 302.763 239.835 302.648 239.72C302.533 239.606 302.468 239.453 302.468 239.289L302.484 177.038C302.484 176.705 302.757 176.432 303.096 176.432H317.921V154.438C317.921 154.105 318.194 153.832 318.533 153.832H321.633L331.137 144.329C331.366 144.1 331.77 144.1 332 144.329L341.503 153.832H344.604C344.942 153.832 345.215 154.105 345.215 154.438V173.713L383.361 150.164C383.557 150.05 383.787 150.044 383.978 150.148C384.169 150.257 384.289 150.459 384.289 150.677V178.713H423.788V162.845C423.788 162.512 424.061 162.239 424.399 162.239H456.087C456.426 162.239 456.699 162.512 456.699 162.845V204.457L466.426 194.729C466.666 194.489 467.049 194.489 467.289 194.729L477.77 205.21L488.25 194.729C488.49 194.495 488.867 194.489 489.102 194.729L500.167 205.494C500.281 205.609 500.352 205.767 500.352 205.931V212.579H520.964V203.545C520.964 203.381 521.03 203.229 521.145 203.114C521.259 202.999 521.412 202.934 521.576 202.934L546.61 202.967C546.948 202.967 547.221 203.239 547.221 203.572V239.251C547.221 239.584 546.948 239.857 546.61 239.857L303.096 239.889L303.079 239.9ZM303.701 177.649L303.685 238.683L318.522 238.667L545.982 238.65V204.184L522.165 204.151V213.185C522.165 213.518 521.892 213.791 521.554 213.791H499.719C499.381 213.791 499.108 213.518 499.108 213.185V206.182L488.66 196.012L478.315 206.356C478.201 206.471 478.048 206.537 477.884 206.537H477.589C477.426 206.537 477.273 206.471 477.158 206.356L466.825 196.018L456.486 206.356C456.306 206.531 456.049 206.58 455.82 206.487C455.591 206.395 455.443 206.171 455.443 205.925V163.456H424.978V179.325C424.978 179.658 424.705 179.931 424.367 179.931H383.65C383.312 179.931 383.039 179.658 383.039 179.325V151.769L344.893 175.318C344.702 175.438 344.473 175.438 344.276 175.334C344.085 175.225 343.965 175.023 343.965 174.805V155.05H341.225C341.061 155.05 340.908 154.984 340.794 154.87L331.541 145.617L322.288 154.87C322.174 154.984 322.021 155.05 321.857 155.05H319.117V177.043C319.117 177.376 318.844 177.649 318.506 177.649H303.68H303.701Z" fill="#1D1D1B"/>
<path d="M267.04 214.785H264.977V239.213H267.04V214.785Z" fill="white"/>
<path d="M267.04 239.819H264.977C264.638 239.819 264.365 239.546 264.365 239.213V214.785C264.365 214.452 264.638 214.179 264.977 214.179H267.04C267.378 214.179 267.651 214.452 267.651 214.785V239.213C267.651 239.546 267.378 239.819 267.04 239.819ZM265.583 238.601H266.429V215.391H265.583V238.601Z" fill="#1D1D1B"/>
<path d="M274.623 217.137C274.623 221.892 270.763 225.751 266.009 225.751C261.254 225.751 257.4 221.892 257.4 217.137C257.4 212.383 261.254 194.036 266.009 194.036C270.763 194.036 274.623 212.383 274.623 217.137Z" fill="white"/>
<path d="M266.009 226.357C260.927 226.357 256.789 222.22 256.789 217.137C256.789 212.552 260.468 193.43 266.009 193.43C271.549 193.43 275.234 213.06 275.234 217.137C275.234 222.22 271.096 226.357 266.009 226.357ZM266.009 194.642C261.975 194.642 258.006 212.241 258.006 217.137C258.006 221.554 261.593 225.14 266.009 225.14C270.425 225.14 274.011 221.548 274.011 217.137C274.011 212.246 270.037 194.642 266.009 194.642Z" fill="#1D1D1B"/>
<path d="M25.1474 214.785H23.084V239.213H25.1474V214.785Z" fill="white"/>
<path d="M25.1474 239.819H23.084C22.7456 239.819 22.4727 239.546 22.4727 239.213V214.785C22.4727 214.452 22.7456 214.179 23.084 214.179H25.1474C25.4859 214.179 25.7588 214.452 25.7588 214.785V239.213C25.7588 239.546 25.4859 239.819 25.1474 239.819ZM23.69 238.601H24.5361V215.391H23.69V238.601Z" fill="#1D1D1B"/>
<path d="M32.7243 217.137C32.7243 221.892 28.8649 225.751 24.1104 225.751C19.3558 225.751 15.502 221.892 15.502 217.137C15.502 212.383 19.3558 194.036 24.1104 194.036C28.8649 194.036 32.7243 212.383 32.7243 217.137Z" fill="white"/>
<path d="M24.1103 226.357C19.0283 226.357 14.896 222.22 14.896 217.137C14.896 212.552 18.5752 193.43 24.1103 193.43C29.6455 193.43 33.3356 212.552 33.3356 217.137C33.3356 222.22 29.1979 226.357 24.1103 226.357ZM24.1103 194.642C20.0818 194.642 16.1133 212.241 16.1133 217.137C16.1133 221.554 19.6997 225.14 24.1103 225.14C28.521 225.14 32.1128 221.548 32.1128 217.137C32.1128 212.246 28.1389 194.642 24.1103 194.642Z" fill="#1D1D1B"/>
<path d="M291.201 214.79H289.137V239.218H291.201V214.79Z" fill="white"/>
<path d="M291.201 239.829H289.137C288.799 239.829 288.526 239.556 288.526 239.223V214.796C288.526 214.463 288.799 214.19 289.137 214.19H291.201C291.539 214.19 291.812 214.463 291.812 214.796V239.223C291.812 239.556 291.539 239.829 291.201 239.829ZM289.743 238.612H290.589V215.402H289.743V238.612Z" fill="#1D1D1B"/>
<path d="M298.783 217.143C298.783 221.898 294.924 225.757 290.169 225.757C285.414 225.757 281.561 221.898 281.561 217.143C281.561 212.388 285.414 194.042 290.169 194.042C294.924 194.042 298.783 212.388 298.783 217.143Z" fill="white"/>
<path d="M290.169 226.363C285.087 226.363 280.949 222.225 280.949 217.143C280.949 212.558 284.628 193.436 290.169 193.436C295.71 193.436 299.389 212.558 299.389 217.143C299.389 222.225 295.251 226.363 290.169 226.363ZM290.169 194.648C286.135 194.648 282.167 212.246 282.167 217.143C282.167 221.559 285.753 225.145 290.169 225.145C294.585 225.145 298.172 221.554 298.172 217.143C298.172 212.252 294.203 194.648 290.169 194.648Z" fill="#1D1D1B"/>
<path d="M284.132 220.254H282.527V239.213H284.132V220.254Z" fill="white"/>
<path d="M284.126 239.818H282.522C282.183 239.818 281.91 239.546 281.91 239.213V220.254C281.91 219.921 282.183 219.648 282.522 219.648H284.126C284.465 219.648 284.738 219.921 284.738 220.254V239.213C284.738 239.546 284.465 239.818 284.126 239.818ZM283.133 238.601H283.52V220.86H283.133V238.601Z" fill="#1D1D1B"/>
<path d="M290.011 222.078C290.011 225.768 287.02 228.759 283.329 228.759C279.639 228.759 276.648 225.768 276.648 222.078C276.648 218.388 279.639 204.151 283.329 204.151C287.02 204.151 290.011 218.388 290.011 222.078Z" fill="white"/>
<path d="M283.324 229.371C279.306 229.371 276.037 226.101 276.037 222.078C276.037 219.277 278.755 203.545 283.324 203.545C287.893 203.545 290.617 219.277 290.617 222.078C290.617 226.101 287.342 229.371 283.324 229.371ZM283.324 204.763C280.409 204.763 277.254 217.743 277.254 222.078C277.254 225.429 279.978 228.153 283.324 228.153C286.67 228.153 289.4 225.429 289.4 222.078C289.4 217.864 286.168 204.763 283.324 204.763Z" fill="#1D1D1B"/>
<path d="M1311.39 239.955L1.45122 239.802C1.11278 239.802 0.839844 239.529 0.839844 239.196C0.839844 238.863 1.11278 238.59 1.45122 238.59L1311.39 238.743C1311.73 238.743 1312 239.016 1312 239.349C1312 239.682 1311.73 239.955 1311.39 239.955Z" fill="#3C3C3B"/>
<path d="M702.227 127.052C701.889 127.052 701.616 126.779 701.616 126.446V110.174C701.616 109.841 701.889 109.568 702.227 109.568C702.566 109.568 702.839 109.841 702.839 110.174V126.446C702.839 126.779 702.566 127.052 702.227 127.052ZM746.716 108.623C746.563 108.623 746.405 108.563 746.285 108.443L734.778 96.9362C734.538 96.696 734.538 96.3139 734.778 96.0737C735.018 95.8335 735.4 95.8335 735.64 96.0737L747.147 107.581C747.388 107.821 747.388 108.203 747.147 108.443C747.027 108.563 746.874 108.623 746.716 108.623ZM657.739 108.623C657.586 108.623 657.428 108.563 657.308 108.443C657.067 108.203 657.067 107.821 657.308 107.581L668.815 96.0792C669.055 95.839 669.437 95.839 669.677 96.0792C669.917 96.3193 669.917 96.7014 669.677 96.9416L658.17 108.443C658.05 108.563 657.897 108.623 657.739 108.623ZM702.227 99.2507C682.532 99.2507 666.505 83.2238 666.505 63.5287C666.505 43.8336 682.532 27.8068 702.227 27.8068C721.923 27.8068 737.949 43.8282 737.949 63.5287C737.949 83.2293 721.923 99.2507 702.227 99.2507ZM702.227 29.0241C683.204 29.0241 667.723 44.505 667.723 63.5287C667.723 82.5524 683.204 98.0334 702.227 98.0334C721.251 98.0334 736.732 82.5524 736.732 63.5287C736.732 44.505 721.251 29.0241 702.227 29.0241ZM765.139 64.1347H748.867C748.528 64.1347 748.255 63.8617 748.255 63.5287C748.255 63.1957 748.528 62.9228 748.867 62.9228H765.139C765.478 62.9228 765.751 63.1957 765.751 63.5287C765.751 63.8617 765.478 64.1347 765.139 64.1347ZM655.583 64.1347H639.31C638.972 64.1347 638.699 63.8617 638.699 63.5287C638.699 63.1957 638.972 62.9228 639.31 62.9228H655.583C655.921 62.9228 656.194 63.1957 656.194 63.5287C656.194 63.8617 655.921 64.1347 655.583 64.1347ZM735.204 31.153C735.051 31.153 734.893 31.0929 734.772 30.9729C734.532 30.7327 734.532 30.3506 734.772 30.1104L746.279 18.6034C746.52 18.3632 746.902 18.3632 747.142 18.6034C747.382 18.8435 747.382 19.2257 747.142 19.4658L735.635 30.9729C735.515 31.0929 735.362 31.153 735.204 31.153ZM669.24 31.153C669.087 31.153 668.929 31.0929 668.809 30.9729L657.302 19.4658C657.062 19.2257 657.062 18.8435 657.302 18.6034C657.542 18.3632 657.924 18.3632 658.165 18.6034L669.672 30.1104C669.912 30.3506 669.912 30.7327 669.672 30.9729C669.551 31.0929 669.399 31.153 669.24 31.153ZM702.227 17.4898C701.889 17.4898 701.616 17.2168 701.616 16.8839V0.605919C701.616 0.272937 701.889 0 702.227 0C702.566 0 702.839 0.272937 702.839 0.605919V16.8784C702.839 17.2114 702.566 17.4843 702.227 17.4843V17.4898Z" fill="#1D1D1B"/>
<path d="M274.764 146.949H229.512C218.048 146.949 208.725 137.62 208.725 126.157C208.725 114.693 218.048 105.37 229.512 105.37C231.187 105.37 232.852 105.572 234.479 105.965C236.875 96.8161 245.058 90.4731 254.589 90.4731C264.12 90.4731 271.931 96.5759 274.524 105.364C274.606 105.364 274.688 105.364 274.764 105.364C286.228 105.364 295.557 114.688 295.557 126.151C295.557 137.615 286.233 146.944 274.764 146.944V146.949ZM229.512 106.587C218.72 106.587 209.942 115.365 209.942 126.157C209.942 136.949 218.72 145.732 229.512 145.732H274.764C285.556 145.732 294.334 136.949 294.334 126.157C294.334 115.365 285.202 106.254 274.082 106.598C274.077 106.598 274.071 106.598 274.066 106.598C273.793 106.598 273.547 106.413 273.476 106.151C271.178 97.6404 263.416 91.6958 254.584 91.6958C245.751 91.6958 237.569 97.9242 235.511 106.849C235.473 107.008 235.374 107.149 235.227 107.237C235.085 107.324 234.91 107.341 234.757 107.302C233.049 106.833 231.28 106.593 229.506 106.593L229.512 106.587ZM835.426 145.082H805.883C798.279 145.082 792.1 138.897 792.1 131.299C792.1 123.7 798.284 117.516 805.883 117.516C806.931 117.516 807.968 117.636 808.972 117.865C810.626 111.904 815.998 107.794 822.248 107.794C828.498 107.794 833.651 111.768 835.426 117.516C843.03 117.516 849.214 123.7 849.214 131.299C849.214 138.897 843.03 145.082 835.426 145.082ZM805.883 118.733C798.95 118.733 793.317 124.372 793.317 131.299C793.317 138.226 798.95 143.865 805.883 143.865H835.426C842.358 143.865 847.997 138.226 847.997 131.299C847.997 124.372 842.358 118.733 835.426 118.733H835.06C834.76 118.733 834.454 118.558 834.383 118.291C832.909 112.827 827.92 109.011 822.248 109.011C816.577 109.011 811.325 113.012 810.004 118.744C809.966 118.908 809.868 119.044 809.72 119.131C809.578 119.219 809.404 119.241 809.251 119.197C808.159 118.891 807.029 118.738 805.883 118.738V118.733ZM1201.45 144.1H1155.39C1143.73 144.1 1134.24 134.612 1134.24 122.953C1134.24 111.293 1143.73 101.8 1155.39 101.8C1157.1 101.8 1158.8 102.007 1160.45 102.411C1162.89 93.0987 1171.21 86.6465 1180.91 86.6465C1190.61 86.6465 1198.56 92.8531 1201.2 101.805C1201.28 101.805 1201.37 101.805 1201.45 101.805C1213.12 101.805 1222.6 111.293 1222.6 122.958C1222.6 134.623 1213.12 144.105 1201.45 144.105V144.1ZM1155.39 103.017C1144.4 103.017 1135.46 111.959 1135.46 122.953C1135.46 133.946 1144.4 142.888 1155.39 142.888H1201.45C1212.44 142.888 1221.39 133.946 1221.39 122.953C1221.39 111.959 1212.44 103.017 1201.45 103.017C1201.22 103.017 1201 103.023 1200.77 103.028C1200.51 103.028 1200.23 102.853 1200.15 102.581C1197.81 93.912 1189.89 87.8638 1180.91 87.8638C1171.92 87.8638 1163.58 94.2068 1161.49 103.296C1161.45 103.459 1161.35 103.596 1161.2 103.683C1161.06 103.771 1160.89 103.792 1160.73 103.749C1159 103.268 1157.2 103.023 1155.39 103.023V103.017ZM135.354 80.7183H105.811C98.2072 80.7183 92.0225 74.5336 92.0225 66.935C92.0225 59.3364 98.2072 53.1517 105.811 53.1517C106.859 53.1517 107.896 53.2663 108.901 53.5011C110.555 47.5401 115.932 43.4352 122.182 43.4352C128.432 43.4352 133.591 47.4091 135.354 53.1572C142.958 53.1572 149.137 59.3419 149.137 66.9405C149.137 74.539 142.952 80.7238 135.354 80.7238V80.7183ZM105.811 54.369C98.8786 54.369 93.2398 60.0079 93.2398 66.935C93.2398 73.8621 98.8786 79.501 105.811 79.501H135.354C142.286 79.501 147.92 73.8621 147.92 66.935C147.92 60.0079 142.286 54.369 135.354 54.369H134.912C134.551 54.3854 134.382 54.1943 134.311 53.9268C132.843 48.4626 127.854 44.647 122.182 44.647C116.51 44.647 111.259 48.6482 109.938 54.3745C109.9 54.5382 109.802 54.6747 109.654 54.762C109.512 54.8494 109.338 54.8712 109.185 54.8275C108.098 54.5218 106.963 54.369 105.817 54.369H105.811ZM831.577 44.647H810.004C804.365 44.647 799.774 40.0562 799.774 34.4173C799.774 28.7785 804.365 24.1877 810.004 24.1877C810.725 24.1877 811.445 24.2641 812.144 24.4169C813.416 20.0772 817.368 17.0913 821.953 17.0913C826.539 17.0913 830.349 19.9844 831.697 24.1877C837.281 24.2532 841.807 28.8167 841.807 34.4173C841.807 40.018 837.216 44.647 831.577 44.647ZM810.004 25.405C805.037 25.405 800.997 29.4499 800.997 34.4173C800.997 39.3848 805.037 43.4352 810.004 43.4352H831.577C836.545 43.4352 840.584 39.3902 840.584 34.4173C840.584 29.4444 836.545 25.405 831.577 25.405H831.266C830.988 25.3831 830.731 25.2357 830.66 24.9628C829.596 21.0434 826.02 18.3086 821.953 18.3086C817.887 18.3086 814.12 21.1799 813.176 25.2849C813.138 25.4486 813.039 25.5851 812.892 25.6724C812.755 25.7598 812.581 25.7816 812.417 25.7379C811.631 25.5196 810.818 25.4104 810.004 25.4104V25.405Z" fill="#1D1D1B"/>
<path d="M747.403 208.453H628.032V249.333H747.403V208.453Z" fill="white"/>
<path d="M747.403 249.939H628.032C627.693 249.939 627.42 249.666 627.42 249.333V208.453C627.42 208.12 627.693 207.847 628.032 207.847H747.403C747.742 207.847 748.015 208.12 748.015 208.453V249.333C748.015 249.666 747.742 249.939 747.403 249.939ZM628.643 248.722H746.797V209.059H628.643V248.722Z" fill="#1D1D1B"/>
<path d="M747.403 189.151H628.032V208.453H747.403V189.151Z" fill="white"/>
<path d="M747.403 209.064H628.032C627.693 209.064 627.42 208.791 627.42 208.458V189.151C627.42 188.818 627.693 188.545 628.032 188.545H747.403C747.742 188.545 748.015 188.818 748.015 189.151V208.458C748.015 208.791 747.742 209.064 747.403 209.064ZM628.643 207.847H746.797V189.757H628.643V207.847Z" fill="#1D1D1B"/>
<path d="M656.609 217.934H638.349V249.333H656.609V217.934Z" fill="#1D1D1B"/>
<path d="M656.608 249.939H638.349C638.01 249.939 637.737 249.666 637.737 249.333V217.934C637.737 217.601 638.01 217.328 638.349 217.328H656.608C656.947 217.328 657.219 217.601 657.219 217.934V249.333C657.219 249.666 656.947 249.939 656.608 249.939ZM638.96 248.722H656.002V218.54H638.96V248.722Z" fill="#1D1D1B"/>
<path d="M697.467 217.934H660.954V249.333H697.467V217.934Z" fill="#1D1D1B"/>
<path d="M697.467 249.939H660.954C660.615 249.939 660.342 249.666 660.342 249.333V217.934C660.342 217.601 660.615 217.328 660.954 217.328H697.467C697.806 217.328 698.079 217.601 698.079 217.934V249.333C698.079 249.666 697.806 249.939 697.467 249.939ZM661.565 248.722H696.861V218.54H661.565V248.722Z" fill="#1D1D1B"/>
<path d="M667.112 241.309H668.809C669.186 241.309 669.492 241.614 669.492 241.991V248.885C669.492 249.267 669.186 249.573 668.809 249.573H667.112C666.735 249.573 666.429 249.267 666.429 248.885V241.991C666.429 241.614 666.735 241.309 667.112 241.309Z" fill="white"/>
<path d="M668.809 250.179H667.117C666.402 250.179 665.823 249.595 665.823 248.885V241.996C665.823 241.281 666.407 240.703 667.117 240.703H668.809C669.524 240.703 670.103 241.281 670.103 241.996V248.885C670.103 249.6 669.519 250.179 668.809 250.179ZM667.117 241.915C667.073 241.915 667.041 241.947 667.041 241.991V248.88L668.809 248.962L668.886 241.991L667.117 241.915Z" fill="#1D1D1B"/>
<path d="M689.618 241.309H691.316C691.692 241.309 691.998 241.614 691.998 241.991V248.885C691.998 249.267 691.692 249.573 691.316 249.573H689.618C689.241 249.573 688.936 249.267 688.936 248.885V241.991C688.936 241.614 689.241 241.309 689.618 241.309Z" fill="white"/>
<path d="M691.316 250.179H689.623C688.908 250.179 688.33 249.595 688.33 248.885V241.996C688.33 241.281 688.914 240.703 689.623 240.703H691.316C692.031 240.703 692.609 241.281 692.609 241.996V248.885C692.609 249.6 692.025 250.179 691.316 250.179ZM689.623 241.915C689.58 241.915 689.547 241.947 689.547 241.991V248.88L691.316 248.962L691.392 241.991L689.623 241.915Z" fill="#1D1D1B"/>
<path d="M688.625 235.43H669.797L670.611 229.283C670.835 227.58 672.287 226.313 674.001 226.313H684.416C686.135 226.313 687.582 227.58 687.806 229.283L688.619 235.43H688.625Z" fill="white"/>
<path d="M689.323 236.036H669.104L670.01 229.201C670.272 227.209 671.992 225.702 674.006 225.702H684.421C686.43 225.702 688.15 227.209 688.417 229.201L689.323 236.036ZM670.496 234.818H687.931L687.211 229.36C687.025 227.968 685.824 226.914 684.421 226.914H674.006C672.598 226.914 671.402 227.962 671.217 229.354L670.496 234.813V234.818Z" fill="#1D1D1B"/>
<path d="M692.046 241.816H666.379V245.436H692.046V241.816Z" fill="white"/>
<path d="M692.046 246.047H666.379C666.041 246.047 665.768 245.774 665.768 245.441V241.822C665.768 241.489 666.041 241.216 666.379 241.216H692.046C692.385 241.216 692.658 241.489 692.658 241.822V245.441C692.658 245.774 692.385 246.047 692.046 246.047ZM666.985 244.83H691.435V242.428H666.985V244.83Z" fill="#1D1D1B"/>
<path d="M692.046 241.816H666.379V238.847C666.379 236.958 667.908 235.424 669.797 235.424H688.624C690.512 235.424 692.046 236.958 692.046 238.847V241.816Z" fill="#A7A7A6"/>
<path d="M692.658 242.428H665.768V238.852C665.768 236.631 667.575 234.818 669.797 234.818H688.624C690.845 234.818 692.658 236.625 692.658 238.852V242.428ZM666.991 241.21H691.441V238.852C691.441 237.302 690.18 236.036 688.624 236.036H669.797C668.246 236.036 666.985 237.296 666.985 238.852V241.21H666.991Z" fill="#1D1D1B"/>
<path d="M671.642 237.269C671.642 238.285 670.817 239.109 669.802 239.109C668.787 239.109 667.962 238.285 667.962 237.269C667.962 236.254 668.787 235.43 669.802 235.43C670.817 235.43 671.642 236.254 671.642 237.269Z" fill="white"/>
<path d="M669.797 239.715C668.448 239.715 667.351 238.617 667.351 237.264C667.351 235.91 668.448 234.813 669.797 234.813C671.145 234.813 672.248 235.91 672.248 237.264C672.248 238.617 671.145 239.715 669.797 239.715ZM669.797 236.035C669.12 236.035 668.568 236.587 668.568 237.269C668.568 237.952 669.12 238.503 669.797 238.503C670.473 238.503 671.03 237.952 671.03 237.269C671.03 236.587 670.479 236.035 669.797 236.035Z" fill="#1D1D1B"/>
<path d="M690.463 237.269C690.463 238.285 689.639 239.109 688.624 239.109C687.608 239.109 686.784 238.285 686.784 237.269C686.784 236.254 687.608 235.43 688.624 235.43C689.639 235.43 690.463 236.254 690.463 237.269Z" fill="white"/>
<path d="M688.624 239.715C687.275 239.715 686.178 238.617 686.178 237.264C686.178 235.91 687.275 234.813 688.624 234.813C689.972 234.813 691.075 235.91 691.075 237.264C691.075 238.617 689.972 239.715 688.624 239.715ZM688.624 236.035C687.947 236.035 687.396 236.587 687.396 237.269C687.396 237.952 687.947 238.503 688.624 238.503C689.301 238.503 689.857 237.952 689.857 237.269C689.857 236.587 689.306 236.035 688.624 236.035Z" fill="#1D1D1B"/>
<path d="M339.98 290.366H173.953V303.549H339.98V290.366Z" fill="white"/>
<path d="M339.98 304.161H173.953C173.614 304.161 173.341 303.888 173.341 303.555V290.372C173.341 290.039 173.614 289.766 173.953 289.766H339.98C340.318 289.766 340.591 290.039 340.591 290.372V303.555C340.591 303.888 340.318 304.161 339.98 304.161ZM174.564 302.943H339.374V290.978H174.564V302.943Z" fill="#1D1D1B"/>
<path d="M306.911 233.863H233.545C215.258 233.863 200.438 248.689 200.438 266.976H323.865V250.812C323.865 241.451 316.278 233.863 306.916 233.863" fill="white"/>
<path d="M323.865 267.587H200.438C200.1 267.587 199.827 267.314 199.827 266.981C199.827 248.389 214.953 233.257 233.545 233.257H306.911C316.594 233.257 324.471 241.134 324.471 250.812V266.976C324.471 267.309 324.198 267.582 323.86 267.582L323.865 267.587ZM201.049 266.37H323.254V250.812C323.254 241.8 315.923 234.469 306.911 234.469H233.545C215.826 234.469 201.371 248.722 201.044 266.364L201.049 266.37Z" fill="#1D1D1B"/>
<path d="M181.573 281.097C181.398 281.097 181.234 281.021 181.12 280.89C180.956 280.71 180.912 280.442 181.016 280.224C184.57 272.565 191.988 267.298 200.362 266.484C200.542 266.468 200.733 266.534 200.858 266.67C200.989 266.806 201.049 266.992 201.022 267.178C200.809 268.581 198.446 280.917 181.578 281.097H181.573ZM199.663 267.789C192.376 268.772 185.945 273.308 182.555 279.853C195.804 279.307 198.975 270.649 199.663 267.789Z" fill="#1D1D1B"/>
<path d="M233.278 256.833L227.153 256.948C226.438 256.964 225.87 256.348 225.947 255.633L226.547 249.945C226.569 249.748 226.443 249.573 226.252 249.53L222.939 248.836C222.693 248.787 222.742 248.558 222.792 248.312C223.529 244.207 227.175 244.038 227.432 241.669L227.497 241.036C227.803 238.165 230.199 235.976 233.081 235.921C235.964 235.866 238.436 237.968 238.851 240.823L240.014 248.902C240.609 253.034 237.448 256.752 233.278 256.828" fill="white"/>
<path d="M227.131 257.554C226.629 257.554 226.148 257.341 225.804 256.97C225.455 256.588 225.286 256.08 225.34 255.567L225.925 250.086L222.819 249.437C222.518 249.377 222.027 249.137 222.191 248.236C222.649 245.687 224.107 244.513 225.28 243.574C226.214 242.826 226.743 242.368 226.825 241.614L226.896 240.981C227.235 237.815 229.893 235.381 233.076 235.321C233.114 235.321 233.152 235.321 233.19 235.321C236.323 235.321 239.004 237.635 239.457 240.747L240.619 248.825C240.931 250.971 240.303 253.143 238.9 254.792C237.497 256.44 235.456 257.407 233.294 257.45L227.175 257.565C227.175 257.565 227.153 257.565 227.142 257.565L227.131 257.554ZM223.414 248.318L226.378 248.935C226.874 249.033 227.218 249.508 227.153 250.015L226.552 255.693C226.53 255.862 226.585 256.02 226.7 256.146C226.814 256.271 226.967 256.337 227.131 256.337H227.147L233.267 256.222C235.079 256.189 236.793 255.376 237.972 253.995C239.151 252.614 239.675 250.785 239.413 248.989L238.25 240.91C237.885 238.367 235.718 236.516 233.097 236.527C230.526 236.576 228.381 238.541 228.108 241.101L228.037 241.735C227.901 243.028 227 243.749 226.045 244.513C224.942 245.397 223.807 246.309 223.414 248.312V248.318Z" fill="#1D1D1B"/>
<path d="M239.026 241.964L240.014 248.907L236.166 248.176C237.394 245.523 237.574 244.109 236.57 243.29C236.056 242.624 234.61 242.766 233.857 243.514C232.672 240.643 230.734 239.229 227.765 239.808C228.551 237.591 230.614 235.992 233.054 235.943C235.958 235.888 238.447 238.006 238.862 240.883L239.015 241.964H239.026Z" fill="white"/>
<path d="M240.74 249.666L235.292 248.629L235.619 247.925C236.913 245.141 236.782 244.246 236.187 243.765C236.012 243.563 235.827 243.492 235.598 243.476C235.183 243.432 234.593 243.64 234.288 243.945L233.643 244.584L233.299 243.743C232.153 240.97 230.434 239.9 227.89 240.403L226.842 240.61L227.197 239.606C228.086 237.1 230.434 235.386 233.054 235.337C236.193 235.255 239.015 237.624 239.473 240.796L240.74 249.666ZM237.039 247.723L239.293 248.154L238.267 240.97C237.901 238.405 235.712 236.532 233.07 236.554C231.302 236.587 229.68 237.57 228.78 239.076C231.181 238.972 232.906 240.162 234.107 242.597C234.588 242.351 235.128 242.22 235.674 242.264C236.264 242.302 236.749 242.537 237.05 242.919C238.251 243.88 237.967 245.545 237.033 247.723H237.039Z" fill="#1D1D1B"/>
<path d="M226.858 253.465C226.804 253.465 226.749 253.465 226.694 253.465C226.356 253.454 226.094 253.171 226.105 252.838C226.121 252.505 226.334 252.243 226.733 252.253C226.776 252.253 226.814 252.253 226.853 252.253C228.266 252.253 229.779 251.38 230.308 250.758C230.526 250.501 230.909 250.468 231.165 250.687C231.422 250.905 231.454 251.287 231.236 251.544C230.559 252.341 228.725 253.471 226.853 253.471L226.858 253.465Z" fill="#1D1D1B"/>
<path d="M208.774 268.433C208.479 268.559 208.14 268.422 208.02 268.127L203.637 257.898C203.511 257.603 203.648 257.265 203.943 257.144C204.237 257.019 204.576 257.15 204.696 257.445L209.079 267.68C209.205 267.969 209.068 268.308 208.774 268.433Z" fill="#1D1D1B"/>
<path d="M208.544 269.088C208.397 269.088 208.249 269.061 208.107 269.001C207.813 268.881 207.583 268.657 207.458 268.362L203.075 258.133C202.949 257.843 202.944 257.521 203.058 257.226C203.173 256.932 203.402 256.702 203.697 256.577C203.986 256.451 204.314 256.446 204.608 256.566C204.903 256.686 205.127 256.91 205.247 257.205L209.63 267.429C209.887 268.024 209.609 268.722 209.008 268.979C208.855 269.045 208.697 269.077 208.539 269.077L208.544 269.088Z" fill="#1D1D1B"/>
<path d="M212.278 264.612C212.278 264.612 209.428 264.601 208.249 262.947C207.07 261.299 206.836 260.294 206.541 260.644C206.246 260.998 205.94 261.741 206.355 262.789C206.617 263.438 206.301 263.777 206.028 263.941C205.788 264.083 205.607 264.306 205.515 264.574C205.193 265.513 204.789 267.527 206.841 268.242C209.554 269.192 212.322 267.025 212.322 267.025L212.278 264.618V264.612Z" fill="white"/>
<path d="M208.293 269.088C207.758 269.088 207.196 269.006 206.639 268.81C204.843 268.182 204.205 266.523 204.936 264.372C205.078 263.968 205.351 263.624 205.722 263.411C205.821 263.351 205.908 263.302 205.793 263.013C205.182 261.495 205.853 260.518 206.072 260.256L206.274 260.01L206.721 259.967C207.174 260.005 207.387 260.382 207.737 260.993C207.966 261.391 208.277 261.937 208.746 262.587C209.729 263.962 212.256 263.995 212.284 263.995H212.873L212.933 267.303L212.693 267.489C212.595 267.565 210.635 269.083 208.293 269.083V269.088ZM206.759 261.735C206.754 261.959 206.792 262.232 206.923 262.56C207.234 263.346 207.021 264.055 206.339 264.459C206.219 264.53 206.132 264.634 206.088 264.765C205.569 266.282 205.891 267.26 207.038 267.663C208.97 268.34 211.023 267.161 211.705 266.708L211.678 265.18C210.695 265.076 208.757 264.699 207.753 263.297C207.311 262.674 206.994 262.145 206.759 261.735Z" fill="#1D1D1B"/>
<path d="M234.457 256.178C231.373 256.178 227.655 257.079 226.684 261.14C226.455 262.101 225.794 262.898 224.888 263.291C222.814 264.181 218.927 265.289 214.44 263.755C213.605 263.471 212.682 263.832 212.273 264.618C211.345 266.397 211.623 268.237 212.611 270.109L246.537 269.907C246.537 269.907 245.282 264.738 242.607 260.627C240.811 257.871 237.743 256.184 234.452 256.189" fill="#1D1D1B"/>
<path d="M212.251 270.715L212.076 270.387C210.891 268.149 210.777 266.168 211.732 264.334C212.289 263.275 213.506 262.8 214.636 263.176C218.987 264.667 222.775 263.537 224.642 262.729C225.362 262.418 225.903 261.768 226.083 260.998C226.935 257.45 229.828 255.578 234.451 255.567H234.462C237.956 255.567 241.193 257.33 243.12 260.283C245.822 264.432 247.077 269.541 247.132 269.754L247.312 270.502L212.251 270.71V270.715ZM213.855 264.268C213.43 264.268 213.02 264.503 212.813 264.901C212.103 266.272 212.158 267.778 212.987 269.498L245.751 269.301C245.298 267.74 244.097 264.017 242.104 260.955C240.401 258.351 237.552 256.795 234.468 256.795H234.457C230.406 256.795 227.988 258.313 227.273 261.288C227 262.429 226.198 263.389 225.128 263.853C223.097 264.727 218.97 265.955 214.243 264.334C214.112 264.29 213.981 264.268 213.85 264.268H213.855Z" fill="#1D1D1B"/>
<path d="M230.532 244.622C230.537 245.053 230.199 245.408 229.768 245.414C229.336 245.419 228.987 245.081 228.976 244.649C228.971 244.218 229.309 243.869 229.74 243.858C230.172 243.853 230.526 244.191 230.532 244.622Z" fill="#1D1D1B"/>
<path d="M179.411 290.284H334.526V278.565C334.526 272.161 329.335 266.976 322.938 266.976H321.617C314.859 266.976 309.384 261.495 309.384 254.737V233.858H296.828V254.737C296.828 261.495 291.353 266.976 284.595 266.976H270.163C263.405 266.976 257.924 261.495 257.924 254.737V233.858H245.369V254.737C245.369 261.495 239.888 266.976 233.131 266.976H202.72C201.945 266.976 201.181 267.008 200.422 267.085C200.225 268.379 197.949 280.311 181.567 280.486C180.181 283.456 179.411 286.78 179.411 290.279" fill="#A7A7A6"/>
<path d="M335.132 290.896H178.8V290.29C178.8 286.78 179.548 283.396 181.016 280.235L182.179 277.741V279.881C197.491 279.427 199.625 268.292 199.821 267.009L199.892 266.539L200.362 266.496C201.126 266.419 201.923 266.381 202.72 266.381H233.131C239.539 266.381 244.758 261.163 244.758 254.754V233.268H258.53V254.754C258.53 261.168 263.743 266.381 270.157 266.381H284.59C290.999 266.381 296.217 261.163 296.217 254.754V233.268H309.99V254.754C309.99 261.168 315.203 266.381 321.611 266.381H322.932C329.657 266.381 335.127 271.851 335.127 278.576V290.902L335.132 290.896ZM180.028 289.679H333.915V278.57C333.915 272.517 328.991 267.593 322.938 267.593H321.617C314.537 267.593 308.778 261.829 308.778 254.749V234.48H297.44V254.749C297.44 261.829 291.675 267.593 284.596 267.593H270.163C263.083 267.593 257.318 261.829 257.318 254.749V234.48H245.98V254.749C245.98 261.829 240.216 267.593 233.136 267.593H202.725C202.125 267.593 201.525 267.615 200.94 267.658C200.395 270.306 197.272 280.759 181.966 281.098C180.759 283.816 180.104 286.699 180.033 289.679H180.028Z" fill="#1D1D1B"/>
<path d="M290.24 267.587C290.24 267.587 289.689 270.055 290.076 270.606C290.458 271.152 296.605 272.303 297.593 272.249C298.182 272.216 298.701 271.408 298.16 271.032C297.855 270.819 299.045 270.562 299.198 270.278C299.58 269.569 297.451 268.865 297.451 268.865C297.451 268.865 299.738 268.581 299.236 267.374C298.892 266.55 291.959 268.395 293.04 267.702C295.524 266.108 295.005 265.071 294.154 265.327C293.788 265.442 290.3 267.15 290.3 267.15L290.245 267.593L290.24 267.587Z" fill="white"/>
<path d="M297.571 272.855C296.61 272.855 290.212 271.861 289.579 270.95C289.115 270.289 289.415 268.504 289.645 267.478L289.694 267.063C289.716 266.861 289.847 266.681 290.027 266.594C290.857 266.19 293.586 264.852 293.973 264.738C294.563 264.558 295.142 264.765 295.365 265.251C295.491 265.524 295.611 266.13 294.858 266.987C298.095 266.435 299.454 266.299 299.798 267.129C300.022 267.664 299.891 268.084 299.743 268.34C299.591 268.602 299.356 268.804 299.094 268.957C299.405 269.17 299.667 269.421 299.782 269.716C299.891 269.994 299.874 270.289 299.732 270.551C299.59 270.83 299.285 270.982 298.957 271.13C299.012 271.326 299.017 271.545 298.952 271.763C298.788 272.353 298.231 272.806 297.625 272.838C297.609 272.838 297.593 272.838 297.576 272.838L297.571 272.855ZM290.857 267.549L290.84 267.664C290.84 267.664 290.84 267.702 290.829 267.718C290.584 268.815 290.469 270.016 290.584 270.278C291.129 270.622 296.621 271.643 297.549 271.638C297.642 271.638 297.762 271.501 297.773 271.441C297.593 271.315 297.478 271.108 297.5 270.89C297.543 270.437 297.953 270.251 298.351 270.076C298.39 270.06 298.433 270.038 298.477 270.022C298.215 269.836 297.718 269.591 297.254 269.438C296.981 269.35 296.812 269.083 296.839 268.799C296.867 268.515 297.085 268.291 297.369 268.253C297.866 268.188 298.499 267.975 298.663 267.756C297.997 267.691 296.031 268.018 295.049 268.188C293.013 268.532 292.582 268.608 292.352 268.035C292.309 267.915 292.199 267.505 292.702 267.183C293.471 266.686 293.881 266.283 294.077 266.02C293.411 266.31 291.986 266.998 290.857 267.549Z" fill="#1D1D1B"/>
<path d="M274.802 261.932C274.802 261.932 278.765 258.979 282.494 262.074C286.866 265.704 286.102 266.048 290.54 266.151L290.332 271.823C290.332 271.823 283.891 275.606 277.985 266.446" fill="white"/>
<path d="M287.019 273.182C284.437 273.182 280.834 271.992 277.472 266.779C277.291 266.495 277.368 266.119 277.652 265.939C277.93 265.758 278.312 265.84 278.492 266.119C283.362 273.674 288.471 272.02 289.732 271.441L289.907 266.741C286.877 266.637 286.375 266.293 284.257 264.41C283.7 263.913 283.012 263.302 282.101 262.543C278.798 259.797 275.31 262.308 275.163 262.418C274.895 262.614 274.513 262.56 274.311 262.292C274.109 262.025 274.169 261.643 274.437 261.441C274.486 261.408 278.831 258.247 282.881 261.604C283.809 262.374 284.502 262.996 285.065 263.498C287.101 265.316 287.27 265.464 290.551 265.54C290.714 265.54 290.867 265.611 290.982 265.731C291.091 265.851 291.151 266.01 291.146 266.168L290.938 271.839C290.927 272.047 290.813 272.238 290.638 272.342C290.605 272.358 289.164 273.177 287.024 273.177L287.019 273.182Z" fill="#1D1D1B"/>
<path d="M300.038 247.024C300.038 248.132 299.143 249.027 298.035 249.027C296.926 249.027 296.031 248.132 296.031 247.024C296.031 245.916 296.932 245.021 298.035 245.021C299.137 245.021 300.038 245.916 300.038 247.024Z" fill="white"/>
<path d="M298.035 249.633C296.594 249.633 295.42 248.46 295.42 247.024C295.42 245.588 296.594 244.415 298.035 244.415C299.476 244.415 300.649 245.588 300.649 247.024C300.649 248.46 299.476 249.633 298.035 249.633ZM298.035 245.627C297.265 245.627 296.637 246.249 296.637 247.019C296.637 247.788 297.265 248.411 298.035 248.411C298.804 248.411 299.427 247.788 299.427 247.019C299.427 246.249 298.804 245.627 298.035 245.627Z" fill="#1D1D1B"/>
<path d="M286.517 247.024C286.517 248.132 285.622 249.027 284.514 249.027C283.405 249.027 282.51 248.132 282.51 247.024C282.51 245.916 283.411 245.021 284.514 245.021C285.616 245.021 286.517 245.916 286.517 247.024Z" fill="white"/>
<path d="M284.519 249.633C283.078 249.633 281.904 248.46 281.904 247.024C281.904 245.588 283.078 244.415 284.519 244.415C285.96 244.415 287.134 245.588 287.134 247.024C287.134 248.46 285.96 249.633 284.519 249.633ZM284.519 245.627C283.749 245.627 283.122 246.249 283.122 247.019C283.122 247.788 283.749 248.411 284.519 248.411C285.289 248.411 285.911 247.788 285.911 247.019C285.911 246.249 285.289 245.627 284.519 245.627Z" fill="#1D1D1B"/>
<path d="M281.129 254.421C281.129 255.529 280.234 256.424 279.126 256.424C278.018 256.424 277.123 255.529 277.123 254.421C277.123 253.312 278.023 252.417 279.126 252.417C280.229 252.417 281.129 253.312 281.129 254.421Z" fill="white"/>
<path d="M279.125 257.035C277.684 257.035 276.511 255.862 276.511 254.426C276.511 252.99 277.684 251.817 279.125 251.817C280.567 251.817 281.74 252.99 281.74 254.426C281.74 255.862 280.567 257.035 279.125 257.035ZM279.125 253.029C278.356 253.029 277.733 253.651 277.733 254.421C277.733 255.19 278.356 255.813 279.125 255.813C279.895 255.813 280.517 255.19 280.517 254.421C280.517 253.651 279.895 253.029 279.125 253.029Z" fill="#1D1D1B"/>
<path d="M262.258 258.624C262.258 259.732 261.363 260.627 260.255 260.627C259.147 260.627 258.251 259.732 258.251 258.624C258.251 257.516 259.152 256.62 260.255 256.62C261.357 256.62 262.258 257.516 262.258 258.624Z" fill="white"/>
<path d="M260.255 261.233C258.814 261.233 257.64 260.059 257.64 258.624C257.64 257.188 258.814 256.015 260.255 256.015C261.696 256.015 262.87 257.188 262.87 258.624C262.87 260.059 261.696 261.233 260.255 261.233ZM260.255 257.226C259.485 257.226 258.857 257.849 258.857 258.618C258.857 259.388 259.485 260.01 260.255 260.01C261.025 260.01 261.647 259.388 261.647 258.618C261.647 257.849 261.025 257.226 260.255 257.226Z" fill="#1D1D1B"/>
<path d="M269.425 263.815C265.451 263.815 260.67 261.255 260.162 257.581C259.905 255.714 260.746 253.711 262.536 251.942C264.212 250.283 266.461 249.12 268.541 248.831C268.912 248.776 269.305 248.755 269.709 248.755C273.683 248.755 278.465 251.315 278.973 254.988C279.235 256.861 278.389 258.864 276.598 260.633C274.922 262.292 272.679 263.455 270.599 263.744C270.228 263.799 269.835 263.821 269.431 263.821" fill="white"/>
<path d="M269.704 248.138C269.278 248.138 268.858 248.165 268.454 248.22C264.005 248.836 258.95 253.209 259.562 257.658C260.119 261.703 265.168 264.416 269.426 264.416C269.851 264.416 270.272 264.388 270.676 264.334C275.125 263.722 280.185 259.344 279.568 254.896C279.011 250.851 273.962 248.132 269.699 248.132M269.699 249.35C273.421 249.35 277.898 251.691 278.362 255.059C278.864 258.689 274.388 262.587 270.507 263.127C270.163 263.171 269.797 263.198 269.42 263.198C265.697 263.198 261.221 260.857 260.763 257.488C260.26 253.864 264.737 249.961 268.618 249.42C268.962 249.377 269.327 249.35 269.699 249.35Z" fill="#1D1D1B"/>
<path d="M269.158 253.356C269.158 253.356 269.158 254.803 269.654 255.671C269.856 256.036 270.255 256.238 270.67 256.233C271.128 256.227 271.887 256.348 272.105 257.188C272.286 257.871 271.958 258.913 270.38 258.793" fill="white"/>
<path d="M270.627 259.41C270.539 259.41 270.441 259.41 270.343 259.399L270.43 258.187C270.774 258.22 271.2 258.187 271.413 257.936C271.56 257.756 271.56 257.505 271.522 257.341C271.489 257.199 271.44 256.806 270.681 256.839C270.67 256.839 270.659 256.839 270.648 256.839C270.01 256.839 269.426 256.506 269.125 255.965C268.569 254.994 268.552 253.52 268.552 253.356H269.77C269.77 253.716 269.846 254.775 270.184 255.365C270.272 255.529 270.414 255.627 270.665 255.622C270.681 255.622 270.698 255.622 270.708 255.622C271.729 255.622 272.472 256.146 272.701 257.03C272.859 257.63 272.723 258.258 272.352 258.711C272.079 259.039 271.565 259.41 270.632 259.41H270.627Z" fill="#1D1D1B"/>
<path d="M274.213 253.94C274.218 254.372 273.88 254.726 273.449 254.732C273.018 254.737 272.668 254.399 272.657 253.968C272.652 253.536 272.99 253.182 273.422 253.176C273.853 253.171 274.208 253.509 274.213 253.94Z" fill="#1D1D1B"/>
<path d="M266.445 255.725C266.45 256.156 266.112 256.511 265.681 256.517C265.25 256.522 264.895 256.184 264.889 255.753C264.884 255.321 265.222 254.966 265.653 254.961C266.085 254.956 266.44 255.294 266.445 255.725Z" fill="#1D1D1B"/>
<path d="M260.096 256.833L260.08 255.616C265.157 255.567 266.592 250.692 266.909 249.202C266.98 248.885 267.215 248.651 267.526 248.58C267.837 248.509 268.154 248.618 268.35 248.869C269.338 250.146 272.188 252.936 277.57 251.522L277.881 252.696C272.499 254.115 269.267 251.658 267.913 250.217C267.286 252.423 265.375 256.779 260.096 256.833Z" fill="#1D1D1B"/>
<path d="M269.775 260.96C270.059 261.801 270.97 262.259 271.811 261.97C272.652 261.686 273.105 260.78 272.821 259.934L269.77 260.955L269.775 260.96Z" fill="white"/>
<path d="M271.292 262.669C270.954 262.669 270.621 262.592 270.31 262.434C269.78 262.172 269.382 261.714 269.196 261.151C269.092 260.835 269.267 260.491 269.584 260.382L272.629 259.361C272.782 259.312 272.952 259.323 273.093 259.394C273.235 259.465 273.35 259.59 273.394 259.743C273.585 260.305 273.541 260.906 273.279 261.435C273.012 261.965 272.559 262.358 271.996 262.549C271.767 262.625 271.527 262.663 271.287 262.663L271.292 262.669ZM270.735 261.282C270.768 261.304 270.806 261.326 270.85 261.348C271.09 261.468 271.358 261.49 271.609 261.402C271.865 261.315 272.073 261.14 272.187 260.9C272.209 260.862 272.226 260.818 272.236 260.78L270.73 261.288L270.735 261.282Z" fill="#1D1D1B"/>
<path d="M291.277 258.176C287.543 258.176 284.519 255.152 284.519 251.418V243.585C284.519 239.851 287.543 236.822 291.277 236.822C295.011 236.822 298.035 239.851 298.035 243.585V251.418C298.035 255.152 295.011 258.176 291.277 258.176Z" fill="white"/>
<path d="M291.277 258.782C287.215 258.782 283.907 255.48 283.907 251.418V243.585C283.907 239.524 287.21 236.216 291.277 236.216C295.343 236.216 298.646 239.524 298.646 243.585V251.418C298.646 255.48 295.343 258.782 291.277 258.782ZM291.277 237.428C287.887 237.428 285.13 240.19 285.13 243.58V251.413C285.13 254.803 287.887 257.565 291.277 257.565C294.666 257.565 297.423 254.808 297.423 251.413V243.58C297.423 240.184 294.666 237.428 291.277 237.428Z" fill="#1D1D1B"/>
<path d="M288.651 245.103C288.656 245.534 288.318 245.889 287.887 245.894C287.456 245.9 287.106 245.561 287.095 245.13C287.09 244.699 287.428 244.344 287.859 244.338C288.291 244.333 288.646 244.671 288.651 245.103Z" fill="#1D1D1B"/>
<path d="M295.808 245.103C295.813 245.534 295.475 245.889 295.044 245.894C294.612 245.9 294.257 245.561 294.252 245.13C294.247 244.699 294.585 244.344 295.016 244.338C295.447 244.333 295.802 244.671 295.808 245.103Z" fill="#1D1D1B"/>
<path d="M294.956 248.634C293.056 248.634 291.512 247.09 291.512 245.19C291.512 243.29 293.056 241.745 294.956 241.745C296.856 241.745 298.401 243.29 298.401 245.19C298.401 247.09 296.856 248.634 294.956 248.634ZM294.956 242.957C293.728 242.957 292.729 243.956 292.729 245.184C292.729 246.413 293.728 247.412 294.956 247.412C296.184 247.412 297.183 246.413 297.183 245.184C297.183 243.956 296.184 242.957 294.956 242.957ZM287.783 248.634C285.884 248.634 284.339 247.09 284.339 245.19C284.339 243.29 285.884 241.745 287.783 241.745C289.683 241.745 291.233 243.29 291.233 245.19C291.233 247.09 289.683 248.634 287.783 248.634ZM287.783 242.957C286.555 242.957 285.556 243.956 285.556 245.184C285.556 246.413 286.555 247.412 287.783 247.412C289.012 247.412 290.016 246.413 290.016 245.184C290.016 243.956 289.017 242.957 287.783 242.957Z" fill="#1D1D1B"/>
<path d="M289.705 242.963C290.747 242.28 291.812 242.237 292.925 242.963H289.705Z" fill="white"/>
<path d="M292.925 243.574C292.811 243.574 292.696 243.541 292.592 243.476C291.73 242.908 290.911 242.903 290.043 243.476C289.765 243.662 289.388 243.58 289.197 243.301C289.017 243.017 289.093 242.641 289.372 242.461C290.654 241.625 291.986 241.631 293.258 242.461C293.537 242.646 293.619 243.023 293.433 243.301C293.318 243.481 293.122 243.58 292.925 243.58V243.574Z" fill="#1D1D1B"/>
<path d="M290.114 251.964C289.781 251.964 289.508 251.691 289.502 251.358C289.502 251.025 289.775 250.747 290.108 250.747L292.914 250.736C289.983 244.59 292.275 242.679 292.559 242.472C292.832 242.275 293.209 242.33 293.411 242.608C293.602 242.875 293.547 243.247 293.285 243.449C293.225 243.503 291.364 245.206 294.437 251.058C294.535 251.244 294.53 251.473 294.421 251.653C294.312 251.833 294.115 251.948 293.902 251.948L290.114 251.964Z" fill="#1D1D1B"/>
<path d="M297.811 240.948C297.811 237.471 294.907 234.655 291.331 234.655C287.756 234.655 284.852 237.471 284.852 240.948H302.582" fill="#A7A7A6"/>
<path d="M302.587 241.56H284.246V240.954C284.246 237.149 287.429 234.054 291.337 234.054C295.033 234.054 298.079 236.827 298.401 240.348H302.593C302.931 240.348 303.204 240.621 303.204 240.954C303.204 241.287 302.931 241.56 302.593 241.56H302.587ZM285.496 240.343H297.172C296.856 237.493 294.361 235.266 291.332 235.266C288.302 235.266 285.807 237.493 285.491 240.343H285.496Z" fill="#1D1D1B"/>
<path d="M291.277 256.418C289.623 256.418 288.28 255.076 288.28 253.427C288.28 253.094 288.553 252.821 288.891 252.821C289.23 252.821 289.503 253.094 289.503 253.427C289.503 254.404 290.3 255.201 291.282 255.201C292.265 255.201 293.056 254.404 293.056 253.427C293.056 253.094 293.329 252.821 293.668 252.821C294.006 252.821 294.279 253.094 294.279 253.427C294.279 255.076 292.936 256.418 291.288 256.418H291.277Z" fill="#1D1D1B"/>
<path d="M288.853 257.86C288.853 257.86 283.558 258.493 283.558 262.903L288.853 257.86Z" fill="white"/>
<path d="M283.558 263.509C283.22 263.509 282.947 263.236 282.947 262.904C282.947 258.984 286.762 257.494 288.777 257.254C289.115 257.221 289.41 257.45 289.454 257.783C289.497 258.116 289.257 258.422 288.924 258.46C288.733 258.482 284.164 259.088 284.164 262.904C284.164 263.236 283.891 263.509 283.553 263.509H283.558Z" fill="#1D1D1B"/>
<path d="M219.991 303.549C219.991 295.241 213.255 288.505 204.947 288.505C196.638 288.505 189.902 295.241 189.902 303.549C189.902 311.857 196.633 318.594 204.947 318.594C213.26 318.594 219.991 311.857 219.991 303.549Z" fill="white"/>
<path d="M204.941 319.205C196.311 319.205 189.286 312.18 189.286 303.549C189.286 294.919 196.311 287.894 204.941 287.894C213.572 287.894 220.597 294.919 220.597 303.549C220.597 312.18 213.572 319.205 204.941 319.205ZM204.941 289.111C196.982 289.111 190.508 295.585 190.508 303.549C190.508 311.514 196.982 317.988 204.941 317.988C212.9 317.988 219.38 311.514 219.38 303.549C219.38 295.585 212.906 289.111 204.941 289.111Z" fill="#1D1D1B"/>
<path d="M324.116 303.549C324.116 295.241 317.38 288.505 309.072 288.505C300.764 288.505 294.028 295.241 294.028 303.549C294.028 311.857 300.758 318.594 309.072 318.594C317.386 318.594 324.116 311.857 324.116 303.549Z" fill="white"/>
<path d="M309.067 319.205C300.437 319.205 293.411 312.18 293.411 303.549C293.411 294.919 300.437 287.894 309.067 287.894C317.697 287.894 324.722 294.919 324.722 303.549C324.722 312.18 317.697 319.205 309.067 319.205ZM309.067 289.111C301.108 289.111 294.634 295.585 294.634 303.549C294.634 311.514 301.108 317.988 309.067 317.988C317.026 317.988 323.505 311.514 323.505 303.549C323.505 295.585 317.031 289.111 309.067 289.111Z" fill="#1D1D1B"/>
<path d="M317.348 303.549C317.348 298.975 313.641 295.268 309.067 295.268C304.492 295.268 300.78 298.975 300.78 303.549C300.78 308.124 304.487 311.83 309.067 311.83C313.647 311.83 317.348 308.124 317.348 303.549Z" fill="white"/>
<path d="M309.067 312.441C304.165 312.441 300.175 308.451 300.175 303.549C300.175 298.647 304.165 294.662 309.067 294.662C313.969 294.662 317.959 298.647 317.959 303.549C317.959 308.451 313.969 312.441 309.067 312.441ZM309.067 295.88C304.837 295.88 301.392 299.324 301.392 303.549C301.392 307.774 304.837 311.224 309.067 311.224C313.298 311.224 316.742 307.78 316.742 303.549C316.742 299.319 313.298 295.88 309.067 295.88Z" fill="#1D1D1B"/>
<path d="M213.223 303.549C213.223 298.975 209.516 295.268 204.942 295.268C200.367 295.268 196.655 298.975 196.655 303.549C196.655 308.124 200.362 311.83 204.942 311.83C209.522 311.83 213.223 308.124 213.223 303.549Z" fill="white"/>
<path d="M204.942 312.441C200.04 312.441 196.049 308.451 196.049 303.549C196.049 298.647 200.04 294.662 204.942 294.662C209.844 294.662 213.834 298.647 213.834 303.549C213.834 308.451 209.844 312.441 204.942 312.441ZM204.942 295.88C200.711 295.88 197.267 299.324 197.267 303.549C197.267 307.774 200.711 311.224 204.942 311.224C209.172 311.224 212.617 307.78 212.617 303.549C212.617 299.319 209.172 295.88 204.942 295.88Z" fill="#1D1D1B"/>
<path d="M587.806 235.25V268.122H539C539 268.122 541.21 264.514 544.169 259.677C553.476 244.502 570.005 235.25 587.806 235.25Z" fill="white"/>
<path d="M587.806 268.733H539C538.781 268.733 538.574 268.613 538.47 268.422C538.366 268.231 538.366 267.997 538.481 267.805L543.65 259.361C553.001 244.115 569.923 234.638 587.806 234.638C588.145 234.638 588.417 234.911 588.417 235.244V268.117C588.417 268.45 588.145 268.723 587.806 268.723V268.733ZM540.086 267.516H587.2V235.861C569.961 236.074 553.716 245.277 544.693 259.999L540.086 267.516Z" fill="#1D1D1B"/>
<path d="M554.819 270.442C554.448 270.6 554.022 270.426 553.864 270.06L548.323 257.123C548.165 256.757 548.334 256.326 548.705 256.167C549.076 256.009 549.502 256.184 549.66 256.55L555.201 269.481C555.359 269.852 555.19 270.278 554.819 270.437" fill="#1D1D1B"/>
<path d="M554.535 271.113C554.017 271.113 553.525 270.813 553.307 270.306L547.766 257.368C547.625 257.041 547.619 256.681 547.75 256.348C547.881 256.015 548.132 255.758 548.46 255.616C549.148 255.327 549.934 255.643 550.217 256.32L555.758 269.252C555.9 269.574 555.905 269.94 555.774 270.267C555.643 270.6 555.392 270.862 555.059 271.004C554.89 271.075 554.71 271.113 554.535 271.113ZM548.989 256.724C548.989 256.724 548.956 256.724 548.94 256.735L548.88 256.893L554.421 269.831C554.442 269.885 554.508 269.923 554.584 269.891C554.617 269.874 554.634 269.847 554.644 269.825L549.104 256.801C549.082 256.752 549.038 256.724 548.989 256.724Z" fill="#1D1D1B"/>
<path d="M558.902 267.576C558.902 267.576 555.872 266.938 554.977 264.918C554.087 262.898 554.055 261.779 553.662 262.09C553.269 262.401 552.777 263.122 552.99 264.328C553.127 265.082 552.717 265.371 552.39 265.486C552.1 265.584 550.583 264.05 550.425 264.317C549.879 265.245 550.283 269.028 552.302 270.246C554.988 271.856 558.416 270.153 558.416 270.153L558.897 267.582L558.902 267.576Z" fill="#A7A7A6"/>
<path d="M554.983 271.55C554.011 271.55 552.963 271.354 551.991 270.77C549.77 269.427 549.153 265.289 549.901 264.012L550.043 263.771L550.354 263.69C550.752 263.597 551.134 263.892 551.789 264.405C551.948 264.53 552.188 264.716 552.352 264.825C552.406 264.765 552.434 264.656 552.395 264.443C552.084 262.718 552.996 261.845 553.285 261.615C553.569 261.386 553.842 261.419 553.989 261.462C554.431 261.593 554.568 262.008 554.814 262.756C554.966 263.231 555.179 263.886 555.534 264.678C556.287 266.381 559.006 266.981 559.033 266.987L559.612 267.112L558.962 270.568L558.695 270.704C558.591 270.753 556.948 271.556 554.988 271.556L554.983 271.55ZM550.818 265.191C550.72 266.397 551.189 268.864 552.619 269.727C554.579 270.901 557.068 270.054 557.881 269.727L558.198 268.024C557.194 267.713 555.179 266.894 554.421 265.174C554.044 264.328 553.82 263.646 553.656 263.144C553.656 263.144 553.656 263.138 553.656 263.133C553.558 263.395 553.509 263.755 553.596 264.23C553.76 265.109 553.383 265.797 552.597 266.07C552.133 266.222 551.735 265.9 551.047 265.371C550.982 265.322 550.905 265.262 550.823 265.196L550.818 265.191Z" fill="#1D1D1B"/>
<path d="M579.17 259.536C576.25 259.536 572.734 260.387 571.812 264.23C571.599 265.142 570.971 265.895 570.114 266.266C568.154 267.107 564.47 268.16 560.223 266.703C559.431 266.43 558.558 266.779 558.17 267.516C557.297 269.203 557.554 270.939 558.493 272.713L590.601 272.522C590.601 272.522 589.416 267.625 586.883 263.739C585.186 261.129 582.282 259.536 579.165 259.536" fill="#1D1D1B"/>
<path d="M558.133 273.324L557.958 273.002C556.828 270.879 556.724 268.995 557.63 267.238C558.154 266.233 559.366 265.764 560.42 266.13C564.525 267.533 568.1 266.468 569.869 265.709C570.54 265.42 571.048 264.814 571.217 264.088C572.025 260.72 574.771 258.935 579.165 258.93H579.176C582.495 258.93 585.568 260.605 587.391 263.411C589.951 267.341 591.141 272.178 591.191 272.385L591.371 273.133L558.127 273.33L558.133 273.324ZM559.677 267.221C559.279 267.221 558.902 267.44 558.711 267.8C558.045 269.088 558.094 270.497 558.864 272.107L589.804 271.921C589.373 270.42 588.243 266.943 586.371 264.072C584.771 261.615 582.08 260.147 579.176 260.147H579.165C575.349 260.147 573.068 261.572 572.402 264.372C572.14 265.469 571.37 266.386 570.349 266.828C568.422 267.658 564.519 268.821 560.027 267.281C559.912 267.243 559.792 267.221 559.677 267.221Z" fill="#1D1D1B"/>
<path d="M676.407 294.46H507.465V305.711H676.407V294.46Z" fill="white"/>
<path d="M676.407 306.317H507.465C507.126 306.317 506.854 306.044 506.854 305.711V294.46C506.854 294.127 507.126 293.854 507.465 293.854H676.407C676.746 293.854 677.019 294.127 677.019 294.46V305.711C677.019 306.044 676.746 306.317 676.407 306.317ZM508.071 305.099H675.796V295.066H508.071V305.099Z" fill="#1D1D1B"/>
<path d="M671.358 294.46H511.248C511.106 291.747 511.422 289.122 512.187 286.709L512.372 286.982C512.372 286.982 529.775 287.981 530.381 274.318H535.184L539 268.127H587.807V235.25H595.754V268.127H637.006V235.25H644.949V268.127H663.257L671.363 294.46H671.358Z" fill="white"/>
<path d="M672.182 295.066H510.669L510.642 294.488C510.494 291.687 510.822 289.007 511.608 286.518L511.985 285.328L512.7 286.376C514.326 286.409 521.734 286.332 526.232 282.26C528.437 280.268 529.627 277.582 529.78 274.285L529.802 273.701H534.84L538.656 267.511H587.201V234.633H596.366V267.511H636.4V234.633H645.56V267.511H663.705L663.841 267.942L672.188 295.061L672.182 295.066ZM511.832 293.849H670.539L662.809 268.733H644.343V235.855H637.617V268.733H595.143V235.855H588.418V268.733H539.338L535.523 274.924H530.954C530.681 278.297 529.371 281.07 527.045 283.172C522.034 287.697 514.004 287.642 512.558 287.593C512.012 289.569 511.772 291.666 511.832 293.849Z" fill="#1D1D1B"/>
<path d="M637.001 235.255H595.749V268.127H637.001V235.255Z" fill="#8282D2"/>
<path d="M637.612 268.733H595.138V234.644H637.612V268.733ZM596.36 267.516H636.395V235.861H596.36V267.516Z" fill="#1D1D1B"/>
<path d="M676.407 292.293H507.465V305.705H676.407V292.293Z" fill="#A7A7A6"/>
<path d="M677.013 306.317H506.854V291.687H677.013V306.317ZM508.071 305.099H675.796V292.905H508.071V305.099Z" fill="#1D1D1B"/>
<path d="M554.311 305.711C554.311 297.255 547.461 290.399 539 290.399C530.539 290.399 523.688 297.25 523.688 305.711C523.688 314.172 530.539 321.023 539 321.023C547.461 321.023 554.311 314.172 554.311 305.711Z" fill="white"/>
<path d="M539 321.629C530.222 321.629 523.077 314.489 523.077 305.711C523.077 296.933 530.222 289.793 539 289.793C547.777 289.793 554.917 296.933 554.917 305.711C554.917 314.489 547.772 321.629 539 321.629ZM539 291.005C530.894 291.005 524.294 297.599 524.294 305.705C524.294 313.812 530.888 320.406 539 320.406C547.111 320.406 553.7 313.812 553.7 305.705C553.7 297.599 547.106 291.005 539 291.005Z" fill="#1D1D1B"/>
<path d="M660.26 305.711C660.26 297.255 653.409 290.399 644.948 290.399C636.487 290.399 629.637 297.25 629.637 305.711C629.637 314.172 636.487 321.023 644.948 321.023C653.409 321.023 660.26 314.172 660.26 305.711Z" fill="white"/>
<path d="M644.948 321.629C636.171 321.629 629.031 314.489 629.031 305.711C629.031 296.933 636.176 289.793 644.948 289.793C653.721 289.793 660.866 296.933 660.866 305.711C660.866 314.489 653.721 321.629 644.948 321.629ZM644.948 291.005C636.842 291.005 630.248 297.599 630.248 305.705C630.248 313.812 636.842 320.406 644.948 320.406C653.055 320.406 659.649 313.812 659.649 305.705C659.649 297.599 653.055 291.005 644.948 291.005Z" fill="#1D1D1B"/>
<path d="M653.376 305.711C653.376 301.06 649.604 297.288 644.954 297.288C640.303 297.288 636.525 301.06 636.525 305.711C636.525 310.362 640.297 314.134 644.954 314.134C649.61 314.134 653.376 310.362 653.376 305.711Z" fill="white"/>
<path d="M644.954 314.745C639.97 314.745 635.914 310.695 635.914 305.711C635.914 300.727 639.97 296.677 644.954 296.677C649.938 296.677 653.988 300.727 653.988 305.711C653.988 310.695 649.938 314.745 644.954 314.745ZM644.954 297.894C640.641 297.894 637.131 301.398 637.131 305.711C637.131 310.023 640.641 313.528 644.954 313.528C649.266 313.528 652.771 310.023 652.771 305.711C652.771 301.398 649.266 297.894 644.954 297.894Z" fill="#1D1D1B"/>
<path d="M547.428 305.711C547.428 301.06 543.656 297.288 539.005 297.288C534.355 297.288 530.577 301.06 530.577 305.711C530.577 310.362 534.349 314.134 539.005 314.134C543.662 314.134 547.428 310.362 547.428 305.711Z" fill="white"/>
<path d="M539 314.745C534.016 314.745 529.96 310.695 529.96 305.711C529.96 300.727 534.016 296.677 539 296.677C543.983 296.677 548.034 300.727 548.034 305.711C548.034 310.695 543.983 314.745 539 314.745ZM539 297.894C534.687 297.894 531.183 301.398 531.183 305.711C531.183 310.023 534.693 313.528 539 313.528C543.307 313.528 546.817 310.023 546.817 305.711C546.817 301.398 543.312 297.894 539 297.894Z" fill="#1D1D1B"/>
<path d="M530.38 274.318C529.78 287.981 512.372 286.982 512.372 286.982L512.187 286.709C514.441 279.58 520.593 274.318 530.38 274.318Z" fill="white"/>
<path d="M513.218 287.61C512.716 287.61 512.405 287.593 512.339 287.588C512.148 287.577 511.974 287.479 511.87 287.32L511.69 287.047C511.586 286.895 511.559 286.698 511.619 286.523C514.152 278.499 521.166 273.706 530.391 273.706C530.555 273.706 530.713 273.772 530.834 273.897C530.948 274.017 531.008 274.181 530.997 274.345C530.839 277.986 529.513 280.955 527.051 283.172C522.564 287.222 515.669 287.604 513.224 287.604L513.218 287.61ZM512.934 286.387C514.894 286.42 521.914 286.169 526.232 282.271C528.295 280.41 529.469 277.942 529.731 274.94C521.466 275.147 515.391 279.285 512.934 286.392V286.387Z" fill="#1D1D1B"/>
<path d="M637.001 235.25H595.749V268.127H637.001V235.25Z" fill="white"/>
<path d="M637.006 268.733H595.754C595.416 268.733 595.143 268.46 595.143 268.127V235.249C595.143 234.916 595.416 234.644 595.754 234.644H637.006C637.345 234.644 637.618 234.916 637.618 235.249V268.127C637.618 268.46 637.345 268.733 637.006 268.733ZM596.36 267.516H636.395V235.855H596.36V267.516Z" fill="#1D1D1B"/>
<path d="M663.257 268.127H644.954V235.255H645.434C650.014 235.255 654.059 238.241 655.402 242.619L663.257 268.127Z" fill="white"/>
<path d="M663.257 268.733H644.954C644.615 268.733 644.342 268.46 644.342 268.127V235.255C644.342 234.922 644.615 234.649 644.954 234.649H645.434C650.309 234.649 654.545 237.782 655.986 242.444L663.841 267.953C663.895 268.138 663.863 268.335 663.748 268.493C663.633 268.646 663.453 268.739 663.257 268.739V268.733ZM645.56 267.516H662.433L654.823 242.793C653.557 238.683 649.845 235.91 645.56 235.861V267.516Z" fill="#1D1D1B"/>
<path d="M583.652 257.734C582.484 259.721 580.333 261.053 577.866 261.053C574.159 261.053 571.157 258.051 571.157 254.344V251.424C569.601 251.413 568.34 250.146 568.34 248.585C568.34 247.461 569.083 242.886 572.538 240.43C574.454 241.429 577.637 243.634 576.157 246.756C576.212 246.713 579.018 244.256 579.957 247.946C580.906 251.669 577.025 251.194 577.025 251.194C577.025 251.194 578.745 257.723 583.647 257.739" fill="#A7A7A6"/>
<path d="M577.861 261.659C573.827 261.659 570.54 258.378 570.54 254.339V251.964C568.941 251.669 567.724 250.255 567.724 248.574C567.724 247.417 568.482 242.553 572.183 239.922L572.484 239.709L572.817 239.878C575.792 241.429 577.293 243.41 577.124 245.479C577.615 245.299 578.183 245.212 578.739 245.392C579.602 245.665 580.208 246.473 580.541 247.783C580.874 249.076 580.721 250.092 580.088 250.812C579.471 251.511 578.548 251.729 577.866 251.789C578.472 253.422 580.224 257.106 583.652 257.117H584.711L584.176 258.034C582.866 260.267 580.448 261.653 577.866 261.653L577.861 261.659ZM572.587 241.145C569.601 243.503 568.941 247.652 568.941 248.585C568.941 249.808 569.934 250.807 571.152 250.812H571.758V254.344C571.758 257.707 574.492 260.447 577.861 260.447C579.678 260.447 581.398 259.623 582.55 258.242C578.079 257.396 576.507 251.609 576.436 251.347L576.207 250.485L577.096 250.588C577.484 250.638 578.647 250.627 579.182 250.021C579.531 249.622 579.591 248.973 579.367 248.094C579.214 247.488 578.914 246.735 578.374 246.565C577.784 246.374 576.943 246.882 576.556 247.215L574.405 249.038L575.601 246.494C576.774 244.011 574.367 242.133 572.587 241.145Z" fill="#1D1D1B"/>
<path d="M584.569 245.545V254.344C584.569 255.583 584.236 256.741 583.647 257.734C578.739 257.712 577.025 251.189 577.025 251.189C577.025 251.189 580.901 251.664 579.957 247.941C579.018 244.251 576.206 246.707 576.157 246.751C577.631 243.629 574.449 241.423 572.533 240.424C573.865 239.475 575.601 238.836 577.86 238.836C579.716 238.836 581.387 239.589 582.604 240.801C583.816 242.018 584.569 243.694 584.569 245.545Z" fill="#1D1D1B"/>
<path d="M583.647 258.34C578.336 258.318 576.518 251.626 576.441 251.342C576.392 251.145 576.441 250.938 576.572 250.79C576.709 250.638 576.905 250.567 577.102 250.583C577.5 250.632 578.652 250.621 579.182 250.015C579.531 249.617 579.596 248.967 579.373 248.088C579.22 247.482 578.92 246.724 578.368 246.554C577.719 246.363 576.834 246.969 576.572 247.199C576.359 247.39 576.027 247.406 575.803 247.231C575.573 247.057 575.492 246.751 575.612 246.489C576.862 243.841 574.045 241.887 572.26 240.959C572.069 240.861 571.949 240.675 571.932 240.463C571.916 240.25 572.014 240.048 572.189 239.922C573.767 238.798 575.683 238.224 577.872 238.219C579.826 238.219 581.66 238.978 583.046 240.359C584.428 241.745 585.186 243.579 585.186 245.534V254.333C585.186 255.638 584.837 256.921 584.182 258.034C584.073 258.22 583.876 258.334 583.658 258.334L583.647 258.34ZM577.866 251.795C578.456 253.372 580.104 256.855 583.298 257.112C583.729 256.26 583.958 255.31 583.958 254.344V245.545C583.958 243.918 583.325 242.384 582.173 241.227C581.021 240.075 579.487 239.442 577.861 239.442C576.31 239.442 574.918 239.764 573.728 240.397C576.097 241.86 577.277 243.634 577.129 245.479C577.593 245.31 578.139 245.223 578.679 245.375C579.575 245.632 580.202 246.44 580.546 247.783C580.879 249.076 580.721 250.097 580.088 250.818C579.476 251.516 578.554 251.735 577.866 251.789V251.795Z" fill="#1D1D1B"/>
<path d="M588.09 239.24C588.09 240.839 586.791 242.133 585.197 242.133C583.603 242.133 582.304 240.839 582.304 239.24C582.304 237.64 583.597 236.347 585.197 236.347C586.796 236.347 588.09 237.64 588.09 239.24Z" fill="#1D1D1B"/>
<path d="M585.197 242.744C583.265 242.744 581.692 241.172 581.692 239.24C581.692 237.307 583.265 235.735 585.197 235.735C587.129 235.735 588.701 237.307 588.701 239.24C588.701 241.172 587.129 242.744 585.197 242.744ZM585.197 236.958C583.936 236.958 582.91 237.984 582.91 239.245C582.91 240.506 583.936 241.533 585.197 241.533C586.458 241.533 587.484 240.506 587.484 239.245C587.484 237.984 586.458 236.958 585.197 236.958Z" fill="#1D1D1B"/>
<path d="M591.502 240.736C591.502 242.051 590.432 243.121 589.116 243.121C587.801 243.121 586.736 242.051 586.736 240.736C586.736 239.42 587.801 238.35 589.116 238.35C590.432 238.35 591.502 239.42 591.502 240.736Z" fill="#1D1D1B"/>
<path d="M589.122 243.727C587.479 243.727 586.136 242.384 586.136 240.736C586.136 239.087 587.479 237.744 589.122 237.744C590.765 237.744 592.113 239.087 592.113 240.736C592.113 242.384 590.77 243.727 589.122 243.727ZM589.122 238.961C588.145 238.961 587.353 239.758 587.353 240.736C587.353 241.713 588.145 242.51 589.122 242.51C590.099 242.51 590.896 241.713 590.896 240.736C590.896 239.758 590.099 238.961 589.122 238.961Z" fill="#1D1D1B"/>
<path d="M590.541 245.217C590.541 246.26 589.695 247.106 588.652 247.106C587.61 247.106 586.764 246.265 586.764 245.217C586.764 244.169 587.61 243.328 588.652 243.328C589.695 243.328 590.541 244.169 590.541 245.217Z" fill="#1D1D1B"/>
<path d="M588.652 247.712C587.277 247.712 586.152 246.593 586.152 245.217C586.152 243.842 587.277 242.723 588.652 242.723C590.028 242.723 591.147 243.842 591.147 245.217C591.147 246.593 590.028 247.712 588.652 247.712ZM588.652 243.94C587.948 243.94 587.37 244.513 587.37 245.217C587.37 245.921 587.943 246.495 588.652 246.495C589.362 246.495 589.93 245.921 589.93 245.217C589.93 244.513 589.357 243.94 588.652 243.94Z" fill="#1D1D1B"/>
<path d="M592.135 247.553C592.135 248.29 591.54 248.885 590.803 248.885C590.066 248.885 589.471 248.29 589.471 247.553C589.471 246.817 590.066 246.222 590.803 246.222C591.54 246.222 592.135 246.817 592.135 247.553Z" fill="#1D1D1B"/>
<path d="M590.803 249.491C589.733 249.491 588.86 248.618 588.86 247.548C588.86 246.478 589.733 245.605 590.803 245.605C591.873 245.605 592.746 246.478 592.746 247.548C592.746 248.618 591.873 249.491 590.803 249.491ZM590.803 246.827C590.399 246.827 590.077 247.149 590.077 247.553C590.077 247.957 590.399 248.279 590.803 248.279C591.207 248.279 591.524 247.957 591.524 247.553C591.524 247.149 591.202 246.827 590.803 246.827Z" fill="#1D1D1B"/>
<path d="M573.264 246.151C573.264 246.396 573.068 246.593 572.822 246.593C572.576 246.593 572.38 246.396 572.38 246.151C572.38 245.905 572.576 245.708 572.822 245.708C573.068 245.708 573.264 245.905 573.264 246.151Z" fill="#1D1D1B"/>
<path d="M572.817 247.204C572.233 247.204 571.763 246.729 571.763 246.151C571.763 245.572 572.233 245.097 572.817 245.097C573.401 245.097 573.87 245.572 573.87 246.151C573.87 246.729 573.401 247.204 572.817 247.204ZM572.817 245.987C572.729 245.987 572.653 246.063 572.653 246.151C572.653 246.331 572.986 246.325 572.986 246.151C572.986 246.063 572.909 245.987 572.822 245.987H572.817Z" fill="#1D1D1B"/>
<path d="M618.157 256.872C618.157 256.872 619.303 259.759 623.899 259.606L624.62 257.172C622.234 258.264 619.292 255.884 619.292 255.884L618.157 256.872Z" fill="#A7A7A6"/>
<path d="M623.545 260.218C618.883 260.218 617.639 257.226 617.589 257.095L617.431 256.697L619.276 255.087L619.675 255.409C619.702 255.43 622.366 257.538 624.364 256.62L625.581 256.064L624.358 260.201L623.922 260.218C623.796 260.218 623.67 260.223 623.55 260.223L623.545 260.218ZM618.927 257.003C619.369 257.658 620.603 258.968 623.441 259L623.725 258.034C621.984 258.242 620.117 257.199 619.325 256.653L618.927 257.003Z" fill="#1D1D1B"/>
<path d="M571.152 254.339C571.152 254.339 573.445 254.939 574.842 253.547L571.152 254.339Z" fill="#1D1D1B"/>
<path d="M572.315 255.076C571.589 255.076 571.048 254.939 570.999 254.928L571.305 253.749C571.305 253.749 573.286 254.24 574.411 253.116L575.273 253.973C574.378 254.868 573.204 255.076 572.315 255.076Z" fill="#1D1D1B"/>
<path d="M644.899 263.04C644.899 260.365 642.732 258.198 640.063 258.198C640.03 258.198 639.992 258.198 639.959 258.198C639.97 258.072 639.975 257.941 639.975 257.81C639.975 255.136 637.808 252.969 635.133 252.969C632.852 252.969 630.941 254.546 630.428 256.675C629.735 256.053 628.823 255.676 627.813 255.676C625.646 255.676 623.888 257.434 623.888 259.601C623.888 260.25 624.047 260.862 624.325 261.397C622.032 261.779 620.286 263.771 620.286 266.168C620.286 268.842 622.453 271.01 625.128 271.01C625.897 271.01 626.618 270.829 627.262 270.513C628.075 272.052 629.686 273.1 631.547 273.1C632.792 273.1 633.927 272.625 634.784 271.856C635.428 272.172 636.154 272.352 636.918 272.352C639.571 272.352 641.733 270.213 641.755 267.565C643.589 266.872 644.894 265.109 644.894 263.034" fill="white"/>
<path d="M631.553 273.712C629.713 273.712 628.027 272.795 627.017 271.283C626.416 271.506 625.783 271.621 625.128 271.621C622.12 271.621 619.68 269.176 619.68 266.173C619.68 263.755 621.247 261.675 623.496 260.977C623.354 260.534 623.283 260.076 623.283 259.606C623.283 257.106 625.319 255.076 627.814 255.076C628.627 255.076 629.419 255.294 630.112 255.703C630.947 253.706 632.901 252.368 635.134 252.368C638.076 252.368 640.478 254.71 640.582 257.63C643.387 257.931 645.511 260.245 645.511 263.045C645.511 265.163 644.255 267.101 642.35 267.986C642.116 270.77 639.763 272.969 636.924 272.969C636.231 272.969 635.532 272.833 634.888 272.576C633.933 273.313 632.765 273.717 631.553 273.717V273.712ZM627.268 269.907C627.486 269.907 627.699 270.027 627.803 270.235C628.54 271.632 629.975 272.5 631.547 272.5C632.596 272.5 633.594 272.112 634.375 271.414C634.561 271.244 634.828 271.212 635.052 271.321C635.625 271.605 636.275 271.752 636.919 271.752C639.228 271.752 641.128 269.874 641.144 267.571C641.144 267.32 641.302 267.096 641.542 267.008C643.185 266.392 644.288 264.798 644.288 263.045C644.288 260.715 642.388 258.815 640.063 258.815C639.894 258.815 639.675 258.744 639.566 258.618C639.452 258.493 639.337 258.329 639.353 258.16C639.364 258.051 639.37 257.936 639.37 257.821C639.37 255.491 637.47 253.591 635.139 253.591C633.18 253.591 631.487 254.923 631.029 256.828C630.98 257.035 630.821 257.199 630.619 257.265C630.412 257.33 630.194 257.281 630.03 257.139C629.419 256.593 628.638 256.293 627.825 256.293C625.996 256.293 624.511 257.778 624.511 259.606C624.511 260.141 624.637 260.649 624.877 261.124C624.964 261.299 624.964 261.501 624.877 261.675C624.789 261.85 624.626 261.97 624.435 262.003C622.388 262.341 620.903 264.099 620.903 266.173C620.903 268.504 622.803 270.404 625.133 270.404C625.783 270.404 626.416 270.256 627 269.967C627.088 269.923 627.18 269.902 627.268 269.902V269.907Z" fill="#1D1D1B"/>
<path d="M623.294 265.152C623.294 265.152 616.732 272.232 619.194 274.187C621.656 276.135 625.903 266.741 625.903 266.741" fill="white"/>
<path d="M619.931 275.06C619.527 275.06 619.15 274.924 618.817 274.662C618.359 274.296 618.097 273.772 618.048 273.144C617.829 270.256 622.338 265.294 622.851 264.743C623.081 264.497 623.468 264.481 623.714 264.71C623.96 264.94 623.976 265.322 623.747 265.567C622.447 266.97 619.107 271.053 619.26 273.051C619.281 273.346 619.385 273.553 619.576 273.706C619.74 273.832 619.898 273.87 620.111 273.815C621.689 273.433 624.161 269.115 625.357 266.484C625.499 266.179 625.848 266.042 626.165 266.179C626.471 266.315 626.607 266.675 626.465 266.981C626.127 267.734 623.07 274.345 620.4 274.995C620.248 275.033 620.089 275.049 619.936 275.049L619.931 275.06Z" fill="#1D1D1B"/>
<path d="M636.782 255.851C636.782 255.851 644.588 250.851 645.821 253.645C647.055 256.435 637.655 258.717 637.655 258.717" fill="white"/>
<path d="M637.655 259.317C637.382 259.317 637.131 259.131 637.066 258.853C636.984 258.525 637.191 258.198 637.513 258.116C640.117 257.483 644.528 255.933 645.243 254.475C645.347 254.262 645.358 254.082 645.265 253.886C645.172 253.673 645.019 253.542 644.768 253.471C643.201 253.001 639.238 254.994 637.104 256.358C636.831 256.539 636.449 256.457 636.263 256.173C636.083 255.889 636.165 255.512 636.449 255.332C637.06 254.939 642.508 251.511 645.112 252.303C645.702 252.477 646.133 252.854 646.373 253.389C646.608 253.913 646.591 254.475 646.329 255.01C645.123 257.456 638.54 259.115 637.797 259.295C637.748 259.306 637.699 259.312 637.655 259.312V259.317Z" fill="#1D1D1B"/>
<path d="M630.041 264.033C630.041 264.279 629.844 264.475 629.598 264.475C629.353 264.475 629.156 264.279 629.156 264.033C629.156 263.788 629.353 263.591 629.598 263.591C629.844 263.591 630.041 263.788 630.041 264.033Z" fill="#1D1D1B"/>
<path d="M629.598 265.087C629.014 265.087 628.545 264.612 628.545 264.033C628.545 263.455 629.014 262.98 629.598 262.98C630.183 262.98 630.652 263.455 630.652 264.033C630.652 264.612 630.183 265.087 629.598 265.087ZM629.598 263.87C629.511 263.87 629.435 263.946 629.435 264.033C629.435 264.214 629.768 264.208 629.768 264.033C629.768 263.946 629.691 263.87 629.604 263.87H629.598Z" fill="#1D1D1B"/>
<path d="M635.516 260.409C635.516 260.654 635.319 260.851 635.073 260.851C634.828 260.851 634.631 260.654 634.631 260.409C634.631 260.163 634.828 259.967 635.073 259.967C635.319 259.967 635.516 260.163 635.516 260.409Z" fill="#1D1D1B"/>
<path d="M635.068 261.462C634.484 261.462 634.015 260.987 634.015 260.409C634.015 259.83 634.484 259.355 635.068 259.355C635.652 259.355 636.122 259.83 636.122 260.409C636.122 260.987 635.652 261.462 635.068 261.462ZM635.068 260.245C634.981 260.245 634.904 260.321 634.904 260.409C634.904 260.583 635.237 260.589 635.237 260.409C635.237 260.316 635.161 260.245 635.074 260.245H635.068Z" fill="#1D1D1B"/>
<path d="M635.969 263.564L635.647 265.262C635.603 265.513 635.357 265.677 635.106 265.633L633.408 265.311C633.004 265.234 632.89 264.705 633.234 264.47L635.253 263.1C635.597 262.865 636.045 263.165 635.969 263.569" fill="#1D1D1B"/>
<path d="M614.559 241.68C614.559 241.68 604.985 240.468 604.832 243.607C604.679 246.746 614.789 244.726 614.789 244.726" fill="#A7A7A6"/>
<path d="M608.904 245.97C607.24 245.97 605.667 245.752 604.865 245.059C604.417 244.671 604.194 244.164 604.226 243.58C604.254 242.995 604.527 242.471 605.007 242.067C607.223 240.206 613.888 240.987 614.636 241.079C614.969 241.123 615.204 241.423 615.16 241.756C615.116 242.089 614.827 242.34 614.483 242.286C612.584 242.046 607.327 241.707 605.787 243.001C605.558 243.192 605.449 243.394 605.438 243.64C605.427 243.847 605.498 244 605.656 244.136C606.89 245.195 611.841 244.693 614.669 244.136C615.018 244.071 615.318 244.284 615.384 244.617C615.449 244.944 615.237 245.266 614.909 245.332C614.412 245.43 611.536 245.981 608.904 245.981V245.97Z" fill="#1D1D1B"/>
<path d="M621.017 252.248C621.017 253.618 620.422 254.961 619.292 255.878C619.145 255.998 619.003 256.129 618.872 256.26C614.259 260.944 609.428 264.934 604.335 268.122H595.749V261.812C601.84 257.718 607.714 253.329 613.369 248.651C613.604 248.454 613.844 248.279 614.112 248.138C616.137 247.04 618.708 247.575 620.111 249.486C620.722 250.316 621.012 251.282 621.012 252.243" fill="#A7A7A6"/>
<path d="M604.51 268.733H595.143V261.49L595.411 261.309C601.453 257.248 607.365 252.832 612.982 248.181C613.282 247.93 613.555 247.744 613.834 247.603C616.126 246.347 619.041 247.002 620.603 249.131C621.269 250.037 621.623 251.118 621.623 252.248C621.623 253.847 620.908 255.343 619.669 256.353C619.538 256.457 619.418 256.571 619.303 256.691C614.571 261.495 609.647 265.518 604.652 268.646L604.505 268.739L604.51 268.733ZM596.36 267.516H604.155C609.019 264.454 613.823 260.523 618.43 255.834C618.572 255.687 618.736 255.54 618.899 255.403C619.855 254.628 620.401 253.476 620.401 252.248C620.401 251.38 620.128 250.55 619.615 249.851C618.414 248.214 616.181 247.706 614.401 248.672C614.194 248.782 613.987 248.924 613.752 249.12C608.184 253.727 602.332 258.105 596.355 262.139V267.516H596.36Z" fill="#1D1D1B"/>
<path d="M632.022 241.745C632.208 242.52 631.607 244.436 629.822 244.551C627.055 244.726 622.235 244.567 622.382 245.004C622.912 246.56 626.684 246.62 626.302 246.838C622.961 248.727 620.029 249.529 618.599 249.879C616.045 250.496 613.468 248.924 612.851 246.369C612.234 243.814 613.806 241.243 616.361 240.626C618.916 240.009 631.405 239.185 632.022 241.74" fill="#A7A7A6"/>
<path d="M617.475 250.627C616.498 250.627 615.537 250.359 614.685 249.835C613.462 249.087 612.6 247.908 612.267 246.516C611.574 243.64 613.353 240.736 616.23 240.037C617.84 239.644 631.793 238.197 632.623 241.598C632.786 242.286 632.535 243.268 632.011 243.978C631.487 244.693 630.745 245.097 629.871 245.152C628.889 245.217 627.65 245.234 626.465 245.255C625.499 245.272 624.298 245.294 623.507 245.343C624.173 245.725 625.259 245.927 625.816 246.031C626.471 246.156 626.864 246.227 626.946 246.702L627.016 247.122L626.623 247.368C624.167 248.754 621.52 249.802 618.763 250.474C618.337 250.578 617.917 250.627 617.491 250.627H617.475ZM624.282 240.61C621.197 240.61 617.966 240.867 616.503 241.221C614.281 241.756 612.906 244.005 613.441 246.232C613.697 247.313 614.363 248.225 615.308 248.804C616.252 249.382 617.371 249.557 618.452 249.295C620.597 248.771 622.671 248.017 624.626 247.04C623.507 246.773 622.169 246.282 621.803 245.201L621.705 244.906L621.891 244.6C622.191 244.175 622.742 244.104 626.427 244.044C627.595 244.022 628.812 244.005 629.779 243.94C630.286 243.907 630.707 243.678 631.012 243.257C631.378 242.766 631.482 242.144 631.422 241.882C631.198 240.948 627.83 240.605 624.271 240.605L624.282 240.61Z" fill="#1D1D1B"/>
<path d="M616.11 245.059C616.11 245.059 609.549 252.139 612.011 254.093C614.473 256.042 618.719 246.647 618.719 246.647" fill="#A7A7A6"/>
<path d="M612.742 254.966C612.338 254.966 611.961 254.83 611.628 254.568C611.17 254.202 610.908 253.678 610.859 253.05C610.64 250.163 615.149 245.201 615.662 244.649C615.892 244.404 616.279 244.387 616.525 244.617C616.771 244.846 616.787 245.228 616.558 245.474C615.258 246.877 611.918 250.96 612.071 252.958C612.092 253.252 612.196 253.46 612.387 253.613C612.551 253.738 612.715 253.776 612.922 253.722C614.5 253.34 616.973 249.022 618.168 246.391C618.304 246.085 618.659 245.949 618.976 246.085C619.282 246.222 619.418 246.582 619.276 246.887C618.938 247.641 615.881 254.251 613.211 254.901C613.059 254.939 612.9 254.956 612.747 254.956L612.742 254.966Z" fill="#1D1D1B"/>
<path d="M632.841 240.211L632.519 241.909C632.469 242.16 632.224 242.324 631.978 242.28L630.28 241.958C629.877 241.882 629.762 241.352 630.106 241.118L632.126 239.747C632.469 239.513 632.917 239.813 632.841 240.217" fill="#1D1D1B"/>
<path d="M620.4 243.618C620.4 243.863 620.204 244.06 619.958 244.06C619.713 244.06 619.516 243.863 619.516 243.618C619.516 243.372 619.713 243.176 619.958 243.176C620.204 243.176 620.4 243.372 620.4 243.618Z" fill="#1D1D1B"/>
<path d="M619.958 244.666C619.374 244.666 618.905 244.191 618.905 243.612C618.905 243.034 619.374 242.559 619.958 242.559C620.542 242.559 621.012 243.034 621.012 243.612C621.012 244.191 620.542 244.666 619.958 244.666ZM619.958 243.448C619.871 243.448 619.795 243.525 619.795 243.612C619.795 243.787 620.128 243.787 620.128 243.612C620.128 243.525 620.051 243.448 619.964 243.448H619.958Z" fill="#1D1D1B"/>
<path d="M405.528 317.704H390.118V367.089H405.528V317.704Z" fill="white"/>
<path d="M406.134 367.695H389.507V317.092H406.134V367.695ZM390.724 366.477H404.917V318.31H390.724V366.477Z" fill="#1D1D1B"/>
<path d="M399.174 307.998H396.461V317.698H399.174V307.998Z" fill="#1D1D1B"/>
<path d="M399.786 318.31H395.855V307.392H399.786V318.31ZM397.078 317.092H398.568V308.609H397.078V317.092Z" fill="#1D1D1B"/>
<path d="M397.821 366.734C397.482 366.734 397.209 366.461 397.209 366.128V317.704C397.209 317.371 397.482 317.098 397.821 317.098C398.159 317.098 398.432 317.371 398.432 317.704V366.128C398.432 366.461 398.159 366.734 397.821 366.734Z" fill="#1D1D1B"/>
<path d="M375.762 375.817H582.774C582.959 372.313 582.55 368.918 581.556 365.795L581.322 366.15C581.322 366.15 558.815 367.438 558.035 349.779H551.828L546.893 341.771H483.791V299.27H409.912V341.771H386.248L375.768 375.823L375.762 375.817Z" fill="#1D1D1B"/>
<path d="M582.779 376.429H375.768C375.577 376.429 375.391 376.336 375.276 376.183C375.162 376.025 375.129 375.828 375.183 375.643L385.664 341.591C385.746 341.335 385.975 341.16 386.248 341.16H409.306V299.264C409.306 298.931 409.579 298.658 409.917 298.658H483.796C484.134 298.658 484.407 298.931 484.407 299.264V341.16H546.904C547.112 341.16 547.308 341.269 547.423 341.449L552.183 349.168H558.051C558.379 349.168 558.641 349.424 558.657 349.752C558.848 354.07 560.415 357.58 563.302 360.189C569.263 365.577 579.127 365.593 581.01 365.555L581.07 365.457C581.207 365.266 581.431 365.162 581.66 365.195C581.889 365.227 582.086 365.391 582.151 365.615C583.161 368.808 583.581 372.253 583.396 375.85C583.38 376.172 583.112 376.429 582.79 376.429H582.779ZM376.592 375.211H582.2C582.299 372.258 581.971 369.425 581.223 366.761C579.793 366.832 569.089 367.062 562.478 361.095C559.47 358.377 557.784 354.779 557.467 350.385H551.834C551.626 350.385 551.43 350.276 551.315 350.096L546.555 342.377H483.79C483.452 342.377 483.179 342.104 483.179 341.771V299.875H410.518V341.771C410.518 342.104 410.245 342.377 409.906 342.377H386.69L376.586 375.211H376.592Z" fill="#1D1D1B"/>
<path d="M483.791 299.264V341.771H546.899C546.899 341.771 544.039 337.099 540.207 330.854C528.176 311.23 506.81 299.27 483.791 299.27" fill="white"/>
<path d="M546.899 342.377H483.791C483.452 342.377 483.179 342.104 483.179 341.771V299.27C483.179 298.937 483.452 298.664 483.791 298.664C506.848 298.664 528.667 310.88 540.725 330.543L547.418 341.46C547.532 341.646 547.532 341.88 547.428 342.077C547.325 342.273 547.117 342.388 546.899 342.388V342.377ZM484.402 341.16H545.818L539.688 331.17C527.957 312.038 506.816 300.088 484.402 299.876V341.16Z" fill="#1D1D1B"/>
<path d="M587.67 373.017H369.244V390.359H587.67V373.017Z" fill="#A7A7A6"/>
<path d="M588.276 390.971H368.633V372.411H588.276V390.971ZM369.85 389.754H587.059V373.628H369.85V389.754Z" fill="#1D1D1B"/>
<path d="M527.1 390.365C527.1 379.431 535.965 370.571 546.893 370.571C557.821 370.571 566.686 379.436 566.686 390.365C566.686 401.293 557.821 410.158 546.893 410.158C535.965 410.158 527.1 401.293 527.1 390.365Z" fill="white"/>
<path d="M546.893 410.764C535.643 410.764 526.488 401.61 526.488 390.359C526.488 379.109 535.643 369.955 546.893 369.955C558.143 369.955 567.298 379.109 567.298 390.359C567.298 401.61 558.143 410.764 546.893 410.764ZM546.893 371.177C536.314 371.177 527.706 379.786 527.706 390.365C527.706 400.944 536.314 409.552 546.893 409.552C557.472 409.552 566.08 400.944 566.08 390.365C566.08 379.786 557.472 371.177 546.893 371.177Z" fill="#1D1D1B"/>
<path d="M390.112 390.365C390.112 379.431 398.977 370.571 409.906 370.571C420.834 370.571 429.699 379.436 429.699 390.365C429.699 401.293 420.834 410.158 409.906 410.158C398.977 410.158 390.112 401.293 390.112 390.365Z" fill="white"/>
<path d="M409.912 410.764C398.661 410.764 389.507 401.61 389.507 390.359C389.507 379.109 398.661 369.955 409.912 369.955C421.162 369.955 430.316 379.109 430.316 390.359C430.316 401.61 421.162 410.764 409.912 410.764ZM409.912 371.177C399.333 371.177 390.724 379.786 390.724 390.365C390.724 400.944 399.333 409.552 409.912 409.552C420.491 409.552 429.099 400.944 429.099 390.365C429.099 379.786 420.491 371.177 409.912 371.177Z" fill="#1D1D1B"/>
<path d="M399.016 390.365C399.016 384.349 403.896 379.469 409.911 379.469C415.927 379.469 420.807 384.349 420.807 390.365C420.807 396.38 415.932 401.261 409.911 401.261C403.89 401.261 399.016 396.38 399.016 390.365Z" fill="white"/>
<path d="M409.911 401.866C403.568 401.866 398.404 396.702 398.404 390.359C398.404 384.016 403.563 378.852 409.911 378.852C416.26 378.852 421.418 384.016 421.418 390.359C421.418 396.702 416.26 401.866 409.911 401.866ZM409.911 380.075C404.24 380.075 399.627 384.688 399.627 390.365C399.627 396.042 404.24 400.655 409.911 400.655C415.583 400.655 420.196 396.042 420.196 390.365C420.196 384.688 415.583 380.075 409.911 380.075Z" fill="#1D1D1B"/>
<path d="M535.997 390.365C535.997 384.349 540.877 379.469 546.893 379.469C552.908 379.469 557.788 384.349 557.788 390.365C557.788 396.38 552.914 401.261 546.893 401.261C540.872 401.261 535.997 396.38 535.997 390.365Z" fill="white"/>
<path d="M546.898 401.866C540.555 401.866 535.391 396.702 535.391 390.359C535.391 384.016 540.555 378.852 546.898 378.852C553.241 378.852 558.4 384.016 558.4 390.359C558.4 396.702 553.241 401.866 546.898 401.866ZM546.898 380.075C541.227 380.075 536.608 384.688 536.608 390.365C536.608 396.042 541.227 400.655 546.898 400.655C552.57 400.655 557.182 396.042 557.182 390.365C557.182 384.688 552.57 380.075 546.898 380.075Z" fill="#1D1D1B"/>
<path d="M558.034 349.779C558.815 367.444 581.321 366.15 581.321 366.15L581.556 365.795C578.646 356.581 570.682 349.774 558.034 349.774" fill="white"/>
<path d="M580.224 366.783C577.085 366.783 568.225 366.292 562.472 361.095C559.333 358.257 557.635 354.457 557.428 349.806C557.417 349.643 557.477 349.479 557.592 349.359C557.706 349.239 557.865 349.168 558.034 349.168C569.874 349.168 578.886 355.314 582.14 365.615C582.2 365.79 582.172 365.986 582.063 366.139L581.823 366.488C581.719 366.647 581.545 366.745 581.354 366.756C581.272 366.756 580.862 366.783 580.218 366.783H580.224ZM558.684 350.396C558.995 354.419 560.545 357.716 563.285 360.194C569.099 365.446 578.668 365.609 580.841 365.56C577.669 356.1 569.634 350.603 558.678 350.396H558.684Z" fill="#1D1D1B"/>
<path d="M473.517 299.264V341.771H420.185V299.264" fill="white"/>
<path d="M473.517 342.377H420.185C419.847 342.377 419.574 342.104 419.574 341.771V299.27C419.574 298.937 419.847 298.664 420.185 298.664C420.524 298.664 420.796 298.937 420.796 299.27V341.165H472.911V299.27C472.911 298.937 473.184 298.664 473.522 298.664C473.861 298.664 474.134 298.937 474.134 299.27V341.771C474.134 342.104 473.861 342.377 473.522 342.377H473.517Z" fill="#1D1D1B"/>
<path d="M367.405 276.234V281.632C367.405 291.72 375.582 299.903 385.675 299.903H409.912V299.286C409.912 293.358 406.047 288.134 400.386 286.392L367.405 276.239V276.234Z" fill="white"/>
<path d="M409.912 300.503H385.675C375.265 300.503 366.799 292.037 366.799 281.627V276.228C366.799 276.037 366.892 275.852 367.044 275.737C367.197 275.622 367.394 275.584 367.585 275.644L400.567 285.797C406.517 287.632 410.518 293.047 410.518 299.275V299.892C410.518 300.225 410.245 300.498 409.906 300.498L409.912 300.503ZM368.016 277.053V281.627C368.016 291.365 375.937 299.286 385.675 299.286L409.301 299.275C409.301 293.582 405.649 288.636 400.206 286.96L368.016 277.053Z" fill="#1D1D1B"/>
<path d="M486.585 281.048H412.843V299.242H486.585V281.048Z" fill="#A7A7A6"/>
<path d="M487.197 299.854H412.237V280.442H487.197V299.854ZM413.455 298.636H485.979V281.66H413.455V298.636Z" fill="#1D1D1B"/>
<path d="M475.302 252.554H412.843V265.491H475.302V252.554Z" fill="white"/>
<path d="M475.908 266.097H412.232V251.942H475.908V266.097ZM413.449 264.88H474.685V253.16H413.449V264.88Z" fill="#1D1D1B"/>
<path d="M492.961 265.485H419.219V281.081H492.961V265.485Z" fill="#1D1D1B"/>
<path d="M493.573 281.693H418.613V264.88H493.573V281.693ZM419.831 280.475H492.355V266.097H419.831V280.475Z" fill="#1D1D1B"/>
<path d="M449.712 250.867H441.824V300.678H449.712V250.867Z" fill="white"/>
<path d="M450.323 301.289H441.218V250.261H450.323V301.289ZM442.435 300.072H449.106V251.478H442.435V300.072Z" fill="#1D1D1B"/>
<path d="M342.246 374.911C342.246 374.911 339.135 390.692 340.991 400.289C342.841 409.88 348.846 410.158 348.846 410.158H340.319C340.319 410.158 338.769 404.536 336.957 404.454C335.139 404.377 335.767 410.158 335.767 410.158H334.724C332.759 397.379 331.214 388.176 331.591 374.3L342.246 374.911Z" fill="#1D1D1B"/>
<path d="M348.845 410.764H339.855L339.729 410.317C339.036 407.806 337.742 405.093 336.923 405.06C336.902 405.06 336.847 405.06 336.781 405.131C336.192 405.759 336.181 408.412 336.367 410.093L336.438 410.764H334.194L333.85 408.532C332.043 396.828 330.613 387.581 330.973 374.283L330.99 373.656L342.972 374.344L342.835 375.031C342.802 375.19 339.773 390.807 341.58 400.174C343.31 409.132 348.643 409.541 348.873 409.552L348.84 410.77L348.845 410.764ZM340.777 409.547H345.575C343.659 408.281 341.416 405.688 340.395 400.398C338.741 391.822 340.941 378.651 341.52 375.474L332.18 374.933C331.885 387.745 333.211 396.386 335.046 408.242C335.029 406.818 335.182 405.06 335.903 404.29C336.197 403.974 336.514 403.821 336.983 403.837C338.889 403.924 340.253 407.784 340.777 409.541V409.547Z" fill="#1D1D1B"/>
<path d="M373.693 339.244C382.684 341.018 385.774 336.957 386.772 334.73C387.029 334.156 386.538 333.529 385.921 333.643C382.799 334.222 375.38 335.466 378.885 333.556C383.268 331.17 380.435 328.954 379.518 329.527C375.451 332.098 371.657 331.64 371.657 331.64L373.699 339.238L373.693 339.244Z" fill="white"/>
<path d="M377.771 340.286C376.527 340.286 375.14 340.15 373.573 339.844L373.202 339.773L370.828 330.941L371.717 331.045C371.75 331.056 375.369 331.432 379.18 329.025C379.605 328.758 380.211 328.779 380.763 329.091C381.445 329.467 381.865 330.166 381.865 330.908C381.865 331.667 381.423 332.803 379.409 333.965C380.501 333.905 382.487 333.665 385.801 333.054C386.33 332.961 386.822 333.152 387.138 333.556C387.46 333.965 387.531 334.511 387.318 334.986C386.532 336.738 384.152 340.297 377.766 340.297L377.771 340.286ZM374.179 338.72C382.324 340.205 385.211 336.716 386.216 334.478C386.249 334.396 386.216 334.331 386.194 334.298C386.167 334.26 386.107 334.227 386.03 334.238C377.82 335.756 377.596 335.122 377.395 334.56C377.132 333.818 378.082 333.299 378.59 333.021C380.14 332.175 380.894 331.263 380.588 330.575C380.408 330.166 379.966 330.008 379.824 330.046C376.761 331.984 373.857 332.273 372.454 332.278L374.185 338.714L374.179 338.72Z" fill="#1D1D1B"/>
<path d="M354.703 379.398C350.396 358.939 351.4 345.642 351.684 342.912C351.711 342.656 351.968 342.503 352.208 342.601C355.871 344.053 368.513 345.958 373.699 339.271C373.737 339.217 373.765 339.157 373.776 339.096L375.271 330.455C375.315 330.177 375.037 329.964 374.775 330.046C372.591 330.75 354.13 336.263 350.521 322.589C348.267 314.046 348.038 312.283 346.935 310.132C346.88 310.023 346.782 309.947 346.662 309.93L341.094 308.959C340.941 308.932 340.788 309.002 340.707 309.128C326.274 330.919 317.431 349.741 313.069 369.218C312.894 369.977 313.096 370.746 313.844 370.844C313.877 370.844 313.91 370.861 313.937 370.872C329.833 377.357 343.234 380.255 354.353 379.862C354.588 379.857 354.763 379.628 354.714 379.398" fill="white"/>
<path d="M352.388 380.506C341.47 380.506 328.468 377.46 313.691 371.434C313.309 371.39 312.948 371.172 312.703 370.823C312.403 370.386 312.31 369.753 312.463 369.081C316.775 349.823 325.323 331.23 340.188 308.79C340.395 308.468 340.772 308.293 341.176 308.353L346.749 309.325C347.055 309.368 347.333 309.57 347.47 309.865C348.288 311.453 348.649 312.878 349.615 316.688C349.991 318.173 350.466 320.035 351.094 322.431C351.929 325.608 353.687 327.944 356.307 329.38C363.005 333.037 373.409 329.838 374.572 329.462C374.894 329.353 375.265 329.429 375.527 329.653C375.784 329.877 375.91 330.21 375.855 330.543L374.359 339.195C374.332 339.358 374.261 339.511 374.168 339.637C368.759 346.613 355.952 344.583 352.246 343.262C351.957 346.346 351.121 359.447 355.292 379.267C355.352 379.557 355.281 379.857 355.095 380.092C354.915 380.321 354.642 380.457 354.353 380.468C353.703 380.49 353.043 380.501 352.382 380.501L352.388 380.506ZM341.121 309.587C326.388 331.847 317.916 350.281 313.647 369.354C313.576 369.676 313.598 369.982 313.702 370.135C313.735 370.184 313.784 370.233 313.915 370.249L314.133 370.31C329.538 376.593 342.988 379.589 354.047 379.273C349.757 358.721 350.816 345.341 351.067 342.858C351.1 342.541 351.274 342.273 351.542 342.11C351.809 341.951 352.126 341.924 352.421 342.039C356.422 343.622 368.469 345.014 373.202 338.9L374.588 330.739C371.952 331.553 362.366 334.08 355.729 330.455C352.797 328.856 350.848 326.263 349.915 322.748C349.287 320.351 348.812 318.484 348.436 316.994C347.491 313.266 347.158 311.956 346.427 310.515L341.116 309.592L341.121 309.587ZM346.547 310.531C346.547 310.531 346.558 310.531 346.563 310.531H346.547ZM346.383 310.411C346.383 310.411 346.383 310.416 346.389 310.422C346.389 310.422 346.389 310.416 346.383 310.411Z" fill="#1D1D1B"/>
<path d="M352.541 342.743C352.541 342.743 346.624 340.532 343.119 335.183L352.541 342.743Z" fill="white"/>
<path d="M352.541 343.354C352.47 343.354 352.399 343.343 352.328 343.316C352.082 343.223 346.187 340.974 342.612 335.521C342.431 335.237 342.508 334.861 342.786 334.68C343.07 334.5 343.441 334.577 343.632 334.855C346.984 339.964 352.699 342.159 352.759 342.175C353.07 342.295 353.234 342.645 353.114 342.956C353.027 343.201 352.792 343.349 352.546 343.349L352.541 343.354Z" fill="#1D1D1B"/>
<path d="M347.42 313.692C352.481 314.57 357.344 311.148 358.223 306.082L358.518 304.39C358.545 304.237 358.693 304.128 358.851 304.155L363.076 304.925C363.142 304.936 363.207 304.892 363.218 304.821C363.475 303.047 366.128 282.73 353.114 280.868C348.048 279.989 343.184 283.412 342.311 288.478L339.811 302.883C338.932 307.944 342.355 312.807 347.42 313.686" fill="white"/>
<path d="M349.026 314.439C348.463 314.439 347.89 314.39 347.322 314.292C344.713 313.839 342.431 312.392 340.898 310.209C339.364 308.031 338.769 305.394 339.222 302.785L341.722 288.374C342.661 282.97 347.819 279.323 353.229 280.273C356.28 280.71 358.759 282.167 360.582 284.602C365.626 291.343 364.026 303.544 363.83 304.914C363.77 305.312 363.398 305.596 362.995 305.531L359.064 304.816L358.824 306.191C358.371 308.801 356.924 311.082 354.746 312.616C353.043 313.817 351.062 314.439 349.026 314.445V314.439ZM351.531 281.349C347.35 281.349 343.654 284.345 342.917 288.587L340.417 302.998C340.019 305.285 340.543 307.6 341.891 309.516C343.239 311.426 345.243 312.704 347.53 313.097C349.812 313.49 352.132 312.971 354.042 311.623C355.958 310.274 357.23 308.271 357.629 305.984L357.923 304.292C357.967 304.057 358.098 303.849 358.295 303.713C358.486 303.577 358.737 303.516 358.966 303.566L362.689 304.242C363.016 301.611 363.983 291.185 359.605 285.333C357.983 283.166 355.773 281.873 353.038 281.48C352.53 281.392 352.028 281.349 351.531 281.349Z" fill="#1D1D1B"/>
<path d="M355.767 308.538C354.38 308.538 353.043 308.178 351.919 307.485C350.434 306.573 349.489 305.198 349.255 303.615C349.206 303.282 349.435 302.971 349.768 302.921C350.117 302.867 350.412 303.102 350.461 303.435C350.641 304.657 351.389 305.727 352.557 306.448C353.758 307.19 355.265 307.469 356.788 307.245C357.153 307.196 357.432 307.425 357.481 307.758C357.53 308.091 357.301 308.402 356.968 308.451C356.564 308.511 356.165 308.538 355.772 308.538H355.767Z" fill="#1D1D1B"/>
<path d="M355.75 295.241C355.614 296.033 356.143 296.791 356.935 296.928C357.727 297.064 358.485 296.535 358.622 295.738C358.758 294.941 358.229 294.193 357.437 294.056C356.646 293.92 355.887 294.449 355.75 295.241Z" fill="#1D1D1B"/>
<path d="M360.696 285.857C360.696 285.857 357.072 295.034 349.626 295.852C349.146 295.907 348.682 295.672 348.436 295.252C347.661 293.925 345.658 291.294 343.469 294.586C340.657 298.811 344.932 302.114 344.932 302.114C342.35 306.322 343.698 318.768 344.719 323.965C340.177 325.013 335.996 324.325 332.142 322.06C328.375 302.337 331.339 280.459 350.74 279.973C353.229 279.907 358.982 281.927 360.707 285.852" fill="#1D1D1B"/>
<path d="M340.657 325.051C337.578 325.051 334.62 324.227 331.825 322.589L331.585 322.447L331.53 322.174C328.555 306.59 330.231 293.456 336.126 286.141C339.625 281.796 344.533 279.52 350.712 279.362C353.343 279.274 359.386 281.376 361.247 285.606L361.346 285.836L361.253 286.07C361.1 286.458 357.404 295.596 349.68 296.447C348.965 296.535 348.267 296.175 347.895 295.552C347.557 294.974 346.667 293.625 345.696 293.598H345.668C345.117 293.598 344.544 294.04 343.96 294.914C341.503 298.609 345.133 301.508 345.286 301.628L345.717 301.961L345.433 302.425C342.972 306.437 344.309 318.812 345.292 323.845L345.406 324.423L344.833 324.554C343.414 324.882 342.016 325.046 340.641 325.046L340.657 325.051ZM332.676 321.678C336.214 323.681 340.024 324.292 343.998 323.495C343.004 318.026 341.907 306.803 344.151 302.256C342.562 300.798 340.679 297.67 342.955 294.248C343.796 292.987 344.718 292.353 345.739 292.386C347.186 292.43 348.283 293.8 348.954 294.941C349.074 295.148 349.282 295.279 349.555 295.241C355.892 294.542 359.402 287.271 360.03 285.863C358.371 282.528 353.278 280.579 350.854 280.579C350.816 280.579 350.783 280.579 350.745 280.579C344.942 280.726 340.346 282.855 337.082 286.906C331.448 293.898 329.843 306.563 332.682 321.672L332.676 321.678Z" fill="#1D1D1B"/>
<path d="M78.1027 201.504H74.9312V239.207H78.1027V201.504Z" fill="white"/>
<path d="M78.1027 239.813H74.9312C74.5928 239.813 74.3198 239.54 74.3198 239.207V201.504C74.3198 201.171 74.5928 200.898 74.9312 200.898H78.1027C78.4412 200.898 78.7141 201.171 78.7141 201.504V239.207C78.7141 239.54 78.4412 239.813 78.1027 239.813ZM75.5426 238.596H77.4968V202.11H75.5426V238.596Z" fill="#1D1D1B"/>
<path d="M89.7405 205.112C89.7405 212.416 83.8178 218.338 76.514 218.338C69.2102 218.338 63.293 212.416 63.293 205.112C63.293 197.808 69.2102 169.635 76.514 169.635C83.8178 169.635 89.7405 197.808 89.7405 205.112Z" fill="white"/>
<path d="M76.5195 218.95C68.8882 218.95 62.6816 212.743 62.6816 205.112C62.6816 198.9 68.2441 169.024 76.5195 169.024C84.795 169.024 90.3574 198.9 90.3574 205.112C90.3574 212.743 84.1508 218.95 76.5195 218.95ZM76.5195 170.247C70.0127 170.247 63.9044 197.306 63.9044 205.117C63.9044 212.077 69.5651 217.738 76.5195 217.738C83.474 217.738 89.1347 212.077 89.1347 205.117C89.1347 197.306 83.0263 170.247 76.5195 170.247Z" fill="#1D1D1B"/>
<path d="M94.1298 210.33H91.7007V239.202H94.1298V210.33Z" fill="white"/>
<path d="M94.124 239.813H91.6949C91.3564 239.813 91.0835 239.54 91.0835 239.207V210.33C91.0835 209.997 91.3564 209.724 91.6949 209.724H94.124C94.4624 209.724 94.7354 209.997 94.7354 210.33V239.207C94.7354 239.54 94.4624 239.813 94.124 239.813ZM92.3062 238.596H93.5126V210.936H92.3062V238.596Z" fill="#1D1D1B"/>
<path d="M103.038 213.098C103.038 218.693 98.5018 223.224 92.9121 223.224C87.3223 223.224 82.7861 218.688 82.7861 213.098C82.7861 207.508 87.3223 185.924 92.9121 185.924C98.5018 185.924 103.038 207.503 103.038 213.098Z" fill="white"/>
<path d="M92.9121 223.835C86.9894 223.835 82.1748 219.021 82.1748 213.098C82.1748 208.316 86.4872 185.318 92.9121 185.318C99.3371 185.318 103.649 208.316 103.649 213.098C103.649 219.015 98.8349 223.835 92.9121 223.835ZM92.9121 186.536C90.8433 186.536 88.4469 190.564 86.3344 197.59C84.5166 203.627 83.3921 210.341 83.3921 213.098C83.3921 218.349 87.6608 222.618 92.9121 222.618C98.1634 222.618 102.432 218.349 102.432 213.098C102.432 210.341 101.308 203.627 99.4954 197.59C97.3828 190.564 94.981 186.536 92.9121 186.536Z" fill="#1D1D1B"/>
</g>
</g>
<defs>
<clipPath id="clip0_546_3472">
<rect width="1311.16" height="410.764" fill="white" transform="translate(0.839844)"/>
</clipPath>
</defs>
</svg>
