<?xml version="1.0" encoding="UTF-8" standalone="no"?>
<svg
   width="1642"
   height="70"
   viewBox="0 0 1642 70"
   fill="none"
   version="1.1"
   id="svg37"
   sodipodi:docname="banner.svg"
   inkscape:version="1.2.2 (732a01da63, 2022-12-09, custom)"
   xmlns:inkscape="http://www.inkscape.org/namespaces/inkscape"
   xmlns:sodipodi="http://sodipodi.sourceforge.net/DTD/sodipodi-0.dtd"
   xmlns="http://www.w3.org/2000/svg"
   xmlns:svg="http://www.w3.org/2000/svg">
  <sodipodi:namedview
     id="namedview39"
     pagecolor="#ffffff"
     bordercolor="#000000"
     borderopacity="0.25"
     inkscape:showpageshadow="2"
     inkscape:pageopacity="0.0"
     inkscape:pagecheckerboard="0"
     inkscape:deskcolor="#d1d1d1"
     showgrid="true"
     inkscape:zoom="10.694446"
     inkscape:cx="1605.3192"
     inkscape:cy="49.979211"
     inkscape:window-width="1846"
     inkscape:window-height="1016"
     inkscape:window-x="1720"
     inkscape:window-y="1467"
     inkscape:window-maximized="1"
     inkscape:current-layer="svg37" />
  <g
     clip-path="url(#clip0_833_4315)"
     id="g30"
     transform="translate(22)">
    <path
       d="m 0,41.2955 v -12.591 h 48 v 12.591 z M 17.1497,58.5 v -47 h 13.6048 v 47 z"
       fill="#404040"
       id="path18" />
    <path
       d="M 70.16,61 V 12 h 20.51 c 3.5933,0 6.8833,0.6067 9.87,1.82 2.987,1.1667 5.553,2.8467 7.7,5.04 2.193,2.1933 3.873,4.7833 5.04,7.77 1.167,2.9867 1.75,6.2767 1.75,9.87 0,3.5933 -0.583,6.9067 -1.75,9.94 -1.167,2.9867 -2.847,5.5767 -5.04,7.77 -2.147,2.1467 -4.713,3.8267 -7.7,5.04 C 97.5533,60.4167 94.2633,61 90.67,61 Z m 11.9,-8.12 -1.61,-2.38 h 9.87 c 1.96,0 3.71,-0.3267 5.25,-0.98 1.54,-0.7 2.8467,-1.6567 3.92,-2.87 1.12,-1.2133 1.983,-2.6833 2.59,-4.41 0.607,-1.7267 0.91,-3.64 0.91,-5.74 0,-2.1 -0.303,-4.0133 -0.91,-5.74 -0.607,-1.7267 -1.47,-3.1967 -2.59,-4.41 -1.0733,-1.2133 -2.38,-2.1467 -3.92,-2.8 -1.54,-0.7 -3.29,-1.05 -5.25,-1.05 H 80.24 l 1.82,-2.24 z M 120.732,61 V 12 h 34.16 v 10.15 h -22.61 v 28.7 h 23.31 V 61 Z m 5.6,-20.09 v -9.66 h 25.41 v 9.66 z m 77.199,20.79 c -3.686,0 -7.093,-0.6067 -10.22,-1.82 -3.08,-1.26 -5.763,-3.01 -8.05,-5.25 -2.286,-2.2867 -4.06,-4.97 -5.32,-8.05 -1.213,-3.1267 -1.82,-6.5567 -1.82,-10.29 0,-3.64 0.654,-7 1.96,-10.08 1.307,-3.08 3.104,-5.74 5.39,-7.98 2.334,-2.2867 5.064,-4.06 8.19,-5.32 3.174,-1.26 6.627,-1.89 10.36,-1.89 2.334,0 4.62,0.3033 6.86,0.91 2.24,0.6067 4.317,1.5167 6.23,2.73 1.96,1.1667 3.64,2.5667 5.04,4.2 l -7.28,8.33 c -0.98,-1.0267 -2.03,-1.9133 -3.15,-2.66 -1.073,-0.7933 -2.263,-1.4 -3.57,-1.82 -1.306,-0.42 -2.706,-0.63 -4.2,-0.63 -1.866,0 -3.64,0.35 -5.32,1.05 -1.633,0.6533 -3.08,1.61 -4.34,2.87 -1.213,1.2133 -2.17,2.7067 -2.87,4.48 -0.7,1.7733 -1.05,3.7567 -1.05,5.95 0,2.1467 0.35,4.1067 1.05,5.88 0.7,1.7267 1.68,3.22 2.94,4.48 1.26,1.26 2.777,2.2167 4.55,2.87 1.82,0.6533 3.827,0.98 6.02,0.98 1.494,0 2.917,-0.21 4.27,-0.63 1.354,-0.42 2.59,-0.98 3.71,-1.68 1.167,-0.7467 2.194,-1.5867 3.08,-2.52 l 5.74,9.1 c -1.166,1.3067 -2.73,2.4733 -4.69,3.5 -1.913,1.0267 -4.06,1.8433 -6.44,2.45 -2.333,0.56 -4.69,0.84 -7.07,0.84 z M 226.375,61 V 12 h 11.9 v 38.5 h 21.84 V 61 Z m 38.176,0 V 50.99 h 8.26 V 22.01 h -8.26 V 12 h 28.49 v 10.01 h -8.33 v 28.98 h 8.33 V 61 Z m 36.308,0 V 12 h 34.16 v 10.15 h -22.61 v 28.7 h 23.31 V 61 Z m 5.6,-20.09 v -9.66 h 25.41 v 9.66 z M 342.476,61 V 12 h 10.64 l 25.69,35 -2.31,-0.35 c -0.233,-1.54 -0.42,-3.01 -0.56,-4.41 -0.14,-1.4 -0.28,-2.7767 -0.42,-4.13 -0.093,-1.3533 -0.186,-2.73 -0.28,-4.13 -0.046,-1.4 -0.093,-2.9167 -0.14,-4.55 0,-1.6333 0,-3.4067 0,-5.32 V 12 h 11.55 v 49 h -10.78 l -26.81,-36.12 3.57,0.49 c 0.234,2.24 0.42,4.1533 0.56,5.74 0.187,1.54 0.327,2.9167 0.42,4.13 0.14,1.2133 0.234,2.31 0.28,3.29 0.047,0.98 0.07,1.96 0.07,2.94 0.047,0.9333 0.07,1.9833 0.07,3.15 V 61 Z m 63.605,0 V 22.5 h -14.56 V 12 h 41.37 v 10.5 h -14.91 V 61 Z m 47.969,0.7 c -3.22,0 -6.136,-0.3733 -8.75,-1.12 -2.566,-0.7933 -4.853,-1.9133 -6.86,-3.36 -2.006,-1.4933 -3.803,-3.2433 -5.39,-5.25 l 7.21,-8.19 c 2.334,3.1267 4.667,5.2267 7,6.3 2.38,1.0733 4.83,1.61 7.35,1.61 1.26,0 2.404,-0.1633 3.43,-0.49 1.027,-0.3267 1.82,-0.7933 2.38,-1.4 0.56,-0.6533 0.84,-1.4467 0.84,-2.38 0,-0.7 -0.186,-1.33 -0.56,-1.89 -0.326,-0.56 -0.793,-1.05 -1.4,-1.47 -0.606,-0.42 -1.33,-0.7933 -2.17,-1.12 -0.84,-0.3733 -1.726,-0.6767 -2.66,-0.91 -0.933,-0.28 -1.89,-0.5133 -2.87,-0.7 -2.706,-0.6067 -5.063,-1.3533 -7.07,-2.24 -2.006,-0.8867 -3.686,-1.96 -5.04,-3.22 -1.306,-1.3067 -2.286,-2.7767 -2.94,-4.41 -0.653,-1.68 -0.98,-3.5467 -0.98,-5.6 0,-2.1933 0.49,-4.2 1.47,-6.02 1.027,-1.8667 2.38,-3.4533 4.06,-4.76 1.727,-1.3533 3.71,-2.38 5.95,-3.08 2.24,-0.7467 4.574,-1.12 7,-1.12 3.22,0 5.974,0.35 8.26,1.05 2.334,0.6533 4.317,1.61 5.95,2.87 1.68,1.26 3.104,2.7767 4.27,4.55 l -7.35,7.07 c -0.98,-1.2133 -2.053,-2.2167 -3.22,-3.01 -1.12,-0.7933 -2.333,-1.4 -3.64,-1.82 -1.26,-0.42 -2.566,-0.63 -3.92,-0.63 -1.4,0 -2.613,0.1867 -3.64,0.56 -0.98,0.3267 -1.75,0.8167 -2.31,1.47 -0.56,0.6067 -0.84,1.3533 -0.84,2.24 0,0.7933 0.234,1.47 0.7,2.03 0.467,0.56 1.097,1.0733 1.89,1.54 0.794,0.42 1.704,0.7933 2.73,1.12 1.027,0.28 2.1,0.5133 3.22,0.7 2.567,0.5133 4.877,1.19 6.93,2.03 2.1,0.84 3.897,1.8667 5.39,3.08 1.54,1.2133 2.707,2.66 3.5,4.34 0.84,1.6333 1.26,3.5467 1.26,5.74 0,3.4067 -0.84,6.3 -2.52,8.68 -1.633,2.3333 -3.896,4.13 -6.79,5.39 -2.846,1.2133 -6.136,1.82 -9.87,1.82 z"
       fill="#5fbe6e"
       id="path20" />
    <path
       d="M 493,41.0276 V 28.9724 h 46 V 41.0276 Z M 509.435,57.5 v -45 h 13.038 v 45 z"
       fill="#404040"
       id="path22" />
    <path
       d="M 561.16,61 V 12 h 20.51 c 3.593,0 6.883,0.6067 9.87,1.82 2.987,1.1667 5.553,2.8467 7.7,5.04 2.193,2.1933 3.873,4.7833 5.04,7.77 1.167,2.9867 1.75,6.2767 1.75,9.87 0,3.5933 -0.583,6.9067 -1.75,9.94 -1.167,2.9867 -2.847,5.5767 -5.04,7.77 -2.147,2.1467 -4.713,3.8267 -7.7,5.04 -2.987,1.1667 -6.277,1.75 -9.87,1.75 z m 11.9,-8.12 -1.61,-2.38 h 9.87 c 1.96,0 3.71,-0.3267 5.25,-0.98 1.54,-0.7 2.847,-1.6567 3.92,-2.87 1.12,-1.2133 1.983,-2.6833 2.59,-4.41 0.607,-1.7267 0.91,-3.64 0.91,-5.74 0,-2.1 -0.303,-4.0133 -0.91,-5.74 -0.607,-1.7267 -1.47,-3.1967 -2.59,-4.41 -1.073,-1.2133 -2.38,-2.1467 -3.92,-2.8 -1.54,-0.7 -3.29,-1.05 -5.25,-1.05 h -10.08 l 1.82,-2.24 z M 611.732,61 V 12 h 34.16 v 10.15 h -22.61 v 28.7 h 23.31 V 61 Z m 5.6,-20.09 v -9.66 h 25.41 v 9.66 z m 77.199,20.79 c -3.686,0 -7.093,-0.6067 -10.22,-1.82 -3.08,-1.26 -5.763,-3.01 -8.05,-5.25 -2.286,-2.2867 -4.06,-4.97 -5.32,-8.05 -1.213,-3.1267 -1.82,-6.5567 -1.82,-10.29 0,-3.64 0.654,-7 1.96,-10.08 1.307,-3.08 3.104,-5.74 5.39,-7.98 2.334,-2.2867 5.064,-4.06 8.19,-5.32 3.174,-1.26 6.627,-1.89 10.36,-1.89 2.334,0 4.62,0.3033 6.86,0.91 2.24,0.6067 4.317,1.5167 6.23,2.73 1.96,1.1667 3.64,2.5667 5.04,4.2 l -7.28,8.33 c -0.98,-1.0267 -2.03,-1.9133 -3.15,-2.66 -1.073,-0.7933 -2.263,-1.4 -3.57,-1.82 -1.306,-0.42 -2.706,-0.63 -4.2,-0.63 -1.866,0 -3.64,0.35 -5.32,1.05 -1.633,0.6533 -3.08,1.61 -4.34,2.87 -1.213,1.2133 -2.17,2.7067 -2.87,4.48 -0.7,1.7733 -1.05,3.7567 -1.05,5.95 0,2.1467 0.35,4.1067 1.05,5.88 0.7,1.7267 1.68,3.22 2.94,4.48 1.26,1.26 2.777,2.2167 4.55,2.87 1.82,0.6533 3.827,0.98 6.02,0.98 1.494,0 2.917,-0.21 4.27,-0.63 1.354,-0.42 2.59,-0.98 3.71,-1.68 1.167,-0.7467 2.194,-1.5867 3.08,-2.52 l 5.74,9.1 c -1.166,1.3067 -2.73,2.4733 -4.69,3.5 -1.913,1.0267 -4.06,1.8433 -6.44,2.45 -2.333,0.56 -4.69,0.84 -7.07,0.84 z M 717.375,61 V 12 h 22.05 c 3.127,0 5.95,0.6767 8.47,2.03 2.567,1.3533 4.573,3.22 6.02,5.6 1.447,2.3333 2.17,4.9933 2.17,7.98 0,3.08 -0.723,5.8567 -2.17,8.33 -1.447,2.4267 -3.43,4.34 -5.95,5.74 -2.52,1.4 -5.367,2.1 -8.54,2.1 h -10.71 V 61 Z m 27.16,0 -12.46,-22.12 12.18,-1.75 13.86,23.87 z m -15.82,-26.32 h 9.66 c 1.213,0 2.263,-0.2567 3.15,-0.77 0.933,-0.56 1.633,-1.33 2.1,-2.31 0.513,-0.98 0.77,-2.1 0.77,-3.36 0,-1.26 -0.28,-2.3567 -0.84,-3.29 -0.56,-0.98 -1.377,-1.7267 -2.45,-2.24 -1.027,-0.5133 -2.287,-0.77 -3.78,-0.77 h -8.61 z m 55.957,27.02 c -3.734,0 -7.14,-0.63 -10.22,-1.89 -3.08,-1.26 -5.764,-3.0333 -8.05,-5.32 -2.287,-2.2867 -4.06,-4.97 -5.32,-8.05 -1.26,-3.08 -1.89,-6.4633 -1.89,-10.15 0,-3.6867 0.63,-7.07 1.89,-10.15 1.26,-3.08 3.033,-5.7633 5.32,-8.05 2.286,-2.2867 4.97,-4.06 8.05,-5.32 3.08,-1.26 6.463,-1.89 10.15,-1.89 3.686,0 7.07,0.63 10.15,1.89 3.08,1.26 5.763,3.0333 8.05,5.32 2.286,2.2867 4.036,4.97 5.25,8.05 1.26,3.08 1.89,6.4633 1.89,10.15 0,3.64 -0.63,7.0233 -1.89,10.15 -1.214,3.08 -2.964,5.7633 -5.25,8.05 -2.287,2.2867 -4.97,4.06 -8.05,5.32 -3.08,1.26 -6.44,1.89 -10.08,1.89 z m -0.07,-11.2 c 1.913,0 3.663,-0.35 5.25,-1.05 1.633,-0.7 3.033,-1.68 4.2,-2.94 1.213,-1.3067 2.146,-2.8233 2.8,-4.55 0.653,-1.7267 0.98,-3.6167 0.98,-5.67 0,-2.0533 -0.327,-3.9433 -0.98,-5.67 -0.654,-1.7267 -1.587,-3.22 -2.8,-4.48 -1.167,-1.3067 -2.567,-2.31 -4.2,-3.01 -1.587,-0.7 -3.337,-1.05 -5.25,-1.05 -1.914,0 -3.687,0.35 -5.32,1.05 -1.587,0.7 -2.987,1.7033 -4.2,3.01 -1.214,1.26 -2.147,2.7533 -2.8,4.48 -0.607,1.7267 -0.91,3.6167 -0.91,5.67 0,2.0533 0.303,3.9667 0.91,5.74 0.653,1.7267 1.586,3.22 2.8,4.48 1.213,1.26 2.613,2.24 4.2,2.94 1.633,0.7 3.406,1.05 5.32,1.05 z M 813.643,61 V 50.99 h 8.26 V 22.01 h -8.26 V 12 h 28.49 v 10.01 h -8.33 v 28.98 h 8.33 V 61 Z m 52.548,0.7 c -3.22,0 -6.137,-0.3733 -8.75,-1.12 -2.567,-0.7933 -4.853,-1.9133 -6.86,-3.36 -2.007,-1.4933 -3.803,-3.2433 -5.39,-5.25 l 7.21,-8.19 c 2.333,3.1267 4.667,5.2267 7,6.3 2.38,1.0733 4.83,1.61 7.35,1.61 1.26,0 2.403,-0.1633 3.43,-0.49 1.027,-0.3267 1.82,-0.7933 2.38,-1.4 0.56,-0.6533 0.84,-1.4467 0.84,-2.38 0,-0.7 -0.187,-1.33 -0.56,-1.89 -0.327,-0.56 -0.793,-1.05 -1.4,-1.47 -0.607,-0.42 -1.33,-0.7933 -2.17,-1.12 -0.84,-0.3733 -1.727,-0.6767 -2.66,-0.91 -0.933,-0.28 -1.89,-0.5133 -2.87,-0.7 -2.707,-0.6067 -5.063,-1.3533 -7.07,-2.24 -2.007,-0.8867 -3.687,-1.96 -5.04,-3.22 -1.307,-1.3067 -2.287,-2.7767 -2.94,-4.41 -0.653,-1.68 -0.98,-3.5467 -0.98,-5.6 0,-2.1933 0.49,-4.2 1.47,-6.02 1.027,-1.8667 2.38,-3.4533 4.06,-4.76 1.727,-1.3533 3.71,-2.38 5.95,-3.08 2.24,-0.7467 4.573,-1.12 7,-1.12 3.22,0 5.973,0.35 8.26,1.05 2.333,0.6533 4.317,1.61 5.95,2.87 1.68,1.26 3.103,2.7767 4.27,4.55 l -7.35,7.07 c -0.98,-1.2133 -2.053,-2.2167 -3.22,-3.01 -1.12,-0.7933 -2.333,-1.4 -3.64,-1.82 -1.26,-0.42 -2.567,-0.63 -3.92,-0.63 -1.4,0 -2.613,0.1867 -3.64,0.56 -0.98,0.3267 -1.75,0.8167 -2.31,1.47 -0.56,0.6067 -0.84,1.3533 -0.84,2.24 0,0.7933 0.233,1.47 0.7,2.03 0.467,0.56 1.097,1.0733 1.89,1.54 0.793,0.42 1.703,0.7933 2.73,1.12 1.027,0.28 2.1,0.5133 3.22,0.7 2.567,0.5133 4.877,1.19 6.93,2.03 2.1,0.84 3.897,1.8667 5.39,3.08 1.54,1.2133 2.707,2.66 3.5,4.34 0.84,1.6333 1.26,3.5467 1.26,5.74 0,3.4067 -0.84,6.3 -2.52,8.68 -1.633,2.3333 -3.897,4.13 -6.79,5.39 -2.847,1.2133 -6.137,1.82 -9.87,1.82 z m 40.865,0 c -3.22,0 -6.136,-0.3733 -8.75,-1.12 -2.566,-0.7933 -4.853,-1.9133 -6.86,-3.36 -2.006,-1.4933 -3.803,-3.2433 -5.39,-5.25 l 7.21,-8.19 c 2.334,3.1267 4.667,5.2267 7,6.3 2.38,1.0733 4.83,1.61 7.35,1.61 1.26,0 2.404,-0.1633 3.43,-0.49 1.027,-0.3267 1.82,-0.7933 2.38,-1.4 0.56,-0.6533 0.84,-1.4467 0.84,-2.38 0,-0.7 -0.186,-1.33 -0.56,-1.89 -0.326,-0.56 -0.793,-1.05 -1.4,-1.47 -0.606,-0.42 -1.33,-0.7933 -2.17,-1.12 -0.84,-0.3733 -1.726,-0.6767 -2.66,-0.91 -0.933,-0.28 -1.89,-0.5133 -2.87,-0.7 -2.706,-0.6067 -5.063,-1.3533 -7.07,-2.24 -2.006,-0.8867 -3.686,-1.96 -5.04,-3.22 -1.306,-1.3067 -2.286,-2.7767 -2.94,-4.41 -0.653,-1.68 -0.98,-3.5467 -0.98,-5.6 0,-2.1933 0.49,-4.2 1.47,-6.02 1.027,-1.8667 2.38,-3.4533 4.06,-4.76 1.727,-1.3533 3.71,-2.38 5.95,-3.08 2.24,-0.7467 4.574,-1.12 7,-1.12 3.22,0 5.974,0.35 8.26,1.05 2.334,0.6533 4.317,1.61 5.95,2.87 1.68,1.26 3.104,2.7767 4.27,4.55 l -7.35,7.07 c -0.98,-1.2133 -2.053,-2.2167 -3.22,-3.01 -1.12,-0.7933 -2.333,-1.4 -3.64,-1.82 -1.26,-0.42 -2.566,-0.63 -3.92,-0.63 -1.4,0 -2.613,0.1867 -3.64,0.56 -0.98,0.3267 -1.75,0.8167 -2.31,1.47 -0.56,0.6067 -0.84,1.3533 -0.84,2.24 0,0.7933 0.234,1.47 0.7,2.03 0.467,0.56 1.097,1.0733 1.89,1.54 0.794,0.42 1.704,0.7933 2.73,1.12 1.027,0.28 2.1,0.5133 3.22,0.7 2.567,0.5133 4.877,1.19 6.93,2.03 2.1,0.84 3.897,1.8667 5.39,3.08 1.54,1.2133 2.707,2.66 3.5,4.34 0.84,1.6333 1.26,3.5467 1.26,5.74 0,3.4067 -0.84,6.3 -2.52,8.68 -1.633,2.3333 -3.896,4.13 -6.79,5.39 -2.846,1.2133 -6.136,1.82 -9.87,1.82 z m 18.395,-0.7 19.39,-49 h 10.08 l 19.25,49 h -12.04 l -9.24,-24.85 c -0.373,-0.98 -0.746,-2.03 -1.12,-3.15 -0.373,-1.12 -0.746,-2.2633 -1.12,-3.43 -0.373,-1.2133 -0.746,-2.38 -1.12,-3.5 -0.326,-1.1667 -0.606,-2.24 -0.84,-3.22 l 2.1,-0.07 c -0.28,1.1667 -0.606,2.31 -0.98,3.43 -0.326,1.12 -0.676,2.24 -1.05,3.36 -0.326,1.0733 -0.7,2.17 -1.12,3.29 -0.42,1.0733 -0.816,2.1933 -1.19,3.36 L 937.211,61 Z m 9.24,-9.38 3.71,-8.96 h 22.54 l 3.64,8.96 z M 976.785,61 V 12 h 10.64 l 25.695,35 -2.31,-0.35 c -0.24,-1.54 -0.42,-3.01 -0.56,-4.41 -0.14,-1.4 -0.28,-2.7767 -0.42,-4.13 -0.1,-1.3533 -0.19,-2.73 -0.28,-4.13 -0.05,-1.4 -0.1,-2.9167 -0.14,-4.55 0,-1.6333 0,-3.4067 0,-5.32 V 12 h 11.55 v 49 h -10.79 l -26.805,-36.12 3.57,0.49 c 0.233,2.24 0.42,4.1533 0.56,5.74 0.187,1.54 0.327,2.9167 0.42,4.13 0.14,1.2133 0.233,2.31 0.28,3.29 0.047,0.98 0.07,1.96 0.07,2.94 0.047,0.9333 0.07,1.9833 0.07,3.15 V 61 Z m 75.225,0.7 c -3.69,0 -7.09,-0.6067 -10.22,-1.82 -3.08,-1.26 -5.76,-3.01 -8.05,-5.25 -2.29,-2.2867 -4.06,-4.97 -5.32,-8.05 -1.21,-3.1267 -1.82,-6.5567 -1.82,-10.29 0,-3.64 0.65,-7 1.96,-10.08 1.31,-3.08 3.1,-5.74 5.39,-7.98 2.33,-2.2867 5.06,-4.06 8.19,-5.32 3.17,-1.26 6.63,-1.89 10.36,-1.89 2.33,0 4.62,0.3033 6.86,0.91 2.24,0.6067 4.32,1.5167 6.23,2.73 1.96,1.1667 3.64,2.5667 5.04,4.2 l -7.28,8.33 c -0.98,-1.0267 -2.03,-1.9133 -3.15,-2.66 -1.07,-0.7933 -2.26,-1.4 -3.57,-1.82 -1.31,-0.42 -2.71,-0.63 -4.2,-0.63 -1.87,0 -3.64,0.35 -5.32,1.05 -1.63,0.6533 -3.08,1.61 -4.34,2.87 -1.21,1.2133 -2.17,2.7067 -2.87,4.48 -0.7,1.7733 -1.05,3.7567 -1.05,5.95 0,2.1467 0.35,4.1067 1.05,5.88 0.7,1.7267 1.68,3.22 2.94,4.48 1.26,1.26 2.78,2.2167 4.55,2.87 1.82,0.6533 3.83,0.98 6.02,0.98 1.49,0 2.92,-0.21 4.27,-0.63 1.35,-0.42 2.59,-0.98 3.71,-1.68 1.17,-0.7467 2.19,-1.5867 3.08,-2.52 l 5.74,9.1 c -1.17,1.3067 -2.73,2.4733 -4.69,3.5 -1.91,1.0267 -4.06,1.8433 -6.44,2.45 -2.33,0.56 -4.69,0.84 -7.07,0.84 z M 1074.85,61 V 12 h 34.16 v 10.15 h -22.61 v 28.7 h 23.31 V 61 Z m 5.6,-20.09 v -9.66 h 25.41 v 9.66 z"
       fill="#8782d7"
       id="path24" />
    <path
       d="M 1130,41.0276 V 28.9724 h 46 V 41.0276 Z M 1146.44,57.5 v -45 h 13.03 v 45 z"
       fill="#404040"
       id="path26" />
    <path
       d="M 1195.66,61 V 12 h 20.51 c 3.59,0 6.88,0.6067 9.87,1.82 2.99,1.1667 5.55,2.8467 7.7,5.04 2.19,2.1933 3.87,4.7833 5.04,7.77 1.17,2.9867 1.75,6.2767 1.75,9.87 0,3.5933 -0.58,6.9067 -1.75,9.94 -1.17,2.9867 -2.85,5.5767 -5.04,7.77 -2.15,2.1467 -4.71,3.8267 -7.7,5.04 -2.99,1.1667 -6.28,1.75 -9.87,1.75 z m 11.9,-8.12 -1.61,-2.38 h 9.87 c 1.96,0 3.71,-0.3267 5.25,-0.98 1.54,-0.7 2.85,-1.6567 3.92,-2.87 1.12,-1.2133 1.98,-2.6833 2.59,-4.41 0.61,-1.7267 0.91,-3.64 0.91,-5.74 0,-2.1 -0.3,-4.0133 -0.91,-5.74 -0.61,-1.7267 -1.47,-3.1967 -2.59,-4.41 -1.07,-1.2133 -2.38,-2.1467 -3.92,-2.8 -1.54,-0.7 -3.29,-1.05 -5.25,-1.05 h -10.08 l 1.82,-2.24 z M 1246.23,61 V 12 h 34.16 v 10.15 h -22.61 v 28.7 h 23.31 V 61 Z m 5.6,-20.09 v -9.66 h 25.41 v 9.66 z M 1306.77,61 V 12 h 22.05 c 3.13,0 5.95,0.6767 8.47,2.03 2.57,1.3533 4.57,3.22 6.02,5.6 1.45,2.3333 2.17,4.9933 2.17,7.98 0,3.08 -0.72,5.8567 -2.17,8.33 -1.45,2.4267 -3.43,4.34 -5.95,5.74 -2.52,1.4 -5.37,2.1 -8.54,2.1 h -10.71 V 61 Z m 27.16,0 -12.46,-22.12 12.18,-1.75 13.86,23.87 z m -15.82,-26.32 h 9.66 c 1.21,0 2.26,-0.2567 3.15,-0.77 0.93,-0.56 1.63,-1.33 2.1,-2.31 0.51,-0.98 0.77,-2.1 0.77,-3.36 0,-1.26 -0.28,-2.3567 -0.84,-3.29 -0.56,-0.98 -1.38,-1.7267 -2.45,-2.24 -1.03,-0.5133 -2.29,-0.77 -3.78,-0.77 h -8.61 z M 1352.42,61 V 12 h 34.16 v 10.15 h -22.61 v 28.7 h 23.31 V 61 Z m 5.6,-20.09 v -9.66 h 25.41 v 9.66 z m 49.74,20.09 -19.6,-49 h 12.39 l 9.45,24.99 c 0.56,1.4467 1.03,2.7067 1.4,3.78 0.42,1.0733 0.77,2.0767 1.05,3.01 0.33,0.9333 0.61,1.89 0.84,2.87 0.28,0.9333 0.58,2.0067 0.91,3.22 h -2.17 c 0.37,-1.5867 0.75,-2.9867 1.12,-4.2 0.37,-1.26 0.79,-2.5433 1.26,-3.85 0.47,-1.3533 1.05,-2.9633 1.75,-4.83 l 9.1,-24.99 h 12.18 l -19.74,49 z m 32.61,0 V 12 h 34.16 v 10.15 h -22.61 v 28.7 h 23.31 V 61 Z m 5.6,-20.09 v -9.66 h 25.41 v 9.66 z M 1481.99,61 V 12 h 10.64 l 25.69,35 -2.31,-0.35 c -0.23,-1.54 -0.42,-3.01 -0.56,-4.41 -0.14,-1.4 -0.28,-2.7767 -0.42,-4.13 -0.09,-1.3533 -0.19,-2.73 -0.28,-4.13 -0.05,-1.4 -0.09,-2.9167 -0.14,-4.55 0,-1.6333 0,-3.4067 0,-5.32 V 12 h 11.55 v 49 h -10.78 l -26.81,-36.12 3.57,0.49 c 0.23,2.24 0.42,4.1533 0.56,5.74 0.19,1.54 0.33,2.9167 0.42,4.13 0.14,1.2133 0.23,2.31 0.28,3.29 0.05,0.98 0.07,1.96 0.07,2.94 0.05,0.9333 0.07,1.9833 0.07,3.15 V 61 Z m 73.61,0.42 c -4.06,0 -7.67,-0.8167 -10.85,-2.45 -3.17,-1.68 -5.67,-3.9667 -7.49,-6.86 -1.77,-2.8933 -2.66,-6.2067 -2.66,-9.94 V 12 h 12.04 v 29.54 c 0,1.7733 0.4,3.3833 1.19,4.83 0.8,1.4 1.87,2.52 3.22,3.36 1.36,0.7933 2.87,1.19 4.55,1.19 1.78,0 3.34,-0.3967 4.69,-1.19 1.4,-0.84 2.52,-1.96 3.36,-3.36 0.84,-1.4467 1.26,-3.0567 1.26,-4.83 V 12 h 11.62 v 30.17 c 0,3.7333 -0.91,7.0467 -2.73,9.94 -1.77,2.8933 -4.24,5.18 -7.42,6.86 -3.17,1.6333 -6.76,2.45 -10.78,2.45 z m 44.94,0.28 c -3.22,0 -6.14,-0.3733 -8.75,-1.12 -2.57,-0.7933 -4.86,-1.9133 -6.86,-3.36 -2.01,-1.4933 -3.81,-3.2433 -5.39,-5.25 l 7.21,-8.19 c 2.33,3.1267 4.66,5.2267 7,6.3 2.38,1.0733 4.83,1.61 7.35,1.61 1.26,0 2.4,-0.1633 3.43,-0.49 1.02,-0.3267 1.82,-0.7933 2.38,-1.4 0.56,-0.6533 0.84,-1.4467 0.84,-2.38 0,-0.7 -0.19,-1.33 -0.56,-1.89 -0.33,-0.56 -0.8,-1.05 -1.4,-1.47 -0.61,-0.42 -1.33,-0.7933 -2.17,-1.12 -0.84,-0.3733 -1.73,-0.6767 -2.66,-0.91 -0.94,-0.28 -1.89,-0.5133 -2.87,-0.7 -2.71,-0.6067 -5.07,-1.3533 -7.07,-2.24 -2.01,-0.8867 -3.69,-1.96 -5.04,-3.22 -1.31,-1.3067 -2.29,-2.7767 -2.94,-4.41 -0.66,-1.68 -0.98,-3.5467 -0.98,-5.6 0,-2.1933 0.49,-4.2 1.47,-6.02 1.02,-1.8667 2.38,-3.4533 4.06,-4.76 1.72,-1.3533 3.71,-2.38 5.95,-3.08 2.24,-0.7467 4.57,-1.12 7,-1.12 3.22,0 5.97,0.35 8.26,1.05 2.33,0.6533 4.31,1.61 5.95,2.87 1.68,1.26 3.1,2.7767 4.27,4.55 l -7.35,7.07 c -0.98,-1.2133 -2.06,-2.2167 -3.22,-3.01 -1.12,-0.7933 -2.34,-1.4 -3.64,-1.82 -1.26,-0.42 -2.57,-0.63 -3.92,-0.63 -1.4,0 -2.62,0.1867 -3.64,0.56 -0.98,0.3267 -1.75,0.8167 -2.31,1.47 -0.56,0.6067 -0.84,1.3533 -0.84,2.24 0,0.7933 0.23,1.47 0.7,2.03 0.46,0.56 1.09,1.0733 1.89,1.54 0.79,0.42 1.7,0.7933 2.73,1.12 1.02,0.28 2.1,0.5133 3.22,0.7 2.56,0.5133 4.87,1.19 6.93,2.03 2.1,0.84 3.89,1.8667 5.39,3.08 1.54,1.2133 2.7,2.66 3.5,4.34 0.84,1.6333 1.26,3.5467 1.26,5.74 0,3.4067 -0.84,6.3 -2.52,8.68 -1.64,2.3333 -3.9,4.13 -6.79,5.39 -2.85,1.2133 -6.14,1.82 -9.87,1.82 z"
       fill="#00c3d7"
       id="path28" />
  </g>
  <defs
     id="defs35">
    <clipPath
       id="clip0_833_4315">
      <rect
         width="1625.5"
         height="70"
         fill="#ffffff"
         id="rect32"
         x="0"
         y="0" />
    </clipPath>
  </defs>
</svg>
