<svg width="16" height="16" viewBox="0 0 16 16" fill="none" xmlns="http://www.w3.org/2000/svg">
<path d="M11.3333 0.5C11.7607 0.5 12.1129 0.821704 12.1611 1.23615L12.1667 1.33333V2.16667H13.8333C14.712 2.16667 15.4318 2.84656 15.4954 3.70895L15.5 3.83333V13.8333C15.5 14.712 14.8201 15.4318 13.9577 15.4954L13.8333 15.5H2.16667C1.28803 15.5 0.568196 14.8201 0.504571 13.9577L0.5 13.8333V3.83333C0.5 2.9547 1.1799 2.23486 2.04228 2.17124L2.16667 2.16667H3.83333V1.33333C3.83333 0.8731 4.20643 0.5 4.66667 0.5C5.09403 0.5 5.44626 0.821704 5.49439 1.23615L5.5 1.33333V2.16667H10.5V1.33333C10.5 0.8731 10.8731 0.5 11.3333 0.5ZM13.8333 8H2.16667V13.8333H13.8333V8ZM13.8333 3.83333H2.16667V6.33333H13.8333V3.83333Z" fill="black"/>
</svg>
