<svg width="223" height="128" viewBox="0 0 223 128" fill="none" xmlns="http://www.w3.org/2000/svg">
<path d="M222 95.1957C222.001 96.1876 221.742 97.1624 221.25 98.0229L218.285 103.23C218.214 103.355 218.144 103.476 218.07 103.595C217.164 105.054 215.932 106.281 214.472 107.18C213.011 108.079 211.363 108.626 209.656 108.777C209.165 104.765 207.7 100.936 205.389 97.6244C203.078 94.3132 199.992 91.6218 196.401 89.7866C192.81 87.9514 188.825 87.0286 184.795 87.0992C180.766 87.1698 176.815 88.2318 173.29 90.1917C165.614 94.4833 157.126 97.1126 148.353 97.6271L76.7336 101.817C69.9936 102.249 63.3487 100.046 58.193 95.6707C54.367 92.384 49.4952 90.5776 44.4574 90.5776C39.4196 90.5776 34.5478 92.384 30.7218 95.6707C27.2661 98.61 23.1137 100.607 18.6649 101.469L5.69742 104.059L4.80099 98.0681C4.64701 97.0325 4.58756 95.9849 4.62339 94.9385C4.75531 91.2935 6.05139 87.7873 8.32059 84.9369C10.5898 82.0865 13.712 80.0426 17.2272 79.1065L18.9806 78.6372L54.4324 69.189C55.3571 69.3105 56.2845 69.4264 57.212 69.531L57.5278 69.5678C58.3622 69.6639 59.1975 69.7525 60.0338 69.8335C64.0481 70.2312 68.0708 70.497 72.102 70.6308C73.0802 70.6647 74.0753 70.6873 75.0394 70.7043C77.3736 70.7401 79.7086 70.7326 82.0447 70.6817C83.3884 70.6496 84.733 70.6044 86.0786 70.546L128.409 68.6659L174.229 66.6247C175.756 66.5578 177.216 65.9783 178.375 64.9793C179.534 63.9803 180.324 62.6197 180.619 61.116C180.915 59.6123 180.697 58.0528 180.003 56.6877C179.308 55.3226 178.176 54.2312 176.789 53.5888L158.29 45H178.139C182.483 45.0007 186.701 46.4642 190.117 49.1559L212.351 67.7188C214.246 69.301 215.746 71.3065 216.73 73.5748C217.713 75.843 218.153 78.3107 218.014 80.7802L217.732 85.9369C217.677 86.8518 217.843 87.7664 218.216 88.6032C218.589 89.4399 219.158 90.174 219.874 90.743C220.539 91.2778 221.075 91.9557 221.443 92.7265C221.811 93.4973 222.001 94.3412 222 95.1957Z" fill="white" stroke="black" stroke-width="2" stroke-linecap="round" stroke-linejoin="round"/>
<path d="M65.5613 110.906L23.3551 111.517L6.84413 111.757L5.69678 104.073L18.6642 101.483C23.1129 100.62 27.2651 98.6236 30.7211 95.6848C34.5472 92.3981 39.419 90.5917 44.4567 90.5917C49.4945 90.5917 54.3663 92.3981 58.1924 95.6848C63.348 100.058 69.9913 102.261 76.7302 101.831L148.353 97.6412C157.126 97.1266 165.614 94.4974 173.29 90.2086C176.814 88.248 180.765 87.1854 184.794 87.1143C188.824 87.0432 192.809 87.9656 196.4 89.8006C199.991 91.6356 203.078 94.327 205.389 97.6383C207.7 100.95 209.165 104.779 209.655 108.791C209.353 108.82 209.046 108.837 208.739 108.842L65.5613 110.906Z" fill="#A9A9A9" stroke="black" stroke-width="2" stroke-linecap="round" stroke-linejoin="round"/>
<path d="M180.745 59.7944C180.744 61.5545 180.067 63.2468 178.854 64.519C177.641 65.7912 175.986 66.5454 174.233 66.6247L86.0767 70.5516C75.5097 71.0232 64.9217 70.5691 54.4333 69.1946L85.0196 51.7003C92.6968 47.3106 101.381 45.0015 110.219 45H158.291L176.795 53.5888C177.978 54.1378 178.978 55.0157 179.678 56.1183C180.378 57.2208 180.747 58.5016 180.742 59.8085L180.745 59.7944Z" fill="white" stroke="black" stroke-width="2" stroke-linecap="round" stroke-linejoin="round"/>
<path d="M128.407 68.6659L131.152 45" stroke="black" stroke-width="2" stroke-linecap="round" stroke-linejoin="round"/>
<path d="M99.1816 86.4006C98.197 86.463 97.213 86.2682 96.326 85.8352C95.4805 85.4231 94.7588 84.794 94.2343 84.0117C93.6943 83.2058 93.3887 82.265 93.3519 81.2948C93.2864 80.3148 93.4944 79.3358 93.9524 78.4677C94.4009 77.6333 95.0587 76.9307 95.8608 76.4293C96.7107 75.9048 97.6825 75.6124 98.6799 75.5812C99.4292 75.535 100.18 75.6417 100.887 75.895C101.571 76.1508 102.193 76.5476 102.714 77.0597L100.814 79.2055C100.573 78.9451 100.271 78.7505 99.9343 78.6401C99.5775 78.5268 99.2028 78.4808 98.8293 78.5044C98.3948 78.5155 97.9713 78.6434 97.603 78.8748C97.2572 79.1013 96.9795 79.418 96.7996 79.7908C96.6151 80.2049 96.5309 80.657 96.5539 81.11C96.5769 81.563 96.7065 82.0042 96.9321 82.3974C97.1457 82.7608 97.4587 83.0552 97.8341 83.2455C98.221 83.4352 98.6505 83.52 99.0801 83.4915C99.4714 83.4759 99.8552 83.3797 100.208 83.2088C100.534 83.046 100.814 82.804 101.022 82.5048L103.131 84.4668C102.658 85.0397 102.073 85.5092 101.411 85.8465C100.716 86.1811 99.9585 86.3679 99.1873 86.3949L99.1816 86.4006Z" fill="#5FBE6E"/>
<path d="M113.166 75.0863L110.094 75.2446L110.139 76.1239C109.847 75.8686 109.518 75.6598 109.163 75.5047C108.572 75.2464 107.927 75.1331 107.283 75.1739C106.395 75.2085 105.536 75.5034 104.814 76.0221C104.099 76.5342 103.534 77.2294 103.179 78.035C102.809 78.9156 102.643 79.8684 102.692 80.8223C102.741 81.7763 103.003 82.707 103.46 83.5451C103.895 84.3056 104.523 84.9361 105.282 85.3714C106.055 85.8022 106.936 85.9986 107.819 85.9368C108.468 85.9131 109.103 85.741 109.676 85.4336C110.017 85.251 110.323 85.012 110.584 84.7268L110.629 85.575L113.696 85.4195L113.166 75.0863ZM109.955 82.2361C109.75 82.4788 109.495 82.674 109.208 82.8083C108.92 82.9425 108.607 83.0125 108.289 83.0136C107.871 83.0441 107.453 82.9549 107.083 82.7563C106.725 82.5621 106.424 82.2763 106.212 81.928C105.987 81.5447 105.861 81.1114 105.845 80.6671C105.812 80.2122 105.894 79.7562 106.082 79.3411C106.256 78.9598 106.533 78.6351 106.882 78.4042C107.231 78.1732 107.638 78.0453 108.055 78.035C108.481 78.0048 108.907 78.0939 109.285 78.2923C109.636 78.4874 109.929 78.7747 110.13 79.1234C110.353 79.5152 110.476 79.9561 110.488 80.407C110.555 81.0631 110.364 81.7195 109.955 82.2361Z" fill="#00C3D7"/>
<path d="M120.719 74.5125C120.506 74.4812 120.289 74.4717 120.074 74.4842C119.544 74.5099 119.03 74.6715 118.58 74.9535C118.114 75.2474 117.711 75.6319 117.396 76.0843C117.31 76.2033 117.231 76.3269 117.159 76.4547L117.018 74.897L114.12 75.044L114.644 85.3913L117.714 85.2329L117.452 80.0367C117.432 79.7501 117.466 79.4622 117.554 79.1886C117.631 78.9462 117.753 78.7208 117.914 78.5242C118.075 78.3299 118.277 78.1751 118.507 78.0718C118.752 77.9623 119.016 77.899 119.284 77.8852C119.534 77.8734 119.783 77.8905 120.029 77.9361C120.226 77.9718 120.416 78.0376 120.593 78.1312L121.263 74.6312C121.084 74.5823 120.903 74.5426 120.719 74.5125Z" fill="#5FBE6E"/>
<path d="M89.4009 76.285L89.6968 82.157C89.7105 82.3896 89.6784 82.6227 89.6022 82.8429C89.526 83.063 89.4073 83.266 89.2528 83.4401C89.0984 83.6142 88.9111 83.756 88.7019 83.8575C88.4927 83.9589 88.2656 84.018 88.0336 84.0314C87.8014 84.042 87.5693 84.0065 87.3508 83.9269C87.1323 83.8473 86.9316 83.7252 86.7603 83.5675C86.5889 83.4099 86.4504 83.2199 86.3525 83.0084C86.2547 82.7969 86.1994 82.5681 86.19 82.3351L85.8912 76.4631L82.7903 76.6215L83.0722 82.2588C83.1046 82.897 83.262 83.5225 83.5354 84.0997C83.8089 84.6769 84.193 85.1944 84.6659 85.6227C85.1388 86.051 85.6912 86.3818 86.2915 86.596C86.8918 86.8102 87.5283 86.9037 88.1647 86.8712C88.8011 86.8387 89.4249 86.6809 90.0004 86.4066C90.5759 86.1324 91.0919 85.7471 91.519 85.2729C91.9461 84.7986 92.2759 84.2447 92.4895 83.6426C92.7031 83.0406 92.7963 82.4022 92.7639 81.764L92.482 76.1267L89.4009 76.285Z" fill="#FF6E41"/>
<path d="M44.4633 126.854C52.7756 126.854 59.514 120.096 59.514 111.76C59.514 103.424 52.7756 96.6659 44.4633 96.6659C36.151 96.6659 29.4126 103.424 29.4126 111.76C29.4126 120.096 36.151 126.854 44.4633 126.854Z" fill="white" stroke="black" stroke-width="2" stroke-linecap="round" stroke-linejoin="round"/>
<path d="M44.4636 120.928C49.5126 120.928 53.6056 116.824 53.6056 111.76C53.6056 106.696 49.5126 102.592 44.4636 102.592C39.4146 102.592 35.3215 106.696 35.3215 111.76C35.3215 116.824 39.4146 120.928 44.4636 120.928Z" fill="white" stroke="black" stroke-width="2" stroke-linecap="round" stroke-linejoin="round"/>
<path d="M185.244 126.854C193.556 126.854 200.294 120.096 200.294 111.76C200.294 103.424 193.556 96.6659 185.244 96.6659C176.931 96.6659 170.193 103.424 170.193 111.76C170.193 120.096 176.931 126.854 185.244 126.854Z" fill="white" stroke="black" stroke-width="2" stroke-linecap="round" stroke-linejoin="round"/>
<path d="M185.244 120.928C190.293 120.928 194.386 116.824 194.386 111.76C194.386 106.696 190.293 102.592 185.244 102.592C180.195 102.592 176.102 106.696 176.102 111.76C176.102 116.824 180.195 120.928 185.244 120.928Z" fill="white" stroke="black" stroke-width="2" stroke-linecap="round" stroke-linejoin="round"/>
<path d="M33.0995 52.6891H3.90139C3.0029 52.6891 2.27058 51.9568 2.27058 51.0583V20.3019H56.9071V33.0079C56.9071 33.6342 57.4158 34.1429 58.042 34.1429C58.6683 34.1429 59.177 33.6342 59.177 33.0079V9.133C59.177 6.98192 57.4273 5.23225 55.2762 5.23225H49.136V4.33173C49.136 1.94303 47.1931 0 44.8043 0C42.4154 0 40.4725 1.94285 40.4725 4.33173V5.23225H33.9202V4.33173C33.9202 1.94303 31.9774 0 29.5885 0C27.1996 0 25.2567 1.94285 25.2567 4.33173V5.23225H18.8327V4.33173C18.8327 1.94303 16.8899 0 14.501 0C12.1121 0 10.1693 1.94285 10.1693 4.33173V5.23225H3.90075C1.74968 5.23225 0 6.98192 0 9.133V51.0598C0 53.2109 1.74968 54.9606 3.90075 54.9606H33.0989C33.7251 54.9606 34.2338 54.4519 34.2338 53.8256C34.2338 53.1994 33.7251 52.6907 33.0989 52.6907L33.0995 52.6891ZM42.7425 4.3322C42.7425 3.19523 43.6674 2.27036 44.8044 2.27036C45.9414 2.27036 46.8662 3.19521 46.8662 4.3322V5.23272H42.7425V4.3322ZM42.7425 7.50261H46.8662V10.7258C46.8662 11.8627 45.9414 12.7876 44.8044 12.7876C43.6674 12.7876 42.7425 11.8628 42.7425 10.7258V7.50261ZM27.5269 4.3322C27.5269 3.19523 28.4518 2.27036 29.5888 2.27036C30.7257 2.27036 31.6506 3.19521 31.6506 4.3322V5.23272H27.5269V4.3322ZM27.5269 7.50261H31.6506V10.7258C31.6506 11.8627 30.7258 12.7876 29.5888 12.7876C28.4518 12.7876 27.5269 11.8628 27.5269 10.7258V7.50261ZM12.4396 4.3322C12.4396 3.19523 13.3645 2.27036 14.5015 2.27036C15.6385 2.27036 16.5633 3.19521 16.5633 4.3322V5.23272H12.4396V4.3322ZM12.4396 7.50261H16.5633V10.7258C16.5633 11.8627 15.6385 12.7876 14.5015 12.7876C13.3645 12.7876 12.4396 11.8628 12.4396 10.7258V7.50261ZM3.90122 7.50261H10.1698V10.7258C10.1698 13.1145 12.1126 15.0575 14.5015 15.0575C16.8904 15.0575 18.8332 13.1146 18.8332 10.7258V7.50261H25.2572V10.7258C25.2572 13.1145 27.2001 15.0575 29.5889 15.0575C31.9778 15.0575 33.9207 13.1146 33.9207 10.7258V7.50261H40.473V10.7258C40.473 13.1145 42.4159 15.0575 44.8047 15.0575C47.1936 15.0575 49.1365 13.1146 49.1365 10.7258V7.50261H55.2767C56.1752 7.50261 56.9075 8.23492 56.9075 9.13342V18.0333L2.27273 18.0326V9.13274C2.27273 8.23424 3.00504 7.50193 3.90354 7.50193L3.90122 7.50261Z" fill="#404040"/>
<path d="M15.4069 24.4111C15.4069 23.7848 14.8982 23.2761 14.272 23.2761H6.85492C6.22867 23.2761 5.71997 23.7848 5.71997 24.4111V30.1006C5.71997 30.7268 6.22867 31.2355 6.85492 31.2355H14.272C14.8982 31.2355 15.4069 30.7268 15.4069 30.1006V24.4111ZM13.137 28.9657H7.98986V25.5461H13.137V28.9657Z" fill="white"/>
<path d="M15.4069 34.2134C15.4069 33.5872 14.8982 33.0785 14.272 33.0785H6.85492C6.22867 33.0785 5.71997 33.5872 5.71997 34.2134V39.903C5.71997 40.5292 6.22867 41.0379 6.85492 41.0379H14.272C14.8982 41.0379 15.4069 40.5292 15.4069 39.903V34.2134ZM13.137 38.7681H7.98986V35.3485H13.137V38.7681Z" fill="#404040"/>
<path d="M14.2732 42.8832H6.85614C6.22989 42.8832 5.72119 43.3919 5.72119 44.0181V49.7076C5.72119 50.3339 6.22989 50.8426 6.85614 50.8426H14.2732C14.8994 50.8426 15.4081 50.3339 15.4081 49.7076V44.0181C15.4081 43.3919 14.8994 42.8832 14.2732 42.8832ZM13.1382 48.5727H7.99108V45.1531H13.1382V48.5727Z" fill="white"/>
<path d="M28.6481 24.4111C28.6481 23.7848 28.1394 23.2761 27.5132 23.2761H20.0961C19.4699 23.2761 18.9612 23.7848 18.9612 24.4111V30.1006C18.9612 30.7268 19.4699 31.2355 20.0961 31.2355H27.5132C28.1394 31.2355 28.6481 30.7268 28.6481 30.1006V24.4111ZM26.3782 28.9657H21.2311V25.5461H26.3782V28.9657Z" fill="white"/>
<path d="M28.6481 34.2134C28.6481 33.5872 28.1394 33.0785 27.5132 33.0785H20.0961C19.4699 33.0785 18.9612 33.5872 18.9612 34.2134V39.903C18.9612 40.5292 19.4699 41.0379 20.0961 41.0379H27.5132C28.1394 41.0379 28.6481 40.5292 28.6481 39.903V34.2134ZM26.3782 38.7681H21.2311V35.3485H26.3782V38.7681Z" fill="white"/>
<path d="M27.5132 42.8832H20.0961C19.4699 42.8832 18.9612 43.3919 18.9612 44.0181V49.7076C18.9612 50.3339 19.4699 50.8426 20.0961 50.8426H27.5132C28.1394 50.8426 28.6481 50.3339 28.6481 49.7076V44.0181C28.6481 43.3919 28.1394 42.8832 27.5132 42.8832ZM26.3782 48.5727H21.2311V45.1531H26.3782V48.5727Z" fill="#404040"/>
<path d="M33.5261 23.2748C32.8998 23.2748 32.3911 23.7835 32.3911 24.4097V30.0992C32.3911 30.7255 32.8998 31.2342 33.5261 31.2342H40.9431C41.5694 31.2342 42.0781 30.7255 42.0781 30.0992V24.4097C42.0781 23.7835 41.5694 23.2748 40.9431 23.2748H33.5261ZM39.8081 28.9643H34.6609V25.5447H39.8081V28.9643Z" fill="#404040"/>
<path d="M34.9048 38.7689H34.6609V35.3492H39.7723C40.3985 35.3492 40.9072 34.8405 40.9072 34.2143C40.9072 33.588 40.3985 33.0793 39.7723 33.0793H33.5261C32.8998 33.0793 32.3911 33.588 32.3911 34.2143V39.9038C32.3911 40.5301 32.8998 41.0388 33.5261 41.0388H34.9049C35.5311 41.0388 36.0398 40.5301 36.0398 39.9038C36.0398 39.2776 35.5311 38.7689 34.9048 38.7689Z" fill="white"/>
<path d="M46.7675 23.2748C46.1413 23.2748 45.6326 23.7835 45.6326 24.4097V30.0992C45.6326 30.7255 46.1413 31.2342 46.7675 31.2342H54.1846C54.8108 31.2342 55.3195 30.7255 55.3195 30.0992V24.4097C55.3195 23.7835 54.8108 23.2748 54.1846 23.2748H46.7675ZM53.0495 28.9643H47.9024V25.5447H53.0495V28.9643Z" fill="#404040"/>
<path d="M50.3825 34.0249C42.3946 34.0249 35.895 40.5245 35.895 48.5124C35.895 56.5004 42.3946 62.9999 50.3825 62.9999C58.3705 62.9999 64.8701 56.5004 64.8701 48.5124C64.8701 40.5245 58.3705 34.0249 50.3825 34.0249ZM50.3825 60.7292C43.6465 60.7292 38.1649 55.2489 38.1649 48.5116C38.1649 41.7735 43.6452 36.2939 50.3825 36.2939C57.1206 36.2939 62.6002 41.7742 62.6002 48.5116C62.6002 55.2496 57.1199 60.7292 50.3825 60.7292Z" fill="#404040"/>
<path d="M57.2836 47.3779H51.5162V40.2319C51.5162 39.6056 51.0075 39.0969 50.3813 39.0969C49.755 39.0969 49.2463 39.6056 49.2463 40.2319V48.5129C49.2463 49.1392 49.755 49.6479 50.3813 49.6479H57.2835C57.9097 49.6479 58.4184 49.1392 58.4184 48.5129C58.4184 47.8867 57.9098 47.3779 57.2836 47.3779Z" fill="white"/>
</svg>
