<svg width="252" height="152" viewBox="0 0 252 152" fill="none" xmlns="http://www.w3.org/2000/svg">
<g clip-path="url(#clip0_511_10367)">
<rect width="252" height="152" fill="white"/>
<path d="M0 0H252.102V76H0V0Z" fill="#EF664E"/>
<path d="M0.188477 86.9434H251.81" stroke="black" stroke-width="0.5" stroke-linecap="round" stroke-linejoin="round"/>
<path d="M0.188477 107.768H251.81" stroke="black" stroke-width="0.5" stroke-linecap="round" stroke-linejoin="round"/>
<path d="M0.188477 120.232H251.81" stroke="black" stroke-width="0.5" stroke-linecap="round" stroke-linejoin="round"/>
<path d="M0.188477 97.584H251.81" stroke="black" stroke-width="0.5" stroke-linecap="round" stroke-linejoin="round"/>
<path d="M144.282 76.1513H21.3296C21.3296 76.1513 23.1454 72.0076 27.7549 70.0047C32.3654 68.0018 38.1791 69.4935 42.0038 66.6074C45.8296 63.7201 47.8051 60.9385 53.3558 59.2523C58.9066 57.5662 64.3551 59.4624 69.8026 57.1449C75.1717 54.8587 79.8616 54.1322 82.8044 54.1113C85.7473 54.1312 90.4382 54.8587 95.8074 57.1449C101.256 59.4635 106.702 57.5662 112.253 59.2523C117.805 60.9385 119.78 63.7201 123.605 66.6074C127.431 69.4935 133.245 68.0018 137.854 70.0047C142.463 72.0076 144.28 76.1513 144.28 76.1513H144.282Z" fill="white" stroke="black" stroke-width="0.5" stroke-linecap="round" stroke-linejoin="round"/>
<path d="M85.6255 76.1524C85.6255 76.1524 94.1958 44.2324 107.353 44.2324C120.51 44.2324 126.761 76.1524 126.761 76.1524H85.6245H85.6255Z" fill="white" stroke="black" stroke-width="0.5" stroke-linecap="round" stroke-linejoin="round"/>
<path d="M114.725 76.152C114.725 76.152 125.93 32.832 143.133 32.832C160.336 32.832 168.507 76.152 168.507 76.152H114.725Z" fill="white" stroke="black" stroke-width="0.5" stroke-linecap="round" stroke-linejoin="round"/>
<path d="M229.146 76.1514H108.174C108.174 76.1514 109.96 72.1792 114.495 70.2592C119.032 68.3392 124.752 69.7691 128.515 67.0024C132.279 64.2346 134.223 61.5681 139.684 59.9517C145.145 58.3353 150.506 60.1531 155.866 57.9315C161.148 55.7399 165.763 55.0435 168.658 55.0234C171.554 55.0425 176.169 55.7399 181.452 57.9315C186.812 60.1541 192.171 58.3353 197.632 59.9517C203.095 61.5681 205.038 64.2346 208.801 67.0024C212.566 69.7691 218.286 68.3392 222.821 70.2592C227.356 72.1792 229.144 76.1514 229.144 76.1514H229.146Z" fill="white" stroke="black" stroke-width="0.5" stroke-linecap="round" stroke-linejoin="round"/>
<path fill-rule="evenodd" clip-rule="evenodd" d="M47.84 67.1751C47.84 63.692 46.3735 57.7598 44.5643 57.7598C42.755 57.7598 41.2886 63.691 41.2886 67.1751C41.2886 70.3762 42.5275 70.185 44.1327 70.3526V76.1518H44.9958V70.3526C46.6011 70.185 47.84 70.3762 47.84 67.1751Z" fill="white" stroke="black" stroke-width="0.5" stroke-linecap="round" stroke-linejoin="round"/>
<path fill-rule="evenodd" clip-rule="evenodd" d="M61.552 64.9485C61.552 60.601 59.7786 53.1992 57.5907 53.1992C55.4028 53.1992 53.6294 60.601 53.6294 64.9485C53.6294 68.9435 55.1278 68.7045 57.0682 68.9139V76.1512H58.1123V68.9139C60.0526 68.7045 61.5511 68.9435 61.5511 64.9485H61.552Z" fill="white" stroke="black" stroke-width="0.5" stroke-linecap="round" stroke-linejoin="round"/>
<path d="M160.889 73.2787C158.875 71.4427 157.094 69.378 155.582 67.1316H159.737C157.749 65.3217 156.027 63.2517 154.613 60.9844H158.583C156.139 58.7588 154.173 56.0654 152.803 53.067L152.586 52.5918L152.369 53.067C150.998 56.0654 149.033 58.7578 146.589 60.9844H150.558C149.145 63.2517 147.423 65.3217 145.435 67.1316H149.59C148.079 69.379 146.297 71.4438 144.282 73.2787H151.417V76.1518H153.754V73.2787H160.888H160.889Z" fill="#10A96C" stroke="black" stroke-width="0.5" stroke-linecap="round" stroke-linejoin="round"/>
<path d="M83.5975 73.7206C81.9023 72.1692 80.4049 70.4241 79.1328 68.5262H82.6273C80.9557 66.9964 79.5066 65.2476 78.3178 63.3317H81.6581C79.6022 61.4507 77.9487 59.175 76.7949 56.6416L76.6122 56.2402L76.4295 56.6416C75.2767 59.175 73.6222 61.4507 71.5664 63.3317H74.9066C73.7178 65.2476 72.2687 66.9964 70.5971 68.5262H74.0916C72.8205 70.4251 71.3222 72.1701 69.627 73.7206H75.6288V76.1493H77.5956V73.7206H83.5975Z" fill="white" stroke="black" stroke-width="0.5" stroke-linecap="round" stroke-linejoin="round"/>
<path d="M205.073 72.9249C202.818 70.8646 200.826 68.5458 199.133 66.0242H203.782C201.558 63.9921 199.631 61.6683 198.049 59.1235H202.492C199.758 56.625 197.558 53.6017 196.023 50.2361L195.779 49.7031L195.536 50.2361C194.002 53.6017 191.801 56.625 189.066 59.1235H193.51C191.928 61.6693 190.001 63.9921 187.777 66.0242H192.425C190.734 68.5468 188.741 70.8646 186.486 72.9249H194.47V76.1511H197.087V72.9249H205.071H205.073Z" fill="white" stroke="black" stroke-width="0.5" stroke-linecap="round" stroke-linejoin="round"/>
<path d="M251.999 75.8529C251.999 75.8529 210.114 75.5869 215.06 78.838C220.006 82.0892 202.679 82.6251 205.744 86.1252C208.808 89.6254 218.798 91.8077 251.999 91.8077" fill="white"/>
<path d="M251.999 75.8529C251.999 75.8529 210.114 75.5869 215.06 78.838C220.006 82.0892 202.679 82.6251 205.744 86.1252C208.808 89.6254 218.798 91.8077 251.999 91.8077" stroke="black" stroke-width="0.5" stroke-linecap="round" stroke-linejoin="round"/>
<path d="M10.3596 76.1523L231.431 76.1522L10.3596 76.1523Z" fill="white"/>
<path d="M10.3596 76.1523L231.431 76.1522" stroke="black" stroke-width="0.5" stroke-linecap="round" stroke-linejoin="round"/>
<path d="M22.1443 86.944V64.2949" stroke="black" stroke-width="0.5" stroke-linecap="round" stroke-linejoin="round"/>
<path d="M29.8162 50.7676H14.4734V66.0741H29.8162V50.7676Z" fill="white" stroke="black" stroke-width="0.5" stroke-linecap="round" stroke-linejoin="round"/>
<path d="M28.7942 51.7871H15.4946V65.0552H28.7942V51.7871Z" fill="#00A6BF" stroke="black" stroke-width="0.5" stroke-linecap="round" stroke-linejoin="round"/>
<path d="M25.6141 56.9983C25.6141 58.7978 24.4112 59.5545 22.7955 59.5545H21.08V62.3108H19.52V54.5312H22.929C24.3997 54.5312 25.6141 55.3435 25.6141 56.9994V56.9983ZM24.0099 57.0308C24.0099 56.3527 23.5645 56.0415 22.8733 56.0415H21.08V58.0422H22.8964C23.6202 58.0422 24.011 57.7089 24.011 57.0308H24.0099Z" fill="white"/>
<path d="M133.523 36.9188H133.314C133.314 34.5345 131.377 32.6016 128.987 32.6016C126.597 32.6016 124.659 34.5345 124.659 36.9188H124.451C122.643 36.9188 121.178 38.3805 121.178 40.1841C121.178 41.9876 122.643 43.4494 124.451 43.4494H133.523C135.33 43.4494 136.796 41.9876 136.796 40.1841C136.796 38.3805 135.33 36.9188 133.523 36.9188Z" fill="white" stroke="black" stroke-width="0.5" stroke-linecap="round" stroke-linejoin="round"/>
<path d="M111.415 30.0317C115.648 30.0317 119.08 26.6082 119.08 22.385C119.08 18.1618 115.648 14.7383 111.415 14.7383C107.182 14.7383 103.75 18.1618 103.75 22.385C103.75 26.6082 107.182 30.0317 111.415 30.0317Z" fill="white" stroke="black" stroke-width="0.5" stroke-linecap="round" stroke-linejoin="round"/>
<path d="M111.415 13.0976V11.0957" stroke="black" stroke-width="0.5" stroke-linecap="round" stroke-linejoin="round"/>
<path d="M117.998 15.8178L119.417 14.4023" stroke="black" stroke-width="0.5" stroke-linecap="round" stroke-linejoin="round"/>
<path d="M120.725 22.3848H122.731" stroke="black" stroke-width="0.5" stroke-linecap="round" stroke-linejoin="round"/>
<path d="M117.998 28.9531L119.417 30.3686" stroke="black" stroke-width="0.5" stroke-linecap="round" stroke-linejoin="round"/>
<path d="M111.415 31.6738V33.6757" stroke="black" stroke-width="0.5" stroke-linecap="round" stroke-linejoin="round"/>
<path d="M104.832 28.9531L103.413 30.3686" stroke="black" stroke-width="0.5" stroke-linecap="round" stroke-linejoin="round"/>
<path d="M102.105 22.3848H100.098" stroke="black" stroke-width="0.5" stroke-linecap="round" stroke-linejoin="round"/>
<path d="M104.832 15.8178L103.413 14.4023" stroke="black" stroke-width="0.5" stroke-linecap="round" stroke-linejoin="round"/>
<path d="M190.877 24.7181C190.033 24.7181 189.26 25.0202 188.66 25.5226C188.351 22.7937 186.03 20.6719 183.213 20.6719C180.717 20.6719 178.612 22.3366 177.948 24.6133C177.153 23.5991 175.916 22.9466 174.526 22.9466C172.128 22.9466 170.183 24.8862 170.183 27.2799C170.183 29.6736 172.127 31.6132 174.526 31.6132H190.878C192.786 31.6132 194.334 30.0702 194.334 28.1656C194.334 26.261 192.787 24.7181 190.878 24.7181H190.877Z" fill="white" stroke="black" stroke-width="0.5" stroke-linecap="round" stroke-linejoin="round"/>
<path d="M76.6029 28.6151C76.6029 26.9239 75.7075 25.3309 74.2129 24.5311C73.5598 24.1817 72.814 23.9834 72.0217 23.9834C71.2295 23.9834 70.425 24.1978 69.7558 24.5727C69.4028 22.3612 67.4842 20.6719 65.17 20.6719C62.6068 20.6719 60.5273 22.7446 60.5273 25.3035C60.5273 25.5094 60.5406 25.7105 60.5671 25.9088C59.8477 25.4999 59.0101 25.2771 58.1166 25.3064C55.7048 25.3847 53.7276 27.3432 53.6329 29.7492C53.6301 29.8181 53.6292 29.888 53.6292 29.956C53.6367 31.7161 55.1095 33.1212 56.8738 33.1212H72.0871C74.5821 33.1212 76.6038 31.1033 76.6038 28.6151H76.6029Z" fill="white" stroke="black" stroke-width="0.5" stroke-linecap="round" stroke-linejoin="round"/>
<path d="M197.183 133.289C201.749 133.289 205.451 129.596 205.451 125.041C205.451 120.486 201.749 116.793 197.183 116.793C192.617 116.793 188.916 120.486 188.916 125.041C188.916 129.596 192.617 133.289 197.183 133.289Z" fill="white" stroke="black" stroke-width="0.5" stroke-linecap="round" stroke-linejoin="round"/>
<path d="M197.183 131.751C200.897 131.751 203.908 128.747 203.908 125.041C203.908 121.336 200.897 118.332 197.183 118.332C193.469 118.332 190.458 121.336 190.458 125.041C190.458 128.747 193.469 131.751 197.183 131.751Z" fill="white" stroke="black" stroke-width="0.5" stroke-linecap="round" stroke-linejoin="round"/>
<path d="M164.129 133.289C168.695 133.289 172.396 129.596 172.396 125.041C172.396 120.486 168.695 116.793 164.129 116.793C159.563 116.793 155.861 120.486 155.861 125.041C155.861 129.596 159.563 133.289 164.129 133.289Z" fill="white" stroke="black" stroke-width="0.5" stroke-linecap="round" stroke-linejoin="round"/>
<path d="M164.129 131.751C167.843 131.751 170.854 128.747 170.854 125.041C170.854 121.336 167.843 118.332 164.129 118.332C160.414 118.332 157.403 121.336 157.403 125.041C157.403 128.747 160.414 131.751 164.129 131.751Z" fill="white" stroke="black" stroke-width="0.5" stroke-linecap="round" stroke-linejoin="round"/>
<path d="M197.183 125.041L192.39 114.416H172.974L163.84 124.299L180.913 126.234L192.39 114.416" stroke="black" stroke-width="0.5" stroke-linecap="round" stroke-linejoin="round"/>
<path d="M179.727 128.497C180.979 128.497 181.995 127.484 181.995 126.235C181.995 124.986 180.979 123.973 179.727 123.973C178.474 123.973 177.459 124.986 177.459 126.235C177.459 127.484 178.474 128.497 179.727 128.497Z" fill="white" stroke="black" stroke-width="0.5" stroke-linecap="round" stroke-linejoin="round"/>
<path d="M178.604 124.268L172.974 114.415L170.726 110.01C170.726 110.01 166.257 110.115 166.257 108.665C166.257 108.665 169.022 106.559 171.833 107.868C174.645 109.178 176.988 108.245 176.614 109.508C176.239 110.771 170.726 110.011 170.726 110.011" fill="white"/>
<path d="M178.604 124.268L172.974 114.415L170.726 110.01C170.726 110.01 166.257 110.115 166.257 108.665C166.257 108.665 169.022 106.559 171.833 107.868C174.645 109.178 176.988 108.245 176.614 109.508C176.239 110.771 170.726 110.011 170.726 110.011" stroke="black" stroke-width="0.5" stroke-linecap="round" stroke-linejoin="round"/>
<path d="M192.39 114.415L189.956 107.869L194.558 107.482" stroke="black" stroke-width="0.5" stroke-linecap="round" stroke-linejoin="round"/>
<path d="M203.268 140.167C203.513 140.412 210.531 140.167 210.531 140.167C210.531 140.167 209.636 136.3 209.427 133.932H206.108C206.446 136.336 205.667 136.857 205.1 136.933C204.5 137.014 203.936 137.279 203.551 137.746C202.636 138.853 203.071 139.973 203.267 140.167H203.268Z" fill="#A9A9A9" stroke="black" stroke-width="0.5" stroke-linecap="round" stroke-linejoin="round"/>
<path d="M203.268 124.962C203.268 124.962 204.976 129.188 205.779 132.319C205.937 132.933 206.043 133.466 206.109 133.93H209.428C209.4 133.616 209.384 133.329 209.384 133.081C209.384 130.956 209.02 125.288 209.02 125.288L203.268 124.961V124.962Z" fill="white" stroke="black" stroke-width="0.5" stroke-linecap="round" stroke-linejoin="round"/>
<path d="M193.724 140.167C193.969 140.412 200.988 140.167 200.988 140.167C200.988 140.167 200.092 136.3 199.883 133.932H196.564C196.902 136.336 196.123 136.857 195.556 136.933C194.957 137.014 194.393 137.279 194.008 137.746C193.093 138.853 193.527 139.973 193.723 140.167H193.724Z" fill="#A9A9A9" stroke="black" stroke-width="0.5" stroke-linecap="round" stroke-linejoin="round"/>
<path d="M198.106 124.418C198.106 124.418 195.434 129.188 196.237 132.32C196.395 132.934 196.501 133.467 196.566 133.931H199.886C199.858 133.617 199.842 133.33 199.842 133.082C199.842 130.957 202.011 124.908 202.011 124.908L198.106 124.418Z" fill="white" stroke="black" stroke-width="0.5" stroke-linecap="round" stroke-linejoin="round"/>
<path d="M209.02 117.316L210.532 127.996H202.992L202.666 121.908L202.011 127.996L196.165 127.567L200.687 116.164L209.02 117.316Z" fill="white" stroke="black" stroke-width="0.5" stroke-linecap="round" stroke-linejoin="round"/>
<path d="M200.294 90.1875C200.294 90.1875 200.148 92.4642 199.47 93.0146C198.791 93.5649 199.917 94.3496 199.917 94.3496C199.917 94.3496 199.526 97.946 200.896 97.7457C202.265 97.5454 202.997 96.7782 203.378 98.0461L206.4 97.7126L207.337 95.1261L207.083 90.7213L200.293 90.1875H200.294Z" fill="white" stroke="black" stroke-width="0.5" stroke-linecap="round" stroke-linejoin="round"/>
<path d="M206.669 97.4941C209.666 100.073 210.24 106.689 209.685 112.444C209.515 114.205 208.601 115.78 208.611 117.385L200.688 116.163C200.956 113.732 200.606 111.652 200.688 108.764C200.792 105.061 200.289 102.161 203.26 97.7358L206.669 97.4941Z" fill="white" stroke="black" stroke-width="0.5" stroke-linecap="round" stroke-linejoin="round"/>
<path d="M201.254 93.5431C201.472 93.5431 201.649 93.3572 201.649 93.128C201.649 92.8987 201.472 92.7129 201.254 92.7129C201.035 92.7129 200.858 92.8987 200.858 93.128C200.858 93.3572 201.035 93.5431 201.254 93.5431Z" fill="black"/>
<path d="M204.082 101.474C204.082 101.474 206.183 107.364 205.003 114.091C205.003 114.091 203.563 116.146 203.787 116.55C204.391 117.633 205.512 115.927 205.545 115.911C205.533 115.94 205.379 116.495 205.201 117.14C204.9 118.233 205.596 119.35 206.712 119.564C207.706 119.755 208.681 119.154 208.955 118.182L209.525 116.164C210.808 111.443 210.209 103.987 208.05 99.2344" fill="white"/>
<path d="M204.082 101.474C204.082 101.474 206.183 107.364 205.003 114.091C205.003 114.091 203.563 116.146 203.787 116.55C204.391 117.633 205.512 115.927 205.545 115.911C205.533 115.94 205.379 116.495 205.201 117.14C204.9 118.233 205.596 119.35 206.712 119.564C207.706 119.755 208.681 119.154 208.955 118.182L209.525 116.164C210.808 111.443 210.209 103.987 208.05 99.2344" stroke="black" stroke-width="0.5" stroke-linecap="round" stroke-linejoin="round"/>
<path d="M209.428 133.932H209.429" stroke="black" stroke-width="0.5" stroke-linecap="round" stroke-linejoin="round"/>
<path d="M201.38 94.8027C201.38 94.8027 200.945 95.51 199.875 94.9576L201.38 94.8027Z" fill="white"/>
<path d="M201.38 94.8027C201.38 94.8027 200.945 95.51 199.875 94.9576" stroke="black" stroke-width="0.5" stroke-linecap="round" stroke-linejoin="round"/>
<path d="M207.944 92.118C207.944 92.118 209.127 87.0957 204.082 87.0957C199.038 87.0957 198.651 91.3797 198.651 91.3797L207.944 92.118Z" fill="white" stroke="black" stroke-width="0.5" stroke-linecap="round" stroke-linejoin="round"/>
<path d="M202.214 91.6629C202.214 91.6629 198.919 92.9897 198.284 92.9897C197.743 92.9897 197.295 91.8993 196.13 91.8477C196.021 91.8426 195.991 91.6949 196.092 91.6515L198.873 90.4476C198.873 90.4476 201.039 89.8787 202.214 91.6629Z" fill="white" stroke="black" stroke-width="0.5" stroke-linecap="round" stroke-linejoin="round"/>
<path d="M204.537 91.8465C204.537 91.8465 203.56 92.8181 204.537 93.1269C205.514 93.4346 206.026 94.6385 204.893 95.8621C203.759 97.0856 207.946 97.3376 208.566 96.9803C209.186 96.623 207.898 95.5048 207.898 95.5048C207.898 95.5048 209.902 95.0175 208.924 94.4878C207.946 93.9581 209.874 92.4175 207.944 92.1171C206.013 91.8166 204.537 91.8465 204.537 91.8465Z" fill="white" stroke="black" stroke-width="0.5" stroke-linecap="round" stroke-linejoin="round"/>
<path d="M206.668 97.4941C206.668 97.4941 209.894 98.5669 210.862 104.477L203.543 105.482L202.691 100.768" fill="white"/>
<path d="M206.668 97.4941C206.668 97.4941 209.894 98.5669 210.862 104.477L203.543 105.482L202.691 100.768" stroke="black" stroke-width="0.5" stroke-linecap="round" stroke-linejoin="round"/>
<path d="M142.044 120.684C142.044 121.19 141.917 121.701 141.649 122.166L140.086 124.898C140.049 124.963 140.011 125.027 139.972 125.09C139.013 126.652 137.35 127.635 135.535 127.807C134.761 121.398 129.292 116.432 122.66 116.432C120.372 116.432 118.223 117.023 116.357 118.06C112.309 120.31 107.834 121.69 103.208 121.959L65.4481 124.156C61.8965 124.363 58.375 123.241 55.6733 120.933C53.7285 119.27 51.1995 118.265 48.4357 118.265C45.672 118.265 43.1368 119.273 41.1899 120.94C39.3785 122.491 37.1741 123.516 34.8323 123.981L27.9959 125.34L27.5234 122.198C27.4407 121.647 27.4096 121.097 27.4293 120.556C27.5637 116.695 30.2095 113.272 34.0744 112.248L34.9987 112.002L53.6902 107.047C54.1782 107.111 54.6662 107.171 55.1553 107.226C55.2111 107.232 55.267 107.239 55.3228 107.245C55.7622 107.295 56.2027 107.342 56.6431 107.385C58.7596 107.595 60.8812 107.735 63.006 107.803C63.5219 107.82 64.0389 107.833 64.5548 107.841C65.7862 107.861 67.0176 107.858 68.248 107.83C68.9573 107.813 69.6666 107.789 70.3748 107.759L92.6933 106.769L116.852 105.699C118.773 105.613 120.287 104.034 120.287 102.116C120.287 101.418 120.083 100.752 119.721 100.185C119.359 99.6191 118.838 99.1549 118.202 98.8619L108.445 94.3574H118.911C121.201 94.3574 123.424 95.1249 125.225 96.537L136.948 106.273C138.974 107.956 140.082 110.496 139.934 113.123L139.781 115.828C139.725 116.801 140.147 117.736 140.911 118.342C141.649 118.925 142.044 119.798 142.044 120.684Z" fill="white" stroke="black" stroke-width="0.5" stroke-linecap="round" stroke-linejoin="round"/>
<path d="M59.558 128.923L37.3056 129.244L28.6009 129.37L27.9961 125.34L34.8325 123.98C37.1733 123.515 39.3776 122.491 41.1891 120.939C43.136 119.271 45.6681 118.265 48.4349 118.265C51.2017 118.265 53.7276 119.269 55.6735 120.932C58.3741 123.241 61.8968 124.363 65.4473 124.155L103.209 121.958C107.834 121.689 112.309 120.31 116.357 118.059C118.223 117.023 120.372 116.432 122.66 116.432C129.292 116.432 134.761 121.397 135.536 127.806C135.376 127.821 135.215 127.831 135.053 127.833L59.558 128.923Z" fill="#A9A9A9" stroke="black" stroke-width="0.5" stroke-linecap="round" stroke-linejoin="round"/>
<path d="M120.287 102.116C120.287 104.034 118.774 105.613 116.852 105.699L70.374 107.759C64.8021 108.005 59.2199 107.767 53.6904 107.046L69.8167 97.8717C73.8635 95.5694 78.4428 94.3574 83.1017 94.3574H108.445L118.202 98.8609C118.838 99.1539 119.359 99.618 119.721 100.184C120.084 100.751 120.287 101.418 120.287 102.115V102.116Z" fill="white" stroke="black" stroke-width="0.5" stroke-linecap="round" stroke-linejoin="round"/>
<path d="M92.6931 106.769L94.1396 94.3574" stroke="black" stroke-width="0.5" stroke-linecap="round" stroke-linejoin="round"/>
<path d="M77.2835 116.07C76.7324 116.098 76.231 116.001 75.7781 115.777C75.3252 115.554 74.9572 115.236 74.6749 114.821C74.3926 114.406 74.2375 113.932 74.2107 113.395C74.1838 112.859 74.2882 112.361 74.5271 111.919C74.7659 111.479 75.1009 111.122 75.532 110.851C75.9632 110.579 76.4584 110.429 77.0168 110.401C77.4355 110.379 77.8222 110.435 78.1789 110.566C78.5346 110.697 78.8561 110.901 79.1436 111.178L78.1407 112.302C78.0083 112.16 77.8543 112.06 77.6785 112.001C77.5027 111.943 77.3083 111.919 77.0953 111.93C76.8462 111.942 76.6301 112.007 76.4481 112.125C76.2661 112.242 76.1255 112.402 76.0252 112.604C75.9249 112.808 75.8815 113.039 75.8949 113.298C75.9084 113.558 75.9746 113.775 76.0945 113.971C76.2144 114.166 76.3737 114.313 76.5701 114.411C76.7666 114.509 76.9857 114.553 77.2277 114.54C77.4552 114.529 77.6537 114.482 77.8222 114.398C77.9907 114.315 78.1334 114.192 78.2503 114.03L79.3628 115.058C79.0991 115.37 78.7962 115.611 78.456 115.781C78.1148 115.951 77.724 116.047 77.2835 116.07Z" fill="#10A96C"/>
<path d="M84.6565 110.137L83.0374 110.219L83.0612 110.68C82.9123 110.55 82.7417 110.442 82.5473 110.356C82.2464 110.222 81.9156 110.165 81.5558 110.182C81.0646 110.208 80.6304 110.354 80.254 110.624C79.8767 110.893 79.5892 111.245 79.3907 111.68C79.1922 112.115 79.1064 112.604 79.1343 113.147C79.1622 113.683 79.2966 114.156 79.5386 114.57C79.7805 114.983 80.1 115.301 80.4981 115.527C80.8961 115.753 81.3407 115.854 81.8329 115.83C82.1999 115.811 82.5266 115.723 82.813 115.566C82.9981 115.466 83.1573 115.342 83.2917 115.195L83.3145 115.642L84.9326 115.56L84.6565 110.137ZM82.965 113.886C82.7531 114.14 82.4605 114.276 82.0862 114.295C81.8504 114.307 81.6385 114.262 81.4493 114.16C81.2601 114.057 81.1081 113.912 80.9912 113.724C80.8754 113.535 80.8103 113.316 80.7979 113.063C80.7845 112.802 80.8258 112.571 80.922 112.368C81.0181 112.166 81.1556 112.004 81.3335 111.883C81.5113 111.762 81.7212 111.695 81.9642 111.683C82.2061 111.671 82.4222 111.716 82.6114 111.818C82.8006 111.92 82.9516 112.066 83.0643 112.254C83.177 112.442 83.24 112.667 83.2525 112.927C83.2731 113.314 83.177 113.633 82.965 113.886Z" fill="#00A6BF"/>
<path d="M88.6392 109.835C88.5337 109.819 88.42 109.815 88.299 109.821C88.0157 109.836 87.7531 109.917 87.5101 110.067C87.2671 110.216 87.0593 110.411 86.8856 110.654C86.8401 110.716 86.7988 110.781 86.7615 110.847L86.6871 110.03L85.1589 110.108L85.436 115.535L87.0552 115.452L86.9166 112.727C86.9084 112.563 86.9259 112.414 86.9704 112.282C87.0148 112.15 87.0779 112.034 87.1606 111.934C87.2433 111.834 87.3478 111.755 87.4729 111.697C87.598 111.64 87.7355 111.607 87.8834 111.599C88.0178 111.592 88.1491 111.601 88.2752 111.626C88.4014 111.651 88.5027 111.685 88.5792 111.729L88.9318 109.893C88.8428 109.871 88.7457 109.851 88.6402 109.837L88.6392 109.835Z" fill="#8280B8"/>
<path d="M72.1252 110.764L72.2823 113.843C72.3092 114.361 71.9163 114.801 71.4056 114.827C70.8948 114.853 70.4595 114.455 70.4326 113.937L70.2755 110.858L68.646 110.941L68.797 113.897C68.8693 115.324 70.0749 116.427 71.4841 116.356C72.8934 116.285 73.9801 115.065 73.9077 113.638L73.7567 110.682L72.1262 110.764H72.1252Z" fill="#EF664E"/>
<path d="M48.4359 137.286C52.8186 137.286 56.3714 133.742 56.3714 129.37C56.3714 124.998 52.8186 121.453 48.4359 121.453C44.0533 121.453 40.5005 124.998 40.5005 129.37C40.5005 133.742 44.0533 137.286 48.4359 137.286Z" fill="white" stroke="black" stroke-width="0.5" stroke-linecap="round" stroke-linejoin="round"/>
<path d="M48.4357 134.178C51.0978 134.178 53.2559 132.025 53.2559 129.369C53.2559 126.714 51.0978 124.561 48.4357 124.561C45.7736 124.561 43.6155 126.714 43.6155 129.369C43.6155 132.025 45.7736 134.178 48.4357 134.178Z" fill="white" stroke="black" stroke-width="0.5" stroke-linecap="round" stroke-linejoin="round"/>
<path d="M122.659 137.286C127.041 137.286 130.594 133.742 130.594 129.37C130.594 124.998 127.041 121.453 122.659 121.453C118.276 121.453 114.723 124.998 114.723 129.37C114.723 133.742 118.276 137.286 122.659 137.286Z" fill="white" stroke="black" stroke-width="0.5" stroke-linecap="round" stroke-linejoin="round"/>
<path d="M122.659 134.178C125.321 134.178 127.479 132.025 127.479 129.369C127.479 126.714 125.321 124.561 122.659 124.561C119.997 124.561 117.839 126.714 117.839 129.369C117.839 132.025 119.997 134.178 122.659 134.178Z" fill="white" stroke="black" stroke-width="0.5" stroke-linecap="round" stroke-linejoin="round"/>
<path d="M85.8486 93.1628C90.0348 93.1628 93.4284 89.7772 93.4284 85.6009C93.4284 81.4246 90.0348 78.0391 85.8486 78.0391C81.6624 78.0391 78.2688 81.4246 78.2688 85.6009C78.2688 89.7772 81.6624 93.1628 85.8486 93.1628Z" fill="white" stroke="black" stroke-width="0.5" stroke-linecap="round" stroke-linejoin="round"/>
<path d="M85.8485 91.7508C89.2535 91.7508 92.0138 88.997 92.0138 85.6C92.0138 82.203 89.2535 79.4492 85.8485 79.4492C82.4434 79.4492 79.6831 82.203 79.6831 85.6C79.6831 88.997 82.4434 91.7508 85.8485 91.7508Z" fill="white" stroke="black" stroke-width="0.5" stroke-linecap="round" stroke-linejoin="round"/>
<path d="M116.155 93.1628C120.341 93.1628 123.735 89.7772 123.735 85.6009C123.735 81.4246 120.341 78.0391 116.155 78.0391C111.969 78.0391 108.575 81.4246 108.575 85.6009C108.575 89.7772 111.969 93.1628 116.155 93.1628Z" fill="white" stroke="black" stroke-width="0.5" stroke-linecap="round" stroke-linejoin="round"/>
<path d="M116.155 91.7508C119.56 91.7508 122.32 88.997 122.32 85.6C122.32 82.203 119.56 79.4492 116.155 79.4492C112.75 79.4492 109.99 82.203 109.99 85.6C109.99 88.997 112.75 91.7508 116.155 91.7508Z" fill="white" stroke="black" stroke-width="0.5" stroke-linecap="round" stroke-linejoin="round"/>
<path d="M85.8489 85.5998L90.2431 75.8574H108.045L116.42 84.9201L100.766 86.6932L90.2431 75.8574" stroke="black" stroke-width="0.5" stroke-linecap="round" stroke-linejoin="round"/>
<path d="M101.854 88.7678C103.003 88.7678 103.934 87.8391 103.934 86.6935C103.934 85.5479 103.003 84.6191 101.854 84.6191C100.706 84.6191 99.7751 85.5479 99.7751 86.6935C99.7751 87.8391 100.706 88.7678 101.854 88.7678Z" fill="white" stroke="black" stroke-width="0.5" stroke-linecap="round" stroke-linejoin="round"/>
<path d="M110.106 71.8201C110.106 71.8201 105.051 72.5163 104.708 71.359C104.365 70.2017 106.512 71.0568 109.091 69.8561C111.669 68.6555 114.205 70.5874 114.205 70.5874C114.205 71.916 110.107 71.8201 110.107 71.8201L108.046 75.8583L102.884 84.8921" fill="white"/>
<path d="M110.106 71.8201C110.106 71.8201 105.051 72.5163 104.708 71.359C104.365 70.2017 106.512 71.0568 109.091 69.8561C111.669 68.6555 114.205 70.5874 114.205 70.5874C114.205 71.916 110.107 71.8201 110.107 71.8201L108.046 75.8583L102.884 84.8921" stroke="black" stroke-width="0.5" stroke-linecap="round" stroke-linejoin="round"/>
<path d="M90.2431 75.8589L92.4753 69.8567L88.2559 69.5039" stroke="black" stroke-width="0.5" stroke-linecap="round" stroke-linejoin="round"/>
<path d="M118.293 94.3578L117.199 92.0473C116.47 90.5093 114.917 89.5273 113.211 89.5273C111.001 89.5273 109.133 91.1581 108.838 93.3428L108.702 94.3568H118.292L118.293 94.3578Z" fill="white" stroke="black" stroke-width="0.5" stroke-linecap="round" stroke-linejoin="round"/>
<path d="M92.5779 94.3578L91.483 92.0473C90.754 90.5093 89.2011 89.5273 87.4951 89.5273C85.2856 89.5273 83.4172 91.1581 83.1226 93.3428L82.9861 94.3568H92.5769L92.5779 94.3578Z" fill="white" stroke="black" stroke-width="0.5" stroke-linecap="round" stroke-linejoin="round"/>
<path d="M33.9515 117.241C32.3923 119.727 29.732 120.994 27.4294 120.556C27.5639 116.695 30.2097 113.272 34.0745 112.247L34.9989 112.002C35.3432 113.638 35.0144 115.546 33.9515 117.241Z" fill="white" stroke="black" stroke-width="0.5" stroke-linecap="round" stroke-linejoin="round"/>
<path d="M114.918 97.9615C114.918 97.9615 119.024 96.1264 121.978 98.4163C124.932 100.705 118.557 101.967 118.557 101.967" fill="white"/>
<path d="M114.918 97.9615C114.918 97.9615 119.024 96.1264 121.978 98.4163C124.932 100.705 118.557 101.967 118.557 101.967" stroke="black" stroke-width="0.5" stroke-linecap="round" stroke-linejoin="round"/>
<path d="M121.321 106.19C120.814 106.473 120.171 106.472 119.65 106.142L116.056 103.201C116.056 103.201 115.164 103.975 116.388 105.182C116.986 105.771 116.457 106.972 114.489 105.177C113.654 104.417 112.797 103.988 112.267 103.389C109.475 100.248 114.124 95.9867 117.082 98.9718L120.81 102.736V102.738C120.785 102.818 119.995 105.492 121.321 106.19Z" fill="white" stroke="black" stroke-width="0.5" stroke-linecap="round" stroke-linejoin="round"/>
<path d="M121.847 105.727C121.703 105.924 121.524 106.078 121.321 106.189C119.995 105.491 120.785 102.817 120.811 102.736V102.734L121.689 103.62C121.971 103.904 122.128 104.269 122.156 104.645C122.184 105.019 122.083 105.403 121.846 105.727H121.847Z" fill="black" stroke="black" stroke-width="0.5" stroke-linecap="round" stroke-linejoin="round"/>
<path d="M111.064 102.666C111.064 102.666 104.657 100.714 101.083 106.389L109.816 106.136L111.064 102.667V102.666Z" fill="white" stroke="black" stroke-width="0.5" stroke-linecap="round" stroke-linejoin="round"/>
<path d="M113.934 100.698C113.934 100.698 115.076 107.232 113.249 107.286C111.422 107.339 110.95 106.222 110.95 106.222C110.95 106.222 109.266 108.679 108.156 106.959C107.045 105.24 112.138 99.291 112.138 99.291" fill="white"/>
<path d="M113.934 100.698C113.934 100.698 115.076 107.232 113.249 107.286C111.422 107.339 110.95 106.222 110.95 106.222C110.95 106.222 109.266 108.679 108.156 106.959C107.045 105.24 112.138 99.291 112.138 99.291" stroke="black" stroke-width="0.5" stroke-linecap="round" stroke-linejoin="round"/>
<path d="M116.293 101.832C116.589 101.832 116.828 101.593 116.828 101.298C116.828 101.003 116.589 100.764 116.293 100.764C115.997 100.764 115.757 101.003 115.757 101.298C115.757 101.593 115.997 101.832 116.293 101.832Z" fill="black"/>
<path d="M138.005 138.83C138.005 139.638 144.282 138.83 144.282 138.83C144.282 138.83 143.157 135.534 142.304 132.604H138.624C139.321 134.357 139.993 135.718 139.993 136.194C139.993 136.988 138.005 138.019 138.005 138.829V138.83Z" fill="#A9A9A9" stroke="black" stroke-width="0.5" stroke-linecap="round" stroke-linejoin="round"/>
<path d="M136.449 116.396C136.449 116.396 136.626 125.219 137.394 128.75C137.69 130.112 138.162 131.443 138.623 132.603H142.303C141.879 131.147 141.523 129.78 141.405 128.955C141.055 126.468 141.078 116.745 141.078 116.745L136.449 116.398V116.396Z" fill="white" stroke="black" stroke-width="0.5" stroke-linecap="round" stroke-linejoin="round"/>
<path d="M133.457 139.262C133.457 139.262 133.7 135.67 134.056 132.603L130.64 131.641C130.618 133.386 130.694 134.765 130.519 135.182C130.212 135.915 127.98 136.102 127.666 136.848C127.354 137.594 133.458 139.262 133.458 139.262H133.457Z" fill="#A9A9A9" stroke="black" stroke-width="0.5" stroke-linecap="round" stroke-linejoin="round"/>
<path d="M130.639 131.64L134.055 132.602C134.224 131.155 134.416 129.824 134.621 129.046C135.258 126.615 139.036 117.654 139.036 117.654L134.9 115.553C134.9 115.553 131.653 123.759 130.998 127.313C130.724 128.794 130.653 130.322 130.639 131.64Z" fill="white" stroke="black" stroke-width="0.5" stroke-linecap="round" stroke-linejoin="round"/>
<path d="M134.445 93.873C134.445 93.873 134.231 96.7891 133.56 97.3069C132.889 97.8247 134.002 98.5612 134.002 98.5612C134.002 98.5612 133.686 101.164 135.039 100.976C136.394 100.788 137.117 100.066 137.494 101.259L140.48 100.945L141.407 98.5148L141.156 94.3754L134.446 93.8741L134.445 93.873Z" fill="white" stroke="black" stroke-width="0.5" stroke-linecap="round" stroke-linejoin="round"/>
<path d="M140.746 100.74C143.709 103.164 142.835 109.38 142.288 114.789C142.264 115.019 142.272 115.245 142.303 115.469C142.571 117.423 140.852 119.078 138.892 118.822L132.632 118.007C132.896 115.723 133.446 113.479 134.268 111.331C135.519 108.058 137.441 104.985 137.376 100.967L140.746 100.74Z" fill="white" stroke="black" stroke-width="0.5" stroke-linecap="round" stroke-linejoin="round"/>
<path d="M135.43 96.7681C135.646 96.7681 135.821 96.5935 135.821 96.3782C135.821 96.1628 135.646 95.9883 135.43 95.9883C135.215 95.9883 135.04 96.1628 135.04 96.3782C135.04 96.5935 135.215 96.7681 135.43 96.7681Z" fill="black"/>
<path d="M139.23 108.26C135.091 109.906 131.268 109.298 127.181 108.098L129.648 104.26C135.476 105.434 139.963 104.283 139.963 104.283" fill="white"/>
<path d="M139.23 108.26C135.091 109.906 131.268 109.298 127.181 108.098L129.648 104.26C135.476 105.434 139.963 104.283 139.963 104.283" stroke="black" stroke-width="0.5" stroke-linecap="round" stroke-linejoin="round"/>
<path d="M124.659 107.277C125.697 107.706 127.181 108.098 127.181 108.098L129.648 104.26C129.648 104.26 128.012 102.512 127.535 103.443C127.059 104.375 127.428 105.072 127.428 105.072L125.309 104.807C124.669 104.726 124.068 105.13 123.902 105.751C123.733 106.377 124.058 107.029 124.659 107.277Z" fill="white" stroke="black" stroke-width="0.5" stroke-linecap="round" stroke-linejoin="round"/>
<path d="M133.984 99.558C133.984 99.558 135.265 99.7653 135.834 98.707L133.984 99.558Z" fill="white"/>
<path d="M133.984 99.558C133.984 99.558 135.265 99.7653 135.834 98.707" stroke="black" stroke-width="0.5" stroke-linecap="round" stroke-linejoin="round"/>
<path d="M134.445 93.8737C134.445 93.8737 133.312 91.918 136.397 91.918C139.48 91.918 142.848 92.4389 143.228 95.0888C143.607 97.7387 142.322 102.019 143.913 104.068C145.505 106.115 141.52 107.867 140.002 105.879C138.484 103.892 138.816 101.018 139.48 99.1415C139.585 98.8454 138.909 98.1337 139.182 98.1337C140.985 98.1337 140.117 96.0707 139.263 96.3792C138.247 96.7453 138.343 94.899 136.682 94.899C135.022 94.899 134.446 93.8726 134.446 93.8726L134.445 93.8737Z" fill="black" stroke="black" stroke-width="0.5" stroke-linecap="round" stroke-linejoin="round"/>
<path d="M130.638 131.641H130.639" stroke="black" stroke-width="0.5" stroke-linecap="round" stroke-linejoin="round"/>
</g>
<defs>
<clipPath id="clip0_511_10367">
<rect width="252" height="152" fill="white"/>
</clipPath>
</defs>
</svg>
