<svg width="252" height="152" viewBox="0 0 252 152" fill="none" xmlns="http://www.w3.org/2000/svg">
<g clip-path="url(#clip0_511_10586)">
<rect width="252" height="152" fill="white"/>
<path d="M0 0H252.102V76H0V0Z" fill="#40D2E1"/>
<path d="M42.9771 25.0995C41.9883 25.0995 41.0826 25.4529 40.3798 26.0404C40.0184 22.8487 37.3003 20.3672 34.0002 20.3672C31.0769 20.3672 28.6115 22.3142 27.8345 24.9769C26.9033 23.7908 25.4544 23.0276 23.8271 23.0276C21.018 23.0276 18.74 25.2961 18.74 28.0957C18.74 30.8953 21.0169 33.1637 23.8271 33.1637H42.9782C45.213 33.1637 47.0255 31.3591 47.0255 29.1316C47.0255 26.904 45.2142 25.0995 42.9782 25.0995H42.9771Z" fill="white" stroke="black" stroke-width="0.5" stroke-linecap="round" stroke-linejoin="round"/>
<path d="M232.741 66.1319C232.741 63.0639 231.246 59.3245 229.778 56.3956C228.456 53.7561 225.508 53.7561 224.187 56.3956C222.72 59.3245 221.224 63.0628 221.224 66.1319C221.224 71.73 223.453 73.1259 226.323 73.2938V78.5893H227.642V73.2938C230.512 73.1259 232.741 71.73 232.741 66.1319Z" fill="white" stroke="black" stroke-width="0.5" stroke-linecap="round" stroke-linejoin="round"/>
<path d="M241.792 76.1522L11.1221 76.1523" stroke="black" stroke-width="0.5" stroke-linecap="round" stroke-linejoin="round"/>
<path d="M103.257 33.6504H71.2227V82.0607H103.257V33.6504Z" fill="white" stroke="black" stroke-width="0.5" stroke-linecap="round" stroke-linejoin="round"/>
<path d="M84.1265 39.4883H76.989V46.7263H84.1265V39.4883Z" fill="white" stroke="black" stroke-width="0.5" stroke-linecap="round" stroke-linejoin="round"/>
<path d="M97.4902 39.4883H90.3528V46.7263H97.4902V39.4883Z" fill="white" stroke="black" stroke-width="0.5" stroke-linecap="round" stroke-linejoin="round"/>
<path d="M84.1265 51.5879H76.989V58.8259H84.1265V51.5879Z" fill="white" stroke="black" stroke-width="0.5" stroke-linecap="round" stroke-linejoin="round"/>
<path d="M97.4902 51.5879H90.3528V58.8259H97.4902V51.5879Z" fill="white" stroke="black" stroke-width="0.5" stroke-linecap="round" stroke-linejoin="round"/>
<path d="M135.294 28.1191H103.26V82.0616H135.294V28.1191Z" fill="white" stroke="black" stroke-width="0.5" stroke-linecap="round" stroke-linejoin="round"/>
<path d="M116.166 34.623H109.028V42.688H116.166V34.623Z" fill="white" stroke="black" stroke-width="0.5" stroke-linecap="round" stroke-linejoin="round"/>
<path d="M129.53 34.623H122.392V42.688H129.53V34.623Z" fill="white" stroke="black" stroke-width="0.5" stroke-linecap="round" stroke-linejoin="round"/>
<path d="M116.166 48.1074H109.028V56.1724H116.166V48.1074Z" fill="white" stroke="black" stroke-width="0.5" stroke-linecap="round" stroke-linejoin="round"/>
<path d="M129.53 48.1074H122.392V56.1724H129.53V48.1074Z" fill="white" stroke="black" stroke-width="0.5" stroke-linecap="round" stroke-linejoin="round"/>
<path d="M71.2237 82.059H55.4583V54.1425L71.2237 42.6602V82.059Z" fill="white" stroke="black" stroke-width="0.5" stroke-linecap="round" stroke-linejoin="round"/>
<path d="M214.52 57.3418H143.978V84.5153H214.52V57.3418Z" fill="white" stroke="black" stroke-width="0.5" stroke-linecap="round" stroke-linejoin="round"/>
<path d="M214.52 47.1191H143.978V57.3419H214.52V47.1191Z" fill="white" stroke="black" stroke-width="0.5" stroke-linecap="round" stroke-linejoin="round"/>
<path d="M184.664 63.9453H165.16V84.5153H184.664V63.9453Z" fill="white" stroke="black" stroke-width="0.5" stroke-linecap="round" stroke-linejoin="round"/>
<path d="M158.368 63.9453H146.405V84.5153H158.368V63.9453Z" fill="white" stroke="black" stroke-width="0.5" stroke-linecap="round" stroke-linejoin="round"/>
<path d="M208.126 63.9453H188.622V84.5153H208.126V63.9453Z" fill="white" stroke="black" stroke-width="0.5" stroke-linecap="round" stroke-linejoin="round"/>
<path d="M158.368 63.9453V66.4934H148.962V84.5153H146.405V63.9453H158.368Z" fill="#8280B8" stroke="black" stroke-width="0.5" stroke-linecap="round" stroke-linejoin="round"/>
<path d="M173.527 55.4179C172.975 55.4179 172.48 55.2957 172.039 55.0501C171.598 54.8044 171.246 54.468 170.986 54.0407C170.725 53.6134 170.594 53.1311 170.594 52.5961C170.594 52.0612 170.725 51.5677 170.986 51.1404C171.247 50.7131 171.6 50.3744 172.044 50.1254C172.489 49.8764 172.991 49.752 173.55 49.752C173.968 49.752 174.352 49.826 174.701 49.9751C175.05 50.1243 175.361 50.343 175.633 50.6335L174.575 51.7045C174.45 51.5554 174.302 51.4477 174.128 51.3815C173.956 51.3142 173.762 51.2806 173.55 51.2806C173.3 51.2806 173.081 51.3344 172.893 51.4421C172.705 51.5498 172.557 51.7023 172.446 51.8997C172.336 52.0971 172.281 52.3259 172.281 52.5861C172.281 52.8462 172.336 53.0661 172.446 53.2668C172.557 53.4676 172.708 53.6223 172.899 53.73C173.09 53.8377 173.306 53.8915 173.55 53.8915C173.777 53.8915 173.977 53.8545 174.151 53.7805C174.323 53.7065 174.473 53.5909 174.598 53.4351L175.656 54.5173C175.377 54.8145 175.063 55.04 174.714 55.1925C174.365 55.345 173.969 55.4213 173.528 55.4213" fill="#10A96C"/>
<path d="M179.57 49.8739V50.3348C179.428 50.198 179.263 50.0814 179.074 49.9849C178.78 49.8357 178.452 49.7617 178.092 49.7617C177.6 49.7617 177.159 49.8862 176.769 50.1352C176.38 50.3842 176.075 50.7206 175.854 51.1446C175.633 51.5685 175.523 52.0519 175.523 52.5947C175.523 53.1375 175.633 53.6097 175.854 54.0336C176.075 54.4576 176.377 54.7918 176.764 55.0374C177.15 55.283 177.589 55.4053 178.081 55.4053C178.448 55.4053 178.779 55.3346 179.072 55.1933C179.263 55.1024 179.428 54.9869 179.569 54.8467V55.2931H181.19V49.8716H179.569L179.57 49.8739ZM179.311 53.5267C179.087 53.7689 178.788 53.8889 178.413 53.8889C178.177 53.8889 177.968 53.8329 177.785 53.7218C177.601 53.6108 177.456 53.4583 177.349 53.2643C177.242 53.0713 177.189 52.8482 177.189 52.5947C177.189 52.3412 177.242 52.1057 177.349 51.9083C177.456 51.7109 177.601 51.5573 177.785 51.4451C177.968 51.3341 178.182 51.278 178.424 51.278C178.666 51.278 178.88 51.3341 179.063 51.4451C179.247 51.5562 179.39 51.7087 179.493 51.9027C179.596 52.0956 179.648 52.3233 179.648 52.5835C179.648 52.9704 179.535 53.2844 179.311 53.5256V53.5267Z" fill="#00A6BF"/>
<path d="M185.182 49.7744C185.077 49.7542 184.965 49.7441 184.843 49.7441C184.56 49.7441 184.293 49.8126 184.044 49.9494C183.794 50.0862 183.577 50.2701 183.391 50.5023C183.343 50.5629 183.299 50.6257 183.257 50.6896L183.224 49.8709H181.695V55.2957H183.316V52.5704C183.316 52.4066 183.34 52.2597 183.391 52.1296C183.442 51.9995 183.51 51.8874 183.598 51.7921C183.686 51.6967 183.794 51.6227 183.922 51.5722C184.051 51.5206 184.189 51.496 184.338 51.496C184.473 51.496 184.602 51.5117 184.727 51.542C184.852 51.5722 184.951 51.6115 185.026 51.6597L185.471 49.8462C185.384 49.8193 185.288 49.7946 185.183 49.7744H185.182Z" fill="#8280B8"/>
<path d="M168.646 49.8672V52.9458C168.646 53.4628 168.231 53.8823 167.72 53.8823C167.209 53.8823 166.795 53.4628 166.795 52.9458V49.8672H165.164V52.8224C165.164 54.249 166.311 55.4098 167.721 55.4098C169.132 55.4098 170.279 54.249 170.279 52.8224V49.8672H168.647H168.646Z" fill="#EF664E"/>
<path d="M169.41 63.9453H165.159V84.5153H169.41V63.9453Z" fill="#10A96C" stroke="black" stroke-width="0.5" stroke-linecap="round" stroke-linejoin="round"/>
<path d="M169.409 63.9453H184.663V69.4273H174.911V84.5153H169.409V63.9453Z" fill="#EF664E" stroke="black" stroke-width="0.5" stroke-linecap="round" stroke-linejoin="round"/>
<path d="M208.127 63.9453H188.623V69.4262H208.127V63.9453Z" fill="#EF664E" stroke="black" stroke-width="0.5" stroke-linecap="round" stroke-linejoin="round"/>
<path d="M148.962 69.4258H158.368" stroke="black" stroke-width="0.5" stroke-linecap="round" stroke-linejoin="round"/>
<path d="M148.962 72.127H158.368" stroke="black" stroke-width="0.5" stroke-linecap="round" stroke-linejoin="round"/>
<path d="M148.962 74.8262H158.368" stroke="black" stroke-width="0.5" stroke-linecap="round" stroke-linejoin="round"/>
<path d="M148.962 77.5254H158.368" stroke="black" stroke-width="0.5" stroke-linecap="round" stroke-linejoin="round"/>
<path d="M148.962 80.2246H158.368" stroke="black" stroke-width="0.5" stroke-linecap="round" stroke-linejoin="round"/>
<path d="M169.425 81.9961H172.684V85.4717C172.684 86.3678 171.954 87.0957 171.054 87.0957C170.155 87.0957 169.424 86.3678 169.424 85.4717V81.9961H169.425Z" fill="white" stroke="black" stroke-width="0.5" stroke-linecap="round" stroke-linejoin="round"/>
<path d="M180.996 81.9961H184.255V85.4717C184.255 86.3678 183.524 87.0957 182.624 87.0957C181.725 87.0957 180.994 86.3678 180.994 85.4717V81.9961H180.996Z" fill="white" stroke="black" stroke-width="0.5" stroke-linecap="round" stroke-linejoin="round"/>
<path d="M184.74 85.0874H168.944C168.944 82.9912 169.064 80.9041 169.305 78.8506C169.545 76.797 169.903 74.7772 170.377 72.8167C170.436 72.57 170.587 72.4062 170.756 72.4062H182.93C183.098 72.4062 183.249 72.5689 183.308 72.8156C184.255 76.7376 184.74 80.8951 184.74 85.0874Z" fill="white" stroke="black" stroke-width="0.5" stroke-linecap="round" stroke-linejoin="round"/>
<path d="M183.246 78.7476C178.652 78.9326 175.033 78.9326 170.438 78.7476C170.546 77.8582 170.676 76.9744 170.829 76.1007C170.982 75.2271 171.157 74.3635 171.354 73.5156H182.329C182.527 74.3714 182.703 75.236 182.856 76.1075C183.009 76.98 183.139 77.8604 183.246 78.7464V78.7476Z" fill="white" stroke="black" stroke-width="0.5" stroke-linecap="round" stroke-linejoin="round"/>
<path d="M169 82.6191H184.683" stroke="black" stroke-width="0.5" stroke-linecap="round" stroke-linejoin="round"/>
<path d="M169.304 78.8837H167.593C167.25 78.8837 166.972 78.6067 166.972 78.2646V77.5143C166.972 77.1521 167.267 76.8594 167.629 76.8594H168.487C168.78 76.8594 169.029 77.0725 169.073 77.3607L169.304 78.8837Z" fill="white" stroke="black" stroke-width="0.5" stroke-linecap="round" stroke-linejoin="round"/>
<path d="M184.378 78.8837H186.089C186.432 78.8837 186.71 78.6067 186.71 78.2646V77.5143C186.71 77.1521 186.415 76.8594 186.053 76.8594H185.195C184.902 76.8594 184.653 77.0725 184.61 77.3607L184.378 78.8837Z" fill="white" stroke="black" stroke-width="0.5" stroke-linecap="round" stroke-linejoin="round"/>
<path d="M173.374 81.0653C173.525 80.5345 172.918 79.8972 172.018 79.6418C171.117 79.3864 170.264 79.6097 170.113 80.1405C169.961 80.6713 170.568 81.3086 171.468 81.564C172.369 81.8194 173.222 81.5961 173.374 81.0653Z" fill="white" stroke="black" stroke-width="0.5" stroke-linecap="round" stroke-linejoin="round"/>
<path d="M182.201 81.5906C183.101 81.3352 183.708 80.6979 183.557 80.1671C183.405 79.6363 182.552 79.413 181.652 79.6684C180.751 79.9238 180.144 80.5612 180.296 81.092C180.447 81.6228 181.3 81.846 182.201 81.5906Z" fill="white" stroke="black" stroke-width="0.5" stroke-linecap="round" stroke-linejoin="round"/>
<path d="M193.091 81.9961H196.35V85.4717C196.35 86.3678 195.619 87.0957 194.72 87.0957C193.82 87.0957 193.09 86.3678 193.09 85.4717V81.9961H193.091Z" fill="white" stroke="black" stroke-width="0.5" stroke-linecap="round" stroke-linejoin="round"/>
<path d="M204.663 81.9961H207.922V85.4717C207.922 86.3678 207.192 87.0957 206.292 87.0957C205.393 87.0957 204.662 86.3678 204.662 85.4717V81.9961H204.663Z" fill="white" stroke="black" stroke-width="0.5" stroke-linecap="round" stroke-linejoin="round"/>
<path d="M208.406 85.0874H192.61C192.61 82.9912 192.73 80.9041 192.971 78.8506C193.211 76.797 193.569 74.7772 194.043 72.8167C194.103 72.57 194.253 72.4062 194.422 72.4062H206.596C206.764 72.4062 206.915 72.5689 206.974 72.8156C207.921 76.7376 208.406 80.8951 208.406 85.0874Z" fill="white" stroke="black" stroke-width="0.5" stroke-linecap="round" stroke-linejoin="round"/>
<path d="M206.913 78.7476C202.318 78.9326 198.699 78.9326 194.104 78.7476C194.212 77.8582 194.342 76.9744 194.496 76.1007C194.649 75.2271 194.823 74.3635 195.02 73.5156H205.995C206.193 74.3714 206.369 75.236 206.522 76.1075C206.675 76.98 206.806 77.8604 206.913 78.7464V78.7476Z" fill="white" stroke="black" stroke-width="0.5" stroke-linecap="round" stroke-linejoin="round"/>
<path d="M192.666 82.6191H208.35" stroke="black" stroke-width="0.5" stroke-linecap="round" stroke-linejoin="round"/>
<path d="M192.971 78.8837H191.26C190.916 78.8837 190.638 78.6067 190.638 78.2646V77.5143C190.638 77.1521 190.933 76.8594 191.296 76.8594H192.153C192.446 76.8594 192.695 77.0725 192.739 77.3607L192.971 78.8837Z" fill="white" stroke="black" stroke-width="0.5" stroke-linecap="round" stroke-linejoin="round"/>
<path d="M208.046 78.8837H209.757C210.1 78.8837 210.378 78.6067 210.378 78.2646V77.5143C210.378 77.1521 210.084 76.8594 209.721 76.8594H208.863C208.57 76.8594 208.322 77.0725 208.278 77.3607L208.046 78.8837Z" fill="white" stroke="black" stroke-width="0.5" stroke-linecap="round" stroke-linejoin="round"/>
<path d="M197.04 81.0653C197.192 80.5345 196.585 79.8972 195.684 79.6418C194.784 79.3864 193.931 79.6097 193.779 80.1405C193.628 80.6713 194.235 81.3086 195.135 81.564C196.036 81.8194 196.889 81.5961 197.04 81.0653Z" fill="white" stroke="black" stroke-width="0.5" stroke-linecap="round" stroke-linejoin="round"/>
<path d="M205.87 81.5926C206.77 81.3372 207.377 80.6998 207.226 80.169C207.074 79.6382 206.221 79.415 205.32 79.6704C204.42 79.9258 203.813 80.5631 203.964 81.0939C204.116 81.6247 204.969 81.848 205.87 81.5926Z" fill="white" stroke="black" stroke-width="0.5" stroke-linecap="round" stroke-linejoin="round"/>
<path d="M51.0425 47.1191H43.8792V66.3387H51.0425V47.1191Z" fill="white" stroke="black" stroke-width="0.5" stroke-linecap="round" stroke-linejoin="round"/>
<path d="M47.5356 75.9995L47.5356 66.2715" stroke="black" stroke-width="0.5" stroke-linecap="round" stroke-linejoin="round"/>
<path d="M47.4633 58.7895C48.6057 58.7895 49.5318 57.8669 49.5318 56.7287C49.5318 55.5906 48.6057 54.668 47.4633 54.668C46.3209 54.668 45.3948 55.5906 45.3948 56.7287C45.3948 57.8669 46.3209 58.7895 47.4633 58.7895Z" fill="#8280B8" stroke="black" stroke-width="0.5" stroke-linecap="round" stroke-linejoin="round"/>
<path d="M47.4633 63.8677C48.6057 63.8677 49.5318 62.945 49.5318 61.8069C49.5318 60.6687 48.6057 59.7461 47.4633 59.7461C46.3209 59.7461 45.3948 60.6687 45.3948 61.8069C45.3948 62.945 46.3209 63.8677 47.4633 63.8677Z" fill="#10A96C" stroke="black" stroke-width="0.5" stroke-linecap="round" stroke-linejoin="round"/>
<path d="M47.4633 53.7114C48.6057 53.7114 49.5318 52.7888 49.5318 51.6506C49.5318 50.5125 48.6057 49.5898 47.4633 49.5898C46.3209 49.5898 45.3948 50.5125 45.3948 51.6506C45.3948 52.7888 46.3209 53.7114 47.4633 53.7114Z" fill="#EF664E" stroke="black" stroke-width="0.5" stroke-linecap="round" stroke-linejoin="round"/>
<path d="M26.5464 97.5019V74.3242" stroke="black" stroke-width="0.5" stroke-linecap="round" stroke-linejoin="round"/>
<path d="M23.3138 76.9646L18.74 72.4079V65.9649L23.3138 61.4082H29.781L34.3549 65.9649V72.4079L29.781 76.9646H23.3138Z" fill="white" stroke="black" stroke-width="0.5" stroke-linecap="round" stroke-linejoin="round"/>
<path d="M29.1218 62.9941H23.9737L20.3333 66.6209V71.7497L23.9737 75.3765H29.1218L32.7622 71.7497V66.6209L29.1218 62.9941Z" fill="#EF664E" stroke="black" stroke-width="0.5" stroke-linecap="round" stroke-linejoin="round"/>
<path d="M23.9854 69.6755C23.9854 70.147 23.6861 70.4662 23.0066 70.4662C22.5909 70.4662 22.2273 70.2928 22.0388 70.0156L22.398 69.6965C22.572 69.8986 22.796 69.9803 23.0343 69.9803C23.3292 69.9803 23.4688 69.8986 23.4688 69.7108C23.4688 69.5518 23.3835 69.48 22.9135 69.374C22.4545 69.268 22.1342 69.1222 22.1342 68.6329C22.1342 68.1823 22.5321 67.9062 23.0232 67.9062C23.4112 67.9062 23.6961 68.052 23.93 68.2961L23.5708 68.644C23.4112 68.4805 23.2327 68.3889 23.0055 68.3889C22.7383 68.3889 22.6496 68.5026 22.6496 68.612C22.6496 68.7677 22.756 68.8174 23.1518 68.9101C23.5464 69.0018 23.9843 69.1365 23.9843 69.6755H23.9854Z" fill="white"/>
<path d="M26.1885 68.4346H25.4735V70.4269H24.9758V68.4346H24.2607V67.9453H26.1885V68.4346Z" fill="white"/>
<path d="M28.6051 69.1838C28.6051 69.9844 28.1528 70.4671 27.5054 70.4671C26.858 70.4671 26.4102 69.9922 26.4102 69.1915C26.4102 68.3908 26.8624 67.9082 27.5132 67.9082C28.1639 67.9082 28.6051 68.3831 28.6051 69.1838ZM28.0929 69.1904C28.0929 68.6868 27.8513 68.3996 27.5021 68.3996C27.1529 68.3996 26.9223 68.6802 26.9223 69.1827C26.9223 69.6852 27.164 69.9734 27.5132 69.9734C27.8623 69.9734 28.0929 69.694 28.0929 69.1904Z" fill="white"/>
<path d="M31.0546 68.7327C31.0546 69.307 30.67 69.5478 30.1545 69.5478H29.6069V70.4269H29.1091V67.9453H30.1977C30.6677 67.9453 31.0546 68.2037 31.0546 68.7316V68.7327ZM30.5425 68.7438C30.5425 68.5273 30.4006 68.4279 30.18 68.4279H29.6069V69.0663H30.1866C30.4183 69.0663 30.5425 68.9602 30.5425 68.7438Z" fill="white"/>
<path d="M208.604 28.162C208.604 26.2105 207.57 24.3739 205.844 23.4507C205.09 23.0476 204.228 22.819 203.313 22.819C202.397 22.819 201.468 23.0663 200.696 23.4993C200.288 20.9481 198.073 19 195.398 19C192.437 19 190.035 21.391 190.035 24.343C190.035 24.5805 190.049 24.8124 190.081 25.041C189.251 24.5694 188.283 24.3132 187.251 24.3463C184.465 24.4369 182.182 26.6965 182.072 29.4707C182.069 29.5502 182.068 29.6308 182.068 29.7092C182.076 31.7391 183.778 33.3603 185.816 33.3603H203.387C206.268 33.3603 208.605 31.0334 208.605 28.162H208.604Z" fill="white" stroke="black" stroke-width="0.5" stroke-linecap="round" stroke-linejoin="round"/>
<path d="M235.393 120.232L2.74243 120.232" stroke="black" stroke-width="0.5" stroke-linecap="round" stroke-linejoin="round"/>
<path d="M252 97.5841L0 97.584" stroke="black" stroke-width="0.5" stroke-linecap="round" stroke-linejoin="round"/>
<path d="M55.4283 97.6053C55.4283 97.6053 55.0673 95.899 55.4283 95.899C55.7892 95.899 57.1553 96.9123 57.8246 95.899C58.4927 94.8857 58.2895 93.3652 59.278 93.1842C60.2664 93.0032 59.278 92.3364 59.278 91.2648C59.278 90.1932 58.8716 87.4129 56.1968 88.1083C53.522 88.8036 51.7866 89.4978 51.9431 91.6708C52.0985 93.8427 53.0893 97.6279 53.0893 97.6279L55.4295 97.6053H55.4283Z" fill="white" stroke="black" stroke-width="0.5" stroke-miterlimit="10"/>
<path d="M52.8067 119.539C52.2127 120.711 51.4358 122.253 50.7127 123.703L47.0459 122.191C47.4869 120.849 47.8789 119.478 48.1371 118.203L52.8067 119.539Z" fill="white" stroke="black" stroke-width="0.5" stroke-linejoin="round"/>
<path d="M52.8048 119.539L48.1353 118.203C48.2584 117.604 48.3516 117.024 48.4066 116.48C48.9384 111.255 50.8256 106.74 50.8256 106.74L52.5168 107.661C54.698 108.849 55.7354 111.405 54.9944 113.769L54.4637 115.461C54.0239 116.864 53.4705 118.227 52.8048 119.538V119.539Z" fill="black" stroke="black" stroke-width="0.5" stroke-miterlimit="10"/>
<path d="M49.2371 132.312L43.8792 130.103C43.8792 130.103 45.6982 126.283 47.0452 122.193L50.712 123.706C49.8347 125.474 49.0387 127.111 48.7567 127.791C48.3037 128.883 49.1033 130.544 49.7917 131.671C50.0176 132.039 49.6387 132.479 49.2371 132.313V132.312Z" fill="black" stroke="black" stroke-width="0.5" stroke-miterlimit="10"/>
<path d="M50.7172 123.704L50.7151 123.703" stroke="black" stroke-width="0.5" stroke-miterlimit="10"/>
<path d="M56.0695 108.57L49.9036 107.905L50.0147 105.127L55.9356 106.076L56.0695 108.57Z" fill="black" stroke="black" stroke-width="0.5" stroke-miterlimit="10"/>
<path d="M55.937 106.077L50.0161 105.128L50.1655 101.355C50.2647 98.8629 52.4782 96.9864 54.963 97.2876C55.2582 97.3234 55.4841 97.5651 55.4996 97.8604L55.937 106.077Z" fill="black" stroke="black" stroke-width="0.5" stroke-miterlimit="10"/>
<path d="M57.1737 101.462L53.9455 103.493C53.1615 102.27 52.5376 100.928 52.1038 99.4997L51.9962 99.1448C51.7835 98.4459 52.2579 97.7255 52.987 97.6422L53.0922 97.6303C54.818 97.4326 56.4255 98.5364 56.8546 100.214L57.1737 101.462Z" fill="black" stroke="black" stroke-width="0.5" stroke-miterlimit="10"/>
<path d="M61.0093 105.017L61.7145 98.5846C61.7969 97.8333 62.4435 97.2713 63.2025 97.2915L73.2384 97.5654C74.0392 97.5868 74.6714 98.2489 74.6547 99.0466L74.4957 106.442C74.4778 107.298 73.7236 107.952 72.8703 107.852L62.287 106.614C61.4922 106.521 60.9221 105.807 61.0093 105.014V105.017Z" fill="white" stroke="black" stroke-width="0.5" stroke-miterlimit="10"/>
<path d="M61.2773 102.578H62.4259C64.4027 102.578 66.0055 100.982 66.0055 99.0123V97.293" fill="white"/>
<path d="M61.2773 102.578H62.4259C64.4027 102.578 66.0055 100.982 66.0055 99.0123V97.293" stroke="black" stroke-width="0.5" stroke-miterlimit="10"/>
<path d="M70.3718 97.4883V100.223C70.3718 101.524 71.4296 102.579 72.7359 102.579H74.6554" fill="white"/>
<path d="M70.3718 97.4883V100.223C70.3718 101.524 71.4296 102.579 72.7359 102.579H74.6554" stroke="black" stroke-width="0.5" stroke-miterlimit="10"/>
<path d="M64.9174 109.674C64.7704 109.652 64.6246 109.63 64.4811 109.607C59.9203 108.868 55.9953 106.195 53.5823 102.42L56.8105 100.389C57.3531 101.637 58.0953 102.795 59.0251 103.811C60.3446 105.249 62.0489 106.434 63.9863 106.202C68.5459 105.655 64.6807 107.427 64.6807 107.427C64.6807 107.427 65.6596 107.947 66.3181 108.01C67.6986 108.14 67.3699 110.042 64.9186 109.674H64.9174Z" fill="white" stroke="black" stroke-width="0.5" stroke-linejoin="round"/>
<path d="M57.3331 91.7403C57.2889 91.9951 57.4598 92.2368 57.7144 92.2809C57.969 92.325 58.2128 92.1547 58.257 91.8999C58.3012 91.6451 58.1315 91.4045 57.8758 91.3605C57.62 91.3164 57.3774 91.4855 57.3331 91.7403Z" fill="#13100E"/>
<path d="M56.6472 118.98C56.548 120.288 56.4213 122.009 56.3101 123.625H52.3421C52.2346 122.216 52.0708 120.801 51.8198 119.524L56.6472 118.979V118.98Z" fill="white" stroke="black" stroke-width="0.5" stroke-linejoin="round"/>
<path d="M56.6475 118.979L51.8202 119.525C51.7031 118.925 51.568 118.353 51.4091 117.829C49.8948 112.8 49.9055 107.908 49.9055 107.908L56.0715 108.573L56.6141 114.58C56.7455 116.043 56.7575 117.514 56.6463 118.979H56.6475Z" fill="black" stroke="black" stroke-width="0.5" stroke-miterlimit="10"/>
<path d="M58.2493 132.14H52.4503C52.4503 132.14 52.6642 127.917 52.3391 123.625H56.3071C56.1756 125.593 55.2314 127.926 55.2314 128.662C55.2314 129.843 57.4449 130.556 58.5134 131.336C58.8636 131.59 58.6819 132.14 58.2481 132.14H58.2493Z" fill="black" stroke="black" stroke-width="0.5" stroke-miterlimit="10"/>
<path d="M56.3124 123.625H56.3113" stroke="black" stroke-width="0.5" stroke-miterlimit="10"/>
<path d="M57.0417 93.3418C57.0417 93.3418 57.2796 94.2646 58.4377 94.2062L57.0417 93.3418Z" fill="white"/>
<path d="M57.0417 93.3418C57.0417 93.3418 57.2796 94.2646 58.4377 94.2062" stroke="black" stroke-width="0.5" stroke-miterlimit="10" stroke-linecap="round"/>
<path d="M58.5145 90.2486C59.2375 90.2533 59.8256 89.6699 59.8232 88.9495C59.8196 87.8065 59.5375 86.3359 58.1069 86.3359C55.7691 86.3359 51.5669 86.7062 50.6621 91.5024C49.7574 96.2985 45.6089 96.4878 45.6089 98.6311C45.6089 101.666 50.3454 102.379 52.0999 99.4991C53.8544 96.6176 54.6672 90.3903 56.0691 90.2974C56.8006 90.2486 57.7627 90.2426 58.5145 90.2486Z" fill="white" stroke="black" stroke-width="0.5" stroke-miterlimit="10" stroke-linecap="round"/>
<path d="M67.1301 97.3985C67.1301 97.3985 69.6281 92.7262 71.6324 94.723C73.6367 96.7198 72.0746 97.533 72.0746 97.533" stroke="black" stroke-width="0.5" stroke-miterlimit="10"/>
<path d="M161.11 141.761C160.861 142.009 153.729 141.761 153.729 141.761C153.729 141.761 154.639 137.836 154.851 135.434H158.223C157.88 137.874 158.672 138.402 159.247 138.479C159.856 138.561 160.43 138.831 160.82 139.303C161.75 140.426 161.308 141.563 161.109 141.761H161.11Z" fill="black" stroke="black" stroke-width="0.5" stroke-linecap="round" stroke-linejoin="round"/>
<path d="M161.109 126.335C161.109 126.335 159.373 130.623 158.557 133.8C158.397 134.423 158.288 134.964 158.222 135.435H154.85C154.879 135.116 154.894 134.825 154.894 134.573C154.894 132.416 155.264 126.666 155.264 126.666L161.109 126.334V126.335Z" fill="white" stroke="black" stroke-width="0.5" stroke-linecap="round" stroke-linejoin="round"/>
<path d="M170.81 141.761C170.56 142.009 163.429 141.761 163.429 141.761C163.429 141.761 164.338 137.836 164.551 135.434H167.923C167.579 137.874 168.372 138.402 168.947 138.479C169.556 138.561 170.129 138.831 170.52 139.303C171.449 140.426 171.008 141.563 170.809 141.761H170.81Z" fill="black" stroke="black" stroke-width="0.5" stroke-linecap="round" stroke-linejoin="round"/>
<path d="M167.681 125.78C167.681 125.78 169.07 130.622 168.254 133.798C168.094 134.421 167.985 134.962 167.92 135.433H164.547C164.576 135.114 164.592 134.823 164.592 134.571C164.592 132.414 162.386 126.277 162.386 126.277L167.681 125.779V125.78Z" fill="white" stroke="black" stroke-width="0.5" stroke-linecap="round" stroke-linejoin="round"/>
<path d="M155.267 118.576V126.667L161.112 126.334L161.722 123.236L162.389 126.279L167.682 125.781L165.997 117.109L155.267 118.576Z" fill="white" stroke="black" stroke-width="0.5" stroke-linecap="round" stroke-linejoin="round"/>
<path d="M167.256 113.91C167.256 113.91 182.027 126.589 195.348 124.846" stroke="black" stroke-width="0.5" stroke-linecap="round" stroke-linejoin="round"/>
<path d="M183.237 129.153C183.237 129.153 179.748 120.153 184.742 119.389C189.736 118.624 185.016 127.481 185.016 127.481" fill="white"/>
<path d="M183.237 129.153C183.237 129.153 179.748 120.153 184.742 119.389C189.736 118.624 185.016 127.481 185.016 127.481" stroke="black" stroke-width="0.5" stroke-linecap="round" stroke-linejoin="round"/>
<path d="M200.897 127.695C200.897 128.393 200.909 130.76 200.543 131.703C199.781 133.671 198.604 135.786 198.604 136.445C198.604 137.141 199.664 137.376 200.275 137.681C200.523 137.804 200.698 137.939 200.698 138.12C200.698 138.748 198.923 138.261 197.381 138.261C195.839 138.261 194.93 133.584 194.93 133.584C191.427 133.584 186.943 131.77 186.943 131.77C186.943 131.77 184.773 134.21 184.773 135.815C184.773 137.42 186.819 137.216 186.819 137.914C186.819 138.611 183.597 137.914 182.265 137.914C181.225 137.914 180.883 135.113 181.188 132.557C181.389 130.879 182.097 129.293 183.254 128.058C183.821 127.454 184.441 126.989 185.011 126.989C185.745 126.989 187.456 127.246 189.116 127.528C191.543 127.941 193.989 126.892 195.347 124.845L195.563 124.518" fill="white"/>
<path d="M200.897 127.695C200.897 128.393 200.909 130.76 200.543 131.703C199.781 133.671 198.604 135.786 198.604 136.445C198.604 137.141 199.664 137.376 200.275 137.681C200.523 137.804 200.698 137.939 200.698 138.12C200.698 138.748 198.923 138.261 197.381 138.261C195.839 138.261 194.93 133.584 194.93 133.584C191.427 133.584 186.943 131.77 186.943 131.77C186.943 131.77 184.773 134.21 184.773 135.815C184.773 137.42 186.819 137.216 186.819 137.914C186.819 138.611 183.597 137.914 182.265 137.914C181.225 137.914 180.883 135.113 181.188 132.557C181.389 130.879 182.097 129.293 183.254 128.058C183.821 127.454 184.441 126.989 185.011 126.989C185.745 126.989 187.456 127.246 189.116 127.528C191.543 127.941 193.989 126.892 195.347 124.845L195.563 124.518" stroke="black" stroke-width="0.5" stroke-linecap="round" stroke-linejoin="round"/>
<path d="M198.603 121.854C198.603 121.854 193.142 117.82 192.571 119.427C192 121.035 197.025 123.643 197.025 123.643" fill="white"/>
<path d="M198.603 121.854C198.603 121.854 193.142 117.82 192.571 119.427C192 121.035 197.025 123.643 197.025 123.643" stroke="black" stroke-width="0.5" stroke-linecap="round" stroke-linejoin="round"/>
<path d="M206.591 124.59C206.358 125.094 205.86 125.456 205.27 125.494L200.82 125.243C200.82 125.243 200.561 126.389 202.2 126.589C203.8 126.785 205.732 127.247 200.725 127.654C199.645 127.742 198.741 127.686 197.99 127.522C194.048 126.664 195.235 120.751 199.218 121.394L204.238 122.206H204.239C204.265 122.284 205.168 124.797 206.59 124.591L206.591 124.59Z" fill="white" stroke="black" stroke-width="0.5" stroke-linecap="round" stroke-linejoin="round"/>
<path d="M200.112 124.247C200.392 124.247 200.619 124.021 200.619 123.742C200.619 123.463 200.392 123.236 200.112 123.236C199.832 123.236 199.605 123.463 199.605 123.742C199.605 124.021 199.832 124.247 200.112 124.247Z" fill="black"/>
<path d="M196.779 123.9C196.779 123.9 194.455 131.435 196.448 131.435C198.44 131.435 199.363 124.929 199.363 124.929" fill="white"/>
<path d="M196.779 123.9C196.779 123.9 194.455 131.435 196.448 131.435C198.44 131.435 199.363 124.929 199.363 124.929" stroke="black" stroke-width="0.5" stroke-linecap="round" stroke-linejoin="round"/>
<path d="M206.736 123.937C206.736 124.17 206.683 124.391 206.59 124.591C205.168 124.796 204.266 122.283 204.239 122.207H204.238L205.421 122.396C205.8 122.457 206.129 122.65 206.364 122.925C206.597 123.2 206.737 123.553 206.737 123.937H206.736Z" fill="black" stroke="black" stroke-width="0.5" stroke-linecap="round" stroke-linejoin="round"/>
<path d="M164.135 91.05C164.135 91.05 164.283 93.36 164.972 93.9187C165.662 94.4775 164.518 95.2728 164.518 95.2728C164.518 95.2728 164.915 98.9226 163.524 98.7193C162.132 98.516 161.389 97.7373 161.001 99.0237L157.932 98.6849L156.978 96.061L157.237 91.5909L164.136 91.0488L164.135 91.05Z" fill="white" stroke="black" stroke-width="0.5" stroke-linecap="round" stroke-linejoin="round"/>
<path d="M157.657 98.4648C154.61 101.083 154.029 107.795 154.592 113.635C154.765 115.421 154.761 117.019 154.751 118.648L165.998 117.111C165.726 114.644 165.161 112.221 164.316 109.9C163.029 106.366 161.053 103.048 161.121 98.7097L157.657 98.4648Z" fill="white" stroke="black" stroke-width="0.5" stroke-linecap="round" stroke-linejoin="round"/>
<path d="M163.332 94.2792C163.554 94.2792 163.734 94.0908 163.734 93.8584C163.734 93.6259 163.554 93.4375 163.332 93.4375C163.11 93.4375 162.93 93.6259 162.93 93.8584C162.93 94.0908 163.11 94.2792 163.332 94.2792Z" fill="black"/>
<path d="M157.373 105.582C158.635 110.063 161.573 112.741 165.171 115.23L166.797 110.6C162.113 106.684 160.215 102.262 160.215 102.262" fill="white"/>
<path d="M157.373 105.582C158.635 110.063 161.573 112.741 165.171 115.23L166.797 110.6C162.113 106.684 160.215 102.262 160.215 102.262" stroke="black" stroke-width="0.5" stroke-linecap="round" stroke-linejoin="round"/>
<path d="M167.013 116.427C166.143 115.947 165.173 115.23 165.173 115.23L166.798 110.602C166.798 110.602 169.293 110.728 168.821 111.752C168.349 112.777 167.534 112.956 167.534 112.956L168.73 114.185C169.215 114.683 169.27 115.457 168.859 116.018C168.434 116.598 167.642 116.776 167.012 116.428L167.013 116.427Z" fill="white" stroke="black" stroke-width="0.5" stroke-linecap="round" stroke-linejoin="round"/>
<path d="M165.17 115.229C165.17 115.229 164.273 122.294 168.578 121.912C171.749 121.631 169.732 118.186 168.449 116.391" stroke="black" stroke-width="0.5" stroke-linecap="round" stroke-linejoin="round"/>
<path d="M154.851 135.434H154.85" stroke="black" stroke-width="0.5" stroke-linecap="round" stroke-linejoin="round"/>
<path d="M164.132 91.0488C164.132 91.0488 164.415 88.507 160.903 89.1883C157.391 89.8695 156.736 91.8251 156.736 91.8251L164.132 91.0488Z" fill="white" stroke="black" stroke-width="0.5" stroke-linecap="round" stroke-linejoin="round"/>
<path d="M156.828 92.4975C156.828 92.4975 156.503 96.0855 155.656 96.2698C154.81 96.454 154.806 97.6679 156.134 97.5347C156.986 97.4491 158.214 97.19 159.013 95.7669C159.178 95.4744 158.115 95.1951 158.752 94.0062C159.214 93.1467 159.931 93.6745 159.969 93.4783C160.057 93.0218 159.814 92.8007 159.779 92.2598L156.828 92.4975Z" fill="white" stroke="black" stroke-width="0.5" stroke-linecap="round" stroke-linejoin="round"/>
<path d="M164.566 90.8616L156.475 91.3574L156.589 93.2085L164.68 92.7127L164.566 90.8616Z" fill="black" stroke="black" stroke-width="0.5" stroke-linecap="round" stroke-linejoin="round"/>
<path d="M162.562 95.8887C162.562 95.8887 163.473 96.4486 164.56 95.8887H162.562Z" fill="white"/>
<path d="M162.562 95.8887C162.562 95.8887 163.473 96.4486 164.56 95.8887" stroke="black" stroke-width="0.5" stroke-linecap="round" stroke-linejoin="round"/>
<path d="M86.7007 90.0343V105.003H102.996V89.0156H92.3515C92.2268 89.0156 92.1034 89.018 91.9787 89.0216C91.9367 89.0216 91.8948 89.0216 91.854 89.024C90.0655 89.0765 88.3274 89.4264 86.7007 90.0343Z" fill="white" stroke="black" stroke-width="0.5" stroke-linecap="round" stroke-linejoin="round"/>
<path d="M131.574 105.004C131.574 109.289 135.059 112.759 139.359 112.759H142.988C142.904 112.544 142.812 112.331 142.715 112.12C142.105 110.794 141.262 109.597 140.241 108.579C138.193 106.541 135.422 105.219 132.346 105.028C132.172 105.017 131.997 105.01 131.82 105.009C131.738 105.004 131.657 105.004 131.574 105.004Z" fill="white" stroke="black" stroke-width="0.5" stroke-linecap="round" stroke-linejoin="round"/>
<path d="M68.8928 117.692H143.828V117.213C143.828 116.377 143.745 115.561 143.582 114.774C143.442 114.078 143.242 113.404 142.986 112.759H139.357C135.058 112.759 131.573 109.288 131.572 105.004L127.094 97.4326C126.998 97.269 126.898 97.1078 126.797 96.9489C126.292 96.1536 125.725 95.4096 125.105 94.7193C124.981 94.5808 124.856 94.4446 124.727 94.3121C124.664 94.2452 124.599 94.1795 124.534 94.1138C124.468 94.0481 124.404 93.9825 124.338 93.918C121.171 90.8165 116.868 89.0156 112.311 89.0156H102.994V105.003H86.6987V90.0343C82.7417 91.5032 79.4416 94.4948 77.6339 98.468L74.6623 105.003L68.8904 117.692H68.8928Z" fill="#A9A9A9" stroke="black" stroke-width="0.5" stroke-linecap="round" stroke-linejoin="round"/>
<path d="M68.8928 117.693H143.212C144.849 117.693 146.18 119.018 146.18 120.65V121.816C146.18 123.307 144.964 124.518 143.467 124.518H68.8928V117.693Z" fill="white" stroke="black" stroke-width="0.5" stroke-miterlimit="10"/>
<path d="M128.595 130.764C132.486 130.764 135.64 127.621 135.64 123.745C135.64 119.869 132.486 116.727 128.595 116.727C124.705 116.727 121.551 119.869 121.551 123.745C121.551 127.621 124.705 130.764 128.595 130.764Z" fill="white" stroke="black" stroke-width="0.5" stroke-miterlimit="10"/>
<path d="M128.6 128.037C130.979 128.037 132.907 126.116 132.907 123.746C132.907 121.376 130.979 119.455 128.6 119.455C126.221 119.455 124.293 121.376 124.293 123.746C124.293 126.116 126.221 128.037 128.6 128.037Z" fill="white" stroke="black" stroke-width="0.5" stroke-miterlimit="10"/>
<path d="M83.3259 130.764C87.2168 130.764 90.3709 127.621 90.3709 123.745C90.3709 119.869 87.2168 116.727 83.3259 116.727C79.4351 116.727 76.281 119.869 76.281 123.745C76.281 127.621 79.4351 130.764 83.3259 130.764Z" fill="white" stroke="black" stroke-width="0.5" stroke-miterlimit="10"/>
<path d="M83.3229 128.037C85.7016 128.037 87.6299 126.116 87.6299 123.746C87.6299 121.376 85.7016 119.455 83.3229 119.455C80.9442 119.455 79.0159 121.376 79.0159 123.746C79.0159 126.116 80.9442 128.037 83.3229 128.037Z" fill="white" stroke="black" stroke-width="0.5" stroke-miterlimit="10"/>
<path d="M74.6631 105.004H86.6995V90.0352C82.7425 91.5041 79.4424 94.4956 77.6347 98.4689L74.6631 105.004Z" fill="white" stroke="black" stroke-width="0.5" stroke-linecap="round" stroke-linejoin="round"/>
<path d="M108.316 89.0176V105.005H131.573L127.095 97.4334C126.999 97.2698 126.899 97.1085 126.798 96.9497C126.293 96.1555 125.726 95.4103 125.106 94.7201C124.982 94.5815 124.855 94.4454 124.728 94.3128C124.665 94.2459 124.6 94.1803 124.535 94.1146C124.469 94.0489 124.405 93.9832 124.339 93.9187C121.172 90.8185 116.869 89.0176 112.312 89.0176H108.315H108.316Z" fill="white" stroke="black" stroke-width="0.5" stroke-miterlimit="10"/>
<path d="M65.6968 78.3853L79.9515 89.5646C81.3097 90.6298 81.5444 92.5936 80.4752 93.9468L79.3586 95.3599L60.1815 80.3202L61.2981 78.907C62.3673 77.5539 64.3386 77.3201 65.6968 78.3853Z" fill="white" stroke="black" stroke-width="0.5" stroke-miterlimit="10"/>
</g>
<defs>
<clipPath id="clip0_511_10586">
<rect width="252" height="152" fill="white"/>
</clipPath>
</defs>
</svg>
