<svg width="252" height="152" viewBox="0 0 252 152" fill="none" xmlns="http://www.w3.org/2000/svg">
<g clip-path="url(#clip0_511_10742)">
<rect width="252" height="152" fill="white"/>
<path d="M0 0H252.102V76H0V0Z" fill="#8782D7"/>
<path d="M229.299 97.5841L25.1392 97.584" stroke="#13100D" stroke-width="0.5" stroke-miterlimit="10"/>
<path d="M240.878 76.1505L14.7788 76.1504" stroke="#13100D" stroke-width="0.5" stroke-miterlimit="10"/>
<path d="M0 120.23H249.822" stroke="#13100D" stroke-width="0.5" stroke-miterlimit="10"/>
<path d="M115.03 25.2312V79.6882H25.1392V53.9591H31.1573V43.0911L36.1089 34.8831L41.5938 43.0911V46.7391H52.4112L56.6772 36.4031H73.2843L75.8743 41.7231H81.0545V27.4351L88.2153 16.8711H108.174L115.03 25.2312Z" fill="white" stroke="#13100D" stroke-width="0.5" stroke-linecap="round" stroke-linejoin="round"/>
<path d="M88.1143 26.0703V33.4948" stroke="#13100D" stroke-width="0.5" stroke-linecap="round" stroke-linejoin="round"/>
<path d="M71.0733 79.0261V76.5943C71.0733 74.1998 69.1269 72.2578 66.727 72.2578C64.3262 72.2578 62.3806 74.2006 62.3806 76.5943V79.0261" stroke="#13100D" stroke-width="0.5" stroke-linecap="round" stroke-linejoin="round"/>
<path d="M52.7224 66.0309C52.7224 68.4262 54.6688 70.3674 57.0688 70.3674C59.4695 70.3674 61.4151 68.4254 61.4151 66.0309V61.3119C61.4151 58.9166 59.4687 56.9746 57.0688 56.9746C54.668 56.9746 52.7224 58.9166 52.7224 61.3119V66.0309Z" stroke="#13100D" stroke-width="0.5" stroke-linecap="round" stroke-linejoin="round"/>
<path d="M57.0688 63.7422V79.7207" stroke="#13100D" stroke-width="0.5" stroke-linecap="round" stroke-linejoin="round"/>
<path d="M94.3435 26.0703V33.4948" stroke="#13100D" stroke-width="0.5" stroke-linecap="round" stroke-linejoin="round"/>
<path d="M88.1143 38.5781V46.6214" stroke="#13100D" stroke-width="0.5" stroke-linecap="round" stroke-linejoin="round"/>
<path d="M94.3435 38.5781V46.6214" stroke="#13100D" stroke-width="0.5" stroke-linecap="round" stroke-linejoin="round"/>
<path d="M100.619 26.0703V33.4948" stroke="#13100D" stroke-width="0.5" stroke-linecap="round" stroke-linejoin="round"/>
<path d="M106.849 26.0703V33.4948" stroke="#13100D" stroke-width="0.5" stroke-linecap="round" stroke-linejoin="round"/>
<path d="M100.619 38.5781V46.6214" stroke="#13100D" stroke-width="0.5" stroke-linecap="round" stroke-linejoin="round"/>
<path d="M106.849 38.5781V46.6214" stroke="#13100D" stroke-width="0.5" stroke-linecap="round" stroke-linejoin="round"/>
<path d="M88.1143 51.084V59.7461" stroke="#13100D" stroke-width="0.5" stroke-linecap="round" stroke-linejoin="round"/>
<path d="M88.1143 63.5918V72.8718" stroke="#13100D" stroke-width="0.5" stroke-linecap="round" stroke-linejoin="round"/>
<path d="M81.0544 41.6465V79.6465" stroke="black" stroke-width="0.5"/>
<path d="M52.9836 59.5349L49.6893 56.248H37.2096L31.3186 62.1256V79.271" stroke="#13100D" stroke-width="0.5" stroke-linecap="round" stroke-linejoin="round"/>
<path d="M191.554 23.5557C192.118 20.1936 195.049 17.6309 198.579 17.6309C202.513 17.6309 205.701 20.8133 205.701 24.7379C205.701 25.5163 205.576 26.2655 205.344 26.968" stroke="#13100D" stroke-width="0.5" stroke-linecap="round" stroke-linejoin="round"/>
<path d="M206.671 25.2114C208.448 25.2114 209.889 26.6492 209.889 28.423C209.889 30.1969 208.448 31.6346 206.671 31.6346L192.021 31.5599C189.805 31.5599 188.01 29.7686 188.01 27.5583C188.01 25.348 189.805 23.5566 192.021 23.5566C193.748 23.5566 195.221 24.6466 195.785 26.1754" stroke="#13100D" stroke-width="0.5" stroke-linecap="round" stroke-linejoin="round"/>
<path d="M173.596 41.0215L176.205 43.6239L180.031 39.8066" stroke="#13100D" stroke-width="0.5" stroke-linecap="round" stroke-linejoin="round"/>
<path d="M153.046 27.8145L149.388 31.4707L145.807 27.8903" stroke="#13100D" stroke-width="0.5" stroke-linecap="round" stroke-linejoin="round"/>
<path d="M133.159 77.0038C129.876 81.072 129.107 86.3958 131.44 88.8943C133.773 91.3929 138.326 90.122 141.609 86.0539C144.892 81.9857 145.662 76.663 143.328 74.1633C140.995 71.6636 136.443 72.9356 133.159 77.0038Z" fill="white" stroke="#1D1D1B" stroke-width="0.5" stroke-miterlimit="10"/>
<path d="M133.645 77.2365C130.812 80.7457 130.036 85.22 131.913 87.2295C133.789 89.2391 137.605 88.0219 140.437 84.5128C143.27 81.0036 144.044 76.5293 142.169 74.5198C140.293 72.5102 136.477 73.7274 133.645 77.2365Z" fill="white" stroke="#1D1D1B" stroke-width="0.5" stroke-miterlimit="10"/>
<path d="M133.895 77.5034C131.29 80.7301 130.457 84.7154 132.034 86.4041C133.611 88.0927 137 86.8452 139.604 83.6184C142.209 80.3917 143.042 76.4064 141.465 74.7177C139.888 73.0291 136.499 74.2766 133.894 77.5034H133.895Z" fill="#13100D"/>
<path d="M173.568 76.9482C173.568 76.9482 166.958 83.3025 161.2 80.0956C155.44 76.8887 146.855 82.2522 144.13 81.0047C141.404 79.7572 140.994 78.652 141.485 76.8677C141.976 75.0833 145.628 74.5325 149.511 73.1811C153.333 71.8508 157.142 68.7022 157.261 68.6042C157.264 68.603 157.265 68.6018 157.265 68.6018L157.261 68.6042C157.107 68.7092 151.729 72.3747 149.026 72.0153C145.943 71.6068 139.44 72.2779 139.44 72.2779C139.44 72.2779 132.718 80.3243 128.849 78.68C124.98 77.0369 132.996 66.6028 138.112 64.1661C143.228 61.7282 159.015 59.7408 162.035 59.8248C164.828 59.9007 172.323 62.146 174.179 63.2861L173.566 76.9459L173.568 76.9482Z" fill="white"/>
<path d="M157.261 68.6042C157.142 68.7022 153.333 71.8508 149.511 73.1811C145.628 74.5325 141.976 75.0833 141.485 76.8677C140.994 78.652 141.404 79.7572 144.13 81.0047C146.855 82.2522 155.44 76.8887 161.2 80.0956C166.958 83.3025 173.568 76.9482 173.568 76.9482L173.566 76.9459L174.179 63.2861C172.323 62.146 164.828 59.9007 162.035 59.8248C159.015 59.7408 143.228 61.7282 138.112 64.1661C132.996 66.6028 124.98 77.0369 128.849 78.68C132.718 80.3243 139.44 72.2779 139.44 72.2779C139.44 72.2779 145.943 71.6068 149.026 72.0153C151.729 72.3747 157.107 68.7092 157.261 68.6042ZM157.261 68.6042C157.264 68.603 157.265 68.6018 157.265 68.6018L157.261 68.6042Z" stroke="#1D1D1B" stroke-width="0.5" stroke-linecap="round" stroke-linejoin="round"/>
<path d="M176.355 80.9494L173.391 80.8677L174.271 61.2715L177.235 61.3532L176.355 80.9494Z" fill="white" stroke="#1D1D1B" stroke-width="0.5" stroke-linecap="round" stroke-linejoin="round"/>
<path d="M252.305 29.9434C233.009 45.3466 184.39 59.9079 178.281 60.3082C177.768 60.3421 177.347 60.9151 177.315 61.6199L176.448 80.9244C176.417 81.6304 176.788 82.2268 177.298 82.2863C181.14 82.7378 223.999 79.4396 252.305 66.2714C252.305 54.2088 252.305 42.0059 252.305 29.9434Z" fill="#9D9D9C" stroke="#1D1D1B" stroke-width="0.5" stroke-miterlimit="10"/>
<path d="M140.175 77.7575C135.867 76.6675 134.253 78.7693 133.353 80.4428C132.24 82.6472 133.615 83.7384 136.783 84.4164" stroke="white" stroke-width="0.5" stroke-miterlimit="10" stroke-linecap="round"/>
<path d="M134.097 79.3613L137.562 80.1817" stroke="white" stroke-width="0.5" stroke-miterlimit="10" stroke-linecap="round"/>
<path d="M133.352 80.4434L136.376 81.1412" stroke="white" stroke-width="0.5" stroke-miterlimit="10" stroke-linecap="round"/>
<path d="M107.173 99.4102H143.972C153.064 99.4102 160.446 106.775 160.446 115.847H98.9307V107.634C98.9307 103.095 102.625 99.4102 107.173 99.4102Z" fill="white" stroke="#1D1D1B" stroke-width="0.5" stroke-miterlimit="10"/>
<path d="M170.919 126.315V127.473H93.5989V121.144C93.5989 118.218 95.9763 115.845 98.9102 115.845H100.373C103.555 115.845 106.135 113.272 106.135 110.097V99.4082H112.394V110.097C112.394 113.271 114.973 115.845 118.155 115.845H126.285C129.466 115.845 132.046 113.272 132.046 110.097V99.4082H138.304V110.097C138.304 113.271 140.883 115.845 144.065 115.845H160.428C166.223 115.845 170.921 120.532 170.921 126.315H170.919Z" fill="#9D9D9C" stroke="#1D1D1B" stroke-width="0.5" stroke-miterlimit="10"/>
<path d="M170.425 123.139H167.842C163.784 123.139 160.491 119.882 160.448 115.846C165.124 115.855 169.081 118.916 170.425 123.139Z" fill="white" stroke="#1D1D1B" stroke-width="0.5" stroke-miterlimit="10"/>
<path d="M160.448 115.846C160.448 115.819 160.448 115.79 160.448 115.762" stroke="#1D1D1B" stroke-width="0.5" stroke-miterlimit="10"/>
<path d="M173.646 127.473H90.8723V134.995H173.646V127.473Z" fill="white" stroke="#1D1D1B" stroke-width="0.5" stroke-miterlimit="10"/>
<path d="M156.768 141.36C161.02 141.36 164.468 137.921 164.468 133.678C164.468 129.435 161.02 125.996 156.768 125.996C152.516 125.996 149.068 129.435 149.068 133.678C149.068 137.921 152.516 141.36 156.768 141.36Z" fill="white" stroke="#1D1D1B" stroke-width="0.5" stroke-miterlimit="10"/>
<path d="M156.768 137.773C159.035 137.773 160.872 135.94 160.872 133.678C160.872 131.417 159.035 129.584 156.768 129.584C154.502 129.584 152.664 131.417 152.664 133.678C152.664 135.94 154.502 137.773 156.768 137.773Z" fill="white" stroke="#1D1D1B" stroke-width="0.5" stroke-miterlimit="10"/>
<path d="M105.326 141.36C109.578 141.36 113.026 137.921 113.026 133.678C113.026 129.435 109.578 125.996 105.326 125.996C101.074 125.996 97.6265 129.435 97.6265 133.678C97.6265 137.921 101.074 141.36 105.326 141.36Z" fill="white" stroke="#1D1D1B" stroke-width="0.5" stroke-miterlimit="10"/>
<path d="M105.326 137.773C107.592 137.773 109.43 135.94 109.43 133.678C109.43 131.417 107.592 129.584 105.326 129.584C103.059 129.584 101.222 131.417 101.222 133.678C101.222 135.94 103.059 137.773 105.326 137.773Z" fill="white" stroke="#1D1D1B" stroke-width="0.5" stroke-miterlimit="10"/>
</g>
<defs>
<clipPath id="clip0_511_10742">
<rect width="252" height="152" fill="white"/>
</clipPath>
</defs>
</svg>
