<svg width="252" height="152" viewBox="0 0 252 152" fill="none" xmlns="http://www.w3.org/2000/svg">
<g clip-path="url(#clip0_511_10494)">
<rect width="252" height="152" fill="white"/>
<path d="M0 0H252.102V76H0V0Z" fill="#5FBE6E"/>
<path d="M0.152832 97.584H251.774" stroke="black" stroke-width="0.5" stroke-linecap="round" stroke-linejoin="round"/>
<path d="M0 120.232H251.621" stroke="black" stroke-width="0.5" stroke-linecap="round" stroke-linejoin="round"/>
<path d="M0 107.768H251.621" stroke="black" stroke-width="0.5" stroke-linecap="round" stroke-linejoin="round"/>
<path d="M24.2246 76H242.401H24.2246Z" fill="white"/>
<path d="M24.2246 76H242.401" stroke="black" stroke-width="0.5" stroke-linecap="round" stroke-linejoin="round"/>
<path d="M-8.39233e-05 76.0056C-8.39233e-05 76.0056 52.6988 75.7243 46.4759 79.1613C40.253 82.5982 62.053 83.1647 58.1971 86.8649C54.3422 90.565 41.7733 92.872 -8.39233e-05 92.872" fill="white"/>
<path d="M-8.392e-05 76.0056C-8.392e-05 76.0056 52.6988 75.7243 46.4759 79.1613C40.253 82.5982 62.053 83.1647 58.1971 86.8649C54.3422 90.565 41.7733 92.872 -8.392e-05 92.872" stroke="black" stroke-width="0.5" stroke-linecap="round" stroke-linejoin="round"/>
<path d="M238.872 26.847C238.027 26.847 237.254 27.1492 236.654 27.6515C236.346 24.9226 234.025 22.8008 231.207 22.8008C228.711 22.8008 226.606 24.4655 225.942 26.7422C225.147 25.728 223.91 25.0755 222.521 25.0755C220.122 25.0755 218.177 27.0151 218.177 29.4088C218.177 31.8025 220.121 33.7421 222.521 33.7421H238.873C240.781 33.7421 242.328 32.1991 242.328 30.2945C242.328 28.3899 240.782 26.847 238.873 26.847H238.872Z" fill="white" stroke="black" stroke-width="0.5" stroke-linecap="round" stroke-linejoin="round"/>
<path d="M197.582 45.6946C196.738 45.6946 195.965 45.9968 195.365 46.4992C195.056 43.7702 192.735 41.6484 189.918 41.6484C187.422 41.6484 185.317 43.3132 184.653 45.5898C183.858 44.5757 182.621 43.9232 181.231 43.9232C178.833 43.9232 176.888 45.8627 176.888 48.2565C176.888 50.6502 178.832 52.5897 181.231 52.5897H197.583C199.492 52.5897 201.039 51.0468 201.039 49.1422C201.039 47.2376 199.493 45.6946 197.583 45.6946H197.582Z" fill="white" stroke="black" stroke-width="0.5" stroke-linecap="round" stroke-linejoin="round"/>
<path d="M43.3892 42.2948C43.3892 40.6036 42.4938 39.0106 40.9993 38.2108C40.3462 37.8614 39.6004 37.6631 38.8081 37.6631C38.0159 37.6631 37.2114 37.8775 36.5422 38.2524C36.1891 36.0409 34.2706 34.3516 31.9563 34.3516C29.3932 34.3516 27.3137 36.4242 27.3137 38.9832C27.3137 39.1891 27.3269 39.3902 27.3535 39.5885C26.6341 39.1796 25.7964 38.9568 24.9029 38.9861C22.4912 39.0644 20.514 41.0228 20.4193 43.4289C20.4165 43.4978 20.4155 43.5677 20.4155 43.6356C20.4231 45.3958 21.8959 46.8008 23.6602 46.8008H38.8734C41.3684 46.8008 43.3902 44.7829 43.3902 42.2948H43.3892Z" fill="white" stroke="black" stroke-width="0.5" stroke-linecap="round" stroke-linejoin="round"/>
<path d="M133.775 24.9891H133.566C133.566 22.6048 131.629 20.6719 129.239 20.6719C126.849 20.6719 124.911 22.6048 124.911 24.9891H124.703C122.895 24.9891 121.43 26.4508 121.43 28.2544C121.43 30.0579 122.895 31.5197 124.703 31.5197H133.775C135.582 31.5197 137.048 30.0579 137.048 28.2544C137.048 26.4508 135.582 24.9891 133.775 24.9891Z" fill="white" stroke="black" stroke-width="0.5" stroke-linecap="round" stroke-linejoin="round"/>
<path d="M90.1977 69.313C90.1977 69.313 98.3236 43.625 110.799 43.625C123.274 43.625 129.2 69.313 129.2 69.313H90.1968H90.1977Z" fill="white" stroke="black" stroke-width="0.5" stroke-linecap="round" stroke-linejoin="round"/>
<path d="M126.914 69.313C126.914 69.313 135.104 43.625 147.676 43.625C160.249 43.625 166.222 69.313 166.222 69.313H126.913H126.914Z" fill="white" stroke="black" stroke-width="0.5" stroke-linecap="round" stroke-linejoin="round"/>
<path d="M109.699 69.313C109.699 69.313 117.729 43.625 130.058 43.625C142.387 43.625 148.244 69.313 148.244 69.313H109.698H109.699Z" fill="white" stroke="black" stroke-width="0.5" stroke-linecap="round" stroke-linejoin="round"/>
<path d="M230.213 76.0009H118.687C118.687 76.0009 120.334 71.8572 124.515 69.8543C128.697 67.8514 133.97 69.3432 137.439 66.457C140.91 63.5697 142.701 60.7881 147.736 59.1019C152.771 57.4158 157.713 59.312 162.655 56.9945C167.525 54.7084 171.779 53.9818 174.448 53.9609C177.117 53.9808 181.372 54.7084 186.243 56.9945C191.185 59.3131 196.125 57.4158 201.16 59.1019C206.196 60.7881 207.988 63.5697 211.457 66.457C214.927 69.3432 220.2 67.8514 224.382 69.8543C228.563 71.8572 230.211 76.0009 230.211 76.0009H230.213Z" fill="white" stroke="black" stroke-width="0.5" stroke-linecap="round" stroke-linejoin="round"/>
<path d="M135.141 76.0009H23.6155C23.6155 76.0009 25.2625 71.8572 29.4436 69.8543C33.6256 67.8514 38.8991 69.3432 42.3683 66.457C45.8385 63.5697 47.6304 60.7881 52.6653 59.1019C57.7002 57.4158 62.6423 59.312 67.5835 56.9945C72.4537 54.7084 76.7077 53.9818 79.377 53.9609C82.0464 53.9808 86.3013 54.7084 91.1715 56.9945C96.1137 59.3131 101.054 57.4158 106.089 59.1019C111.125 60.7881 112.917 63.5697 116.386 66.457C119.856 69.3432 125.129 67.8514 129.31 69.8543C133.492 71.8572 135.14 76.0009 135.14 76.0009H135.141Z" fill="white" stroke="black" stroke-width="0.5" stroke-linecap="round" stroke-linejoin="round"/>
<path fill-rule="evenodd" clip-rule="evenodd" d="M39.446 65.6677C39.446 61.6488 37.676 54.8066 35.4924 54.8066C33.3088 54.8066 31.5388 61.6488 31.5388 65.6677C31.5388 69.3607 33.0343 69.1398 34.9709 69.3333V76.0235H36.013V69.3333C37.9495 69.1398 39.445 69.3607 39.445 65.6677H39.446Z" fill="white" stroke="black" stroke-width="0.5" stroke-linecap="round" stroke-linejoin="round"/>
<path d="M73.5616 73.4248C71.748 71.7648 70.1456 69.898 68.7845 67.8669H72.5242C70.7353 66.2304 69.1849 64.3589 67.9128 62.3089H71.4859C69.2862 60.2966 67.5162 57.8614 66.2829 55.1503L66.0879 54.7207L65.8929 55.1503C64.6587 57.8614 62.8896 60.2957 60.69 62.3089H64.263C62.9909 64.3589 61.4405 66.2304 59.6516 67.8669H63.3913C62.0312 69.8989 60.4278 71.7658 58.6143 73.4248H65.0354V76.0225H67.1395V73.4248H73.5606H73.5616Z" fill="#10A96C" stroke="black" stroke-width="0.5" stroke-linecap="round" stroke-linejoin="round"/>
<path d="M203.093 72.7367C200.819 70.6527 198.811 68.3073 197.104 65.7567H201.792C199.549 63.7013 197.606 61.3508 196.011 58.7767H200.491C197.734 56.2495 195.516 53.1914 193.968 49.7872L193.723 49.248L193.478 49.7872C191.931 53.1914 189.712 56.2495 186.955 58.7767H191.435C189.84 61.3518 187.897 63.7013 185.655 65.7567H190.342C188.637 68.3083 186.627 70.6527 184.353 72.7367H192.403V76H195.041V72.7367H203.091H203.093Z" fill="white" stroke="black" stroke-width="0.5" stroke-linecap="round" stroke-linejoin="round"/>
<path d="M67.7302 85.665C66.5411 86.5454 65.243 87.2556 63.8729 87.781C62.0327 88.486 60.0629 88.8564 58.0581 88.8564H47.0673C43.57 88.8564 40.1796 87.7297 37.3941 85.665C36.9775 85.3561 37.1946 84.6973 37.713 84.6973H67.4134C67.9318 84.6973 68.1489 85.3561 67.7323 85.665H67.7302Z" fill="white" stroke="black" stroke-width="0.5" stroke-linecap="round" stroke-linejoin="round"/>
<path d="M48.7878 83.0944V84.6963H47.2161L47.3487 84.4736C47.5555 84.1268 47.6645 83.7317 47.6645 83.3284V83.0955C47.6645 82.7855 47.9155 82.5352 48.2262 82.5352C48.3815 82.5352 48.5214 82.5978 48.6232 82.6994C48.725 82.8009 48.7878 82.9405 48.7878 83.0955V83.0944Z" fill="#A9A9A9" stroke="black" stroke-width="0.5" stroke-linecap="round" stroke-linejoin="round"/>
<path d="M57.9065 83.0944V84.6963H56.3347L56.4674 84.4736C56.6742 84.1268 56.7832 83.7317 56.7832 83.3284V83.0955C56.7832 82.7855 57.0342 82.5352 57.3448 82.5352C57.5002 82.5352 57.64 82.5978 57.7419 82.6994C57.8437 82.8009 57.9065 82.9405 57.9065 83.0955V83.0944Z" fill="#A9A9A9" stroke="black" stroke-width="0.5" stroke-linecap="round" stroke-linejoin="round"/>
<path d="M47.4634 86.3887L49.5021 87.1604L51.5419 86.3887L53.5816 87.1604L55.6203 86.3887L57.6601 87.1604" stroke="black" stroke-width="0.5" stroke-linecap="round" stroke-linejoin="round"/>
<path d="M47.4633 86.7389C47.657 86.7389 47.8141 86.5823 47.8141 86.389C47.8141 86.1957 47.657 86.0391 47.4633 86.0391C47.2696 86.0391 47.1125 86.1957 47.1125 86.389C47.1125 86.5823 47.2696 86.7389 47.4633 86.7389Z" fill="black" stroke="black" stroke-width="0.5" stroke-linecap="round" stroke-linejoin="round"/>
<path d="M57.6601 87.5104C57.8538 87.5104 58.0109 87.3537 58.0109 87.1605C58.0109 86.9672 57.8538 86.8105 57.6601 86.8105C57.4664 86.8105 57.3093 86.9672 57.3093 87.1605C57.3093 87.3537 57.4664 87.5104 57.6601 87.5104Z" fill="black" stroke="black" stroke-width="0.5" stroke-linecap="round" stroke-linejoin="round"/>
<path d="M120.177 87.6895V130.373H53.0198V114.424C53.0198 110.587 55.5716 107.214 59.2702 106.16L60.9926 105.669L62.3279 105.289L72.658 102.345C75.1893 101.624 77.5957 100.543 79.8014 99.1413C81.2718 98.2096 82.6522 97.1349 83.9219 95.9315L89.4842 90.6663C91.5036 88.756 94.1824 87.6915 96.9656 87.6915H120.177V87.6895Z" fill="white" stroke="black" stroke-width="0.5" stroke-linecap="round" stroke-linejoin="round"/>
<path d="M53.0198 115.591C58.1602 115.591 62.3279 111.433 62.3279 106.305V105.289" fill="white"/>
<path d="M53.0198 115.591C58.1602 115.591 62.3279 111.433 62.3279 106.305V105.289" stroke="black" stroke-width="0.5" stroke-linecap="round" stroke-linejoin="round"/>
<path d="M175.657 92.1905V107.234H135.371C129.782 107.234 124.384 105.211 120.177 101.54V87.6895H171.146C173.638 87.6895 175.655 89.704 175.655 92.1885L175.657 92.1905Z" fill="white" stroke="black" stroke-width="0.5" stroke-linecap="round" stroke-linejoin="round"/>
<path d="M147.917 107.235V130.376H120.177V101.543C124.384 105.212 129.782 107.237 135.371 107.237H147.915L147.917 107.235Z" fill="white" stroke="black" stroke-width="0.5" stroke-linecap="round" stroke-linejoin="round"/>
<path d="M175.658 107.234V125.874C175.658 128.359 173.638 130.373 171.148 130.373H147.918V107.232H175.658V107.234Z" fill="white" stroke="black" stroke-width="0.5" stroke-linecap="round" stroke-linejoin="round"/>
<path d="M175.658 124.309V125.874C175.658 128.358 173.638 130.373 171.146 130.373H53.0198V124.309H175.658Z" fill="#A9A9A9" stroke="black" stroke-width="0.5" stroke-linecap="round" stroke-linejoin="round"/>
<path d="M77.2905 139.66C82.4301 139.66 86.5965 135.503 86.5965 130.376C86.5965 125.248 82.4301 121.092 77.2905 121.092C72.1509 121.092 67.9844 125.248 67.9844 130.376C67.9844 135.503 72.1509 139.66 77.2905 139.66Z" fill="white" stroke="black" stroke-width="0.5" stroke-linecap="round" stroke-linejoin="round"/>
<path d="M77.2905 135.201C79.9621 135.201 82.1278 133.04 82.1278 130.375C82.1278 127.709 79.9621 125.549 77.2905 125.549C74.6189 125.549 72.4531 127.709 72.4531 130.375C72.4531 133.04 74.6189 135.201 77.2905 135.201Z" fill="white" stroke="black" stroke-width="0.5" stroke-linecap="round" stroke-linejoin="round"/>
<path d="M160.195 139.66C165.335 139.66 169.501 135.503 169.501 130.376C169.501 125.248 165.335 121.092 160.195 121.092C155.056 121.092 150.889 125.248 150.889 130.376C150.889 135.503 155.056 139.66 160.195 139.66Z" fill="white" stroke="black" stroke-width="0.5" stroke-linecap="round" stroke-linejoin="round"/>
<path d="M160.195 135.201C162.866 135.201 165.032 133.04 165.032 130.375C165.032 127.709 162.866 125.549 160.195 125.549C157.523 125.549 155.357 127.709 155.357 130.375C155.357 133.04 157.523 135.201 160.195 135.201Z" fill="white" stroke="black" stroke-width="0.5" stroke-linecap="round" stroke-linejoin="round"/>
<path d="M79.8018 99.1393C79.8018 103.61 83.4328 107.232 87.9138 107.232H107.202C111.683 107.232 115.314 103.61 115.314 99.1393V87.6875" stroke="black" stroke-width="0.5" stroke-linecap="round" stroke-linejoin="round"/>
<path d="M102.534 116.178C101.944 116.178 101.414 116.047 100.941 115.783C100.47 115.52 100.093 115.16 99.8143 114.702C99.5358 114.245 99.3965 113.728 99.3965 113.156C99.3965 112.584 99.5358 112.054 99.8143 111.597C100.093 111.139 100.472 110.775 100.947 110.51C101.422 110.242 101.959 110.109 102.557 110.109C103.005 110.109 103.415 110.189 103.789 110.348C104.162 110.508 104.496 110.743 104.787 111.053L103.654 112.202C103.521 112.042 103.361 111.926 103.177 111.854C102.993 111.783 102.786 111.746 102.559 111.746C102.29 111.746 102.057 111.803 101.856 111.92C101.655 112.036 101.496 112.2 101.379 112.41C101.26 112.62 101.203 112.866 101.203 113.145C101.203 113.425 101.262 113.66 101.379 113.875C101.498 114.089 101.657 114.255 101.862 114.371C102.067 114.488 102.299 114.545 102.559 114.545C102.802 114.545 103.017 114.506 103.202 114.427C103.386 114.347 103.546 114.224 103.679 114.057L104.811 115.215C104.512 115.534 104.176 115.775 103.804 115.938C103.431 116.102 103.007 116.184 102.536 116.184" fill="#10A96C"/>
<path d="M108.999 110.238V110.732C108.848 110.585 108.672 110.46 108.469 110.358C108.154 110.199 107.803 110.119 107.418 110.119C106.892 110.119 106.419 110.252 106.003 110.52C105.585 110.787 105.26 111.147 105.024 111.6C104.789 112.054 104.67 112.573 104.67 113.153C104.67 113.733 104.789 114.24 105.024 114.696C105.26 115.149 105.585 115.509 105.997 115.77C106.411 116.034 106.88 116.165 107.406 116.165C107.799 116.165 108.154 116.089 108.467 115.938C108.67 115.84 108.848 115.717 108.997 115.566V116.044H110.732V110.236H108.997L108.999 110.238ZM108.723 114.152C108.483 114.412 108.162 114.541 107.762 114.541C107.51 114.541 107.287 114.481 107.091 114.361C106.894 114.242 106.738 114.079 106.624 113.87C106.509 113.664 106.454 113.425 106.454 113.153C106.454 112.881 106.511 112.63 106.624 112.418C106.738 112.207 106.894 112.042 107.091 111.921C107.287 111.803 107.515 111.741 107.775 111.741C108.035 111.741 108.262 111.801 108.459 111.921C108.655 112.04 108.809 112.203 108.92 112.412C109.03 112.618 109.085 112.861 109.085 113.141C109.085 113.556 108.965 113.893 108.725 114.15L108.723 114.152Z" fill="#00A6BF"/>
<path d="M115.004 110.132C114.892 110.11 114.771 110.1 114.642 110.1C114.339 110.1 114.054 110.173 113.786 110.318C113.52 110.465 113.286 110.661 113.087 110.911C113.036 110.976 112.987 111.042 112.944 111.111L112.909 110.234H111.273V116.047H113.008V113.128C113.008 112.952 113.034 112.795 113.09 112.656C113.143 112.517 113.219 112.396 113.311 112.294C113.405 112.192 113.52 112.112 113.657 112.059C113.794 112.004 113.941 111.977 114.101 111.977C114.245 111.977 114.384 111.994 114.519 112.026C114.652 112.059 114.759 112.102 114.839 112.153L115.316 110.21C115.221 110.181 115.119 110.155 115.006 110.132H115.004Z" fill="#8280B8"/>
<path d="M97.3138 110.23V113.528C97.3138 114.082 96.8694 114.531 96.3225 114.531C95.7757 114.531 95.3313 114.082 95.3313 113.528V110.23H93.5864V113.397C93.5864 114.926 94.8132 116.17 96.3225 116.17C97.8319 116.17 99.0587 114.926 99.0587 113.397V110.23H97.3117H97.3138Z" fill="#EF664E"/>
<path d="M176.041 79.4095C172.957 81.6957 169.588 83.5366 166.032 84.8994C161.256 86.7301 156.147 87.6903 150.945 87.6903H122.429C113.354 87.6903 104.56 84.7666 97.3304 79.4095C96.2511 78.6085 96.8122 76.8984 98.1557 76.8984H175.213C176.559 76.8984 177.12 78.6085 176.039 79.4095H176.041Z" fill="white" stroke="black" stroke-width="0.5" stroke-linecap="round" stroke-linejoin="round"/>
<path d="M126.895 72.7418V76.8976H122.818L123.162 76.3194C123.698 75.4204 123.981 74.3927 123.981 73.3466V72.7418C123.981 71.9389 124.634 71.2871 125.437 71.2871C125.84 71.2871 126.203 71.4506 126.467 71.7121C126.731 71.9757 126.893 72.3393 126.893 72.7398L126.895 72.7418Z" fill="#A9A9A9" stroke="black" stroke-width="0.5" stroke-linecap="round" stroke-linejoin="round"/>
<path d="M150.554 72.7418V76.8976H146.476L146.82 76.3194C147.357 75.4204 147.639 74.3927 147.639 73.3466V72.7418C147.639 71.9389 148.293 71.2871 149.095 71.2871C149.499 71.2871 149.861 71.4506 150.126 71.7121C150.388 71.9757 150.552 72.3393 150.552 72.7398L150.554 72.7418Z" fill="#A9A9A9" stroke="black" stroke-width="0.5" stroke-linecap="round" stroke-linejoin="round"/>
<path d="M123.458 81.293L128.748 83.2953L134.04 81.293L139.33 83.2953L144.622 81.293L149.914 83.2953" stroke="black" stroke-width="0.5" stroke-linecap="round" stroke-linejoin="round"/>
<path d="M123.459 82.1991C123.961 82.1991 124.368 81.7929 124.368 81.2919C124.368 80.7909 123.961 80.3848 123.459 80.3848C122.957 80.3848 122.55 80.7909 122.55 81.2919C122.55 81.7929 122.957 82.1991 123.459 82.1991Z" fill="black" stroke="black" stroke-width="0.5" stroke-linecap="round" stroke-linejoin="round"/>
<path d="M149.915 84.201C150.417 84.201 150.824 83.7949 150.824 83.2939C150.824 82.7929 150.417 82.3867 149.915 82.3867C149.412 82.3867 149.005 82.7929 149.005 83.2939C149.005 83.7949 149.412 84.201 149.915 84.201Z" fill="black" stroke="black" stroke-width="0.5" stroke-linecap="round" stroke-linejoin="round"/>
<path d="M163.81 96.0364C163.81 96.0364 162.389 93.2312 162.794 91.2391C163.257 88.9671 165.555 87.5839 165.553 89.6659C165.553 93.2271 167.12 92.9819 167.12 92.9819C167.12 92.9819 167.713 91.7009 168.375 92.2321C168.893 92.6489 167.787 94.7942 167.787 94.7942L163.808 96.0364H163.81Z" fill="white" stroke="black" stroke-width="0.5" stroke-linecap="round" stroke-linejoin="round"/>
<path d="M187.862 114.236C187.862 114.236 187.462 117.448 188.048 118.862C188.634 120.276 188.972 117.021 188.972 117.021C188.972 117.021 189.435 117.634 189.922 117.714C190.481 117.804 191.267 117.673 191.786 116.909C192.304 116.145 191.927 114.702 191.927 114.702L187.864 114.236H187.862Z" fill="white" stroke="black" stroke-width="0.5" stroke-linecap="round" stroke-linejoin="round"/>
<path d="M177.263 115.584C177.263 115.584 172.463 120.784 171.936 129.955C171.746 133.261 172.751 137.086 171.222 137.086C167.287 137.086 167.617 139.127 167.617 139.127H173.298C174.117 139.127 174.816 138.531 174.939 137.721L175.387 134.779L176.43 139.129H177.314C177.314 139.129 176.051 132.795 177.187 127.359C178.324 121.922 182.873 117.419 182.873 117.419L177.261 115.588L177.263 115.584Z" fill="black" stroke="black" stroke-width="0.5" stroke-linecap="round" stroke-linejoin="round"/>
<path d="M178.34 117.03C178.34 117.03 178.92 119.925 181.828 129.291C182.809 132.453 184.521 137.085 182.991 137.085C179.057 137.085 179.387 139.126 179.387 139.126H185.068C185.887 139.126 186.586 138.53 186.709 137.721L186.979 135.945L188.199 139.126H189.084C189.084 139.126 187.423 132.441 186.102 127.045C184.63 121.032 184.732 116.535 184.732 116.535L178.338 117.03H178.34Z" fill="black" stroke="black" stroke-width="0.5" stroke-linecap="round" stroke-linejoin="round"/>
<path d="M168.097 94.4648C169.158 98.4592 171.652 101.994 178.175 101.407L186.137 100.692C186.137 100.692 190.932 99.5461 191.923 114.702L187.878 114.947C187.805 111.566 187.434 106.816 185.996 105.383L185.134 119.659L172.922 118.801L175.181 106.483C175.181 106.483 166.19 108.885 163.521 95.9686L168.095 94.4669L168.097 94.4648Z" fill="white" stroke="black" stroke-width="0.5" stroke-linecap="round" stroke-linejoin="round"/>
<path d="M175.289 95.1682L179.547 97.1214L182.154 98.3167L186.412 100.27C186.664 100.386 186.93 100.442 187.19 100.442C187.897 100.442 188.573 100.039 188.886 99.3566C189.316 98.4229 188.906 97.3176 187.971 96.8885L183.713 94.9353L181.108 93.74L176.85 91.7868C176.598 91.6703 176.332 91.6172 176.072 91.6172C175.365 91.6172 174.689 92.0197 174.376 92.7001C173.946 93.6338 174.356 94.7391 175.291 95.1682H175.289Z" fill="white" stroke="black" stroke-width="0.5" stroke-linecap="round" stroke-linejoin="round"/>
<path d="M184.365 93.9277H177.162L176.295 98.4308H177.321V99.8038C177.321 101.13 178.399 102.205 179.728 102.205H180.045C181.374 102.205 182.452 101.13 182.452 99.8038" fill="white"/>
<path d="M184.365 93.9277H177.162L176.295 98.4308H177.321V99.8038C177.321 101.13 178.399 102.205 179.728 102.205H180.045C181.374 102.205 182.452 101.13 182.452 99.8038" stroke="black" stroke-width="0.5" stroke-linecap="round" stroke-linejoin="round"/>
<path d="M186.905 103.166C186.233 100.953 185.455 97.8274 185.672 95.5248L185.969 92.3641L181.941 93.1221C181.884 93.0342 181.824 92.9484 181.759 92.8646C180.714 91.5141 178.953 91.1259 177.824 91.9942C176.696 92.8626 176.653 94.0537 177.861 95.2592C178.644 96.0397 180.46 97.2594 181.24 97.3738C182.946 98.7407 182.078 101.385 182.652 103.328C182.756 103.681 182.987 104.247 182.987 104.247L186.907 103.164L186.905 103.166Z" fill="black" stroke="black" stroke-width="0.5" stroke-linecap="round" stroke-linejoin="round"/>
<path d="M180.348 97.2363C180.512 96.8174 180.887 96.4926 181.364 96.4129C182.087 96.2923 182.771 96.7786 182.892 97.4998C183.013 98.2211 182.525 98.9035 181.802 99.024" fill="white"/>
<path d="M180.348 97.2363C180.512 96.8174 180.887 96.4926 181.364 96.4129C182.087 96.2923 182.771 96.7786 182.892 97.4998C183.013 98.2211 182.525 98.9035 181.802 99.024" stroke="black" stroke-width="0.5" stroke-linecap="round" stroke-linejoin="round"/>
<path d="M177.506 92.0439L181.477 93.8643L184.342 95.1781L188.313 96.9985L188.163 96.4775C187.909 95.5867 187.735 94.6755 187.58 93.7622C187.449 92.9858 186.863 92.332 186.052 92.1461C185.442 92.0051 184.848 91.8028 184.28 91.5433C183.713 91.2839 183.172 90.9672 182.669 90.5953C182.312 90.3317 181.894 90.2051 181.481 90.2051C181.096 90.2051 180.713 90.3154 180.383 90.5299C179.576 91.055 178.714 91.4902 177.839 91.8907L177.508 92.0439H177.506Z" fill="white" stroke="black" stroke-width="0.5" stroke-linecap="round" stroke-linejoin="round"/>
<path d="M177.978 97.4611C178.151 97.4611 178.292 97.3212 178.292 97.1485C178.292 96.9759 178.151 96.8359 177.978 96.8359C177.805 96.8359 177.665 96.9759 177.665 97.1485C177.665 97.3212 177.805 97.4611 177.978 97.4611Z" fill="black"/>
<path d="M177.329 99.3109C177.429 99.3619 177.542 99.3905 177.663 99.3905C178.066 99.3905 178.351 99.2802 178.478 98.8164" fill="white"/>
<path d="M177.329 99.3109C177.429 99.3619 177.542 99.3905 177.663 99.3905C178.066 99.3905 178.351 99.2802 178.478 98.8164" stroke="black" stroke-width="0.5" stroke-linecap="round" stroke-linejoin="round"/>
<path d="M206.416 139.126H207.184C207.184 139.126 206.086 133.622 207.073 128.9C208.061 124.176 212.013 120.263 212.013 120.263L207.137 118.672C207.137 118.672 202.967 123.189 202.508 131.158C202.343 134.03 203.217 137.352 201.888 137.352C200.268 137.352 200.436 139.126 200.436 139.126H206.414H206.416Z" fill="black" stroke="black" stroke-width="0.5" stroke-linecap="round" stroke-linejoin="round"/>
<path d="M213.815 139.126H214.583C214.583 139.126 212.351 133.642 212.912 128.849C213.473 124.054 212.707 120.262 212.707 120.262L207.831 118.67C207.831 118.67 208.806 123.138 208.347 131.107C208.181 133.979 210.616 137.35 209.287 137.35C207.667 137.35 207.835 139.124 207.835 139.124H213.813L213.815 139.126Z" fill="black" stroke="black" stroke-width="0.5" stroke-linecap="round" stroke-linejoin="round"/>
<path d="M211.057 106.723C213.533 108.747 214.004 113.939 213.547 118.456C213.408 119.838 213.41 121.076 213.418 122.334L204.28 121.145C204.501 119.237 204.96 117.363 205.648 115.567C206.693 112.834 207.504 110.539 207.448 107.184" fill="white"/>
<path d="M211.057 106.723C213.533 108.747 214.004 113.939 213.547 118.456C213.408 119.838 213.41 121.076 213.418 122.334L204.28 121.145C204.501 119.237 204.96 117.363 205.648 115.567C206.693 112.834 207.504 110.539 207.448 107.184" stroke="black" stroke-width="0.5" stroke-linecap="round" stroke-linejoin="round"/>
<path d="M211.051 112.656C209.402 115.984 206.687 117.737 203.478 119.27L202.861 115.51C207.137 112.991 209.282 109.777 209.282 109.777" fill="white"/>
<path d="M211.051 112.656C209.402 115.984 206.687 117.737 203.478 119.27L202.861 115.51C207.137 112.991 209.282 109.777 209.282 109.777" stroke="black" stroke-width="0.5" stroke-linecap="round" stroke-linejoin="round"/>
<path d="M196.064 103.602L205.956 130.925L207.117 130.388L197.543 102.918L196.064 103.602Z" fill="white" stroke="black" stroke-width="0.5" stroke-linecap="round" stroke-linejoin="round"/>
<path d="M205.626 135.305L204.979 129.997L207.424 129.264L209.818 134.049C209.999 134.41 209.81 134.848 209.421 134.964L206.466 135.851C206.077 135.967 205.677 135.706 205.628 135.305H205.626Z" fill="white" stroke="black" stroke-width="0.5" stroke-linecap="round" stroke-linejoin="round"/>
<path d="M206.225 129.623L207.191 132.49" stroke="black" stroke-width="0.5" stroke-linecap="round" stroke-linejoin="round"/>
<path d="M193.476 100.28L196.089 104.95L198.497 104.105L197.604 98.8313C197.537 98.4328 197.125 98.1897 196.742 98.3246L193.83 99.3461C193.447 99.481 193.279 99.9264 193.476 100.28Z" fill="white" stroke="black" stroke-width="0.5" stroke-linecap="round" stroke-linejoin="round"/>
<path d="M197.317 104.52L196.404 101.637" stroke="black" stroke-width="0.5" stroke-linecap="round" stroke-linejoin="round"/>
<path d="M201.444 120.171L203.476 119.27L202.859 115.513C202.859 115.513 200.864 115.339 201.09 116.183C201.315 117.027 201.933 117.254 201.933 117.254L200.404 118.14C199.818 118.479 199.654 119.25 200.051 119.797C200.369 120.235 200.948 120.39 201.442 120.171H201.444Z" fill="white" stroke="black" stroke-width="0.5" stroke-linecap="round" stroke-linejoin="round"/>
<path d="M213.867 98.9199H205.155L204.106 104.367H205.347V106.028C205.347 107.632 206.65 108.931 208.257 108.931H208.643C210.25 108.931 211.553 107.632 211.553 106.028L213.867 98.9199Z" fill="white" stroke="black" stroke-width="0.5" stroke-linecap="round" stroke-linejoin="round"/>
<path d="M210.068 102.139L211.403 106.948L213.709 102.976L210.068 102.139Z" fill="black" stroke="black" stroke-width="0.5" stroke-linecap="round" stroke-linejoin="round"/>
<path d="M205.89 103.57C206.099 103.57 206.269 103.401 206.269 103.192C206.269 102.984 206.099 102.814 205.89 102.814C205.681 102.814 205.511 102.984 205.511 103.192C205.511 103.401 205.681 103.57 205.89 103.57Z" fill="black"/>
<path d="M214.045 99.1585C214.045 101.385 212.534 102.352 210.068 102.352C207.602 102.352 206.212 101.414 205.112 99.1585C204.688 98.2881 207.281 97.7732 209.747 97.7732C212.212 97.7732 214.045 96.9314 214.045 99.1585Z" fill="black" stroke="black" stroke-width="0.5" stroke-linecap="round" stroke-linejoin="round"/>
<path d="M214.045 103.809C216.242 103.809 218.023 102.032 218.023 99.8408C218.023 97.6495 216.242 95.873 214.045 95.873C211.849 95.873 210.068 97.6495 210.068 99.8408C210.068 102.032 211.849 103.809 214.045 103.809Z" fill="black" stroke="black" stroke-width="0.5" stroke-linecap="round" stroke-linejoin="round"/>
<path d="M205.348 105.103C205.348 105.103 205.628 105.979 206.796 105.033L205.348 105.103Z" fill="white"/>
<path d="M205.348 105.103C205.348 105.103 205.628 105.979 206.796 105.033" stroke="black" stroke-width="0.5" stroke-linecap="round" stroke-linejoin="round"/>
<path d="M209.339 102.432C209.574 102.221 209.855 102.072 210.168 102.072C211.055 102.072 211.774 102.789 211.774 103.674C211.774 104.559 211.055 105.276 210.168 105.276" fill="white"/>
<path d="M209.339 102.432C209.574 102.221 209.855 102.072 210.168 102.072C211.055 102.072 211.774 102.789 211.774 103.674C211.774 104.559 211.055 105.276 210.168 105.276" stroke="black" stroke-width="0.5" stroke-linecap="round" stroke-linejoin="round"/>
<path d="M163.521 95.9666L168.097 94.4648" stroke="black" stroke-width="0.5" stroke-linecap="round" stroke-linejoin="round"/>
</g>
<defs>
<clipPath id="clip0_511_10494">
<rect width="252" height="152" fill="white"/>
</clipPath>
</defs>
</svg>
