<svg width="160" height="64" viewBox="0 0 160 64" fill="none" xmlns="http://www.w3.org/2000/svg">
<path d="M48.7014 48.3841L54.435 54.1154ZM10.0946 9.79386L15.8283 15.5251ZM15.8283 48.3841L10.0946 54.1154ZM54.435 9.79386L48.7014 15.5251ZM55.5074 31.9546H63.6195ZM0.910156 31.9546H9.02222ZM32.2648 55.1873V63.2959ZM32.2648 0.613281V8.71129ZM49.7632 31.944C49.7632 41.6022 41.9271 49.4348 32.2648 49.4348C22.6025 49.4348 14.7665 41.6022 14.7665 31.944C14.7665 22.2858 22.6025 14.4531 32.2648 14.4531C41.9271 14.4531 49.7632 22.2858 49.7632 31.944V31.944Z" fill="white"/>
<path d="M48.7014 48.3841L54.435 54.1154M10.0946 9.79386L15.8283 15.5251M15.8283 48.3841L10.0946 54.1154M54.435 9.79386L48.7014 15.5251M55.5074 31.9546H63.6195M0.910156 31.9546H9.02222M32.2648 55.1873V63.2959M32.2648 0.613281V8.71129M49.7632 31.944C49.7632 41.6022 41.9271 49.4348 32.2648 49.4348C22.6025 49.4348 14.7665 41.6022 14.7665 31.944C14.7665 22.2858 22.6025 14.4531 32.2648 14.4531C41.9271 14.4531 49.7632 22.2858 49.7632 31.944V31.944Z" stroke="#1E1E1C" stroke-width="0.57" stroke-miterlimit="10" stroke-linecap="round"/>
<path d="M125.905 34.2293L125.969 34.273C126.204 27.7972 131.882 22.6673 138.718 23.0169C144.939 23.3315 149.948 28.2779 150.156 34.2992C150.201 35.5314 150.047 36.7287 149.713 37.8473C150.798 37.5327 151.946 37.3667 153.14 37.3667C153.402 37.3667 153.664 37.3667 153.917 37.3929C160.907 37.8211 160.491 47.9499 153.483 47.9499H121.267C115.209 47.9499 111.637 41.3954 115.055 36.5627L115.39 36.0907C117.75 32.7523 122.497 31.8872 125.905 34.2293Z" fill="white" stroke="black" stroke-width="0.5" stroke-linecap="round" stroke-linejoin="round"/>
</svg>
