<svg width="757" height="429" viewBox="0 0 757 429" fill="none" xmlns="http://www.w3.org/2000/svg">
<mask id="mask0_523_3592" style="mask-type:alpha" maskUnits="userSpaceOnUse" x="0" y="0" width="757" height="429">
<rect width="757" height="429" rx="8" fill="#D9D9D9"/>
</mask>
<g mask="url(#mask0_523_3592)">
<path d="M772.959 -93.7139H-16.6528V481.063H772.959V-93.7139Z" fill="#EF664E"/>
<path d="M423.135 56.3087C434.973 56.3087 444.569 46.716 444.569 34.8829C444.569 23.0497 434.973 13.457 423.135 13.457C411.298 13.457 401.702 23.0497 401.702 34.8829C401.702 46.716 411.298 56.3087 423.135 56.3087Z" fill="#EF664E" stroke="black" stroke-width="2" stroke-linecap="round" stroke-linejoin="round"/>
<path d="M423.136 8.85762V3.24878" stroke="black" stroke-width="2" stroke-linecap="round" stroke-linejoin="round"/>
<path d="M441.542 16.4797L445.511 12.5128" stroke="black" stroke-width="2" stroke-linecap="round" stroke-linejoin="round"/>
<path d="M449.167 34.8827H454.778" stroke="black" stroke-width="2" stroke-linecap="round" stroke-linejoin="round"/>
<path d="M441.542 53.2831L445.511 57.2499" stroke="black" stroke-width="2" stroke-linecap="round" stroke-linejoin="round"/>
<path d="M423.136 60.9049V66.5137" stroke="black" stroke-width="2" stroke-linecap="round" stroke-linejoin="round"/>
<path d="M404.726 53.2831L400.761 57.2499" stroke="black" stroke-width="2" stroke-linecap="round" stroke-linejoin="round"/>
<path d="M397.102 34.8827H391.491" stroke="black" stroke-width="2" stroke-linecap="round" stroke-linejoin="round"/>
<path d="M404.726 16.4797L400.761 12.5128" stroke="black" stroke-width="2" stroke-linecap="round" stroke-linejoin="round"/>
<path d="M257.019 42.6474C254.478 42.6462 252.019 43.5421 250.075 45.1772C249.625 41.2289 247.822 37.5581 244.972 34.7883C242.121 32.0186 238.4 30.3208 234.439 29.9836C230.478 29.6463 226.523 30.6904 223.245 32.9384C219.967 35.1863 217.569 38.4995 216.458 42.3149C215.034 40.4942 213.171 39.0653 211.043 38.1627C208.916 37.26 206.593 36.9132 204.294 37.1549C201.995 37.3966 199.796 38.2189 197.903 39.5444C196.009 40.8698 194.484 42.655 193.471 44.7318C192.458 46.8087 191.99 49.1091 192.111 51.4166C192.232 53.7241 192.938 55.9629 194.163 57.9224C195.388 59.8819 197.092 61.4977 199.113 62.6179C201.135 63.738 203.409 64.3257 205.72 64.3256H257.019C258.464 64.3595 259.901 64.1041 261.246 63.5747C262.591 63.0453 263.817 62.2524 264.851 61.2427C265.885 60.2329 266.706 59.0268 267.267 57.6951C267.828 56.3634 268.117 54.933 268.117 53.488C268.117 52.0431 267.828 50.6127 267.267 49.281C266.706 47.9493 265.885 46.7431 264.851 45.7334C263.817 44.7237 262.591 43.9308 261.246 43.4013C259.901 42.8719 258.464 42.6166 257.019 42.6504V42.6474Z" fill="#EF664E" stroke="black" stroke-width="2" stroke-linecap="round" stroke-linejoin="round"/>
<path d="M148.448 193.471C148.448 185.223 144.439 175.172 140.509 167.298C136.966 160.201 129.068 160.201 125.527 167.298C121.595 175.172 117.603 185.223 117.603 193.471C117.603 208.522 123.576 212.275 131.266 212.727V226.979H134.8V212.727C142.472 212.275 148.448 208.522 148.448 193.471Z" fill="#EF664E" stroke="black" stroke-width="2" stroke-linecap="round" stroke-linejoin="round"/>
<path d="M658.456 193.471C658.456 185.223 654.449 175.172 650.517 167.298C646.976 160.201 639.075 160.201 635.535 167.298C631.605 175.172 627.595 185.223 627.595 193.471C627.595 208.522 633.568 212.275 641.258 212.727V226.979H644.793V212.727C652.483 212.275 658.456 208.522 658.456 193.471Z" fill="#EF664E" stroke="black" stroke-width="2" stroke-linecap="round" stroke-linejoin="round"/>
<path d="M707.949 226.964H101.034" stroke="black" stroke-width="2" stroke-linecap="round" stroke-linejoin="round"/>
<path d="M317.44 99.3889H233.308V226.964H317.44V99.3889Z" fill="#EF664E" stroke="black" stroke-width="2" stroke-linecap="round" stroke-linejoin="round"/>
<path d="M267.195 114.772H248.45V133.847H267.195V114.772Z" fill="#EF664E" stroke="black" stroke-width="2" stroke-linecap="round" stroke-linejoin="round"/>
<path d="M302.294 114.772H283.549V133.847H302.294V114.772Z" fill="#EF664E" stroke="black" stroke-width="2" stroke-linecap="round" stroke-linejoin="round"/>
<path d="M267.195 146.662H248.45V165.736H267.195V146.662Z" fill="#EF664E" stroke="black" stroke-width="2" stroke-linecap="round" stroke-linejoin="round"/>
<path d="M302.294 146.662H283.549V165.736H302.294V146.662Z" fill="#EF664E" stroke="black" stroke-width="2" stroke-linecap="round" stroke-linejoin="round"/>
<path d="M401.571 84.8099H317.439V226.964H401.571V84.8099Z" fill="#EF664E" stroke="black" stroke-width="2" stroke-linecap="round" stroke-linejoin="round"/>
<path d="M351.327 101.951H332.582V123.205H351.327V101.951Z" fill="#EF664E" stroke="black" stroke-width="2" stroke-linecap="round" stroke-linejoin="round"/>
<path d="M386.427 101.951H367.682V123.205H386.427V101.951Z" fill="#EF664E" stroke="black" stroke-width="2" stroke-linecap="round" stroke-linejoin="round"/>
<path d="M351.327 137.484H332.582V158.737H351.327V137.484Z" fill="#EF664E" stroke="black" stroke-width="2" stroke-linecap="round" stroke-linejoin="round"/>
<path d="M386.427 137.484H367.682V158.737H386.427V137.484Z" fill="#EF664E" stroke="black" stroke-width="2" stroke-linecap="round" stroke-linejoin="round"/>
<path d="M233.308 226.964H191.899V153.396L233.308 123.134V226.964Z" fill="#EF664E" stroke="black" stroke-width="2" stroke-linecap="round" stroke-linejoin="round"/>
<path d="M615.512 155.023H429.391V226.964H615.512V155.023Z" fill="#EF664E" stroke="black" stroke-width="2" stroke-linecap="round" stroke-linejoin="round"/>
<path d="M615.512 127.959H429.391V155.023H615.512V127.959Z" fill="#EF664E" stroke="black" stroke-width="2" stroke-linecap="round" stroke-linejoin="round"/>
<path d="M536.733 172.503H485.273V226.961H536.733V172.503Z" fill="#EF664E" stroke="black" stroke-width="2" stroke-linecap="round" stroke-linejoin="round"/>
<path d="M467.354 172.503H435.789V226.961H467.354V172.503Z" fill="#EF664E" stroke="black" stroke-width="2" stroke-linecap="round" stroke-linejoin="round"/>
<path d="M598.638 172.503H547.179V226.961H598.638V172.503Z" fill="#EF664E" stroke="black" stroke-width="2" stroke-linecap="round" stroke-linejoin="round"/>
<path d="M467.351 172.503V179.249H442.537V226.964H435.786V172.503H467.351Z" fill="#EF664E" stroke="black" stroke-width="2" stroke-linecap="round" stroke-linejoin="round"/>
<path d="M507.339 149.928C505.968 149.949 504.615 149.613 503.412 148.954C502.269 148.321 501.311 147.4 500.635 146.282C499.958 145.115 499.602 143.791 499.602 142.442C499.602 141.094 499.958 139.769 500.635 138.603C501.318 137.485 502.28 136.564 503.427 135.931C504.642 135.261 506.011 134.92 507.398 134.942C508.442 134.931 509.477 135.133 510.44 135.536C511.373 135.937 512.21 136.531 512.896 137.279L510.104 140.112C509.788 139.729 509.379 139.435 508.916 139.256C508.429 139.072 507.911 138.982 507.39 138.989C506.784 138.977 506.187 139.125 505.658 139.42C505.158 139.706 504.747 140.124 504.47 140.628C504.183 141.188 504.033 141.809 504.033 142.438C504.033 143.067 504.183 143.688 504.47 144.248C504.741 144.761 505.153 145.186 505.658 145.474C506.183 145.764 506.775 145.911 507.375 145.901C507.918 145.913 508.458 145.812 508.961 145.605C509.427 145.404 509.836 145.089 510.149 144.69L512.944 147.555C512.244 148.312 511.397 148.918 510.455 149.337C509.465 149.749 508.4 149.951 507.327 149.931" fill="black"/>
<path d="M523.283 135.251V136.471C522.897 136.099 522.456 135.788 521.976 135.548C521.173 135.146 520.285 134.942 519.386 134.954C518.151 134.936 516.938 135.28 515.896 135.943C514.868 136.603 514.034 137.525 513.481 138.615C512.906 139.808 512.608 141.115 512.608 142.439C512.608 143.764 512.906 145.071 513.481 146.264C514.029 147.348 514.858 148.266 515.881 148.921C516.92 149.577 518.128 149.915 519.356 149.895C520.261 149.909 521.156 149.718 521.976 149.337C522.459 149.105 522.901 148.795 523.283 148.419V149.607H527.56V135.251H523.283ZM522.6 144.925C522.296 145.246 521.927 145.498 521.517 145.663C521.106 145.829 520.665 145.904 520.224 145.884C519.641 145.893 519.067 145.74 518.566 145.441C518.083 145.146 517.687 144.728 517.417 144.23C517.126 143.682 516.98 143.069 516.995 142.448C516.981 141.817 517.126 141.192 517.417 140.631C517.632 140.252 517.92 139.92 518.264 139.653C518.609 139.386 519.003 139.19 519.423 139.076C519.844 138.962 520.283 138.933 520.715 138.99C521.147 139.047 521.564 139.189 521.941 139.408C522.422 139.7 522.814 140.118 523.075 140.616C523.356 141.175 523.496 141.794 523.482 142.419C523.525 143.337 523.208 144.236 522.6 144.925Z" fill="black"/>
<path d="M538.093 134.987C537.799 134.932 537.501 134.905 537.202 134.906C536.464 134.904 535.738 135.09 535.093 135.447C534.426 135.815 533.84 136.314 533.37 136.914C533.242 137.071 533.124 137.237 533.017 137.41L532.928 135.242H528.891V149.604H533.168V142.389C533.162 141.992 533.231 141.597 533.37 141.225C533.496 140.897 533.681 140.595 533.917 140.334C534.153 140.074 534.446 139.871 534.772 139.74C535.121 139.602 535.493 139.532 535.868 139.535C536.215 139.534 536.56 139.576 536.896 139.66C537.173 139.715 537.439 139.815 537.683 139.957L538.871 135.156C538.615 135.085 538.355 135.029 538.093 134.987Z" fill="black"/>
<path d="M494.463 135.23V143.381C494.468 144.033 494.214 144.66 493.756 145.125C493.298 145.59 492.674 145.854 492.022 145.86C491.698 145.858 491.379 145.792 491.081 145.666C490.783 145.54 490.513 145.357 490.286 145.126C490.059 144.896 489.879 144.623 489.758 144.324C489.636 144.024 489.575 143.704 489.577 143.381V135.23H485.273V143.057C485.273 144.846 485.984 146.562 487.25 147.827C488.516 149.092 490.232 149.803 492.022 149.803C493.812 149.803 495.528 149.092 496.794 147.827C498.059 146.562 498.77 144.846 498.77 143.057V135.23H494.463Z" fill="black"/>
<path d="M496.489 172.503H485.273V226.961H496.489V172.503Z" fill="#EF664E" stroke="black" stroke-width="2" stroke-linecap="round" stroke-linejoin="round"/>
<path d="M496.486 172.503H536.733V187.016H511.004V226.964H496.486V172.503Z" fill="#EF664E" stroke="black" stroke-width="2" stroke-linecap="round" stroke-linejoin="round"/>
<path d="M598.638 172.503H547.179V187.013H598.638V172.503Z" fill="#EF664E" stroke="black" stroke-width="2" stroke-linecap="round" stroke-linejoin="round"/>
<path d="M442.537 187.016H467.351" stroke="black" stroke-width="2" stroke-linecap="round" stroke-linejoin="round"/>
<path d="M442.537 194.163H467.351" stroke="black" stroke-width="2" stroke-linecap="round" stroke-linejoin="round"/>
<path d="M442.537 201.31H467.351" stroke="black" stroke-width="2" stroke-linecap="round" stroke-linejoin="round"/>
<path d="M442.537 208.457H467.351" stroke="black" stroke-width="2" stroke-linecap="round" stroke-linejoin="round"/>
<path d="M442.537 215.604H467.351" stroke="black" stroke-width="2" stroke-linecap="round" stroke-linejoin="round"/>
<path d="M505.123 228.475V229.494C505.123 230.636 504.669 231.731 503.862 232.538C503.054 233.345 501.958 233.799 500.816 233.799C499.674 233.799 498.578 233.345 497.771 232.538C496.963 231.731 496.509 230.636 496.509 229.494V228.475H505.123Z" fill="#EF664E" stroke="black" stroke-width="2" stroke-linecap="round" stroke-linejoin="round"/>
<path d="M535.654 228.475V229.494C535.654 230.636 535.2 231.731 534.393 232.538C533.585 233.345 532.49 233.799 531.347 233.799C530.205 233.799 529.11 233.345 528.302 232.538C527.494 231.731 527.041 230.636 527.041 229.494V228.475H535.654Z" fill="#EF664E" stroke="black" stroke-width="2" stroke-linecap="round" stroke-linejoin="round"/>
<path d="M536.928 228.475H495.25C495.25 226.298 495.3 224.12 495.399 221.943H536.78C536.879 224.114 536.928 226.292 536.928 228.475Z" fill="#EF664E" stroke="black" stroke-width="2" stroke-linecap="round" stroke-linejoin="round"/>
<path d="M496.201 212.058C496.201 212.058 496.201 212.032 496.201 212.017V212.058Z" fill="#EF664E" stroke="black" stroke-width="2" stroke-linecap="round" stroke-linejoin="round"/>
<path d="M535.986 212.058V212.017C535.365 206.62 534.419 201.266 533.153 195.983C532.995 195.33 532.597 194.899 532.155 194.899H500.029C499.915 194.906 499.803 194.935 499.701 194.986C499.599 195.038 499.508 195.109 499.435 195.196C499.239 195.421 499.104 195.692 499.043 195.983C497.78 201.246 496.836 206.581 496.215 211.958C496.215 211.975 496.215 211.993 496.215 212.011V212.053C495.839 215.319 495.575 218.612 495.425 221.934H536.806C536.638 218.622 536.365 215.331 535.986 212.058ZM506.932 217.979C506.418 219.351 504.089 219.859 501.737 219.113C499.384 218.368 497.875 216.655 498.407 215.283C498.939 213.911 501.252 213.404 503.605 214.149C505.957 214.894 507.448 216.607 506.932 217.979ZM499.191 211.69C499.476 209.337 499.822 207.001 500.228 204.683C500.632 202.37 501.092 200.084 501.609 197.839H530.566C531.092 200.105 531.554 202.39 531.95 204.692C532.346 206.994 532.689 209.324 532.98 211.681C520.865 212.18 511.316 212.18 499.191 211.69ZM530.444 219.113C528.089 219.859 525.763 219.351 525.246 217.979C524.729 216.607 526.22 214.894 528.573 214.149C530.925 213.404 533.254 213.911 533.771 215.283C534.287 216.655 532.796 218.368 530.444 219.113Z" fill="#EF664E" stroke="black" stroke-width="2" stroke-linecap="round" stroke-linejoin="round"/>
<path d="M506.932 217.979C506.418 219.351 504.09 219.859 501.737 219.113C499.385 218.368 497.876 216.655 498.407 215.283C498.939 213.911 501.253 213.403 503.605 214.149C505.958 214.894 507.449 216.607 506.932 217.979Z" fill="#EF664E" stroke="black" stroke-width="2" stroke-linecap="round" stroke-linejoin="round"/>
<path d="M532.987 211.69C520.865 212.18 511.304 212.18 499.191 211.69C499.477 209.337 499.822 207.001 500.228 204.683C500.632 202.37 501.092 200.084 501.609 197.839H530.566C531.093 200.105 531.554 202.39 531.95 204.692C532.346 206.994 532.692 209.327 532.987 211.69Z" fill="#EF664E" stroke="black" stroke-width="2" stroke-linecap="round" stroke-linejoin="round"/>
<path d="M530.445 219.113C528.089 219.859 525.764 219.351 525.247 217.979C524.73 216.607 526.221 214.894 528.574 214.149C530.926 213.403 533.255 213.911 533.771 215.283C534.288 216.655 532.797 218.368 530.445 219.113Z" fill="#EF664E" stroke="black" stroke-width="2" stroke-linecap="round" stroke-linejoin="round"/>
<path d="M535.987 212.058V212.017C535.987 212.017 535.984 212.044 535.987 212.058Z" fill="#EF664E" stroke="black" stroke-width="2" stroke-linecap="round" stroke-linejoin="round"/>
<path d="M532.987 211.69C520.865 212.18 511.304 212.18 499.191 211.69C499.477 209.337 499.822 207.001 500.228 204.683C500.632 202.37 501.092 200.084 501.609 197.839H530.566C531.093 200.105 531.554 202.39 531.95 204.692C532.346 206.994 532.692 209.327 532.987 211.69Z" fill="#EF664E" stroke="black" stroke-width="2" stroke-linecap="round" stroke-linejoin="round"/>
<path d="M496.2 212.058H491.685C491.251 212.058 490.834 211.886 490.526 211.578C490.219 211.271 490.046 210.854 490.046 210.419V208.433C490.046 208.205 490.091 207.979 490.178 207.769C490.266 207.558 490.394 207.367 490.555 207.206C490.716 207.045 490.908 206.917 491.119 206.83C491.33 206.743 491.555 206.699 491.783 206.699H494.047C494.42 206.699 494.782 206.833 495.065 207.076C495.349 207.32 495.535 207.657 495.591 208.026L496.185 212.017L496.2 212.058Z" fill="#EF664E" stroke="black" stroke-width="2" stroke-linecap="round" stroke-linejoin="round"/>
<path d="M542.13 208.433V210.419C542.13 210.854 541.957 211.271 541.65 211.578C541.342 211.886 540.925 212.059 540.49 212.059H535.976V212.017L536.57 208.026C536.625 207.657 536.811 207.32 537.094 207.077C537.377 206.833 537.738 206.699 538.111 206.699H540.377C540.607 206.697 540.834 206.74 541.047 206.826C541.259 206.912 541.453 207.039 541.616 207.201C541.779 207.362 541.908 207.554 541.996 207.765C542.084 207.977 542.13 208.204 542.13 208.433Z" fill="#EF664E" stroke="black" stroke-width="2" stroke-linecap="round" stroke-linejoin="round"/>
<path d="M506.932 217.979C506.418 219.351 504.09 219.859 501.737 219.113C499.385 218.368 497.876 216.655 498.407 215.283C498.939 213.911 501.253 213.403 503.605 214.149C505.958 214.894 507.449 216.607 506.932 217.979Z" fill="#EF664E" stroke="black" stroke-width="2" stroke-linecap="round" stroke-linejoin="round"/>
<path d="M530.445 219.113C528.089 219.859 525.764 219.351 525.247 217.979C524.73 216.607 526.221 214.894 528.574 214.149C530.926 213.403 533.255 213.911 533.771 215.283C534.288 216.655 532.797 218.368 530.445 219.113Z" fill="#EF664E" stroke="black" stroke-width="2" stroke-linecap="round" stroke-linejoin="round"/>
<path d="M568.062 228.475V229.494C568.077 230.068 567.977 230.639 567.768 231.173C567.559 231.708 567.244 232.195 566.844 232.607C566.443 233.018 565.964 233.345 565.435 233.568C564.906 233.791 564.337 233.906 563.763 233.906C563.188 233.906 562.62 233.791 562.091 233.568C561.562 233.345 561.083 233.018 560.682 232.607C560.281 232.195 559.967 231.708 559.758 231.173C559.548 230.639 559.448 230.068 559.463 229.494V228.475H568.062Z" fill="#EF664E" stroke="black" stroke-width="2" stroke-linecap="round" stroke-linejoin="round"/>
<path d="M598.594 228.475V229.494C598.594 230.636 598.14 231.731 597.332 232.538C596.525 233.345 595.429 233.799 594.287 233.799C593.145 233.799 592.049 233.345 591.241 232.538C590.434 231.731 589.98 230.636 589.98 229.494V228.475H598.594Z" fill="#EF664E" stroke="black" stroke-width="2" stroke-linecap="round" stroke-linejoin="round"/>
<path d="M599.868 228.475H558.189C558.189 226.298 558.239 224.12 558.338 221.943H599.719C599.816 224.114 599.866 226.292 599.868 228.475Z" fill="#EF664E" stroke="black" stroke-width="2" stroke-linecap="round" stroke-linejoin="round"/>
<path d="M559.14 212.058C559.14 212.058 559.14 212.032 559.14 212.017V212.058Z" fill="#EF664E" stroke="black" stroke-width="2" stroke-linecap="round" stroke-linejoin="round"/>
<path d="M598.926 212.058V212.017C598.305 206.62 597.359 201.266 596.093 195.983C595.935 195.33 595.537 194.899 595.095 194.899H562.969C562.855 194.906 562.743 194.935 562.641 194.986C562.539 195.038 562.448 195.109 562.375 195.196C562.179 195.421 562.044 195.692 561.982 195.983C560.72 201.246 559.776 206.581 559.155 211.958C559.155 211.975 559.155 211.993 559.155 212.011V212.053C558.779 215.319 558.515 218.612 558.365 221.934H599.746C599.578 218.622 599.305 215.331 598.926 212.058ZM569.871 217.979C569.358 219.351 567.029 219.859 564.677 219.113C562.324 218.368 560.815 216.655 561.347 215.283C561.879 213.911 564.192 213.404 566.545 214.149C568.897 214.894 570.388 216.607 569.871 217.979ZM562.131 211.69C562.416 209.337 562.762 207.001 563.168 204.683C563.572 202.37 564.032 200.084 564.549 197.839H593.506C594.028 200.105 594.492 202.393 594.896 204.701C595.3 207.009 595.643 209.339 595.926 211.69C583.805 212.18 574.256 212.18 562.131 211.69ZM593.384 219.113C591.028 219.859 588.703 219.351 588.186 217.979C587.669 216.607 589.16 214.894 591.513 214.149C593.865 213.404 596.194 213.911 596.711 215.283C597.227 216.655 595.736 218.368 593.384 219.113Z" fill="#EF664E" stroke="black" stroke-width="2" stroke-linecap="round" stroke-linejoin="round"/>
<path d="M569.872 217.979C569.358 219.351 567.029 219.859 564.677 219.113C562.324 218.368 560.815 216.655 561.347 215.283C561.879 213.911 564.192 213.403 566.545 214.149C568.897 214.894 570.388 216.607 569.872 217.979Z" fill="#EF664E" stroke="black" stroke-width="2" stroke-linecap="round" stroke-linejoin="round"/>
<path d="M595.926 211.69C583.805 212.18 574.243 212.18 562.131 211.69C562.416 209.337 562.762 207.001 563.167 204.683C563.571 202.37 564.032 200.084 564.549 197.839H593.506C594.028 200.105 594.492 202.393 594.896 204.701C595.3 207.009 595.643 209.339 595.926 211.69Z" fill="#EF664E" stroke="black" stroke-width="2" stroke-linecap="round" stroke-linejoin="round"/>
<path d="M593.384 219.113C591.028 219.859 588.703 219.351 588.186 217.979C587.669 216.607 589.16 214.894 591.513 214.149C593.865 213.403 596.194 213.911 596.71 215.283C597.227 216.655 595.736 218.368 593.384 219.113Z" fill="#EF664E" stroke="black" stroke-width="2" stroke-linecap="round" stroke-linejoin="round"/>
<path d="M598.926 212.058V212.017C598.926 212.017 598.923 212.044 598.926 212.058Z" fill="#EF664E" stroke="black" stroke-width="2" stroke-linecap="round" stroke-linejoin="round"/>
<path d="M595.926 211.69C583.805 212.18 574.243 212.18 562.131 211.69C562.416 209.337 562.762 207.001 563.167 204.683C563.571 202.37 564.032 200.084 564.549 197.839H593.506C594.028 200.105 594.492 202.393 594.896 204.701C595.3 207.009 595.643 209.339 595.926 211.69Z" fill="#EF664E" stroke="black" stroke-width="2" stroke-linecap="round" stroke-linejoin="round"/>
<path d="M559.14 212.058H554.625C554.191 212.058 553.774 211.886 553.466 211.578C553.159 211.271 552.986 210.854 552.986 210.419V208.433C552.986 208.205 553.031 207.979 553.118 207.769C553.206 207.558 553.334 207.367 553.495 207.206C553.656 207.045 553.848 206.917 554.059 206.83C554.27 206.743 554.495 206.699 554.723 206.699H556.987C557.36 206.699 557.722 206.833 558.005 207.076C558.288 207.32 558.475 207.657 558.531 208.026L559.125 212.017L559.14 212.058Z" fill="#EF664E" stroke="black" stroke-width="2" stroke-linecap="round" stroke-linejoin="round"/>
<path d="M605.069 208.433V210.419C605.069 210.854 604.896 211.271 604.589 211.578C604.281 211.886 603.864 212.059 603.429 212.059H598.915V212.017L599.509 208.026C599.564 207.657 599.75 207.32 600.033 207.077C600.316 206.833 600.677 206.699 601.05 206.699H603.316C603.546 206.697 603.773 206.74 603.986 206.826C604.198 206.912 604.392 207.039 604.555 207.201C604.717 207.362 604.847 207.554 604.935 207.765C605.023 207.977 605.069 208.204 605.069 208.433Z" fill="#EF664E" stroke="black" stroke-width="2" stroke-linecap="round" stroke-linejoin="round"/>
<path d="M569.872 217.979C569.358 219.351 567.029 219.859 564.677 219.113C562.324 218.368 560.815 216.655 561.347 215.283C561.879 213.911 564.192 213.403 566.545 214.149C568.897 214.894 570.388 216.607 569.872 217.979Z" fill="#EF664E" stroke="black" stroke-width="2" stroke-linecap="round" stroke-linejoin="round"/>
<path d="M593.384 219.113C591.028 219.859 588.703 219.351 588.186 217.979C587.669 216.607 589.16 214.894 591.513 214.149C593.865 213.403 596.194 213.911 596.71 215.283C597.227 216.655 595.736 218.368 593.384 219.113Z" fill="#EF664E" stroke="black" stroke-width="2" stroke-linecap="round" stroke-linejoin="round"/>
<path d="M181.926 150.997H162.732V202.67H181.926V150.997Z" fill="#EF664E" stroke="black" stroke-width="2" stroke-linecap="round" stroke-linejoin="round"/>
<path d="M172.328 226.964V202.667" stroke="black" stroke-width="2" stroke-linecap="round" stroke-linejoin="round"/>
<path d="M172.329 182.372C175.39 182.372 177.871 179.892 177.871 176.832C177.871 173.772 175.39 171.291 172.329 171.291C169.268 171.291 166.786 173.772 166.786 176.832C166.786 179.892 169.268 182.372 172.329 182.372Z" fill="#EF664E" stroke="black" stroke-width="2" stroke-linecap="round" stroke-linejoin="round"/>
<path d="M172.329 196.028C175.39 196.028 177.871 193.547 177.871 190.487C177.871 187.427 175.39 184.947 172.329 184.947C169.268 184.947 166.786 187.427 166.786 190.487C166.786 193.547 169.268 196.028 172.329 196.028Z" fill="#EF664E" stroke="black" stroke-width="2" stroke-linecap="round" stroke-linejoin="round"/>
<path d="M172.329 168.717C175.39 168.717 177.871 166.236 177.871 163.176C177.871 160.116 175.39 157.636 172.329 157.636C169.268 157.636 166.786 160.116 166.786 163.176C166.786 166.236 169.268 168.717 172.329 168.717Z" fill="#EF664E" stroke="black" stroke-width="2" stroke-linecap="round" stroke-linejoin="round"/>
<path d="M71.3613 266.615V204.3" stroke="black" stroke-width="2" stroke-linecap="round" stroke-linejoin="round"/>
<path d="M62.6971 211.399L50.4448 199.151V181.826L62.6971 169.575H80.0284L92.2806 181.826V199.151L80.0284 211.399H62.6971Z" fill="#EF664E" stroke="black" stroke-width="2" stroke-linecap="round" stroke-linejoin="round"/>
<path d="M78.258 173.845H64.4672L54.7129 183.593V197.382L64.4672 207.133H78.258L88.0122 197.382V183.593L78.258 173.845Z" fill="#EF664E" stroke="black" stroke-width="2" stroke-linecap="round" stroke-linejoin="round"/>
<path d="M64.4999 191.803C64.4999 193.07 63.698 193.929 61.8772 193.929C60.7634 193.929 59.798 193.462 59.2842 192.717L60.2465 191.859C60.4562 192.106 60.7184 192.302 61.0139 192.434C61.3095 192.566 61.6308 192.63 61.9544 192.622C62.7445 192.622 63.1158 192.402 63.1158 191.898C63.1158 191.47 62.8871 191.28 61.6307 191.007C60.3743 190.734 59.5515 190.33 59.5515 189.017C59.5515 187.806 60.6178 187.064 61.9277 187.064C62.3846 187.054 62.8384 187.142 63.2581 187.323C63.6778 187.504 64.0537 187.773 64.3603 188.112L63.395 189.044C63.2048 188.83 62.9716 188.658 62.7106 188.54C62.4496 188.422 62.1667 188.36 61.8802 188.358C61.1643 188.358 60.9267 188.655 60.9267 188.952C60.9267 189.374 61.2237 189.507 62.2722 189.754C63.3207 190 64.4999 190.354 64.4999 191.803Z" fill="black"/>
<path d="M70.4021 188.468H68.4863V193.813H67.1526V188.468H65.2368V187.153H70.4021V188.468Z" fill="black"/>
<path d="M76.8801 190.478C76.8801 192.631 75.6683 193.928 73.9337 193.928C72.199 193.928 70.9961 192.652 70.9961 190.499C70.9961 188.346 72.208 187.049 73.9663 187.049C75.7247 187.049 76.8801 188.326 76.8801 190.478ZM75.5049 190.499C75.5049 189.145 74.8574 188.373 73.9248 188.373C72.9921 188.373 72.3713 189.124 72.3713 190.478C72.3713 191.832 73.0188 192.604 73.9515 192.604C74.8841 192.604 75.5049 191.85 75.5049 190.499Z" fill="black"/>
<path d="M83.4443 189.267C83.4443 190.811 82.4136 191.461 81.0324 191.461H79.5651V193.837H78.2285V187.153H81.1453C82.4017 187.153 83.4443 187.848 83.4443 189.267ZM82.072 189.297C82.072 188.703 81.6888 188.447 81.0978 188.447H79.5651V190.164H81.1186C81.7334 190.164 82.069 189.879 82.069 189.297H82.072Z" fill="black"/>
<path d="M466.884 41.4655C466.884 37.147 465.168 33.0053 462.114 29.9516C459.059 26.8979 454.916 25.1824 450.596 25.1824C446.276 25.1824 442.133 26.8979 439.078 29.9516C436.023 33.0053 434.307 37.147 434.307 41.4655C430.194 41.4663 426.25 43.0998 423.342 46.0069C420.434 48.914 418.8 52.8566 418.799 56.9678C418.8 61.079 420.434 65.0216 423.342 67.9286C426.25 70.8357 430.194 72.4692 434.307 72.47H466.884C470.997 72.47 474.942 70.8368 477.85 67.9295C480.758 65.0223 482.392 61.0792 482.392 56.9678C482.392 52.8563 480.758 48.9133 477.85 46.006C474.942 43.0988 470.997 41.4655 466.884 41.4655Z" fill="#EF664E" stroke="black" stroke-width="2" stroke-linecap="round" stroke-linejoin="round"/>
<path d="M617.986 70.0678C617.986 64.8212 615.215 59.8834 610.59 57.4041C608.465 56.2673 606.087 55.6835 603.677 55.7063C601.266 55.7291 598.9 56.3579 596.797 57.5348C596.229 53.9647 594.335 50.7398 591.494 48.5036C588.653 46.2674 585.073 45.1842 581.468 45.4701C577.863 45.756 574.499 47.3901 572.046 50.0462C569.593 52.7024 568.232 56.1854 568.235 59.8003C568.233 60.4278 568.274 61.0548 568.356 61.6768C566.051 60.3624 563.426 59.7156 560.773 59.8092C557.153 59.9457 553.715 61.4381 551.144 63.9903C548.573 66.5425 547.056 69.9678 546.894 73.5863C546.894 73.8001 546.894 74.0139 546.894 74.2277C546.917 79.6851 551.474 84.0439 556.933 84.0439H604.008C605.844 84.0439 607.662 83.6824 609.358 82.98C611.054 82.2776 612.595 81.2481 613.893 79.9502C615.191 78.6524 616.221 77.1117 616.923 75.416C617.625 73.7204 617.987 71.903 617.986 70.0678Z" fill="#EF664E" stroke="black" stroke-width="2" stroke-linecap="round" stroke-linejoin="round"/>
<path d="M46.8682 288.23H64.6896" stroke="black" stroke-width="2" stroke-linecap="round" stroke-linejoin="round"/>
<path d="M101.167 288.23H666.546" stroke="black" stroke-width="2" stroke-linecap="round" stroke-linejoin="round" stroke-dasharray="122.81 122.81"/>
<path d="M684.786 288.23H702.608" stroke="black" stroke-width="2" stroke-linecap="round" stroke-linejoin="round"/>
<path d="M702.608 321.349H53.6973" stroke="black" stroke-width="2" stroke-linecap="round" stroke-linejoin="round"/>
<path d="M702.608 266.615H53.6973" stroke="black" stroke-width="2" stroke-linecap="round" stroke-linejoin="round"/>
<path d="M197.426 229.523C197.408 229.6 197.394 229.677 197.379 229.677C197.394 229.633 197.408 229.574 197.426 229.523Z" fill="black" stroke="black" stroke-width="2" stroke-miterlimit="10"/>
<path d="M197.468 229.366C197.468 229.416 197.442 229.463 197.427 229.51C197.442 229.436 197.454 229.366 197.468 229.366Z" fill="black" stroke="black" stroke-width="2" stroke-miterlimit="10"/>
<path d="M213.03 244.58C213.027 246.034 213.272 247.478 213.754 248.85H200.629C197.733 248.85 195.38 246.668 195.38 243.98L195.276 242.852C194.92 239.019 195.462 235.156 196.86 231.569L196.975 230.993C197.083 230.546 197.218 230.106 197.379 229.675C201.255 229.956 205.097 228.787 208.158 226.394C208.614 226.04 209.051 225.662 209.468 225.263L218.174 234.17C216.583 235.402 215.292 236.979 214.401 238.782C213.51 240.586 213.041 242.569 213.03 244.58Z" fill="#EF664E" stroke="black" stroke-width="2" stroke-linecap="round" stroke-linejoin="round"/>
<path d="M197.379 229.677C197.379 229.627 197.408 229.574 197.426 229.523C197.408 229.6 197.394 229.677 197.379 229.677Z" fill="#EF664E" stroke="black" stroke-width="2" stroke-miterlimit="10"/>
<path d="M278.086 186.648V245.735H264.771C261.728 245.734 258.708 246.261 255.845 247.294C254.416 247.808 252.945 248.199 251.449 248.464C249.954 248.725 248.438 248.856 246.92 248.856H240.682C241.164 247.484 241.409 246.04 241.407 244.586C241.407 237.124 235.057 231.076 227.224 231.076C223.954 231.062 220.774 232.148 218.197 234.161L209.492 225.254C212.631 222.225 214.143 218.237 213.813 214.499L216.718 213.742L220.087 212.851C224.369 211.743 228.242 209.426 231.243 206.176L247.243 188.744C247.866 188.075 248.621 187.543 249.46 187.18C250.299 186.817 251.204 186.632 252.118 186.636L278.086 186.648Z" fill="#EF664E" stroke="black" stroke-width="2" stroke-miterlimit="10"/>
<path d="M209.48 225.254C209.063 225.653 208.625 226.031 208.168 226.385C205.107 228.778 201.266 229.947 197.392 229.666C197.392 229.666 197.421 229.589 197.439 229.512C197.439 229.464 197.466 229.417 197.481 229.366C199.56 222.29 205.399 216.696 212.947 214.728L213.814 214.502C214.135 218.24 212.617 222.228 209.48 225.254Z" fill="#EF664E" stroke="black" stroke-width="2" stroke-miterlimit="10"/>
<path d="M255.842 192.732C254.684 192.727 253.537 192.963 252.474 193.422C251.411 193.882 250.454 194.557 249.664 195.404L238.3 207.756C236.861 209.303 236.058 211.335 236.052 213.448V218.404C236.052 220.942 238.68 222.721 241.196 221.883L271.701 211.732V192.729L255.842 192.732Z" fill="#EF664E" stroke="black" stroke-width="2" stroke-miterlimit="10"/>
<path d="M382.669 195.217V245.729H365.189C365.224 245.352 365.242 244.966 365.242 244.58C365.242 237.119 358.892 231.07 351.059 231.07C343.227 231.07 336.876 237.119 336.876 244.58C336.876 244.966 336.894 245.352 336.93 245.729H278.086V186.642H374.099C375.225 186.642 376.34 186.864 377.38 187.296C378.42 187.727 379.365 188.359 380.161 189.155C380.957 189.951 381.588 190.896 382.018 191.937C382.448 192.977 382.669 194.091 382.669 195.217Z" fill="#EF664E" stroke="black" stroke-width="2" stroke-miterlimit="10"/>
<path d="M227.203 231.07C223.933 231.056 220.754 232.142 218.177 234.155C216.581 235.387 215.288 236.966 214.394 238.772C213.501 240.579 213.031 242.565 213.021 244.58C213.018 246.034 213.263 247.478 213.745 248.85C215.617 254.221 220.933 258.093 227.203 258.093C233.474 258.093 238.787 254.233 240.662 248.85C241.143 247.478 241.389 246.034 241.386 244.58C241.395 237.118 235.045 231.07 227.203 231.07ZM234.846 248.85C234.024 250.13 232.893 251.184 231.557 251.913C230.222 252.643 228.724 253.025 227.202 253.025C225.68 253.025 224.182 252.643 222.847 251.913C221.511 251.184 220.38 250.13 219.558 248.85C218.761 247.568 218.339 246.089 218.34 244.58C218.34 239.918 222.308 236.139 227.203 236.139C232.098 236.139 236.064 239.918 236.064 244.58C236.067 246.088 235.648 247.567 234.855 248.85H234.846Z" fill="#EF664E" stroke="black" stroke-width="2" stroke-linecap="round" stroke-linejoin="round"/>
<path d="M236.073 244.58C236.073 246.089 235.652 247.568 234.855 248.85C234.033 250.13 232.902 251.184 231.566 251.913C230.23 252.643 228.733 253.025 227.211 253.025C225.689 253.025 224.191 252.643 222.856 251.913C221.52 251.184 220.389 250.13 219.567 248.85C218.77 247.568 218.348 246.089 218.349 244.58C218.349 239.918 222.317 236.139 227.212 236.139C232.107 236.139 236.073 239.918 236.073 244.58Z" fill="#EF664E" stroke="black" stroke-width="2" stroke-linecap="round" stroke-linejoin="round"/>
<path d="M351.062 231.07C343.23 231.07 336.879 237.118 336.879 244.58C336.879 244.966 336.897 245.352 336.933 245.729C337.527 252.656 343.637 258.093 351.062 258.093C358.488 258.093 364.583 252.656 365.192 245.729C365.227 245.352 365.245 244.966 365.245 244.58C365.242 237.118 358.892 231.07 351.062 231.07ZM359.839 245.729C359.245 249.85 355.547 253.025 351.062 253.025C346.577 253.025 342.87 249.85 342.282 245.729C342.226 245.349 342.198 244.965 342.199 244.58C342.199 239.918 346.167 236.139 351.062 236.139C355.957 236.139 359.923 239.918 359.923 244.58C359.922 244.965 359.894 245.349 359.836 245.729H359.839Z" fill="#EF664E" stroke="black" stroke-width="2" stroke-linecap="round" stroke-linejoin="round"/>
<path d="M359.92 244.58C359.921 244.965 359.893 245.349 359.837 245.729C359.243 249.85 355.545 253.025 351.059 253.025C346.574 253.025 342.868 249.85 342.279 245.729C342.223 245.349 342.195 244.965 342.196 244.58C342.196 239.918 346.165 236.139 351.059 236.139C355.954 236.139 359.92 239.918 359.92 244.58Z" fill="#EF664E" stroke="black" stroke-width="2" stroke-linecap="round" stroke-linejoin="round"/>
<path d="M366.787 192.732H286.365C283.681 192.732 281.505 194.907 281.505 197.589V214.938C281.505 217.621 283.681 219.796 286.365 219.796H366.787C369.471 219.796 371.646 217.621 371.646 214.938V197.589C371.646 194.907 369.471 192.732 366.787 192.732Z" fill="#EF664E" stroke="black" stroke-width="2" stroke-miterlimit="10"/>
<path d="M330.377 245.729V219.796" stroke="black" stroke-width="2" stroke-miterlimit="10"/>
<path d="M321.871 213.394C320.511 213.415 319.167 213.098 317.959 212.471C316.83 211.881 315.876 211.006 315.191 209.932C314.519 208.835 314.163 207.574 314.163 206.288C314.163 205.001 314.519 203.74 315.191 202.643C315.881 201.565 316.84 200.686 317.974 200.092C319.194 199.454 320.554 199.131 321.93 199.154C322.966 199.142 323.994 199.333 324.957 199.715C325.879 200.091 326.714 200.655 327.408 201.369L324.624 204.059C324.304 203.692 323.895 203.412 323.436 203.246C322.948 203.073 322.433 202.987 321.916 202.993C321.315 202.98 320.721 203.12 320.19 203.4C319.702 203.67 319.296 204.067 319.017 204.549C318.732 205.077 318.583 205.667 318.583 206.267C318.583 206.866 318.732 207.457 319.017 207.985C319.294 208.477 319.706 208.881 320.205 209.148C320.732 209.425 321.32 209.565 321.916 209.555C322.456 209.561 322.992 209.46 323.493 209.258C323.955 209.073 324.363 208.775 324.681 208.391L327.464 211.108C326.761 211.836 325.919 212.413 324.987 212.807C323.997 213.203 322.937 213.398 321.871 213.38V213.394Z" fill="black"/>
<path d="M337.755 199.463V200.621C337.367 200.261 336.928 199.961 336.451 199.73C335.645 199.349 334.762 199.157 333.87 199.169C332.646 199.151 331.441 199.476 330.392 200.107C329.379 200.724 328.549 201.601 327.989 202.646C327.395 203.768 327.096 205.023 327.119 206.292C327.098 207.551 327.397 208.794 327.989 209.906C328.55 210.965 329.394 211.848 330.427 212.457C331.46 213.066 332.642 213.377 333.841 213.356C334.739 213.37 335.63 213.188 336.451 212.821C336.931 212.605 337.371 212.311 337.755 211.951V213.074H342.015V199.463H337.755ZM337.072 208.644C336.762 208.953 336.39 209.194 335.981 209.351C335.571 209.508 335.134 209.577 334.696 209.555C334.118 209.566 333.547 209.42 333.044 209.134C332.567 208.86 332.172 208.463 331.901 207.985C331.613 207.472 331.467 206.892 331.479 206.304C331.466 205.702 331.611 205.107 331.901 204.579C332.169 204.094 332.564 203.691 333.044 203.415C333.562 203.138 334.139 202.994 334.726 202.994C335.312 202.994 335.89 203.138 336.407 203.415C336.882 203.687 337.272 204.084 337.535 204.564C337.816 205.09 337.956 205.679 337.942 206.274C337.962 206.707 337.895 207.14 337.746 207.546C337.596 207.953 337.367 208.326 337.072 208.644Z" fill="black"/>
<path d="M352.509 199.211C352.215 199.158 351.917 199.132 351.618 199.133C350.886 199.131 350.166 199.307 349.518 199.647C348.859 199.993 348.275 200.466 347.801 201.04C347.676 201.19 347.558 201.347 347.448 201.509L347.362 199.454H343.34V213.086H347.602V206.239C347.595 205.86 347.663 205.484 347.801 205.131C347.928 204.817 348.112 204.529 348.345 204.282C348.584 204.037 348.875 203.848 349.197 203.73C349.545 203.598 349.915 203.533 350.287 203.537C350.632 203.535 350.976 203.574 351.312 203.652C351.588 203.71 351.854 203.81 352.099 203.949L353.269 199.395C353.019 199.32 352.765 199.259 352.509 199.211Z" fill="black"/>
<path d="M309.043 199.442V207.18C309.038 207.494 308.971 207.804 308.846 208.092C308.721 208.381 308.54 208.641 308.314 208.86C308.088 209.078 307.822 209.25 307.529 209.365C307.237 209.481 306.925 209.537 306.61 209.532C305.976 209.542 305.363 209.3 304.907 208.859C304.451 208.418 304.189 207.814 304.178 207.18V199.442H299.889V206.865C299.889 210.452 302.903 213.368 306.61 213.368C310.317 213.368 313.335 210.452 313.335 206.865V199.442H309.043Z" fill="black"/>
<path d="M124.22 294.923C124.22 294.923 123.329 290.668 124.22 290.668C125.111 290.668 128.512 293.195 130.16 290.668C131.809 288.142 131.315 284.35 133.772 283.898C136.228 283.447 133.772 281.784 133.772 279.112C133.772 276.44 132.762 269.51 126.115 271.241C119.467 272.972 115.157 274.709 115.544 280.125C115.93 285.54 118.392 294.971 118.392 294.971L124.22 294.923Z" fill="#EF664E" stroke="black" stroke-width="2" stroke-miterlimit="10"/>
<path d="M117.706 349.619C116.221 352.541 114.299 356.386 112.502 360.011L103.389 356.243C104.482 352.983 105.388 349.663 106.101 346.299L117.706 349.619Z" fill="#EF664E" stroke="black" stroke-width="2" stroke-linejoin="round"/>
<path d="M117.705 349.619L106.101 346.29C106.398 344.87 106.623 343.435 106.775 341.991C108.094 328.962 112.787 317.706 112.787 317.706L116.989 320.001C119.618 321.438 121.668 323.74 122.791 326.517C123.913 329.294 124.039 332.374 123.147 335.233L121.828 339.452C120.736 342.949 119.357 346.349 117.705 349.619Z" fill="black" stroke="black" stroke-width="2" stroke-miterlimit="10"/>
<path d="M108.836 381.467L95.5205 375.959C98.5042 369.534 101.131 362.949 103.389 356.234L112.501 360.002C110.321 364.412 108.343 368.494 107.639 370.19C106.513 372.912 108.5 377.054 110.214 379.866C110.336 380.067 110.391 380.3 110.371 380.534C110.352 380.768 110.259 380.989 110.106 381.167C109.953 381.344 109.748 381.469 109.52 381.523C109.292 381.577 109.052 381.557 108.836 381.467Z" fill="black" stroke="black" stroke-width="2" stroke-miterlimit="10"/>
<path d="M112.505 360.006L112.501 360.002" stroke="black" stroke-width="2" stroke-miterlimit="10"/>
<path d="M125.815 322.266L110.491 320.607L110.767 313.68L125.482 316.046L125.815 322.266Z" fill="black" stroke="black" stroke-width="2" stroke-miterlimit="10"/>
<path d="M125.482 316.037L110.767 313.662L111.138 304.252C111.197 302.783 111.559 301.342 112.202 300.019C112.845 298.697 113.756 297.522 114.876 296.569C115.996 295.616 117.302 294.905 118.711 294.482C120.119 294.059 121.601 293.932 123.061 294.109C123.416 294.153 123.744 294.32 123.988 294.581C124.231 294.842 124.376 295.181 124.395 295.538L125.482 316.037Z" fill="black" stroke="black" stroke-width="2" stroke-miterlimit="10"/>
<path d="M128.55 304.534L120.53 309.6C118.556 306.505 117.016 303.155 115.953 299.641L115.686 298.75C115.562 298.341 115.529 297.91 115.59 297.486C115.651 297.063 115.805 296.658 116.039 296.301C116.274 295.943 116.585 295.642 116.949 295.417C117.314 295.193 117.723 295.052 118.148 295.003L118.407 294.974C120.481 294.736 122.572 295.257 124.292 296.442C126.011 297.627 127.243 299.394 127.76 301.417L128.55 304.534Z" fill="black" stroke="black" stroke-width="2" stroke-miterlimit="10"/>
<path d="M138.097 313.403L139.852 297.37C139.95 296.467 140.385 295.633 141.069 295.036C141.754 294.438 142.638 294.12 143.547 294.145L168.497 294.828C169.449 294.858 170.352 295.263 171.008 295.954C171.664 296.645 172.021 297.566 172.002 298.519L171.61 316.961C171.601 317.466 171.486 317.964 171.273 318.422C171.059 318.881 170.753 319.289 170.372 319.622C169.991 319.955 169.545 320.204 169.062 320.353C168.578 320.503 168.069 320.55 167.567 320.491L141.269 317.403C140.319 317.29 139.452 316.807 138.857 316.057C138.263 315.308 137.989 314.354 138.097 313.403Z" fill="#EF664E" stroke="black" stroke-width="2" stroke-miterlimit="10"/>
<path d="M138.756 307.32H141.61C143.971 307.316 146.234 306.375 147.901 304.705C149.569 303.035 150.506 300.772 150.506 298.412V294.124" fill="#EF664E"/>
<path d="M138.756 307.32H141.61C143.971 307.316 146.234 306.375 147.901 304.705C149.569 303.035 150.506 300.772 150.506 298.412V294.124" stroke="black" stroke-width="2" stroke-miterlimit="10"/>
<path d="M161.359 294.629V301.458C161.359 303.016 161.978 304.51 163.08 305.611C164.182 306.713 165.676 307.331 167.234 307.331H172.005" fill="#EF664E"/>
<path d="M161.359 294.629V301.458C161.359 303.016 161.978 304.51 163.08 305.611C164.182 306.713 165.676 307.331 167.234 307.331H172.005" stroke="black" stroke-width="2" stroke-miterlimit="10"/>
<path d="M147.812 325.013C147.444 324.96 147.084 324.903 146.728 324.847C141.204 323.936 135.935 321.869 131.267 318.78C126.599 315.692 122.636 311.652 119.639 306.925L127.659 301.859C129.011 304.99 130.872 307.874 133.169 310.396C136.436 313.982 140.68 316.928 145.495 316.358C156.827 314.995 147.221 319.413 147.221 319.413C147.221 319.413 149.653 320.711 151.29 320.868C154.73 321.189 153.904 325.931 147.812 325.013Z" fill="#EF664E" stroke="black" stroke-width="2" stroke-linejoin="round"/>
<path d="M128.951 280.294C128.911 280.52 128.94 280.754 129.033 280.964C129.126 281.175 129.28 281.353 129.474 281.476C129.669 281.599 129.895 281.662 130.125 281.657C130.356 281.651 130.579 281.578 130.767 281.445C130.956 281.313 131.101 281.128 131.184 280.913C131.267 280.699 131.284 280.464 131.234 280.24C131.184 280.015 131.069 279.81 130.902 279.651C130.736 279.492 130.526 279.386 130.299 279.347C130.148 279.32 129.994 279.324 129.845 279.357C129.695 279.39 129.554 279.453 129.429 279.541C129.303 279.629 129.197 279.74 129.115 279.87C129.033 279.999 128.977 280.143 128.951 280.294Z" fill="black"/>
<path d="M127.246 348.217C127 351.484 126.685 355.771 126.409 359.797H116.548C116.31 356.368 115.876 352.955 115.25 349.574L127.246 348.217Z" fill="#EF664E" stroke="black" stroke-width="2" stroke-linejoin="round"/>
<path d="M127.246 348.217L115.25 349.589C114.98 348.163 114.639 346.75 114.228 345.358C110.464 332.816 110.491 320.619 110.491 320.619L125.815 322.278L127.166 337.258C127.494 340.903 127.52 344.568 127.246 348.217Z" fill="black" stroke="black" stroke-width="2" stroke-miterlimit="10"/>
<path d="M131.233 381.033H116.824C117.122 373.956 117.03 366.868 116.548 359.8H126.409C126.082 364.709 123.736 370.525 123.736 372.36C123.736 375.306 129.237 377.087 131.895 379.029C132.084 379.168 132.223 379.363 132.294 379.586C132.365 379.809 132.364 380.049 132.291 380.271C132.217 380.493 132.075 380.687 131.885 380.824C131.695 380.961 131.467 381.034 131.233 381.033Z" fill="black" stroke="black" stroke-width="2" stroke-miterlimit="10"/>
<path d="M126.415 359.8H126.408" stroke="black" stroke-width="2" stroke-miterlimit="10"/>
<path d="M128.229 284.29C128.229 284.29 128.823 286.593 131.698 286.445L128.229 284.29Z" fill="#EF664E"/>
<path d="M128.229 284.29C128.229 284.29 128.823 286.593 131.698 286.445" stroke="black" stroke-width="2" stroke-miterlimit="10" stroke-linecap="round"/>
<path d="M131.892 276.574C132.319 276.577 132.742 276.495 133.138 276.334C133.533 276.172 133.892 275.934 134.195 275.632C134.497 275.331 134.737 274.973 134.9 274.578C135.063 274.184 135.146 273.761 135.144 273.334C135.144 270.487 134.435 266.802 130.879 266.802C125.069 266.802 114.626 267.725 112.378 279.685C110.129 291.645 99.8193 292.117 99.8193 297.462C99.8193 305.033 111.59 306.812 115.951 299.626C120.311 292.441 122.331 276.912 125.815 276.68C127.633 276.574 130.024 276.547 131.892 276.574Z" fill="#EF664E" stroke="black" stroke-width="2" stroke-miterlimit="10" stroke-linecap="round"/>
<path d="M153.304 294.406C153.304 294.406 159.512 282.758 164.493 287.735C169.474 292.711 165.592 294.745 165.592 294.745" stroke="black" stroke-width="2" stroke-miterlimit="10"/>
<path d="M418.618 212.047L412.095 244.583L389.408 239.63" stroke="black" stroke-width="2" stroke-linecap="round" stroke-linejoin="round"/>
<path d="M415.811 224.317L397.324 220.088L392.681 240.369L411.168 244.598L415.811 224.317Z" fill="#EF664E" stroke="black" stroke-width="2" stroke-linecap="round" stroke-linejoin="round"/>
<path d="M397.345 220.072L402.097 228.49C402.372 228.976 402.746 229.4 403.194 229.734C403.642 230.068 404.154 230.305 404.699 230.429C405.244 230.554 405.809 230.564 406.358 230.458C406.906 230.352 407.427 230.133 407.886 229.814L415.832 224.3L397.345 220.072Z" fill="#EF664E" stroke="black" stroke-width="2" stroke-linecap="round" stroke-linejoin="round"/>
<path d="M412.095 248.731C414.386 248.731 416.244 246.874 416.244 244.583C416.244 242.292 414.386 240.435 412.095 240.435C409.803 240.435 407.945 242.292 407.945 244.583C407.945 246.874 409.803 248.731 412.095 248.731Z" fill="#EF664E" stroke="black" stroke-width="2" stroke-miterlimit="10"/>
<path d="M426.982 195.256C426.982 195.256 426.72 198.819 425.9 199.46C425.081 200.101 426.441 200.998 426.441 200.998C426.441 200.998 426.055 204.184 427.709 203.967C429.364 203.751 430.249 202.854 430.709 204.312L434.36 203.929L435.494 200.96L435.197 195.891L426.982 195.256Z" fill="#EF664E" stroke="black" stroke-width="2" stroke-linecap="round" stroke-linejoin="round"/>
<path d="M427.891 251.187H429.016C429.016 251.187 427.409 243.113 428.856 236.186C430.302 229.259 436.085 223.523 436.085 223.523L428.957 221.189C428.957 221.189 422.853 227.816 422.182 239.5C421.938 243.713 423.218 248.586 421.273 248.586C418.897 248.586 419.146 251.187 419.146 251.187H427.897H427.891Z" fill="black" stroke="black" stroke-width="2" stroke-linecap="round" stroke-linejoin="round"/>
<path d="M438.723 251.187H439.846C439.846 251.187 436.578 243.143 437.401 236.115C437.899 231.925 437.799 227.685 437.104 223.523L429.976 221.189C429.976 221.189 431.404 227.742 430.733 239.429C430.489 243.642 434.054 248.586 432.108 248.586C429.732 248.586 429.984 251.187 429.984 251.187H438.735H438.723Z" fill="black" stroke="black" stroke-width="2" stroke-linecap="round" stroke-linejoin="round"/>
<path d="M434.686 203.667C438.307 206.637 439.002 214.25 438.331 220.889C438.162 222.779 438.098 224.677 438.14 226.575L424.774 224.832C425.097 222.032 425.77 219.284 426.776 216.652C428.306 212.64 430.655 208.878 430.575 203.955L434.686 203.667Z" fill="#EF664E" stroke="black" stroke-width="2" stroke-linecap="round" stroke-linejoin="round"/>
<path d="M428.187 198.804C428.451 198.804 428.665 198.59 428.665 198.326C428.665 198.062 428.451 197.848 428.187 197.848C427.923 197.848 427.709 198.062 427.709 198.326C427.709 198.59 427.923 198.804 428.187 198.804Z" fill="black"/>
<path d="M435.292 202.281C435.292 202.281 432.236 200.66 433.664 199.463C435.322 198.079 434.743 196.512 433.614 196.224C432.197 195.858 431.971 197.204 431.553 197.236C429.072 197.423 427.127 196.939 425.945 194.504C425.41 193.406 429.937 193.067 433.038 193.067C436.139 193.067 438.221 202.83 435.292 202.281Z" fill="black" stroke="black" stroke-width="2" stroke-linecap="round" stroke-linejoin="round"/>
<path d="M433.534 212.673C429.23 216.01 424.534 216.589 419.324 216.563L420.919 211.218C428.164 210.624 433.044 207.75 433.044 207.75" fill="#EF664E"/>
<path d="M433.534 212.673C429.23 216.01 424.534 216.589 419.324 216.563L420.919 211.218C428.164 210.624 433.044 207.75 433.044 207.75" stroke="black" stroke-width="2" stroke-linecap="round" stroke-linejoin="round"/>
<path d="M417.299 216.527C418.317 216.59 419.327 216.563 419.327 216.563L420.922 211.218C420.922 211.218 418.406 209.716 418.163 210.975C418.079 211.311 418.074 211.662 418.148 212C418.223 212.338 418.374 212.655 418.591 212.926C418.591 212.926 414.89 212.483 415.175 213.546L415.19 214.324C415.201 214.889 415.424 215.428 415.815 215.836C416.205 216.244 416.735 216.491 417.299 216.527Z" fill="#EF664E" stroke="black" stroke-width="2" stroke-linecap="round" stroke-linejoin="round"/>
<path d="M426.42 202.218C426.42 202.218 427.985 202.473 428.68 201.176L426.42 202.218Z" fill="#EF664E"/>
<path d="M426.42 202.218C426.42 202.218 427.985 202.473 428.68 201.176" stroke="black" stroke-width="2" stroke-linecap="round" stroke-linejoin="round"/>
<path d="M489.449 266.472C489.447 268.218 489.749 269.951 490.34 271.594H478.881C476.595 271.589 474.404 270.678 472.789 269.061C471.174 267.443 470.267 265.251 470.267 262.966V259.64H491.091C490.013 261.756 489.451 264.097 489.449 266.472Z" fill="#EF664E" stroke="black" stroke-width="2" stroke-miterlimit="10"/>
<path d="M613.352 266.472C613.351 268.218 613.652 269.951 614.243 271.594H518.937C519.631 269.656 519.923 267.597 519.797 265.542C519.671 263.487 519.129 261.479 518.204 259.64H614.974C613.904 261.759 613.349 264.099 613.352 266.472Z" fill="#EF664E" stroke="black" stroke-width="2" stroke-miterlimit="10"/>
<path d="M676.517 255.48V258.746C676.518 261.139 675.637 263.448 674.042 265.232C672.448 267.016 670.252 268.151 667.874 268.42L642.965 271.235C643.606 269.284 643.846 267.224 643.669 265.178C643.492 263.132 642.903 261.143 641.938 259.331L643.209 259.189L676.517 255.48Z" fill="#EF664E" stroke="black" stroke-width="2" stroke-linecap="round" stroke-linejoin="round"/>
<path d="M676.52 255.465L643.209 259.165L641.938 259.308C640.627 256.854 638.667 254.808 636.273 253.392C633.878 251.976 631.14 251.244 628.358 251.277C625.576 251.31 622.857 252.107 620.497 253.579C618.136 255.052 616.226 257.144 614.974 259.628H518.204C516.938 257.117 514.999 255.007 512.604 253.532C510.209 252.057 507.451 251.276 504.638 251.276C501.826 251.276 499.068 252.057 496.673 253.532C494.278 255.007 492.339 257.117 491.073 259.628H470.249V252.793C470.249 252.523 470.249 252.256 470.282 251.988C470.432 249.965 471.149 248.025 472.352 246.391C473.554 244.757 475.193 243.494 477.081 242.748C482.023 240.791 487.128 239.269 492.336 238.199C498.462 236.938 504.701 236.302 510.956 236.302C511.782 236.302 512.611 236.302 513.436 236.335L525.374 236.658L532.96 231.822C546.873 222.956 563.03 218.246 579.53 218.246H597.09C611.875 218.244 626.454 221.701 639.663 228.342L650.355 233.722L662.955 233.594C664.046 233.583 665.128 233.788 666.138 234.198C667.149 234.608 668.069 235.213 668.844 235.981C669.619 236.748 670.234 237.661 670.654 238.667C671.074 239.673 671.29 240.752 671.29 241.843C671.284 246.881 673.15 251.742 676.526 255.483L676.52 255.465Z" fill="black" stroke="black" stroke-width="2" stroke-linecap="round" stroke-linejoin="round"/>
<path d="M531.602 244.999C530.486 245.031 530.04 243.256 530.982 242.523L537.335 237.588C549.961 227.789 564.551 222.59 579.512 222.59H597.072C610.519 222.59 623.974 226.483 635.982 233.852L644.504 239.081C645.529 239.711 645.184 241.59 644.038 241.623L531.602 244.999Z" fill="#EF664E" stroke="black" stroke-width="2" stroke-miterlimit="10"/>
<path d="M518.203 259.64C516.528 256.309 513.687 253.709 510.22 252.334C506.754 250.959 502.903 250.905 499.398 252.181C495.894 253.458 492.981 255.977 491.212 259.259C489.443 262.541 488.942 266.359 489.804 269.987C490.665 273.614 492.829 276.799 495.885 278.936C498.941 281.074 502.676 282.015 506.38 281.581C510.084 281.147 513.5 279.368 515.979 276.582C518.457 273.796 519.826 270.197 519.825 266.469C519.826 264.097 519.27 261.758 518.203 259.64ZM509.153 271.594C507.981 272.626 506.49 273.225 504.929 273.292C503.369 273.358 501.832 272.888 500.576 271.96C499.321 271.031 498.421 269.7 498.027 268.189C497.634 266.678 497.77 265.078 498.414 263.655C499.057 262.232 500.169 261.073 501.564 260.37C502.959 259.667 504.553 259.464 506.08 259.793C507.607 260.123 508.974 260.965 509.955 262.181C510.936 263.396 511.471 264.911 511.47 266.472C511.472 267.442 511.266 268.4 510.867 269.284C510.467 270.167 509.883 270.955 509.153 271.594Z" fill="#EF664E" stroke="black" stroke-width="2" stroke-miterlimit="10"/>
<path d="M511.47 266.472C511.47 267.823 511.069 269.143 510.318 270.266C509.568 271.389 508.501 272.265 507.253 272.781C506.004 273.298 504.631 273.434 503.305 273.17C501.98 272.907 500.763 272.256 499.808 271.301C498.852 270.346 498.202 269.129 497.938 267.804C497.674 266.48 497.81 265.107 498.327 263.859C498.844 262.611 499.719 261.544 500.843 260.794C501.966 260.043 503.287 259.643 504.638 259.643C505.536 259.64 506.426 259.815 507.256 260.157C508.086 260.499 508.84 261.002 509.475 261.637C510.11 262.272 510.613 263.026 510.955 263.855C511.298 264.685 511.473 265.574 511.47 266.472Z" fill="#EF664E" stroke="black" stroke-width="2" stroke-miterlimit="10"/>
<path d="M641.938 259.325C640.194 256.047 637.31 253.519 633.831 252.218C630.351 250.918 626.516 250.935 623.048 252.265C619.58 253.596 616.718 256.148 615.002 259.442C613.286 262.736 612.835 266.543 613.732 270.146C614.63 273.75 616.815 276.9 619.876 279.005C622.937 281.109 626.662 282.022 630.349 281.571C634.037 281.12 637.432 279.336 639.894 276.556C642.357 273.776 643.718 270.192 643.72 266.478C643.723 263.984 643.111 261.527 641.938 259.325ZM633.057 271.6C631.885 272.632 630.394 273.231 628.833 273.298C627.273 273.364 625.736 272.894 624.48 271.966C623.224 271.037 622.325 269.707 621.931 268.195C621.538 266.684 621.674 265.084 622.318 263.661C622.961 262.238 624.073 261.079 625.468 260.376C626.863 259.673 628.457 259.47 629.984 259.799C631.511 260.129 632.878 260.971 633.859 262.187C634.84 263.402 635.375 264.917 635.374 266.478C635.374 267.447 635.168 268.404 634.768 269.286C634.369 270.169 633.785 270.955 633.057 271.594V271.6Z" fill="#EF664E" stroke="black" stroke-width="2" stroke-miterlimit="10"/>
<path d="M635.374 266.472C635.374 267.823 634.973 269.143 634.223 270.266C633.472 271.389 632.405 272.265 631.157 272.781C629.909 273.298 628.535 273.434 627.21 273.17C625.885 272.907 624.667 272.256 623.712 271.301C622.756 270.346 622.106 269.129 621.842 267.804C621.579 266.48 621.714 265.107 622.231 263.859C622.748 262.611 623.624 261.544 624.747 260.794C625.871 260.043 627.191 259.643 628.543 259.643C629.44 259.64 630.33 259.815 631.16 260.157C631.99 260.499 632.744 261.002 633.379 261.637C634.014 262.272 634.517 263.026 634.86 263.855C635.202 264.685 635.377 265.574 635.374 266.472Z" fill="#EF664E" stroke="black" stroke-width="2" stroke-miterlimit="10"/>
<path d="M492.336 238.188C492.226 242.457 489.068 247.232 483.903 250.213C479.178 252.939 474 253.479 470.282 251.976C470.431 249.953 471.149 248.012 472.351 246.377C473.554 244.743 475.193 243.48 477.081 242.733C482.023 240.776 487.128 239.255 492.336 238.188Z" fill="#EF664E" stroke="black" stroke-width="2" stroke-miterlimit="10"/>
<path d="M584.446 222.59V243.413" stroke="black" stroke-width="2" stroke-miterlimit="10"/>
<path d="M552.495 234.993H548.821V244.307H552.495V234.993Z" fill="black" stroke="black" stroke-width="2" stroke-miterlimit="10"/>
<path d="M564.59 229.773H565.98C565.98 229.773 564.59 234.503 568.733 233.633C569.354 233.505 568.543 235.257 569.425 235.414C574.136 236.219 575.716 235.984 575.716 235.984V227.02L567.126 224.01L566.684 226.518L564.59 229.773Z" fill="#EF664E" stroke="black" stroke-width="2" stroke-linejoin="round"/>
<path d="M567.718 228.683C567.965 228.683 568.166 228.482 568.166 228.234C568.166 227.987 567.965 227.786 567.718 227.786C567.47 227.786 567.269 227.987 567.269 228.234C567.269 228.482 567.47 228.683 567.718 228.683Z" fill="black"/>
<path d="M567.848 230.895C567.606 231.137 567.297 231.302 566.96 231.369C566.624 231.435 566.276 231.401 565.959 231.269" fill="#EF664E"/>
<path d="M567.848 230.895C567.606 231.137 567.297 231.302 566.96 231.369C566.624 231.435 566.276 231.401 565.959 231.269" stroke="black" stroke-width="2" stroke-linecap="round" stroke-linejoin="round"/>
<path d="M580.068 243.544C580.068 238.621 575.773 234.719 570.887 235.346C569.249 235.556 567.674 236.111 566.265 236.973C559.52 241.082 555.201 239.702 555.201 239.702V244.307C555.201 244.307 564.453 245.106 567.635 241.932V243.924L580.068 243.55V243.544Z" fill="#EF664E" stroke="black" stroke-width="2" stroke-linecap="round" stroke-linejoin="round"/>
<path d="M555.204 239.702C555.204 239.702 552.531 237.478 552.531 238.668C552.553 239.457 552.727 240.233 553.044 240.955C553.044 240.955 550.145 240.034 549.845 240.955C549.545 241.875 550.142 244.307 555.192 244.307L555.204 239.702Z" fill="#EF664E" stroke="black" stroke-width="2" stroke-linecap="round" stroke-linejoin="round"/>
<path d="M565.977 222.21C565.741 222.37 565.55 222.588 565.421 222.843C565.293 223.098 565.231 223.381 565.243 223.666C565.255 223.951 565.339 224.228 565.487 224.472C565.636 224.715 565.844 224.917 566.093 225.058C567.418 225.812 569.324 227.056 571.519 227.359C572.244 227.46 574.107 226.121 574.107 228.249C574.107 229.407 575.716 230.444 575.716 230.963V226.1C575.719 225.678 575.633 225.26 575.461 224.874C575.29 224.488 575.039 224.143 574.723 223.862C574.408 223.581 574.037 223.371 573.634 223.244C573.231 223.118 572.806 223.079 572.387 223.131L571.312 223.255C570.49 223.35 569.663 223.125 569.004 222.626L568.231 222.032C567.951 221.819 567.611 221.699 567.26 221.69C566.908 221.68 566.562 221.781 566.271 221.978L565.977 222.21Z" fill="black" stroke="black" stroke-width="2" stroke-linecap="round" stroke-linejoin="round"/>
<path d="M382.288 403.926C381.668 404.546 363.917 403.926 363.917 403.926C363.917 403.926 366.181 394.127 366.71 388.124H375.103C374.248 394.219 376.22 395.547 377.652 395.731C379.17 395.899 380.568 396.634 381.567 397.788C383.88 400.606 382.781 403.445 382.288 403.926Z" fill="black" stroke="black" stroke-width="2" stroke-linecap="round" stroke-linejoin="round"/>
<path d="M382.289 365.409C382.289 365.409 377.964 376.116 375.936 384.053C375.581 385.397 375.303 386.76 375.104 388.135H366.71C366.778 387.34 366.817 386.612 366.817 385.983C366.817 380.6 367.741 366.238 367.741 366.238L382.289 365.409Z" fill="#EF664E" stroke="black" stroke-width="2" stroke-linecap="round" stroke-linejoin="round"/>
<path d="M406.425 403.926C405.804 404.546 388.054 403.926 388.054 403.926C388.054 403.926 390.317 394.127 390.846 388.124H399.24C398.384 394.219 400.356 395.547 401.788 395.731C403.306 395.899 404.705 396.634 405.706 397.788C408.017 400.606 406.921 403.445 406.425 403.926Z" fill="black" stroke="black" stroke-width="2" stroke-linecap="round" stroke-linejoin="round"/>
<path d="M398.646 364.028C398.646 364.028 402.103 376.116 400.071 384.053C399.719 385.397 399.441 386.76 399.24 388.135H390.846C390.914 387.34 390.956 386.612 390.956 385.983C390.956 380.6 385.467 365.27 385.467 365.27L398.646 364.028Z" fill="#EF664E" stroke="black" stroke-width="2" stroke-linecap="round" stroke-linejoin="round"/>
<path d="M367.74 346.032V366.237L382.288 365.409L383.809 357.668L385.467 365.27L398.646 364.028L394.452 342.368L367.74 346.032Z" fill="#EF664E" stroke="black" stroke-width="2" stroke-linecap="round" stroke-linejoin="round"/>
<path d="M397.588 334.378C397.588 334.378 434.354 366.042 467.51 361.695" stroke="black" stroke-width="2" stroke-linecap="round" stroke-linejoin="round"/>
<path d="M437.363 372.452C437.363 372.452 428.678 349.975 441.108 348.066C453.539 346.157 441.791 368.277 441.791 368.277" fill="#EF664E"/>
<path d="M437.363 372.452C437.363 372.452 428.678 349.975 441.108 348.066C453.539 346.157 441.791 368.277 441.791 368.277" stroke="black" stroke-width="2" stroke-linecap="round" stroke-linejoin="round"/>
<path d="M481.319 368.806C481.319 370.549 481.349 376.461 480.428 378.815C478.53 383.729 475.601 389.011 475.601 390.662C475.601 392.399 478.239 392.987 479.759 393.747C480.38 394.044 480.814 394.392 480.814 394.846C480.814 396.414 476.397 395.196 472.557 395.196C468.716 395.196 466.459 383.515 466.459 383.515C457.741 383.515 446.579 378.984 446.579 378.984C446.579 378.984 441.179 385.08 441.179 389.08C441.179 393.079 446.27 392.577 446.27 394.32C446.27 396.063 438.25 394.32 434.939 394.32C432.348 394.32 431.496 387.325 432.265 380.941C432.742 376.745 434.542 372.81 437.407 369.706C438.818 368.197 440.377 367.033 441.779 367.033C443.603 367.033 447.865 367.675 451.997 368.378C454.953 368.886 457.994 368.523 460.748 367.334C463.502 366.144 465.85 364.18 467.507 361.68L468.048 360.863" fill="#EF664E"/>
<path d="M481.319 368.806C481.319 370.549 481.349 376.461 480.428 378.815C478.53 383.729 475.601 389.011 475.601 390.662C475.601 392.399 478.239 392.987 479.759 393.747C480.38 394.044 480.814 394.392 480.814 394.846C480.814 396.414 476.397 395.196 472.557 395.196C468.716 395.196 466.459 383.515 466.459 383.515C457.741 383.515 446.579 378.984 446.579 378.984C446.579 378.984 441.179 385.08 441.179 389.08C441.179 393.079 446.27 392.577 446.27 394.32C446.27 396.063 438.25 394.32 434.939 394.32C432.348 394.32 431.496 387.325 432.265 380.941C432.742 376.745 434.542 372.81 437.407 369.706C438.818 368.197 440.377 367.033 441.779 367.033C443.603 367.033 447.865 367.675 451.997 368.378C454.953 368.886 457.994 368.523 460.748 367.334C463.502 366.144 465.85 364.18 467.507 361.68L468.048 360.863" stroke="black" stroke-width="2" stroke-linecap="round" stroke-linejoin="round"/>
<path d="M475.61 354.215C475.61 354.215 462.018 344.138 460.599 348.155C459.179 352.172 471.687 358.684 471.687 358.684" fill="#EF664E"/>
<path d="M475.61 354.215C475.61 354.215 462.018 344.138 460.599 348.155C459.179 352.172 471.687 358.684 471.687 358.684" stroke="black" stroke-width="2" stroke-linecap="round" stroke-linejoin="round"/>
<path d="M495.493 361.053C495.199 361.691 494.738 362.237 494.158 362.634C493.579 363.032 492.903 363.265 492.202 363.31L481.129 362.681C481.129 362.681 480.485 365.543 484.563 366.042C488.546 366.532 493.352 367.687 480.892 368.714C478.618 368.942 476.324 368.83 474.084 368.381C464.282 366.241 467.228 351.475 477.143 353.078L489.636 355.109C489.704 355.29 491.953 361.567 495.493 361.053Z" fill="#EF664E" stroke="black" stroke-width="2" stroke-linecap="round" stroke-linejoin="round"/>
<path d="M479.374 360.192C480.071 360.192 480.636 359.627 480.636 358.93C480.636 358.233 480.071 357.668 479.374 357.668C478.677 357.668 478.111 358.233 478.111 358.93C478.111 359.627 478.677 360.192 479.374 360.192Z" fill="black"/>
<path d="M471.06 359.328C471.06 359.328 465.274 378.147 470.235 378.147C475.195 378.147 477.488 361.896 477.488 361.896" fill="#EF664E"/>
<path d="M471.06 359.328C471.06 359.328 465.274 378.147 470.235 378.147C475.195 378.147 477.488 361.896 477.488 361.896" stroke="black" stroke-width="2" stroke-linecap="round" stroke-linejoin="round"/>
<path d="M495.855 359.42C495.855 359.985 495.732 360.542 495.493 361.053C491.952 361.567 489.704 355.29 489.642 355.115L492.585 355.59C493.5 355.74 494.331 356.211 494.93 356.919C495.528 357.626 495.855 358.523 495.852 359.45L495.855 359.42Z" fill="black" stroke="black" stroke-width="2" stroke-linecap="round" stroke-linejoin="round"/>
<path d="M389.81 277.28C389.81 277.28 390.178 283.049 391.889 284.445C393.6 285.84 390.757 287.827 390.757 287.827C390.757 287.827 391.746 296.942 388.283 296.438C384.82 295.933 382.969 293.985 382.004 297.198L374.362 296.354L371.985 289.798L372.627 278.637L389.81 277.28Z" fill="#EF664E" stroke="black" stroke-width="2" stroke-linecap="round" stroke-linejoin="round"/>
<path d="M373.687 295.799C366.107 302.331 364.657 319.101 366.059 333.686C366.49 338.14 366.481 342.14 366.457 346.207L394.449 342.368C393.778 336.218 392.375 330.169 390.27 324.351C387.068 315.524 382.152 307.236 382.318 296.402L373.687 295.799Z" fill="#EF664E" stroke="black" stroke-width="2" stroke-linecap="round" stroke-linejoin="round"/>
<path d="M387.816 285.343C388.369 285.343 388.817 284.873 388.817 284.293C388.817 283.713 388.369 283.242 387.816 283.242C387.263 283.242 386.815 283.713 386.815 284.293C386.815 284.873 387.263 285.343 387.816 285.343Z" fill="black"/>
<path d="M372.979 313.573C376.125 324.764 383.438 331.453 392.39 337.668L396.435 326.106C384.774 316.328 380.055 305.283 380.055 305.283" fill="#EF664E"/>
<path d="M372.979 313.573C376.125 324.764 383.438 331.453 392.39 337.668L396.435 326.106C384.774 316.328 380.055 305.283 380.055 305.283" stroke="black" stroke-width="2" stroke-linecap="round" stroke-linejoin="round"/>
<path d="M396.971 340.658C395.39 339.747 393.861 338.749 392.391 337.668L396.436 326.106C396.436 326.106 402.647 326.424 401.485 328.98C400.324 331.536 398.284 331.988 398.284 331.988L401.254 335.055C401.838 335.658 402.191 336.448 402.25 337.286C402.309 338.123 402.069 338.955 401.575 339.634C401.064 340.336 400.314 340.827 399.466 341.016C398.619 341.204 397.731 341.077 396.971 340.658Z" fill="#EF664E" stroke="black" stroke-width="2" stroke-linecap="round" stroke-linejoin="round"/>
<path d="M392.39 337.668C392.39 337.668 390.156 355.314 400.873 354.358C408.765 353.657 403.745 345.052 400.552 340.569" stroke="black" stroke-width="2" stroke-linecap="round" stroke-linejoin="round"/>
<path d="M366.71 388.135H366.707" stroke="black" stroke-width="2" stroke-linecap="round" stroke-linejoin="round"/>
<path d="M389.809 277.28C389.809 277.28 390.513 270.932 381.772 272.633C373.03 274.335 371.399 279.216 371.399 279.216L389.809 277.28Z" fill="#EF664E" stroke="black" stroke-width="2" stroke-linecap="round" stroke-linejoin="round"/>
<path d="M371.631 280.897C371.631 280.897 370.82 289.858 368.714 290.318C366.609 290.778 366.594 293.81 369.903 293.477C372.023 293.263 375.077 292.616 377.07 289.062C377.477 288.331 374.833 287.634 376.419 284.664C377.569 282.518 379.354 283.839 379.449 283.346C379.669 282.206 379.063 281.654 378.977 280.303L371.631 280.897Z" fill="#EF664E" stroke="black" stroke-width="2" stroke-linecap="round" stroke-linejoin="round"/>
<path d="M390.894 276.805L370.755 278.044L371.039 282.667L391.178 281.429L390.894 276.805Z" fill="black" stroke="black" stroke-width="2" stroke-linecap="round" stroke-linejoin="round"/>
<path d="M385.895 289.368C386.659 289.777 387.513 289.991 388.381 289.991C389.248 289.991 390.102 289.777 390.867 289.368" fill="#EF664E"/>
<path d="M385.895 289.368C386.659 289.777 387.513 289.991 388.381 289.991C389.248 289.991 390.102 289.777 390.867 289.368" stroke="black" stroke-width="2" stroke-linecap="round" stroke-linejoin="round"/>
<path d="M615.461 348.497C626.442 348.497 635.344 339.598 635.344 328.621C635.344 317.644 626.442 308.745 615.461 308.745C604.48 308.745 595.578 317.644 595.578 328.621C595.578 339.598 604.48 348.497 615.461 348.497Z" fill="#EF664E" stroke="black" stroke-width="2" stroke-linecap="round" stroke-linejoin="round"/>
<path d="M615.461 344.788C624.393 344.788 631.634 337.55 631.634 328.621C631.634 319.692 624.393 312.453 615.461 312.453C606.529 312.453 599.288 319.692 599.288 328.621C599.288 337.55 606.529 344.788 615.461 344.788Z" fill="#EF664E" stroke="black" stroke-width="2" stroke-linecap="round" stroke-linejoin="round"/>
<path d="M535.969 348.497C546.95 348.497 555.852 339.598 555.852 328.621C555.852 317.644 546.95 308.745 535.969 308.745C524.988 308.745 516.086 317.644 516.086 328.621C516.086 339.598 524.988 348.497 535.969 348.497Z" fill="#EF664E" stroke="black" stroke-width="2" stroke-linecap="round" stroke-linejoin="round"/>
<path d="M535.969 344.788C544.901 344.788 552.142 337.55 552.142 328.621C552.142 319.692 544.901 312.453 535.969 312.453C527.037 312.453 519.796 319.692 519.796 328.621C519.796 337.55 527.037 344.788 535.969 344.788Z" fill="#EF664E" stroke="black" stroke-width="2" stroke-linecap="round" stroke-linejoin="round"/>
<path d="M615.461 328.621L603.937 303.017H557.241L535.273 326.836L576.334 331.498L603.937 303.017" stroke="black" stroke-width="2" stroke-linecap="round" stroke-linejoin="round"/>
<path d="M572.518 341.783C577.39 341.783 581.34 337.835 581.34 332.965C581.34 328.094 577.39 324.146 572.518 324.146C567.646 324.146 563.696 328.094 563.696 332.965C563.696 337.835 567.646 341.783 572.518 341.783Z" fill="#EF664E" stroke="black" stroke-width="2" stroke-linecap="round" stroke-linejoin="round"/>
<path d="M557.241 303.017L551.835 292.405C551.835 292.405 541.089 292.658 541.089 289.166C541.089 289.166 547.739 284.088 554.5 287.242C561.26 290.395 566.897 288.15 565.997 291.194C565.097 294.237 551.835 292.405 551.835 292.405" fill="#EF664E"/>
<path d="M557.241 303.017L551.835 292.405M551.835 292.405C551.835 292.405 541.089 292.658 541.089 289.166C541.089 289.166 547.739 284.088 554.5 287.242C561.26 290.395 566.897 288.15 565.997 291.194C565.097 294.237 551.835 292.405 551.835 292.405Z" stroke="black" stroke-width="2" stroke-linecap="round" stroke-linejoin="round"/>
<path d="M603.936 303.017L598.082 287.242L609.152 286.312" stroke="black" stroke-width="2" stroke-linecap="round" stroke-linejoin="round"/>
<path d="M578.339 337.344H567.854V341.783H578.339V337.344Z" fill="#EF664E" stroke="black" stroke-width="2" stroke-linecap="round" stroke-linejoin="round"/>
<path d="M607.133 290.326C608.014 290.067 608.276 288.318 607.717 286.421C607.159 284.524 605.992 283.196 605.11 283.455C604.229 283.715 603.967 285.463 604.526 287.36C605.085 289.257 606.252 290.585 607.133 290.326Z" fill="#EF664E" stroke="black" stroke-width="2" stroke-linecap="round" stroke-linejoin="round"/>
<path d="M587.348 271.956C587.348 271.956 589.959 278.15 594.117 280.626C598.276 283.103 608.232 287.53 610.709 288.967C613.186 290.404 615.429 287.53 612.47 284.572C609.512 281.615 599.954 279.507 598.353 276.71C596.752 273.913 593.158 267.998 593.158 267.998" fill="#EF664E"/>
<path d="M587.348 271.956C587.348 271.956 589.959 278.15 594.117 280.626C598.276 283.103 608.232 287.53 610.709 288.967C613.186 290.404 615.429 287.53 612.47 284.572C609.512 281.615 599.954 279.507 598.353 276.71C596.752 273.913 593.158 267.998 593.158 267.998" stroke="black" stroke-width="2" stroke-linecap="round" stroke-linejoin="round"/>
<path d="M600.806 251.118C600.806 251.118 599.645 254.892 600.402 256.199C601.16 257.505 598.861 258.084 598.861 258.084C598.861 258.084 597.283 264.141 595.195 262.98C593.107 261.819 590.707 262.125 589.314 263.945L583.968 259.557L586.389 254.806L589.501 247.837L600.806 251.118Z" fill="#EF664E" stroke="black" stroke-width="2" stroke-linecap="round" stroke-linejoin="round"/>
<path d="M598.483 255.367C598.624 254.996 598.452 254.587 598.099 254.453C597.747 254.319 597.347 254.511 597.206 254.882C597.065 255.253 597.237 255.662 597.59 255.796C597.943 255.93 598.343 255.738 598.483 255.367Z" fill="black"/>
<path d="M580.902 258.078C573.453 259.287 561.064 264.726 555.088 270.7L566.482 282.951L583.412 270.391L585.658 273.114L593.169 267.998L587.698 260.81C586.92 259.78 585.877 258.982 584.679 258.501C583.482 258.02 582.176 257.874 580.902 258.078Z" fill="#EF664E" stroke="black" stroke-width="2" stroke-linecap="round" stroke-linejoin="round"/>
<path d="M595.527 258.307C595.527 258.307 596.335 259.565 598.391 259.565L595.527 258.307Z" fill="#EF664E"/>
<path d="M595.527 258.307C595.527 258.307 596.335 259.565 598.391 259.565" stroke="black" stroke-width="2" stroke-linecap="round" stroke-linejoin="round"/>
<path d="M587.232 248.933C587.232 248.933 583.786 254.705 585.747 255.489C587.707 256.273 591.512 254.097 593.6 254.097C595.688 254.097 599.333 254.097 598.397 251.828C597.461 249.56 587.232 248.933 587.232 248.933Z" fill="#EF664E" stroke="black" stroke-width="2" stroke-linecap="round" stroke-linejoin="round"/>
<path d="M585.382 247.401C585.382 247.401 590.559 252.152 594.964 252.784C597.7 253.169 600.456 253.403 603.218 253.485C602.681 252.011 601.849 250.661 600.773 249.519C599.697 248.377 598.4 247.467 596.96 246.843C592.026 244.675 585.382 247.401 585.382 247.401Z" fill="#EF664E" stroke="black" stroke-width="2" stroke-linecap="round" stroke-linejoin="round"/>
<path d="M591.842 249.744C591.842 249.744 588.979 258.889 592.395 262.3" stroke="black" stroke-width="2" stroke-linecap="round" stroke-linejoin="round"/>
<path d="M565.125 302.21C565.125 302.21 566.981 303.958 566.981 307.346C566.981 310.734 566.872 334.443 567.748 336.741C568.624 339.04 580.645 338.927 579.988 335.322C579.332 331.718 574.642 333.9 574.642 331.058C574.642 328.217 577.909 312.156 577.374 307.786C576.84 303.415 574.131 297.842 574.131 297.842" fill="#EF664E"/>
<path d="M565.125 302.21C565.125 302.21 566.981 303.958 566.981 307.346C566.981 310.734 566.872 334.443 567.748 336.741C568.624 339.04 580.645 338.927 579.988 335.322C579.332 331.718 574.642 333.9 574.642 331.058C574.642 328.217 577.909 312.156 577.374 307.786C576.84 303.415 574.131 297.842 574.131 297.842" stroke="black" stroke-width="2" stroke-linecap="round" stroke-linejoin="round"/>
<path d="M555.088 270.7C555.088 270.7 544.247 275.451 551.132 285.273C555.348 291.27 560.027 296.929 565.125 302.198L574.121 297.827L566.482 282.939L555.088 270.7Z" fill="#EF664E" stroke="black" stroke-width="2" stroke-linecap="round" stroke-linejoin="round"/>
<path d="M200.448 281.208V318.413H240.826V278.676H214.45C214.153 278.676 213.835 278.676 213.526 278.676C213.422 278.676 213.318 278.676 213.229 278.676C208.858 278.81 204.54 279.666 200.448 281.208Z" fill="#EF664E" stroke="black" stroke-width="2" stroke-linecap="round" stroke-linejoin="round"/>
<path d="M311.632 318.412C311.631 320.944 312.13 323.452 313.099 325.791C314.068 328.131 315.489 330.256 317.279 332.047C319.07 333.837 321.197 335.258 323.537 336.227C325.877 337.196 328.385 337.695 330.918 337.695H339.911C339.704 337.16 339.475 336.629 339.237 336.106C336.945 331.122 333.346 326.851 328.822 323.746C324.298 320.642 319.018 318.819 313.542 318.472C313.111 318.445 312.677 318.427 312.238 318.424C312.039 318.412 311.834 318.412 311.632 318.412Z" fill="#EF664E" stroke="black" stroke-width="2" stroke-linecap="round" stroke-linejoin="round"/>
<path d="M273.242 279.708C272.054 279.443 270.866 279.229 269.678 279.064C270.866 279.227 272.054 279.441 273.242 279.708Z" fill="#EF664E" stroke="black" stroke-width="2" stroke-linecap="round" stroke-linejoin="round"/>
<path d="M275.241 280.211C274.579 280.029 273.911 279.86 273.239 279.709C273.911 279.861 274.578 280.029 275.241 280.211Z" fill="#EF664E" stroke="black" stroke-width="2" stroke-linecap="round" stroke-linejoin="round"/>
<path d="M276.723 280.65C276.233 280.496 275.737 280.353 275.238 280.211C275.737 280.347 276.233 280.493 276.723 280.65Z" fill="#EF664E" stroke="black" stroke-width="2" stroke-linecap="round" stroke-linejoin="round"/>
<path d="M295.611 292.854C295.994 293.281 296.371 293.72 296.737 294.165C296.368 293.72 295.994 293.281 295.611 292.854Z" fill="#EF664E" stroke="black" stroke-width="2" stroke-linecap="round" stroke-linejoin="round"/>
<path d="M181.438 296.057C181.063 296.603 180.701 297.16 180.351 297.728C180.695 297.162 181.057 296.605 181.438 296.057Z" fill="#EF664E" stroke="black" stroke-width="2" stroke-linecap="round" stroke-linejoin="round"/>
<path d="M269.678 279.065C269.206 278.999 268.731 278.943 268.252 278.895C268.718 278.946 269.194 278.999 269.678 279.065Z" fill="#EF664E" stroke="black" stroke-width="2" stroke-linecap="round" stroke-linejoin="round"/>
<path d="M341.998 348.779V349.966H313.097C310.418 348.395 307.367 347.567 304.261 347.567C301.154 347.567 298.104 348.395 295.424 349.966H200.914C198.235 348.395 195.184 347.567 192.078 347.567C188.971 347.567 185.921 348.395 183.242 349.966H156.325L170.627 318.413H240.826V278.673H263.91C265.357 278.672 266.802 278.746 268.241 278.895C266.802 278.749 265.357 278.676 263.91 278.676H254.007V318.413H311.63C311.63 320.945 312.129 323.452 313.098 325.791C314.068 328.13 315.489 330.256 317.28 332.046C319.071 333.836 321.197 335.256 323.538 336.225C325.878 337.194 328.386 337.692 330.919 337.692H339.91C340.552 339.315 341.049 340.992 341.395 342.704C341.802 344.703 342.004 346.738 341.998 348.779Z" fill="#EF664E" stroke="black" stroke-width="2" stroke-linecap="round" stroke-linejoin="round"/>
<path d="M156.325 349.969H183.244C180.618 351.51 178.442 353.71 176.931 356.352C175.419 358.994 174.626 361.986 174.63 365.029C174.63 365.67 174.665 366.31 174.734 366.947H156.319L156.325 349.969Z" stroke="black" stroke-width="2" stroke-miterlimit="10"/>
<path d="M200.914 349.969H295.424C292.8 351.509 290.624 353.708 289.113 356.348C287.602 358.989 286.808 361.978 286.81 365.02C286.81 365.661 286.845 366.301 286.914 366.938H209.433C209.502 366.301 209.537 365.661 209.537 365.02C209.538 361.978 208.743 358.988 207.23 356.347C205.717 353.707 203.54 351.508 200.914 349.969Z" stroke="black" stroke-width="2" stroke-miterlimit="10"/>
<path d="M347.828 357.309V360.207C347.828 361.989 347.119 363.698 345.859 364.958C344.598 366.219 342.889 366.926 341.106 366.926H321.615C321.684 366.289 321.719 365.649 321.719 365.008C321.722 361.966 320.928 358.977 319.417 356.336C317.906 353.696 315.73 351.497 313.105 349.957H340.482C342.431 349.961 344.299 350.736 345.676 352.115C347.053 353.493 347.827 355.361 347.828 357.309Z" stroke="black" stroke-width="2" stroke-miterlimit="10"/>
<path d="M192.077 382.473C201.718 382.473 209.533 374.661 209.533 365.023C209.533 355.386 201.718 347.573 192.077 347.573C182.436 347.573 174.621 355.386 174.621 365.023C174.621 374.661 182.436 382.473 192.077 382.473Z" stroke="black" stroke-width="2" stroke-miterlimit="10"/>
<path d="M304.26 382.473C313.901 382.473 321.716 374.661 321.716 365.023C321.716 355.386 313.901 347.573 304.26 347.573C294.62 347.573 286.804 355.386 286.804 365.023C286.804 374.661 294.62 382.473 304.26 382.473Z" stroke="black" stroke-width="2" stroke-miterlimit="10"/>
<path d="M304.26 375.692C310.154 375.692 314.933 370.915 314.933 365.023C314.933 359.131 310.154 354.355 304.26 354.355C298.366 354.355 293.588 359.131 293.588 365.023C293.588 370.915 298.366 375.692 304.26 375.692Z" stroke="black" stroke-width="2" stroke-miterlimit="10"/>
<path d="M192.077 375.692C197.971 375.692 202.749 370.915 202.749 365.023C202.749 359.131 197.971 354.355 192.077 354.355C186.183 354.355 181.405 359.131 181.405 365.023C181.405 370.915 186.183 375.692 192.077 375.692Z" stroke="black" stroke-width="2" stroke-miterlimit="10"/>
<path d="M170.624 318.412H200.448V281.208C195.505 283.05 190.976 285.851 187.122 289.449C183.267 293.048 180.162 297.374 177.987 302.177L170.624 318.412Z" fill="#EF664E" stroke="black" stroke-width="2" stroke-linecap="round" stroke-linejoin="round"/>
<path d="M254.007 278.676V318.413H311.629L300.533 299.591C300.295 299.184 300.049 298.783 299.799 298.385C298.555 296.427 297.153 294.574 295.605 292.845C295.3 292.502 294.988 292.165 294.669 291.832C294.512 291.666 294.352 291.503 294.191 291.339L293.704 290.852C285.752 283.047 275.051 278.675 263.907 278.679L254.007 278.676Z" fill="#EF664E" stroke="black" stroke-width="2" stroke-miterlimit="10"/>
<path d="M148.411 252.245L183.729 280.038C185.347 281.311 186.392 283.174 186.635 285.217C186.879 287.26 186.3 289.317 185.027 290.933L182.26 294.447L134.745 257.056L137.512 253.542C138.785 251.925 140.649 250.88 142.693 250.637C144.737 250.394 146.793 250.972 148.411 252.245Z" fill="#EF664E" stroke="black" stroke-width="2" stroke-miterlimit="10"/>
</g>
</svg>
