<svg width="622" height="339" viewBox="0 0 622 339" fill="none" xmlns="http://www.w3.org/2000/svg">
<path d="M197.843 12.9409C195.463 12.9398 193.159 13.7805 191.338 15.3146C190.917 11.6099 189.228 8.16549 186.558 5.56659C183.889 2.9677 180.402 1.37468 176.692 1.05825C172.982 0.741813 169.278 1.72147 166.207 3.83077C163.137 5.94006 160.89 9.04886 159.85 12.6289C158.517 10.9205 156.772 9.57977 154.778 8.73279C152.785 7.8858 150.61 7.56041 148.457 7.78721C146.303 8.01401 144.243 8.78555 142.47 10.0293C140.696 11.273 139.268 12.948 138.319 14.8968C137.37 16.8455 136.931 19.004 137.045 21.1692C137.158 23.3343 137.82 25.435 138.967 27.2736C140.115 29.1123 141.71 30.6284 143.604 31.6795C145.498 32.7305 147.627 33.282 149.792 33.2819H197.843C199.197 33.3137 200.543 33.0741 201.803 32.5773C203.062 32.0805 204.21 31.3365 205.179 30.3891C206.147 29.4417 206.917 28.3099 207.442 27.0603C207.968 25.8108 208.238 24.4686 208.238 23.1128C208.238 21.757 207.968 20.4148 207.442 19.1653C206.917 17.9157 206.147 16.784 205.179 15.8365C204.21 14.8891 203.062 14.1451 201.803 13.6483C200.543 13.1516 199.197 12.912 197.843 12.9437V12.9409Z" fill="white" stroke="black" stroke-width="2" stroke-linecap="round" stroke-linejoin="round"/>
<path d="M96.1477 154.461C96.1477 146.722 92.3918 137.291 88.7109 129.902C85.3918 123.244 77.994 123.244 74.6777 129.902C70.9941 137.291 67.2549 146.722 67.2549 154.461C67.2549 168.584 72.8498 172.105 80.0528 172.529V185.902H83.3636V172.529C90.55 172.105 96.1477 168.584 96.1477 154.461Z" fill="white" stroke="black" stroke-width="2" stroke-linecap="round" stroke-linejoin="round"/>
<path d="M620.221 185.885H51.7354" stroke="black" stroke-width="2" stroke-linecap="round" stroke-linejoin="round"/>
<path d="M254.436 66.1826H175.631V185.888H254.436V66.1826Z" fill="white" stroke="black" stroke-width="2" stroke-linecap="round" stroke-linejoin="round"/>
<path d="M207.376 80.6172H189.817V98.5148H207.376V80.6172Z" fill="white" stroke="black" stroke-width="2" stroke-linecap="round" stroke-linejoin="round"/>
<path d="M240.253 80.6172H222.694V98.5148H240.253V80.6172Z" fill="white" stroke="black" stroke-width="2" stroke-linecap="round" stroke-linejoin="round"/>
<path d="M207.376 110.539H189.817V128.437H207.376V110.539Z" fill="white" stroke="black" stroke-width="2" stroke-linecap="round" stroke-linejoin="round"/>
<path d="M240.253 110.539H222.694V128.437H240.253V110.539Z" fill="white" stroke="black" stroke-width="2" stroke-linecap="round" stroke-linejoin="round"/>
<path d="M333.24 52.5029H254.436V185.888H333.24V52.5029Z" fill="white" stroke="black" stroke-width="2" stroke-linecap="round" stroke-linejoin="round"/>
<path d="M286.18 68.5869H268.622V88.5295H286.18V68.5869Z" fill="white" stroke="black" stroke-width="2" stroke-linecap="round" stroke-linejoin="round"/>
<path d="M319.054 68.5869H301.496V88.5295H319.054V68.5869Z" fill="white" stroke="black" stroke-width="2" stroke-linecap="round" stroke-linejoin="round"/>
<path d="M286.18 101.927H268.622V121.87H286.18V101.927Z" fill="white" stroke="black" stroke-width="2" stroke-linecap="round" stroke-linejoin="round"/>
<path d="M319.054 101.927H301.496V121.87H319.054V101.927Z" fill="white" stroke="black" stroke-width="2" stroke-linecap="round" stroke-linejoin="round"/>
<path d="M175.631 185.888H136.848V116.855L175.631 88.4624V185.888Z" fill="white" stroke="black" stroke-width="2" stroke-linecap="round" stroke-linejoin="round"/>
<path d="M127.503 114.607H109.524V163.093H127.503V114.607Z" fill="white" stroke="black" stroke-width="2" stroke-linecap="round" stroke-linejoin="round"/>
<path d="M118.516 185.885V163.09" stroke="black" stroke-width="2" stroke-linecap="round" stroke-linejoin="round"/>
<path d="M118.516 144.047C121.383 144.047 123.707 141.719 123.707 138.848C123.707 135.977 121.383 133.649 118.516 133.649C115.649 133.649 113.324 135.977 113.324 138.848C113.324 141.719 115.649 144.047 118.516 144.047Z" fill="#8782D7" stroke="black" stroke-width="2" stroke-linecap="round" stroke-linejoin="round"/>
<path d="M118.516 156.86C121.383 156.86 123.707 154.533 123.707 151.661C123.707 148.79 121.383 146.463 118.516 146.463C115.649 146.463 113.324 148.79 113.324 151.661C113.324 154.533 115.649 156.86 118.516 156.86Z" fill="#5FBE6E" stroke="black" stroke-width="2" stroke-linecap="round" stroke-linejoin="round"/>
<path d="M118.516 131.234C121.383 131.234 123.707 128.906 123.707 126.035C123.707 123.164 121.383 120.836 118.516 120.836C115.649 120.836 113.324 123.164 113.324 126.035C113.324 128.906 115.649 131.234 118.516 131.234Z" fill="#FF6E41" stroke="black" stroke-width="2" stroke-linecap="round" stroke-linejoin="round"/>
<path d="M23.9414 223.093V164.622" stroke="black" stroke-width="2" stroke-linecap="round" stroke-linejoin="round"/>
<path d="M15.8259 171.283L4.34668 159.788V143.534L15.8259 132.039H32.0571L43.5363 143.534V159.788L32.0571 171.283H15.8259Z" fill="white" stroke="black" stroke-width="2" stroke-linecap="round" stroke-linejoin="round"/>
<path d="M30.4017 136.043H17.4814L8.34473 145.192V158.131L17.4814 167.28H30.4017L39.5384 158.131V145.192L30.4017 136.043Z" fill="#FF6E41" stroke="black" stroke-width="2" stroke-linecap="round" stroke-linejoin="round"/>
<path d="M17.5144 152.895C17.5144 154.085 16.7632 154.89 15.0577 154.89C14.0144 154.89 13.1102 154.453 12.6289 153.754L13.5303 152.948C13.7267 153.18 13.9723 153.364 14.2491 153.488C14.5259 153.612 14.827 153.672 15.1301 153.664C15.8701 153.664 16.2179 153.458 16.2179 152.985C16.2179 152.583 16.0037 152.405 14.8268 152.149C13.65 151.892 12.8793 151.514 12.8793 150.282C12.8793 149.145 13.8781 148.449 15.105 148.449C15.533 148.44 15.958 148.523 16.3512 148.692C16.7444 148.862 17.0965 149.114 17.3836 149.432L16.4794 150.307C16.3013 150.106 16.0829 149.945 15.8384 149.834C15.5939 149.723 15.3289 149.665 15.0605 149.664C14.39 149.664 14.1674 149.942 14.1674 150.221C14.1674 150.616 14.4457 150.742 15.4278 150.973C16.4099 151.204 17.5144 151.536 17.5144 152.895Z" fill="white"/>
<path d="M23.0433 149.767H21.2488V154.782H19.9996V149.767H18.2051V148.533H23.0433V149.767Z" fill="white"/>
<path d="M29.1111 151.653C29.1111 153.673 27.976 154.89 26.3512 154.89C24.7264 154.89 23.5996 153.692 23.5996 151.672C23.5996 149.653 24.7347 148.435 26.3818 148.435C28.0288 148.435 29.1111 149.633 29.1111 151.653ZM27.8229 151.672C27.8229 150.402 27.2164 149.678 26.3428 149.678C25.4692 149.678 24.8878 150.383 24.8878 151.653C24.8878 152.923 25.4943 153.648 26.3679 153.648C27.2415 153.648 27.8229 152.94 27.8229 151.672Z" fill="white"/>
<path d="M35.2595 150.516C35.2595 151.965 34.2941 152.575 33.0004 152.575H31.626V154.804H30.374V148.533H33.1061C34.283 148.533 35.2595 149.185 35.2595 150.516ZM33.9741 150.544C33.9741 149.987 33.6152 149.747 33.0616 149.747H31.626V151.358H33.0811C33.657 151.358 33.9714 151.09 33.9714 150.544H33.9741Z" fill="white"/>
<path d="M1 243.375H17.693" stroke="black" stroke-width="2" stroke-linecap="round" stroke-linejoin="round"/>
<path d="M51.8613 243.375H581.441" stroke="black" stroke-width="2" stroke-linecap="round" stroke-linejoin="round" stroke-dasharray="122.81 122.81"/>
<path d="M598.523 243.375H615.216" stroke="black" stroke-width="2" stroke-linecap="round" stroke-linejoin="round"/>
<path d="M615.216 274.451H7.39648" stroke="black" stroke-width="2" stroke-linecap="round" stroke-linejoin="round"/>
<path d="M615.216 223.093H7.39648" stroke="black" stroke-width="2" stroke-linecap="round" stroke-linejoin="round"/>
<path d="M142.025 188.29C142.008 188.362 141.994 188.434 141.98 188.434C141.994 188.393 142.008 188.337 142.025 188.29Z" fill="black" stroke="black" stroke-width="2" stroke-miterlimit="10"/>
<path d="M142.064 188.142C142.064 188.189 142.039 188.234 142.025 188.279C142.039 188.209 142.05 188.142 142.064 188.142Z" fill="black" stroke="black" stroke-width="2" stroke-miterlimit="10"/>
<path d="M163.286 194.497L158.064 206.424H145.024C142.309 206.424 140.108 204.379 140.108 201.855L140.011 200.796C139.675 197.2 140.183 193.574 141.494 190.209L141.602 189.652C141.703 189.232 141.83 188.819 141.981 188.415C145.61 188.679 149.208 187.581 152.074 185.336C152.502 185.004 152.913 184.65 153.304 184.275L163.286 194.497Z" fill="#A9A9A9" stroke="black" stroke-width="2" stroke-linecap="round" stroke-linejoin="round"/>
<path d="M141.98 188.434C141.98 188.387 142.008 188.337 142.025 188.29C142.008 188.362 141.994 188.434 141.98 188.434Z" fill="white" stroke="black" stroke-width="2" stroke-miterlimit="10"/>
<path d="M217.575 148.062V203.504H205.103C202.253 203.505 199.424 204 196.743 204.967C194.066 205.937 191.242 206.433 188.396 206.432H158.07L163.293 194.505L153.321 184.292C156.259 181.453 157.675 177.711 157.369 174.203L160.09 173.49L163.245 172.654C167.26 171.619 170.892 169.446 173.706 166.397L188.694 150.04C189.277 149.412 189.983 148.912 190.769 148.571C191.555 148.231 192.403 148.057 193.259 148.062H217.575Z" fill="white" stroke="black" stroke-width="2" stroke-miterlimit="10"/>
<path d="M153.316 184.283C152.924 184.658 152.514 185.012 152.086 185.345C149.219 187.59 145.622 188.687 141.992 188.423C141.992 188.423 142.02 188.351 142.037 188.278C142.037 188.234 142.062 188.189 142.076 188.142C144.023 181.503 149.493 176.254 156.562 174.407L157.375 174.195C157.675 177.702 156.254 181.444 153.316 184.283Z" fill="white" stroke="black" stroke-width="2" stroke-miterlimit="10"/>
<path d="M196.743 153.768C195.658 153.764 194.583 153.984 193.587 154.416C192.592 154.847 191.696 155.48 190.956 156.275L180.311 167.865C178.963 169.317 178.211 171.224 178.205 173.206V177.856C178.205 180.238 180.667 181.907 183.024 181.121L211.597 171.596V153.765L196.743 153.768Z" fill="white" stroke="black" stroke-width="2" stroke-miterlimit="10"/>
<path d="M217.575 148.059H307.509C309.638 148.059 311.681 148.906 313.186 150.414C314.692 151.922 315.538 153.967 315.538 156.1V203.496H217.575V148.053V148.059Z" fill="white" stroke="black" stroke-width="2" stroke-miterlimit="10"/>
<path d="M169.922 215.097C177.259 215.097 183.206 209.422 183.206 202.421C183.206 195.42 177.259 189.744 169.922 189.744C162.585 189.744 156.637 195.42 156.637 202.421C156.637 209.422 162.585 215.097 169.922 215.097Z" fill="white" stroke="black" stroke-width="2" stroke-linecap="round" stroke-linejoin="round"/>
<path d="M169.922 210.342C174.507 210.342 178.224 206.795 178.224 202.421C178.224 198.046 174.507 194.5 169.922 194.5C165.337 194.5 161.62 198.046 161.62 202.421C161.62 206.795 165.337 210.342 169.922 210.342Z" fill="white" stroke="black" stroke-width="2" stroke-linecap="round" stroke-linejoin="round"/>
<path d="M285.927 215.097C293.264 215.097 299.212 209.422 299.212 202.421C299.212 195.42 293.264 189.744 285.927 189.744C278.59 189.744 272.643 195.42 272.643 202.421C272.643 209.422 278.59 215.097 285.927 215.097Z" fill="white" stroke="black" stroke-width="2" stroke-linecap="round" stroke-linejoin="round"/>
<path d="M285.927 210.342C290.512 210.342 294.229 206.795 294.229 202.421C294.229 198.046 290.512 194.5 285.927 194.5C281.342 194.5 277.625 198.046 277.625 202.421C277.625 206.795 281.342 210.342 285.927 210.342Z" fill="white" stroke="black" stroke-width="2" stroke-linecap="round" stroke-linejoin="round"/>
<path d="M300.662 153.768H225.332C222.818 153.768 220.78 155.808 220.78 158.326V174.604C220.78 177.122 222.818 179.162 225.332 179.162H300.662C303.176 179.162 305.213 177.122 305.213 174.604V158.326C305.213 155.808 303.176 153.768 300.662 153.768Z" fill="white" stroke="black" stroke-width="2" stroke-miterlimit="10"/>
<path d="M266.559 203.496V179.163" stroke="black" stroke-width="2" stroke-miterlimit="10"/>
<path d="M258.59 173.156C257.316 173.176 256.057 172.878 254.926 172.289C253.869 171.736 252.975 170.915 252.333 169.907C251.703 168.878 251.37 167.695 251.37 166.488C251.37 165.281 251.703 164.097 252.333 163.068C252.979 162.056 253.877 161.231 254.94 160.674C256.082 160.075 257.356 159.773 258.646 159.794C259.616 159.783 260.579 159.962 261.481 160.321C262.345 160.674 263.126 161.202 263.776 161.872L261.169 164.397C260.869 164.052 260.486 163.789 260.056 163.633C259.599 163.471 259.117 163.391 258.632 163.396C258.069 163.384 257.513 163.515 257.015 163.778C256.558 164.031 256.178 164.404 255.916 164.856C255.65 165.352 255.51 165.905 255.51 166.468C255.51 167.031 255.65 167.585 255.916 168.08C256.176 168.542 256.562 168.921 257.029 169.172C257.523 169.431 258.074 169.562 258.632 169.554C259.138 169.559 259.64 169.464 260.109 169.275C260.542 169.101 260.924 168.821 261.222 168.461L263.829 171.011C263.171 171.693 262.381 172.235 261.509 172.604C260.581 172.976 259.589 173.159 258.59 173.142" fill="#5FBE6E"/>
<path d="M273.469 160.084V161.17C273.105 160.833 272.694 160.551 272.248 160.334C271.492 159.977 270.665 159.797 269.83 159.808C268.683 159.791 267.555 160.096 266.572 160.688C265.623 161.267 264.846 162.089 264.321 163.07C263.765 164.123 263.485 165.3 263.506 166.492C263.486 167.673 263.767 168.839 264.321 169.882C264.847 170.876 265.637 171.705 266.605 172.276C267.572 172.848 268.679 173.14 269.802 173.12C270.644 173.133 271.479 172.962 272.248 172.618C272.697 172.415 273.109 172.139 273.469 171.802V172.855H277.459V160.084H273.469ZM272.829 168.698C272.538 168.988 272.19 169.214 271.807 169.361C271.423 169.509 271.013 169.574 270.603 169.553C270.062 169.563 269.527 169.427 269.056 169.158C268.609 168.902 268.239 168.529 267.985 168.08C267.715 167.599 267.579 167.054 267.59 166.503C267.577 165.938 267.714 165.379 267.985 164.884C268.236 164.429 268.606 164.051 269.056 163.792C269.541 163.532 270.082 163.397 270.631 163.397C271.181 163.397 271.721 163.532 272.206 163.792C272.651 164.047 273.017 164.42 273.263 164.87C273.526 165.363 273.657 165.916 273.644 166.475C273.662 166.881 273.6 167.287 273.46 167.669C273.32 168.05 273.105 168.4 272.829 168.698Z" fill="#00C3D7"/>
<path d="M287.288 159.847C287.012 159.798 286.733 159.773 286.453 159.774C285.768 159.772 285.093 159.938 284.486 160.256C283.869 160.581 283.322 161.025 282.878 161.563C282.76 161.704 282.65 161.851 282.547 162.003L282.466 160.075H278.699V172.866H282.692V166.441C282.685 166.086 282.749 165.733 282.878 165.402C282.997 165.107 283.17 164.837 283.387 164.605C283.611 164.375 283.884 164.198 284.186 164.087C284.512 163.964 284.858 163.903 285.207 163.906C285.53 163.905 285.852 163.942 286.167 164.015C286.425 164.069 286.674 164.163 286.904 164.293L288 160.02C287.766 159.95 287.528 159.892 287.288 159.847Z" fill="#8782D7"/>
<path d="M246.574 160.064V167.324C246.569 167.619 246.506 167.91 246.389 168.181C246.272 168.451 246.103 168.696 245.891 168.901C245.68 169.106 245.43 169.267 245.156 169.375C244.882 169.483 244.589 169.536 244.295 169.531C243.701 169.541 243.127 169.314 242.7 168.9C242.272 168.486 242.027 167.92 242.016 167.324V160.064H237.999V167.029C237.999 170.395 240.823 173.131 244.295 173.131C247.767 173.131 250.594 170.395 250.594 167.029V160.064H246.574Z" fill="#FF6E41"/>
<path d="M73.4539 249.656C73.4539 249.656 72.6192 245.663 73.4539 245.663C74.2885 245.663 77.4741 248.034 79.0182 245.663C80.5623 243.292 80.1004 239.734 82.4013 239.311C84.7022 238.887 82.4013 237.327 82.4013 234.82C82.4013 232.312 81.4554 225.81 75.2289 227.434C69.0024 229.058 64.9655 230.688 65.3271 235.77C65.6888 240.852 67.9952 249.7 67.9952 249.7L73.4539 249.656Z" fill="white" stroke="black" stroke-width="2" stroke-miterlimit="10"/>
<path d="M67.3524 300.977C65.9613 303.719 64.1613 307.327 62.4781 310.728L53.9424 307.193C54.9664 304.134 55.8145 301.019 56.4825 297.862L67.3524 300.977Z" fill="white" stroke="black" stroke-width="2" stroke-linejoin="round"/>
<path d="M67.3523 300.977L56.4824 297.854C56.7607 296.521 56.9714 295.174 57.114 293.82C58.3493 281.595 62.7451 271.033 62.7451 271.033L66.6818 273.186C69.1442 274.534 71.0644 276.695 72.1158 279.301C73.1673 281.906 73.2851 284.796 72.4493 287.479L71.214 291.438C70.1909 294.719 68.8993 297.909 67.3523 300.977Z" fill="black" stroke="black" stroke-width="2" stroke-miterlimit="10"/>
<path d="M59.0447 330.86L46.5723 325.692C49.3671 319.664 51.8275 313.485 53.9422 307.185L62.4779 310.72C60.4358 314.857 58.5829 318.688 57.9235 320.279C56.8691 322.834 58.7303 326.72 60.3356 329.359C60.4495 329.547 60.501 329.766 60.4829 329.985C60.4647 330.204 60.3778 330.412 60.2345 330.579C60.0912 330.746 59.899 330.862 59.6853 330.913C59.4716 330.964 59.2473 330.945 59.0447 330.86Z" fill="black" stroke="black" stroke-width="2" stroke-miterlimit="10"/>
<path d="M62.4803 310.723L62.4746 310.72" stroke="black" stroke-width="2" stroke-miterlimit="10"/>
<path d="M74.9469 275.312L60.5938 273.755L60.8525 267.255L74.6353 269.475L74.9469 275.312Z" fill="black" stroke="black" stroke-width="2" stroke-miterlimit="10"/>
<path d="M74.6354 269.467L60.8525 267.238L61.2003 258.409C61.2548 257.03 61.5941 255.678 62.1967 254.437C62.7992 253.196 63.6521 252.094 64.7014 251.2C65.7507 250.306 66.9737 249.639 68.2932 249.242C69.6128 248.844 71.0002 248.725 72.3679 248.892C72.7002 248.933 73.0075 249.089 73.236 249.334C73.4644 249.579 73.5993 249.897 73.6171 250.232L74.6354 269.467Z" fill="black" stroke="black" stroke-width="2" stroke-miterlimit="10"/>
<path d="M77.5091 258.674L69.9973 263.427C68.1477 260.523 66.7051 257.379 65.71 254.082L65.4596 253.247C65.3432 252.862 65.3126 252.457 65.3698 252.06C65.4271 251.663 65.5708 251.283 65.7909 250.948C66.0109 250.612 66.3019 250.33 66.6432 250.119C66.9845 249.909 67.3678 249.776 67.766 249.731L68.008 249.703C69.9515 249.479 71.9098 249.969 73.5206 251.08C75.1313 252.192 76.2854 253.85 76.7691 255.748L77.5091 258.674Z" fill="black" stroke="black" stroke-width="2" stroke-miterlimit="10"/>
<path d="M86.452 266.996L88.0962 251.951C88.1882 251.104 88.5953 250.322 89.2366 249.761C89.8778 249.201 90.7063 248.902 91.5573 248.926L114.927 249.566C115.82 249.595 116.665 249.974 117.279 250.623C117.894 251.271 118.228 252.136 118.21 253.029L117.843 270.334C117.835 270.808 117.727 271.275 117.527 271.705C117.328 272.135 117.04 272.519 116.684 272.831C116.327 273.143 115.909 273.377 115.456 273.517C115.004 273.658 114.527 273.702 114.057 273.646L89.4233 270.749C88.5334 270.643 87.7214 270.189 87.1646 269.486C86.6079 268.783 86.3517 267.888 86.452 266.996Z" fill="white" stroke="black" stroke-width="2" stroke-miterlimit="10"/>
<path d="M87.0693 261.287H89.743C91.9542 261.283 94.0736 260.401 95.6359 258.834C97.1981 257.267 98.0756 255.143 98.0756 252.929V248.906" fill="white"/>
<path d="M87.0693 261.287H89.743C91.9542 261.283 94.0736 260.401 95.6359 258.834C97.1981 257.267 98.0756 255.143 98.0756 252.929V248.906" stroke="black" stroke-width="2" stroke-miterlimit="10"/>
<path d="M108.241 249.379V255.787C108.241 257.249 108.821 258.651 109.853 259.684C110.885 260.718 112.285 261.298 113.744 261.298H118.212" fill="white"/>
<path d="M108.241 249.379V255.787C108.241 257.249 108.821 258.651 109.853 259.684C110.885 260.718 112.285 261.298 113.744 261.298H118.212" stroke="black" stroke-width="2" stroke-miterlimit="10"/>
<path d="M95.5519 277.889C95.207 277.839 94.8703 277.786 94.5364 277.733C89.3625 276.879 84.4274 274.939 80.0546 272.041C75.6818 269.143 71.9702 265.352 69.1631 260.917L76.6749 256.164C77.9411 259.101 79.6851 261.808 81.8359 264.173C84.8962 267.539 88.8719 270.303 93.3818 269.768C103.996 268.489 94.9983 272.635 94.9983 272.635C94.9983 272.635 97.2769 273.852 98.8098 274C102.032 274.301 101.258 278.75 95.5519 277.889Z" fill="white" stroke="black" stroke-width="2" stroke-linejoin="round"/>
<path d="M77.8852 235.929C77.8483 236.141 77.8752 236.36 77.9625 236.558C78.0498 236.755 78.1936 236.922 78.3757 237.038C78.5578 237.154 78.77 237.213 78.9856 237.207C79.2011 237.202 79.4103 237.133 79.5868 237.009C79.7632 236.885 79.8989 236.711 79.9768 236.51C80.0546 236.309 80.0711 236.089 80.0242 235.878C79.9773 235.667 79.8691 235.475 79.7132 235.326C79.5573 235.177 79.3607 235.077 79.1483 235.04C79.0071 235.015 78.8624 235.018 78.7224 235.05C78.5825 235.081 78.4501 235.139 78.3327 235.222C78.2154 235.305 78.1155 235.409 78.0387 235.531C77.9619 235.652 77.9098 235.787 77.8852 235.929Z" fill="black"/>
<path d="M76.288 299.662C76.057 302.727 75.7621 306.75 75.5034 310.528H66.2666C66.0438 307.31 65.6378 304.107 65.0508 300.935L76.288 299.662Z" fill="white" stroke="black" stroke-width="2" stroke-linejoin="round"/>
<path d="M76.288 299.662L65.0508 300.949C64.7983 299.611 64.4789 298.286 64.0937 296.979C60.5687 285.211 60.5938 273.766 60.5938 273.766L74.9469 275.323L76.2128 289.379C76.5196 292.799 76.5447 296.238 76.288 299.662Z" fill="black" stroke="black" stroke-width="2" stroke-miterlimit="10"/>
<path d="M80.0216 330.454H66.5253C66.8045 323.813 66.7182 317.162 66.2666 310.531H75.5034C75.1974 315.136 72.9994 320.594 72.9994 322.316C72.9994 325.08 78.152 326.751 80.642 328.573C80.8186 328.704 80.9495 328.887 81.016 329.096C81.0825 329.305 81.0813 329.53 81.0125 329.739C80.9437 329.947 80.8108 330.129 80.6329 330.257C80.4549 330.386 80.241 330.454 80.0216 330.454Z" fill="black" stroke="black" stroke-width="2" stroke-miterlimit="10"/>
<path d="M75.5074 310.531H75.5039" stroke="black" stroke-width="2" stroke-miterlimit="10"/>
<path d="M77.209 239.678C77.209 239.678 77.7654 241.84 80.4586 241.701L77.209 239.678Z" fill="white"/>
<path d="M77.209 239.678C77.209 239.678 77.7654 241.84 80.4586 241.701" stroke="black" stroke-width="2" stroke-miterlimit="10" stroke-linecap="round"/>
<path d="M80.6395 232.437C81.0394 232.44 81.436 232.364 81.8062 232.212C82.1764 232.061 82.513 231.837 82.7963 231.554C83.0796 231.272 83.3041 230.936 83.4569 230.565C83.6096 230.195 83.6874 229.798 83.686 229.398C83.686 226.726 83.021 223.269 79.6908 223.269C74.2489 223.269 64.4668 224.135 62.3607 235.357C60.2546 246.579 50.5977 247.022 50.5977 252.037C50.5977 259.142 61.6234 260.811 65.7076 254.068C69.7918 247.326 71.6837 232.755 74.9472 232.538C76.6499 232.437 78.8895 232.412 80.6395 232.437Z" fill="white" stroke="black" stroke-width="2" stroke-miterlimit="10" stroke-linecap="round"/>
<path d="M100.695 249.171C100.695 249.171 106.51 238.241 111.176 242.91C115.841 247.58 112.205 249.488 112.205 249.488" stroke="black" stroke-width="2" stroke-miterlimit="10"/>
<path d="M300.587 337.118H300.584" stroke="black" stroke-width="2" stroke-linecap="round" stroke-linejoin="round"/>
<path d="M323.242 232.655L304.378 233.817L304.644 238.155L323.508 236.993L323.242 232.655Z" fill="black" stroke="black" stroke-width="2" stroke-linecap="round" stroke-linejoin="round"/>
<path d="M533.59 299.924C543.875 299.924 552.213 291.574 552.213 281.274C552.213 270.974 543.875 262.625 533.59 262.625C523.304 262.625 514.966 270.974 514.966 281.274C514.966 291.574 523.304 299.924 533.59 299.924Z" fill="white" stroke="black" stroke-width="2" stroke-linecap="round" stroke-linejoin="round"/>
<path d="M533.59 296.444C541.957 296.444 548.739 289.652 548.739 281.274C548.739 272.896 541.957 266.104 533.59 266.104C525.224 266.104 518.441 272.896 518.441 281.274C518.441 289.652 525.224 296.444 533.59 296.444Z" fill="white" stroke="black" stroke-width="2" stroke-linecap="round" stroke-linejoin="round"/>
<path d="M459.131 299.924C469.416 299.924 477.754 291.574 477.754 281.274C477.754 270.974 469.416 262.625 459.131 262.625C448.845 262.625 440.507 270.974 440.507 281.274C440.507 291.574 448.845 299.924 459.131 299.924Z" fill="white" stroke="black" stroke-width="2" stroke-linecap="round" stroke-linejoin="round"/>
<path d="M459.131 296.444C467.498 296.444 474.28 289.652 474.28 281.274C474.28 272.896 467.498 266.104 459.131 266.104C450.765 266.104 443.982 272.896 443.982 281.274C443.982 289.652 450.765 296.444 459.131 296.444Z" fill="white" stroke="black" stroke-width="2" stroke-linecap="round" stroke-linejoin="round"/>
<path d="M533.59 281.274L522.795 257.25H479.056L458.479 279.6L496.94 283.974L522.795 257.25" stroke="black" stroke-width="2" stroke-linecap="round" stroke-linejoin="round"/>
<path d="M493.363 293.625C497.926 293.625 501.626 289.92 501.626 285.35C501.626 280.78 497.926 277.076 493.363 277.076C488.799 277.076 485.1 280.78 485.1 285.35C485.1 289.92 488.799 293.625 493.363 293.625Z" fill="white" stroke="black" stroke-width="2" stroke-linecap="round" stroke-linejoin="round"/>
<path d="M479.056 257.25L473.993 247.293C473.993 247.293 463.927 247.529 463.927 244.253C463.927 244.253 470.156 239.489 476.488 242.448C482.82 245.406 488.101 243.3 487.258 246.156C486.415 249.011 473.993 247.293 473.993 247.293" fill="white"/>
<path d="M479.056 257.25L473.993 247.293M473.993 247.293C473.993 247.293 463.927 247.529 463.927 244.253C463.927 244.253 470.156 239.489 476.488 242.448C482.82 245.406 488.101 243.3 487.258 246.156C486.415 249.011 473.993 247.293 473.993 247.293Z" stroke="black" stroke-width="2" stroke-linecap="round" stroke-linejoin="round"/>
<path d="M522.795 257.25L517.312 242.448L527.678 241.576" stroke="black" stroke-width="2" stroke-linecap="round" stroke-linejoin="round"/>
<path d="M498.816 289.459H488.995V293.625H498.816V289.459Z" fill="#A9A9A9" stroke="black" stroke-width="2" stroke-linecap="round" stroke-linejoin="round"/>
<path d="M525.79 245.342C526.615 245.098 526.86 243.458 526.337 241.678C525.814 239.898 524.72 238.652 523.895 238.895C523.07 239.138 522.825 240.779 523.348 242.559C523.871 244.339 524.964 245.585 525.79 245.342Z" fill="white" stroke="black" stroke-width="2" stroke-linecap="round" stroke-linejoin="round"/>
<path d="M507.257 228.105C507.257 228.105 509.702 233.917 513.597 236.24C517.492 238.564 526.818 242.718 529.139 244.066C531.459 245.415 533.559 242.718 530.788 239.943C528.017 237.168 519.064 235.19 517.565 232.565C516.065 229.941 512.699 224.391 512.699 224.391" fill="white"/>
<path d="M507.257 228.105C507.257 228.105 509.702 233.917 513.597 236.24C517.492 238.564 526.818 242.718 529.139 244.066C531.459 245.415 533.559 242.718 530.788 239.943C528.017 237.168 519.064 235.19 517.565 232.565C516.065 229.941 512.699 224.391 512.699 224.391" stroke="black" stroke-width="2" stroke-linecap="round" stroke-linejoin="round"/>
<path d="M519.863 208.553C519.863 208.553 518.775 212.094 519.485 213.32C520.194 214.545 518.041 215.089 518.041 215.089C518.041 215.089 516.563 220.772 514.607 219.683C512.652 218.594 510.404 218.881 509.099 220.588L504.091 216.471L506.358 212.013L509.274 205.474L519.863 208.553Z" fill="white" stroke="black" stroke-width="2" stroke-linecap="round" stroke-linejoin="round"/>
<path d="M517.687 212.538C517.819 212.19 517.658 211.806 517.328 211.681C516.997 211.555 516.623 211.736 516.491 212.084C516.359 212.432 516.52 212.816 516.85 212.942C517.181 213.067 517.555 212.887 517.687 212.538Z" fill="black"/>
<path d="M501.22 215.083C494.242 216.217 482.638 221.321 477.04 226.927L487.712 238.422L503.571 226.637L505.674 229.192L512.71 224.392L507.585 217.647C506.857 216.681 505.879 215.932 504.758 215.48C503.636 215.029 502.413 214.891 501.22 215.083Z" fill="white" stroke="black" stroke-width="2" stroke-linecap="round" stroke-linejoin="round"/>
<path d="M514.919 215.298C514.919 215.298 515.676 216.479 517.601 216.479L514.919 215.298Z" fill="white"/>
<path d="M514.919 215.298C514.919 215.298 515.676 216.479 517.601 216.479" stroke="black" stroke-width="2" stroke-linecap="round" stroke-linejoin="round"/>
<path d="M507.148 206.502C507.148 206.502 503.921 211.918 505.757 212.654C507.594 213.389 511.158 211.347 513.113 211.347C515.069 211.347 518.483 211.347 517.607 209.218C516.73 207.09 507.148 206.502 507.148 206.502Z" fill="white" stroke="black" stroke-width="2" stroke-linecap="round" stroke-linejoin="round"/>
<path d="M505.415 205.064C505.415 205.064 510.264 209.522 514.39 210.115C516.954 210.476 519.535 210.696 522.122 210.773C521.619 209.39 520.84 208.124 519.832 207.052C518.824 205.981 517.609 205.126 516.26 204.54C511.639 202.507 505.415 205.064 505.415 205.064Z" fill="white" stroke="black" stroke-width="2" stroke-linecap="round" stroke-linejoin="round"/>
<path d="M511.466 207.263C511.466 207.263 508.784 215.844 511.984 219.045" stroke="black" stroke-width="2" stroke-linecap="round" stroke-linejoin="round"/>
<path d="M486.44 256.492C486.44 256.492 488.179 258.133 488.179 261.312C488.179 264.491 488.076 286.738 488.897 288.894C489.718 291.051 500.977 290.945 500.362 287.562C499.748 284.18 495.355 286.228 495.355 283.562C495.355 280.895 498.415 265.826 497.914 261.725C497.413 257.623 494.876 252.394 494.876 252.394" fill="white"/>
<path d="M486.44 256.492C486.44 256.492 488.179 258.133 488.179 261.312C488.179 264.491 488.076 286.738 488.897 288.894C489.718 291.051 500.977 290.945 500.362 287.562C499.748 284.18 495.355 286.228 495.355 283.562C495.355 280.895 498.415 265.826 497.914 261.725C497.413 257.623 494.876 252.394 494.876 252.394" stroke="black" stroke-width="2" stroke-linecap="round" stroke-linejoin="round"/>
<path d="M477.039 226.927C477.039 226.927 466.884 231.384 473.334 240.601C477.283 246.228 481.665 251.537 486.44 256.481L494.868 252.38L487.712 238.411L477.039 226.927Z" fill="#A9A9A9" stroke="black" stroke-width="2" stroke-linecap="round" stroke-linejoin="round"/>
<path d="M144.854 236.787V271.696H182.675V234.41H157.97C157.691 234.41 157.394 234.41 157.104 234.41C157.007 234.41 156.91 234.41 156.826 234.41C152.732 234.536 148.687 235.339 144.854 236.787Z" fill="white" stroke="black" stroke-width="2" stroke-linecap="round" stroke-linejoin="round"/>
<path d="M249 271.696C249 274.072 249.467 276.424 250.374 278.619C251.282 280.814 252.613 282.809 254.29 284.489C255.968 286.169 257.959 287.502 260.151 288.411C262.343 289.32 264.692 289.788 267.065 289.788H275.489C275.294 289.287 275.08 288.788 274.857 288.298C272.711 283.621 269.34 279.614 265.102 276.701C260.865 273.787 255.919 272.077 250.789 271.752C250.386 271.726 249.979 271.71 249.568 271.707C249.381 271.696 249.189 271.696 249 271.696Z" fill="white" stroke="black" stroke-width="2" stroke-linecap="round" stroke-linejoin="round"/>
<path d="M103.523 301.306H277.442V300.191C277.45 298.28 277.264 296.373 276.886 294.5C276.562 292.895 276.096 291.322 275.495 289.799H267.07C264.698 289.799 262.349 289.331 260.157 288.422C257.965 287.513 255.973 286.18 254.296 284.5C252.618 282.82 251.288 280.825 250.38 278.63C249.472 276.435 249.005 274.083 249.006 271.707L238.612 254.046C238.389 253.664 238.158 253.288 237.924 252.915C236.76 251.077 235.446 249.338 233.996 247.716C233.718 247.393 233.417 247.078 233.12 246.766C232.972 246.61 232.822 246.457 232.672 246.304L232.215 245.847C224.767 238.522 214.744 234.42 204.305 234.424H182.676V271.696H144.855V236.786C140.226 238.514 135.984 241.141 132.373 244.518C128.762 247.894 125.854 251.952 123.817 256.459L116.92 271.696L103.523 301.306Z" fill="#A9A9A9" stroke="black" stroke-width="2" stroke-linecap="round" stroke-linejoin="round"/>
<path d="M103.523 301.309H276.018C277.845 301.309 279.597 302.035 280.889 303.329C282.181 304.623 282.906 306.377 282.906 308.207V310.926C282.906 311.754 282.744 312.574 282.427 313.339C282.111 314.104 281.647 314.799 281.062 315.384C280.478 315.97 279.784 316.434 279.02 316.751C278.256 317.068 277.437 317.231 276.61 317.231H103.523V301.309Z" fill="white" stroke="black" stroke-width="2" stroke-miterlimit="10"/>
<path d="M242.095 331.805C251.125 331.805 258.446 324.474 258.446 315.431C258.446 306.388 251.125 299.058 242.095 299.058C233.065 299.058 225.744 306.388 225.744 315.431C225.744 324.474 233.065 331.805 242.095 331.805Z" fill="white" stroke="black" stroke-width="2" stroke-miterlimit="10"/>
<path d="M242.094 325.441C247.615 325.441 252.09 320.96 252.09 315.431C252.09 309.903 247.615 305.421 242.094 305.421C236.573 305.421 232.098 309.903 232.098 315.431C232.098 320.96 236.573 325.441 242.094 325.441Z" fill="white" stroke="black" stroke-width="2" stroke-miterlimit="10"/>
<path d="M137.015 331.805C146.045 331.805 153.366 324.474 153.366 315.431C153.366 306.388 146.045 299.058 137.015 299.058C127.985 299.058 120.664 306.388 120.664 315.431C120.664 324.474 127.985 331.805 137.015 331.805Z" fill="white" stroke="black" stroke-width="2" stroke-miterlimit="10"/>
<path d="M137.014 325.441C142.535 325.441 147.01 320.96 147.01 315.431C147.01 309.903 142.535 305.421 137.014 305.421C131.493 305.421 127.018 309.903 127.018 315.431C127.018 320.96 131.493 325.441 137.014 325.441Z" fill="white" stroke="black" stroke-width="2" stroke-miterlimit="10"/>
<path d="M116.919 271.696H144.855V236.787C140.225 238.515 135.983 241.143 132.372 244.519C128.762 247.896 125.854 251.955 123.816 256.462L116.919 271.696Z" fill="white" stroke="black" stroke-width="2" stroke-linecap="round" stroke-linejoin="round"/>
<path d="M195.022 234.41V271.696H248.996L238.602 254.035C238.38 253.653 238.149 253.277 237.915 252.904C236.75 251.066 235.436 249.327 233.987 247.705C233.701 247.384 233.409 247.067 233.11 246.755C232.963 246.599 232.813 246.446 232.662 246.293L232.206 245.836C224.758 238.512 214.735 234.41 204.295 234.413L195.022 234.41Z" fill="white" stroke="black" stroke-width="2" stroke-miterlimit="10"/>
<path d="M96.1126 209.61L129.195 235.689C130.71 236.883 131.689 238.631 131.917 240.548C132.145 242.465 131.603 244.395 130.41 245.912L127.819 249.209L83.312 214.124L85.9037 210.827C87.0963 209.31 88.8419 208.33 90.7564 208.101C92.671 207.873 94.5976 208.416 96.1126 209.61Z" fill="white" stroke="black" stroke-width="2" stroke-miterlimit="10"/>
</svg>
