<svg width="271" height="263" viewBox="0 0 271 263" fill="none" xmlns="http://www.w3.org/2000/svg">
<path d="M32.457 50.7682C43.5447 50.7682 52.5331 41.7672 52.5331 30.664C52.5331 19.5608 43.5447 10.5598 32.457 10.5598C21.3693 10.5598 12.3809 19.5608 12.3809 30.664C12.3809 41.7672 21.3693 50.7682 32.457 50.7682Z" fill="white" stroke="black" stroke-width="1.5" stroke-linecap="round" stroke-linejoin="round"/>
<path d="M32.457 6.24699V0.984131" stroke="black" stroke-width="1.5" stroke-linecap="round" stroke-linejoin="round"/>
<path d="M49.7012 13.3988L53.4154 9.67664" stroke="black" stroke-width="1.5" stroke-linecap="round" stroke-linejoin="round"/>
<path d="M56.8428 30.6639H62.0983" stroke="black" stroke-width="1.5" stroke-linecap="round" stroke-linejoin="round"/>
<path d="M49.7012 47.9319L53.4154 51.6513" stroke="black" stroke-width="1.5" stroke-linecap="round" stroke-linejoin="round"/>
<path d="M32.457 55.0837V60.3466" stroke="black" stroke-width="1.5" stroke-linecap="round" stroke-linejoin="round"/>
<path d="M15.216 47.9319L11.499 51.6513" stroke="black" stroke-width="1.5" stroke-linecap="round" stroke-linejoin="round"/>
<path d="M8.07388 30.6639H2.81836" stroke="black" stroke-width="1.5" stroke-linecap="round" stroke-linejoin="round"/>
<path d="M15.216 13.3988L11.499 9.67664" stroke="black" stroke-width="1.5" stroke-linecap="round" stroke-linejoin="round"/>
<path d="M252.879 179.473C252.879 171.733 249.126 162.302 245.443 154.914C242.126 148.255 234.726 148.255 231.409 154.914C227.729 162.302 223.973 171.733 223.973 179.473C223.973 193.595 229.568 197.117 236.771 197.54V210.913H240.081V197.54C247.284 197.117 252.879 193.595 252.879 179.473Z" fill="white" stroke="black" stroke-width="1.5" stroke-linecap="round" stroke-linejoin="round"/>
<path d="M212.653 143.393H38.3164V210.897H212.653V143.393Z" fill="white" stroke="black" stroke-width="1.5" stroke-linecap="round" stroke-linejoin="round"/>
<path d="M212.653 117.998H38.3164V143.393H212.653V117.998Z" fill="white" stroke="black" stroke-width="1.5" stroke-linecap="round" stroke-linejoin="round"/>
<path d="M138.863 159.798H90.6621V210.897H138.863V159.798Z" fill="white" stroke="black" stroke-width="1.5" stroke-linecap="round" stroke-linejoin="round"/>
<path d="M73.8747 159.798H44.3086V210.897H73.8747V159.798Z" fill="white" stroke="black" stroke-width="1.5" stroke-linecap="round" stroke-linejoin="round"/>
<path d="M196.847 159.798H148.646V210.897H196.847V159.798Z" fill="white" stroke="black" stroke-width="1.5" stroke-linecap="round" stroke-linejoin="round"/>
<path d="M73.8747 159.798V166.128H50.6297V210.897H44.3086V159.798H73.8747Z" fill="#8782D7" stroke="black" stroke-width="1.5" stroke-linecap="round" stroke-linejoin="round"/>
<path d="M111.331 138.615C110.046 138.635 108.779 138.32 107.653 137.701C106.581 137.108 105.684 136.243 105.051 135.194C104.417 134.1 104.083 132.857 104.083 131.592C104.083 130.326 104.417 129.084 105.051 127.989C105.69 126.94 106.592 126.076 107.666 125.482C108.805 124.853 110.087 124.534 111.386 124.554C112.364 124.543 113.333 124.733 114.235 125.111C115.109 125.488 115.893 126.045 116.536 126.747L113.921 129.405C113.625 129.046 113.241 128.77 112.808 128.602C112.351 128.43 111.866 128.344 111.378 128.351C110.811 128.34 110.251 128.479 109.756 128.755C109.288 129.024 108.903 129.416 108.643 129.889C108.374 130.415 108.234 130.997 108.234 131.587C108.234 132.178 108.374 132.76 108.643 133.286C108.897 133.767 109.283 134.166 109.756 134.436C110.248 134.708 110.802 134.847 111.364 134.837C111.873 134.848 112.379 134.753 112.85 134.559C113.286 134.37 113.669 134.075 113.963 133.701L116.581 136.389C115.925 137.099 115.132 137.668 114.249 138.061C113.321 138.447 112.324 138.637 111.319 138.618" fill="#5FBE6E"/>
<path d="M126.266 124.844V125.989C125.904 125.64 125.491 125.348 125.042 125.122C124.289 124.745 123.457 124.554 122.616 124.565C121.459 124.548 120.322 124.871 119.347 125.493C118.383 126.112 117.602 126.978 117.085 128C116.546 129.12 116.267 130.346 116.267 131.589C116.267 132.831 116.546 134.058 117.085 135.177C117.598 136.195 118.374 137.056 119.333 137.671C120.306 138.286 121.437 138.603 122.588 138.585C123.435 138.598 124.274 138.419 125.042 138.061C125.494 137.843 125.908 137.552 126.266 137.2V138.314H130.272V124.844H126.266ZM125.626 133.921C125.341 134.222 124.995 134.459 124.611 134.614C124.227 134.769 123.814 134.84 123.4 134.821C122.854 134.83 122.317 134.686 121.848 134.406C121.395 134.128 121.024 133.736 120.771 133.269C120.498 132.755 120.362 132.179 120.376 131.597C120.363 131.005 120.499 130.418 120.771 129.892C120.972 129.537 121.242 129.225 121.565 128.974C121.888 128.724 122.257 128.54 122.651 128.433C123.045 128.326 123.456 128.299 123.861 128.352C124.265 128.406 124.655 128.539 125.008 128.744C125.459 129.018 125.827 129.41 126.071 129.878C126.335 130.402 126.465 130.983 126.452 131.569C126.492 132.431 126.196 133.274 125.626 133.921Z" fill="#00C3D7"/>
<path d="M140.138 124.596C139.863 124.544 139.583 124.519 139.303 124.521C138.612 124.518 137.932 124.693 137.328 125.028C136.703 125.373 136.154 125.841 135.714 126.404C135.594 126.552 135.483 126.707 135.383 126.869L135.3 124.835H131.519V138.312H135.525V131.541C135.519 131.169 135.583 130.798 135.714 130.449C135.832 130.141 136.005 129.858 136.226 129.613C136.447 129.369 136.721 129.179 137.027 129.056C137.354 128.926 137.702 128.861 138.054 128.864C138.378 128.863 138.702 128.902 139.017 128.981C139.276 129.032 139.525 129.127 139.754 129.26L140.867 124.755C140.627 124.689 140.383 124.636 140.138 124.596Z" fill="#8782D7"/>
<path d="M99.2701 124.824V132.472C99.2746 133.084 99.0362 133.673 98.6074 134.109C98.1786 134.545 97.5944 134.793 96.9832 134.798C96.6803 134.796 96.3808 134.734 96.1018 134.616C95.8228 134.498 95.5698 134.326 95.3572 134.11C95.1446 133.894 94.9765 133.638 94.8626 133.357C94.7488 133.076 94.6913 132.775 94.6935 132.472V124.824H90.6621V132.168C90.6621 133.847 91.3281 135.457 92.5135 136.644C93.6989 137.831 95.3067 138.498 96.9832 138.498C98.6596 138.498 100.267 137.831 101.453 136.644C102.638 135.457 103.304 133.847 103.304 132.168V124.824H99.2701Z" fill="#FF6E41"/>
<path d="M101.168 159.798H90.6621V210.897H101.168V159.798Z" fill="#5FBE6E" stroke="black" stroke-width="1.5" stroke-linecap="round" stroke-linejoin="round"/>
<path d="M101.165 159.798H138.863V173.413H114.761V210.897H101.165V159.798Z" fill="#FF6E41" stroke="black" stroke-width="1.5" stroke-linecap="round" stroke-linejoin="round"/>
<path d="M196.847 159.798H148.646V173.413H196.847V159.798Z" fill="#FF6E41" stroke="black" stroke-width="1.5" stroke-linecap="round" stroke-linejoin="round"/>
<path d="M50.6299 173.416H73.8749" stroke="black" stroke-width="1.5" stroke-linecap="round" stroke-linejoin="round"/>
<path d="M50.6299 180.122H73.8749" stroke="black" stroke-width="1.5" stroke-linecap="round" stroke-linejoin="round"/>
<path d="M50.6299 186.828H73.8749" stroke="black" stroke-width="1.5" stroke-linecap="round" stroke-linejoin="round"/>
<path d="M50.6299 193.534H73.8749" stroke="black" stroke-width="1.5" stroke-linecap="round" stroke-linejoin="round"/>
<path d="M50.6299 200.24H73.8749" stroke="black" stroke-width="1.5" stroke-linecap="round" stroke-linejoin="round"/>
<path d="M101.198 204.645H109.267V213.282C109.267 214.351 108.842 215.378 108.087 216.134C107.331 216.891 106.306 217.316 105.238 217.316C104.708 217.317 104.183 217.214 103.693 217.012C103.203 216.81 102.757 216.513 102.382 216.138C102.007 215.763 101.709 215.318 101.506 214.828C101.303 214.338 101.198 213.812 101.198 213.282V204.645Z" fill="white" stroke="black" stroke-width="1.5" stroke-linecap="round" stroke-linejoin="round"/>
<path d="M129.793 204.645H137.861V213.282C137.861 214.351 137.437 215.378 136.681 216.134C135.926 216.891 134.901 217.316 133.833 217.316C133.303 217.317 132.778 217.214 132.288 217.012C131.798 216.81 131.352 216.513 130.977 216.138C130.602 215.763 130.304 215.318 130.101 214.828C129.898 214.338 129.793 213.812 129.793 213.282V204.645Z" fill="white" stroke="black" stroke-width="1.5" stroke-linecap="round" stroke-linejoin="round"/>
<path d="M139.044 212.32H100.005C100.004 207.143 100.302 201.97 100.898 196.827C101.479 191.782 102.364 186.777 103.547 181.838C103.694 181.222 104.067 180.816 104.481 180.816H134.568C134.985 180.816 135.358 181.222 135.505 181.835C137.874 191.823 139.062 202.055 139.044 212.32Z" fill="white" stroke="black" stroke-width="1.5" stroke-linecap="round" stroke-linejoin="round"/>
<path d="M135.355 196.568C123.998 197.028 115.045 197.028 103.699 196.568C103.966 194.36 104.289 192.168 104.667 189.993C105.046 187.823 105.48 185.677 105.964 183.571H133.087C133.581 185.698 134.013 187.841 134.384 190.001C134.755 192.161 135.078 194.35 135.355 196.568Z" fill="white" stroke="black" stroke-width="1.5" stroke-linecap="round" stroke-linejoin="round"/>
<path d="M100.144 206.188H138.905" stroke="black" stroke-width="1.5" stroke-linecap="round" stroke-linejoin="round"/>
<path d="M100.897 196.913H96.6685C96.2612 196.913 95.8706 196.751 95.5826 196.463C95.2946 196.175 95.1328 195.783 95.1328 195.376V193.514C95.1328 193.082 95.3043 192.668 95.6095 192.362C95.9147 192.056 96.3287 191.885 96.7604 191.885H98.8804C99.2302 191.884 99.5686 192.01 99.8337 192.238C100.099 192.467 100.273 192.783 100.324 193.13L100.897 196.913Z" fill="white" stroke="black" stroke-width="1.5" stroke-linecap="round" stroke-linejoin="round"/>
<path d="M138.154 196.913H142.383C142.79 196.913 143.181 196.751 143.469 196.463C143.757 196.175 143.919 195.783 143.919 195.376V193.514C143.919 193.082 143.747 192.668 143.442 192.362C143.137 192.056 142.723 191.885 142.291 191.885H140.171C139.821 191.885 139.483 192.01 139.217 192.239C138.952 192.467 138.777 192.783 138.725 193.13L138.154 196.913Z" fill="white" stroke="black" stroke-width="1.5" stroke-linecap="round" stroke-linejoin="round"/>
<path d="M110.952 202.319C111.327 201 109.827 199.417 107.601 198.782C105.375 198.148 103.267 198.703 102.893 200.021C102.518 201.34 104.018 202.923 106.244 203.557C108.469 204.192 110.577 203.637 110.952 202.319Z" fill="white" stroke="black" stroke-width="1.5" stroke-linecap="round" stroke-linejoin="round"/>
<path d="M132.761 203.639C134.987 203.004 136.487 201.421 136.112 200.102C135.738 198.784 133.629 198.229 131.404 198.864C129.178 199.498 127.678 201.081 128.053 202.4C128.428 203.719 130.536 204.273 132.761 203.639Z" fill="white" stroke="black" stroke-width="1.5" stroke-linecap="round" stroke-linejoin="round"/>
<path d="M159.693 204.645H167.762V213.282C167.762 214.351 167.337 215.378 166.582 216.134C165.826 216.891 164.802 217.316 163.733 217.316C163.203 217.317 162.678 217.214 162.188 217.012C161.698 216.81 161.253 216.513 160.877 216.138C160.502 215.763 160.204 215.318 160.001 214.828C159.798 214.338 159.693 213.812 159.693 213.282V204.645Z" fill="white" stroke="black" stroke-width="1.5" stroke-linecap="round" stroke-linejoin="round"/>
<path d="M188.292 204.645H196.36V213.282C196.36 214.351 195.936 215.378 195.18 216.134C194.425 216.891 193.4 217.316 192.332 217.316C191.802 217.317 191.277 217.214 190.787 217.012C190.297 216.81 189.851 216.513 189.476 216.138C189.101 215.763 188.803 215.318 188.6 214.828C188.397 214.338 188.292 213.812 188.292 213.282V204.645Z" fill="white" stroke="black" stroke-width="1.5" stroke-linecap="round" stroke-linejoin="round"/>
<path d="M197.54 212.32H158.503C158.501 207.143 158.798 201.97 159.393 196.827C159.974 191.782 160.859 186.777 162.042 181.838C162.189 181.222 162.562 180.816 162.979 180.816H193.066C193.48 180.816 193.853 181.222 194.001 181.835C196.369 191.823 197.557 202.055 197.54 212.32Z" fill="white" stroke="black" stroke-width="1.5" stroke-linecap="round" stroke-linejoin="round"/>
<path d="M193.85 196.568C182.496 197.028 173.54 197.028 162.194 196.568C162.461 194.36 162.784 192.168 163.163 189.993C163.541 187.823 163.975 185.677 164.459 183.571H191.582C192.072 185.698 192.506 187.845 192.884 190.012C193.263 192.18 193.585 194.365 193.85 196.568Z" fill="white" stroke="black" stroke-width="1.5" stroke-linecap="round" stroke-linejoin="round"/>
<path d="M158.639 206.188H197.4" stroke="black" stroke-width="1.5" stroke-linecap="round" stroke-linejoin="round"/>
<path d="M159.393 196.913H155.164C154.756 196.913 154.366 196.751 154.078 196.463C153.79 196.175 153.628 195.783 153.628 195.376V193.514C153.628 193.082 153.799 192.668 154.105 192.362C154.41 192.056 154.824 191.885 155.255 191.885H157.375C157.726 191.885 158.064 192.01 158.329 192.239C158.595 192.467 158.77 192.783 158.822 193.13L159.393 196.913Z" fill="white" stroke="black" stroke-width="1.5" stroke-linecap="round" stroke-linejoin="round"/>
<path d="M196.649 196.913H200.878C201.286 196.913 201.676 196.751 201.964 196.463C202.252 196.175 202.414 195.783 202.414 195.376V193.514C202.414 193.082 202.243 192.668 201.937 192.362C201.632 192.056 201.218 191.885 200.786 191.885H198.666C198.316 191.885 197.978 192.01 197.713 192.239C197.447 192.467 197.272 192.783 197.22 193.13L196.649 196.913Z" fill="white" stroke="black" stroke-width="1.5" stroke-linecap="round" stroke-linejoin="round"/>
<path d="M169.443 202.317C169.818 200.998 168.318 199.415 166.092 198.781C163.867 198.146 161.759 198.701 161.384 200.019C161.009 201.338 162.509 202.921 164.735 203.556C166.961 204.19 169.069 203.636 169.443 202.317Z" fill="white" stroke="black" stroke-width="1.5" stroke-linecap="round" stroke-linejoin="round"/>
<path d="M191.258 203.643C193.484 203.008 194.984 201.425 194.61 200.107C194.235 198.788 192.127 198.233 189.901 198.868C187.675 199.502 186.175 201.086 186.55 202.404C186.925 203.723 189.033 204.277 191.258 203.643Z" fill="white" stroke="black" stroke-width="1.5" stroke-linecap="round" stroke-linejoin="round"/>
<path d="M73.4379 36.8434C73.4379 32.7913 71.8305 28.9051 68.9691 26.0397C66.1078 23.1744 62.227 21.5647 58.1805 21.5647C54.134 21.5647 50.2532 23.1744 47.3919 26.0397C44.5306 28.9051 42.9231 32.7913 42.9231 36.8434C39.0709 36.8442 35.3767 38.3769 32.6527 41.1047C29.9288 43.8324 28.3982 47.5318 28.3975 51.3894C28.3982 55.247 29.9288 58.9464 32.6527 61.6742C35.3767 64.4019 39.0709 65.9347 42.9231 65.9354H73.4379C77.2904 65.9354 80.9851 64.4029 83.7091 61.675C86.4332 58.9471 87.9636 55.2473 87.9636 51.3894C87.9636 47.5316 86.4332 43.8317 83.7091 41.1038C80.9851 38.3759 77.2904 36.8434 73.4379 36.8434Z" fill="white" stroke="black" stroke-width="1.5" stroke-linecap="round" stroke-linejoin="round"/>
<path d="M214.972 63.6815C214.972 58.7586 212.376 54.1254 208.044 51.799C206.053 50.7323 203.826 50.1845 201.569 50.2059C199.311 50.2273 197.094 50.8173 195.124 51.9216C194.592 48.5717 192.819 45.5458 190.157 43.4475C187.496 41.3492 184.143 40.3328 180.766 40.6011C177.39 40.8694 174.238 42.4026 171.941 44.895C169.643 47.3873 168.368 50.6554 168.371 54.0474C168.369 54.6362 168.407 55.2245 168.485 55.8081C166.326 54.5747 163.866 53.9679 161.382 54.0557C157.99 54.1837 154.771 55.5841 152.362 57.9789C149.954 60.3736 148.533 63.5877 148.381 66.983C148.381 67.1836 148.381 67.3842 148.381 67.5848C148.403 72.7056 152.671 76.7955 157.785 76.7955H201.879C203.599 76.7955 205.301 76.4563 206.89 75.7972C208.479 75.1381 209.922 74.1721 211.138 72.9543C212.354 71.7366 213.318 70.2909 213.976 68.6998C214.634 67.1088 214.972 65.4035 214.972 63.6815Z" fill="white" stroke="black" stroke-width="1.5" stroke-linecap="round" stroke-linejoin="round"/>
<path d="M28.228 196.902L22.1184 227.432L0.868164 222.785" stroke="black" stroke-width="1.5" stroke-linecap="round" stroke-linejoin="round"/>
<path d="M25.5987 208.416L8.28223 204.448L3.93337 223.477L21.2499 227.446L25.5987 208.416Z" fill="white" stroke="black" stroke-width="1.5" stroke-linecap="round" stroke-linejoin="round"/>
<path d="M8.30176 204.433L12.7532 212.332C13.0108 212.788 13.3606 213.185 13.7803 213.499C14.2 213.812 14.6803 214.034 15.1906 214.151C15.7009 214.268 16.2299 214.277 16.7439 214.178C17.2579 214.079 17.7456 213.873 18.1757 213.574L25.618 208.4L8.30176 204.433Z" fill="white" stroke="black" stroke-width="1.5" stroke-linecap="round" stroke-linejoin="round"/>
<path d="M22.1191 231.324C24.2657 231.324 26.0058 229.581 26.0058 227.432C26.0058 225.282 24.2657 223.54 22.1191 223.54C19.9725 223.54 18.2324 225.282 18.2324 227.432C18.2324 229.581 19.9725 231.324 22.1191 231.324Z" fill="white" stroke="black" stroke-width="1.5" stroke-miterlimit="10"/>
<path d="M36.0625 181.147C36.0625 181.147 35.8177 184.49 35.0498 185.092C34.2819 185.694 35.5562 186.535 35.5562 186.535C35.5562 186.535 35.1945 189.525 36.7442 189.321C38.2939 189.118 39.1229 188.277 39.5542 189.645L42.9734 189.285L44.0362 186.499L43.758 181.743L36.0625 181.147Z" fill="white" stroke="black" stroke-width="1.5" stroke-linecap="round" stroke-linejoin="round"/>
<path d="M36.9136 233.628H37.968C37.968 233.628 36.4629 226.053 37.8178 219.553C39.1727 213.053 44.5896 207.67 44.5896 207.67L37.9124 205.48C37.9124 205.48 32.195 211.699 31.5662 222.662C31.3381 226.615 32.5372 231.187 30.7149 231.187C28.4892 231.187 28.7229 233.628 28.7229 233.628H36.9191H36.9136Z" fill="black" stroke="black" stroke-width="1.5" stroke-linecap="round" stroke-linejoin="round"/>
<path d="M47.0607 233.628H48.1123C48.1123 233.628 45.0519 226.081 45.8226 219.486C46.2893 215.554 46.1956 211.576 45.5444 207.67L38.8672 205.48C38.8672 205.48 40.2054 211.629 39.5766 222.595C39.3485 226.549 42.6871 231.187 40.8648 231.187C38.639 231.187 38.8755 233.628 38.8755 233.628H47.0718H47.0607Z" fill="black" stroke="black" stroke-width="1.5" stroke-linecap="round" stroke-linejoin="round"/>
<path d="M43.2792 189.04C46.6707 191.826 47.3217 198.97 46.6929 205.199C46.5349 206.973 46.4755 208.754 46.5149 210.534L33.9951 208.899C34.2976 206.272 34.9275 203.694 35.8703 201.223C37.3031 197.46 39.5038 193.93 39.4287 189.31L43.2792 189.04Z" fill="white" stroke="black" stroke-width="1.5" stroke-linecap="round" stroke-linejoin="round"/>
<path d="M37.1921 184.474C37.4395 184.474 37.64 184.273 37.64 184.025C37.64 183.777 37.4395 183.577 37.1921 183.577C36.9447 183.577 36.7441 183.777 36.7441 184.025C36.7441 184.273 36.9447 184.474 37.1921 184.474Z" fill="black"/>
<path d="M43.8469 187.739C43.8469 187.739 40.984 186.218 42.3222 185.095C43.8747 183.797 43.3322 182.326 42.275 182.055C40.9479 181.713 40.7364 182.975 40.3441 183.005C38.021 183.181 36.1987 182.727 35.0914 180.442C34.5906 179.411 38.8306 179.094 41.7352 179.094C44.6398 179.094 46.5901 188.254 43.8469 187.739Z" fill="black" stroke="black" stroke-width="1.5" stroke-linecap="round" stroke-linejoin="round"/>
<path d="M42.1996 197.49C38.1682 200.622 33.7696 201.165 28.8896 201.14L30.3837 196.125C37.1694 195.568 41.7405 192.871 41.7405 192.871" fill="white"/>
<path d="M42.1996 197.49C38.1682 200.622 33.7696 201.165 28.8896 201.14L30.3837 196.125C37.1694 195.568 41.7405 192.871 41.7405 192.871" stroke="black" stroke-width="1.5" stroke-linecap="round" stroke-linejoin="round"/>
<path d="M26.9922 201.106C27.9465 201.165 28.8924 201.14 28.8924 201.14L30.3864 196.125C30.3864 196.125 28.03 194.715 27.8018 195.897C27.7234 196.212 27.7188 196.541 27.7883 196.859C27.8578 197.176 27.9995 197.473 28.2024 197.727C28.2024 197.727 24.7359 197.312 25.003 198.309L25.0169 199.039C25.0276 199.569 25.2366 200.075 25.6024 200.458C25.9682 200.841 26.4642 201.072 26.9922 201.106Z" fill="white" stroke="black" stroke-width="1.5" stroke-linecap="round" stroke-linejoin="round"/>
<path d="M35.5371 187.68C35.5371 187.68 37.0033 187.92 37.6543 186.703L35.5371 187.68Z" fill="white"/>
<path d="M35.5371 187.68C35.5371 187.68 37.0033 187.92 37.6543 186.703" stroke="black" stroke-width="1.5" stroke-linecap="round" stroke-linejoin="round"/>
<path d="M261.699 249.79L235.285 252.777H84.6728C82.5315 252.777 80.4775 251.926 78.9618 250.411C77.4461 248.896 76.5923 246.841 76.5879 244.697V241.574H234.698L269.798 237.673V240.738C269.791 242.979 268.962 245.139 267.469 246.808C265.976 248.476 263.923 249.538 261.699 249.79Z" fill="white" stroke="black" stroke-width="1.5" stroke-miterlimit="10"/>
<path d="M269.798 237.657L234.699 241.557H76.5908V235.135C76.5908 234.879 76.5908 234.631 76.6214 234.38C76.7617 232.481 77.4335 230.661 78.5599 229.127C79.6863 227.593 81.2216 226.408 82.9898 225.707C93.0888 221.714 103.849 219.662 114.706 219.659C115.483 219.659 116.256 219.659 117.032 219.689L128.211 219.996L135.32 215.457C148.35 207.136 163.484 202.716 178.938 202.717H195.387C209.235 202.713 222.892 205.957 235.263 212.189L245.279 217.235L257.081 217.118C258.102 217.108 259.116 217.3 260.062 217.685C261.009 218.069 261.87 218.637 262.596 219.357C263.321 220.077 263.897 220.934 264.29 221.878C264.683 222.822 264.885 223.835 264.885 224.858C264.885 229.584 266.632 234.144 269.79 237.657H269.798Z" fill="black" stroke="black" stroke-width="1.5" stroke-miterlimit="10"/>
<path d="M134.059 227.822C133.013 227.853 132.596 226.187 133.477 225.498L139.429 220.868C151.256 211.674 164.922 206.796 178.935 206.796H195.383C207.978 206.796 220.582 210.448 231.83 217.363L239.812 222.269C240.772 222.86 240.449 224.624 239.375 224.654L134.059 227.822Z" fill="white" stroke="black" stroke-width="1.5" stroke-miterlimit="10"/>
<path d="M108.799 262.216C116.656 262.216 123.025 255.838 123.025 247.971C123.025 240.103 116.656 233.726 108.799 233.726C100.943 233.726 94.5742 240.103 94.5742 247.971C94.5742 255.838 100.943 262.216 108.799 262.216Z" fill="white" stroke="black" stroke-width="1.5" stroke-miterlimit="10"/>
<path d="M108.799 254.381C112.335 254.381 115.201 251.511 115.201 247.971C115.201 244.43 112.335 241.56 108.799 241.56C105.264 241.56 102.397 244.43 102.397 247.971C102.397 251.511 105.264 254.381 108.799 254.381Z" fill="white" stroke="black" stroke-width="1.5" stroke-miterlimit="10"/>
<path d="M224.855 262.216C232.711 262.216 239.08 255.838 239.08 247.971C239.08 240.103 232.711 233.726 224.855 233.726C216.999 233.726 210.63 240.103 210.63 247.971C210.63 255.838 216.999 262.216 224.855 262.216Z" fill="white" stroke="black" stroke-width="1.5" stroke-miterlimit="10"/>
<path d="M224.855 254.381C228.39 254.381 231.257 251.511 231.257 247.971C231.257 244.43 228.39 241.56 224.855 241.56C221.319 241.56 218.453 244.43 218.453 247.971C218.453 251.511 221.319 254.381 224.855 254.381Z" fill="white" stroke="black" stroke-width="1.5" stroke-miterlimit="10"/>
<path d="M97.2787 221.431C97.1757 225.437 94.2183 229.917 89.3801 232.714C84.9537 235.272 80.1044 235.779 76.6211 234.369C76.7614 232.47 77.4332 230.649 78.5596 229.115C79.686 227.581 81.2213 226.396 82.9895 225.696C87.6192 223.86 92.4005 222.433 97.2787 221.431Z" fill="white" stroke="black" stroke-width="1.5" stroke-miterlimit="10"/>
<path d="M183.553 206.796V226.334" stroke="black" stroke-width="1.5" stroke-miterlimit="10"/>
<path d="M153.629 218.433H150.188V227.173H153.629V218.433Z" fill="black" stroke="black" stroke-width="1.5" stroke-miterlimit="10"/>
<path d="M164.958 213.535H166.26C166.26 213.535 164.958 217.973 168.839 217.157C169.421 217.037 168.661 218.681 169.487 218.829C173.9 219.584 175.38 219.364 175.38 219.364V210.952L167.334 208.127L166.919 210.482L164.958 213.535Z" fill="white" stroke="black" stroke-width="1.5" stroke-linejoin="round"/>
<path d="M167.887 212.513C168.119 212.513 168.307 212.324 168.307 212.092C168.307 211.859 168.119 211.671 167.887 211.671C167.655 211.671 167.467 211.859 167.467 212.092C167.467 212.324 167.655 212.513 167.887 212.513Z" fill="black"/>
<path d="M168.01 214.588C167.783 214.815 167.493 214.97 167.178 215.033C166.863 215.095 166.537 215.063 166.24 214.939" fill="white"/>
<path d="M168.01 214.588C167.783 214.815 167.493 214.97 167.178 215.033C166.863 215.095 166.537 215.063 166.24 214.939" stroke="black" stroke-width="1.5" stroke-linecap="round" stroke-linejoin="round"/>
<path d="M179.455 226.457C179.455 221.838 175.432 218.177 170.856 218.765C169.321 218.962 167.846 219.482 166.527 220.291C160.208 224.147 156.163 222.852 156.163 222.852V227.173C156.163 227.173 164.83 227.922 167.809 224.944V226.813L179.455 226.462V226.457Z" fill="white" stroke="black" stroke-width="1.5" stroke-linecap="round" stroke-linejoin="round"/>
<path d="M156.167 222.851C156.167 222.851 153.663 220.765 153.663 221.882C153.683 222.621 153.847 223.35 154.144 224.027C154.144 224.027 151.429 223.164 151.148 224.027C150.867 224.891 151.426 227.173 156.155 227.173L156.167 222.851Z" fill="white" stroke="black" stroke-width="1.5" stroke-linecap="round" stroke-linejoin="round"/>
<path d="M166.257 206.439C166.036 206.589 165.857 206.794 165.737 207.033C165.616 207.272 165.559 207.538 165.57 207.805C165.581 208.072 165.659 208.333 165.799 208.561C165.938 208.79 166.133 208.979 166.366 209.111C167.606 209.818 169.393 210.986 171.449 211.27C172.127 211.365 173.872 210.108 173.872 212.106C173.872 213.192 175.38 214.165 175.38 214.652V210.089C175.383 209.693 175.301 209.3 175.141 208.938C174.98 208.576 174.745 208.253 174.45 207.989C174.155 207.725 173.807 207.528 173.429 207.409C173.052 207.291 172.654 207.255 172.261 207.303L171.254 207.42C170.484 207.509 169.71 207.297 169.092 206.829L168.369 206.272C168.106 206.072 167.788 205.96 167.459 205.951C167.129 205.942 166.805 206.037 166.533 206.222L166.257 206.439Z" fill="black" stroke="black" stroke-width="1.5" stroke-linecap="round" stroke-linejoin="round"/>
</svg>
