<svg width="1808" height="527" viewBox="0 0 1808 527" fill="none" xmlns="http://www.w3.org/2000/svg">
<g clip-path="url(#clip0_685_6176)">
<path d="M554.166 398.945H281.985V420.326H554.166V398.945Z" fill="#A9A9A9" stroke="black" stroke-width="3.11688" stroke-linecap="round" stroke-linejoin="round"/>
<path d="M281.993 320.664V429.95H171.367C160.388 429.95 151.559 421.036 151.559 410.166C151.559 409.87 151.559 409.573 151.583 409.27L152.292 393.21L152.479 392.212C152.65 391.262 152.869 390.319 153.126 389.392C156.32 377.859 165.741 368.703 177.959 365.509L179.346 365.15L183.983 363.935L189.359 362.532C196.271 360.724 202.474 357.015 207.196 351.872L232.746 324.031C234.71 321.888 237.546 320.664 240.523 320.664H281.993Z" fill="white" stroke="black" stroke-width="3.11688" stroke-linecap="round" stroke-linejoin="round"/>
<path d="M170.323 384.155C165.157 388.153 158.907 389.875 153.118 389.399C156.312 377.859 165.733 368.711 177.951 365.516L179.338 365.15C179.931 371.906 176.759 379.176 170.323 384.155Z" fill="white" stroke="black" stroke-width="3.11688" stroke-miterlimit="10"/>
<path d="M246.468 330.381C242.689 330.381 239.097 331.932 236.603 334.644L218.455 354.374C216.141 356.891 214.863 360.124 214.863 363.467V371.384C214.863 375.436 219.063 378.28 223.084 376.94L271.793 360.724V330.381H246.468Z" fill="white" stroke="black" stroke-width="3.11688" stroke-miterlimit="10"/>
<path d="M281.984 320.664H226.971C226.971 298.215 242.665 278.508 265.363 272.469L281.984 268.051V320.664Z" fill="white" stroke="black" stroke-width="3.11688" stroke-miterlimit="10"/>
<path d="M554.166 268.051H281.985V398.945H554.166V268.051Z" fill="white" stroke="black" stroke-width="3.11688" stroke-miterlimit="10"/>
<path d="M562.604 379.535L554.064 379.441L554.851 308.556C554.874 306.693 557.43 306.21 558.131 307.932C558.77 309.506 559.144 311.174 559.23 312.857L562.604 379.535Z" fill="#A9A9A9" stroke="black" stroke-width="3.11688" stroke-linecap="round" stroke-linejoin="round"/>
<path d="M562.714 388.099C567.676 388.099 571.699 384.265 571.699 379.535C571.699 374.805 567.676 370.971 562.714 370.971C557.752 370.971 553.73 374.805 553.73 379.535C553.73 384.265 557.752 388.099 562.714 388.099Z" fill="white" stroke="black" stroke-width="3.11688" stroke-miterlimit="10"/>
<path d="M407.167 353.61C403.809 353.61 400.777 352.893 398.089 351.46C395.401 350.026 393.258 348.062 391.668 345.569C390.079 343.075 389.284 340.262 389.284 337.145C389.284 334.029 390.079 331.145 391.668 328.652C393.258 326.158 395.409 324.187 398.12 322.73C400.832 321.281 403.894 320.548 407.299 320.548C409.855 320.548 412.193 320.984 414.328 321.849C416.455 322.714 418.349 324 420.009 325.691L413.557 331.94C412.793 331.075 411.889 330.444 410.837 330.055C409.785 329.665 408.609 329.47 407.307 329.47C405.78 329.47 404.448 329.782 403.31 330.413C402.164 331.044 401.261 331.932 400.59 333.078C399.92 334.231 399.585 335.564 399.585 337.083C399.585 338.603 399.92 339.88 400.59 341.049C401.261 342.218 402.18 343.122 403.349 343.753C404.518 344.384 405.834 344.696 407.315 344.696C408.702 344.696 409.925 344.478 410.977 344.041C412.029 343.605 412.941 342.935 413.697 342.023L420.149 348.335C418.442 350.073 416.525 351.382 414.398 352.27C412.271 353.158 409.863 353.603 407.167 353.603" fill="#10A96C"/>
<path d="M444.016 321.272V323.961C443.152 323.158 442.146 322.48 440.993 321.919C439.201 321.054 437.206 320.618 435.009 320.618C432.009 320.618 429.313 321.342 426.944 322.8C424.567 324.257 422.705 326.213 421.365 328.691C420.016 331.161 419.346 333.981 419.346 337.153C419.346 340.324 420.016 343.075 421.365 345.545C422.713 348.015 424.559 349.971 426.913 351.405C429.266 352.839 431.946 353.555 434.946 353.555C437.19 353.555 439.201 353.142 441.001 352.316C442.162 351.787 443.167 351.109 444.024 350.298V352.901H453.905V321.28H444.024L444.016 321.272ZM442.435 342.584C441.063 343.994 439.24 344.696 436.957 344.696C435.523 344.696 434.245 344.368 433.123 343.722C432.001 343.075 431.113 342.179 430.466 341.057C429.819 339.927 429.492 338.626 429.492 337.153C429.492 335.68 429.819 334.301 430.466 333.148C431.113 332.002 432.001 331.098 433.123 330.444C434.245 329.797 435.546 329.47 437.019 329.47C438.492 329.47 439.801 329.797 440.915 330.444C442.037 331.098 442.91 331.987 443.541 333.109C444.164 334.239 444.484 335.563 444.484 337.075C444.484 339.327 443.798 341.166 442.435 342.576V342.584Z" fill="#00A6BF"/>
<path d="M478.247 320.688C477.608 320.571 476.922 320.508 476.182 320.508C474.452 320.508 472.824 320.906 471.304 321.701C469.785 322.495 468.452 323.571 467.322 324.927C467.026 325.277 466.753 325.644 466.504 326.018L466.301 321.241H456.974V352.885H466.855V336.989C466.855 336.031 467.011 335.173 467.314 334.418C467.626 333.662 468.047 333.007 468.577 332.446C469.114 331.885 469.769 331.464 470.556 331.16C471.335 330.864 472.185 330.708 473.089 330.708C473.914 330.708 474.701 330.794 475.465 330.981C476.229 331.16 476.837 331.386 477.289 331.667L480.008 321.093C479.47 320.937 478.886 320.797 478.247 320.672V320.688Z" fill="#8782D7"/>
<path d="M377.4 321.226V339.179C377.4 342.194 374.875 344.641 371.751 344.641C368.634 344.641 366.101 342.194 366.101 339.179V321.226H356.151V338.47C356.151 346.792 363.148 353.563 371.751 353.563C380.353 353.563 387.351 346.792 387.351 338.47V321.226H377.4Z" fill="#EF664E"/>
<path d="M222.952 429.95H171.367C160.388 429.95 151.559 421.035 151.559 410.165C151.559 409.869 151.559 409.573 151.583 409.269H207.406L222.952 429.95Z" fill="#A9A9A9" stroke="black" stroke-width="3.11688" stroke-linecap="round" stroke-linejoin="round"/>
<path d="M233.541 434.181C233.541 434.594 233.533 435.007 233.51 435.42C232.832 448.604 221.408 459.092 207.406 459.092C193.403 459.092 181.972 448.604 181.302 435.42C181.279 435.007 181.271 434.594 181.271 434.181C181.271 426.615 184.808 419.835 190.395 415.269C194.969 411.529 200.915 409.269 207.414 409.269C213.912 409.269 219.858 411.529 224.432 415.269C230.019 419.835 233.556 426.615 233.556 434.181H233.541Z" fill="white" stroke="black" stroke-width="3.11688" stroke-linecap="round" stroke-linejoin="round"/>
<path d="M207.406 445.371C213.887 445.371 219.141 440.364 219.141 434.189C219.141 428.013 213.887 423.007 207.406 423.007C200.925 423.007 195.671 428.013 195.671 434.189C195.671 440.364 200.925 445.371 207.406 445.371Z" fill="white" stroke="black" stroke-width="3.11688" stroke-linecap="round" stroke-linejoin="round"/>
<path d="M487.636 434.181C487.636 434.594 487.628 435.007 487.605 435.42C486.927 448.604 475.504 459.092 461.501 459.092C447.499 459.092 436.067 448.604 435.397 435.42C435.374 435.007 435.366 434.594 435.366 434.181C435.366 426.615 438.904 419.835 444.491 415.269C449.065 411.529 455.01 409.269 461.509 409.269C468.008 409.269 473.953 411.529 478.527 415.269C484.114 419.835 487.652 426.615 487.652 434.181H487.636Z" fill="white" stroke="black" stroke-width="3.11688" stroke-linecap="round" stroke-linejoin="round"/>
<path d="M461.502 445.371C467.983 445.371 473.237 440.364 473.237 434.189C473.237 428.013 467.983 423.007 461.502 423.007C455.021 423.007 449.767 428.013 449.767 434.189C449.767 440.364 455.021 445.371 461.502 445.371Z" fill="white" stroke="black" stroke-width="3.11688" stroke-linecap="round" stroke-linejoin="round"/>
<path d="M1.55859 458.984H1806.44" stroke="black" stroke-width="3.11688" stroke-linecap="round" stroke-linejoin="round"/>
<path d="M504.537 416.057C504.537 417.374 504.21 418.706 503.508 419.914L499.449 427.021C499.355 427.192 499.254 427.356 499.153 427.519C496.659 431.587 492.35 434.143 487.636 434.587C485.625 417.911 471.428 404.992 454.215 404.992C448.277 404.992 442.698 406.527 437.851 409.231C427.347 415.083 415.729 418.675 403.721 419.376L305.703 425.096C296.485 425.634 287.345 422.712 280.332 416.712C275.283 412.387 268.722 409.769 261.545 409.769C254.368 409.769 247.792 412.395 242.735 416.727C238.036 420.763 232.309 423.428 226.231 424.636L208.488 428.174L207.265 420C207.046 418.566 206.969 417.132 207.023 415.73C207.374 405.686 214.239 396.779 224.275 394.114L226.675 393.475L275.197 380.579C276.467 380.743 277.729 380.899 279 381.047C279.148 381.062 279.288 381.078 279.436 381.093C280.574 381.226 281.719 381.343 282.865 381.46C288.358 382.005 293.867 382.371 299.384 382.543C300.724 382.589 302.064 382.621 303.405 382.644C306.6 382.699 309.794 382.691 312.989 382.613C314.828 382.566 316.675 382.512 318.514 382.426L376.449 379.854L439.16 377.065C444.147 376.839 448.075 372.732 448.075 367.745C448.075 365.93 447.545 364.192 446.61 362.719C445.667 361.247 444.319 360.039 442.667 359.275L417.342 347.556H444.506C450.451 347.556 456.218 349.551 460.893 353.228L491.321 378.561C496.581 382.94 499.456 389.548 499.075 396.382L498.677 403.418C498.529 405.95 499.628 408.382 501.607 409.956C503.524 411.475 504.545 413.743 504.545 416.049L504.537 416.057Z" fill="white" stroke="black" stroke-width="3.11688" stroke-linecap="round" stroke-linejoin="round"/>
<path d="M290.423 437.492L232.659 438.326L210.062 438.653L208.496 428.165L226.247 424.627C232.324 423.42 238.044 420.755 242.75 416.718C247.808 412.378 254.376 409.76 261.561 409.76C268.745 409.76 275.298 412.37 280.348 416.703C287.361 422.71 296.501 425.625 305.719 425.095L403.737 419.375C415.745 418.674 427.363 415.082 437.867 409.23C442.714 406.534 448.293 404.991 454.231 404.991C471.444 404.991 485.641 417.91 487.651 434.586C487.238 434.625 486.818 434.648 486.397 434.656L290.423 437.492Z" fill="#A9A9A9" stroke="black" stroke-width="3.11688" stroke-linecap="round" stroke-linejoin="round"/>
<path d="M448.066 367.745C448.066 372.732 444.139 376.846 439.152 377.064L318.506 382.425C304.043 383.064 289.55 382.449 275.197 380.571L317.056 356.696C327.56 350.703 339.451 347.555 351.544 347.555H417.326L442.651 359.275C444.303 360.038 445.651 361.246 446.594 362.719C447.537 364.192 448.066 365.929 448.066 367.745Z" fill="white" stroke="black" stroke-width="3.11688" stroke-linecap="round" stroke-linejoin="round"/>
<path d="M376.433 379.846L380.189 347.555" stroke="black" stroke-width="3.11688" stroke-linecap="round" stroke-linejoin="round"/>
<path d="M336.435 404.056C335.009 404.126 333.7 403.877 332.523 403.292C331.347 402.708 330.396 401.882 329.656 400.807C328.924 399.731 328.518 398.492 328.448 397.098C328.378 395.687 328.651 394.402 329.274 393.256C329.898 392.111 330.762 391.183 331.885 390.474C333.007 389.765 334.292 389.376 335.734 389.305C336.817 389.251 337.822 389.391 338.749 389.734C339.677 390.077 340.511 390.607 341.251 391.324L338.648 394.253C338.305 393.879 337.9 393.622 337.448 393.466C336.988 393.318 336.49 393.256 335.936 393.279C335.29 393.311 334.729 393.482 334.253 393.786C333.778 394.09 333.42 394.511 333.155 395.033C332.898 395.563 332.781 396.163 332.82 396.84C332.851 397.495 333.022 398.079 333.342 398.586C333.653 399.092 334.066 399.474 334.573 399.731C335.079 399.989 335.656 400.098 336.279 400.066C336.872 400.035 337.386 399.911 337.822 399.7C338.259 399.482 338.633 399.163 338.936 398.742L341.827 401.422C341.142 402.233 340.355 402.864 339.474 403.3C338.586 403.744 337.573 403.994 336.427 404.048L336.435 404.056Z" fill="#10A96C"/>
<path d="M355.574 388.612L351.374 388.83L351.436 390.03C351.047 389.695 350.61 389.407 350.104 389.188C349.325 388.838 348.467 388.69 347.532 388.737C346.254 388.807 345.132 389.188 344.151 389.882C343.169 390.583 342.428 391.495 341.906 392.633C341.392 393.762 341.166 395.04 341.244 396.451C341.314 397.846 341.665 399.077 342.296 400.152C342.927 401.227 343.753 402.053 344.789 402.646C345.826 403.238 346.979 403.495 348.257 403.433C349.208 403.386 350.057 403.16 350.805 402.747C351.288 402.49 351.701 402.162 352.044 401.781L352.106 402.942L356.306 402.731L355.589 388.62L355.574 388.612ZM351.187 398.368C350.634 399.03 349.878 399.381 348.904 399.427C348.288 399.459 347.743 399.342 347.252 399.077C346.761 398.812 346.363 398.43 346.06 397.947C345.756 397.456 345.592 396.887 345.561 396.225C345.53 395.547 345.631 394.947 345.88 394.417C346.13 393.887 346.488 393.466 346.948 393.155C347.408 392.843 347.953 392.664 348.584 392.633C349.215 392.601 349.776 392.718 350.267 392.983C350.758 393.248 351.148 393.63 351.444 394.121C351.74 394.612 351.904 395.196 351.935 395.874C351.989 396.879 351.74 397.713 351.187 398.368Z" fill="#00A6BF"/>
<path d="M365.913 387.825C365.641 387.786 365.344 387.771 365.033 387.786C364.3 387.825 363.615 388.036 362.983 388.425C362.352 388.815 361.815 389.321 361.363 389.953C361.246 390.116 361.137 390.288 361.043 390.459L360.848 388.332L356.882 388.534L357.599 402.654L361.799 402.443L361.441 395.353C361.417 394.924 361.464 394.542 361.581 394.199C361.698 393.857 361.861 393.553 362.072 393.295C362.29 393.038 362.555 392.828 362.882 392.68C363.209 392.532 363.56 392.446 363.95 392.423C364.3 392.407 364.635 392.423 364.963 392.493C365.29 392.555 365.555 392.649 365.75 392.758L366.661 387.981C366.428 387.919 366.178 387.872 365.905 387.833L365.913 387.825Z" fill="#8782D7"/>
<path d="M323.049 390.248L323.454 398.259C323.524 399.607 322.504 400.752 321.179 400.822C319.854 400.892 318.724 399.856 318.654 398.508L318.249 390.498L314.018 390.716L314.407 398.407C314.595 402.124 317.727 404.991 321.382 404.804C325.036 404.617 327.857 401.446 327.67 397.729L327.28 390.038L323.049 390.256V390.248Z" fill="#EF664E"/>
<path d="M261.553 459.264C272.932 459.264 282.156 450.04 282.156 438.662C282.156 427.283 272.932 418.059 261.553 418.059C250.175 418.059 240.951 427.283 240.951 438.662C240.951 450.04 250.175 459.264 261.553 459.264Z" fill="white" stroke="black" stroke-width="3.11688" stroke-linecap="round" stroke-linejoin="round"/>
<path d="M261.553 451.176C268.464 451.176 274.067 445.573 274.067 438.662C274.067 431.75 268.464 426.147 261.553 426.147C254.641 426.147 249.038 431.75 249.038 438.662C249.038 445.573 254.641 451.176 261.553 451.176Z" fill="white" stroke="black" stroke-width="3.11688" stroke-linecap="round" stroke-linejoin="round"/>
<path d="M454.223 459.264C465.602 459.264 474.826 450.04 474.826 438.662C474.826 427.283 465.602 418.059 454.223 418.059C442.845 418.059 433.621 427.283 433.621 438.662C433.621 450.04 442.845 459.264 454.223 459.264Z" fill="white" stroke="black" stroke-width="3.11688" stroke-linecap="round" stroke-linejoin="round"/>
<path d="M454.222 451.176C461.133 451.176 466.736 445.573 466.736 438.662C466.736 431.75 461.133 426.147 454.222 426.147C447.31 426.147 441.708 431.75 441.708 438.662C441.708 445.573 447.31 451.176 454.222 451.176Z" fill="white" stroke="black" stroke-width="3.11688" stroke-linecap="round" stroke-linejoin="round"/>
<path d="M479.96 368.93V465.873H327.794V429.655C327.794 420.935 333.576 413.275 341.953 410.883L345.857 409.769L372.288 402.218C381.841 399.491 390.599 394.488 397.807 387.655L410.407 375.701C414.981 371.361 421.051 368.938 427.355 368.938H479.945L479.96 368.93Z" fill="white" stroke="black" stroke-width="3.11688" stroke-linecap="round" stroke-linejoin="round"/>
<path d="M327.802 432.295C339.451 432.295 348.895 422.851 348.895 411.202V408.895" fill="white"/>
<path d="M327.802 432.295C339.451 432.295 348.895 422.851 348.895 411.202V408.895" stroke="black" stroke-width="3.11688" stroke-linecap="round" stroke-linejoin="round"/>
<path d="M542.813 368.93H479.961V465.872H542.813V368.93Z" fill="white" stroke="black" stroke-width="3.11688" stroke-linecap="round" stroke-linejoin="round"/>
<path d="M605.672 379.145V455.648C605.672 461.29 601.098 465.864 595.449 465.864H542.82V368.921H595.449C601.098 368.921 605.672 373.495 605.672 379.137V379.145Z" fill="white" stroke="black" stroke-width="3.11688" stroke-linecap="round" stroke-linejoin="round"/>
<path d="M605.665 413.313H514.387C501.725 413.313 489.491 408.716 479.961 400.386" stroke="black" stroke-width="3.11688" stroke-linecap="round" stroke-linejoin="round"/>
<path d="M605.672 452.095V455.648C605.672 461.29 601.098 465.864 595.448 465.864H327.802V452.087H605.672V452.095Z" fill="#A9A9A9" stroke="black" stroke-width="3.11688" stroke-linecap="round" stroke-linejoin="round"/>
<path d="M382.791 486.957C394.437 486.957 403.877 477.517 403.877 465.872C403.877 454.226 394.437 444.786 382.791 444.786C371.146 444.786 361.706 454.226 361.706 465.872C361.706 477.517 371.146 486.957 382.791 486.957Z" fill="white" stroke="black" stroke-width="3.11688" stroke-linecap="round" stroke-linejoin="round"/>
<path d="M382.791 476.836C388.846 476.836 393.755 471.927 393.755 465.872C393.755 459.817 388.846 454.908 382.791 454.908C376.736 454.908 371.828 459.817 371.828 465.872C371.828 471.927 376.736 476.836 382.791 476.836Z" fill="white" stroke="black" stroke-width="3.11688" stroke-linecap="round" stroke-linejoin="round"/>
<path d="M570.638 486.957C582.283 486.957 591.723 477.517 591.723 465.872C591.723 454.226 582.283 444.786 570.638 444.786C558.992 444.786 549.552 454.226 549.552 465.872C549.552 477.517 558.992 486.957 570.638 486.957Z" fill="white" stroke="black" stroke-width="3.11688" stroke-linecap="round" stroke-linejoin="round"/>
<path d="M570.638 476.836C576.693 476.836 581.601 471.927 581.601 465.872C581.601 459.817 576.693 454.908 570.638 454.908C564.583 454.908 559.674 459.817 559.674 465.872C559.674 471.927 564.583 476.836 570.638 476.836Z" fill="white" stroke="black" stroke-width="3.11688" stroke-linecap="round" stroke-linejoin="round"/>
<path d="M388.48 394.932C388.48 405.085 396.708 413.313 406.861 413.313H450.56C460.713 413.313 468.942 405.085 468.942 394.932V368.921" stroke="black" stroke-width="3.11688" stroke-linecap="round" stroke-linejoin="round"/>
<path d="M1361.04 239.392H447.085V507.903H1361.04V239.392Z" fill="white" stroke="black" stroke-width="3.11688" stroke-linecap="round" stroke-linejoin="round"/>
<path d="M1361.04 101.073H447.085V239.392H1361.04V101.073Z" fill="white" stroke="black" stroke-width="3.11688" stroke-linecap="round" stroke-linejoin="round"/>
<path d="M738.419 507.895V282.584H502.308V507.895H738.419Z" fill="white" stroke="black" stroke-width="3.11688" stroke-linecap="round" stroke-linejoin="round"/>
<path d="M865.822 217.161C856.846 217.161 848.765 215.158 841.581 211.145C834.396 207.132 828.685 201.631 824.438 194.641C820.191 187.652 818.064 179.782 818.064 171.031C818.064 162.28 820.191 154.231 824.438 147.234C828.685 140.244 834.428 134.712 841.674 130.644C848.913 126.569 857.087 124.535 866.181 124.535C873.007 124.535 879.256 125.751 884.944 128.182C890.625 130.613 895.69 134.197 900.116 138.943L882.88 156.444C880.846 154.013 878.422 152.252 875.609 151.153C872.796 150.062 869.656 149.509 866.181 149.509C862.113 149.509 858.552 150.39 855.498 152.151C852.443 153.912 850.02 156.405 848.228 159.623C846.435 162.849 845.531 166.582 845.531 170.836C845.531 175.091 846.428 178.675 848.228 181.956C850.02 185.236 852.474 187.761 855.591 189.522C858.7 191.283 862.238 192.164 866.181 192.164C869.89 192.164 873.155 191.556 875.968 190.34C878.781 189.125 881.204 187.239 883.238 184.691L900.474 202.379C895.924 207.241 890.804 210.919 885.124 213.413C879.435 215.906 873.007 217.153 865.822 217.153" fill="#10A96C"/>
<path d="M964.23 126.537V134.072C961.916 131.828 959.227 129.919 956.149 128.361C951.357 125.93 946.035 124.714 940.168 124.714C932.149 124.714 924.965 126.748 918.622 130.823C912.279 134.898 907.308 140.4 903.716 147.327C900.124 154.254 898.331 162.155 898.331 171.031C898.331 179.906 900.124 187.62 903.716 194.548C907.308 201.475 912.248 206.945 918.529 210.958C924.817 214.971 931.962 216.974 939.988 216.974C945.973 216.974 951.357 215.82 956.149 213.514C959.243 212.025 961.931 210.132 964.23 207.857V215.158H990.622V126.545H964.23V126.537ZM960.014 186.257C956.36 190.207 951.482 192.187 945.381 192.187C941.547 192.187 938.134 191.275 935.149 189.452C932.157 187.628 929.788 185.142 928.059 181.979C926.321 178.815 925.456 175.176 925.456 171.039C925.456 166.901 926.321 163.044 928.059 159.826C929.796 156.607 932.157 154.083 935.149 152.259C938.142 150.436 941.609 149.524 945.56 149.524C949.51 149.524 952.978 150.436 955.97 152.259C958.962 154.083 961.292 156.576 962.975 159.74C964.651 162.903 965.492 166.605 965.492 170.859C965.492 177.179 963.669 182.314 960.014 186.264V186.257Z" fill="#00A6BF"/>
<path d="M1055.63 124.901C1053.93 124.566 1052.09 124.395 1050.11 124.395C1045.49 124.395 1041.15 125.509 1037.08 127.745C1033.01 129.982 1029.47 132.997 1026.44 136.784C1025.66 137.774 1024.93 138.795 1024.26 139.847L1023.72 126.468H998.811V215.143H1025.2V170.603C1025.2 167.922 1025.62 165.522 1026.44 163.403C1027.27 161.283 1028.39 159.444 1029.82 157.878C1031.25 156.319 1033.01 155.119 1035.1 154.278C1037.19 153.444 1039.44 153.023 1041.86 153.023C1044.06 153.023 1046.17 153.273 1048.21 153.779C1050.24 154.278 1051.86 154.925 1053.07 155.704L1060.32 126.07C1058.9 125.626 1057.33 125.236 1055.62 124.901H1055.63Z" fill="#8782D7"/>
<path d="M786.342 126.413V176.727C786.342 185.181 779.594 192.038 771.264 192.038C762.934 192.038 756.186 185.181 756.186 176.727V126.413H729.615V174.724C729.615 198.046 748.301 217.02 771.264 217.02C794.228 217.02 812.921 198.046 812.921 174.724V126.413H786.342Z" fill="#EF664E"/>
<path d="M716.367 304.644H524.368V507.903H716.367V304.644Z" stroke="black" stroke-width="3.11688" stroke-linecap="round" stroke-linejoin="round"/>
<path d="M524.368 489.615H716.367" stroke="black" stroke-width="3.11688" stroke-linejoin="round"/>
<path d="M524.368 469.97H716.367" stroke="black" stroke-width="3.11688" stroke-linejoin="round"/>
<path d="M524.368 450.326H716.367" stroke="black" stroke-width="3.11688" stroke-linejoin="round"/>
<path d="M524.368 430.682H716.367" stroke="black" stroke-width="3.11688" stroke-linejoin="round"/>
<path d="M524.368 411.03H716.367" stroke="black" stroke-width="3.11688" stroke-linejoin="round"/>
<path d="M524.368 391.386H716.367" stroke="black" stroke-width="3.11688" stroke-linejoin="round"/>
<path d="M524.368 371.742H716.367" stroke="black" stroke-width="3.11688" stroke-linejoin="round"/>
<path d="M524.368 352.098H716.367" stroke="black" stroke-width="3.11688" stroke-linejoin="round"/>
<path d="M524.368 332.446H716.367" stroke="black" stroke-width="3.11688" stroke-linejoin="round"/>
<path d="M808.058 507.904V282.592H786.006V507.904H808.058Z" fill="#10A96C" stroke="black" stroke-width="3.11688" stroke-linecap="round" stroke-linejoin="round"/>
<path d="M1275.15 304.644H808.058V507.903H1275.15V304.644Z" fill="white" stroke="black" stroke-width="3.11688" stroke-linecap="round" stroke-linejoin="round"/>
<path d="M1221.27 473.181H1284.68C1282.97 448.028 1277.73 418.426 1262.58 418.426C1236.25 418.426 1246.38 458.462 1226.12 458.462C1223.97 458.462 1221.89 458.641 1219.91 459.007C1211.41 460.581 1212.63 473.174 1221.28 473.174L1221.27 473.181Z" fill="white" stroke="black" stroke-width="3.11688" stroke-linecap="round" stroke-linejoin="round"/>
<path d="M1284.68 473.181V507.903" stroke="black" stroke-width="3.11688" stroke-linecap="round" stroke-linejoin="round"/>
<path d="M1256.59 473.181V507.903" stroke="black" stroke-width="3.11688" stroke-linecap="round" stroke-linejoin="round"/>
<path d="M1228.5 473.181V507.903" stroke="black" stroke-width="3.11688" stroke-linecap="round" stroke-linejoin="round"/>
<path d="M1219.64 473.181V507.903" stroke="black" stroke-width="3.11688" stroke-linecap="round" stroke-linejoin="round"/>
<path d="M1200.38 312.031H808.058V507.911H1200.38V312.031Z" fill="#EF664E" stroke="black" stroke-width="3.11688" stroke-linecap="round" stroke-linejoin="round"/>
<path d="M1200.39 346.581H878.896V507.911H1200.39V346.581Z" fill="white" stroke="black" stroke-width="3.11688" stroke-linecap="round" stroke-linejoin="round"/>
<path d="M926.437 325.612H850.845C838.055 325.612 827.687 335.981 827.687 348.771V463.784C827.687 476.574 838.055 486.942 850.845 486.942H926.437C939.227 486.942 949.596 476.574 949.596 463.784V348.771C949.596 335.981 939.227 325.612 926.437 325.612Z" fill="#00A6BF" stroke="black" stroke-width="3.11688" stroke-linecap="round" stroke-linejoin="round"/>
<path d="M924.286 507.903H949.588C949.588 507.903 949.003 499.114 942.209 497.306C941.242 497.049 940.603 495.888 940.222 494.088H925.79L924.294 507.911L924.286 507.903Z" fill="black" stroke="black" stroke-width="3.11688" stroke-linecap="round" stroke-linejoin="round"/>
<path d="M931.682 436.441L925.775 494.088H940.206C937.892 483.217 944.874 449.002 944.874 449.002" fill="white"/>
<path d="M931.682 436.441L925.775 494.088H940.206C937.892 483.217 944.874 449.002 944.874 449.002" stroke="black" stroke-width="3.11688" stroke-linecap="round" stroke-linejoin="round"/>
<path d="M948.013 363.95C952.564 363.95 951.395 370.604 953.756 372.966C956.117 375.327 959.569 378.186 956.242 379.067C952.915 379.94 955.369 387.358 951.691 391.036C948.013 394.714 936.629 396.677 934.003 388.168C931.377 379.659 928.572 363.958 948.013 363.958V363.95Z" fill="white" stroke="black" stroke-width="3.11688" stroke-linecap="round" stroke-linejoin="round"/>
<path d="M953.757 384.771C953.757 384.771 952.362 385.963 948.567 383.064Z" fill="white"/>
<path d="M953.757 384.771C953.757 384.771 952.362 385.963 948.567 383.064" stroke="black" stroke-width="3.11688" stroke-linecap="round" stroke-linejoin="round"/>
<path d="M947.725 375.225C948.349 375.225 948.855 374.719 948.855 374.095C948.855 373.471 948.349 372.965 947.725 372.965C947.101 372.965 946.595 373.471 946.595 374.095C946.595 374.719 947.101 375.225 947.725 375.225Z" fill="black"/>
<path d="M981.06 418.838C977.164 418.838 964.439 412.285 958.782 406.628C955.649 403.495 950.787 396.872 946.018 394.176C944.016 393.046 939.333 394.417 937.47 392.781C934.252 389.968 933.317 402.132 932.148 412.488C930.979 422.843 931.688 436.441 931.688 436.441H951.488C951.488 436.441 949.408 420.794 948.948 414.568C948.933 414.35 949.236 414.272 949.322 414.475C950.117 416.384 952.065 419.859 957.208 422.017C964.727 425.173 973.478 428.282 981.068 425.641V418.83L981.06 418.838Z" fill="#A9A9A9" stroke="black" stroke-width="3.11688" stroke-linecap="round" stroke-linejoin="round"/>
<path d="M947.094 507.903H977.078C976.517 504.194 973.634 501.287 969.933 500.641C967.019 500.134 964.019 498.872 962.71 494.08H946.969C947.219 501.973 947.094 507.903 947.094 507.903Z" fill="black" stroke="black" stroke-width="3.11688" stroke-linecap="round" stroke-linejoin="round"/>
<path d="M931.681 436.441H951.481C951.481 436.441 961.127 476.384 962.086 490.223C962.187 491.711 962.405 492.989 962.709 494.088H946.969C946.673 484.573 945.847 472.199 943.642 463.893C942.13 458.197 940.798 454.581 939.738 452.298" fill="white"/>
<path d="M931.681 436.441H951.481C951.481 436.441 961.127 476.384 962.086 490.223C962.187 491.711 962.405 492.989 962.709 494.088H946.969C946.673 484.573 945.847 472.199 943.642 463.893C942.13 458.197 940.798 454.581 939.738 452.298" stroke="black" stroke-width="3.11688" stroke-linecap="round" stroke-linejoin="round"/>
<path d="M930.934 379.449C931.269 380.353 931.994 381.07 932.913 381.374C938.22 383.181 933.077 377.368 935.079 374.945C937.729 371.742 940.791 374.329 941.157 372.958C942.848 366.678 942.739 365.735 937.752 365.735C932.765 365.735 929.188 366.296 929.188 371.002C929.188 374.22 930.256 377.61 930.926 379.433L930.934 379.449Z" fill="black" stroke="black" stroke-width="3.11688" stroke-linecap="round" stroke-linejoin="round"/>
<path d="M991.385 422.469C988.666 420.623 985.027 418.846 981.061 418.846V425.656L990.092 426.217C992.172 426.35 993.107 423.646 991.377 422.477L991.385 422.469Z" fill="white" stroke="black" stroke-width="3.11688" stroke-miterlimit="10"/>
<path d="M969.215 427.013V507.904H959.366V436.87H855.972V507.904H846.114V427.013H969.215Z" fill="white" stroke="black" stroke-width="3.11688" stroke-linecap="round" stroke-linejoin="round"/>
<path d="M1073.01 507.904H1047.71C1047.71 507.904 1048.29 499.114 1055.09 497.306C1056.05 497.049 1056.69 495.888 1057.07 494.088H1071.5L1073 507.911L1073.01 507.904Z" fill="black" stroke="black" stroke-width="3.11688" stroke-linecap="round" stroke-linejoin="round"/>
<path d="M1065.61 439.449L1071.52 494.08H1057.09C1059.4 483.21 1052.42 448.994 1052.42 448.994" fill="white"/>
<path d="M1065.61 439.449L1071.52 494.08H1057.09C1059.4 483.21 1052.42 448.994 1052.42 448.994" stroke="black" stroke-width="3.11688" stroke-linecap="round" stroke-linejoin="round"/>
<path d="M1005.46 402.171C1006.38 395.22 1021.08 402.171 1021.08 402.171V412.721C1021.08 412.721 1004.54 409.114 1005.46 402.171Z" fill="white" stroke="black" stroke-width="3.11688" stroke-linecap="round" stroke-linejoin="round"/>
<path d="M1049.28 363.95C1044.73 363.95 1045.9 370.605 1043.54 372.966C1041.18 375.327 1037.72 378.186 1041.05 379.067C1044.38 379.94 1041.92 387.358 1045.6 391.036C1049.28 394.714 1060.67 396.677 1063.29 388.168C1065.92 379.659 1068.72 363.958 1049.28 363.958V363.95Z" fill="white" stroke="black" stroke-width="3.11688" stroke-linecap="round" stroke-linejoin="round"/>
<path d="M1043.54 384.771C1043.54 384.771 1048.1 385.963 1051.9 383.064Z" fill="white"/>
<path d="M1043.54 384.771C1043.54 384.771 1048.1 385.963 1051.9 383.064" stroke="black" stroke-width="3.11688" stroke-linecap="round" stroke-linejoin="round"/>
<path d="M1049.57 375.225C1050.19 375.225 1050.7 374.719 1050.7 374.095C1050.7 373.471 1050.19 372.965 1049.57 372.965C1048.95 372.965 1048.44 373.471 1048.44 374.095C1048.44 374.719 1048.95 375.225 1049.57 375.225Z" fill="black"/>
<path d="M1045.24 368.882C1045.24 368.882 1036.62 367.075 1038.89 363.186C1041.17 359.298 1042.13 355.34 1049.57 358.784C1057.01 362.228 1061.12 360.179 1063.98 363.623C1066.84 367.067 1065.08 379.394 1065.08 379.394C1065.08 379.394 1060.6 371.243 1058.03 370.511C1055.46 369.779 1045.24 368.867 1045.24 368.867V368.882Z" fill="black" stroke="black" stroke-width="3.11688" stroke-linecap="round" stroke-linejoin="round"/>
<path d="M1021.08 402.171C1024.98 402.171 1031.72 408.545 1038.51 406.636C1042.78 405.436 1046.51 396.88 1051.28 394.184C1053.28 393.054 1057.96 394.425 1059.82 392.789C1063.04 389.976 1063.98 402.139 1065.15 412.495C1066.32 422.851 1065.61 439.456 1065.61 439.456H1045.81C1045.81 439.456 1048.44 415.877 1048.44 412.893C1048.44 412.893 1047.73 419.882 1039.67 419.882C1031.62 419.882 1028.67 415.363 1021.08 412.729V402.178V402.171Z" fill="white" stroke="black" stroke-width="3.11688" stroke-linecap="round" stroke-linejoin="round"/>
<path d="M1050.19 507.903H1020.21C1020.77 504.194 1023.65 501.288 1027.35 500.641C1030.27 500.134 1033.27 498.872 1034.58 494.08H1050.32C1050.07 501.973 1050.19 507.903 1050.19 507.903Z" fill="black" stroke="black" stroke-width="3.11688" stroke-linecap="round" stroke-linejoin="round"/>
<path d="M1057.56 452.291C1056.49 454.581 1055.16 458.197 1053.65 463.885C1051.45 472.184 1050.62 484.558 1050.33 494.08H1034.58C1034.89 492.989 1035.1 491.711 1035.21 490.215C1036.17 476.376 1045.81 439.441 1045.81 439.441" fill="white"/>
<path d="M1057.56 452.291C1056.49 454.581 1055.16 458.197 1053.65 463.885C1051.45 472.184 1050.62 484.558 1050.33 494.08H1034.58C1034.89 492.989 1035.1 491.711 1035.21 490.215C1036.17 476.376 1045.81 439.441 1045.81 439.441" stroke="black" stroke-width="3.11688" stroke-linecap="round" stroke-linejoin="round"/>
<path d="M1092.32 427.013V507.904H1082.47V436.87H979.073V507.904H969.216V427.013H1092.32Z" fill="#10A96C" stroke="black" stroke-width="3.11688" stroke-linecap="round" stroke-linejoin="round"/>
<path d="M1175.76 473.181H1112.34C1114.06 448.028 1119.29 418.426 1134.44 418.426C1160.78 418.426 1150.65 458.462 1170.91 458.462C1173.06 458.462 1175.13 458.641 1177.11 459.007C1185.62 460.581 1184.4 473.174 1175.75 473.174L1175.76 473.181Z" fill="white" stroke="black" stroke-width="3.11688" stroke-linecap="round" stroke-linejoin="round"/>
<path d="M1112.35 473.181V507.903" stroke="black" stroke-width="3.11688" stroke-linecap="round" stroke-linejoin="round"/>
<path d="M1140.43 473.181V507.903" stroke="black" stroke-width="3.11688" stroke-linecap="round" stroke-linejoin="round"/>
<path d="M1168.53 473.181V507.903" stroke="black" stroke-width="3.11688" stroke-linecap="round" stroke-linejoin="round"/>
<path d="M1177.4 473.181V507.903" stroke="black" stroke-width="3.11688" stroke-linecap="round" stroke-linejoin="round"/>
<path d="M1231.87 417.482L1235.62 417.7C1235.62 417.7 1233.64 428.189 1241.77 427.246C1244.38 426.942 1243.84 432.537 1248 433.495C1260.61 436.394 1259.5 427.246 1259.5 427.246L1262.37 411.763L1239.61 402.295L1238.03 409.012L1231.87 417.482H1231.87Z" fill="white" stroke="black" stroke-width="3.11688" stroke-linejoin="round"/>
<path d="M1240.56 415.028C1241.24 415.028 1241.78 414.484 1241.78 413.812C1241.78 413.141 1241.24 412.597 1240.56 412.597C1239.89 412.597 1239.35 413.141 1239.35 413.812C1239.35 414.484 1239.89 415.028 1240.56 415.028Z" fill="black"/>
<path d="M1235.72 506.773L1224.34 506.126C1220.87 505.924 1214.99 506.017 1217.83 504.03C1217.88 503.999 1224.3 499.402 1224.34 499.378C1225.68 498.49 1225.87 495.965 1225.38 493.908H1237.53L1240.41 499.628C1242.13 503.017 1239.52 506.991 1235.72 506.773Z" fill="#A9A9A9" stroke="black" stroke-width="3.11688" stroke-linecap="round" stroke-linejoin="round"/>
<path d="M1268.46 465.677C1264.1 479.399 1226.54 472.09 1226.54 472.09L1237.53 493.916H1225.38C1225.19 493.075 1224.89 492.319 1224.5 491.781C1219.95 485.438 1212.98 474.303 1215.18 468.342C1218.39 459.693 1226.89 456.023 1243.77 459.81L1268.46 465.685V465.677Z" fill="white" stroke="black" stroke-width="3.11688" stroke-linecap="round" stroke-linejoin="round"/>
<path d="M1268.46 465.677L1249.4 461.142L1248.09 442.776C1246.63 444.085 1245.15 446.485 1243.38 448.745L1238.19 439.94C1240.16 437.89 1242.04 435.607 1244.07 433.503C1245.95 431.563 1247.7 430.121 1249.34 429.062C1255.62 425.002 1263.99 428.976 1264.91 436.394C1265.79 443.454 1267.21 455.08 1268.46 465.685V465.677Z" fill="black" stroke="black" stroke-width="3.11688" stroke-linecap="round" stroke-linejoin="round"/>
<path d="M1243.38 448.737C1241.9 450.622 1240.23 452.414 1238.18 453.396C1225.82 459.326 1215.53 450.965 1215.53 450.965C1204.63 446.726 1205.37 440.968 1206.79 439.238C1208.2 437.508 1213.69 441.918 1213.69 441.918C1213.69 441.918 1213.5 439.129 1214.51 436.565C1215.5 433.994 1219.4 441.03 1219.4 441.03C1219.4 441.03 1228.34 447.194 1233.54 443.882C1235.21 442.814 1236.72 441.443 1238.19 439.931L1243.38 448.737H1243.38Z" fill="white" stroke="black" stroke-width="3.11688" stroke-linecap="round" stroke-linejoin="round"/>
<path d="M1238.86 405.451C1238.86 405.451 1235.47 393.24 1246.18 397.845C1256.89 402.443 1260.66 404.367 1262.37 404.367C1264.09 404.367 1267.43 411.957 1267.43 413.812C1267.43 415.666 1264.94 422.858 1260.83 420.069C1256.05 416.827 1262.37 408.435 1251.87 412.144C1248.94 413.18 1238.86 405.451 1238.86 405.451Z" fill="black" stroke="black" stroke-width="3.11688" stroke-linecap="round" stroke-linejoin="round"/>
<path d="M1297.21 507.895V282.584H1275.15V507.895H1297.21Z" fill="#00A6BF" stroke="black" stroke-width="3.11688" stroke-linecap="round" stroke-linejoin="round"/>
<path d="M1297.2 312.031V282.592L785.999 282.592V312.031L1297.2 312.031Z" fill="#A9A9A9" stroke="black" stroke-width="3.11688" stroke-linecap="round" stroke-linejoin="round"/>
<path d="M1699.91 282.802V466.994H1651.29V331.418C1651.29 304.589 1673.08 282.802 1699.91 282.802Z" fill="white" stroke="black" stroke-width="3.11688" stroke-linecap="round" stroke-linejoin="round"/>
<path d="M1651.29 509.267V466.995" stroke="black" stroke-width="3.11688" stroke-linecap="round" stroke-linejoin="round"/>
<path d="M1699.91 509.267H1633.34" stroke="black" stroke-width="3.11688" stroke-linecap="round" stroke-linejoin="round"/>
<path d="M1687.49 402.615C1687.49 404.727 1687.03 406.62 1686.08 408.311C1685.14 409.994 1683.85 411.342 1682.21 412.34C1680.57 413.337 1678.72 413.836 1676.66 413.836C1674.6 413.836 1672.72 413.337 1671.08 412.34C1669.43 411.342 1668.14 409.994 1667.18 408.295C1666.22 406.597 1665.75 404.68 1665.75 402.537C1665.75 400.932 1666.03 399.467 1666.6 398.127C1667.17 396.794 1668.01 395.602 1669.13 394.566L1673.24 398.618C1672.67 399.093 1672.26 399.662 1672 400.324C1671.75 400.986 1671.62 401.727 1671.62 402.537C1671.62 403.495 1671.83 404.329 1672.24 405.046C1672.66 405.763 1673.24 406.332 1674 406.753C1674.75 407.173 1675.63 407.384 1676.63 407.384C1677.63 407.384 1678.47 407.173 1679.24 406.753C1680.01 406.332 1680.6 405.755 1681.02 405.023C1681.43 404.29 1681.64 403.464 1681.64 402.537C1681.64 401.664 1681.5 400.901 1681.21 400.238C1680.92 399.576 1680.49 399.007 1679.89 398.532L1684.04 394.48C1685.19 395.547 1686.04 396.747 1686.64 398.088C1687.22 399.42 1687.52 400.932 1687.52 402.623" fill="#10A96C"/>
<path d="M1666.21 379.496H1667.98C1667.45 380.041 1667 380.673 1666.64 381.389C1666.07 382.512 1665.78 383.766 1665.78 385.145C1665.78 387.031 1666.25 388.714 1667.21 390.202C1668.17 391.691 1669.46 392.86 1671.08 393.701C1672.71 394.543 1674.57 394.963 1676.65 394.963C1678.73 394.963 1680.54 394.543 1682.17 393.701C1683.8 392.86 1685.09 391.699 1686.03 390.226C1686.97 388.753 1687.44 387.07 1687.44 385.184C1687.44 383.782 1687.17 382.512 1686.63 381.389C1686.28 380.665 1685.83 380.034 1685.3 379.496H1687.01V373.293H1666.2V379.496H1666.21ZM1680.23 380.486C1681.16 381.343 1681.63 382.488 1681.63 383.922C1681.63 384.818 1681.42 385.621 1680.99 386.322C1680.56 387.023 1679.98 387.576 1679.23 387.989C1678.49 388.395 1677.64 388.597 1676.66 388.597C1675.69 388.597 1674.79 388.395 1674.03 387.989C1673.27 387.584 1672.68 387.023 1672.25 386.322C1671.82 385.621 1671.61 384.802 1671.61 383.875C1671.61 382.948 1671.82 382.13 1672.25 381.428C1672.68 380.727 1673.27 380.174 1674.01 379.784C1674.75 379.395 1675.62 379.192 1676.62 379.192C1678.11 379.192 1679.31 379.621 1680.23 380.478V380.486Z" fill="#00A6BF"/>
<path d="M1665.82 358.029C1665.75 358.426 1665.71 358.862 1665.71 359.322C1665.71 360.405 1665.97 361.426 1666.49 362.385C1667.02 363.343 1667.72 364.169 1668.62 364.886C1668.85 365.073 1669.1 365.244 1669.34 365.4L1666.2 365.525V371.377H1687.03V365.174H1676.57C1675.94 365.174 1675.38 365.081 1674.88 364.886C1674.38 364.691 1673.95 364.426 1673.58 364.091C1673.21 363.756 1672.93 363.343 1672.74 362.852C1672.54 362.361 1672.44 361.831 1672.44 361.262C1672.44 360.748 1672.5 360.249 1672.62 359.774C1672.74 359.299 1672.89 358.917 1673.07 358.629L1666.11 356.922C1666.01 357.257 1665.92 357.623 1665.84 358.029H1665.82Z" fill="#8782D7"/>
<path d="M1666.17 421.278H1678C1679.98 421.278 1681.59 422.86 1681.59 424.815C1681.59 426.771 1679.97 428.353 1678 428.353H1666.17V434.595H1677.52C1683 434.595 1687.46 430.208 1687.46 424.815C1687.46 419.423 1683 415.036 1677.52 415.036H1666.17V421.278Z" fill="#EF664E"/>
<path d="M466.004 282.615H471.825V479.804H419.781V328.838C419.781 303.327 440.492 282.615 466.004 282.615Z" fill="white" stroke="black" stroke-width="3.11688" stroke-linecap="round" stroke-linejoin="round"/>
<path d="M419.781 525.062V479.805" stroke="black" stroke-width="3.11688" stroke-linecap="round" stroke-linejoin="round"/>
<path d="M471.825 525.062H400.557" stroke="black" stroke-width="3.11688" stroke-linecap="round" stroke-linejoin="round"/>
<path d="M458.533 410.883C458.533 413.142 458.026 415.168 457.021 416.976C456.016 418.784 454.629 420.218 452.875 421.285C451.114 422.353 449.135 422.89 446.938 422.89C444.74 422.89 442.714 422.353 440.953 421.285C439.192 420.218 437.805 418.776 436.784 416.953C435.764 415.129 435.249 413.08 435.249 410.789C435.249 409.075 435.553 407.501 436.169 406.075C436.785 404.649 437.681 403.371 438.873 402.257L443.275 406.589C442.668 407.103 442.223 407.711 441.943 408.42C441.67 409.129 441.53 409.916 441.53 410.789C441.53 411.81 441.748 412.706 442.192 413.477C442.636 414.249 443.26 414.857 444.07 415.309C444.881 415.761 445.823 415.986 446.891 415.986C447.959 415.986 448.862 415.761 449.688 415.309C450.514 414.857 451.146 414.241 451.59 413.454C452.034 412.675 452.252 411.787 452.252 410.789C452.252 409.854 452.096 409.036 451.792 408.327C451.488 407.618 451.013 407.01 450.374 406.496L454.823 402.163C456.047 403.309 456.974 404.594 457.597 406.02C458.221 407.454 458.54 409.067 458.54 410.875" fill="#10A96C"/>
<path d="M435.748 386.143H437.642C437.08 386.727 436.597 387.397 436.208 388.176C435.6 389.384 435.288 390.717 435.288 392.197C435.288 394.215 435.803 396.023 436.823 397.613C437.844 399.21 439.231 400.457 440.969 401.361C442.714 402.265 444.701 402.717 446.93 402.717C449.158 402.717 451.099 402.265 452.844 401.361C454.59 400.457 455.961 399.218 456.974 397.636C457.979 396.054 458.486 394.254 458.486 392.244C458.486 390.74 458.197 389.384 457.613 388.184C457.239 387.405 456.764 386.727 456.187 386.15H458.026V379.511H435.748V386.15V386.143ZM450.764 387.202C451.761 388.122 452.252 389.345 452.252 390.88C452.252 391.846 452.026 392.704 451.566 393.452C451.106 394.207 450.483 394.8 449.688 395.236C448.893 395.672 447.974 395.891 446.938 395.891C445.901 395.891 444.927 395.672 444.117 395.236C443.306 394.8 442.675 394.207 442.216 393.452C441.756 392.704 441.53 391.823 441.53 390.833C441.53 389.844 441.756 388.971 442.216 388.215C442.675 387.459 443.299 386.875 444.093 386.454C444.888 386.034 445.823 385.823 446.891 385.823C448.48 385.823 449.774 386.283 450.764 387.202Z" fill="#00A6BF"/>
<path d="M435.334 363.155C435.249 363.584 435.21 364.043 435.21 364.542C435.21 365.703 435.49 366.794 436.051 367.815C436.612 368.836 437.368 369.732 438.327 370.488C438.576 370.682 438.833 370.869 439.098 371.033L435.732 371.166V377.43H458.025V370.792H446.828C446.158 370.792 445.55 370.69 445.02 370.48C444.49 370.269 444.023 369.989 443.633 369.631C443.243 369.272 442.94 368.828 442.729 368.306C442.519 367.784 442.41 367.215 442.41 366.607C442.41 366.054 442.472 365.524 442.597 365.01C442.721 364.495 442.885 364.09 443.08 363.786L435.63 361.963C435.521 362.321 435.42 362.719 435.334 363.147V363.155Z" fill="#8782D7"/>
<path d="M435.716 430.87H448.37C450.498 430.87 452.22 432.568 452.22 434.657C452.22 436.753 450.498 438.451 448.37 438.451H435.716V445.129H447.864C453.731 445.129 458.5 440.431 458.5 434.657C458.5 428.883 453.731 424.184 447.864 424.184H435.716V430.87Z" fill="#EF664E"/>
<path d="M1184.33 416.073H1180.56C1180.56 416.073 1183.99 429.187 1171.24 431.361C1158.48 433.535 1154.2 423.842 1154.2 423.842V408.624L1177.46 400.473L1178.66 407.268L1184.33 416.081V416.073Z" fill="white" stroke="black" stroke-width="3.11688" stroke-linejoin="round"/>
<path d="M1175.86 413.127C1176.53 413.127 1177.07 412.583 1177.07 411.912C1177.07 411.24 1176.53 410.696 1175.86 410.696C1175.19 410.696 1174.64 411.24 1174.64 411.912C1174.64 412.583 1175.19 413.127 1175.86 413.127Z" fill="black"/>
<path d="M1186.8 505.005H1175.39C1171.59 505.005 1169.22 500.89 1171.12 497.602L1186.55 470.891C1186.55 470.891 1139.26 477.724 1135.7 463.776L1170.04 457.652C1187.11 454.839 1196.12 461.033 1198.82 469.846C1200.68 475.924 1193.09 486.646 1188.18 492.716C1186.76 494.477 1187.18 497.01 1188.99 498.374C1189.03 498.397 1189.07 498.436 1189.11 498.467C1191.84 500.618 1190.27 505.013 1186.8 505.013V505.005Z" fill="black" stroke="black" stroke-width="3.11688" stroke-linecap="round" stroke-linejoin="round"/>
<path d="M1196.78 458.111L1189.81 466.955C1189.81 466.955 1173.21 452.735 1165.84 445.363L1170.03 457.636L1135.7 463.76C1133.77 456.218 1135.55 447.514 1137.59 441.101C1140.2 432.911 1147.17 426.732 1155.68 425.532C1160.82 424.807 1166.5 425.867 1171.23 431.345C1183.45 445.503 1196.78 458.096 1196.78 458.096V458.111Z" fill="white" stroke="black" stroke-width="3.11688" stroke-linecap="round" stroke-linejoin="round"/>
<path d="M1179.19 398.462C1179.19 393.272 1172.48 392.735 1170.13 393.272C1170.54 393.187 1169.72 393.366 1170.13 393.272C1167.39 393.826 1163.79 401.4 1158.01 401.4C1151.92 401.4 1146.47 403.285 1146.47 410.213C1146.47 415.355 1148.67 421.184 1149.8 425.742C1149.11 426.654 1148.71 427.792 1148.71 429.023C1148.71 430.254 1149.1 431.337 1149.76 432.241C1147.88 432.646 1146.47 434.322 1146.47 436.324C1146.47 438.631 1148.34 440.501 1150.64 440.501C1152.95 440.501 1154.82 438.631 1154.82 436.324C1154.82 435.67 1154.66 435.054 1154.4 434.509C1157.34 434.407 1159.69 431.992 1159.69 429.031C1159.69 428.041 1159.42 427.114 1158.96 426.311C1159.74 425.579 1160.41 424.932 1160.85 424.496C1163.1 422.244 1172.95 418.831 1170.72 409.394C1170.72 409.394 1179.19 404.781 1179.19 398.485V398.462Z" fill="black"/>
<path d="M1154.2 443.766C1156.01 443.766 1157.48 442.297 1157.48 440.485C1157.48 438.674 1156.01 437.205 1154.2 437.205C1152.39 437.205 1150.92 438.674 1150.92 440.485C1150.92 442.297 1152.39 443.766 1154.2 443.766Z" fill="black"/>
<path d="M1195.86 458.174C1195.86 458.174 1203.87 457.442 1202.3 459.709C1200.74 461.977 1198.33 463.395 1198.33 463.395C1198.33 463.395 1205.06 465.452 1204.42 467.595C1203.78 469.738 1199.44 473.595 1189.81 466.956L1195.86 458.174Z" fill="white" stroke="black" stroke-width="3.11688" stroke-linecap="round" stroke-linejoin="round"/>
<path d="M1174.24 419.805C1174.24 419.805 1176.68 422.353 1179.89 420.919Z" fill="white"/>
<path d="M1174.24 419.805C1174.24 419.805 1176.68 422.353 1179.89 420.919" stroke="black" stroke-width="3.11688" stroke-linecap="round" stroke-linejoin="round"/>
<path fill-rule="evenodd" clip-rule="evenodd" d="M93.2496 372.241C93.2496 339.077 78.6782 282.615 60.7016 282.615C42.725 282.615 28.1536 339.077 28.1536 372.241C28.1536 402.716 40.4653 400.893 56.4081 402.49V457.698H64.9873V402.49C80.9301 400.893 93.2418 402.716 93.2418 372.241H93.2496Z" fill="white" stroke="black" stroke-width="3.11688" stroke-linecap="round" stroke-linejoin="round"/>
<path d="M331.028 35.735H329.384C329.384 16.8623 314.08 1.55841 295.207 1.55841C276.335 1.55841 261.031 16.8623 261.031 35.735H259.387C245.111 35.735 233.54 47.3064 233.54 61.5817C233.54 75.857 245.111 87.4284 259.387 87.4284H331.028C345.303 87.4284 356.875 75.857 356.875 61.5817C356.875 47.3064 345.303 35.735 331.028 35.735Z" fill="white" stroke="black" stroke-width="3.11688" stroke-linecap="round" stroke-linejoin="round"/>
</g>
<defs>
<clipPath id="clip0_685_6176">
<rect width="1808" height="526.62" fill="white"/>
</clipPath>
</defs>
</svg>
