<svg width="1920" height="215" viewBox="0 0 1920 215" fill="none" xmlns="http://www.w3.org/2000/svg">
<path d="M64.4455 214C61.4715 213.404 58.5919 212.72 55.8066 211.947C43.8694 208.379 33.3248 203.425 24.1729 197.084C15.22 190.742 7.16234 183.311 0 174.789L37.3039 133.173C47.2516 145.856 57.5972 154.278 68.3407 158.44C79.2832 162.403 89.5293 164.385 99.0791 164.385C102.859 164.385 106.241 164.088 109.226 163.493C112.21 162.7 114.498 161.511 116.09 159.926C117.681 158.341 118.477 156.161 118.477 153.386C118.477 150.81 117.582 148.63 115.791 146.847C114.2 145.063 112.011 143.577 109.226 142.388C106.44 141 103.357 139.911 99.9744 139.118C96.7911 138.127 93.6079 137.334 90.4246 136.74C87.4403 136.145 84.7544 135.551 82.367 134.956C70.4297 132.182 59.9846 128.813 51.0317 124.849C42.0788 120.886 34.618 116.13 28.6494 110.581C22.6808 105.032 18.2043 98.6904 15.22 91.5562C12.4346 84.4219 11.0419 76.3959 11.0419 67.4781C11.0419 57.3712 13.3299 48.1562 17.9059 39.8329C22.6808 31.5096 28.9478 24.3753 36.707 18.4301C44.6652 12.4849 53.6181 7.92694 63.5658 4.75616C73.7125 1.58539 84.1575 0 94.9011 0C110.618 0 123.749 1.4863 134.294 4.4589C144.839 7.23333 153.692 11.2959 160.854 16.6466C168.017 21.9973 174.184 28.2397 179.357 35.374L141.755 71.3425C137.378 67.1808 132.802 63.8119 128.027 61.2356C123.252 58.4612 118.278 56.4795 113.105 55.2904C108.132 53.9032 103.158 53.2096 98.1838 53.2096C93.6079 53.2096 89.7283 53.6059 86.545 54.3986C83.3617 54.9932 80.8748 56.0831 79.0842 57.6685C77.2936 59.0557 76.3983 61.0374 76.3983 63.6137C76.3983 66.19 77.4926 68.3699 79.6811 70.1534C82.0685 71.7388 84.9534 73.126 88.3356 74.3151C91.9168 75.5041 95.3984 76.495 98.7807 77.2877C102.362 77.8822 105.346 78.3776 107.734 78.774C118.676 80.7557 128.723 83.5301 137.875 87.0973C147.027 90.4662 154.985 94.826 161.75 100.177C168.713 105.329 173.985 111.869 177.566 119.796C181.347 127.525 183.237 136.74 183.237 147.441C183.237 162.7 179.357 175.483 171.598 185.788C164.038 196.093 153.791 203.921 140.859 209.271C135.984 211.214 130.897 212.79 125.598 214C105.5 214 84.5 214 64.4455 214Z" fill="#181A1C" fill-opacity="0.05"/>
<path d="M287.5 213.934C281.851 212.671 276.405 211.018 271.162 208.974C257.434 203.623 245.497 196.093 235.35 186.382C225.203 176.672 217.345 165.178 211.774 151.9C206.402 138.622 203.716 124.156 203.716 108.5C203.716 92.6461 206.402 78.1795 211.774 65.1C217.345 51.8224 225.203 40.3283 235.35 30.6178C245.497 20.9073 257.434 13.3767 271.162 8.02603C284.89 2.67534 299.911 0 316.225 0C332.738 0 347.759 2.67534 361.288 8.02603C375.016 13.3767 386.953 20.9073 397.1 30.6178C407.246 40.3283 415.006 51.8224 420.377 65.1C425.948 78.1795 428.733 92.547 428.733 108.203C428.733 124.057 425.948 138.622 420.377 151.9C415.006 165.178 407.246 176.672 397.1 186.382C386.953 196.093 375.016 203.623 361.288 208.974C356.066 211.039 350.637 212.706 345 213.974C326 213.974 307 213.974 287.5 213.934ZM316.225 157.548C322.989 157.548 329.157 156.359 334.728 153.981C340.497 151.603 345.471 148.234 349.649 143.874C354.026 139.316 357.309 134.064 359.497 128.119C361.885 122.174 363.079 115.634 363.079 108.5C363.079 101.366 361.885 94.826 359.497 88.8808C357.309 82.9356 354.026 77.7831 349.649 73.4233C345.471 68.8653 340.497 65.3973 334.728 63.0192C329.157 60.6411 322.989 59.4521 316.225 59.4521C309.461 59.4521 303.193 60.6411 297.424 63.0192C291.853 65.3973 286.879 68.8653 282.502 73.4233C278.324 77.7831 275.041 82.9356 272.654 88.8808C270.466 94.826 269.371 101.366 269.371 108.5C269.371 115.634 270.466 122.174 272.654 128.119C275.041 134.064 278.324 139.316 282.502 143.874C286.879 148.234 291.853 151.603 297.424 153.981C303.193 156.359 309.461 157.548 316.225 157.548Z" fill="#181A1C" fill-opacity="0.05"/>
<path d="M464.54 214.027V5.9452H529.002V159.332H618.531V214.027H464.54Z" fill="#181A1C" fill-opacity="0.05"/>
<path d="M714.097 214C704.513 212.314 695.605 209.449 687.373 205.407C673.446 198.273 662.504 188.562 654.545 176.275C646.587 163.989 642.608 149.918 642.608 134.064V5.9452H707.666V131.389C707.666 137.136 708.86 142.289 711.247 146.847C713.635 151.206 716.918 154.674 721.096 157.251C725.473 159.827 730.347 161.115 735.719 161.115C741.488 161.115 746.562 159.827 750.939 157.251C755.316 154.674 758.797 151.206 761.384 146.847C763.97 142.289 765.263 137.136 765.263 131.389V5.9452H828.829V134.064C828.829 149.918 824.85 163.989 816.892 176.275C808.934 188.562 797.892 198.273 783.766 205.407C775.65 209.449 766.824 212.314 757.288 214C743 214 728.5 214 714.097 214Z" fill="#181A1C" fill-opacity="0.05"/>
<path d="M926.171 214.027V60.6411H861.71V5.9452H1056.88V60.6411H990.632V214.027H926.171Z" fill="#181A1C" fill-opacity="0.05"/>
<path d="M1088.18 214.027V162.007H1124.89V57.9658H1088.18V5.9452H1226.05V57.9658H1189.35V162.007H1226.05V214.027H1088.18Z" fill="#181A1C" fill-opacity="0.05"/>
<path d="M1340.17 214C1334.42 212.729 1328.87 211.053 1323.54 208.974C1309.81 203.623 1297.87 196.093 1287.73 186.382C1277.58 176.672 1269.72 165.178 1264.15 151.9C1258.78 138.622 1256.09 124.156 1256.09 108.5C1256.09 92.6461 1258.78 78.1795 1264.15 65.1C1269.72 51.8224 1277.58 40.3283 1287.73 30.6178C1297.87 20.9073 1309.81 13.3767 1323.54 8.02603C1337.27 2.67534 1352.29 0 1368.6 0C1385.12 0 1400.14 2.67534 1413.67 8.02603C1427.39 13.3767 1439.33 20.9073 1449.48 30.6178C1459.62 40.3283 1467.38 51.8224 1472.75 65.1C1478.33 78.1795 1481.11 92.547 1481.11 108.203C1481.11 124.057 1478.33 138.622 1472.75 151.9C1467.38 165.178 1459.62 176.672 1449.48 186.382C1439.33 196.093 1427.39 203.623 1413.67 208.974C1408.41 211.053 1402.94 212.729 1397.26 214C1378.5 214 1360 214 1340.17 214ZM1368.6 157.548C1375.37 157.548 1381.53 156.359 1387.1 153.981C1392.87 151.603 1397.85 148.234 1402.03 143.874C1406.4 139.316 1409.69 134.064 1411.87 128.119C1414.26 122.174 1415.46 115.634 1415.46 108.5C1415.46 101.366 1414.26 94.826 1411.87 88.8808C1409.69 82.9356 1406.4 77.7831 1402.03 73.4233C1397.85 68.8653 1392.87 65.3973 1387.1 63.0192C1381.53 60.6411 1375.37 59.4521 1368.6 59.4521C1361.84 59.4521 1355.57 60.6411 1349.8 63.0192C1344.23 65.3973 1339.26 68.8653 1334.88 73.4233C1330.7 77.7831 1327.42 82.9356 1325.03 88.8808C1322.84 94.826 1321.75 101.366 1321.75 108.5C1321.75 115.634 1322.84 122.174 1325.03 128.119C1327.42 134.064 1330.7 139.316 1334.88 143.874C1339.26 148.234 1344.23 151.603 1349.8 153.981C1355.57 156.359 1361.84 157.548 1368.6 157.548Z" fill="#181A1C" fill-opacity="0.05"/>
<path d="M1516.92 214.027V5.9452H1574.52L1670.61 138.226L1656.88 134.064C1655.89 126.137 1654.99 119.201 1654.2 113.256C1653.6 107.311 1653 101.861 1652.41 96.9069C1652.01 91.7544 1651.61 86.7009 1651.21 81.7466C1651.01 76.7922 1650.91 71.3425 1650.91 65.3973C1650.91 59.4521 1650.91 52.516 1650.91 44.589V5.9452H1712.99V214.027H1654.79L1548.85 68.3699L1573.02 75.5041C1574.02 82.8365 1574.81 89.2772 1575.41 94.826C1576.21 100.177 1576.8 105.131 1577.2 109.689C1577.6 114.247 1577.9 118.805 1578.1 123.363C1578.49 127.723 1578.69 132.677 1578.69 138.226C1578.89 143.577 1578.99 149.918 1578.99 157.251V214.027H1516.92Z" fill="#181A1C" fill-opacity="0.05"/>
<path d="M1800.82 214C1797.85 213.404 1794.97 212.72 1792.19 211.947C1780.25 208.379 1769.7 203.425 1760.55 197.084C1751.6 190.742 1743.54 183.311 1736.38 174.789L1773.68 133.173C1783.63 145.856 1793.98 154.278 1804.72 158.44C1815.66 162.403 1825.91 164.385 1835.46 164.385C1839.24 164.385 1842.62 164.088 1845.6 163.493C1848.59 162.7 1850.88 161.511 1852.47 159.926C1854.06 158.341 1854.86 156.161 1854.86 153.386C1854.86 150.81 1853.96 148.63 1852.17 146.847C1850.58 145.063 1848.39 143.577 1845.6 142.388C1842.82 141 1839.74 139.911 1836.35 139.118C1833.17 138.127 1829.99 137.334 1826.8 136.74C1823.82 136.145 1821.13 135.551 1818.75 134.956C1806.81 132.182 1796.36 128.813 1787.41 124.849C1778.46 120.886 1771 116.13 1765.03 110.581C1759.06 105.032 1754.58 98.6904 1751.6 91.5562C1748.81 84.4219 1747.42 76.3959 1747.42 67.4781C1747.42 57.3712 1749.71 48.1562 1754.28 39.8329C1759.06 31.5096 1765.33 24.3753 1773.09 18.4301C1781.04 12.4849 1790 7.92694 1799.94 4.75616C1810.09 1.58539 1820.54 0 1831.28 0C1847 0 1860.13 1.4863 1870.67 4.4589C1881.22 7.23333 1890.07 11.2959 1897.23 16.6466C1904.4 21.9973 1910.56 28.2397 1915.74 35.374L1878.13 71.3425C1873.76 67.1808 1869.18 63.8119 1864.41 61.2356C1859.63 58.4612 1854.66 56.4795 1849.48 55.2904C1844.51 53.9032 1839.54 53.2096 1834.56 53.2096C1829.99 53.2096 1826.11 53.6059 1822.92 54.3986C1819.74 54.9932 1817.25 56.0831 1815.46 57.6685C1813.67 59.0557 1812.78 61.0374 1812.78 63.6137C1812.78 66.19 1813.87 68.3699 1816.06 70.1534C1818.45 71.7388 1821.33 73.126 1824.71 74.3151C1828.3 75.5041 1831.78 76.495 1835.16 77.2877C1838.74 77.8822 1841.72 78.3776 1844.11 78.774C1855.05 80.7557 1865.1 83.5301 1874.25 87.0973C1883.41 90.4662 1891.36 94.826 1898.13 100.177C1905.09 105.329 1910.36 111.869 1913.95 119.796C1917.73 127.525 1919.62 136.74 1919.62 147.441C1919.62 162.7 1915.74 175.483 1907.98 185.788C1900.42 196.093 1890.17 203.921 1877.24 209.271C1872.37 211.211 1867.29 212.785 1862 213.995C1841.5 213.995 1821 214 1800.82 214Z" fill="#181A1C" fill-opacity="0.05"/>
</svg>
