<svg width="678" height="408" viewBox="0 0 678 408" fill="none" xmlns="http://www.w3.org/2000/svg">
<path d="M7.02637 309.704H678" stroke="black" stroke-width="2" stroke-miterlimit="10"/>
<path d="M678 406.599H7.02637" stroke="black" stroke-width="2" stroke-miterlimit="10"/>
<path d="M678 358.197H7.02637" stroke="black" stroke-width="2" stroke-miterlimit="10" stroke-dasharray="92.2 92.2"/>
<path d="M431.987 268.727V259.56C431.988 255.218 433.715 251.055 436.787 247.985C439.859 244.916 444.026 243.191 448.37 243.191C452.714 243.192 456.88 244.917 459.952 247.987C463.023 251.056 464.749 255.219 464.75 259.56V268.727" stroke="black" stroke-width="2" stroke-linecap="round" stroke-linejoin="round"/>
<path d="M501.144 219.669C501.144 224.011 499.418 228.175 496.345 231.245C493.273 234.315 489.106 236.04 484.761 236.04C482.609 236.04 480.478 235.617 478.49 234.795C476.502 233.972 474.696 232.766 473.174 231.246C471.653 229.726 470.446 227.921 469.622 225.934C468.799 223.948 468.375 221.819 468.375 219.669V201.859C468.375 197.518 470.1 193.354 473.172 190.284C476.244 187.214 480.41 185.489 484.754 185.488C486.906 185.487 489.037 185.91 491.026 186.732C493.014 187.555 494.821 188.76 496.343 190.281C497.865 191.801 499.072 193.606 499.896 195.593C500.72 197.579 501.144 199.709 501.144 201.859V219.669Z" stroke="black" stroke-width="2" stroke-linecap="round" stroke-linejoin="round"/>
<path d="M484.764 211.035V271.348" stroke="black" stroke-width="2" stroke-linecap="round" stroke-linejoin="round"/>
<path d="M266.33 271.222V51.6025" stroke="black" stroke-width="2" stroke-linecap="round" stroke-linejoin="round"/>
<path d="M394.255 270.893V73.9325L367.32 34.1104H292.119L266.331 51.6026" stroke="black" stroke-width="2" stroke-linecap="round" stroke-linejoin="round"/>
<path d="M367.766 68.8372V96.8618" stroke="black" stroke-width="2" stroke-linecap="round" stroke-linejoin="round"/>
<path d="M344.289 68.8372V96.8618" stroke="black" stroke-width="2" stroke-linecap="round" stroke-linejoin="round"/>
<path d="M367.766 116.046V146.406" stroke="black" stroke-width="2" stroke-linecap="round" stroke-linejoin="round"/>
<path d="M344.289 116.046V146.406" stroke="black" stroke-width="2" stroke-linecap="round" stroke-linejoin="round"/>
<path d="M320.641 68.8372V96.8618" stroke="black" stroke-width="2" stroke-linecap="round" stroke-linejoin="round"/>
<path d="M297.161 68.8372V96.8618" stroke="black" stroke-width="2" stroke-linecap="round" stroke-linejoin="round"/>
<path d="M320.641 116.046V146.406" stroke="black" stroke-width="2" stroke-linecap="round" stroke-linejoin="round"/>
<path d="M297.161 116.046V146.406" stroke="black" stroke-width="2" stroke-linecap="round" stroke-linejoin="round"/>
<path d="M367.766 163.255V195.951" stroke="black" stroke-width="2" stroke-linecap="round" stroke-linejoin="round"/>
<path d="M367.766 210.464V245.493" stroke="black" stroke-width="2" stroke-linecap="round" stroke-linejoin="round"/>
<path d="M394.098 127.85H413.773L423.571 107.724H486.081L502.407 146.924H543.227V133.014L563.524 102.035L582.414 133.014V173.919H605.096V269.646" stroke="black" stroke-width="2" stroke-linecap="round" stroke-linejoin="round"/>
<path d="M500.16 195.15L512.576 182.744H559.607L581.808 204.929V269.646" stroke="black" stroke-width="2" stroke-linecap="round" stroke-linejoin="round"/>
<path d="M167.816 16.9383C167.064 12.4819 164.755 8.43605 161.302 5.51843C157.848 2.6008 153.471 1 148.949 1C143.875 1.00083 139.01 3.01544 135.423 6.60074C131.835 10.186 129.82 15.0484 129.82 20.1184C129.818 22.1576 130.143 24.184 130.781 26.1207" stroke="black" stroke-width="2" stroke-linecap="round" stroke-linejoin="round"/>
<path d="M127.21 21.39C124.917 21.39 122.718 22.3002 121.097 23.9204C119.476 25.5406 118.565 27.7381 118.565 30.0294C118.565 32.3207 119.476 34.5181 121.097 36.1383C122.718 37.7585 124.917 38.6688 127.21 38.6688L166.557 38.4678C169.414 38.467 172.153 37.3325 174.172 35.3138C176.192 33.2951 177.326 30.5576 177.326 27.7032C177.325 24.849 176.191 22.1119 174.171 20.0934C172.152 18.0749 169.413 16.9401 166.557 16.9385C164.355 16.9405 162.206 17.6171 160.4 18.8773C158.594 20.1374 157.218 21.9205 156.457 23.9862" stroke="black" stroke-width="2" stroke-linecap="round" stroke-linejoin="round"/>
<path d="M160.727 115.622L153.721 122.623L143.445 112.354" stroke="black" stroke-width="2" stroke-linecap="round" stroke-linejoin="round"/>
<path d="M215.923 80.0979L225.746 89.9334L235.365 80.302" stroke="black" stroke-width="2" stroke-linecap="round" stroke-linejoin="round"/>
<path d="M307.666 249.58C299.94 237.718 299.815 224.11 307.386 219.185C314.958 214.26 327.359 219.884 335.085 231.745C342.811 243.607 342.936 257.215 335.365 262.14C327.793 267.064 315.392 261.441 307.666 249.58Z" fill="white" stroke="black" stroke-width="2" stroke-miterlimit="10"/>
<path d="M331.406 229.108C339.012 238.548 341.094 250.584 336.059 255.99C331.023 261.396 320.769 258.122 313.16 248.679C305.552 239.236 303.481 227.225 308.52 221.806C313.559 216.388 323.807 219.672 331.406 229.108Z" fill="white" stroke="black" stroke-width="2" stroke-miterlimit="10"/>
<path d="M330.743 229.834C337.739 238.526 339.976 249.238 335.741 253.78C331.507 258.323 322.403 254.967 315.406 246.287C308.41 237.607 306.177 226.886 310.411 222.343C314.646 217.801 323.75 221.153 330.743 229.834Z" fill="black"/>
<path d="M224.191 228.339C224.191 228.339 241.946 245.433 257.409 236.806C272.871 228.179 295.936 242.607 303.255 239.251C310.575 235.896 311.678 232.923 310.358 228.126C309.039 223.329 299.231 221.847 288.801 218.209C278.538 214.63 268.306 206.16 267.986 205.896C268.401 206.179 282.848 216.036 290.105 215.072C298.386 213.974 315.865 215.779 315.865 215.779C315.865 215.779 333.904 237.424 344.286 233.004C354.669 228.584 333.159 200.516 319.418 193.948C305.678 187.381 263.274 182.044 255.162 182.27C247.661 182.474 227.517 188.511 222.544 191.581L224.191 228.339Z" fill="white" stroke="black" stroke-width="2" stroke-linecap="round" stroke-linejoin="round"/>
<path d="M216.705 239.104L224.665 238.884L222.303 186.169L214.342 186.389L216.705 239.104Z" fill="white" stroke="black" stroke-width="2" stroke-linecap="round" stroke-linejoin="round"/>
<path d="M9.47949 99.4548C61.3139 140.894 195.119 182.515 211.53 183.588C212.909 183.679 214.043 185.221 214.125 187.117L216.453 239.035C216.538 240.934 215.545 242.535 214.172 242.698C203.315 243.973 77.3858 234.577 1.99963 194.306L9.47949 99.4548Z" fill="white" stroke="black" stroke-width="2" stroke-miterlimit="10"/>
<path d="M313.877 230.518C325.447 227.586 329.785 233.236 332.201 237.738C335.192 243.668 331.497 246.604 322.99 248.428" stroke="white" stroke-width="2" stroke-miterlimit="10" stroke-linecap="round"/>
<path d="M330.2 234.831L320.895 237.038" stroke="white" stroke-width="2" stroke-miterlimit="10" stroke-linecap="round"/>
<path d="M332.201 237.741L324.08 239.619" stroke="white" stroke-width="2" stroke-miterlimit="10" stroke-linecap="round"/>
<path d="M253.648 334.334C253.648 334.259 253.648 334.184 253.648 334.112" stroke="black" stroke-width="2" stroke-miterlimit="10"/>
<path d="M279.24 291.675H374.593C385.915 291.675 396.774 296.169 404.78 304.17C412.785 312.17 417.283 323.021 417.283 334.335H257.878V313.019C257.878 307.357 260.129 301.928 264.135 297.924C268.141 293.921 273.574 291.672 279.24 291.672V291.675Z" fill="white" stroke="black" stroke-width="2" stroke-miterlimit="10"/>
<path d="M444.42 361.506V364.51H244.065V348.088C244.065 346.282 244.421 344.494 245.113 342.825C245.805 341.157 246.819 339.641 248.097 338.364C249.375 337.087 250.892 336.075 252.562 335.384C254.231 334.693 256.021 334.338 257.828 334.338H261.62C265.579 334.338 269.376 332.766 272.176 329.969C274.976 327.171 276.548 323.376 276.548 319.42V291.675H292.765V319.417C292.765 323.373 294.337 327.167 297.136 329.964C299.935 332.762 303.731 334.334 307.69 334.335H328.76C332.719 334.334 336.515 332.762 339.314 329.964C342.113 327.167 343.685 323.373 343.685 319.417V291.675H359.901V319.417C359.901 323.373 361.474 327.168 364.274 329.965C367.073 332.763 370.87 334.335 374.83 334.335H417.24C424.449 334.337 431.363 337.201 436.46 342.296C441.556 347.392 444.42 354.301 444.42 361.506Z" fill="white" stroke="black" stroke-width="2" stroke-miterlimit="10"/>
<path d="M443.141 353.262H436.446C431.402 353.262 426.562 351.275 422.974 347.732C419.387 344.189 417.342 339.375 417.283 334.335C423.044 334.345 428.653 336.184 433.3 339.585C437.947 342.987 441.393 347.776 443.141 353.262Z" fill="white" stroke="black" stroke-width="2" stroke-miterlimit="10"/>
<path d="M451.488 364.51H237V384.033H451.488V364.51Z" fill="white" stroke="black" stroke-width="2" stroke-miterlimit="10"/>
<path d="M407.752 400.552C418.771 400.552 427.704 391.626 427.704 380.615C427.704 369.603 418.771 360.677 407.752 360.677C396.733 360.677 387.801 369.603 387.801 380.615C387.801 391.626 396.733 400.552 407.752 400.552Z" fill="white" stroke="black" stroke-width="2" stroke-miterlimit="10"/>
<path d="M407.752 391.241C413.625 391.241 418.386 386.483 418.386 380.614C418.386 374.745 413.625 369.988 407.752 369.988C401.879 369.988 397.118 374.745 397.118 380.614C397.118 386.483 401.879 391.241 407.752 391.241Z" fill="white" stroke="black" stroke-width="2" stroke-miterlimit="10"/>
<path d="M274.453 400.552C285.471 400.552 294.404 391.626 294.404 380.615C294.404 369.603 285.471 360.677 274.453 360.677C263.434 360.677 254.501 369.603 254.501 380.615C254.501 391.626 263.434 400.552 274.453 400.552Z" fill="white" stroke="black" stroke-width="2" stroke-miterlimit="10"/>
<path d="M274.452 391.241C280.325 391.241 285.086 386.483 285.086 380.614C285.086 374.745 280.325 369.988 274.452 369.988C268.579 369.988 263.818 374.745 263.818 380.614C263.818 386.483 268.579 391.241 274.452 391.241Z" fill="white" stroke="black" stroke-width="2" stroke-miterlimit="10"/>
</svg>
