<svg width="790" height="453" viewBox="0 0 790 453" fill="none" xmlns="http://www.w3.org/2000/svg">
<g clip-path="url(#clip0_546_3473)">
<path d="M633.522 212.826C633.522 213.271 633.635 213.722 633.869 214.129L635.241 216.532C635.273 216.59 635.307 216.645 635.342 216.7C636.183 218.075 637.644 218.938 639.236 219.089C639.915 213.453 644.716 209.083 650.534 209.083C652.542 209.083 654.428 209.603 656.066 210.516C659.619 212.494 663.545 213.707 667.604 213.944L700.742 215.877C703.859 216.059 706.95 215.071 709.319 213.04C711.026 211.579 713.244 210.695 715.671 210.695C718.101 210.695 720.322 211.581 722.029 213.046C723.618 214.409 725.554 215.31 727.608 215.721L733.608 216.916L734.024 214.152C734.096 213.667 734.125 213.185 734.107 212.708C733.989 209.311 731.666 206.301 728.275 205.4L727.463 205.183L711.061 200.825C710.633 200.88 710.203 200.934 709.775 200.984C709.726 200.989 709.677 200.995 709.628 201.001C709.243 201.044 708.856 201.088 708.469 201.125C706.612 201.31 704.751 201.431 702.885 201.492C702.432 201.506 701.978 201.518 701.525 201.527C700.444 201.544 699.364 201.541 698.283 201.518C697.662 201.503 697.038 201.483 696.417 201.454L676.831 200.585L655.63 199.643C653.943 199.568 652.617 198.179 652.617 196.492C652.617 195.877 652.796 195.29 653.114 194.794C653.432 194.297 653.888 193.887 654.448 193.629L663.011 189.667H653.827C651.817 189.667 649.867 190.342 648.287 191.584L638 200.149C636.22 201.628 635.249 203.863 635.379 206.174L635.512 208.554C635.561 209.409 635.192 210.232 634.521 210.764C633.874 211.278 633.528 212.044 633.528 212.823L633.522 212.826Z" fill="white" stroke="black" stroke-width="1.35838" stroke-linecap="round" stroke-linejoin="round"/>
<path d="M705.91 220.074L725.438 220.357L733.076 220.466L733.608 216.922L727.608 215.726C725.554 215.316 723.618 214.415 722.029 213.052C720.322 211.584 718.098 210.698 715.671 210.698C713.244 210.698 711.026 211.581 709.319 213.043C706.947 215.074 703.856 216.062 700.742 215.88L667.604 213.947C663.545 213.71 659.617 212.497 656.066 210.519C654.428 209.606 652.542 209.086 650.534 209.086C644.713 209.086 639.915 213.453 639.236 219.092C639.375 219.106 639.516 219.115 639.661 219.115L705.913 220.074H705.91Z" fill="#A9A9A9" stroke="black" stroke-width="1.35838" stroke-linecap="round" stroke-linejoin="round"/>
<path d="M652.614 196.495C652.614 198.182 653.943 199.571 655.627 199.646L696.414 201.457C701.305 201.674 706.202 201.466 711.055 200.831L696.902 192.76C693.352 190.735 689.334 189.669 685.243 189.669H663.002L654.44 193.63C653.882 193.887 653.426 194.297 653.105 194.794C652.787 195.29 652.608 195.88 652.608 196.492L652.614 196.495Z" fill="white" stroke="black" stroke-width="1.35838" stroke-linecap="round" stroke-linejoin="round"/>
<path d="M676.831 200.588L675.563 189.669" stroke="black" stroke-width="1.35838" stroke-linecap="round" stroke-linejoin="round"/>
<path d="M715.671 227.431C719.518 227.431 722.636 224.313 722.636 220.466C722.636 216.62 719.518 213.502 715.671 213.502C711.825 213.502 708.706 216.62 708.706 220.466C708.706 224.313 711.825 227.431 715.671 227.431Z" fill="white" stroke="black" stroke-width="1.35838" stroke-linecap="round" stroke-linejoin="round"/>
<path d="M715.671 224.695C718.007 224.695 719.9 222.802 719.9 220.466C719.9 218.131 718.007 216.238 715.671 216.238C713.335 216.238 711.442 218.131 711.442 220.466C711.442 222.802 713.335 224.695 715.671 224.695Z" fill="white" stroke="black" stroke-width="1.35838" stroke-linecap="round" stroke-linejoin="round"/>
<path d="M650.534 227.431C654.381 227.431 657.499 224.313 657.499 220.466C657.499 216.62 654.381 213.502 650.534 213.502C646.688 213.502 643.569 216.62 643.569 220.466C643.569 224.313 646.688 227.431 650.534 227.431Z" fill="white" stroke="black" stroke-width="1.35838" stroke-linecap="round" stroke-linejoin="round"/>
<path d="M650.534 224.695C652.87 224.695 654.764 222.802 654.764 220.466C654.764 218.131 652.87 216.238 650.534 216.238C648.199 216.238 646.305 218.131 646.305 220.466C646.305 222.802 648.199 224.695 650.534 224.695Z" fill="white" stroke="black" stroke-width="1.35838" stroke-linecap="round" stroke-linejoin="round"/>
<path d="M325.164 205.62H224.258V213.546H325.164V205.62Z" fill="#A9A9A9" stroke="black" stroke-width="1.35838" stroke-linecap="round" stroke-linejoin="round"/>
<path d="M224.258 176.602V217.113H183.246C179.176 217.113 175.903 213.808 175.903 209.779C175.903 209.669 175.903 209.559 175.911 209.447L176.174 203.494L176.243 203.124C176.307 202.772 176.388 202.422 176.483 202.078C177.668 197.803 181.16 194.409 185.69 193.225L186.204 193.092L187.923 192.642L189.916 192.122C192.479 191.452 194.778 190.077 196.529 188.17L206.001 177.85C206.729 177.055 207.781 176.602 208.884 176.602H224.258Z" fill="white" stroke="black" stroke-width="1.35838" stroke-linecap="round" stroke-linejoin="round"/>
<path d="M182.862 200.137C180.946 201.619 178.63 202.257 176.483 202.081C177.668 197.803 181.16 194.412 185.69 193.228L186.204 193.092C186.424 195.597 185.248 198.292 182.862 200.137Z" fill="white" stroke="black" stroke-width="1.35838" stroke-miterlimit="10"/>
<path d="M211.091 180.204C209.69 180.204 208.358 180.779 207.434 181.784L200.706 189.097C199.848 190.03 199.374 191.229 199.374 192.468V195.403C199.374 196.905 200.931 197.959 202.422 197.463L220.48 191.452V180.204H211.091Z" fill="white" stroke="black" stroke-width="1.35838" stroke-miterlimit="10"/>
<path d="M224.258 176.602H203.863C203.863 168.28 209.681 160.975 218.096 158.737L224.258 157.099V176.602Z" fill="white" stroke="black" stroke-width="1.35838" stroke-miterlimit="10"/>
<path d="M325.164 157.099H224.258V205.62H325.164V157.099Z" fill="white" stroke="black" stroke-width="1.35838" stroke-miterlimit="10"/>
<path d="M328.293 198.427L325.127 198.393L325.419 172.116C325.427 171.426 326.375 171.247 326.635 171.885C326.872 172.468 327.01 173.087 327.042 173.71L328.293 198.427Z" fill="#A9A9A9" stroke="black" stroke-width="1.35838" stroke-linecap="round" stroke-linejoin="round"/>
<path d="M328.334 201.599C330.173 201.599 331.665 200.178 331.665 198.424C331.665 196.671 330.173 195.25 328.334 195.25C326.494 195.25 325.003 196.671 325.003 198.424C325.003 200.178 326.494 201.599 328.334 201.599Z" fill="white" stroke="black" stroke-width="1.35838" stroke-miterlimit="10"/>
<path d="M270.664 188.814C269.419 188.814 268.295 188.549 267.299 188.017C266.302 187.486 265.508 186.758 264.918 185.833C264.329 184.909 264.034 183.866 264.034 182.711C264.034 181.556 264.329 180.487 264.918 179.562C265.508 178.638 266.305 177.907 267.31 177.367C268.316 176.83 269.451 176.558 270.713 176.558C271.661 176.558 272.528 176.72 273.319 177.041C274.108 177.361 274.81 177.838 275.425 178.465L273.033 180.781C272.75 180.461 272.415 180.227 272.025 180.082C271.635 179.938 271.199 179.866 270.716 179.866C270.15 179.866 269.656 179.981 269.234 180.215C268.81 180.449 268.475 180.779 268.226 181.203C267.978 181.631 267.853 182.125 267.853 182.688C267.853 183.251 267.978 183.725 268.226 184.158C268.475 184.591 268.815 184.926 269.249 185.16C269.682 185.394 270.17 185.51 270.719 185.51C271.233 185.51 271.687 185.429 272.077 185.267C272.467 185.105 272.805 184.857 273.085 184.519L275.477 186.859C274.844 187.503 274.134 187.988 273.345 188.317C272.556 188.647 271.664 188.811 270.664 188.811" fill="#10A96C"/>
<path d="M284.328 176.827V177.824C284.008 177.526 283.635 177.275 283.207 177.067C282.543 176.746 281.804 176.584 280.989 176.584C279.877 176.584 278.877 176.853 277.999 177.393C277.118 177.933 276.427 178.658 275.931 179.577C275.431 180.493 275.182 181.538 275.182 182.714C275.182 183.889 275.431 184.909 275.931 185.825C276.43 186.74 277.115 187.465 277.987 187.997C278.86 188.528 279.854 188.794 280.966 188.794C281.798 188.794 282.543 188.641 283.21 188.335C283.641 188.138 284.013 187.887 284.331 187.587V188.551H287.994V176.83H284.331L284.328 176.827ZM283.742 184.727C283.233 185.25 282.557 185.51 281.711 185.51C281.18 185.51 280.706 185.389 280.29 185.149C279.874 184.909 279.544 184.577 279.305 184.161C279.065 183.742 278.944 183.26 278.944 182.714C278.944 182.168 279.065 181.657 279.305 181.229C279.544 180.805 279.874 180.469 280.29 180.227C280.706 179.987 281.188 179.866 281.734 179.866C282.28 179.866 282.765 179.987 283.179 180.227C283.595 180.469 283.918 180.799 284.152 181.215C284.383 181.634 284.502 182.125 284.502 182.685C284.502 183.52 284.247 184.201 283.742 184.724V184.727Z" fill="#00A6BF"/>
<path d="M297.016 176.61C296.779 176.567 296.525 176.544 296.25 176.544C295.609 176.544 295.005 176.691 294.442 176.986C293.879 177.281 293.385 177.679 292.966 178.182C292.856 178.312 292.755 178.448 292.662 178.586L292.587 176.816H289.129V188.546H292.792V182.653C292.792 182.298 292.85 181.98 292.963 181.7C293.078 181.42 293.234 181.177 293.431 180.969C293.63 180.761 293.873 180.605 294.165 180.493C294.453 180.383 294.768 180.325 295.103 180.325C295.41 180.325 295.701 180.357 295.985 180.426C296.268 180.493 296.493 180.576 296.661 180.68L297.669 176.761C297.469 176.703 297.253 176.651 297.016 176.605V176.61Z" fill="#8280B8"/>
<path d="M259.632 176.81V183.465C259.632 184.583 258.696 185.49 257.538 185.49C256.382 185.49 255.443 184.583 255.443 183.465V176.81H251.754V183.202C251.754 186.287 254.348 188.797 257.538 188.797C260.727 188.797 263.321 186.287 263.321 183.202V176.81H259.632Z" fill="#EF664E"/>
<path d="M202.373 217.113H183.249C179.179 217.113 175.906 213.808 175.906 209.779C175.906 209.669 175.906 209.559 175.914 209.447H196.61L202.373 217.113Z" fill="#A9A9A9" stroke="black" stroke-width="1.35838" stroke-linecap="round" stroke-linejoin="round"/>
<path d="M206.299 218.684C206.299 218.837 206.296 218.99 206.287 219.143C206.036 224.031 201.801 227.919 196.609 227.919C191.418 227.919 187.18 224.031 186.932 219.143C186.923 218.99 186.92 218.837 186.92 218.684C186.92 215.879 188.232 213.366 190.303 211.674C191.999 210.287 194.203 209.45 196.612 209.45C199.022 209.45 201.226 210.287 202.922 211.674C204.993 213.366 206.304 215.879 206.304 218.684H206.299Z" fill="white" stroke="black" stroke-width="1.35838" stroke-linecap="round" stroke-linejoin="round"/>
<path d="M196.61 222.829C199.012 222.829 200.96 220.973 200.96 218.684C200.96 216.395 199.012 214.539 196.61 214.539C194.207 214.539 192.259 216.395 192.259 218.684C192.259 220.973 194.207 222.829 196.61 222.829Z" fill="white" stroke="black" stroke-width="1.35838" stroke-linecap="round" stroke-linejoin="round"/>
<path d="M300.5 218.684C300.5 218.837 300.497 218.99 300.488 219.143C300.237 224.031 296.002 227.919 290.811 227.919C285.619 227.919 281.382 224.031 281.133 219.143C281.124 218.99 281.122 218.837 281.122 218.684C281.122 215.879 282.433 213.366 284.504 211.674C286.2 210.287 288.404 209.45 290.814 209.45C293.223 209.45 295.427 210.287 297.123 211.674C299.194 213.366 300.505 215.879 300.505 218.684H300.5Z" fill="white" stroke="black" stroke-width="1.35838" stroke-linecap="round" stroke-linejoin="round"/>
<path d="M290.811 222.829C293.213 222.829 295.161 220.973 295.161 218.684C295.161 216.395 293.213 214.539 290.811 214.539C288.408 214.539 286.46 216.395 286.46 218.684C286.46 220.973 288.408 222.829 290.811 222.829Z" fill="white" stroke="black" stroke-width="1.35838" stroke-linecap="round" stroke-linejoin="round"/>
<path d="M120.296 227.875H789.422" stroke="black" stroke-width="1.35838" stroke-linecap="round" stroke-linejoin="round"/>
<path d="M306.766 211.963C306.766 212.451 306.644 212.945 306.384 213.393L304.879 216.027C304.845 216.09 304.807 216.151 304.77 216.212C303.845 217.719 302.248 218.667 300.5 218.832C299.755 212.65 294.491 207.861 288.11 207.861C285.909 207.861 283.84 208.43 282.043 209.432C278.149 211.602 273.842 212.933 269.39 213.193L233.052 215.313C229.635 215.513 226.246 214.429 223.646 212.205C221.774 210.602 219.342 209.632 216.681 209.632C214.021 209.632 211.582 210.605 209.708 212.211C207.966 213.707 205.842 214.695 203.589 215.143L197.011 216.454L196.558 213.424C196.477 212.893 196.448 212.361 196.468 211.841C196.598 208.118 199.143 204.817 202.864 203.829L203.754 203.592L221.742 198.811C222.213 198.872 222.681 198.93 223.152 198.985C223.207 198.991 223.259 198.996 223.314 199.002C223.736 199.051 224.16 199.095 224.585 199.138C226.622 199.34 228.664 199.476 230.709 199.539C231.206 199.557 231.703 199.568 232.2 199.577C233.384 199.597 234.569 199.594 235.753 199.565C236.435 199.548 237.119 199.528 237.801 199.496L259.28 198.543L282.529 197.509C284.378 197.425 285.833 195.903 285.833 194.054C285.833 193.381 285.637 192.737 285.29 192.191C284.941 191.645 284.441 191.197 283.829 190.914L274.44 186.57H284.51C286.715 186.57 288.852 187.31 290.586 188.673L301.866 198.063C303.816 199.687 304.882 202.136 304.741 204.669L304.593 207.278C304.539 208.216 304.946 209.118 305.68 209.701C306.39 210.264 306.769 211.105 306.769 211.96L306.766 211.963Z" fill="white" stroke="black" stroke-width="1.35838" stroke-linecap="round" stroke-linejoin="round"/>
<path d="M227.387 219.909L205.972 220.218L197.595 220.339L197.014 216.451L203.595 215.14C205.848 214.692 207.969 213.704 209.713 212.208C211.588 210.599 214.023 209.629 216.687 209.629C219.35 209.629 221.78 210.596 223.652 212.202C226.252 214.43 229.64 215.51 233.058 215.313L269.396 213.193C273.848 212.933 278.155 211.602 282.049 209.432C283.846 208.433 285.914 207.861 288.116 207.861C294.497 207.861 299.76 212.65 300.506 218.832C300.353 218.846 300.197 218.855 300.041 218.858L227.387 219.909Z" fill="#A9A9A9" stroke="black" stroke-width="1.35838" stroke-linecap="round" stroke-linejoin="round"/>
<path d="M285.83 194.054C285.83 195.903 284.374 197.428 282.526 197.509L237.798 199.496C232.437 199.733 227.063 199.505 221.742 198.809L237.261 189.958C241.155 187.737 245.563 186.57 250.047 186.57H274.434L283.823 190.914C284.435 191.197 284.935 191.645 285.284 192.191C285.634 192.737 285.83 193.381 285.83 194.054Z" fill="white" stroke="black" stroke-width="1.35838" stroke-linecap="round" stroke-linejoin="round"/>
<path d="M259.274 198.54L260.666 186.57" stroke="black" stroke-width="1.35838" stroke-linecap="round" stroke-linejoin="round"/>
<path d="M244.445 207.514C243.917 207.54 243.431 207.448 242.995 207.231C242.559 207.015 242.206 206.708 241.932 206.31C241.66 205.911 241.51 205.452 241.484 204.935C241.458 204.412 241.559 203.936 241.79 203.511C242.022 203.086 242.342 202.743 242.758 202.48C243.174 202.217 243.651 202.072 244.185 202.046C244.587 202.026 244.959 202.078 245.303 202.205C245.647 202.332 245.956 202.529 246.231 202.795L245.266 203.881C245.139 203.742 244.988 203.647 244.821 203.589C244.65 203.534 244.465 203.511 244.26 203.52C244.021 203.531 243.813 203.595 243.636 203.707C243.46 203.82 243.327 203.976 243.229 204.17C243.134 204.366 243.09 204.588 243.105 204.84C243.116 205.082 243.18 205.299 243.298 205.487C243.414 205.674 243.567 205.816 243.755 205.911C243.943 206.007 244.156 206.047 244.387 206.035C244.607 206.024 244.798 205.978 244.959 205.9C245.121 205.819 245.26 205.7 245.373 205.544L246.444 206.538C246.19 206.838 245.898 207.072 245.572 207.234C245.243 207.399 244.867 207.491 244.442 207.511L244.445 207.514Z" fill="#10A96C"/>
<path d="M251.54 201.789L249.983 201.87L250.006 202.315C249.862 202.191 249.7 202.084 249.512 202.003C249.223 201.873 248.906 201.818 248.559 201.836C248.085 201.862 247.669 202.003 247.305 202.26C246.941 202.52 246.667 202.858 246.473 203.28C246.283 203.699 246.199 204.172 246.228 204.695C246.254 205.212 246.384 205.669 246.618 206.067C246.852 206.466 247.158 206.772 247.542 206.992C247.926 207.211 248.354 207.306 248.828 207.283C249.18 207.266 249.495 207.182 249.772 207.029C249.951 206.934 250.105 206.813 250.232 206.671L250.255 207.101L251.812 207.023L251.546 201.792L251.54 201.789ZM249.914 205.406C249.709 205.651 249.429 205.781 249.067 205.799C248.839 205.81 248.637 205.767 248.455 205.669C248.273 205.57 248.126 205.429 248.013 205.25C247.9 205.068 247.84 204.857 247.828 204.611C247.817 204.36 247.854 204.138 247.947 203.941C248.039 203.745 248.172 203.589 248.342 203.473C248.513 203.358 248.715 203.291 248.949 203.28C249.183 203.268 249.391 203.312 249.573 203.41C249.755 203.508 249.899 203.65 250.009 203.832C250.119 204.014 250.18 204.23 250.191 204.481C250.211 204.854 250.119 205.163 249.914 205.406Z" fill="#00A6BF"/>
<path d="M255.374 201.498C255.273 201.483 255.163 201.478 255.047 201.483C254.776 201.498 254.522 201.576 254.288 201.72C254.054 201.865 253.854 202.052 253.687 202.286C253.643 202.347 253.603 202.41 253.568 202.474L253.496 201.685L252.026 201.761L252.291 206.995L253.848 206.917L253.716 204.288C253.707 204.129 253.724 203.988 253.768 203.861C253.811 203.733 253.872 203.621 253.95 203.525C254.03 203.43 254.129 203.352 254.25 203.297C254.371 203.242 254.501 203.211 254.646 203.202C254.776 203.196 254.9 203.202 255.021 203.228C255.143 203.251 255.241 203.286 255.313 203.326L255.651 201.556C255.564 201.532 255.472 201.515 255.371 201.501L255.374 201.498Z" fill="#8280B8"/>
<path d="M239.482 202.396L239.633 205.365C239.659 205.865 239.28 206.29 238.789 206.316C238.298 206.342 237.879 205.958 237.853 205.458L237.703 202.489L236.134 202.569L236.279 205.42C236.348 206.798 237.509 207.861 238.864 207.792C240.219 207.722 241.265 206.547 241.195 205.169L241.051 202.318L239.482 202.399V202.396Z" fill="#EF664E"/>
<path d="M216.684 227.979C220.902 227.979 224.322 224.56 224.322 220.342C224.322 216.124 220.902 212.705 216.684 212.705C212.466 212.705 209.046 216.124 209.046 220.342C209.046 224.56 212.466 227.979 216.684 227.979Z" fill="white" stroke="black" stroke-width="1.35838" stroke-linecap="round" stroke-linejoin="round"/>
<path d="M216.684 224.981C219.246 224.981 221.324 222.904 221.324 220.342C221.324 217.78 219.246 215.703 216.684 215.703C214.122 215.703 212.045 217.78 212.045 220.342C212.045 222.904 214.122 224.981 216.684 224.981Z" fill="white" stroke="black" stroke-width="1.35838" stroke-linecap="round" stroke-linejoin="round"/>
<path d="M288.113 227.979C292.331 227.979 295.751 224.56 295.751 220.342C295.751 216.124 292.331 212.705 288.113 212.705C283.894 212.705 280.475 216.124 280.475 220.342C280.475 224.56 283.894 227.979 288.113 227.979Z" fill="white" stroke="black" stroke-width="1.35838" stroke-linecap="round" stroke-linejoin="round"/>
<path d="M288.113 224.981C290.675 224.981 292.752 222.904 292.752 220.342C292.752 217.78 290.675 215.703 288.113 215.703C285.55 215.703 283.473 217.78 283.473 220.342C283.473 222.904 285.55 224.981 288.113 224.981Z" fill="white" stroke="black" stroke-width="1.35838" stroke-linecap="round" stroke-linejoin="round"/>
<path d="M297.654 194.494V230.429H241.242V217.004C241.242 213.771 243.385 210.932 246.491 210.045L247.938 209.632L257.737 206.833C261.278 205.822 264.526 203.968 267.198 201.435L271.869 197.004C273.565 195.395 275.815 194.497 278.152 194.497H297.649L297.654 194.494Z" fill="white" stroke="black" stroke-width="1.35838" stroke-linecap="round" stroke-linejoin="round"/>
<path d="M241.245 217.982C245.563 217.982 249.065 214.482 249.065 210.163V209.308" fill="white"/>
<path d="M241.245 217.982C245.563 217.982 249.065 214.482 249.065 210.163V209.308" stroke="black" stroke-width="1.35838" stroke-linecap="round" stroke-linejoin="round"/>
<path d="M320.955 194.493H297.654V230.429H320.955V194.493Z" fill="white" stroke="black" stroke-width="1.35838" stroke-linecap="round" stroke-linejoin="round"/>
<path d="M344.257 198.283V226.642C344.257 228.733 342.561 230.429 340.467 230.429H320.956V194.493H340.467C342.561 194.493 344.257 196.189 344.257 198.28V198.283Z" fill="white" stroke="black" stroke-width="1.35838" stroke-linecap="round" stroke-linejoin="round"/>
<path d="M344.257 210.946H310.417C305.723 210.946 301.187 209.242 297.654 206.154" stroke="black" stroke-width="1.35838" stroke-linecap="round" stroke-linejoin="round"/>
<path d="M344.257 225.322V226.639C344.257 228.73 342.561 230.426 340.467 230.426H241.242V225.319H344.257V225.322Z" fill="#A9A9A9" stroke="black" stroke-width="1.35838" stroke-linecap="round" stroke-linejoin="round"/>
<path d="M261.631 238.245C265.948 238.245 269.448 234.746 269.448 230.429C269.448 226.112 265.948 222.613 261.631 222.613C257.314 222.613 253.814 226.112 253.814 230.429C253.814 234.746 257.314 238.245 261.631 238.245Z" fill="white" stroke="black" stroke-width="1.35838" stroke-linecap="round" stroke-linejoin="round"/>
<path d="M261.631 234.493C263.876 234.493 265.696 232.673 265.696 230.429C265.696 228.184 263.876 226.365 261.631 226.365C259.386 226.365 257.566 228.184 257.566 230.429C257.566 232.673 259.386 234.493 261.631 234.493Z" fill="white" stroke="black" stroke-width="1.35838" stroke-linecap="round" stroke-linejoin="round"/>
<path d="M331.269 238.245C335.586 238.245 339.086 234.746 339.086 230.429C339.086 226.112 335.586 222.613 331.269 222.613C326.951 222.613 323.451 226.112 323.451 230.429C323.451 234.746 326.951 238.245 331.269 238.245Z" fill="white" stroke="black" stroke-width="1.35838" stroke-linecap="round" stroke-linejoin="round"/>
<path d="M331.269 234.493C333.513 234.493 335.333 232.673 335.333 230.429C335.333 228.184 333.513 226.365 331.269 226.365C329.024 226.365 327.204 228.184 327.204 230.429C327.204 232.673 329.024 234.493 331.269 234.493Z" fill="white" stroke="black" stroke-width="1.35838" stroke-linecap="round" stroke-linejoin="round"/>
<path d="M263.74 204.132C263.74 207.896 266.79 210.946 270.554 210.946H286.755C290.519 210.946 293.57 207.896 293.57 204.132V194.49" stroke="black" stroke-width="1.35838" stroke-linecap="round" stroke-linejoin="round"/>
<path d="M647.408 194.493V230.813H704.422V217.243C704.422 213.979 702.255 211.108 699.115 210.209L697.653 209.791L687.75 206.96C684.171 205.937 680.889 204.066 678.188 201.504L673.468 197.024C671.752 195.397 669.482 194.49 667.116 194.49H647.408V194.493Z" fill="white" stroke="black" stroke-width="1.35838" stroke-linecap="round" stroke-linejoin="round"/>
<path d="M704.422 218.234C700.057 218.234 696.521 214.695 696.521 210.334V209.47" fill="white"/>
<path d="M704.422 218.234C700.057 218.234 696.521 214.695 696.521 210.334V209.47" stroke="black" stroke-width="1.35838" stroke-linecap="round" stroke-linejoin="round"/>
<path d="M623.859 230.813H647.408V194.493H623.859V230.813Z" fill="white" stroke="black" stroke-width="1.35838" stroke-linecap="round" stroke-linejoin="round"/>
<path d="M600.306 198.324V226.986C600.306 229.101 602.022 230.814 604.137 230.814H623.859V194.494H604.137C602.022 194.494 600.306 196.21 600.306 198.321V198.324Z" fill="white" stroke="black" stroke-width="1.35838" stroke-linecap="round" stroke-linejoin="round"/>
<path d="M600.306 211.122H634.507C639.25 211.122 643.835 209.401 647.408 206.278" stroke="black" stroke-width="1.35838" stroke-linecap="round" stroke-linejoin="round"/>
<path d="M600.306 225.651V226.983C600.306 229.097 602.022 230.81 604.137 230.81H704.422V225.651H600.309H600.306Z" fill="#A9A9A9" stroke="black" stroke-width="1.35838" stroke-linecap="round" stroke-linejoin="round"/>
<path d="M683.816 238.713C688.18 238.713 691.717 235.176 691.717 230.813C691.717 226.45 688.18 222.913 683.816 222.913C679.452 222.913 675.915 226.45 675.915 230.813C675.915 235.176 679.452 238.713 683.816 238.713Z" fill="white" stroke="black" stroke-width="1.35838" stroke-linecap="round" stroke-linejoin="round"/>
<path d="M683.816 234.92C686.085 234.92 687.924 233.081 687.924 230.813C687.924 228.545 686.085 226.706 683.816 226.706C681.547 226.706 679.708 228.545 679.708 230.813C679.708 233.081 681.547 234.92 683.816 234.92Z" fill="white" stroke="black" stroke-width="1.35838" stroke-linecap="round" stroke-linejoin="round"/>
<path d="M613.433 238.713C617.796 238.713 621.334 235.176 621.334 230.813C621.334 226.45 617.796 222.913 613.433 222.913C609.069 222.913 605.532 226.45 605.532 230.813C605.532 235.176 609.069 238.713 613.433 238.713Z" fill="white" stroke="black" stroke-width="1.35838" stroke-linecap="round" stroke-linejoin="round"/>
<path d="M613.433 234.92C615.702 234.92 617.541 233.081 617.541 230.813C617.541 228.545 615.702 226.706 613.433 226.706C611.164 226.706 609.325 228.545 609.325 230.813C609.325 233.081 611.164 234.92 613.433 234.92Z" fill="white" stroke="black" stroke-width="1.35838" stroke-linecap="round" stroke-linejoin="round"/>
<path d="M681.684 204.236C681.684 208.04 678.602 211.122 674.797 211.122H658.423C654.619 211.122 651.536 208.04 651.536 204.236V194.493" stroke="black" stroke-width="1.35838" stroke-linecap="round" stroke-linejoin="round"/>
<path d="M634.079 220.706C633.6 220.706 633.169 220.599 632.788 220.386C632.407 220.172 632.1 219.88 631.875 219.508C631.65 219.135 631.534 218.716 631.534 218.251C631.534 217.777 631.647 217.356 631.875 216.983C632.1 216.61 632.407 216.316 632.794 216.099C633.181 215.882 633.614 215.773 634.099 215.773C634.463 215.773 634.796 215.836 635.099 215.966C635.402 216.096 635.671 216.287 635.908 216.538L634.989 217.471C634.879 217.341 634.752 217.249 634.602 217.188C634.452 217.13 634.284 217.101 634.099 217.101C633.883 217.101 633.692 217.148 633.53 217.243C633.369 217.338 633.239 217.468 633.143 217.642C633.048 217.812 632.999 218.011 632.999 218.239C632.999 218.459 633.048 218.658 633.143 218.832C633.239 219.008 633.369 219.141 633.536 219.236C633.701 219.331 633.891 219.378 634.099 219.378C634.296 219.378 634.472 219.346 634.619 219.279C634.77 219.216 634.9 219.115 635.007 218.979L635.925 219.921C635.683 220.181 635.411 220.377 635.108 220.507C634.804 220.64 634.463 220.706 634.079 220.706Z" fill="#10A96C"/>
<path d="M639.322 215.877V216.278C639.198 216.16 639.057 216.056 638.892 215.975C638.638 215.845 638.352 215.781 638.04 215.781C637.612 215.781 637.231 215.891 636.893 216.108C636.555 216.324 636.289 216.619 636.098 216.986C635.908 217.356 635.812 217.777 635.812 218.248C635.812 218.713 635.908 219.132 636.098 219.502C636.289 219.871 636.552 220.163 636.887 220.377C637.222 220.591 637.604 220.698 638.031 220.698C638.349 220.698 638.638 220.637 638.892 220.513C639.057 220.432 639.201 220.334 639.322 220.212V220.602H640.729V215.882H639.322V215.877ZM639.097 219.057C638.904 219.268 638.644 219.372 638.317 219.372C638.112 219.372 637.93 219.323 637.771 219.227C637.612 219.129 637.485 218.996 637.393 218.829C637.3 218.661 637.254 218.465 637.254 218.245C637.254 218.02 637.3 217.821 637.393 217.647C637.485 217.477 637.612 217.341 637.771 217.243C637.93 217.145 638.115 217.099 638.326 217.099C638.537 217.099 638.722 217.148 638.88 217.243C639.039 217.341 639.164 217.474 639.253 217.642C639.343 217.809 639.386 218.008 639.386 218.234C639.386 218.572 639.288 218.843 639.094 219.054L639.097 219.057Z" fill="#00A6BF"/>
<path d="M644.19 215.79C644.101 215.773 644.002 215.764 643.895 215.764C643.65 215.764 643.419 215.825 643.202 215.943C642.985 216.062 642.798 216.223 642.636 216.426C642.593 216.478 642.555 216.532 642.52 216.59L642.492 215.877H641.166V220.599H642.572V218.228C642.572 218.086 642.596 217.956 642.639 217.844C642.682 217.731 642.743 217.633 642.818 217.549C642.893 217.465 642.988 217.402 643.098 217.358C643.208 217.315 643.329 217.292 643.459 217.292C643.578 217.292 643.69 217.306 643.797 217.332C643.904 217.358 643.991 217.393 644.057 217.436L644.444 215.856C644.369 215.833 644.285 215.813 644.193 215.793L644.19 215.79Z" fill="#8280B8"/>
<path d="M629.847 215.871V218.551C629.847 219.002 629.489 219.366 629.044 219.366C628.599 219.366 628.241 219.002 628.241 218.551V215.871H626.825V218.444C626.825 219.687 627.822 220.698 629.044 220.698C630.266 220.698 631.263 219.687 631.263 218.444V215.871H629.847Z" fill="#EF664E"/>
<path d="M624.298 146.475H285.467V246.009H624.298V146.475Z" fill="white" stroke="black" stroke-width="1.35838" stroke-linecap="round" stroke-linejoin="round"/>
<path d="M624.298 95.2045H285.467V146.478H624.298V95.2045Z" fill="white" stroke="black" stroke-width="1.35838" stroke-linecap="round" stroke-linejoin="round"/>
<path d="M393.474 246.009V162.489H305.94V246.009H393.474Z" fill="#8280B8" stroke="black" stroke-width="1.35838" stroke-linecap="round" stroke-linejoin="round"/>
<path d="M440.706 138.234C437.378 138.234 434.382 137.492 431.718 136.004C429.055 134.517 426.937 132.477 425.363 129.886C423.789 127.296 423 124.378 423 121.134C423 117.891 423.789 114.907 425.363 112.313C426.937 109.722 429.066 107.671 431.753 106.163C434.437 104.653 437.467 103.899 440.838 103.899C443.369 103.899 445.686 104.349 447.795 105.251C449.901 106.152 451.778 107.481 453.419 109.24L447.029 115.727C446.275 114.826 445.377 114.173 444.334 113.766C443.291 113.361 442.127 113.156 440.838 113.156C439.33 113.156 438.01 113.483 436.878 114.136C435.745 114.788 434.847 115.713 434.183 116.906C433.518 118.101 433.183 119.485 433.183 121.062C433.183 122.639 433.515 123.968 434.183 125.184C434.847 126.4 435.757 127.336 436.913 127.989C438.065 128.642 439.377 128.968 440.838 128.968C442.213 128.968 443.424 128.743 444.467 128.292C445.51 127.841 446.408 127.142 447.162 126.198L453.552 132.755C451.865 134.557 449.967 135.921 447.861 136.845C445.752 137.769 443.369 138.231 440.706 138.231" fill="#10A96C"/>
<path d="M477.188 104.641V107.434C476.33 106.602 475.334 105.895 474.193 105.317C472.416 104.416 470.443 103.965 468.268 103.965C465.295 103.965 462.632 104.719 460.28 106.23C457.929 107.74 456.086 109.78 454.754 112.348C453.422 114.915 452.758 117.844 452.758 121.134C452.758 124.424 453.422 127.284 454.754 129.852C456.086 132.42 457.917 134.447 460.246 135.935C462.577 137.422 465.226 138.165 468.201 138.165C470.42 138.165 472.416 137.737 474.193 136.882C475.34 136.331 476.336 135.629 477.188 134.785V137.492H486.973V104.644H477.188V104.641ZM475.626 126.778C474.271 128.243 472.462 128.977 470.2 128.977C468.779 128.977 467.514 128.639 466.407 127.963C465.298 127.287 464.42 126.365 463.779 125.193C463.134 124.02 462.814 122.671 462.814 121.137C462.814 119.603 463.134 118.174 463.779 116.981C464.423 115.788 465.298 114.852 466.407 114.176C467.517 113.5 468.802 113.162 470.267 113.162C471.732 113.162 473.017 113.5 474.126 114.176C475.236 114.852 476.099 115.776 476.723 116.949C477.344 118.122 477.656 119.494 477.656 121.071C477.656 123.413 476.98 125.317 475.626 126.781V126.778Z" fill="#00A6BF"/>
<path d="M511.074 104.035C510.441 103.91 509.76 103.847 509.026 103.847C507.316 103.847 505.704 104.26 504.196 105.089C502.688 105.918 501.373 107.036 500.252 108.439C499.961 108.806 499.692 109.185 499.444 109.575L499.244 104.615H490.009V137.486H499.793V120.976C499.793 119.982 499.946 119.092 500.252 118.307C500.559 117.521 500.975 116.839 501.506 116.259C502.035 115.681 502.688 115.236 503.462 114.924C504.236 114.615 505.071 114.459 505.969 114.459C506.784 114.459 507.567 114.552 508.321 114.739C509.075 114.924 509.676 115.164 510.124 115.453L512.813 104.468C512.284 104.303 511.704 104.159 511.071 104.035H511.074Z" fill="#8280B8"/>
<path d="M411.24 104.595V123.246C411.24 126.38 408.738 128.922 405.65 128.922C402.562 128.922 400.06 126.38 400.06 123.246V104.595H390.209V122.504C390.209 131.149 397.137 138.182 405.65 138.182C414.163 138.182 421.094 131.149 421.094 122.504V104.595H411.24Z" fill="#EF664E"/>
<path d="M385.298 170.663H314.118V246.009H385.298V170.663Z" fill="white" stroke="black" stroke-width="1.35838" stroke-linecap="round" stroke-linejoin="round"/>
<path d="M314.118 239.23H385.298" stroke="black" stroke-width="1.35838" stroke-linejoin="round"/>
<path d="M314.118 231.948H385.298" stroke="black" stroke-width="1.35838" stroke-linejoin="round"/>
<path d="M314.118 224.666H385.298" stroke="black" stroke-width="1.35838" stroke-linejoin="round"/>
<path d="M314.118 217.385H385.298" stroke="black" stroke-width="1.35838" stroke-linejoin="round"/>
<path d="M314.118 210.1H385.298" stroke="black" stroke-width="1.35838" stroke-linejoin="round"/>
<path d="M314.118 202.818H385.298" stroke="black" stroke-width="1.35838" stroke-linejoin="round"/>
<path d="M314.118 195.536H385.298" stroke="black" stroke-width="1.35838" stroke-linejoin="round"/>
<path d="M314.118 188.254H385.298" stroke="black" stroke-width="1.35838" stroke-linejoin="round"/>
<path d="M314.118 180.969H385.298" stroke="black" stroke-width="1.35838" stroke-linejoin="round"/>
<path d="M419.291 246.009V162.489H411.115V246.009H419.291Z" fill="#10A96C" stroke="black" stroke-width="1.35838" stroke-linecap="round" stroke-linejoin="round"/>
<path d="M592.455 170.663H419.291V246.009H592.455V170.663Z" fill="white" stroke="black" stroke-width="1.35838" stroke-linecap="round" stroke-linejoin="round"/>
<path d="M572.482 233.138H595.991C595.355 223.814 593.414 212.841 587.798 212.841C578.034 212.841 581.789 227.682 574.278 227.682C573.481 227.682 572.713 227.748 571.979 227.884C568.824 228.468 569.278 233.135 572.484 233.135L572.482 233.138Z" fill="white" stroke="black" stroke-width="1.35838" stroke-linecap="round" stroke-linejoin="round"/>
<path d="M595.988 233.138V246.009" stroke="black" stroke-width="1.35838" stroke-linecap="round" stroke-linejoin="round"/>
<path d="M585.577 233.138V246.009" stroke="black" stroke-width="1.35838" stroke-linecap="round" stroke-linejoin="round"/>
<path d="M575.162 233.138V246.009" stroke="black" stroke-width="1.35838" stroke-linecap="round" stroke-linejoin="round"/>
<path d="M571.872 233.138V246.009" stroke="black" stroke-width="1.35838" stroke-linecap="round" stroke-linejoin="round"/>
<path d="M564.737 173.401H419.291V246.012H564.737V173.401Z" fill="#EF664E" stroke="black" stroke-width="1.35838" stroke-linecap="round" stroke-linejoin="round"/>
<path d="M564.737 186.209H445.55V246.012H564.737V186.209Z" fill="white" stroke="black" stroke-width="1.35838" stroke-linecap="round" stroke-linejoin="round"/>
<path d="M463.175 178.436H435.15C430.409 178.436 426.565 182.28 426.565 187.021V229.655C426.565 234.396 430.409 238.239 435.15 238.239H463.175C467.916 238.239 471.76 234.396 471.76 229.655V187.021C471.76 182.28 467.916 178.436 463.175 178.436Z" fill="#00A6BF" stroke="black" stroke-width="1.35838" stroke-linecap="round" stroke-linejoin="round"/>
<path d="M462.377 246.009H471.757C471.757 246.009 471.541 242.751 469.022 242.081C468.663 241.986 468.427 241.555 468.285 240.888H462.935L462.38 246.012L462.377 246.009Z" fill="black" stroke="black" stroke-width="1.35838" stroke-linecap="round" stroke-linejoin="round"/>
<path d="M465.122 219.519L462.932 240.888H468.282C467.424 236.859 470.013 224.175 470.013 224.175" fill="white"/>
<path d="M465.122 219.519L462.932 240.888H468.282C467.424 236.859 470.013 224.175 470.013 224.175" stroke="black" stroke-width="1.35838" stroke-linecap="round" stroke-linejoin="round"/>
<path d="M471.177 192.647C472.864 192.647 472.431 195.114 473.306 195.989C474.181 196.865 475.461 197.925 474.228 198.251C472.994 198.575 473.904 201.324 472.54 202.688C471.177 204.051 466.956 204.779 465.983 201.625C465.009 198.471 463.969 192.65 471.177 192.65V192.647Z" fill="white" stroke="black" stroke-width="1.35838" stroke-linecap="round" stroke-linejoin="round"/>
<path d="M473.306 200.365C473.306 200.365 472.789 200.807 471.382 199.733L473.306 200.365Z" fill="white"/>
<path d="M473.306 200.365C473.306 200.365 472.789 200.807 471.382 199.733" stroke="black" stroke-width="1.35838" stroke-linecap="round" stroke-linejoin="round"/>
<path d="M471.07 196.827C471.301 196.827 471.489 196.64 471.489 196.408C471.489 196.177 471.301 195.989 471.07 195.989C470.839 195.989 470.651 196.177 470.651 196.408C470.651 196.64 470.839 196.827 471.07 196.827Z" fill="black"/>
<path d="M483.428 212.994C481.984 212.994 477.266 210.565 475.169 208.468C474.008 207.307 472.205 204.851 470.437 203.852C469.695 203.433 467.959 203.941 467.268 203.335C466.075 202.292 465.728 206.801 465.295 210.64C464.862 214.479 465.125 219.519 465.125 219.519H472.465C472.465 219.519 471.694 213.719 471.523 211.411C471.518 211.33 471.63 211.301 471.662 211.376C471.957 212.084 472.679 213.372 474.585 214.172C477.373 215.342 480.617 216.495 483.431 215.516V212.991L483.428 212.994Z" fill="#A9A9A9" stroke="black" stroke-width="1.35838" stroke-linecap="round" stroke-linejoin="round"/>
<path d="M470.836 246.009H481.952C481.744 244.634 480.675 243.557 479.303 243.317C478.223 243.129 477.111 242.662 476.625 240.885H470.79C470.882 243.811 470.836 246.009 470.836 246.009Z" fill="black" stroke="black" stroke-width="1.35838" stroke-linecap="round" stroke-linejoin="round"/>
<path d="M465.122 219.519H472.463C472.463 219.519 476.039 234.325 476.394 239.455C476.432 240.007 476.513 240.481 476.625 240.888H470.79C470.68 237.361 470.374 232.774 469.556 229.695C468.996 227.584 468.502 226.243 468.109 225.397" fill="white"/>
<path d="M465.122 219.519H472.463C472.463 219.519 476.039 234.325 476.394 239.455C476.432 240.007 476.513 240.481 476.625 240.888H470.79C470.68 237.361 470.374 232.774 469.556 229.695C468.996 227.584 468.502 226.243 468.109 225.397" stroke="black" stroke-width="1.35838" stroke-linecap="round" stroke-linejoin="round"/>
<path d="M464.845 198.393C464.969 198.728 465.237 198.993 465.578 199.106C467.546 199.776 465.639 197.621 466.381 196.723C467.364 195.536 468.499 196.495 468.635 195.987C469.262 193.658 469.221 193.309 467.372 193.309C465.523 193.309 464.198 193.517 464.198 195.262C464.198 196.455 464.593 197.711 464.842 198.387L464.845 198.393Z" fill="black" stroke="black" stroke-width="1.35838" stroke-linecap="round" stroke-linejoin="round"/>
<path d="M487.256 214.34C486.248 213.655 484.899 212.997 483.428 212.997V215.521L486.776 215.729C487.548 215.778 487.894 214.776 487.253 214.343L487.256 214.34Z" fill="white" stroke="black" stroke-width="1.35838" stroke-miterlimit="10"/>
<path d="M479.037 216.024V246.009H475.386V219.678H437.054V246.009H433.4V216.024H479.037Z" fill="#8280B8" stroke="black" stroke-width="1.35838" stroke-linecap="round" stroke-linejoin="round"/>
<path d="M517.516 246.009H508.136C508.136 246.009 508.353 242.751 510.872 242.081C511.23 241.986 511.467 241.555 511.609 240.888H516.959L517.513 246.012L517.516 246.009Z" fill="black" stroke="black" stroke-width="1.35838" stroke-linecap="round" stroke-linejoin="round"/>
<path d="M514.775 220.634L516.965 240.885H511.614C512.472 236.856 509.884 224.172 509.884 224.172" fill="white"/>
<path d="M514.775 220.634L516.965 240.885H511.614C512.472 236.856 509.884 224.172 509.884 224.172" stroke="black" stroke-width="1.35838" stroke-linecap="round" stroke-linejoin="round"/>
<path d="M492.473 206.815C492.814 204.239 498.265 206.815 498.265 206.815V210.726C498.265 210.726 492.132 209.389 492.473 206.815Z" fill="white" stroke="black" stroke-width="1.35838" stroke-linecap="round" stroke-linejoin="round"/>
<path d="M508.72 192.648C507.033 192.648 507.466 195.114 506.591 195.99C505.715 196.865 504.436 197.925 505.669 198.251C506.903 198.575 505.993 201.325 507.356 202.688C508.72 204.051 512.94 204.779 513.914 201.625C514.887 198.471 515.927 192.65 508.72 192.65V192.648Z" fill="white" stroke="black" stroke-width="1.35838" stroke-linecap="round" stroke-linejoin="round"/>
<path d="M506.588 200.365C506.588 200.365 508.278 200.807 509.688 199.733L506.588 200.365Z" fill="white"/>
<path d="M506.588 200.365C506.588 200.365 508.278 200.807 509.688 199.733" stroke="black" stroke-width="1.35838" stroke-linecap="round" stroke-linejoin="round"/>
<path d="M508.827 196.827C509.058 196.827 509.245 196.64 509.245 196.408C509.245 196.177 509.058 195.99 508.827 195.99C508.595 195.99 508.408 196.177 508.408 196.408C508.408 196.64 508.595 196.827 508.827 196.827Z" fill="black"/>
<path d="M507.22 194.476C507.22 194.476 504.025 193.806 504.869 192.364C505.712 190.923 506.068 189.456 508.827 190.732C511.585 192.009 513.108 191.249 514.168 192.526C515.228 193.803 514.575 198.372 514.575 198.372C514.575 198.372 512.917 195.351 511.964 195.08C511.01 194.808 507.22 194.47 507.22 194.47V194.476Z" fill="black" stroke="black" stroke-width="1.35838" stroke-linecap="round" stroke-linejoin="round"/>
<path d="M498.265 206.816C499.71 206.816 502.208 209.178 504.727 208.471C506.308 208.026 507.691 204.854 509.459 203.855C510.202 203.436 511.938 203.944 512.628 203.338C513.821 202.295 514.168 206.804 514.601 210.643C515.035 214.482 514.772 220.637 514.772 220.637H507.431C507.431 220.637 508.408 211.896 508.408 210.79C508.408 210.79 508.145 213.381 505.158 213.381C502.171 213.381 501.079 211.706 498.265 210.729V206.818V206.816Z" fill="white" stroke="black" stroke-width="1.35838" stroke-linecap="round" stroke-linejoin="round"/>
<path d="M509.058 246.009H497.942C498.15 244.634 499.219 243.557 500.591 243.317C501.671 243.129 502.783 242.662 503.269 240.885H509.104C509.012 243.811 509.058 246.009 509.058 246.009Z" fill="black" stroke="black" stroke-width="1.35838" stroke-linecap="round" stroke-linejoin="round"/>
<path d="M511.788 225.397C511.392 226.246 510.901 227.587 510.34 229.695C509.523 232.771 509.217 237.358 509.107 240.888H503.271C503.384 240.484 503.462 240.01 503.503 239.455C503.858 234.325 507.434 220.634 507.434 220.634" fill="white"/>
<path d="M511.788 225.397C511.392 226.246 510.901 227.587 510.34 229.695C509.523 232.771 509.217 237.358 509.107 240.888H503.271C503.384 240.484 503.462 240.01 503.503 239.455C503.858 234.325 507.434 220.634 507.434 220.634" stroke="black" stroke-width="1.35838" stroke-linecap="round" stroke-linejoin="round"/>
<path d="M524.678 216.024V246.009H521.023V219.678H482.692V246.009H479.037V216.024H524.678Z" fill="#10A96C" stroke="black" stroke-width="1.35838" stroke-linecap="round" stroke-linejoin="round"/>
<path d="M555.608 233.138H532.099C532.734 223.814 534.676 212.841 540.292 212.841C550.056 212.841 546.3 227.682 553.811 227.682C554.608 227.682 555.377 227.748 556.111 227.884C559.265 228.468 558.812 233.135 555.605 233.135L555.608 233.138Z" fill="white" stroke="black" stroke-width="1.35838" stroke-linecap="round" stroke-linejoin="round"/>
<path d="M532.102 233.138V246.009" stroke="black" stroke-width="1.35838" stroke-linecap="round" stroke-linejoin="round"/>
<path d="M542.513 233.138V246.009" stroke="black" stroke-width="1.35838" stroke-linecap="round" stroke-linejoin="round"/>
<path d="M552.927 233.138V246.009" stroke="black" stroke-width="1.35838" stroke-linecap="round" stroke-linejoin="round"/>
<path d="M556.215 233.138V246.009" stroke="black" stroke-width="1.35838" stroke-linecap="round" stroke-linejoin="round"/>
<path d="M576.41 212.491L577.803 212.572C577.803 212.572 577.069 216.46 580.082 216.111C581.05 215.998 580.851 218.072 582.393 218.427C587.067 219.502 586.654 216.111 586.654 216.111L587.717 210.371L579.282 206.862L578.695 209.352L576.413 212.491H576.41Z" fill="white" stroke="black" stroke-width="1.35838" stroke-linejoin="round"/>
<path d="M579.634 211.581C579.883 211.581 580.085 211.38 580.085 211.131C580.085 210.882 579.883 210.68 579.634 210.68C579.385 210.68 579.184 210.882 579.184 211.131C579.184 211.38 579.385 211.581 579.634 211.581Z" fill="black"/>
<path d="M577.84 245.593L573.62 245.354C572.334 245.278 570.153 245.313 571.208 244.577C571.225 244.565 573.605 242.861 573.62 242.852C574.117 242.523 574.186 241.587 574.007 240.824H578.511L579.579 242.945C580.215 244.201 579.247 245.674 577.84 245.593Z" fill="#A9A9A9" stroke="black" stroke-width="1.35838" stroke-linecap="round" stroke-linejoin="round"/>
<path d="M589.976 230.357C588.361 235.443 574.434 232.734 574.434 232.734L578.51 240.824H574.007C573.935 240.512 573.822 240.232 573.677 240.033C571.993 237.682 569.408 233.554 570.225 231.344C571.413 228.138 574.564 226.778 580.824 228.181L589.976 230.359V230.357Z" fill="white" stroke="black" stroke-width="1.35838" stroke-linecap="round" stroke-linejoin="round"/>
<path d="M589.976 230.357L582.91 228.676L582.425 221.867C581.882 222.353 581.333 223.242 580.68 224.08L578.753 220.816C579.484 220.056 580.18 219.21 580.934 218.43C581.63 217.711 582.28 217.176 582.887 216.784C585.215 215.279 588.318 216.752 588.659 219.502C588.985 222.119 589.514 226.428 589.976 230.36V230.357Z" fill="black" stroke="black" stroke-width="1.35838" stroke-linecap="round" stroke-linejoin="round"/>
<path d="M580.677 224.077C580.131 224.776 579.51 225.44 578.75 225.804C574.169 228.002 570.352 224.903 570.352 224.903C566.311 223.332 566.588 221.197 567.114 220.556C567.637 219.915 569.671 221.55 569.671 221.55C569.671 221.55 569.601 220.516 569.974 219.565C570.344 218.612 571.788 221.22 571.788 221.22C571.788 221.22 575.105 223.505 577.031 222.278C577.65 221.882 578.21 221.373 578.753 220.813L580.68 224.077H580.677Z" fill="white" stroke="black" stroke-width="1.35838" stroke-linecap="round" stroke-linejoin="round"/>
<path d="M579.005 208.034C579.005 208.034 577.745 203.508 581.717 205.215C585.686 206.919 587.085 207.633 587.72 207.633C588.356 207.633 589.595 210.446 589.595 211.134C589.595 211.821 588.673 214.487 587.148 213.453C585.377 212.252 587.72 209.141 583.826 210.516C582.74 210.9 579.005 208.034 579.005 208.034Z" fill="black" stroke="black" stroke-width="1.35838" stroke-linecap="round" stroke-linejoin="round"/>
<path d="M600.633 246.006V162.486H592.457V246.006H600.633Z" fill="#00A6BF" stroke="black" stroke-width="1.35838" stroke-linecap="round" stroke-linejoin="round"/>
<path d="M600.63 173.399V162.486H411.113V173.399H600.63Z" fill="#A9A9A9" stroke="black" stroke-width="1.35838" stroke-linecap="round" stroke-linejoin="round"/>
<path d="M749.927 162.567V230.845H731.904V180.588C731.904 170.643 739.981 162.567 749.927 162.567Z" fill="white" stroke="black" stroke-width="1.35838" stroke-linecap="round" stroke-linejoin="round"/>
<path d="M731.904 246.515V230.845" stroke="black" stroke-width="1.35838" stroke-linecap="round" stroke-linejoin="round"/>
<path d="M749.927 246.515H725.248" stroke="black" stroke-width="1.35838" stroke-linecap="round" stroke-linejoin="round"/>
<path d="M745.322 206.98C745.322 207.763 745.149 208.465 744.799 209.092C744.449 209.716 743.97 210.215 743.363 210.585C742.754 210.955 742.069 211.14 741.306 211.14C740.544 211.14 739.845 210.955 739.235 210.585C738.626 210.215 738.146 209.716 737.791 209.086C737.435 208.456 737.259 207.746 737.259 206.951C737.259 206.356 737.366 205.813 737.577 205.316C737.788 204.822 738.1 204.381 738.513 203.996L740.038 205.498C739.827 205.675 739.674 205.885 739.579 206.131C739.484 206.376 739.437 206.651 739.437 206.951C739.437 207.307 739.515 207.616 739.669 207.881C739.822 208.147 740.038 208.358 740.318 208.514C740.599 208.67 740.925 208.748 741.295 208.748C741.665 208.748 741.977 208.67 742.263 208.514C742.549 208.358 742.768 208.144 742.921 207.873C743.074 207.601 743.152 207.295 743.152 206.951C743.152 206.628 743.1 206.345 742.994 206.099C742.887 205.854 742.725 205.643 742.502 205.467L744.042 203.965C744.467 204.36 744.785 204.805 745.004 205.302C745.221 205.796 745.331 206.356 745.331 206.983" fill="#10A96C"/>
<path d="M737.433 198.413H738.088C737.892 198.615 737.727 198.849 737.591 199.115C737.381 199.531 737.274 199.996 737.274 200.507C737.274 201.206 737.45 201.83 737.805 202.382C738.161 202.933 738.64 203.367 739.241 203.679C739.845 203.991 740.532 204.147 741.304 204.147C742.075 204.147 742.748 203.991 743.352 203.679C743.956 203.367 744.432 202.936 744.782 202.39C745.131 201.845 745.305 201.221 745.305 200.522C745.305 200.002 745.203 199.531 745.004 199.115C744.874 198.846 744.709 198.612 744.51 198.413H745.146V196.114H737.43V198.413H737.433ZM742.632 198.78C742.976 199.098 743.15 199.522 743.15 200.054C743.15 200.386 743.072 200.683 742.913 200.943C742.754 201.203 742.537 201.408 742.263 201.561C741.988 201.712 741.67 201.787 741.309 201.787C740.948 201.787 740.613 201.712 740.333 201.561C740.053 201.411 739.833 201.203 739.674 200.943C739.515 200.683 739.437 200.38 739.437 200.036C739.437 199.693 739.515 199.389 739.674 199.129C739.833 198.869 740.05 198.664 740.324 198.52C740.599 198.375 740.922 198.3 741.292 198.3C741.844 198.3 742.289 198.459 742.632 198.777V198.78Z" fill="#00A6BF"/>
<path d="M737.291 190.452C737.262 190.6 737.248 190.761 737.248 190.932C737.248 191.333 737.346 191.712 737.54 192.067C737.733 192.422 737.996 192.728 738.328 192.994C738.415 193.063 738.504 193.127 738.594 193.185L737.43 193.231V195.4H745.152V193.101H741.275C741.041 193.101 740.833 193.066 740.648 192.994C740.463 192.922 740.304 192.824 740.165 192.7C740.03 192.575 739.926 192.422 739.854 192.24C739.781 192.058 739.744 191.862 739.744 191.651C739.744 191.46 739.767 191.276 739.81 191.099C739.853 190.923 739.911 190.782 739.978 190.675L737.398 190.042C737.36 190.166 737.326 190.302 737.297 190.452H737.291Z" fill="#8280B8"/>
<path d="M737.421 213.898H741.804C742.54 213.898 743.135 214.485 743.135 215.21C743.135 215.935 742.537 216.521 741.804 216.521H737.421V218.835H741.627C743.658 218.835 745.311 217.208 745.311 215.21C745.311 213.211 743.658 211.584 741.627 211.584H737.421V213.898Z" fill="#EF664E"/>
<path d="M292.481 162.497H294.639V235.593H275.344V179.632C275.344 170.175 283.023 162.497 292.481 162.497Z" fill="white" stroke="black" stroke-width="1.35838" stroke-linecap="round" stroke-linejoin="round"/>
<path d="M275.344 252.37V235.593" stroke="black" stroke-width="1.35838" stroke-linecap="round" stroke-linejoin="round"/>
<path d="M294.639 252.37H268.215" stroke="black" stroke-width="1.35838" stroke-linecap="round" stroke-linejoin="round"/>
<path d="M289.711 210.045C289.711 210.882 289.523 211.634 289.15 212.304C288.778 212.974 288.263 213.505 287.613 213.901C286.96 214.297 286.227 214.496 285.412 214.496C284.597 214.496 283.846 214.297 283.193 213.901C282.541 213.505 282.026 212.971 281.648 212.295C281.27 211.619 281.079 210.859 281.079 210.01C281.079 209.375 281.192 208.791 281.42 208.263C281.648 207.734 281.98 207.26 282.422 206.847L284.054 208.453C283.829 208.644 283.664 208.869 283.56 209.132C283.459 209.395 283.407 209.687 283.407 210.01C283.407 210.389 283.488 210.721 283.653 211.007C283.817 211.293 284.049 211.518 284.349 211.685C284.649 211.853 284.999 211.937 285.395 211.937C285.791 211.937 286.126 211.853 286.432 211.685C286.738 211.518 286.972 211.29 287.137 210.998C287.301 210.709 287.382 210.38 287.382 210.01C287.382 209.664 287.324 209.36 287.212 209.097C287.099 208.835 286.923 208.609 286.686 208.419L288.336 206.813C288.789 207.237 289.133 207.714 289.364 208.242C289.595 208.774 289.714 209.372 289.714 210.042" fill="#10A96C"/>
<path d="M281.264 200.874H281.966C281.758 201.091 281.579 201.339 281.434 201.628C281.209 202.075 281.093 202.569 281.093 203.118C281.093 203.866 281.284 204.536 281.662 205.126C282.041 205.718 282.555 206.18 283.199 206.515C283.846 206.85 284.583 207.018 285.409 207.018C286.235 207.018 286.955 206.85 287.602 206.515C288.249 206.18 288.757 205.721 289.133 205.134C289.505 204.548 289.693 203.881 289.693 203.136C289.693 202.578 289.586 202.075 289.37 201.631C289.231 201.342 289.055 201.091 288.841 200.877H289.523V198.416H281.264V200.877V200.874ZM286.83 201.267C287.2 201.608 287.382 202.061 287.382 202.63C287.382 202.988 287.298 203.306 287.128 203.583C286.958 203.863 286.726 204.083 286.432 204.245C286.137 204.406 285.796 204.487 285.412 204.487C285.028 204.487 284.667 204.406 284.366 204.245C284.066 204.083 283.832 203.863 283.661 203.583C283.491 203.306 283.407 202.98 283.407 202.613C283.407 202.246 283.491 201.922 283.661 201.642C283.832 201.362 284.063 201.145 284.358 200.989C284.652 200.833 284.999 200.755 285.395 200.755C285.984 200.755 286.464 200.926 286.83 201.267Z" fill="#00A6BF"/>
<path d="M281.11 192.353C281.079 192.512 281.064 192.682 281.064 192.867C281.064 193.297 281.168 193.702 281.376 194.08C281.584 194.459 281.864 194.791 282.22 195.071C282.312 195.143 282.408 195.212 282.506 195.273L281.258 195.322V197.645H289.523V195.184H285.371C285.123 195.184 284.898 195.146 284.701 195.068C284.505 194.99 284.331 194.886 284.187 194.753C284.043 194.62 283.93 194.456 283.852 194.262C283.774 194.069 283.733 193.858 283.733 193.632C283.733 193.427 283.757 193.231 283.803 193.04C283.849 192.85 283.91 192.699 283.982 192.587L281.22 191.911C281.18 192.044 281.142 192.191 281.11 192.35V192.353Z" fill="#8280B8"/>
<path d="M281.252 217.454H285.943C286.732 217.454 287.37 218.083 287.37 218.858C287.37 219.635 286.732 220.264 285.943 220.264H281.252V222.74H285.756C287.931 222.74 289.699 220.998 289.699 218.858C289.699 216.717 287.931 214.975 285.756 214.975H281.252V217.454Z" fill="#EF664E"/>
<path d="M558.786 211.969H557.39C557.39 211.969 558.661 216.83 553.932 217.636C549.203 218.442 547.617 214.848 547.617 214.848V209.207L556.241 206.186L556.685 208.705L558.786 211.971V211.969Z" fill="white" stroke="black" stroke-width="1.35838" stroke-linejoin="round"/>
<path d="M555.645 210.877C555.894 210.877 556.096 210.675 556.096 210.426C556.096 210.177 555.894 209.975 555.645 209.975C555.397 209.975 555.195 210.177 555.195 210.426C555.195 210.675 555.397 210.877 555.645 210.877Z" fill="black"/>
<path d="M559.701 244.935H555.472C554.065 244.935 553.184 243.41 553.889 242.191L559.609 232.289C559.609 232.289 542.08 234.822 540.76 229.652L553.488 227.382C559.817 226.339 563.156 228.635 564.159 231.902C564.849 234.155 562.033 238.13 560.216 240.38C559.687 241.032 559.843 241.971 560.516 242.477C560.531 242.485 560.545 242.5 560.559 242.511C561.57 243.309 560.99 244.938 559.701 244.938V244.935Z" fill="black" stroke="black" stroke-width="1.35838" stroke-linecap="round" stroke-linejoin="round"/>
<path d="M563.402 227.552L560.816 230.83C560.816 230.83 554.663 225.559 551.933 222.826L553.485 227.376L540.757 229.646C540.043 226.85 540.702 223.624 541.459 221.246C542.426 218.211 545.009 215.92 548.163 215.475C550.07 215.206 552.176 215.599 553.93 217.63C558.462 222.878 563.402 227.546 563.402 227.546V227.552Z" fill="white" stroke="black" stroke-width="1.35838" stroke-linecap="round" stroke-linejoin="round"/>
<path d="M556.882 205.441C556.882 203.517 554.395 203.317 553.522 203.517C553.372 203.551 553.672 203.485 553.522 203.517C552.505 203.722 551.171 206.529 549.027 206.529C546.771 206.529 544.749 207.228 544.749 209.796C544.749 211.703 545.566 213.863 545.985 215.553C545.731 215.891 545.581 216.313 545.581 216.769C545.581 217.226 545.725 217.627 545.971 217.962C545.272 218.112 544.749 218.733 544.749 219.476C544.749 220.331 545.442 221.024 546.297 221.024C547.152 221.024 547.846 220.331 547.846 219.476C547.846 219.233 547.788 219.005 547.69 218.803C548.779 218.765 549.651 217.87 549.651 216.772C549.651 216.405 549.553 216.061 549.382 215.764C549.671 215.492 549.92 215.253 550.082 215.091C550.916 214.256 554.568 212.991 553.742 209.493C553.742 209.493 556.882 207.783 556.882 205.449V205.441Z" fill="black"/>
<path d="M547.617 222.237C548.289 222.237 548.834 221.693 548.834 221.021C548.834 220.349 548.289 219.805 547.617 219.805C546.946 219.805 546.401 220.349 546.401 221.021C546.401 221.693 546.946 222.237 547.617 222.237Z" fill="black"/>
<path d="M563.061 227.575C563.061 227.575 566.031 227.304 565.45 228.144C564.869 228.985 563.977 229.51 563.977 229.51C563.977 229.51 566.473 230.273 566.236 231.067C565.999 231.862 564.39 233.291 560.819 230.83L563.061 227.575Z" fill="white" stroke="black" stroke-width="1.35838" stroke-linecap="round" stroke-linejoin="round"/>
<path d="M555.048 213.352C555.048 213.352 555.949 214.297 557.142 213.765L555.048 213.352Z" fill="white"/>
<path d="M555.048 213.352C555.048 213.352 555.949 214.297 557.142 213.765" stroke="black" stroke-width="1.35838" stroke-linecap="round" stroke-linejoin="round"/>
<path fill-rule="evenodd" clip-rule="evenodd" d="M154.288 195.724C154.288 183.43 148.886 162.5 142.222 162.5C135.557 162.5 130.155 183.43 130.155 195.724C130.155 207.021 134.72 206.345 140.63 206.937V227.402H143.811V206.937C149.721 206.345 154.286 207.021 154.286 195.724H154.288Z" fill="white" stroke="black" stroke-width="1.35838" stroke-linecap="round" stroke-linejoin="round"/>
<path fill-rule="evenodd" clip-rule="evenodd" d="M773.707 201.57C773.707 191.547 769.302 174.479 763.868 174.479C758.434 174.479 754.029 191.547 754.029 201.57C754.029 210.781 757.75 210.23 762.571 210.715V227.402H765.165V210.715C769.987 210.233 773.707 210.784 773.707 201.57Z" fill="white" stroke="black" stroke-width="1.35838" stroke-linecap="round" stroke-linejoin="round"/>
<path d="M242.44 70.9816H241.831C241.831 63.9857 236.157 58.3127 229.161 58.3127C222.164 58.3127 216.49 63.9857 216.49 70.9816H215.881C210.588 70.9816 206.299 75.271 206.299 80.5627C206.299 85.8544 210.588 90.1438 215.881 90.1438H242.44C247.733 90.1438 252.023 85.8544 252.023 80.5627C252.023 75.271 247.733 70.9816 242.44 70.9816Z" fill="white" stroke="black" stroke-width="1.35838" stroke-linecap="round" stroke-linejoin="round"/>
<path d="M683.891 88.7806C683.917 88.8008 683.946 88.8181 683.972 88.8383C684.267 80.4617 691.371 73.8182 699.919 74.2688C707.704 74.679 713.97 81.0799 714.227 88.8701C714.279 90.4674 714.085 92.0099 713.678 93.4628C715.039 93.0584 716.477 92.8447 717.968 92.8447C718.297 92.8447 718.621 92.8562 718.944 92.8764C727.692 93.4339 727.166 106.536 718.401 106.536H678.094C670.519 106.536 666.041 98.0497 670.32 91.799L670.736 91.1924C673.691 86.8771 679.627 85.7505 683.891 88.7806Z" fill="white" stroke="black" stroke-width="1.35838" stroke-linecap="round" stroke-linejoin="round"/>
<path d="M384.576 24.0063C384.544 24.0294 384.512 24.0525 384.481 24.0756C384.128 14.1017 375.67 6.19011 365.492 6.72737C356.222 7.21552 348.76 14.8382 348.454 24.1131C348.391 26.0138 348.622 27.8508 349.11 29.581C347.489 29.0987 345.776 28.8445 344 28.8445C343.61 28.8445 343.223 28.856 342.838 28.882C332.421 29.5464 333.048 45.1442 343.485 45.1442H391.48C400.499 45.1442 405.829 35.0374 400.736 27.5966L400.242 26.8745C396.723 21.7359 389.654 20.3957 384.579 24.0034L384.576 24.0063Z" fill="white" stroke="black" stroke-width="1.35838" stroke-linecap="round" stroke-linejoin="round"/>
<path d="M553.201 58.5035C566.121 58.5035 576.595 48.0311 576.595 35.1126C576.595 22.1942 566.121 11.7217 553.201 11.7217C540.282 11.7217 529.808 22.1942 529.808 35.1126C529.808 48.0311 540.282 58.5035 553.201 58.5035Z" fill="white" stroke="black" stroke-width="1.35838" stroke-linecap="round" stroke-linejoin="round"/>
<path d="M553.201 6.70134V0.577759" stroke="black" stroke-width="1.35838" stroke-linecap="round" stroke-linejoin="round"/>
<path d="M573.293 15.0231L577.623 10.6932" stroke="black" stroke-width="1.35838" stroke-linecap="round" stroke-linejoin="round"/>
<path d="M581.616 35.1125H587.74" stroke="black" stroke-width="1.35838" stroke-linecap="round" stroke-linejoin="round"/>
<path d="M573.293 55.2048L577.623 59.5347" stroke="black" stroke-width="1.35838" stroke-linecap="round" stroke-linejoin="round"/>
<path d="M553.201 63.5265V69.6501" stroke="black" stroke-width="1.35838" stroke-linecap="round" stroke-linejoin="round"/>
<path d="M533.107 55.2048L528.776 59.5347" stroke="black" stroke-width="1.35838" stroke-linecap="round" stroke-linejoin="round"/>
<path d="M524.784 35.1125H518.66" stroke="black" stroke-width="1.35838" stroke-linecap="round" stroke-linejoin="round"/>
<path d="M533.107 15.0231L528.776 10.6932" stroke="black" stroke-width="1.35838" stroke-linecap="round" stroke-linejoin="round"/>
<path d="M785.704 302.196C785.704 304.088 784.676 307.698 784.396 309.588L760.809 310.616H584.129C580.35 310.616 576.667 309.795 573.31 308.259C569.954 306.722 566.923 304.472 564.453 301.612V284.082C564.453 281 565.447 278.002 567.287 275.532L586.186 250.134L617.451 246.359L645.213 245.226C674.641 244.025 703.645 252.37 728.021 268.892C728.168 268.99 728.31 269.088 728.457 269.186L728.936 269.51C740.798 269.51 752.581 271.156 763.952 274.388C767.909 275.509 771.818 276.826 775.663 278.331L776.018 278.47C776.74 278.75 777.405 279.143 777.997 279.625C778.586 280.108 779.106 280.68 779.528 281.329C781.377 284.175 782.821 287.231 783.847 290.411C785.078 294.209 785.704 298.187 785.704 302.199V302.196Z" fill="white" stroke="black" stroke-width="1.35838" stroke-linecap="round" stroke-linejoin="round"/>
<path d="M785.704 302.196C785.704 304.088 784.676 307.698 784.396 309.588L760.809 310.616H584.129C580.35 310.616 576.667 309.796 573.31 308.259C569.954 306.722 566.923 304.472 564.453 301.612L566.23 301.09C575.867 298.259 584.926 293.822 593.31 288.291C596.583 286.133 600.5 284.877 604.715 284.877C611.258 284.877 617.09 287.907 620.889 292.638C623.085 295.37 625.864 297.577 629.082 298.97L629.634 299.209C636.653 302.245 644.219 303.811 651.866 303.811H692.864C704.457 303.811 715.763 300.209 725.221 293.51L727.876 291.63C731.314 288.398 735.942 286.413 741.032 286.413C746.711 286.413 751.813 288.877 755.329 292.794C758.784 296.644 762.9 299.848 767.548 302.118C769.816 303.224 772.347 303.666 774.854 303.392L785.702 302.205L785.704 302.196Z" fill="#A9A9A9" stroke="black" stroke-width="1.35838" stroke-linecap="round" stroke-linejoin="round"/>
<path d="M741.032 321.393C749.751 321.393 756.819 314.325 756.819 305.607C756.819 296.889 749.751 289.822 741.032 289.822C732.313 289.822 725.244 296.889 725.244 305.607C725.244 314.325 732.313 321.393 741.032 321.393Z" fill="white" stroke="black" stroke-width="1.35838" stroke-linecap="round" stroke-linejoin="round"/>
<path d="M604.715 321.393C613.434 321.393 620.502 314.325 620.502 305.607C620.502 296.889 613.434 289.822 604.715 289.822C595.995 289.822 588.927 296.889 588.927 305.607C588.927 314.325 595.995 321.393 604.715 321.393Z" fill="white" stroke="black" stroke-width="1.35838" stroke-linecap="round" stroke-linejoin="round"/>
<path d="M604.715 315.136C609.978 315.136 614.245 310.87 614.245 305.607C614.245 300.344 609.978 296.078 604.715 296.078C599.451 296.078 595.184 300.344 595.184 305.607C595.184 310.87 599.451 315.136 604.715 315.136Z" fill="white" stroke="black" stroke-width="1.35838" stroke-linecap="round" stroke-linejoin="round"/>
<path d="M606.043 262.312C606.043 266.91 609.68 270.685 614.277 270.853L712.126 274.455C712.126 270.616 709.989 267.095 706.58 265.327L702.174 263.042C689.654 256.546 676.013 252.485 661.98 251.075C654.394 250.313 646.75 250.33 639.167 251.13L613.696 253.811C609.345 254.27 606.043 257.939 606.043 262.312Z" fill="white" stroke="black" stroke-width="1.35838" stroke-linecap="round" stroke-linejoin="round"/>
<path d="M615.553 253.615L616.524 270.934" stroke="black" stroke-width="1.35838" stroke-linecap="round" stroke-linejoin="round"/>
<path d="M656.82 250.68C659.047 257.083 659.879 263.892 659.258 270.642L659.088 272.502" stroke="black" stroke-width="1.35838" stroke-linecap="round" stroke-linejoin="round"/>
<path d="M783.844 290.408C779.904 292.008 774.305 290.769 769.784 286.922C765.541 283.311 763.414 278.4 763.952 274.385C767.909 275.506 771.818 276.823 775.663 278.328L776.018 278.467C776.741 278.747 777.405 279.14 777.997 279.622C778.586 280.105 779.106 280.677 779.528 281.327C781.377 284.172 782.821 287.228 783.847 290.408H783.844Z" fill="white" stroke="black" stroke-width="1.35838" stroke-linecap="round" stroke-linejoin="round"/>
<path d="M741.032 315.136C746.295 315.136 750.562 310.87 750.562 305.607C750.562 300.344 746.295 296.078 741.032 296.078C735.768 296.078 731.501 300.344 731.501 305.607C731.501 310.87 735.768 315.136 741.032 315.136Z" fill="white" stroke="black" stroke-width="1.35838" stroke-linecap="round" stroke-linejoin="round"/>
<path d="M572.013 294.16V352.69H508.529V290.177H550.001C550.486 290.177 550.965 290.186 551.454 290.203C551.618 290.203 551.78 290.203 551.939 290.212C558.907 290.42 565.675 291.786 572.013 294.16Z" fill="white" stroke="black" stroke-width="1.35838" stroke-linecap="round" stroke-linejoin="round"/>
<path d="M397.2 352.689C397.197 369.443 383.622 383.016 366.873 383.016H352.732C353.062 382.175 353.417 381.337 353.795 380.517C356.173 375.329 359.458 370.65 363.435 366.67C371.411 358.7 382.21 353.53 394.196 352.782C394.874 352.741 395.553 352.713 396.244 352.704C396.561 352.687 396.879 352.687 397.2 352.687V352.689Z" fill="white" stroke="black" stroke-width="1.35838" stroke-linecap="round" stroke-linejoin="round"/>
<path d="M641.394 402.302H349.457V400.43C349.457 397.163 349.78 393.975 350.416 390.893C350.962 388.172 351.742 385.537 352.735 383.013H366.876C383.625 383.013 397.2 369.44 397.203 352.689L414.648 323.085C415.024 322.447 415.411 321.817 415.804 321.193C417.777 318.085 419.981 315.174 422.396 312.476C422.879 311.933 423.367 311.404 423.867 310.882C424.115 310.622 424.366 310.362 424.62 310.105C424.875 309.847 425.132 309.59 425.386 309.339C437.727 297.213 454.482 290.171 472.24 290.171H508.535V352.684H572.019V294.154C587.437 299.9 600.292 311.595 607.335 327.132L618.913 352.684L641.4 402.296L641.394 402.302Z" fill="#A9A9A9" stroke="black" stroke-width="1.35838" stroke-linecap="round" stroke-linejoin="round"/>
<path d="M629.056 428.991L350.029 428.991C344.653 428.991 340.29 424.627 340.29 419.254V412.302C340.29 406.785 344.768 402.308 350.286 402.308L641.391 402.308V416.661C641.391 423.469 635.865 428.994 629.056 428.994V428.991Z" fill="white" stroke="black" stroke-width="1.35838" stroke-linecap="round" stroke-linejoin="round"/>
<path d="M408.787 453.422C423.947 453.422 436.236 441.134 436.236 425.976C436.236 410.818 423.947 398.53 408.787 398.53C393.627 398.53 381.337 410.818 381.337 425.976C381.337 441.134 393.627 453.422 408.787 453.422Z" fill="white" stroke="black" stroke-width="1.35838" stroke-miterlimit="10"/>
<path d="M408.787 442.755C418.055 442.755 425.568 435.243 425.568 425.976C425.568 416.709 418.055 409.197 408.787 409.197C399.519 409.197 392.006 416.709 392.006 425.976C392.006 435.243 399.519 442.755 408.787 442.755Z" fill="white" stroke="black" stroke-width="1.35838" stroke-miterlimit="10"/>
<path d="M585.175 453.422C600.335 453.422 612.624 441.134 612.624 425.976C612.624 410.818 600.335 398.53 585.175 398.53C570.015 398.53 557.725 410.818 557.725 425.976C557.725 441.134 570.015 453.422 585.175 453.422Z" fill="white" stroke="black" stroke-width="1.35838" stroke-miterlimit="10"/>
<path d="M585.175 442.755C594.443 442.755 601.956 435.243 601.956 425.976C601.956 416.709 594.443 409.197 585.175 409.197C575.907 409.197 568.394 416.709 568.394 425.976C568.394 435.243 575.907 442.755 585.175 442.755Z" fill="white" stroke="black" stroke-width="1.35838" stroke-miterlimit="10"/>
<path d="M618.907 352.692H572.013V294.163C587.431 299.908 600.286 311.604 607.329 327.141L618.907 352.692Z" fill="white" stroke="black" stroke-width="1.35838" stroke-linecap="round" stroke-linejoin="round"/>
<path d="M487.802 290.18V352.692H397.197L414.643 323.088C415.018 322.45 415.405 321.82 415.798 321.196C417.771 318.091 419.978 315.18 422.39 312.479C422.873 311.939 423.364 311.407 423.861 310.885C424.109 310.625 424.361 310.365 424.615 310.108C424.869 309.85 425.126 309.593 425.38 309.342C437.721 297.219 454.476 290.177 472.234 290.177H487.802V290.18Z" fill="white" stroke="black" stroke-width="1.35838" stroke-miterlimit="10"/>
<path d="M420.836 329.68H416.26V352.692H420.836V329.68Z" fill="black"/>
<path d="M450.799 317.727H454.121C454.121 317.727 450.799 329.038 460.705 326.982C462.19 326.673 460.245 330.861 462.357 331.219C473.618 333.137 477.391 332.577 477.391 332.577V311.147L456.86 303.952L455.8 309.949L450.796 317.724L450.799 317.727Z" fill="white" stroke="black" stroke-width="1.35838" stroke-linejoin="round"/>
<path d="M458.275 315.13C458.869 315.13 459.35 314.649 459.35 314.056C459.35 313.463 458.869 312.981 458.275 312.981C457.682 312.981 457.201 313.463 457.201 314.056C457.201 314.649 457.682 315.13 458.275 315.13Z" fill="black"/>
<path d="M458.587 320.413C458.587 320.413 456.64 322.456 454.069 321.306L458.587 320.413Z" fill="white"/>
<path d="M458.587 320.413C458.587 320.413 456.64 322.456 454.069 321.306" stroke="black" stroke-width="1.35838" stroke-linecap="round" stroke-linejoin="round"/>
<path d="M487.802 335.907C487.802 335.907 470.925 325.128 454.809 334.948C438.689 344.769 428.367 341.468 428.367 341.468V352.479C428.367 352.479 450.481 354.391 458.085 346.788V352.692H487.802V335.907Z" fill="white" stroke="black" stroke-width="1.35838" stroke-linecap="round" stroke-linejoin="round"/>
<path d="M428.364 341.468C428.364 341.468 421.983 336.153 421.983 338.998C421.983 341.843 423.205 344.46 423.205 344.46C423.205 344.46 416.278 342.265 415.567 344.46C414.853 346.655 416.283 352.476 428.364 352.476V341.465V341.468Z" fill="white" stroke="black" stroke-width="1.35838" stroke-linecap="round" stroke-linejoin="round"/>
<path d="M454.115 299.611C451.654 301.283 451.807 304.949 454.39 306.422C457.559 308.227 462.111 311.196 467.358 311.924C469.091 312.164 473.543 308.961 473.543 314.056C473.543 316.82 477.39 319.301 477.39 320.538V308.949C477.39 304.686 473.673 301.376 469.435 301.869L466.858 302.17C464.896 302.398 462.92 301.858 461.346 300.665L459.494 299.258C458.122 298.216 456.239 298.166 454.811 299.134L454.109 299.611H454.115Z" fill="black" stroke="black" stroke-width="1.35838" stroke-linecap="round" stroke-linejoin="round"/>
<path d="M332.528 304.642C332.528 304.642 316.761 318.458 307.693 318.458C298.625 318.458 288.222 314.14 288.222 314.14L288.228 299.429C288.228 299.429 304.021 306.15 308.34 306.15C312.659 306.15 327.346 293.452 327.346 293.452C327.346 293.452 329.067 287.638 330.367 287.638C331.144 287.638 332.031 289.42 332.615 290.856C336.116 288.805 340.088 287.442 341.553 290.541C344.398 296.555 332.528 304.642 332.528 304.642Z" fill="white" stroke="black" stroke-width="1.35838" stroke-linecap="round" stroke-linejoin="round"/>
<path d="M262.862 421.591H290.236C290.236 421.591 289.609 412.082 282.248 410.124C281.2 409.841 280.512 408.59 280.099 406.641H264.479L262.862 421.594V421.591Z" fill="#A9A9A9" stroke="black" stroke-width="1.35838" stroke-linecap="round" stroke-linejoin="round"/>
<path d="M270.866 347.528L264.479 406.638H280.099C277.597 394.876 285.152 357.857 285.152 357.857" fill="white"/>
<path d="M270.866 347.528L264.479 406.638H280.099C277.597 394.876 285.152 357.857 285.152 357.857" stroke="black" stroke-width="1.35838" stroke-linecap="round" stroke-linejoin="round"/>
<path d="M288.54 265.842C293.466 265.842 290.109 272.179 292.666 274.738C295.222 277.294 298.954 280.388 295.355 281.335C291.756 282.283 296.496 291.168 292.518 295.145C291.524 296.139 285.215 292.179 285.215 294.042C285.215 295.047 286.281 298.993 285.712 299.585C283.248 302.15 275.928 300.324 275.09 292.04C274.119 282.45 267.507 265.842 288.537 265.842H288.54Z" fill="white" stroke="black" stroke-width="1.35838" stroke-linecap="round" stroke-linejoin="round"/>
<path d="M294.067 286.965C294.067 286.965 291.435 289.039 287.327 285.902L294.067 286.965Z" fill="white"/>
<path d="M294.067 286.965C294.067 286.965 291.435 289.039 287.327 285.902" stroke="black" stroke-width="1.35838" stroke-linecap="round" stroke-linejoin="round"/>
<path d="M288.225 278.037C288.9 278.037 289.447 277.49 289.447 276.815C289.447 276.14 288.9 275.593 288.225 275.593C287.551 275.593 287.003 276.14 287.003 276.815C287.003 277.49 287.551 278.037 288.225 278.037Z" fill="black"/>
<path d="M287.549 421.591H319.991C319.387 417.576 316.264 414.434 312.263 413.738C309.114 413.189 305.864 411.82 304.443 406.638H287.411C287.679 415.179 287.546 421.591 287.546 421.591H287.549Z" fill="#A9A9A9" stroke="black" stroke-width="1.35838" stroke-linecap="round" stroke-linejoin="round"/>
<path d="M279.582 361.424C280.735 363.903 282.168 367.811 283.808 373.972C286.195 382.952 287.09 396.343 287.414 406.638H304.446C304.117 405.456 303.886 404.073 303.773 402.461C302.733 387.49 292.296 347.531 292.296 347.531" fill="white"/>
<path d="M279.582 361.424C280.735 363.903 282.168 367.811 283.808 373.972C286.195 382.952 287.09 396.343 287.414 406.638H304.446C304.117 405.456 303.886 404.073 303.773 402.461C302.733 387.49 292.296 347.531 292.296 347.531" stroke="black" stroke-width="1.35838" stroke-linecap="round" stroke-linejoin="round"/>
<path d="M285.42 271.465C285.42 271.465 295.421 269.357 295.421 267.638C295.421 265.92 288.39 258.967 286.125 261.232C283.86 263.496 280.434 261.621 277.421 262.638C274.408 263.655 267.845 269.045 267.845 271.777C267.845 274.51 271.204 279.533 271.594 282.216C271.984 284.9 277.063 284.042 277.063 284.042L278.548 281.526C278.548 281.526 273.079 278.005 276.283 275.593C279.487 273.184 281.636 276.231 281.636 276.231L285.426 271.465H285.42Z" fill="black" stroke="black" stroke-width="1.35838" stroke-linecap="round" stroke-linejoin="round"/>
<path d="M292.784 347.531H277.881L276.901 357.9L274.839 364.841C274.004 367.655 271.987 370.003 269.278 371.13C268.035 371.644 266.851 371.817 266.103 371.34C265.271 370.809 264.757 370.044 264.653 369.362C264.153 366.098 264.742 360.529 266.406 355.367C266.406 355.367 267.842 303.354 277.271 301.237C279.698 300.691 284.164 298.458 286.524 299.729C288.702 300.905 291.022 307.158 292.284 318.36C293.547 329.561 292.784 347.534 292.784 347.534V347.531Z" fill="white" stroke="black" stroke-width="1.35838" stroke-linecap="round" stroke-linejoin="round"/>
<path d="M281.428 311.979L277.88 347.531" stroke="black" stroke-width="1.35838" stroke-linecap="round" stroke-linejoin="round"/>
<path d="M277.271 298.545C272.724 300.469 268.307 295.934 266.958 315.922C265.609 335.91 266.808 346.239 266.808 346.239C266.808 346.239 275.873 347.531 285.152 347.531H295.421C295.421 347.531 295.71 303.184 292.015 299.489C288.318 295.792 277.274 298.545 277.274 298.545H277.271Z" fill="black" stroke="black" stroke-width="1.35838" stroke-linecap="round" stroke-linejoin="round"/>
<path d="M277.652 349.928C277.652 349.928 286.562 302.262 274.816 302.262C265.233 302.262 266.663 349.275 266.663 349.275" fill="white"/>
<path d="M277.652 349.928C277.652 349.928 286.562 302.262 274.816 302.262C265.233 302.262 266.663 349.275 266.663 349.275" stroke="black" stroke-width="1.35838" stroke-linecap="round" stroke-linejoin="round"/>
<path d="M287.206 311.127C286.911 311.127 286.648 311.061 286.411 310.931C286.177 310.801 285.989 310.619 285.851 310.391C285.712 310.162 285.643 309.905 285.643 309.619C285.643 309.333 285.712 309.07 285.851 308.842C285.989 308.614 286.177 308.432 286.414 308.299C286.651 308.166 286.92 308.1 287.217 308.1C287.44 308.1 287.645 308.14 287.833 308.218C288.017 308.299 288.185 308.415 288.329 308.571L287.766 309.143C287.7 309.062 287.619 309.004 287.529 308.969C287.437 308.935 287.336 308.915 287.22 308.915C287.087 308.915 286.972 308.943 286.871 309.001C286.769 309.059 286.691 309.14 286.634 309.247C286.576 309.351 286.547 309.475 286.547 309.614C286.547 309.752 286.576 309.871 286.634 309.977C286.691 310.084 286.772 310.168 286.873 310.226C286.975 310.284 287.09 310.313 287.22 310.313C287.341 310.313 287.448 310.292 287.541 310.252C287.633 310.211 287.711 310.151 287.778 310.067L288.341 310.645C288.191 310.804 288.026 310.925 287.838 311.006C287.653 311.087 287.443 311.127 287.206 311.127Z" fill="#10A96C"/>
<path d="M290.424 308.161V308.406C290.349 308.334 290.259 308.27 290.161 308.218C290.005 308.138 289.829 308.1 289.638 308.1C289.375 308.1 289.141 308.166 288.933 308.299C288.725 308.432 288.563 308.611 288.445 308.839C288.327 309.065 288.269 309.325 288.269 309.614C288.269 309.902 288.327 310.157 288.445 310.382C288.563 310.607 288.725 310.786 288.93 310.919C289.135 311.049 289.369 311.116 289.632 311.116C289.829 311.116 290.005 311.078 290.161 311.003C290.262 310.954 290.352 310.893 290.424 310.818V311.058H291.288V308.158H290.424V308.161ZM290.285 310.113C290.167 310.243 290.005 310.307 289.806 310.307C289.681 310.307 289.569 310.278 289.471 310.217C289.372 310.157 289.294 310.076 289.239 309.972C289.182 309.868 289.156 309.749 289.156 309.614C289.156 309.478 289.185 309.351 289.239 309.247C289.297 309.143 289.372 309.059 289.471 308.998C289.569 308.938 289.681 308.909 289.811 308.909C289.941 308.909 290.054 308.938 290.152 308.998C290.251 309.059 290.326 309.14 290.381 309.244C290.435 309.348 290.461 309.469 290.461 309.608C290.461 309.816 290.401 309.983 290.282 310.11L290.285 310.113Z" fill="#00A6BF"/>
<path d="M293.414 308.109C293.359 308.097 293.298 308.091 293.232 308.091C293.082 308.091 292.94 308.129 292.804 308.201C292.671 308.273 292.556 308.371 292.458 308.496C292.432 308.527 292.409 308.562 292.385 308.597L292.368 308.158H291.553V311.058H292.417V309.602C292.417 309.515 292.432 309.434 292.458 309.365C292.484 309.296 292.521 309.235 292.567 309.183C292.614 309.131 292.671 309.094 292.741 309.065C292.81 309.039 292.882 309.024 292.963 309.024C293.035 309.024 293.105 309.033 293.171 309.05C293.238 309.068 293.29 309.088 293.33 309.114L293.567 308.143C293.521 308.129 293.469 308.117 293.414 308.106V308.109Z" fill="#8280B8"/>
<path d="M284.606 308.158V309.804C284.606 310.082 284.386 310.304 284.112 310.304C283.84 310.304 283.618 310.079 283.618 309.804V308.158H282.748V309.738C282.748 310.5 283.361 311.121 284.112 311.121C284.863 311.121 285.475 310.5 285.475 309.738V308.158H284.606Z" fill="#EF664E"/>
<path d="M266.403 355.364L277.031 356.502" stroke="black" stroke-width="1.35838" stroke-linecap="round" stroke-linejoin="round"/>
<path d="M324.76 295.619L332.528 304.643" stroke="black" stroke-width="1.35838" stroke-linecap="round" stroke-linejoin="round"/>
</g>
<defs>
<clipPath id="clip0_546_3473">
<rect width="790" height="454" fill="white"/>
</clipPath>
</defs>
</svg>
