<svg width="65" height="56" viewBox="0 0 65 56" fill="none" xmlns="http://www.w3.org/2000/svg">
<path fill-rule="evenodd" clip-rule="evenodd" d="M0 15.4984C0 13.6839 1.31291 11.7882 3.02244 11.1375L32.0679 0.0793957C32.3461 -0.0264652 32.6539 -0.0264652 32.9321 0.0793957L61.9776 11.1375C63.6851 11.7875 65 13.6859 65 15.4984V52.4168C65 54.3941 63.3761 56 61.3809 56H3.61936C1.621 56 0.000272654 54.3941 0.000272654 52.4168L0 15.4984ZM51.7587 53.6178H61.3804C62.0466 53.6178 62.5919 53.0783 62.5919 52.4174V15.499C62.5919 14.6717 61.8903 13.658 61.1128 13.3623L32.4998 2.46822L3.8867 13.3623C3.10771 13.6588 2.40761 14.6697 2.40761 15.499V52.4174C2.40761 53.0791 2.95101 53.6178 3.61909 53.6178H13.2408V26.2135C13.2408 25.5553 13.7795 25.0217 14.4444 25.0217H50.5555C51.2204 25.0217 51.7591 25.5553 51.7591 26.2135L51.7587 53.6178ZM15.6476 46.4685V53.6178H49.3513V46.4685H15.6476ZM15.6476 36.9368V44.0857H49.3513V36.9368H15.6476ZM15.6476 27.4047V34.5536H49.3513V27.4047H15.6476Z" fill="black"/>
</svg>
