<svg width="284" height="200" viewBox="0 0 284 200" fill="none" xmlns="http://www.w3.org/2000/svg">
<rect x="0.333008" width="283" height="200" fill="#00C3D7"/>
<g filter="url(#filter0_d_238_16174)">
<ellipse cx="142.395" cy="109.36" rx="96.9937" ry="43.2315" fill="white"/>
</g>
<path d="M224.999 66.8281H63.333V122.174H224.999V66.8281Z" fill="white"/>
<path d="M224.999 122.174V66.8281H63.333V122.174" stroke="#1E1E1C" stroke-width="0.57" stroke-linecap="round" stroke-linejoin="round"/>
<path d="M224.999 40.6973H63.333V66.8274H224.999V40.6973Z" fill="white"/>
<path d="M224.999 40.6973H63.333V66.8274H224.999V40.6973Z" stroke="#1E1E1C" stroke-width="0.57" stroke-linecap="round" stroke-linejoin="round"/>
<path d="M102.029 79.6621H77.3018V122.174H102.029V79.6621Z" fill="#1E1E1C"/>
<path d="M102.029 79.6621H77.3018V122.174H102.029V79.6621Z" stroke="#1E1E1C" stroke-width="0.57" stroke-linecap="round" stroke-linejoin="round"/>
<path d="M157.372 79.6621H107.917V122.174H157.372V79.6621Z" fill="#1E1E1C"/>
<path d="M157.372 79.6621H107.917V122.174H157.372V79.6621Z" stroke="#1E1E1C" stroke-width="0.57" stroke-linecap="round" stroke-linejoin="round"/>
<path d="M212.71 79.6621H163.255V122.174H212.71V79.6621Z" fill="#1E1E1C"/>
<path d="M212.71 79.6621H163.255V122.174H212.71V79.6621Z" stroke="#1E1E1C" stroke-width="0.57" stroke-linecap="round" stroke-linejoin="round"/>
<path d="M116.251 111.301H118.56C119.079 111.301 119.483 111.705 119.483 112.224V121.539C119.483 122.059 119.079 122.462 118.56 122.462H116.251C115.732 122.462 115.328 122.059 115.328 121.539V112.224C115.328 111.705 115.732 111.301 116.251 111.301Z" fill="white"/>
<path d="M116.249 111.3H118.557C119.077 111.3 119.481 111.704 119.481 112.223V121.539C119.481 122.058 119.077 122.462 118.557 122.462H116.278C115.758 122.462 115.354 122.058 115.354 121.539V112.194C115.354 111.675 115.758 111.271 116.278 111.271L116.249 111.3Z" stroke="#1E1E1C" stroke-width="0.57" stroke-linecap="round" stroke-linejoin="round"/>
<path d="M146.719 111.301H149.027C149.547 111.301 149.951 111.705 149.951 112.224V121.539C149.951 122.059 149.547 122.462 149.027 122.462H146.719C146.2 122.462 145.796 122.059 145.796 121.539V112.224C145.796 111.705 146.2 111.301 146.719 111.301Z" fill="white"/>
<path d="M146.721 111.3H149.029C149.548 111.3 149.952 111.704 149.952 112.223V121.539C149.952 122.058 149.548 122.462 149.029 122.462H146.75C146.23 122.462 145.826 122.058 145.826 121.539V112.194C145.826 111.675 146.23 111.271 146.75 111.271L146.721 111.3Z" stroke="#1E1E1C" stroke-width="0.57" stroke-linecap="round" stroke-linejoin="round"/>
<path d="M145.395 103.34H119.889L120.985 95.005C121.303 92.6977 123.265 90.9961 125.573 90.9961H139.682C142.019 90.9961 143.981 92.7266 144.27 95.005L145.366 103.34H145.395Z" fill="white"/>
<path d="M145.395 103.34H119.889L120.985 95.005C121.303 92.6977 123.265 90.9961 125.573 90.9961H139.682C142.019 90.9961 143.981 92.7266 144.27 95.005L145.366 103.34H145.395Z" stroke="#1E1E1C" stroke-width="0.57" stroke-miterlimit="10" stroke-linecap="round"/>
<path d="M150.04 111.992H115.271V116.895H150.04V111.992Z" fill="white"/>
<path d="M150.04 111.992H115.271V116.895H150.04V111.992Z" stroke="#1E1E1C" stroke-width="0.57" stroke-linecap="round" stroke-linejoin="round"/>
<path d="M150.013 111.992H115.244V107.983C115.244 105.416 117.322 103.34 119.861 103.34H145.367C147.935 103.34 150.013 105.416 150.013 107.983V111.992Z" fill="#A8A8A7"/>
<path d="M150.013 111.992H115.244V107.983C115.244 105.416 117.322 103.34 119.861 103.34H145.367C147.935 103.34 150.013 105.416 150.013 107.983V111.992Z" stroke="#1E1E1C" stroke-width="0.57" stroke-miterlimit="10" stroke-linecap="round"/>
<path d="M122.402 105.82C122.402 107.205 121.277 108.301 119.921 108.301C118.565 108.301 117.439 107.176 117.439 105.82C117.439 104.465 118.565 103.34 119.921 103.34C121.277 103.34 122.402 104.465 122.402 105.82Z" fill="white"/>
<path d="M119.889 108.301C121.259 108.301 122.37 107.19 122.37 105.82C122.37 104.45 121.259 103.34 119.889 103.34C118.518 103.34 117.407 104.45 117.407 105.82C117.407 107.19 118.518 108.301 119.889 108.301Z" stroke="#1E1E1C" stroke-width="0.57" stroke-miterlimit="10" stroke-linecap="round"/>
<path d="M147.88 105.82C147.88 107.205 146.754 108.301 145.398 108.301C144.042 108.301 142.917 107.176 142.917 105.82C142.917 104.465 144.042 103.34 145.398 103.34C146.754 103.34 147.88 104.465 147.88 105.82Z" fill="white"/>
<path d="M145.398 108.301C146.769 108.301 147.88 107.19 147.88 105.82C147.88 104.45 146.769 103.34 145.398 103.34C144.028 103.34 142.917 104.45 142.917 105.82C142.917 107.19 144.028 108.301 145.398 108.301Z" stroke="#1E1E1C" stroke-width="0.57" stroke-miterlimit="10" stroke-linecap="round"/>
<path d="M171.593 111.301H173.901C174.421 111.301 174.825 111.705 174.825 112.224V121.539C174.825 122.059 174.421 122.462 173.901 122.462H171.593C171.074 122.462 170.67 122.059 170.67 121.539V112.224C170.67 111.705 171.074 111.301 171.593 111.301Z" fill="white"/>
<path d="M171.595 111.3H173.903C174.422 111.3 174.826 111.704 174.826 112.223V121.539C174.826 122.058 174.422 122.462 173.903 122.462H171.624C171.104 122.462 170.7 122.058 170.7 121.539V112.194C170.7 111.675 171.104 111.271 171.624 111.271L171.595 111.3Z" stroke="#1E1E1C" stroke-width="0.57" stroke-linecap="round" stroke-linejoin="round"/>
<path d="M202.062 111.301H204.37C204.89 111.301 205.294 111.705 205.294 112.224V121.539C205.294 122.059 204.89 122.462 204.37 122.462H202.062C201.543 122.462 201.139 122.059 201.139 121.539V112.224C201.139 111.705 201.543 111.301 202.062 111.301Z" fill="white"/>
<path d="M202.065 111.3H204.374C204.893 111.3 205.297 111.704 205.297 112.223V121.539C205.297 122.058 204.893 122.462 204.374 122.462H202.094C201.575 122.462 201.171 122.058 201.171 121.539V112.194C201.171 111.675 201.575 111.271 202.094 111.271L202.065 111.3Z" stroke="#1E1E1C" stroke-width="0.57" stroke-linecap="round" stroke-linejoin="round"/>
<path d="M200.738 103.34H175.231L176.328 95.005C176.645 92.6977 178.607 90.9961 180.916 90.9961H195.025C197.362 90.9961 199.324 92.7266 199.613 95.005L200.709 103.34H200.738Z" fill="white"/>
<path d="M200.738 103.34H175.231L176.328 95.005C176.645 92.6977 178.607 90.9961 180.916 90.9961H195.025C197.362 90.9961 199.324 92.7266 199.613 95.005L200.709 103.34H200.738Z" stroke="#1E1E1C" stroke-width="0.57" stroke-miterlimit="10" stroke-linecap="round"/>
<path d="M205.383 111.992H170.614V116.895H205.383V111.992Z" fill="#A8A8A7"/>
<path d="M205.383 111.992H170.614V116.895H205.383V111.992Z" stroke="#1E1E1C" stroke-width="0.57" stroke-miterlimit="10" stroke-linecap="round"/>
<path d="M205.351 111.992H170.583V107.983C170.583 105.416 172.66 103.34 175.2 103.34H200.706C203.274 103.34 205.351 105.416 205.351 107.983V111.992Z" fill="white"/>
<path d="M205.351 111.992H170.583V107.983C170.583 105.416 172.66 103.34 175.2 103.34H200.706C203.274 103.34 205.351 105.416 205.351 107.983V111.992Z" stroke="#1E1E1C" stroke-width="0.57" stroke-miterlimit="10" stroke-linecap="round"/>
<path d="M177.741 105.82C177.741 107.205 176.616 108.301 175.26 108.301C173.904 108.301 172.778 107.176 172.778 105.82C172.778 104.465 173.904 103.34 175.26 103.34C176.616 103.34 177.741 104.465 177.741 105.82Z" fill="white"/>
<path d="M175.227 108.301C176.598 108.301 177.709 107.19 177.709 105.82C177.709 104.45 176.598 103.34 175.227 103.34C173.857 103.34 172.746 104.45 172.746 105.82C172.746 107.19 173.857 108.301 175.227 108.301Z" stroke="#1E1E1C" stroke-width="0.57" stroke-miterlimit="10" stroke-linecap="round"/>
<path d="M203.219 105.82C203.219 107.205 202.093 108.301 200.737 108.301C199.381 108.301 198.256 107.176 198.256 105.82C198.256 104.465 199.381 103.34 200.737 103.34C202.093 103.34 203.219 104.465 203.219 105.82Z" fill="white"/>
<path d="M200.737 108.301C202.108 108.301 203.219 107.19 203.219 105.82C203.219 104.45 202.108 103.34 200.737 103.34C199.367 103.34 198.256 104.45 198.256 105.82C198.256 107.19 199.367 108.301 200.737 108.301Z" stroke="#1E1E1C" stroke-width="0.57" stroke-miterlimit="10" stroke-linecap="round"/>
<defs>
<filter id="filter0_d_238_16174" x="45.4014" y="66.1289" width="193.987" height="90.4629" filterUnits="userSpaceOnUse" color-interpolation-filters="sRGB">
<feFlood flood-opacity="0" result="BackgroundImageFix"/>
<feColorMatrix in="SourceAlpha" type="matrix" values="0 0 0 0 0 0 0 0 0 0 0 0 0 0 0 0 0 0 127 0" result="hardAlpha"/>
<feOffset dy="4"/>
<feComposite in2="hardAlpha" operator="out"/>
<feColorMatrix type="matrix" values="0 0 0 0 0 0 0 0 0 0 0 0 0 0 0 0 0 0 0.25 0"/>
<feBlend mode="normal" in2="BackgroundImageFix" result="effect1_dropShadow_238_16174"/>
<feBlend mode="normal" in="SourceGraphic" in2="effect1_dropShadow_238_16174" result="shape"/>
</filter>
</defs>
</svg>
