<svg width="1178" height="194" viewBox="0 0 1178 194" fill="none" xmlns="http://www.w3.org/2000/svg">
<path d="M73.3085 194C67.8142 192.843 62.5971 191.312 57.6573 189.407C45.2637 184.557 34.756 177.732 26.1344 168.93C17.5127 160.129 10.9567 149.711 6.46624 137.677C2.15541 125.643 0 112.53 0 98.3407C0 83.9712 2.42484 70.8592 7.27452 59.0044C12.3038 46.97 19.4885 36.5522 28.8286 27.7509C38.1688 18.9497 49.2153 12.1242 61.9681 7.27452C74.9006 2.42484 89.27 0 105.076 0C116.033 0 126.181 1.34713 135.522 4.04139C145.041 6.73565 153.573 10.4178 161.117 15.0879C168.841 19.5783 175.487 24.6974 181.055 30.4452L146.568 67.0872C142.976 63.6745 139.114 60.7108 134.983 58.1961C130.852 55.5018 126.271 53.4362 121.242 51.9993C116.213 50.3827 110.555 49.5745 104.268 49.5745C97.8019 49.5745 91.8745 50.8318 86.486 53.3464C81.0974 55.6815 76.4274 59.0044 72.4758 63.3152C68.5242 67.626 65.3809 72.835 63.0458 78.942C60.8904 84.8693 59.8127 91.3356 59.8127 98.3407C59.8127 105.346 60.9802 111.902 63.3153 118.009C65.6503 123.936 68.8834 129.055 73.0146 133.366C77.1458 137.677 82.0853 141.09 87.8331 143.604C93.5808 145.939 99.8675 147.107 106.693 147.107C111.363 147.107 115.584 146.388 119.356 144.951C123.308 143.335 126.631 141.269 129.325 138.755C132.199 136.06 134.444 132.917 136.06 129.325C137.677 125.553 138.485 121.511 138.485 117.201V109.387L146.029 122.32H98.0713V81.3668H190.754C190.934 83.3426 191.113 86.5757 191.293 91.0661C191.652 95.5566 191.832 100.047 191.832 104.537C192.011 108.848 192.101 111.812 192.101 113.429C192.101 125.463 189.856 136.599 185.366 146.837C180.875 157.076 174.499 165.877 166.236 173.241C158.153 180.606 148.544 186.353 137.408 190.485C133.6 191.897 129.667 193.068 125.608 193.997C108.622 193.997 90.7417 194 73.3085 194Z" fill="#181A1C" fill-opacity="0.05"/>
<path d="M224.424 193.987V5.38852H312.796C325.908 5.38852 337.583 7.99298 347.821 13.2019C358.06 18.4108 366.053 25.5057 371.8 34.4866C377.548 43.4675 380.422 53.7955 380.422 65.4706C380.422 78.5827 377.548 90.0783 371.8 99.9572C366.053 109.836 358.06 117.56 347.821 123.128C337.583 128.516 325.908 131.211 312.796 131.211H278.848V193.987H224.424ZM323.304 193.987L275.346 108.848L334.889 102.113L388.235 193.987H323.304ZM278.848 90.7967H303.635C308.126 90.7967 311.808 89.9884 314.682 88.3719C317.735 86.5757 319.981 84.1509 321.418 81.0974C323.034 78.0439 323.842 74.3617 323.842 70.0509C323.842 66.0993 323.034 62.7764 321.418 60.0821C319.981 57.2082 317.646 55.0528 314.412 53.6159C311.359 51.9993 307.407 51.191 302.558 51.191H278.848V90.7967Z" fill="#181A1C" fill-opacity="0.05"/>
<path d="M477.586 193.999C472.33 192.843 467.268 191.312 462.399 189.407C450.006 184.557 439.229 177.732 430.068 168.93C420.907 160.129 413.813 149.711 408.783 137.677C403.934 125.643 401.509 112.53 401.509 98.3407C401.509 83.9712 403.934 70.8592 408.783 59.0044C413.813 46.97 420.907 36.5522 430.068 27.7509C439.229 18.9497 450.006 12.1242 462.399 7.27452C474.793 2.42484 488.354 0 503.083 0C517.991 0 531.552 2.42484 543.766 7.27452C556.16 12.1242 566.937 18.9497 576.097 27.7509C585.258 36.5522 592.263 46.97 597.113 59.0044C602.142 70.8592 604.656 83.8814 604.656 98.0712C604.656 112.441 602.142 125.643 597.113 137.677C592.263 149.711 585.258 160.129 576.097 168.93C566.937 177.732 556.16 184.557 543.766 189.407C538.968 191.312 533.977 192.843 528.791 193.999C512.266 193.999 493.492 193.999 477.586 193.999ZM503.083 142.796C509.19 142.796 514.758 141.718 519.787 139.563C524.996 137.407 529.486 134.354 533.258 130.402C537.21 126.271 540.174 121.511 542.15 116.123C544.305 110.734 545.383 104.807 545.383 98.3407C545.383 91.8744 544.305 85.947 542.15 80.5585C540.174 75.17 537.21 70.4999 533.258 66.5483C529.486 62.4171 524.996 59.2738 519.787 57.1184C514.758 54.963 509.19 53.8853 503.083 53.8853C496.976 53.8853 491.318 54.963 486.109 57.1184C481.079 59.2738 476.589 62.4171 472.637 66.5483C468.865 70.4999 465.902 75.17 463.746 80.5585C461.771 85.947 460.783 91.8744 460.783 98.3407C460.783 104.807 461.771 110.734 463.746 116.123C465.902 121.511 468.865 126.271 472.637 130.402C476.589 134.354 481.079 137.407 486.109 139.563C491.318 141.718 496.976 142.796 503.083 142.796Z" fill="#181A1C" fill-opacity="0.05"/>
<path d="M701.736 193.999C693.003 192.476 684.89 189.867 677.397 186.174C664.824 179.707 654.945 170.906 647.76 159.77C640.576 148.634 636.983 135.881 636.983 121.511V5.38852H695.718V119.087C695.718 124.295 696.796 128.965 698.952 133.097C701.107 137.048 704.071 140.192 707.843 142.527C711.794 144.862 716.195 146.029 721.045 146.029C726.253 146.029 730.834 144.862 734.785 142.527C738.737 140.192 741.88 137.048 744.215 133.097C746.55 128.965 747.718 124.295 747.718 119.087V5.38852H805.106V121.511C805.106 135.881 801.513 148.634 794.329 159.77C787.144 170.906 777.175 179.707 764.422 186.174C757.073 189.848 749.08 192.449 740.442 193.976C726.827 193.976 714.311 193.999 701.736 193.999Z" fill="#181A1C" fill-opacity="0.05"/>
<path d="M848.262 193.987V5.38852H933.132C946.064 5.38852 957.56 8.1726 967.618 13.7407C977.677 19.3089 985.58 26.9426 991.328 36.642C997.076 46.3413 999.95 57.4776 999.95 70.0509C999.95 83.163 997.076 94.8381 991.328 105.076C985.58 115.315 977.677 123.397 967.618 129.325C957.56 135.072 946.064 137.946 933.132 137.946H906.458V193.987H848.262ZM905.381 88.3719H922.355C925.767 88.3719 928.821 87.7432 931.515 86.4859C934.209 85.0489 936.275 83.0732 937.712 80.5585C939.329 78.0439 940.137 74.9006 940.137 71.1286C940.137 67.3566 939.329 64.3031 937.712 61.9681C936.275 59.6331 934.209 57.9267 931.515 56.849C928.821 55.5917 925.767 54.963 922.355 54.963H905.381V88.3719Z" fill="#181A1C" fill-opacity="0.05"/>
<path d="M1032.18 193.987V5.38852H1173.09V52.5382H1087.95V146.837H1177.94V193.987H1032.18ZM1059.93 120.703V76.5171H1163.12V120.703H1059.93Z" fill="#181A1C" fill-opacity="0.05"/>
</svg>
