<svg width="283" height="200" viewBox="0 0 283 200" fill="none" xmlns="http://www.w3.org/2000/svg">
<rect width="283" height="200" fill="#8782D7"/>
<g filter="url(#filter0_d_374_15791)">
<ellipse cx="141.062" cy="109.36" rx="96.9937" ry="43.2315" transform="rotate(6.14131 141.062 109.36)" fill="white"/>
</g>
<path d="M210.189 95.6194V114.447C210.189 115.836 211.315 116.961 212.703 116.961H225.641V93.1035H212.703C211.315 93.1035 210.189 94.2305 210.189 95.6175V95.6194Z" fill="white" stroke="black" stroke-width="0.5" stroke-linecap="round" stroke-linejoin="round"/>
<path d="M218.801 122.15C221.663 122.15 223.984 119.827 223.984 116.961C223.984 114.095 221.663 111.771 218.801 111.771C215.938 111.771 213.617 114.095 213.617 116.961C213.617 119.827 215.938 122.15 218.801 122.15Z" fill="white" stroke="black" stroke-width="0.5" stroke-linecap="round" stroke-linejoin="round"/>
<path d="M218.8 119.66C220.289 119.66 221.495 118.452 221.495 116.962C221.495 115.472 220.289 114.264 218.8 114.264C217.312 114.264 216.105 115.472 216.105 116.962C216.105 118.452 217.312 119.66 218.8 119.66Z" fill="white" stroke="black" stroke-width="0.5" stroke-linecap="round" stroke-linejoin="round"/>
<path d="M226 61.5762H71V126.999H226V61.5762Z" fill="white" stroke="url(#paint0_linear_374_15791)" stroke-width="0.5" stroke-linecap="round" stroke-linejoin="round"/>
<path d="M226 36H71V62H226V36Z" fill="white" stroke="black" stroke-width="0.5" stroke-linecap="round" stroke-linejoin="round"/>
<path d="M144.089 56.0623C142.633 56.0623 141.323 55.7371 140.158 55.0856C138.993 54.434 138.066 53.5408 137.377 52.406C136.689 51.2712 136.344 49.9934 136.344 48.5726C136.344 47.1518 136.689 45.8449 137.377 44.7088C138.066 43.574 138.998 42.6757 140.173 42.0153C141.347 41.3536 142.672 41.0234 144.147 41.0234C145.254 41.0234 146.268 41.2208 147.19 41.6155C148.112 42.0103 148.933 42.5922 149.651 43.3627L146.855 46.2042C146.526 45.8095 146.133 45.5236 145.676 45.3452C145.22 45.1681 144.711 45.0782 144.147 45.0782C143.488 45.0782 142.91 45.2212 142.415 45.5071C141.919 45.7931 141.526 46.1979 141.236 46.7204C140.945 47.2442 140.798 47.8502 140.798 48.541C140.798 49.2317 140.944 49.8137 141.236 50.3463C141.526 50.879 141.924 51.2889 142.43 51.5748C142.934 51.8607 143.508 52.0037 144.147 52.0037C144.749 52.0037 145.278 51.905 145.735 51.7076C146.191 51.5103 146.584 51.2041 146.914 50.7904L149.709 53.6623C148.971 54.4517 148.141 55.0489 147.219 55.4537C146.297 55.8586 145.254 56.061 144.089 56.061" fill="#10A96C"/>
<path d="M160.049 41.3488V42.5722C159.673 42.2078 159.237 41.8979 158.738 41.6448C157.961 41.2501 157.098 41.0527 156.146 41.0527C154.846 41.0527 153.681 41.3829 152.652 42.0446C151.623 42.7063 150.817 43.5995 150.235 44.7242C149.652 45.8489 149.361 47.1318 149.361 48.5728C149.361 50.0138 149.652 51.2663 150.235 52.391C150.817 53.5157 151.618 54.4039 152.637 55.0554C153.657 55.707 154.816 56.0321 156.117 56.0321C157.088 56.0321 157.961 55.8449 158.738 55.4704C159.24 55.2288 159.676 54.9213 160.049 54.5519V55.7373H164.329V41.35H160.049V41.3488ZM159.365 51.0449C158.772 51.6863 157.981 52.0077 156.992 52.0077C156.37 52.0077 155.816 51.8597 155.332 51.5636C154.847 51.2676 154.463 50.864 154.182 50.3503C153.901 49.8367 153.76 49.2459 153.76 48.5741C153.76 47.9023 153.901 47.276 154.182 46.7535C154.464 46.231 154.847 45.8211 155.332 45.525C155.818 45.229 156.38 45.081 157.021 45.081C157.661 45.081 158.224 45.229 158.709 45.525C159.194 45.8211 159.572 46.2259 159.845 46.7396C160.117 47.2532 160.253 47.8542 160.253 48.545C160.253 49.571 159.958 50.4047 159.365 51.0462V51.0449Z" fill="#00A6BF"/>
<path d="M174.873 41.0822C174.597 41.0278 174.298 41 173.977 41C173.229 41 172.524 41.1809 171.864 41.544C171.205 41.9071 170.63 42.3967 170.139 43.0116C170.012 43.1723 169.894 43.338 169.786 43.5088L169.698 41.3365H165.658V55.7339H169.938V48.5023C169.938 48.0671 170.005 47.6775 170.139 47.3333C170.273 46.9892 170.455 46.6906 170.688 46.4364C170.919 46.1833 171.205 45.9885 171.543 45.8519C171.882 45.7165 172.247 45.6482 172.64 45.6482C172.997 45.6482 173.339 45.6887 173.669 45.7709C173.999 45.8519 174.262 45.9569 174.458 46.0834L175.634 41.272C175.403 41.1999 175.149 41.1366 174.872 41.0822H174.873Z" fill="#8280B8"/>
<path d="M131.2 41.3281V49.4972C131.2 50.8699 130.106 51.9832 128.755 51.9832C127.404 51.9832 126.309 50.8699 126.309 49.4972V41.3281H122V49.1721C122 52.9587 125.03 56.0393 128.755 56.0393C132.479 56.0393 135.51 52.9587 135.51 49.1721V41.3281H131.2Z" fill="#EF664E"/>
<path d="M91.4316 126.942V72.0801H86.0682V126.942" stroke="black" stroke-width="0.5" stroke-linecap="round" stroke-linejoin="round"/>
<path d="M191.933 118.487H207.356C206.939 112.362 205.666 105.154 201.982 105.154C195.576 105.154 198.04 114.903 193.112 114.903C192.589 114.903 192.085 114.947 191.603 115.036C189.534 115.419 189.831 118.485 191.935 118.485L191.933 118.487Z" fill="white" stroke="black" stroke-width="0.5" stroke-linecap="round" stroke-linejoin="round"/>
<path d="M207.355 118.486V126.941" stroke="black" stroke-width="0.5" stroke-linecap="round" stroke-linejoin="round"/>
<path d="M200.523 118.486V126.941" stroke="black" stroke-width="0.5" stroke-linecap="round" stroke-linejoin="round"/>
<path d="M193.691 118.486V126.941" stroke="black" stroke-width="0.5" stroke-linecap="round" stroke-linejoin="round"/>
<path d="M191.535 118.486V126.941" stroke="black" stroke-width="0.5" stroke-linecap="round" stroke-linejoin="round"/>
<path d="M186.852 126.944V79.248H91.4316V126.944" stroke="black" stroke-width="0.5" stroke-linecap="round" stroke-linejoin="round"/>
<path d="M186.855 126.945V87.6621H108.662V126.945" stroke="black" stroke-width="0.5" stroke-linecap="round" stroke-linejoin="round"/>
<path d="M120.223 82.5566H101.838C98.7269 82.5566 96.2051 85.0813 96.2051 88.1956V116.201C96.2051 119.315 98.7269 121.84 101.838 121.84H120.223C123.334 121.84 125.856 119.315 125.856 116.201V88.1956C125.856 85.0813 123.334 82.5566 120.223 82.5566Z" stroke="black" stroke-width="0.5" stroke-linecap="round" stroke-linejoin="round"/>
<path d="M119.701 126.942H125.855C125.855 126.942 125.713 124.802 124.06 124.362C123.825 124.299 123.67 124.016 123.577 123.578H120.067L119.703 126.944L119.701 126.942Z" fill="black" stroke="black" stroke-width="0.5" stroke-linecap="round" stroke-linejoin="round"/>
<path d="M121.499 109.541L120.062 123.578H123.572C123.01 120.931 124.708 112.6 124.708 112.6" fill="white"/>
<path d="M121.499 109.541L120.062 123.578H123.572C123.01 120.931 124.708 112.6 124.708 112.6" stroke="black" stroke-width="0.5" stroke-linecap="round" stroke-linejoin="round"/>
<path d="M125.472 91.8906C126.579 91.8906 126.294 93.511 126.869 94.0859C127.443 94.6608 128.282 95.3571 127.473 95.5715C126.664 95.784 127.261 97.5903 126.366 98.4859C125.472 99.3814 122.703 99.8595 122.064 97.7876C121.425 95.7157 120.743 91.8925 125.472 91.8925V91.8906Z" fill="white" stroke="black" stroke-width="0.5" stroke-linecap="round" stroke-linejoin="round"/>
<path d="M126.868 96.9604C126.868 96.9604 126.528 97.2507 125.605 96.5449L126.868 96.9604Z" fill="white"/>
<path d="M126.868 96.9604C126.868 96.9604 126.528 97.2507 125.605 96.5449" stroke="black" stroke-width="0.5" stroke-linecap="round" stroke-linejoin="round"/>
<path d="M125.402 94.6362C125.554 94.6362 125.677 94.513 125.677 94.361C125.677 94.2091 125.554 94.0859 125.402 94.0859C125.25 94.0859 125.127 94.2091 125.127 94.361C125.127 94.513 125.25 94.6362 125.402 94.6362Z" fill="black"/>
<path d="M133.509 105.255C132.562 105.255 129.467 103.66 128.091 102.282C127.329 101.52 126.146 99.9068 124.986 99.2503C124.499 98.9752 123.36 99.3092 122.907 98.9107C122.125 98.2258 121.897 101.188 121.613 103.709C121.329 106.231 121.501 109.542 121.501 109.542H126.317C126.317 109.542 125.811 105.732 125.699 104.216C125.695 104.163 125.769 104.144 125.79 104.193C125.983 104.658 126.457 105.504 127.708 106.03C129.537 106.798 131.665 107.555 133.511 106.912V105.254L133.509 105.255Z" fill="#A9A9A9" stroke="black" stroke-width="0.5" stroke-linecap="round" stroke-linejoin="round"/>
<path d="M125.249 126.942H132.542C132.405 126.039 131.704 125.331 130.804 125.174C130.095 125.05 129.365 124.743 129.047 123.576H125.219C125.279 125.498 125.249 126.942 125.249 126.942Z" fill="black" stroke="black" stroke-width="0.5" stroke-linecap="round" stroke-linejoin="round"/>
<path d="M121.5 109.541H126.316C126.316 109.541 128.662 119.267 128.895 122.637C128.92 122.999 128.973 123.31 129.047 123.578H125.218C125.146 121.261 124.946 118.248 124.409 116.225C124.041 114.838 123.717 113.958 123.46 113.402" fill="white"/>
<path d="M121.5 109.541H126.316C126.316 109.541 128.662 119.267 128.895 122.637C128.92 122.999 128.973 123.31 129.047 123.578H125.218C125.146 121.261 124.946 118.248 124.409 116.225C124.041 114.838 123.717 113.958 123.46 113.402" stroke="black" stroke-width="0.5" stroke-linecap="round" stroke-linejoin="round"/>
<path d="M121.317 95.6636C121.399 95.8837 121.575 96.0582 121.799 96.1322C123.089 96.5724 121.838 95.157 122.325 94.5669C122.97 93.7871 123.715 94.417 123.804 94.0831C124.215 92.5538 124.188 92.3242 122.975 92.3242C121.762 92.3242 120.893 92.4608 120.893 93.6068C120.893 94.3904 121.152 95.2158 121.315 95.6598L121.317 95.6636Z" fill="black" stroke="black" stroke-width="0.5" stroke-linecap="round" stroke-linejoin="round"/>
<path d="M136.021 106.14C135.36 105.69 134.474 105.258 133.51 105.258V106.916L135.706 107.053C136.212 107.085 136.44 106.427 136.019 106.142L136.021 106.14Z" fill="white" stroke="black" stroke-width="0.5" stroke-miterlimit="10"/>
<path d="M130.628 107.246V126.943H128.233V109.646H103.085V126.943H100.688V107.246H130.628Z" stroke="black" stroke-width="0.5" stroke-linecap="round" stroke-linejoin="round"/>
<path d="M155.873 126.944H149.719C149.719 126.944 149.861 124.804 151.514 124.364C151.749 124.301 151.904 124.018 151.997 123.58H155.507L155.871 126.946L155.873 126.944Z" fill="black" stroke="black" stroke-width="0.5" stroke-linecap="round" stroke-linejoin="round"/>
<path d="M154.074 110.275L155.51 123.578H152C152.563 120.931 150.865 112.6 150.865 112.6" fill="white"/>
<path d="M154.074 110.275L155.51 123.578H152C152.563 120.931 150.865 112.6 150.865 112.6" stroke="black" stroke-width="0.5" stroke-linecap="round" stroke-linejoin="round"/>
<path d="M139.443 101.198C139.666 99.5051 143.243 101.198 143.243 101.198V103.767C143.243 103.767 139.219 102.888 139.443 101.198Z" fill="white" stroke="black" stroke-width="0.5" stroke-linecap="round" stroke-linejoin="round"/>
<path d="M150.102 91.8906C148.995 91.8906 149.279 93.511 148.705 94.0859C148.131 94.6608 147.291 95.3571 148.1 95.5715C148.91 95.784 148.313 97.5903 149.207 98.4859C150.102 99.3814 152.871 99.8595 153.509 97.7876C154.148 95.7157 154.83 91.8925 150.102 91.8925V91.8906Z" fill="white" stroke="black" stroke-width="0.5" stroke-linecap="round" stroke-linejoin="round"/>
<path d="M148.705 96.9604C148.705 96.9604 149.814 97.2507 150.739 96.5449L148.705 96.9604Z" fill="white"/>
<path d="M148.705 96.9604C148.705 96.9604 149.814 97.2507 150.739 96.5449" stroke="black" stroke-width="0.5" stroke-linecap="round" stroke-linejoin="round"/>
<path d="M150.171 94.6362C150.323 94.6362 150.446 94.513 150.446 94.361C150.446 94.2091 150.323 94.0859 150.171 94.0859C150.02 94.0859 149.896 94.2091 149.896 94.361C149.896 94.513 150.02 94.6362 150.171 94.6362Z" fill="black"/>
<path d="M149.118 93.0924C149.118 93.0924 147.022 92.6522 147.575 91.7054C148.129 90.7586 148.362 89.7948 150.172 90.6334C151.982 91.472 152.981 90.973 153.676 91.8117C154.372 92.6503 153.943 95.6519 153.943 95.6519C153.943 95.6519 152.856 93.6673 152.23 93.4889C151.605 93.3106 149.118 93.0886 149.118 93.0886V93.0924Z" fill="black" stroke="black" stroke-width="0.5" stroke-linecap="round" stroke-linejoin="round"/>
<path d="M143.242 101.197C144.19 101.197 145.829 102.749 147.482 102.284C148.518 101.992 149.426 99.9088 150.586 99.2523C151.073 98.9772 152.212 99.3111 152.665 98.9127C153.448 98.2277 153.675 101.19 153.96 103.711C154.244 106.233 154.072 110.276 154.072 110.276H149.256C149.256 110.276 149.896 104.535 149.896 103.808C149.896 103.808 149.724 105.51 147.764 105.51C145.805 105.51 145.088 104.409 143.242 103.768V101.199V101.197Z" fill="white" stroke="black" stroke-width="0.5" stroke-linecap="round" stroke-linejoin="round"/>
<path d="M150.322 126.944H143.029C143.166 126.041 143.867 125.333 144.767 125.176C145.476 125.052 146.206 124.745 146.524 123.578H150.352C150.292 125.5 150.322 126.944 150.322 126.944Z" fill="black" stroke="black" stroke-width="0.5" stroke-linecap="round" stroke-linejoin="round"/>
<path d="M152.114 113.404C151.855 113.962 151.533 114.842 151.165 116.227C150.629 118.248 150.428 121.261 150.356 123.58H146.527C146.601 123.314 146.652 123.003 146.679 122.639C146.912 119.269 149.258 110.275 149.258 110.275" fill="white"/>
<path d="M152.114 113.404C151.855 113.962 151.533 114.842 151.165 116.227C150.629 118.248 150.428 121.261 150.356 123.58H146.527C146.601 123.314 146.652 123.003 146.679 122.639C146.912 119.269 149.258 110.275 149.258 110.275" stroke="black" stroke-width="0.5" stroke-linecap="round" stroke-linejoin="round"/>
<path d="M160.572 107.246V126.943H158.174V109.646H133.026V126.943H130.629V107.246H160.572Z" stroke="black" stroke-width="0.5" stroke-linecap="round" stroke-linejoin="round"/>
<path d="M180.863 118.487H165.439C165.856 112.362 167.13 105.154 170.814 105.154C177.22 105.154 174.756 114.903 179.684 114.903C180.207 114.903 180.711 114.947 181.193 115.036C183.262 115.419 182.965 118.485 180.861 118.485L180.863 118.487Z" fill="white" stroke="black" stroke-width="0.5" stroke-linecap="round" stroke-linejoin="round"/>
<path d="M165.441 118.486V126.941" stroke="black" stroke-width="0.5" stroke-linecap="round" stroke-linejoin="round"/>
<path d="M172.271 118.486V126.941" stroke="black" stroke-width="0.5" stroke-linecap="round" stroke-linejoin="round"/>
<path d="M179.104 118.486V126.941" stroke="black" stroke-width="0.5" stroke-linecap="round" stroke-linejoin="round"/>
<path d="M181.264 118.486V126.941" stroke="black" stroke-width="0.5" stroke-linecap="round" stroke-linejoin="round"/>
<path d="M194.512 104.925L195.425 104.978C195.425 104.978 194.944 107.531 196.921 107.302C197.555 107.228 197.425 108.59 198.437 108.824C201.503 109.529 201.232 107.302 201.232 107.302L201.93 103.532L196.396 101.227L196.011 102.862L194.514 104.925H194.512Z" fill="white" stroke="black" stroke-width="0.5" stroke-linejoin="round"/>
<path d="M196.628 104.326C196.791 104.326 196.923 104.194 196.923 104.03C196.923 103.867 196.791 103.734 196.628 103.734C196.464 103.734 196.332 103.867 196.332 104.03C196.332 104.194 196.464 104.326 196.628 104.326Z" fill="black"/>
<path d="M195.451 126.668L192.682 126.51C191.838 126.461 190.407 126.484 191.099 126C191.111 125.992 192.672 124.873 192.682 124.867C193.008 124.651 193.053 124.036 192.936 123.535H195.89L196.592 124.928C197.008 125.753 196.374 126.721 195.451 126.668Z" fill="#A9A9A9" stroke="black" stroke-width="0.5" stroke-linecap="round" stroke-linejoin="round"/>
<path d="M203.411 116.66C202.352 120.001 193.215 118.221 193.215 118.221L195.889 123.536H192.935C192.887 123.331 192.813 123.147 192.719 123.016C191.614 121.471 189.917 118.76 190.454 117.309C191.233 115.202 193.3 114.309 197.407 115.231L203.411 116.662V116.66Z" fill="white" stroke="black" stroke-width="0.5" stroke-linecap="round" stroke-linejoin="round"/>
<path d="M203.412 116.66L198.776 115.556L198.458 111.084C198.101 111.403 197.741 111.987 197.313 112.537L196.049 110.393C196.528 109.894 196.985 109.338 197.48 108.826C197.936 108.354 198.363 108.003 198.761 107.745C200.288 106.756 202.324 107.724 202.548 109.53C202.762 111.249 203.109 114.08 203.412 116.662V116.66Z" fill="black" stroke="black" stroke-width="0.5" stroke-linecap="round" stroke-linejoin="round"/>
<path d="M197.311 112.535C196.953 112.994 196.546 113.43 196.047 113.67C193.041 115.113 190.538 113.078 190.538 113.078C187.886 112.045 188.068 110.643 188.413 110.222C188.756 109.801 190.09 110.875 190.09 110.875C190.09 110.875 190.045 110.195 190.289 109.571C190.532 108.945 191.48 110.658 191.48 110.658C191.48 110.658 193.655 112.159 194.919 111.353C195.325 111.093 195.693 110.759 196.049 110.391L197.313 112.535H197.311Z" fill="white" stroke="black" stroke-width="0.5" stroke-linecap="round" stroke-linejoin="round"/>
<path d="M196.214 101.997C196.214 101.997 195.388 99.024 197.994 100.145C200.598 101.265 201.515 101.733 201.932 101.733C202.349 101.733 203.162 103.581 203.162 104.033C203.162 104.485 202.558 106.236 201.557 105.557C200.395 104.767 201.932 102.724 199.377 103.627C198.665 103.879 196.214 101.997 196.214 101.997Z" fill="black" stroke="black" stroke-width="0.5" stroke-linecap="round" stroke-linejoin="round"/>
<path d="M210.402 126.94V72.0781H205.039V126.94H210.402Z" stroke="black" stroke-width="0.5" stroke-linecap="round" stroke-linejoin="round"/>
<path d="M210.4 79.2483V72.0801L86.0661 72.0801V79.2483L210.4 79.2483Z" fill="#A9A9A9" stroke="black" stroke-width="0.5" stroke-linecap="round" stroke-linejoin="round"/>
<path d="M182.948 104.582H182.033C182.033 104.582 182.867 107.775 179.764 108.304C176.662 108.834 175.621 106.473 175.621 106.473V102.768L181.278 100.783L181.57 102.438L182.948 104.584V104.582Z" fill="white" stroke="black" stroke-width="0.5" stroke-linejoin="round"/>
<path d="M180.889 103.865C181.053 103.865 181.185 103.733 181.185 103.569C181.185 103.406 181.053 103.273 180.889 103.273C180.726 103.273 180.594 103.406 180.594 103.569C180.594 103.733 180.726 103.865 180.889 103.865Z" fill="black"/>
<path d="M183.55 126.236H180.775C179.852 126.236 179.274 125.234 179.737 124.434L183.489 117.93C183.489 117.93 171.989 119.594 171.123 116.197L179.473 114.706C183.626 114.021 185.817 115.529 186.474 117.675C186.927 119.155 185.079 121.766 183.887 123.244C183.541 123.673 183.643 124.29 184.084 124.622C184.094 124.627 184.103 124.637 184.113 124.644C184.776 125.168 184.395 126.238 183.55 126.238V126.236Z" fill="black" stroke="black" stroke-width="0.5" stroke-linecap="round" stroke-linejoin="round"/>
<path d="M185.977 114.818L184.281 116.972C184.281 116.972 180.244 113.509 178.453 111.714L179.471 114.702L171.121 116.194C170.653 114.357 171.085 112.238 171.581 110.676C172.216 108.682 173.911 107.177 175.98 106.885C177.231 106.709 178.613 106.967 179.763 108.301C182.737 111.748 185.977 114.814 185.977 114.814V114.818Z" fill="white" stroke="black" stroke-width="0.5" stroke-linecap="round" stroke-linejoin="round"/>
<path d="M181.7 100.294C181.7 99.0305 180.068 98.8996 179.496 99.0305C179.397 99.0533 179.595 99.0097 179.496 99.0305C178.829 99.1652 177.953 101.009 176.547 101.009C175.067 101.009 173.74 101.469 173.74 103.155C173.74 104.408 174.277 105.827 174.551 106.937C174.385 107.159 174.286 107.436 174.286 107.736C174.286 108.035 174.381 108.299 174.542 108.519C174.083 108.618 173.74 109.026 173.74 109.513C173.74 110.075 174.195 110.53 174.756 110.53C175.317 110.53 175.772 110.075 175.772 109.513C175.772 109.354 175.734 109.204 175.67 109.071C176.384 109.047 176.956 108.459 176.956 107.738C176.956 107.497 176.892 107.271 176.78 107.075C176.97 106.897 177.133 106.74 177.239 106.633C177.787 106.085 180.182 105.254 179.64 102.956C179.64 102.956 181.7 101.833 181.7 100.3V100.294Z" fill="black"/>
<path d="M175.622 111.328C176.063 111.328 176.42 110.97 176.42 110.529C176.42 110.088 176.063 109.73 175.622 109.73C175.181 109.73 174.824 110.088 174.824 110.529C174.824 110.97 175.181 111.328 175.622 111.328Z" fill="black"/>
<path d="M185.754 114.834C185.754 114.834 187.702 114.656 187.321 115.208C186.94 115.76 186.355 116.105 186.355 116.105C186.355 116.105 187.992 116.606 187.837 117.128C187.681 117.65 186.626 118.589 184.283 116.972L185.754 114.834Z" fill="white" stroke="black" stroke-width="0.5" stroke-linecap="round" stroke-linejoin="round"/>
<path d="M180.496 105.49C180.496 105.49 181.087 106.111 181.87 105.762L180.496 105.49Z" fill="white"/>
<path d="M180.496 105.49C180.496 105.49 181.087 106.111 181.87 105.762" stroke="black" stroke-width="0.5" stroke-linecap="round" stroke-linejoin="round"/>
<defs>
<filter id="filter0_d_374_15791" x="44.5117" y="65.1309" width="193.1" height="92.457" filterUnits="userSpaceOnUse" color-interpolation-filters="sRGB">
<feFlood flood-opacity="0" result="BackgroundImageFix"/>
<feColorMatrix in="SourceAlpha" type="matrix" values="0 0 0 0 0 0 0 0 0 0 0 0 0 0 0 0 0 0 127 0" result="hardAlpha"/>
<feOffset dy="4"/>
<feComposite in2="hardAlpha" operator="out"/>
<feColorMatrix type="matrix" values="0 0 0 0 0 0 0 0 0 0 0 0 0 0 0 0 0 0 0.25 0"/>
<feBlend mode="normal" in2="BackgroundImageFix" result="effect1_dropShadow_374_15791"/>
<feBlend mode="normal" in="SourceGraphic" in2="effect1_dropShadow_374_15791" result="shape"/>
</filter>
<linearGradient id="paint0_linear_374_15791" x1="148.5" y1="61.5762" x2="148.5" y2="126.999" gradientUnits="userSpaceOnUse">
<stop/>
<stop offset="0.994925"/>
<stop offset="0.995104" stop-color="white"/>
</linearGradient>
</defs>
</svg>
