<svg width="101" height="204" viewBox="0 0 101 204" fill="none" xmlns="http://www.w3.org/2000/svg">
<g clip-path="url(#clip0_875_4466)">
<path d="M88.3677 55.9734C88.3677 55.9734 68.5325 73.3748 57.1141 73.3748C45.6956 73.3748 32.62 67.9176 32.62 67.9176V49.3883C32.62 49.3883 52.4878 57.8544 57.9209 57.8544C63.3539 57.8544 81.8299 41.8464 81.8299 41.8464C81.8299 41.8464 84.0104 34.5227 85.6312 34.5227C86.6088 34.5227 87.7244 36.7675 88.4585 38.5756C92.8631 35.9925 97.8601 34.2753 99.7026 38.179C103.3 45.7865 88.3677 55.9734 88.3677 55.9734Z" fill="white" stroke="black" stroke-width="2" stroke-linecap="round" stroke-linejoin="round"/>
<path d="M0.726807 203.272H35.1639C35.1639 203.272 34.3717 191.299 25.1155 188.829C23.7963 188.465 22.935 186.897 22.4117 184.441H2.76192L0.726807 203.272Z" fill="#A9A9A9" stroke="black" stroke-width="2" stroke-linecap="round" stroke-linejoin="round"/>
<path d="M10.797 109.989L2.76196 184.441H22.4118C19.261 169.626 28.7679 122.996 28.7679 122.996" fill="white"/>
<path d="M10.797 109.989L2.76196 184.441H22.4118C19.261 169.626 28.7679 122.996 28.7679 122.996" stroke="black" stroke-width="2" stroke-linecap="round" stroke-linejoin="round"/>
<path d="M33.0306 7.09814C39.2087 7.09814 35.004 15.0803 38.2202 18.3037C41.4364 21.5271 46.1317 25.42 41.6036 26.6133C37.0755 27.8067 43.0572 38.9831 38.0349 44.0075C36.7847 45.2626 28.8478 40.2747 28.8478 42.6213C28.8478 43.8874 30.1888 48.8572 29.4728 49.603C26.3729 52.8337 17.164 50.5307 16.1101 40.0964C14.8927 28.0177 6.57048 7.09814 33.0306 7.09814Z" fill="white" stroke="black" stroke-width="2" stroke-linecap="round" stroke-linejoin="round"/>
<path d="M39.9828 33.6968C39.9828 33.6968 36.6721 36.309 31.5044 32.3579L39.9828 33.6968Z" fill="white"/>
<path d="M39.9828 33.6968C39.9828 33.6968 36.6721 36.309 31.5044 32.3579" stroke="black" stroke-width="2" stroke-linecap="round" stroke-linejoin="round"/>
<path d="M32.6382 22.4585C33.4872 22.4585 34.1754 21.7695 34.1754 20.9196C34.1754 20.0696 33.4872 19.3806 32.6382 19.3806C31.7892 19.3806 31.101 20.0696 31.101 20.9196C31.101 21.7695 31.7892 22.4585 32.6382 22.4585Z" fill="black"/>
<path d="M31.7697 203.272H72.5811C72.2038 200.81 71.0612 198.529 69.3155 196.753C67.5698 194.977 65.3097 193.797 62.8561 193.38C58.8949 192.689 54.8065 190.964 53.0221 184.441H31.5807C31.9477 195.196 31.7697 203.272 31.7697 203.272Z" fill="#A9A9A9" stroke="black" stroke-width="2" stroke-linecap="round" stroke-linejoin="round"/>
<path d="M21.7612 127.489C23.2149 130.611 25.0138 135.537 27.078 143.297C30.0798 154.608 31.2063 171.471 31.6097 184.441H53.0512C52.5932 182.719 52.3095 180.955 52.2044 179.177C50.8961 160.32 37.766 109.989 37.766 109.989" fill="white"/>
<path d="M21.7612 127.489C23.2149 130.611 25.0138 135.537 27.078 143.297C30.0798 154.608 31.2063 171.471 31.6097 184.441H53.0512C52.5932 182.719 52.3095 180.955 52.2044 179.177C50.8961 160.32 37.766 109.989 37.766 109.989" stroke="black" stroke-width="2" stroke-linecap="round" stroke-linejoin="round"/>
<path d="M29.1058 14.1852C29.1058 14.1852 41.6835 11.5294 41.6835 9.36463C41.6835 7.19992 32.838 -1.54992 29.9889 1.29513C27.1397 4.14019 22.8296 1.78633 19.0392 3.06697C15.2488 4.34761 6.9884 11.1328 6.9884 14.5781C6.9884 18.0235 11.2149 24.3466 11.7128 27.7265C12.2107 31.1064 18.5922 30.0259 18.5922 30.0259L20.4602 26.857C20.4602 26.857 13.5807 22.4184 17.6074 19.3842C21.634 16.35 24.3414 20.1846 24.3414 20.1846L29.1058 14.1852Z" fill="black" stroke="black" stroke-width="2" stroke-linecap="round" stroke-linejoin="round"/>
<path d="M38.3692 109.993H19.6207L18.3851 123.054L15.794 131.786C15.2874 133.543 14.3964 135.165 13.1858 136.534C11.9751 137.903 10.4751 138.986 8.79463 139.702C7.23559 140.354 5.74195 140.568 4.79708 139.968C4.3393 139.7 3.94165 139.34 3.629 138.912C3.31635 138.483 3.09542 137.994 2.98001 137.476C2.35494 133.365 3.09265 126.35 5.18591 119.849C5.18591 119.849 7.00298 54.3326 18.8575 51.6694C21.9102 50.9818 27.5286 48.1695 30.4868 49.7703C33.2269 51.251 36.1451 59.1277 37.7333 73.2366C39.3214 87.3454 38.3692 109.993 38.3692 109.993Z" fill="white" stroke="black" stroke-width="2" stroke-linecap="round" stroke-linejoin="round"/>
<path d="M24.0834 65.2107L19.6207 109.989" stroke="black" stroke-width="2" stroke-linecap="round" stroke-linejoin="round"/>
<path d="M18.8539 48.2932C13.1301 50.7162 7.58808 45.0188 5.88003 70.1768C4.17198 95.3349 5.69105 108.378 5.69105 108.378C13.3423 109.397 21.0494 109.94 28.7678 110.004H41.6836C41.6836 110.004 42.047 54.147 37.3989 49.4902C32.7508 44.8333 18.8539 48.2932 18.8539 48.2932Z" fill="black" stroke="black" stroke-width="2" stroke-linecap="round" stroke-linejoin="round"/>
<path d="M19.3336 113.009C19.3336 113.009 30.5413 52.9791 15.7649 52.9791C3.70678 52.9791 5.50931 112.194 5.50931 112.194" fill="white"/>
<path d="M19.3336 113.009C19.3336 113.009 30.5413 52.9791 15.7649 52.9791C3.70678 52.9791 5.50931 112.194 5.50931 112.194" stroke="black" stroke-width="2" stroke-linecap="round" stroke-linejoin="round"/>
<path d="M31.3517 64.1375C31.0029 64.142 30.6588 64.0568 30.3523 63.8901C30.0617 63.7293 29.8185 63.4946 29.6473 63.2097C29.4706 62.917 29.3799 62.5803 29.3856 62.2383C29.3798 61.8929 29.4704 61.5527 29.6473 61.256C29.8247 60.9676 30.0755 60.7315 30.3741 60.5721C30.6834 60.402 31.0316 60.3155 31.3844 60.3211C31.6486 60.3184 31.9107 60.3691 32.1549 60.4702C32.3916 60.5734 32.6044 60.7245 32.7799 60.9141L32.0531 61.6417C31.9742 61.5445 31.8716 61.4693 31.7551 61.4234C31.6312 61.3754 31.4991 61.352 31.3663 61.3543C31.2126 61.3506 31.0607 61.3882 30.9265 61.4634C30.7994 61.5367 30.695 61.6437 30.6249 61.7727C30.5493 61.9147 30.5117 62.0738 30.5159 62.2347C30.5139 62.3942 30.5514 62.5516 30.6249 62.6931C30.6963 62.8223 30.802 62.9293 30.9301 63.0024C31.0634 63.0766 31.2138 63.1142 31.3663 63.1115C31.5042 63.1136 31.6411 63.0889 31.7696 63.0388C31.8855 62.9851 31.9875 62.9054 32.0676 62.8059L32.7763 63.5336C32.5998 63.7279 32.3843 63.8829 32.144 63.9883C31.8933 64.0936 31.6235 64.1457 31.3517 64.1411" fill="#5FBE6E"/>
<path d="M35.4038 60.4047V60.714C35.3057 60.6194 35.1943 60.5397 35.0731 60.4775C34.8685 60.3768 34.6432 60.3257 34.4153 60.3283C34.1016 60.3237 33.7934 60.411 33.5286 60.5794C33.2675 60.748 33.0556 60.9827 32.9144 61.2597C32.762 61.563 32.6859 61.8989 32.6927 62.2383C32.6863 62.5742 32.7625 62.9066 32.9144 63.2061C33.0534 63.4825 33.2643 63.7163 33.5249 63.8828C33.7893 64.0488 34.096 64.1348 34.408 64.1302C34.6376 64.134 34.865 64.0854 35.0731 63.9883C35.1956 63.9299 35.3074 63.8512 35.4038 63.7555V64.0538H36.494V60.4156L35.4038 60.4047ZM35.233 62.8641C35.1433 62.9571 35.0331 63.0277 34.9112 63.0702C34.7893 63.1128 34.6591 63.1261 34.5312 63.1091C34.4032 63.0921 34.281 63.0452 34.1744 62.9724C34.0678 62.8995 33.9798 62.8026 33.9174 62.6895C33.8427 62.5511 33.8051 62.3956 33.8084 62.2383C33.8047 62.0775 33.8422 61.9185 33.9174 61.7763C33.9832 61.6469 34.084 61.5385 34.2081 61.4634C34.339 61.3894 34.4867 61.3506 34.637 61.3506C34.7872 61.3506 34.9349 61.3894 35.0658 61.4634C35.1879 61.5383 35.2871 61.6453 35.3529 61.7727C35.4259 61.9142 35.4621 62.0719 35.4583 62.2311C35.466 62.4637 35.384 62.6904 35.2293 62.8641H35.233Z" fill="#00C3D7"/>
<path d="M39.1651 60.3356C39.0889 60.3299 39.0124 60.3299 38.9361 60.3356C38.7479 60.3344 38.5627 60.382 38.3983 60.4738C38.2299 60.5643 38.0815 60.6881 37.9622 60.8376C37.9295 60.8777 37.9004 60.9213 37.8713 60.965L37.8495 60.412H36.8247V64.0502H37.9149V62.2311C37.9144 62.1294 37.9316 62.0284 37.9658 61.9327C37.9977 61.8497 38.0445 61.7733 38.1039 61.7072C38.1642 61.6414 38.2388 61.5903 38.322 61.558C38.4114 61.524 38.5062 61.5068 38.6018 61.5071C38.6886 61.5075 38.7751 61.5173 38.8598 61.5362C38.9313 61.5524 38.9999 61.5794 39.0633 61.6162L39.3614 60.3974C39.2996 60.3683 39.2341 60.3501 39.1651 60.3356Z" fill="#8782D7"/>
<path d="M28.081 60.3975V62.4712C28.082 62.6375 28.0172 62.7975 27.9008 62.9161C27.7843 63.0347 27.6257 63.1023 27.4596 63.1042C27.2935 63.1023 27.1349 63.0347 27.0185 62.9161C26.902 62.7975 26.8372 62.6375 26.8382 62.4712V60.3975H25.7479V62.3912C25.7479 62.8466 25.9286 63.2834 26.2503 63.6054C26.572 63.9275 27.0083 64.1084 27.4633 64.1084C27.9182 64.1084 28.3545 63.9275 28.6762 63.6054C28.9978 63.2834 29.1786 62.8466 29.1786 62.3912V60.3975H28.081Z" fill="#FF6E41"/>
<path d="M5.18591 119.86L18.5523 121.29" stroke="black" stroke-width="2" stroke-linecap="round" stroke-linejoin="round"/>
<path d="M78.5955 44.6041L88.3677 55.9698" stroke="black" stroke-width="2" stroke-linecap="round" stroke-linejoin="round"/>
</g>
<defs>
<clipPath id="clip0_875_4466">
<rect width="101" height="204" fill="white"/>
</clipPath>
</defs>
</svg>
