<svg width="1002" height="279" viewBox="0 0 1002 279" fill="none" xmlns="http://www.w3.org/2000/svg">
<path d="M14.109 199H9.95898V224.51H14.109V199Z" fill="white" stroke="black" stroke-width="0.5" stroke-miterlimit="10"/>
<path d="M82.7008 199H78.5508V224.51H82.7008V199Z" fill="white" stroke="black" stroke-width="0.5" stroke-miterlimit="10"/>
<path d="M177.214 199H173.064V224.51H177.214V199Z" fill="white" stroke="black" stroke-width="0.5" stroke-miterlimit="10"/>
<path d="M271.728 199H267.578V224.51H271.728V199Z" fill="white" stroke="black" stroke-width="0.5" stroke-miterlimit="10"/>
<path d="M366.242 199H362.092V224.51H366.242V199Z" fill="white" stroke="black" stroke-width="0.5" stroke-miterlimit="10"/>
<path d="M460.754 199H456.604V224.51H460.754V199Z" fill="white" stroke="black" stroke-width="0.5" stroke-miterlimit="10"/>
<path d="M555.267 199H551.117V224.51H555.267V199Z" fill="white" stroke="black" stroke-width="0.5" stroke-miterlimit="10"/>
<path d="M605 204.141H1V218.141H605V204.141Z" fill="white" stroke="black" stroke-width="0.5" stroke-miterlimit="10"/>
<path d="M8.76 209.02C9.17974 209.02 9.52 208.68 9.52 208.26C9.52 207.84 9.17974 207.5 8.76 207.5C8.34026 207.5 8 207.84 8 208.26C8 208.68 8.34026 209.02 8.76 209.02Z" fill="black" stroke="black" stroke-width="0.5" stroke-miterlimit="10"/>
<path d="M15.2991 209.02C15.7188 209.02 16.0591 208.68 16.0591 208.26C16.0591 207.84 15.7188 207.5 15.2991 207.5C14.8793 207.5 14.5391 207.84 14.5391 208.26C14.5391 208.68 14.8793 209.02 15.2991 209.02Z" fill="black" stroke="black" stroke-width="0.5" stroke-miterlimit="10"/>
<path d="M8.76 214.94C9.17974 214.94 9.52 214.6 9.52 214.18C9.52 213.76 9.17974 213.42 8.76 213.42C8.34026 213.42 8 213.76 8 214.18C8 214.6 8.34026 214.94 8.76 214.94Z" fill="black" stroke="black" stroke-width="0.5" stroke-miterlimit="10"/>
<path d="M15.2991 214.94C15.7188 214.94 16.0591 214.6 16.0591 214.18C16.0591 213.76 15.7188 213.42 15.2991 213.42C14.8793 213.42 14.5391 213.76 14.5391 214.18C14.5391 214.6 14.8793 214.94 15.2991 214.94Z" fill="black" stroke="black" stroke-width="0.5" stroke-miterlimit="10"/>
<path d="M77.3518 209.02C77.7715 209.02 78.1118 208.68 78.1118 208.26C78.1118 207.84 77.7715 207.5 77.3518 207.5C76.9321 207.5 76.5918 207.84 76.5918 208.26C76.5918 208.68 76.9321 209.02 77.3518 209.02Z" fill="black" stroke="black" stroke-width="0.5" stroke-miterlimit="10"/>
<path d="M83.8909 209.02C84.3106 209.02 84.6509 208.68 84.6509 208.26C84.6509 207.84 84.3106 207.5 83.8909 207.5C83.4711 207.5 83.1309 207.84 83.1309 208.26C83.1309 208.68 83.4711 209.02 83.8909 209.02Z" fill="black" stroke="black" stroke-width="0.5" stroke-miterlimit="10"/>
<path d="M77.3518 214.94C77.7715 214.94 78.1118 214.6 78.1118 214.18C78.1118 213.76 77.7715 213.42 77.3518 213.42C76.9321 213.42 76.5918 213.76 76.5918 214.18C76.5918 214.6 76.9321 214.94 77.3518 214.94Z" fill="black" stroke="black" stroke-width="0.5" stroke-miterlimit="10"/>
<path d="M83.8909 214.94C84.3106 214.94 84.6509 214.6 84.6509 214.18C84.6509 213.76 84.3106 213.42 83.8909 213.42C83.4711 213.42 83.1309 213.76 83.1309 214.18C83.1309 214.6 83.4711 214.94 83.8909 214.94Z" fill="black" stroke="black" stroke-width="0.5" stroke-miterlimit="10"/>
<path d="M171.865 209.02C172.285 209.02 172.625 208.68 172.625 208.26C172.625 207.84 172.285 207.5 171.865 207.5C171.446 207.5 171.105 207.84 171.105 208.26C171.105 208.68 171.446 209.02 171.865 209.02Z" fill="black" stroke="black" stroke-width="0.5" stroke-miterlimit="10"/>
<path d="M178.405 209.02C178.824 209.02 179.165 208.68 179.165 208.26C179.165 207.84 178.824 207.5 178.405 207.5C177.985 207.5 177.645 207.84 177.645 208.26C177.645 208.68 177.985 209.02 178.405 209.02Z" fill="black" stroke="black" stroke-width="0.5" stroke-miterlimit="10"/>
<path d="M171.865 214.94C172.285 214.94 172.625 214.6 172.625 214.18C172.625 213.76 172.285 213.42 171.865 213.42C171.446 213.42 171.105 213.76 171.105 214.18C171.105 214.6 171.446 214.94 171.865 214.94Z" fill="black" stroke="black" stroke-width="0.5" stroke-miterlimit="10"/>
<path d="M178.405 214.94C178.824 214.94 179.165 214.6 179.165 214.18C179.165 213.76 178.824 213.42 178.405 213.42C177.985 213.42 177.645 213.76 177.645 214.18C177.645 214.6 177.985 214.94 178.405 214.94Z" fill="black" stroke="black" stroke-width="0.5" stroke-miterlimit="10"/>
<path d="M266.379 209.02C266.799 209.02 267.139 208.68 267.139 208.26C267.139 207.84 266.799 207.5 266.379 207.5C265.959 207.5 265.619 207.84 265.619 208.26C265.619 208.68 265.959 209.02 266.379 209.02Z" fill="black" stroke="black" stroke-width="0.5" stroke-miterlimit="10"/>
<path d="M272.918 209.02C273.338 209.02 273.678 208.68 273.678 208.26C273.678 207.84 273.338 207.5 272.918 207.5C272.498 207.5 272.158 207.84 272.158 208.26C272.158 208.68 272.498 209.02 272.918 209.02Z" fill="black" stroke="black" stroke-width="0.5" stroke-miterlimit="10"/>
<path d="M266.379 214.94C266.799 214.94 267.139 214.6 267.139 214.18C267.139 213.76 266.799 213.42 266.379 213.42C265.959 213.42 265.619 213.76 265.619 214.18C265.619 214.6 265.959 214.94 266.379 214.94Z" fill="black" stroke="black" stroke-width="0.5" stroke-miterlimit="10"/>
<path d="M272.918 214.94C273.338 214.94 273.678 214.6 273.678 214.18C273.678 213.76 273.338 213.42 272.918 213.42C272.498 213.42 272.158 213.76 272.158 214.18C272.158 214.6 272.498 214.94 272.918 214.94Z" fill="black" stroke="black" stroke-width="0.5" stroke-miterlimit="10"/>
<path d="M360.893 209.02C361.313 209.02 361.653 208.68 361.653 208.26C361.653 207.84 361.313 207.5 360.893 207.5C360.473 207.5 360.133 207.84 360.133 208.26C360.133 208.68 360.473 209.02 360.893 209.02Z" fill="black" stroke="black" stroke-width="0.5" stroke-miterlimit="10"/>
<path d="M367.442 209.02C367.861 209.02 368.202 208.68 368.202 208.26C368.202 207.84 367.861 207.5 367.442 207.5C367.022 207.5 366.682 207.84 366.682 208.26C366.682 208.68 367.022 209.02 367.442 209.02Z" fill="black" stroke="black" stroke-width="0.5" stroke-miterlimit="10"/>
<path d="M360.893 214.94C361.313 214.94 361.653 214.6 361.653 214.18C361.653 213.76 361.313 213.42 360.893 213.42C360.473 213.42 360.133 213.76 360.133 214.18C360.133 214.6 360.473 214.94 360.893 214.94Z" fill="black" stroke="black" stroke-width="0.5" stroke-miterlimit="10"/>
<path d="M367.442 214.94C367.861 214.94 368.202 214.6 368.202 214.18C368.202 213.76 367.861 213.42 367.442 213.42C367.022 213.42 366.682 213.76 366.682 214.18C366.682 214.6 367.022 214.94 367.442 214.94Z" fill="black" stroke="black" stroke-width="0.5" stroke-miterlimit="10"/>
<path d="M455.416 209.02C455.836 209.02 456.176 208.68 456.176 208.26C456.176 207.84 455.836 207.5 455.416 207.5C454.997 207.5 454.656 207.84 454.656 208.26C454.656 208.68 454.997 209.02 455.416 209.02Z" fill="black" stroke="black" stroke-width="0.5" stroke-miterlimit="10"/>
<path d="M461.955 209.02C462.375 209.02 462.715 208.68 462.715 208.26C462.715 207.84 462.375 207.5 461.955 207.5C461.536 207.5 461.195 207.84 461.195 208.26C461.195 208.68 461.536 209.02 461.955 209.02Z" fill="black" stroke="black" stroke-width="0.5" stroke-miterlimit="10"/>
<path d="M455.416 214.94C455.836 214.94 456.176 214.6 456.176 214.18C456.176 213.76 455.836 213.42 455.416 213.42C454.997 213.42 454.656 213.76 454.656 214.18C454.656 214.6 454.997 214.94 455.416 214.94Z" fill="black" stroke="black" stroke-width="0.5" stroke-miterlimit="10"/>
<path d="M461.955 214.94C462.375 214.94 462.715 214.6 462.715 214.18C462.715 213.76 462.375 213.42 461.955 213.42C461.536 213.42 461.195 213.76 461.195 214.18C461.195 214.6 461.536 214.94 461.955 214.94Z" fill="black" stroke="black" stroke-width="0.5" stroke-miterlimit="10"/>
<path d="M549.928 209.02C550.348 209.02 550.688 208.68 550.688 208.26C550.688 207.84 550.348 207.5 549.928 207.5C549.508 207.5 549.168 207.84 549.168 208.26C549.168 208.68 549.508 209.02 549.928 209.02Z" fill="black" stroke="black" stroke-width="0.5" stroke-miterlimit="10"/>
<path d="M556.467 209.02C556.887 209.02 557.227 208.68 557.227 208.26C557.227 207.84 556.887 207.5 556.467 207.5C556.047 207.5 555.707 207.84 555.707 208.26C555.707 208.68 556.047 209.02 556.467 209.02Z" fill="black" stroke="black" stroke-width="0.5" stroke-miterlimit="10"/>
<path d="M549.928 214.94C550.348 214.94 550.688 214.6 550.688 214.18C550.688 213.76 550.348 213.42 549.928 213.42C549.508 213.42 549.168 213.76 549.168 214.18C549.168 214.6 549.508 214.94 549.928 214.94Z" fill="black" stroke="black" stroke-width="0.5" stroke-miterlimit="10"/>
<path d="M556.467 214.94C556.887 214.94 557.227 214.6 557.227 214.18C557.227 213.76 556.887 213.42 556.467 213.42C556.047 213.42 555.707 213.76 555.707 214.18C555.707 214.6 556.047 214.94 556.467 214.94Z" fill="black" stroke="black" stroke-width="0.5" stroke-miterlimit="10"/>
<path d="M410.402 199H406.252V224.51H410.402V199Z" fill="white" stroke="black" stroke-width="0.5" stroke-miterlimit="10"/>
<path d="M504.916 199H500.766V224.51H504.916V199Z" fill="white" stroke="black" stroke-width="0.5" stroke-miterlimit="10"/>
<path d="M599.429 199H595.279V224.51H599.429V199Z" fill="white" stroke="black" stroke-width="0.5" stroke-miterlimit="10"/>
<path d="M693.953 199H689.803V224.51H693.953V199Z" fill="white" stroke="black" stroke-width="0.5" stroke-miterlimit="10"/>
<path d="M788.466 199H784.316V224.51H788.466V199Z" fill="white" stroke="black" stroke-width="0.5" stroke-miterlimit="10"/>
<path d="M882.98 199H878.83V224.51H882.98V199Z" fill="white" stroke="black" stroke-width="0.5" stroke-miterlimit="10"/>
<path d="M977.494 199H973.344V224.51H977.494V199Z" fill="white" stroke="black" stroke-width="0.5" stroke-miterlimit="10"/>
<path d="M1001 203.689H394.414V218.139H1001V203.689Z" fill="white" stroke="black" stroke-width="0.5" stroke-miterlimit="10"/>
<path d="M405.063 209.02C405.482 209.02 405.823 208.68 405.823 208.26C405.823 207.84 405.482 207.5 405.063 207.5C404.643 207.5 404.303 207.84 404.303 208.26C404.303 208.68 404.643 209.02 405.063 209.02Z" fill="black" stroke="black" stroke-width="0.5" stroke-miterlimit="10"/>
<path d="M411.602 209.02C412.022 209.02 412.362 208.68 412.362 208.26C412.362 207.84 412.022 207.5 411.602 207.5C411.182 207.5 410.842 207.84 410.842 208.26C410.842 208.68 411.182 209.02 411.602 209.02Z" fill="black" stroke="black" stroke-width="0.5" stroke-miterlimit="10"/>
<path d="M405.063 214.94C405.482 214.94 405.823 214.6 405.823 214.18C405.823 213.76 405.482 213.42 405.063 213.42C404.643 213.42 404.303 213.76 404.303 214.18C404.303 214.6 404.643 214.94 405.063 214.94Z" fill="black" stroke="black" stroke-width="0.5" stroke-miterlimit="10"/>
<path d="M411.602 214.94C412.022 214.94 412.362 214.6 412.362 214.18C412.362 213.76 412.022 213.42 411.602 213.42C411.182 213.42 410.842 213.76 410.842 214.18C410.842 214.6 411.182 214.94 411.602 214.94Z" fill="black" stroke="black" stroke-width="0.5" stroke-miterlimit="10"/>
<path d="M499.576 209.02C499.996 209.02 500.336 208.68 500.336 208.26C500.336 207.84 499.996 207.5 499.576 207.5C499.157 207.5 498.816 207.84 498.816 208.26C498.816 208.68 499.157 209.02 499.576 209.02Z" fill="black" stroke="black" stroke-width="0.5" stroke-miterlimit="10"/>
<path d="M506.115 209.02C506.535 209.02 506.875 208.68 506.875 208.26C506.875 207.84 506.535 207.5 506.115 207.5C505.696 207.5 505.355 207.84 505.355 208.26C505.355 208.68 505.696 209.02 506.115 209.02Z" fill="black" stroke="black" stroke-width="0.5" stroke-miterlimit="10"/>
<path d="M499.576 214.94C499.996 214.94 500.336 214.6 500.336 214.18C500.336 213.76 499.996 213.42 499.576 213.42C499.157 213.42 498.816 213.76 498.816 214.18C498.816 214.6 499.157 214.94 499.576 214.94Z" fill="black" stroke="black" stroke-width="0.5" stroke-miterlimit="10"/>
<path d="M506.115 214.94C506.535 214.94 506.875 214.6 506.875 214.18C506.875 213.76 506.535 213.42 506.115 213.42C505.696 213.42 505.355 213.76 505.355 214.18C505.355 214.6 505.696 214.94 506.115 214.94Z" fill="black" stroke="black" stroke-width="0.5" stroke-miterlimit="10"/>
<path d="M594.09 209.02C594.51 209.02 594.85 208.68 594.85 208.26C594.85 207.84 594.51 207.5 594.09 207.5C593.67 207.5 593.33 207.84 593.33 208.26C593.33 208.68 593.67 209.02 594.09 209.02Z" fill="black" stroke="black" stroke-width="0.5" stroke-miterlimit="10"/>
<path d="M600.629 209.02C601.049 209.02 601.389 208.68 601.389 208.26C601.389 207.84 601.049 207.5 600.629 207.5C600.209 207.5 599.869 207.84 599.869 208.26C599.869 208.68 600.209 209.02 600.629 209.02Z" fill="black" stroke="black" stroke-width="0.5" stroke-miterlimit="10"/>
<path d="M594.09 214.94C594.51 214.94 594.85 214.6 594.85 214.18C594.85 213.76 594.51 213.42 594.09 213.42C593.67 213.42 593.33 213.76 593.33 214.18C593.33 214.6 593.67 214.94 594.09 214.94Z" fill="black" stroke="black" stroke-width="0.5" stroke-miterlimit="10"/>
<path d="M600.629 214.94C601.049 214.94 601.389 214.6 601.389 214.18C601.389 213.76 601.049 213.42 600.629 213.42C600.209 213.42 599.869 213.76 599.869 214.18C599.869 214.6 600.209 214.94 600.629 214.94Z" fill="black" stroke="black" stroke-width="0.5" stroke-miterlimit="10"/>
<path d="M688.604 209.02C689.023 209.02 689.364 208.68 689.364 208.26C689.364 207.84 689.023 207.5 688.604 207.5C688.184 207.5 687.844 207.84 687.844 208.26C687.844 208.68 688.184 209.02 688.604 209.02Z" fill="black" stroke="black" stroke-width="0.5" stroke-miterlimit="10"/>
<path d="M695.143 209.02C695.562 209.02 695.903 208.68 695.903 208.26C695.903 207.84 695.562 207.5 695.143 207.5C694.723 207.5 694.383 207.84 694.383 208.26C694.383 208.68 694.723 209.02 695.143 209.02Z" fill="black" stroke="black" stroke-width="0.5" stroke-miterlimit="10"/>
<path d="M688.604 214.94C689.023 214.94 689.364 214.6 689.364 214.18C689.364 213.76 689.023 213.42 688.604 213.42C688.184 213.42 687.844 213.76 687.844 214.18C687.844 214.6 688.184 214.94 688.604 214.94Z" fill="black" stroke="black" stroke-width="0.5" stroke-miterlimit="10"/>
<path d="M695.143 214.94C695.562 214.94 695.903 214.6 695.903 214.18C695.903 213.76 695.562 213.42 695.143 213.42C694.723 213.42 694.383 213.76 694.383 214.18C694.383 214.6 694.723 214.94 695.143 214.94Z" fill="black" stroke="black" stroke-width="0.5" stroke-miterlimit="10"/>
<path d="M783.117 209.02C783.537 209.02 783.877 208.68 783.877 208.26C783.877 207.84 783.537 207.5 783.117 207.5C782.698 207.5 782.357 207.84 782.357 208.26C782.357 208.68 782.698 209.02 783.117 209.02Z" fill="black" stroke="black" stroke-width="0.5" stroke-miterlimit="10"/>
<path d="M789.656 209.02C790.076 209.02 790.417 208.68 790.417 208.26C790.417 207.84 790.076 207.5 789.656 207.5C789.237 207.5 788.896 207.84 788.896 208.26C788.896 208.68 789.237 209.02 789.656 209.02Z" fill="black" stroke="black" stroke-width="0.5" stroke-miterlimit="10"/>
<path d="M783.117 214.94C783.537 214.94 783.877 214.6 783.877 214.18C783.877 213.76 783.537 213.42 783.117 213.42C782.698 213.42 782.357 213.76 782.357 214.18C782.357 214.6 782.698 214.94 783.117 214.94Z" fill="black" stroke="black" stroke-width="0.5" stroke-miterlimit="10"/>
<path d="M789.656 214.94C790.076 214.94 790.417 214.6 790.417 214.18C790.417 213.76 790.076 213.42 789.656 213.42C789.237 213.42 788.896 213.76 788.896 214.18C788.896 214.6 789.237 214.94 789.656 214.94Z" fill="black" stroke="black" stroke-width="0.5" stroke-miterlimit="10"/>
<path d="M877.629 209.02C878.049 209.02 878.389 208.68 878.389 208.26C878.389 207.84 878.049 207.5 877.629 207.5C877.209 207.5 876.869 207.84 876.869 208.26C876.869 208.68 877.209 209.02 877.629 209.02Z" fill="black" stroke="black" stroke-width="0.5" stroke-miterlimit="10"/>
<path d="M884.168 209.02C884.588 209.02 884.928 208.68 884.928 208.26C884.928 207.84 884.588 207.5 884.168 207.5C883.748 207.5 883.408 207.84 883.408 208.26C883.408 208.68 883.748 209.02 884.168 209.02Z" fill="black" stroke="black" stroke-width="0.5" stroke-miterlimit="10"/>
<path d="M877.629 214.94C878.049 214.94 878.389 214.6 878.389 214.18C878.389 213.76 878.049 213.42 877.629 213.42C877.209 213.42 876.869 213.76 876.869 214.18C876.869 214.6 877.209 214.94 877.629 214.94Z" fill="black" stroke="black" stroke-width="0.5" stroke-miterlimit="10"/>
<path d="M884.168 214.94C884.588 214.94 884.928 214.6 884.928 214.18C884.928 213.76 884.588 213.42 884.168 213.42C883.748 213.42 883.408 213.76 883.408 214.18C883.408 214.6 883.748 214.94 884.168 214.94Z" fill="black" stroke="black" stroke-width="0.5" stroke-miterlimit="10"/>
<path d="M972.143 209.02C972.563 209.02 972.903 208.68 972.903 208.26C972.903 207.84 972.563 207.5 972.143 207.5C971.723 207.5 971.383 207.84 971.383 208.26C971.383 208.68 971.723 209.02 972.143 209.02Z" fill="black" stroke="black" stroke-width="0.5" stroke-miterlimit="10"/>
<path d="M978.682 209.02C979.102 209.02 979.442 208.68 979.442 208.26C979.442 207.84 979.102 207.5 978.682 207.5C978.262 207.5 977.922 207.84 977.922 208.26C977.922 208.68 978.262 209.02 978.682 209.02Z" fill="black" stroke="black" stroke-width="0.5" stroke-miterlimit="10"/>
<path d="M972.143 214.94C972.563 214.94 972.903 214.6 972.903 214.18C972.903 213.76 972.563 213.42 972.143 213.42C971.723 213.42 971.383 213.76 971.383 214.18C971.383 214.6 971.723 214.94 972.143 214.94Z" fill="black" stroke="black" stroke-width="0.5" stroke-miterlimit="10"/>
<path d="M978.682 214.94C979.102 214.94 979.442 214.6 979.442 214.18C979.442 213.76 979.102 213.42 978.682 213.42C978.262 213.42 977.922 213.76 977.922 214.18C977.922 214.6 978.262 214.94 978.682 214.94Z" fill="black" stroke="black" stroke-width="0.5" stroke-miterlimit="10"/>
<path d="M890.728 90.584H833.457V177.467H890.728V90.584Z" fill="white" stroke="black" stroke-width="0.61" stroke-linecap="round" stroke-linejoin="round"/>
<path d="M856.524 101.055H843.762V114.046H856.524V101.055Z" fill="white" stroke="black" stroke-width="0.61" stroke-linecap="round" stroke-linejoin="round"/>
<path d="M880.419 101.055H867.656V114.046H880.419V101.055Z" fill="white" stroke="black" stroke-width="0.61" stroke-linecap="round" stroke-linejoin="round"/>
<path d="M856.524 122.775H843.762V135.767H856.524V122.775Z" fill="white" stroke="black" stroke-width="0.61" stroke-linecap="round" stroke-linejoin="round"/>
<path d="M880.419 122.775H867.656V135.767H880.419V122.775Z" fill="white" stroke="black" stroke-width="0.61" stroke-linecap="round" stroke-linejoin="round"/>
<path d="M948 80H890V178H948V80Z" fill="white" stroke="black" stroke-width="0.61" stroke-linecap="round" stroke-linejoin="round"/>
<path d="M913.798 92.3203H901.035V106.794H913.798V92.3203Z" fill="white" stroke="black" stroke-width="0.61" stroke-linecap="round" stroke-linejoin="round"/>
<path d="M937.681 92.3203H924.918V106.794H937.681V92.3203Z" fill="white" stroke="black" stroke-width="0.61" stroke-linecap="round" stroke-linejoin="round"/>
<path d="M913.798 116.527H901.035V131.001H913.798V116.527Z" fill="white" stroke="black" stroke-width="0.61" stroke-linecap="round" stroke-linejoin="round"/>
<path d="M937.681 116.527H924.918V131.001H937.681V116.527Z" fill="white" stroke="black" stroke-width="0.61" stroke-linecap="round" stroke-linejoin="round"/>
<path d="M833.458 177.511H812.352V139.981L833.458 124.551V177.511Z" fill="white" stroke="black" stroke-width="0.61" stroke-linecap="round" stroke-linejoin="round"/>
<path d="M325.867 146.939V181.33H270.012V168.481C270.012 165.385 272.129 162.668 275.209 161.823L276.642 161.423L286.342 158.738C289.847 157.775 293.062 155.999 295.705 153.574L300.331 149.331C302.011 147.794 304.239 146.928 306.558 146.928H325.867V146.939Z" fill="white" stroke="black" stroke-width="0.5" stroke-linecap="round" stroke-linejoin="round"/>
<path d="M270.012 169.422C274.29 169.422 277.751 166.077 277.751 161.942V161.119" fill="white"/>
<path d="M270.012 169.422C274.29 169.422 277.751 166.077 277.751 161.942V161.119" stroke="black" stroke-width="0.5" stroke-linecap="round" stroke-linejoin="round"/>
<path d="M348.94 146.939H325.867V181.331H348.94V146.939Z" fill="white" stroke="black" stroke-width="0.5" stroke-linecap="round" stroke-linejoin="round"/>
<path d="M372 150.566V177.705C372 179.708 370.32 181.331 368.248 181.331H348.928V146.939H368.248C370.32 146.939 372 148.563 372 150.566Z" fill="white" stroke="black" stroke-width="0.5" stroke-linecap="round" stroke-linejoin="round"/>
<path d="M372.001 162.69H338.501C333.853 162.69 329.362 161.055 325.867 158.1" stroke="black" stroke-width="0.5" stroke-linecap="round" stroke-linejoin="round"/>
<path d="M372 176.449V177.705C372 179.708 370.32 181.331 368.248 181.331H270V176.449H372Z" fill="#A6A6A6" stroke="black" stroke-width="0.5" stroke-linecap="round" stroke-linejoin="round"/>
<path d="M290.194 188.82C294.469 188.82 297.934 185.471 297.934 181.34C297.934 177.208 294.469 173.859 290.194 173.859C285.92 173.859 282.455 177.208 282.455 181.34C282.455 185.471 285.92 188.82 290.194 188.82Z" fill="white" stroke="black" stroke-width="0.5" stroke-linecap="round" stroke-linejoin="round"/>
<path d="M290.195 185.228C292.415 185.228 294.216 183.488 294.216 181.341C294.216 179.195 292.415 177.455 290.195 177.455C287.974 177.455 286.174 179.195 286.174 181.341C286.174 183.488 287.974 185.228 290.195 185.228Z" fill="white" stroke="black" stroke-width="0.5" stroke-linecap="round" stroke-linejoin="round"/>
<path d="M359.142 188.82C363.416 188.82 366.881 185.471 366.881 181.34C366.881 177.208 363.416 173.859 359.142 173.859C354.867 173.859 351.402 177.208 351.402 181.34C351.402 185.471 354.867 188.82 359.142 188.82Z" fill="white" stroke="black" stroke-width="0.5" stroke-linecap="round" stroke-linejoin="round"/>
<path d="M359.142 185.228C361.363 185.228 363.163 183.488 363.163 181.341C363.163 179.195 361.363 177.455 359.142 177.455C356.921 177.455 355.121 179.195 355.121 181.341C355.121 183.488 356.921 185.228 359.142 185.228Z" fill="white" stroke="black" stroke-width="0.5" stroke-linecap="round" stroke-linejoin="round"/>
<path d="M292.277 156.172C292.277 159.777 295.301 162.689 299.02 162.689H315.058C318.788 162.689 321.801 159.766 321.801 156.172V146.949" stroke="black" stroke-width="0.5" stroke-linecap="round" stroke-linejoin="round"/>
<path d="M808.171 145.68H800.133V167.33H808.171V145.68Z" fill="white" stroke="black" stroke-width="0.5" stroke-linecap="round" stroke-linejoin="round"/>
<path d="M804.152 177.51V167.33" stroke="black" stroke-width="0.5" stroke-linecap="round" stroke-linejoin="round"/>
<path d="M804.152 158.82C805.433 158.82 806.472 157.781 806.472 156.5C806.472 155.218 805.433 154.18 804.152 154.18C802.871 154.18 801.832 155.218 801.832 156.5C801.832 157.781 802.871 158.82 804.152 158.82Z" fill="#8280B8" stroke="black" stroke-width="0.5" stroke-linecap="round" stroke-linejoin="round"/>
<path d="M804.152 164.55C805.433 164.55 806.472 163.511 806.472 162.23C806.472 160.949 805.433 159.91 804.152 159.91C802.871 159.91 801.832 160.949 801.832 162.23C801.832 163.511 802.871 164.55 804.152 164.55Z" fill="#10A96C" stroke="black" stroke-width="0.5" stroke-linecap="round" stroke-linejoin="round"/>
<path d="M804.152 153.099C805.433 153.099 806.472 152.06 806.472 150.779C806.472 149.498 805.433 148.459 804.152 148.459C802.871 148.459 801.832 149.498 801.832 150.779C801.832 152.06 802.871 153.099 804.152 153.099Z" fill="#EF664E" stroke="black" stroke-width="0.5" stroke-linecap="round" stroke-linejoin="round"/>
<path d="M33.6064 268.068L55.0371 270.483H177.226C180.856 270.483 183.775 267.55 183.775 263.947V261.417H55.5172L27.0391 258.254V260.727C27.0391 264.483 29.8618 267.646 33.6064 268.068Z" fill="white" stroke="black" stroke-width="0.47" stroke-linecap="round" stroke-linejoin="round"/>
<path d="M27.0192 258.253L55.4973 261.416H183.755V256.202C183.755 255.992 183.755 255.8 183.736 255.589C183.505 252.484 181.508 249.743 178.57 248.574C174.806 247.079 170.927 245.928 166.971 245.123C162.324 244.165 157.581 243.686 152.819 243.686C152.185 243.686 151.57 243.686 150.937 243.705L141.873 243.954L136.112 240.293C125.55 233.565 113.26 230 100.721 230H87.3744C76.1406 230 65.0605 232.626 55.0172 237.667L46.8944 241.75L37.312 241.654C33.8171 241.616 30.9749 244.433 30.9749 247.922C30.9749 249.839 30.6292 251.717 29.9571 253.461C29.285 255.206 28.2866 256.854 27 258.272L27.0192 258.253Z" fill="#A5A5A5" stroke="black" stroke-width="0.47" stroke-linecap="round" stroke-linejoin="round"/>
<path d="M137.147 250.299C137.992 250.318 138.337 248.976 137.627 248.42L132.807 244.683C123.205 237.245 112.125 233.297 100.738 233.297H87.3913C77.1753 233.297 66.9592 236.249 57.8185 241.846L51.3471 245.813C50.5597 246.293 50.8287 247.711 51.712 247.749L137.166 250.318L137.147 250.299Z" fill="white" stroke="black" stroke-width="0.47" stroke-miterlimit="10"/>
<path d="M157.639 278.112C164.013 278.112 169.18 272.954 169.18 266.592C169.18 260.23 164.013 255.072 157.639 255.072C151.265 255.072 146.098 260.23 146.098 266.592C146.098 272.954 151.265 278.112 157.639 278.112Z" fill="white" stroke="black" stroke-width="0.47" stroke-miterlimit="10"/>
<path d="M157.643 271.767C160.507 271.767 162.829 269.45 162.829 266.591C162.829 263.733 160.507 261.416 157.643 261.416C154.779 261.416 152.457 263.733 152.457 266.591C152.457 269.45 154.779 271.767 157.643 271.767Z" fill="white" stroke="black" stroke-width="0.47" stroke-miterlimit="10"/>
<path d="M63.4844 278.112C69.8584 278.112 75.0255 272.954 75.0255 266.592C75.0255 260.23 69.8584 255.072 63.4844 255.072C57.1105 255.072 51.9434 260.23 51.9434 266.592C51.9434 272.954 57.1105 278.112 63.4844 278.112Z" fill="white" stroke="black" stroke-width="0.47" stroke-miterlimit="10"/>
<path d="M63.4847 271.767C66.3487 271.767 68.6704 269.45 68.6704 266.591C68.6704 263.733 66.3487 261.416 63.4847 261.416C60.6207 261.416 58.2988 263.733 58.2988 266.591C58.2988 269.45 60.6207 271.767 63.4847 271.767Z" fill="white" stroke="black" stroke-width="0.47" stroke-miterlimit="10"/>
<path d="M166.99 245.146C167.067 248.386 169.467 252.009 173.404 254.27C176.995 256.34 180.932 256.743 183.754 255.612C183.524 252.507 181.527 249.766 178.589 248.597C174.825 247.102 170.946 245.952 166.99 245.146Z" fill="white" stroke="black" stroke-width="0.47" stroke-miterlimit="10"/>
<path d="M96.9961 233.297V249.11" stroke="black" stroke-width="0.47" stroke-miterlimit="10"/>
<path d="M121.268 249.779H124.053V242.706H121.268V249.779Z" fill="black" stroke="black" stroke-width="0.47" stroke-miterlimit="10"/>
<path d="M112.072 238.766H111.016C111.016 238.766 112.072 242.351 108.922 241.699C108.442 241.603 109.076 242.926 108.403 243.041C104.831 243.654 103.621 243.462 103.621 243.462V236.658L110.151 234.377L110.497 236.275L112.091 238.747L112.072 238.766Z" fill="white" stroke="black" stroke-width="0.47" stroke-linejoin="round"/>
<path d="M109.705 237.942C109.896 237.942 110.051 237.788 110.051 237.597C110.051 237.406 109.896 237.252 109.705 237.252C109.514 237.252 109.359 237.406 109.359 237.597C109.359 237.788 109.514 237.942 109.705 237.942Z" fill="black"/>
<path d="M109.594 239.611C109.594 239.611 110.208 240.263 111.034 239.899L109.594 239.611Z" fill="white"/>
<path d="M109.594 239.611C109.594 239.611 110.208 240.263 111.034 239.899" stroke="black" stroke-width="0.47" stroke-linecap="round" stroke-linejoin="round"/>
<path d="M100.318 249.213C100.318 245.475 103.583 242.523 107.289 243.002C108.422 243.156 109.613 243.52 110.803 244.229C115.931 247.353 119.214 246.299 119.214 246.299V249.788C119.214 249.788 112.186 250.401 109.766 247.986V249.5L100.318 249.213Z" fill="white" stroke="black" stroke-width="0.47" stroke-linecap="round" stroke-linejoin="round"/>
<path d="M119.219 246.301C119.219 246.301 121.255 244.614 121.255 245.515C121.255 246.416 120.87 247.24 120.87 247.24C120.87 247.24 123.079 246.55 123.291 247.24C123.502 247.93 123.06 249.789 119.219 249.789V246.301Z" fill="white" stroke="black" stroke-width="0.47" stroke-linecap="round" stroke-linejoin="round"/>
<path d="M111.031 233.016C111.818 233.553 111.761 234.703 110.935 235.182C109.936 235.757 108.476 236.697 106.805 236.927C106.248 237.003 104.846 235.987 104.846 237.598C104.846 238.479 103.617 239.265 103.617 239.648V235.968C103.617 234.607 104.808 233.572 106.152 233.726L106.978 233.821C107.593 233.898 108.227 233.726 108.726 233.342L109.321 232.901C109.763 232.576 110.359 232.556 110.82 232.863L111.05 233.016H111.031Z" fill="black" stroke="black" stroke-width="0.47" stroke-linecap="round" stroke-linejoin="round"/>
<path d="M768 167.684V173.771H668.792C666.528 173.771 664.598 172.143 664.216 169.918C664.088 169.173 664.02 168.429 664.01 167.684H768Z" fill="#A5A5A5" stroke="black" stroke-width="0.66" stroke-linecap="round" stroke-linejoin="round"/>
<path d="M768 162.693V167.672H664.01C664.01 167.594 664.01 167.515 664.01 167.437C664.01 165.124 664.568 162.83 665.646 160.752L666.097 158.164C666.283 157.096 667.058 156.223 668.106 155.929C674.359 154.126 680.827 153.214 687.325 153.214L699.614 144.981C706.847 140.138 715.343 137.561 724.036 137.561H758.122C761.61 137.561 764.658 139.923 765.531 143.295C766.354 146.461 766.971 149.676 767.383 152.91C767.794 156.145 768 159.409 768 162.683V162.693Z" fill="white" stroke="black" stroke-width="0.66" stroke-miterlimit="10"/>
<path d="M750.496 178.18C754.442 178.18 757.64 174.981 757.64 171.034C757.64 167.088 754.442 163.889 750.496 163.889C746.55 163.889 743.352 167.088 743.352 171.034C743.352 174.981 746.55 178.18 750.496 178.18Z" fill="white" stroke="black" stroke-width="0.66" stroke-miterlimit="10"/>
<path d="M754.477 171.034C754.477 168.839 752.694 167.055 750.498 167.055C748.303 167.055 746.52 168.839 746.52 171.034C746.52 173.23 748.303 175.014 750.498 175.014C752.694 175.014 754.477 173.23 754.477 171.034Z" fill="white" stroke="black" stroke-width="0.66" stroke-miterlimit="10"/>
<path d="M687.883 178.18C691.828 178.18 695.027 174.981 695.027 171.034C695.027 167.088 691.828 163.889 687.883 163.889C683.937 163.889 680.738 167.088 680.738 171.034C680.738 174.981 683.937 178.18 687.883 178.18Z" fill="white" stroke="black" stroke-width="0.66" stroke-miterlimit="10"/>
<path d="M691.852 171.034C691.852 168.839 690.069 167.055 687.873 167.055C685.678 167.055 683.895 168.839 683.895 171.034C683.895 173.23 685.678 175.014 687.873 175.014C690.069 175.014 691.852 173.23 691.852 171.034Z" fill="white" stroke="black" stroke-width="0.66" stroke-miterlimit="10"/>
<path d="M743.205 153.822L697.8 155.311C696.046 155.37 695.311 153.096 696.771 152.116L702.024 148.597C708.561 144.225 716.166 141.912 724.035 141.912H758.121C759.63 141.912 760.943 142.932 761.325 144.392C761.59 145.431 761.845 146.48 762.06 147.529C762.364 148.94 761.492 150.332 760.1 150.695L754.475 152.175C750.79 153.135 747.017 153.694 743.205 153.812V153.822Z" fill="white" stroke="black" stroke-width="0.66" stroke-miterlimit="10"/>
<path d="M720.842 142.041V154.558" stroke="black" stroke-width="0.66" stroke-miterlimit="10"/>
<path d="M737.67 150.815C737.082 150.815 736.543 150.687 736.072 150.432C735.602 150.177 735.219 149.834 734.945 149.393C734.661 148.952 734.523 148.462 734.523 147.913C734.523 147.364 734.661 146.855 734.945 146.413C735.229 145.972 735.602 145.629 736.082 145.374C736.562 145.12 737.101 144.992 737.699 144.992C738.15 144.992 738.562 145.071 738.934 145.218C739.307 145.374 739.64 145.6 739.934 145.894L738.797 146.992C738.66 146.835 738.503 146.727 738.317 146.659C738.131 146.59 737.925 146.551 737.699 146.551C737.435 146.551 737.199 146.61 736.994 146.717C736.788 146.825 736.631 146.982 736.513 147.188C736.396 147.394 736.337 147.629 736.337 147.894C736.337 148.158 736.396 148.384 736.513 148.59C736.631 148.795 736.797 148.952 737.003 149.07C737.209 149.178 737.444 149.236 737.699 149.236C737.944 149.236 738.16 149.197 738.346 149.119C738.532 149.04 738.689 148.923 738.826 148.766L739.964 149.874C739.66 150.177 739.326 150.413 738.954 150.57C738.581 150.726 738.15 150.805 737.68 150.805" fill="#10A56C"/>
<path d="M744.156 145.12V145.59C743.999 145.453 743.823 145.325 743.627 145.227C743.313 145.071 742.96 145.002 742.568 145.002C742.039 145.002 741.569 145.129 741.147 145.384C740.726 145.639 740.402 145.982 740.167 146.423C739.932 146.855 739.814 147.354 739.814 147.913C739.814 148.472 739.932 148.952 740.167 149.393C740.402 149.825 740.726 150.168 741.147 150.422C741.559 150.677 742.029 150.805 742.559 150.805C742.951 150.805 743.313 150.736 743.627 150.589C743.833 150.491 744.009 150.373 744.156 150.236V150.697H745.9V145.129H744.156V145.12ZM743.882 148.874C743.637 149.119 743.323 149.246 742.921 149.246C742.666 149.246 742.441 149.187 742.245 149.07C742.049 148.952 741.892 148.795 741.775 148.599C741.657 148.403 741.598 148.168 741.598 147.913C741.598 147.648 741.657 147.413 741.775 147.207C741.892 147.002 742.049 146.845 742.245 146.727C742.441 146.609 742.666 146.551 742.931 146.551C743.196 146.551 743.421 146.609 743.617 146.727C743.813 146.845 743.97 147.002 744.078 147.198C744.185 147.394 744.244 147.629 744.244 147.894C744.244 148.295 744.127 148.609 743.882 148.864V148.874Z" fill="#00A2BB"/>
<path d="M750.184 145.022C750.076 145.002 749.949 144.992 749.821 144.992C749.517 144.992 749.233 145.061 748.959 145.198C748.694 145.335 748.459 145.531 748.253 145.767C748.204 145.825 748.155 145.894 748.106 145.963L748.067 145.12H746.42V150.697H748.165V147.894C748.165 147.727 748.194 147.57 748.243 147.443C748.302 147.305 748.371 147.198 748.469 147.1C748.567 147.002 748.674 146.923 748.821 146.874C748.959 146.825 749.106 146.796 749.263 146.796C749.41 146.796 749.547 146.815 749.684 146.845C749.821 146.874 749.929 146.913 750.007 146.962L750.488 145.1C750.39 145.071 750.292 145.051 750.174 145.022H750.184Z" fill="#8080B4"/>
<path d="M732.436 145.121V148.287C732.436 148.816 731.995 149.248 731.446 149.248C730.897 149.248 730.456 148.816 730.456 148.287V145.121H728.701V148.16C728.701 149.63 729.936 150.816 731.446 150.816C732.955 150.816 734.19 149.62 734.19 148.16V145.121H732.436Z" fill="#EB664E"/>
<path d="M665.637 160.762H666.921C670.694 160.762 673.938 158.086 674.653 154.391" stroke="black" stroke-width="0.66" stroke-miterlimit="10"/>
<path d="M664 167.684H664.01" stroke="black" stroke-width="0.66" stroke-miterlimit="10"/>
<path d="M704.259 155.098V151.58C704.259 151.08 703.857 150.678 703.357 150.678C702.857 150.678 702.455 151.08 702.455 151.58V155.157" fill="black"/>
<path d="M704.259 155.098V151.58C704.259 151.08 703.857 150.678 703.357 150.678C702.857 150.678 702.455 151.08 702.455 151.58V155.157" stroke="black" stroke-width="0.66" stroke-miterlimit="10"/>
<path d="M710.97 147.287L711.362 147.532C711.362 147.532 711.421 150.306 713.176 149.483C713.46 149.346 712.647 150.296 713.097 150.375C715.469 150.777 716.263 150.659 716.263 150.659V146.14L711.941 144.621L711.715 145.886L710.912 146.876C710.804 147.003 710.843 147.189 710.98 147.277L710.97 147.287Z" fill="white" stroke="black" stroke-width="0.66" stroke-linejoin="round"/>
<path d="M712.235 146.982C712.36 146.982 712.461 146.881 712.461 146.757C712.461 146.632 712.36 146.531 712.235 146.531C712.111 146.531 712.01 146.632 712.01 146.757C712.01 146.881 712.111 146.982 712.235 146.982Z" fill="black"/>
<path d="M718.449 154.472C718.449 151.992 716.283 150.032 713.823 150.346C713.068 150.444 712.274 150.689 711.5 151.169C708.109 153.237 705.934 152.541 705.934 152.541V154.864C705.934 154.864 710.589 155.266 712.196 153.668V154.668L718.458 154.482L718.449 154.472Z" fill="white" stroke="black" stroke-width="0.66" stroke-linecap="round" stroke-linejoin="round"/>
<path d="M705.934 152.531C705.934 152.531 704.591 151.414 704.591 152.012C704.591 152.61 704.846 153.159 704.846 153.159C704.846 153.159 703.385 152.698 703.238 153.159C703.091 153.619 703.385 154.845 705.934 154.845V152.522V152.531Z" fill="white" stroke="black" stroke-width="0.66" stroke-linecap="round" stroke-linejoin="round"/>
<path d="M712.539 148.199L711.529 148.591" stroke="black" stroke-width="0.66" stroke-linecap="round" stroke-linejoin="round"/>
<path d="M716.253 148.795C716.253 148.373 716.439 147.972 716.763 147.697C716.968 147.521 717.125 147.187 716.968 146.57C716.645 145.266 716.802 145.658 715.645 144.492C714.528 143.374 714.009 143.208 712.529 143.531C711.049 143.855 710.53 144.874 711.412 145.158C712.294 145.443 713.421 146.442 714.92 146.246C715.665 146.148 716.184 147.746 714.989 147.893L716.253 148.795Z" fill="black" stroke="black" stroke-width="0.66" stroke-linecap="round" stroke-linejoin="round"/>
<path d="M950.233 239.183H941.851C936.118 239.183 930.733 236.337 927.519 231.581L923.936 226.281L939.853 230.039C944.674 231.19 948.54 234.665 950.233 239.183Z" fill="white" stroke="black" stroke-width="0.41" stroke-miterlimit="10"/>
<path d="M907.23 206.841H874.656V198.262H894.722C900.259 198.262 905.232 201.672 907.23 206.841Z" fill="white" stroke="black" stroke-width="0.41" stroke-miterlimit="10"/>
<path d="M943.756 264.333H874.656V250.715H952.399L952.877 253.604C953.789 259.229 949.467 264.333 943.756 264.333Z" fill="#A5A5A5" stroke="black" stroke-width="0.41" stroke-linecap="round" stroke-linejoin="round"/>
<path d="M950.962 241.982C950.81 241.005 950.549 240.071 950.202 239.18H941.82C936.087 239.18 930.701 236.335 927.487 231.579L923.904 226.279L919.8 221.501L907.205 206.84H874.631V250.714H952.374L950.94 241.982H950.962ZM910.614 231.535C910.505 230.753 910.288 228.755 910.896 227.973C911.113 227.691 912.416 229.45 912.655 229.168C913.589 228.103 914.675 227.148 915.478 227.3C916.434 227.473 916.847 227.908 917.042 228.277C915.435 230.167 913.111 231.361 910.614 231.513V231.535Z" fill="white" stroke="black" stroke-width="0.41" stroke-miterlimit="10"/>
<path d="M917.074 228.3C917.943 227.301 918.595 226.085 918.964 224.717L919.833 221.48" stroke="black" stroke-width="0.41" stroke-miterlimit="10"/>
<path d="M910.616 231.535C909.747 231.6 908.879 231.535 907.988 231.34H907.88L897.087 228.907C896.37 228.755 895.697 228.538 895.024 228.299C889.226 226.105 885.273 220.523 885.273 214.181V206.84" stroke="black" stroke-width="0.41" stroke-miterlimit="10"/>
<path d="M923.929 275.91C930.885 275.91 936.524 270.27 936.524 263.312C936.524 256.355 930.885 250.715 923.929 250.715C916.973 250.715 911.334 256.355 911.334 263.312C911.334 270.27 916.973 275.91 923.929 275.91Z" fill="white" stroke="black" stroke-width="0.41" stroke-miterlimit="10"/>
<path d="M923.938 269.132C927.153 269.132 929.759 266.526 929.759 263.311C929.759 260.096 927.153 257.49 923.938 257.49C920.723 257.49 918.117 260.096 918.117 263.311C918.117 266.526 920.723 269.132 923.938 269.132Z" fill="white" stroke="black" stroke-width="0.41" stroke-miterlimit="10"/>
<path d="M868.316 232.73H737V250.714H868.316V232.73Z" fill="white" stroke="black" stroke-width="0.41" stroke-miterlimit="10"/>
<path d="M874.657 250.715H744.992V260.597H874.657V250.715Z" fill="#A5A5A5" stroke="black" stroke-width="0.41" stroke-linecap="round" stroke-linejoin="round"/>
<path d="M779.496 275.91C786.452 275.91 792.091 270.27 792.091 263.312C792.091 256.355 786.452 250.715 779.496 250.715C772.539 250.715 766.9 256.355 766.9 263.312C766.9 270.27 772.539 275.91 779.496 275.91Z" fill="white" stroke="black" stroke-width="0.41" stroke-miterlimit="10"/>
<path d="M779.504 269.132C782.719 269.132 785.325 266.526 785.325 263.311C785.325 260.096 782.719 257.49 779.504 257.49C776.29 257.49 773.684 260.096 773.684 263.311C773.684 266.526 776.29 269.132 779.504 269.132Z" fill="white" stroke="black" stroke-width="0.41" stroke-miterlimit="10"/>
<path d="M893.984 221.57L893.311 217.856C892.79 216.4 892.268 216.531 892.355 214.989C892.464 213.142 893.789 211.6 895.613 211.231L895.83 211.188C897.872 210.775 899.892 211.991 900.543 213.968C900.695 214.424 901.369 215.336 901.564 215.51C902.325 216.118 900.935 217.421 900.935 217.421C900.935 217.421 901.782 220.614 898.806 219.919L898.48 221.505" fill="white"/>
<path d="M893.984 221.57L893.311 217.856C892.79 216.4 892.268 216.531 892.355 214.989C892.464 213.142 893.789 211.6 895.613 211.231L895.83 211.188C897.872 210.775 899.892 211.991 900.543 213.968C900.695 214.424 901.369 215.336 901.564 215.51C902.325 216.118 900.935 217.421 900.935 217.421C900.935 217.421 901.782 220.614 898.806 219.919L898.48 221.505" stroke="black" stroke-width="0.41" stroke-linecap="round" stroke-linejoin="round"/>
<path d="M899.655 212.492C899.655 212.492 902.609 212.079 902.109 210.624C901.61 209.169 900.763 209.342 897.917 209.342C895.072 209.342 891.771 209.494 891.771 211.123C891.771 212.752 890.272 213.904 891.271 215.945C892.27 217.987 893.487 218.682 893.921 216.836C894.355 214.99 892.944 215.923 893.291 214.903C894.03 212.774 895.506 214.533 897.027 214.056C898.547 213.578 899.655 212.492 899.655 212.492Z" fill="black" stroke="black" stroke-width="0.41" stroke-linecap="round" stroke-linejoin="round"/>
<path d="M899.216 215.336C899.456 215.336 899.65 215.132 899.65 214.88C899.65 214.628 899.456 214.424 899.216 214.424C898.976 214.424 898.781 214.628 898.781 214.88C898.781 215.132 898.976 215.336 899.216 215.336Z" fill="black"/>
<path d="M898.766 217.486C898.766 217.486 899.33 218.637 901.003 218.442L898.766 217.486Z" fill="white"/>
<path d="M898.766 217.486C898.766 217.486 899.33 218.637 901.003 218.442" stroke="black" stroke-width="0.41" stroke-linecap="round" stroke-linejoin="round"/>
<path d="M892.449 227.044C892.905 224.46 893.883 220.246 895.316 220.289C900.095 220.398 902.093 227.327 902.701 230.172" stroke="black" stroke-width="0.41" stroke-linecap="round" stroke-linejoin="round"/>
<path d="M893.329 227.522C893.221 225.089 893.329 220.876 895.328 220.268C895.328 220.268 898.955 219.334 900.801 229.737" stroke="black" stroke-width="0.41" stroke-miterlimit="10"/>
<path d="M891.811 244.502C890.986 244.502 890.247 244.328 889.596 243.981C888.944 243.633 888.423 243.155 888.032 242.547C887.641 241.939 887.445 241.244 887.445 240.484C887.445 239.724 887.641 239.028 888.032 238.399C888.423 237.79 888.944 237.313 889.617 236.943C890.291 236.596 891.029 236.4 891.854 236.4C892.484 236.4 893.049 236.509 893.57 236.726C894.092 236.943 894.548 237.247 894.96 237.66L893.375 239.181C893.179 238.963 892.962 238.811 892.701 238.724C892.441 238.638 892.159 238.572 891.833 238.572C891.463 238.572 891.138 238.659 890.855 238.811C890.573 238.963 890.356 239.181 890.182 239.463C890.008 239.745 889.943 240.071 889.943 240.44C889.943 240.809 890.03 241.114 890.182 241.418C890.356 241.7 890.573 241.917 890.855 242.069C891.138 242.221 891.463 242.308 891.833 242.308C892.18 242.308 892.463 242.265 892.723 242.156C892.984 242.047 893.201 241.895 893.396 241.657L894.982 243.199C894.569 243.633 894.092 243.937 893.57 244.154C893.049 244.371 892.463 244.48 891.811 244.48V244.502Z" fill="#10A56C"/>
<path d="M900.806 236.596V237.247C900.588 237.052 900.35 236.878 900.067 236.748C899.633 236.53 899.133 236.422 898.612 236.422C897.874 236.422 897.222 236.596 896.635 236.965C896.049 237.312 895.593 237.79 895.267 238.398C894.941 239.007 894.768 239.702 894.768 240.462C894.768 241.222 894.941 241.917 895.267 242.503C895.593 243.112 896.049 243.589 896.614 243.937C897.178 244.284 897.852 244.458 898.569 244.458C899.112 244.458 899.611 244.35 900.045 244.154C900.328 244.024 900.567 243.85 900.784 243.655V244.284H903.195V236.552H900.784L900.806 236.596ZM900.415 241.808C900.089 242.156 899.633 242.33 899.068 242.33C898.721 242.33 898.395 242.243 898.134 242.091C897.852 241.939 897.635 241.721 897.483 241.439C897.33 241.157 897.244 240.853 897.244 240.483C897.244 240.114 897.33 239.788 897.483 239.506C897.635 239.224 897.852 239.007 898.134 238.854C898.416 238.702 898.721 238.616 899.09 238.616C899.459 238.616 899.763 238.702 900.045 238.854C900.328 239.007 900.523 239.224 900.697 239.506C900.849 239.788 900.936 240.114 900.936 240.483C900.936 241.026 900.762 241.483 900.436 241.83L900.415 241.808Z" fill="#00A2BB"/>
<path d="M909.187 236.444C909.035 236.422 908.861 236.4 908.687 236.4C908.275 236.4 907.862 236.487 907.493 236.683C907.124 236.878 906.798 237.139 906.516 237.465C906.45 237.552 906.385 237.638 906.32 237.725L906.277 236.552H903.996V244.285H906.407V240.397C906.407 240.158 906.45 239.962 906.516 239.767C906.581 239.571 906.689 239.419 906.82 239.289C906.95 239.159 907.102 239.05 907.298 238.985C907.493 238.92 907.688 238.876 907.906 238.876C908.101 238.876 908.297 238.898 908.492 238.942C908.688 238.985 908.818 239.05 908.926 239.115L909.6 236.531C909.469 236.487 909.317 236.466 909.165 236.422L909.187 236.444Z" fill="#8080B4"/>
<path d="M884.539 236.57V240.958C884.539 241.696 883.931 242.283 883.149 242.283C882.389 242.283 881.759 241.674 881.759 240.958V236.57H879.326V240.784C879.326 242.826 881.042 244.476 883.127 244.476C885.212 244.476 886.928 242.826 886.928 240.784V236.57H884.495H884.539Z" fill="#EB664E"/>
<path d="M868.316 241.723H737" stroke="black" stroke-width="0.41" stroke-miterlimit="10"/>
<path d="M806.86 197H764.514V208.902H806.86V197Z" fill="#A5A5A5" stroke="black" stroke-width="0.41" stroke-linecap="round" stroke-linejoin="round"/>
<path d="M806.86 208.924H764.514V220.826H806.86V208.924Z" fill="#A5A5A5" stroke="black" stroke-width="0.41" stroke-linecap="round" stroke-linejoin="round"/>
<path d="M806.86 220.826H764.514V232.729H806.86V220.826Z" fill="#A5A5A5" stroke="black" stroke-width="0.41" stroke-linecap="round" stroke-linejoin="round"/>
<path d="M785.688 197V232.729" stroke="black" stroke-width="0.41" stroke-linecap="round" stroke-linejoin="round"/>
<path d="M858.901 197H816.555V208.902H858.901V197Z" fill="#A5A5A5" stroke="black" stroke-width="0.41" stroke-linecap="round" stroke-linejoin="round"/>
<path d="M858.901 208.924H816.555V220.826H858.901V208.924Z" fill="#A5A5A5" stroke="black" stroke-width="0.41" stroke-linecap="round" stroke-linejoin="round"/>
<path d="M858.901 220.826H816.555V232.729H858.901V220.826Z" fill="#A5A5A5" stroke="black" stroke-width="0.41" stroke-linecap="round" stroke-linejoin="round"/>
<path d="M837.729 197V232.729" stroke="black" stroke-width="0.41" stroke-linecap="round" stroke-linejoin="round"/>
<path d="M915.418 223.438H913.768V229.106H915.418V223.438Z" fill="black" stroke="black" stroke-width="0.41" stroke-miterlimit="10"/>
<path d="M917.069 228.302C915.462 230.192 913.138 231.386 910.64 231.538C910.531 230.757 910.314 228.758 910.922 227.976C911.139 227.694 912.443 229.453 912.682 229.171C913.615 228.107 914.701 227.151 915.505 227.303C916.461 227.477 916.873 227.911 917.069 228.28V228.302Z" fill="white" stroke="black" stroke-width="0.41" stroke-miterlimit="10"/>
<path d="M359.866 46.3809H625.153C635.9 46.3809 644.629 55.111 644.629 65.86V235.969C644.629 246.718 635.9 255.448 625.153 255.448H359.866C349.119 255.448 340.391 246.718 340.391 235.969V65.86C340.391 55.111 349.119 46.3809 359.866 46.3809Z" fill="white"/>
<path d="M625.144 46.7618C635.677 46.7618 644.238 55.332 644.238 65.86V235.969C644.238 246.497 635.67 255.067 625.144 255.067H359.857C349.33 255.067 340.762 246.497 340.762 235.969V65.86C340.762 55.332 349.33 46.7618 359.857 46.7618H625.144ZM625.144 46H359.857C348.934 46 340 54.9359 340 65.86V235.969C340 246.893 348.934 255.829 359.857 255.829H625.144C636.066 255.829 645 246.893 645 235.969V65.86C645 54.9359 636.066 46 625.144 46Z" fill="black"/>
<path d="M604.185 63.2402H368.191V239.444H604.185V63.2402Z" fill="white"/>
<path d="M603.804 63.6212V239.063H368.572V63.6212H603.804ZM604.566 62.8594H367.811V239.824H604.566V62.8594Z" fill="black"/>
<path d="M497.956 170.877H389.703C389.703 170.877 391.305 167.237 395.364 165.469C399.423 163.709 404.544 165.017 407.905 162.48C411.274 159.943 413.011 157.5 417.902 156.018C422.786 154.535 427.59 156.2 432.386 154.162C437.111 152.156 441.241 151.514 443.834 151.498C446.426 151.514 450.556 152.156 455.281 154.162C460.078 156.2 464.874 154.535 469.765 156.018C474.657 157.5 476.393 159.943 479.762 162.48C483.132 165.017 488.253 163.709 492.304 165.469C496.363 167.229 497.964 170.877 497.964 170.877H497.956Z" fill="white" stroke="black" stroke-width="0.5" stroke-linecap="round" stroke-linejoin="round"/>
<path d="M368.5 170.85H390" stroke="black" stroke-width="0.5"/>
<path d="M445.904 170.875C445.904 170.875 454.228 142.195 467.008 142.195C479.787 142.195 485.86 170.875 485.86 170.875H445.904Z" fill="white" stroke="black" stroke-width="0.5" stroke-linecap="round" stroke-linejoin="round"/>
<path d="M470.916 170.876C470.916 170.876 481.785 132 498.481 132C515.177 132 523.104 170.876 523.104 170.876H470.916Z" fill="white" stroke="black" stroke-width="0.5" stroke-linecap="round" stroke-linejoin="round"/>
<path d="M574.038 170.877H465.785C465.785 170.877 467.387 167.237 471.446 165.469C475.505 163.709 480.626 165.017 483.987 162.48C487.356 159.943 489.093 157.5 493.984 156.018C498.868 154.535 503.672 156.2 508.468 154.162C513.193 152.156 517.323 151.514 519.916 151.498C522.508 151.514 526.638 152.156 531.363 154.162C536.16 156.2 540.956 154.535 545.847 156.018C550.739 157.5 552.475 159.943 555.844 162.48C559.214 165.017 564.335 163.709 568.386 165.469C572.445 167.229 574.046 170.877 574.046 170.877H574.038Z" fill="white" stroke="black" stroke-width="0.5" stroke-linecap="round" stroke-linejoin="round"/>
<path fill-rule="evenodd" clip-rule="evenodd" d="M412.946 162.502C412.946 159.251 411.519 153.725 409.759 153.725C407.999 153.725 406.572 159.259 406.572 162.502C406.572 165.484 407.777 165.309 409.339 165.468V170.875H410.179V165.468C411.741 165.309 412.946 165.491 412.946 162.502Z" fill="white" stroke="black" stroke-width="0.5" stroke-linecap="round" stroke-linejoin="round"/>
<path fill-rule="evenodd" clip-rule="evenodd" d="M425.094 160.798C425.094 156.889 423.374 150.229 421.257 150.229C419.14 150.229 417.42 156.889 417.42 160.798C417.42 164.39 418.871 164.176 420.75 164.366V170.876H421.764V164.366C423.643 164.176 425.094 164.39 425.094 160.798Z" fill="white" stroke="black" stroke-width="0.5" stroke-linecap="round" stroke-linejoin="round"/>
<path d="M493.422 168.514C491.773 167.007 490.322 165.303 489.085 163.455H492.478C490.853 161.964 489.45 160.268 488.292 158.396H491.535C489.537 156.565 487.936 154.353 486.818 151.887L486.643 151.498L486.469 151.887C485.351 154.353 483.742 156.565 481.752 158.396H484.994C483.837 160.26 482.434 161.964 480.809 163.455H484.202C482.965 165.303 481.514 166.999 479.865 168.514H485.692V170.877H487.603V168.514H493.43H493.422Z" fill="white" stroke="black" stroke-width="0.5" stroke-linecap="round" stroke-linejoin="round"/>
<path d="M458.215 168.35C456.455 166.732 454.901 164.916 453.577 162.942H457.208C455.472 161.348 453.966 159.525 452.729 157.534H456.201C454.069 155.576 452.348 153.205 451.151 150.565L450.961 150.145L450.771 150.565C449.574 153.205 447.853 155.576 445.721 157.534H449.193C447.956 159.533 446.45 161.348 444.714 162.942H448.345C447.021 164.916 445.467 166.74 443.707 168.35H449.938V170.879H451.984V168.35H458.215Z" fill="#10A56C" stroke="black" stroke-width="0.5" stroke-linecap="round" stroke-linejoin="round"/>
<path d="M552.309 167.934C550.264 166.055 548.457 163.945 546.926 161.654H551.144C549.13 159.806 547.378 157.689 545.943 155.374H549.971C547.489 153.098 545.5 150.347 544.104 147.286L543.882 146.803L543.66 147.286C542.273 150.347 540.275 153.106 537.794 155.374H541.821C540.386 157.689 538.642 159.806 536.62 161.654H540.838C539.308 163.953 537.5 166.063 535.455 167.934H542.693V170.868H545.063V167.934H552.302H552.309Z" fill="white" stroke="black" stroke-width="0.5" stroke-linecap="round" stroke-linejoin="round"/>
<path d="M604 170.677C604 170.677 557.559 170.416 563.045 173.571C568.531 176.727 549.322 177.25 552.715 180.644C556.116 184.046 567.184 186.163 604 186.163" fill="white"/>
<path d="M604 170.677C604 170.677 557.559 170.416 563.045 173.571C568.531 176.727 549.322 177.25 552.715 180.644C556.116 184.046 567.184 186.163 604 186.163" stroke="black" stroke-width="0.5" stroke-linecap="round" stroke-linejoin="round"/>
<path d="M389.709 180.552V160.689" stroke="black" stroke-width="0.5" stroke-linecap="round" stroke-linejoin="round"/>
<path d="M396.422 148.826H383V162.25H396.422V148.826Z" fill="white" stroke="black" stroke-width="0.5" stroke-linecap="round" stroke-linejoin="round"/>
<path d="M395.519 149.721H383.889V161.353H395.519V149.721Z" fill="#00A6BF" stroke="black" stroke-width="0.5" stroke-linecap="round" stroke-linejoin="round"/>
<path d="M392.743 154.291C392.743 155.869 391.689 156.535 390.278 156.535H388.78V158.954H387.416V152.135H390.397C391.681 152.135 392.743 152.848 392.743 154.299V154.291ZM391.34 154.323C391.34 153.729 390.952 153.459 390.349 153.459H388.78V155.211H390.365C390.999 155.211 391.34 154.918 391.34 154.323Z" fill="white"/>
<path d="M587.589 170.638C586.527 171.423 585.369 172.065 584.14 172.533C582.499 173.167 580.739 173.492 578.948 173.492H569.133C566.01 173.492 562.981 172.485 560.492 170.638C560.119 170.36 560.31 169.773 560.777 169.773H587.303C587.763 169.773 587.961 170.36 587.589 170.638Z" fill="white" stroke="black" stroke-width="0.5" stroke-linecap="round" stroke-linejoin="round"/>
<path d="M570.669 168.337V169.772H569.266L569.385 169.574C569.567 169.265 569.67 168.908 569.67 168.551V168.345C569.67 168.068 569.892 167.846 570.17 167.846C570.304 167.846 570.431 167.901 570.526 167.996C570.622 168.091 570.677 168.21 570.677 168.353L570.669 168.337Z" fill="#A5A5A5" stroke="black" stroke-width="0.5" stroke-linecap="round" stroke-linejoin="round"/>
<path d="M578.814 168.337V169.772H577.41L577.529 169.574C577.711 169.265 577.815 168.908 577.815 168.551V168.345C577.815 168.068 578.037 167.846 578.314 167.846C578.449 167.846 578.576 167.901 578.671 167.996C578.758 168.084 578.822 168.21 578.822 168.353L578.814 168.337Z" fill="#A5A5A5" stroke="black" stroke-width="0.5" stroke-linecap="round" stroke-linejoin="round"/>
<path d="M569.49 171.289L571.306 171.987L573.129 171.289L574.952 171.987L576.776 171.289L578.591 171.987" stroke="black" stroke-width="0.5" stroke-linecap="round" stroke-linejoin="round"/>
<path d="M569.487 171.595C569.658 171.595 569.796 171.457 569.796 171.286C569.796 171.115 569.658 170.977 569.487 170.977C569.316 170.977 569.178 171.115 569.178 171.286C569.178 171.457 569.316 171.595 569.487 171.595Z" fill="black" stroke="black" stroke-width="0.5" stroke-linecap="round" stroke-linejoin="round"/>
<path d="M578.589 172.294C578.759 172.294 578.898 172.156 578.898 171.985C578.898 171.814 578.759 171.676 578.589 171.676C578.418 171.676 578.279 171.814 578.279 171.985C578.279 172.156 578.418 172.294 578.589 172.294Z" fill="black" stroke="black" stroke-width="0.5" stroke-linecap="round" stroke-linejoin="round"/>
<path d="M481.012 184.51V214.46H434V203.27C434 200.58 435.79 198.21 438.379 197.47L439.589 197.13L440.529 196.86L447.758 194.79C449.527 194.28 451.217 193.52 452.757 192.54C453.787 191.89 454.756 191.13 455.646 190.29L459.536 186.6C460.945 185.26 462.825 184.51 464.775 184.51H481.022H481.012Z" fill="white" stroke="black" stroke-width="0.5" stroke-linecap="round" stroke-linejoin="round"/>
<path d="M434 204.089C437.599 204.089 440.519 201.169 440.519 197.569V196.859" fill="white"/>
<path d="M434 204.089C437.599 204.089 440.519 201.169 440.519 197.569V196.859" stroke="black" stroke-width="0.5" stroke-linecap="round" stroke-linejoin="round"/>
<path d="M519.845 187.67V198.23H491.65C487.74 198.23 483.961 196.81 481.012 194.23V184.51H516.685C518.425 184.51 519.845 185.92 519.845 187.67Z" fill="white" stroke="black" stroke-width="0.5" stroke-linecap="round" stroke-linejoin="round"/>
<path d="M500.428 198.23V214.47H481.012V194.24C483.961 196.82 487.73 198.24 491.65 198.24H500.428V198.23Z" fill="white" stroke="black" stroke-width="0.5" stroke-linecap="round" stroke-linejoin="round"/>
<path d="M519.844 198.23V211.31C519.844 213.05 518.435 214.47 516.685 214.47H500.428V198.23H519.844Z" fill="white" stroke="black" stroke-width="0.5" stroke-linecap="round" stroke-linejoin="round"/>
<path d="M519.845 210.209V211.309C519.845 213.049 518.435 214.469 516.686 214.469H434V210.209H519.845Z" fill="#A5A5A5" stroke="black" stroke-width="0.5" stroke-linecap="round" stroke-linejoin="round"/>
<path d="M450.988 220.989C454.588 220.989 457.507 218.07 457.507 214.469C457.507 210.868 454.588 207.949 450.988 207.949C447.387 207.949 444.469 210.868 444.469 214.469C444.469 218.07 447.387 220.989 450.988 220.989Z" fill="white" stroke="black" stroke-width="0.5" stroke-linecap="round" stroke-linejoin="round"/>
<path d="M450.987 217.86C452.859 217.86 454.376 216.342 454.376 214.47C454.376 212.598 452.859 211.08 450.987 211.08C449.115 211.08 447.598 212.598 447.598 214.47C447.598 216.342 449.115 217.86 450.987 217.86Z" fill="white" stroke="black" stroke-width="0.5" stroke-linecap="round" stroke-linejoin="round"/>
<path d="M509.017 220.989C512.617 220.989 515.536 218.07 515.536 214.469C515.536 210.868 512.617 207.949 509.017 207.949C505.417 207.949 502.498 210.868 502.498 214.469C502.498 218.07 505.417 220.989 509.017 220.989Z" fill="white" stroke="black" stroke-width="0.5" stroke-linecap="round" stroke-linejoin="round"/>
<path d="M509.016 217.86C510.888 217.86 512.406 216.342 512.406 214.47C512.406 212.598 510.888 211.08 509.016 211.08C507.144 211.08 505.627 212.598 505.627 214.47C505.627 216.342 507.144 217.86 509.016 217.86Z" fill="white" stroke="black" stroke-width="0.5" stroke-linecap="round" stroke-linejoin="round"/>
<path d="M452.746 192.55C452.746 195.69 455.286 198.23 458.425 198.23H471.923C475.062 198.23 477.602 195.69 477.602 192.55V184.51" stroke="black" stroke-width="0.5" stroke-linecap="round" stroke-linejoin="round"/>
<path d="M468.653 204.5C468.243 204.5 467.873 204.41 467.543 204.22C467.213 204.04 466.953 203.78 466.753 203.46C466.553 203.14 466.463 202.78 466.463 202.37C466.463 201.96 466.563 201.6 466.753 201.28C466.953 200.96 467.213 200.7 467.543 200.52C467.873 200.33 468.253 200.24 468.673 200.24C468.983 200.24 469.273 200.3 469.533 200.41C469.793 200.52 470.023 200.69 470.233 200.9L469.443 201.71C469.353 201.6 469.233 201.52 469.113 201.47C468.983 201.42 468.843 201.39 468.683 201.39C468.493 201.39 468.333 201.43 468.193 201.51C468.053 201.59 467.943 201.71 467.863 201.85C467.783 202 467.743 202.17 467.743 202.37C467.743 202.57 467.783 202.73 467.863 202.88C467.943 203.03 468.063 203.15 468.203 203.23C468.343 203.31 468.513 203.35 468.693 203.35C468.863 203.35 469.013 203.32 469.143 203.27C469.273 203.21 469.383 203.13 469.473 203.01L470.263 203.82C470.053 204.04 469.823 204.21 469.553 204.33C469.293 204.44 468.993 204.5 468.663 204.5" fill="#10A56C"/>
<path d="M473.183 200.34V200.69C473.073 200.59 472.953 200.5 472.813 200.43C472.593 200.32 472.343 200.26 472.073 200.26C471.703 200.26 471.373 200.35 471.083 200.54C470.793 200.73 470.563 200.98 470.393 201.3C470.223 201.62 470.143 201.98 470.143 202.39C470.143 202.8 470.223 203.15 470.393 203.47C470.563 203.79 470.783 204.04 471.073 204.22C471.363 204.4 471.693 204.5 472.063 204.5C472.343 204.5 472.583 204.45 472.803 204.34C472.943 204.27 473.073 204.18 473.173 204.08V204.42H474.383V200.34H473.173H473.183ZM472.993 203.09C472.823 203.27 472.603 203.36 472.323 203.36C472.143 203.36 471.993 203.32 471.853 203.23C471.713 203.15 471.603 203.03 471.523 202.89C471.443 202.74 471.403 202.58 471.403 202.39C471.403 202.2 471.443 202.02 471.523 201.87C471.603 201.72 471.713 201.61 471.853 201.52C471.993 201.44 472.153 201.39 472.333 201.39C472.513 201.39 472.673 201.43 472.813 201.52C472.953 201.6 473.053 201.72 473.133 201.86C473.213 202.01 473.253 202.18 473.253 202.37C473.253 202.66 473.173 202.9 473.003 203.08L472.993 203.09Z" fill="#00A2BB"/>
<path d="M477.382 200.26C477.302 200.24 477.222 200.24 477.132 200.24C476.922 200.24 476.721 200.29 476.531 200.39C476.341 200.49 476.182 200.63 476.042 200.81C476.002 200.86 475.972 200.9 475.942 200.95L475.922 200.33H474.771V204.41H475.982V202.36C475.982 202.24 476.002 202.13 476.042 202.03C476.082 201.93 476.132 201.85 476.202 201.78C476.272 201.71 476.352 201.65 476.442 201.61C476.542 201.57 476.642 201.55 476.752 201.55C476.852 201.55 476.952 201.56 477.042 201.58C477.132 201.6 477.212 201.63 477.262 201.67L477.591 200.31C477.521 200.29 477.452 200.27 477.372 200.26H477.382Z" fill="#8080B4"/>
<path d="M465.004 200.33V202.64C465.004 203.03 464.694 203.34 464.314 203.34C463.934 203.34 463.624 203.02 463.624 202.64V200.33H462.404V202.55C462.404 203.62 463.264 204.5 464.324 204.5C465.384 204.5 466.244 203.63 466.244 202.55V200.33H465.024H465.004Z" fill="#EB664E"/>
<path d="M520.114 178.699C517.955 180.299 515.595 181.599 513.105 182.549C509.766 183.829 506.187 184.509 502.547 184.509H482.581C476.232 184.509 470.073 182.459 465.014 178.699C464.254 178.139 464.654 176.939 465.594 176.939H519.534C520.474 176.939 520.874 178.139 520.114 178.699Z" fill="white" stroke="black" stroke-width="0.5" stroke-linecap="round" stroke-linejoin="round"/>
<path d="M485.711 174.02V176.94H482.861L483.101 176.53C483.481 175.9 483.671 175.18 483.671 174.44V174.02C483.671 173.46 484.131 173 484.691 173C484.971 173 485.231 173.11 485.411 173.3C485.591 173.49 485.711 173.74 485.711 174.02Z" fill="#A5A5A5" stroke="black" stroke-width="0.5" stroke-linecap="round" stroke-linejoin="round"/>
<path d="M502.268 174.02V176.94H499.418L499.658 176.53C500.038 175.9 500.228 175.18 500.228 174.44V174.02C500.228 173.46 500.688 173 501.248 173C501.528 173 501.788 173.11 501.968 173.3C502.148 173.48 502.268 173.74 502.268 174.02Z" fill="#A5A5A5" stroke="black" stroke-width="0.5" stroke-linecap="round" stroke-linejoin="round"/>
<path d="M483.301 180.02L487.01 181.43L490.709 180.02L494.409 181.43L498.118 180.02L501.818 181.43" stroke="black" stroke-width="0.5" stroke-linecap="round" stroke-linejoin="round"/>
<path d="M483.3 180.661C483.654 180.661 483.94 180.374 483.94 180.021C483.94 179.667 483.654 179.381 483.3 179.381C482.947 179.381 482.66 179.667 482.66 180.021C482.66 180.374 482.947 180.661 483.3 180.661Z" fill="black" stroke="black" stroke-width="0.5" stroke-linecap="round" stroke-linejoin="round"/>
<path d="M501.818 182.069C502.171 182.069 502.458 181.783 502.458 181.429C502.458 181.076 502.171 180.789 501.818 180.789C501.464 180.789 501.178 181.076 501.178 181.429C501.178 181.783 501.464 182.069 501.818 182.069Z" fill="black" stroke="black" stroke-width="0.5" stroke-linecap="round" stroke-linejoin="round"/>
<path d="M511.547 190.369C511.547 190.369 510.557 188.399 510.837 186.999C511.157 185.409 512.767 184.439 512.767 185.899C512.767 188.399 513.867 188.229 513.867 188.229C513.867 188.229 514.287 187.329 514.747 187.699C515.107 187.989 514.337 189.499 514.337 189.499L511.547 190.369Z" fill="white" stroke="black" stroke-width="0.5" stroke-linecap="round" stroke-linejoin="round"/>
<path d="M528.384 203.139C528.384 203.139 528.104 205.389 528.514 206.389C528.924 207.389 529.164 205.099 529.164 205.099C529.164 205.099 529.484 205.529 529.824 205.589C530.214 205.649 530.764 205.559 531.124 205.029C531.484 204.499 531.224 203.479 531.224 203.479L528.384 203.149V203.139Z" fill="white" stroke="black" stroke-width="0.5" stroke-linecap="round" stroke-linejoin="round"/>
<path d="M520.964 204.09C520.964 204.09 517.605 207.74 517.235 214.18C517.105 216.5 517.805 219.18 516.735 219.18C513.986 219.18 514.216 220.61 514.216 220.61H518.195C518.765 220.61 519.255 220.19 519.345 219.62L519.655 217.55L520.385 220.6H521.005C521.005 220.6 520.125 216.15 520.914 212.34C521.714 208.52 524.894 205.36 524.894 205.36L520.964 204.07V204.09Z" fill="black" stroke="black" stroke-width="0.5" stroke-linecap="round" stroke-linejoin="round"/>
<path d="M521.725 205.1C521.725 205.1 522.135 207.13 524.164 213.71C524.854 215.93 526.054 219.18 524.974 219.18C522.225 219.18 522.455 220.61 522.455 220.61H526.434C527.004 220.61 527.494 220.19 527.584 219.62L527.774 218.37L528.624 220.6H529.244C529.244 220.6 528.084 215.91 527.154 212.12C526.124 207.9 526.194 204.74 526.194 204.74L521.715 205.09L521.725 205.1Z" fill="black" stroke="black" stroke-width="0.5" stroke-linecap="round" stroke-linejoin="round"/>
<path d="M514.547 189.27C515.287 192.07 517.036 194.55 521.606 194.14L527.185 193.64C527.185 193.64 530.544 192.84 531.234 203.47L528.404 203.64C528.354 201.27 528.094 197.93 527.085 196.93L526.485 206.95L517.936 206.35L519.516 197.71C519.516 197.71 513.227 199.4 511.357 190.33L514.557 189.28L514.547 189.27Z" fill="white" stroke="black" stroke-width="0.5" stroke-linecap="round" stroke-linejoin="round"/>
<path d="M519.584 189.76L522.564 191.13L524.384 191.97L527.363 193.34C527.543 193.42 527.723 193.46 527.903 193.46C528.393 193.46 528.873 193.18 529.093 192.7C529.393 192.04 529.103 191.27 528.453 190.97L525.473 189.6L523.654 188.76L520.674 187.39C520.494 187.31 520.314 187.27 520.134 187.27C519.644 187.27 519.165 187.55 518.945 188.03C518.645 188.69 518.935 189.46 519.584 189.76Z" fill="white" stroke="black" stroke-width="0.5" stroke-linecap="round" stroke-linejoin="round"/>
<path d="M525.935 188.889H520.895L520.285 192.049H521.005V193.009C521.005 193.939 521.755 194.689 522.685 194.689H522.905C523.835 194.689 524.585 193.939 524.585 193.009" fill="white"/>
<path d="M525.935 188.889H520.895L520.285 192.049H521.005V193.009C521.005 193.939 521.755 194.689 522.685 194.689H522.905C523.835 194.689 524.585 193.939 524.585 193.009" stroke="black" stroke-width="0.5" stroke-linecap="round" stroke-linejoin="round"/>
<path d="M527.712 195.369C527.243 193.819 526.693 191.619 526.853 190.009L527.063 187.789L524.243 188.319C524.203 188.259 524.163 188.199 524.113 188.139C523.383 187.189 522.153 186.919 521.364 187.529C520.574 188.139 520.544 188.979 521.394 189.819C521.943 190.369 523.213 191.219 523.763 191.299C524.953 192.259 524.353 194.109 524.753 195.479C524.823 195.729 524.983 196.129 524.983 196.129L527.722 195.369H527.712Z" fill="black" stroke="black" stroke-width="0.5" stroke-linecap="round" stroke-linejoin="round"/>
<path d="M523.123 191.209C523.243 190.919 523.503 190.689 523.833 190.629C524.343 190.549 524.813 190.889 524.903 191.389C524.993 191.889 524.643 192.369 524.143 192.459" fill="white"/>
<path d="M523.123 191.209C523.243 190.919 523.503 190.689 523.833 190.629C524.343 190.549 524.813 190.889 524.903 191.389C524.993 191.889 524.643 192.369 524.143 192.459" stroke="black" stroke-width="0.5" stroke-linecap="round" stroke-linejoin="round"/>
<path d="M521.135 187.569L523.914 188.849L525.924 189.769L528.703 191.049L528.603 190.679C528.424 190.049 528.304 189.419 528.194 188.769C528.104 188.229 527.694 187.769 527.124 187.639C526.694 187.539 526.284 187.399 525.884 187.219C525.484 187.039 525.104 186.819 524.754 186.549C524.504 186.369 524.214 186.279 523.924 186.279C523.654 186.279 523.384 186.359 523.154 186.509C522.595 186.879 521.985 187.179 521.375 187.469L521.145 187.579L521.135 187.569Z" fill="white" stroke="black" stroke-width="0.5" stroke-linecap="round" stroke-linejoin="round"/>
<path d="M521.464 191.37C521.586 191.37 521.684 191.271 521.684 191.15C521.684 191.028 521.586 190.93 521.464 190.93C521.343 190.93 521.244 191.028 521.244 191.15C521.244 191.271 521.343 191.37 521.464 191.37Z" fill="black"/>
<path d="M521.014 192.67C521.084 192.71 521.164 192.73 521.244 192.73C521.524 192.73 521.724 192.65 521.814 192.33" fill="white"/>
<path d="M521.014 192.67C521.084 192.71 521.164 192.73 521.244 192.73C521.524 192.73 521.724 192.65 521.814 192.33" stroke="black" stroke-width="0.5" stroke-linecap="round" stroke-linejoin="round"/>
<path d="M541.372 220.61H541.912C541.912 220.61 541.142 216.75 541.832 213.43C542.521 210.12 545.291 207.37 545.291 207.37L541.881 206.25C541.881 206.25 538.962 209.42 538.642 215.01C538.522 217.03 539.142 219.36 538.212 219.36C537.082 219.36 537.192 220.6 537.192 220.6H541.382L541.372 220.61Z" fill="black" stroke="black" stroke-width="0.5" stroke-linecap="round" stroke-linejoin="round"/>
<path d="M546.552 220.61H547.092C547.092 220.61 545.532 216.76 545.922 213.4C546.312 210.03 545.782 207.37 545.782 207.37L542.372 206.25C542.372 206.25 543.052 209.39 542.732 214.98C542.612 217 544.322 219.36 543.392 219.36C542.262 219.36 542.372 220.6 542.372 220.6H546.562L546.552 220.61Z" fill="black" stroke="black" stroke-width="0.5" stroke-linecap="round" stroke-linejoin="round"/>
<path d="M544.62 197.869C546.35 199.289 546.68 202.929 546.36 206.109C546.26 207.079 546.26 207.949 546.27 208.829L539.871 207.999C540.021 206.659 540.351 205.349 540.831 204.089C541.561 202.169 542.131 200.559 542.091 198.209" fill="white"/>
<path d="M544.62 197.869C546.35 199.289 546.68 202.929 546.36 206.109C546.26 207.079 546.26 207.949 546.27 208.829L539.871 207.999C540.021 206.659 540.351 205.349 540.831 204.089C541.561 202.169 542.131 200.559 542.091 198.209" stroke="black" stroke-width="0.5" stroke-linecap="round" stroke-linejoin="round"/>
<path d="M544.62 202.03C543.47 204.37 541.56 205.6 539.321 206.67L538.891 204.03C541.88 202.26 543.38 200.01 543.38 200.01" fill="white"/>
<path d="M544.62 202.03C543.47 204.37 541.56 205.6 539.321 206.67L538.891 204.03C541.88 202.26 543.38 200.01 543.38 200.01" stroke="black" stroke-width="0.5" stroke-linecap="round" stroke-linejoin="round"/>
<path d="M534.133 195.679L541.052 214.849L541.862 214.479L535.163 195.199L534.133 195.679Z" fill="white" stroke="black" stroke-width="0.5" stroke-linecap="round" stroke-linejoin="round"/>
<path d="M540.821 217.929L540.371 214.199L542.081 213.689L543.761 217.049C543.891 217.299 543.761 217.609 543.481 217.689L541.411 218.309C541.141 218.389 540.861 218.209 540.821 217.929Z" fill="white" stroke="black" stroke-width="0.5" stroke-linecap="round" stroke-linejoin="round"/>
<path d="M541.242 213.939L541.922 215.949" stroke="black" stroke-width="0.5" stroke-linecap="round" stroke-linejoin="round"/>
<path d="M532.313 193.349L534.143 196.629L535.833 196.039L535.203 192.339C535.153 192.059 534.863 191.889 534.603 191.979L532.563 192.699C532.293 192.789 532.173 193.109 532.313 193.359V193.349Z" fill="white" stroke="black" stroke-width="0.5" stroke-linecap="round" stroke-linejoin="round"/>
<path d="M535.003 196.319L534.363 194.299" stroke="black" stroke-width="0.5" stroke-linecap="round" stroke-linejoin="round"/>
<path d="M537.892 207.3L539.312 206.67L538.882 204.03C538.882 204.03 537.482 203.91 537.642 204.5C537.802 205.09 538.232 205.25 538.232 205.25L537.162 205.87C536.752 206.11 536.632 206.65 536.912 207.03C537.132 207.34 537.542 207.45 537.882 207.29L537.892 207.3Z" fill="white" stroke="black" stroke-width="0.5" stroke-linecap="round" stroke-linejoin="round"/>
<path d="M546.591 192.391H540.492L539.762 196.211H540.632V197.381C540.632 198.511 541.541 199.421 542.671 199.421H542.941C544.071 199.421 544.981 198.511 544.981 197.381L546.601 192.391H546.591Z" fill="white" stroke="black" stroke-width="0.5" stroke-linecap="round" stroke-linejoin="round"/>
<path d="M543.932 194.65L544.862 198.02L546.482 195.24L543.932 194.65Z" fill="black" stroke="black" stroke-width="0.5" stroke-linecap="round" stroke-linejoin="round"/>
<path d="M541.012 195.661C541.161 195.661 541.282 195.54 541.282 195.391C541.282 195.242 541.161 195.121 541.012 195.121C540.863 195.121 540.742 195.242 540.742 195.391C540.742 195.54 540.863 195.661 541.012 195.661Z" fill="black"/>
<path d="M546.711 192.56C546.711 194.12 545.651 194.8 543.932 194.8C542.212 194.8 541.232 194.14 540.462 192.56C540.162 191.95 541.982 191.59 543.712 191.59C545.441 191.59 546.721 191 546.721 192.56H546.711Z" fill="black" stroke="black" stroke-width="0.5" stroke-linecap="round" stroke-linejoin="round"/>
<path d="M546.712 195.82C548.247 195.82 549.492 194.575 549.492 193.04C549.492 191.504 548.247 190.26 546.712 190.26C545.176 190.26 543.932 191.504 543.932 193.04C543.932 194.575 545.176 195.82 546.712 195.82Z" fill="black" stroke="black" stroke-width="0.5" stroke-linecap="round" stroke-linejoin="round"/>
<path d="M540.631 196.73C540.631 196.73 540.831 197.34 541.641 196.68L540.631 196.73Z" fill="white"/>
<path d="M540.631 196.73C540.631 196.73 540.831 197.34 541.641 196.68" stroke="black" stroke-width="0.5" stroke-linecap="round" stroke-linejoin="round"/>
<path d="M543.422 194.859C543.582 194.709 543.782 194.609 544.002 194.609C544.622 194.609 545.122 195.109 545.122 195.729C545.122 196.349 544.622 196.849 544.002 196.849" fill="white"/>
<path d="M543.422 194.859C543.582 194.709 543.782 194.609 544.002 194.609C544.622 194.609 545.122 195.109 545.122 195.729C545.122 196.349 544.622 196.849 544.002 196.849" stroke="black" stroke-width="0.5" stroke-linecap="round" stroke-linejoin="round"/>
<path d="M511.346 190.32L514.546 189.27" stroke="black" stroke-width="0.5" stroke-linecap="round" stroke-linejoin="round"/>
<path d="M521.392 69.4376H495.88C476.832 69.4376 461.334 53.9367 461.334 34.8858C461.334 15.8349 476.832 0.333984 495.88 0.333984H551.121C570.169 0.333984 585.667 15.8349 585.667 34.8858C585.667 48.7653 577.374 61.2568 564.538 66.7085C552.289 71.9133 541.841 78.9798 533.468 87.7145L522.099 99.5854L521.399 69.4376H521.392Z" fill="white"/>
<path d="M551.114 0.667281C569.975 0.667281 585.326 16.0148 585.326 34.8855C585.326 48.6315 577.113 61.0029 564.397 66.4012C552.108 71.626 541.62 78.7192 533.221 87.4873L522.406 98.7777L521.732 69.7576L521.719 69.1037H495.879C477.012 69.1037 461.667 53.7562 461.667 34.8855C461.667 16.0148 477.012 0.667281 495.879 0.667281H551.121M551.121 0H495.879C476.698 0 461 15.7011 461 34.8855C461 54.0698 476.698 69.7709 495.879 69.7709H521.065L521.779 100.399L533.708 87.9477C542.421 78.8526 553.069 71.9463 564.664 67.0151C577.173 61.7035 586 49.2721 586 34.8855C586 15.7011 570.308 0 551.121 0Z" fill="black"/>
<path d="M518.527 33.3936C516.843 33.3936 515.332 33.0158 513.987 32.2681C512.641 31.5126 511.571 30.4815 510.776 29.175C509.981 27.8685 509.58 26.3889 509.58 24.7439C509.58 23.099 509.981 21.5957 510.776 20.2814C511.571 18.967 512.649 17.936 514.01 17.1725C515.372 16.4091 516.898 16.0234 518.606 16.0234C519.889 16.0234 521.061 16.2517 522.123 16.7082C523.186 17.1647 524.138 17.8336 524.964 18.723L521.73 22.005C521.344 21.5485 520.896 21.218 520.369 21.0133C519.841 20.8087 519.251 20.7064 518.598 20.7064C517.835 20.7064 517.166 20.8717 516.599 21.2022C516.025 21.5328 515.576 21.9971 515.238 22.6032C514.9 23.2092 514.734 23.9097 514.734 24.7046C514.734 25.4995 514.9 26.1764 515.238 26.7903C515.576 27.4042 516.033 27.8764 516.615 28.2069C517.197 28.5375 517.858 28.7028 518.598 28.7028C519.291 28.7028 519.904 28.5926 520.432 28.3644C520.959 28.1361 521.415 27.7819 521.793 27.3018L525.027 30.6153C524.177 31.5283 523.217 32.213 522.147 32.6853C521.085 33.1496 519.873 33.3857 518.527 33.3857" fill="#10A96C"/>
<path d="M536.979 16.4009V17.8176C536.547 17.4005 536.043 17.0384 535.469 16.7472C534.572 16.2907 533.572 16.0625 532.47 16.0625C530.967 16.0625 529.622 16.4403 528.434 17.2037C527.245 17.9672 526.317 18.9982 525.64 20.2968C524.963 21.5954 524.633 23.0751 524.633 24.7436C524.633 26.4122 524.971 27.8525 525.64 29.1511C526.317 30.4497 527.237 31.4729 528.418 32.2285C529.598 32.984 530.936 33.354 532.439 33.354C533.564 33.354 534.572 33.1336 535.469 32.7007C536.051 32.4174 536.555 32.0632 536.979 31.6382V33.0076H541.929V16.3931H536.979V16.4009ZM536.185 27.6006C535.5 28.3405 534.587 28.7104 533.438 28.7104C532.722 28.7104 532.077 28.5372 531.518 28.1988C530.96 27.8604 530.511 27.3881 530.188 26.7978C529.866 26.2076 529.701 25.5228 529.701 24.7436C529.701 23.9645 529.866 23.2483 530.188 22.6422C530.511 22.0362 530.96 21.564 531.518 21.2255C532.077 20.8871 532.73 20.714 533.47 20.714C534.21 20.714 534.863 20.8871 535.421 21.2255C535.98 21.564 536.421 22.0362 536.736 22.6265C537.05 23.2168 537.208 23.9172 537.208 24.7122C537.208 25.9006 536.869 26.8608 536.185 27.6006Z" fill="#00A6BF"/>
<path d="M554.112 16.0944C553.789 16.0315 553.451 16 553.073 16C552.207 16 551.397 16.2125 550.634 16.6296C549.87 17.0468 549.209 17.6134 548.643 18.3218C548.493 18.5107 548.359 18.6996 548.234 18.8963L548.131 16.3857H543.465V33.0081H548.415V24.6575C548.415 24.1538 548.493 23.7052 548.643 23.3038C548.8 22.9103 549.005 22.564 549.28 22.2649C549.548 21.9737 549.878 21.7455 550.272 21.588C550.665 21.4306 551.082 21.3519 551.539 21.3519C551.948 21.3519 552.349 21.3992 552.727 21.4936C553.105 21.588 553.411 21.7061 553.64 21.8556L555.001 16.2991C554.733 16.2125 554.442 16.1417 554.12 16.0787L554.112 16.0944Z" fill="#8280B8"/>
<path d="M503.631 16.3789V25.8156C503.631 27.3976 502.364 28.6883 500.806 28.6883C499.248 28.6883 497.981 27.4055 497.981 25.8156V16.3789H493V25.4378C493 29.8138 496.502 33.3713 500.806 33.3713C505.111 33.3713 508.612 29.8138 508.612 25.4378V16.3789H503.631Z" fill="#EF664E"/>
<path d="M493.229 52.935V38.9728H496.258L503.576 48.9447L502.915 48.8424C502.852 48.4016 502.797 47.9845 502.758 47.5831C502.719 47.1817 502.679 46.7882 502.648 46.4025C502.616 46.0169 502.585 45.6233 502.569 45.2219C502.553 44.8205 502.538 44.3877 502.53 43.9233C502.53 43.4589 502.522 42.9552 502.522 42.4043V38.957H505.811V52.9193H502.742L495.101 42.6247L496.116 42.7663C496.179 43.4039 496.242 43.9469 496.29 44.3955C496.337 44.8442 496.376 45.2377 496.408 45.584C496.439 45.9303 496.463 46.2451 496.478 46.5206C496.494 46.8039 496.502 47.0794 496.51 47.347C496.51 47.6224 496.518 47.9215 496.518 48.2521V52.9193H493.229V52.935Z" fill="black"/>
<path d="M509.32 52.9349V38.9727H519.054V41.8611H512.61V50.0386H519.251V52.927H509.32V52.9349ZM510.918 47.2131V44.4584H518.157V47.2131H510.918Z" fill="black"/>
<path d="M524.7 52.9349L520.514 38.9727H523.96L526.054 46.3158C526.148 46.6464 526.227 46.9848 526.305 47.3232C526.384 47.6617 526.439 47.9844 526.486 48.2913C526.534 48.5983 526.573 48.8816 526.596 49.1413C526.62 49.401 526.652 49.6136 526.675 49.7867H526.235C526.313 49.2987 526.384 48.858 526.447 48.4723C526.51 48.0867 526.573 47.7246 526.659 47.3862C526.746 47.0478 526.84 46.6936 526.958 46.3158L529.036 40.7907H531.751L533.781 46.3158C533.938 46.7566 534.072 47.1658 534.182 47.5515C534.292 47.9371 534.371 48.3071 534.434 48.6612C534.497 49.0154 534.544 49.3617 534.584 49.708L534.182 49.771C534.206 49.5348 534.23 49.3066 534.245 49.102C534.261 48.8973 534.277 48.7006 534.292 48.5038C534.308 48.3071 534.332 48.1103 534.363 47.8978C534.387 47.6853 534.426 47.4492 534.481 47.1894C534.536 46.9297 534.607 46.6306 534.702 46.3001L536.779 38.9805H540.147L535.961 52.9428H533.372L530.059 44.907L530.437 44.9464L527.383 52.9428H524.708L524.7 52.9349Z" fill="black"/>
<path d="M546.414 53.1399C545.493 53.1399 544.667 53.0297 543.928 52.8093C543.188 52.589 542.535 52.2741 541.96 51.8491C541.386 51.4241 540.874 50.9362 540.426 50.3616L542.48 48.032C543.141 48.9213 543.81 49.5195 544.486 49.8264C545.155 50.1334 545.855 50.2829 546.572 50.2829C546.934 50.2829 547.256 50.2357 547.547 50.1412C547.838 50.0468 548.067 49.913 548.224 49.732C548.381 49.551 548.46 49.3306 548.46 49.063C548.46 48.8662 548.413 48.6852 548.311 48.5278C548.208 48.3704 548.075 48.2287 547.901 48.1107C547.728 47.9926 547.524 47.8824 547.28 47.7801C547.044 47.6778 546.784 47.5912 546.524 47.5204C546.257 47.4495 545.989 47.3866 545.706 47.3315C544.935 47.1583 544.266 46.9458 543.691 46.694C543.117 46.4421 542.645 46.1352 542.267 45.7653C541.889 45.3953 541.606 44.9782 541.417 44.506C541.228 44.0337 541.134 43.5064 541.134 42.924C541.134 42.3022 541.276 41.7277 541.559 41.2004C541.842 40.673 542.228 40.2244 542.716 39.8466C543.204 39.4689 543.762 39.1777 544.4 38.9652C545.037 38.7605 545.706 38.6582 546.391 38.6582C547.311 38.6582 548.098 38.7527 548.751 38.9494C549.412 39.1462 549.971 39.4216 550.443 39.7758C550.915 40.13 551.317 40.5707 551.647 41.0744L549.554 43.0893C549.279 42.743 548.972 42.4596 548.649 42.2314C548.319 42.0032 547.98 41.83 547.61 41.712C547.248 41.5939 546.871 41.5309 546.485 41.5309C546.099 41.5309 545.745 41.5782 545.454 41.6805C545.171 41.7828 544.943 41.9166 544.785 42.0976C544.628 42.2786 544.549 42.4911 544.549 42.743C544.549 42.9712 544.612 43.1601 544.746 43.3254C544.88 43.4828 545.061 43.6245 545.281 43.7504C545.501 43.8763 545.769 43.9865 546.06 44.0731C546.351 44.1597 546.658 44.2305 546.981 44.2856C547.713 44.4351 548.374 44.624 548.964 44.8601C549.554 45.0963 550.065 45.3953 550.498 45.7416C550.931 46.0879 551.262 46.4972 551.498 46.9694C551.726 47.4417 551.844 47.9926 551.844 48.6144C551.844 49.5824 551.608 50.4088 551.136 51.0778C550.663 51.7468 550.018 52.2584 549.2 52.6126C548.381 52.9667 547.445 53.1399 546.375 53.1399H546.414Z" fill="black"/>
<path d="M191.385 122.711H49V177.771H191.385V122.711Z" fill="white" stroke="black" stroke-width="0.5" stroke-linecap="round" stroke-linejoin="round"/>
<path d="M191.385 102H49V122.71H191.385V102Z" fill="white" stroke="black" stroke-width="0.5" stroke-linecap="round" stroke-linejoin="round"/>
<path d="M131.115 136.09H91.752V177.77H131.115V136.09Z" fill="white" stroke="black" stroke-width="0.5" stroke-linecap="round" stroke-linejoin="round"/>
<path d="M78.0442 136.09H53.8984V177.77H78.0442V136.09Z" fill="white" stroke="black" stroke-width="0.5" stroke-linecap="round" stroke-linejoin="round"/>
<path d="M178.476 136.09H139.113V177.77H178.476V136.09Z" fill="white" stroke="black" stroke-width="0.5" stroke-linecap="round" stroke-linejoin="round"/>
<path d="M78.0442 136.09V141.26H59.0575V177.78H53.8984V136.09H78.0442Z" fill="#8280B8" stroke="black" stroke-width="0.5" stroke-linecap="round" stroke-linejoin="round"/>
<path d="M108.63 118.82C107.52 118.82 106.52 118.57 105.63 118.07C104.741 117.57 104.031 116.89 103.501 116.02C102.971 115.15 102.711 114.18 102.711 113.09C102.711 112 102.971 111.01 103.501 110.14C104.031 109.27 104.741 108.59 105.64 108.08C106.54 107.58 107.55 107.32 108.68 107.32C109.53 107.32 110.3 107.47 111.009 107.77C111.709 108.07 112.339 108.52 112.889 109.1L110.75 111.27C110.5 110.97 110.2 110.75 109.85 110.61C109.5 110.47 109.11 110.41 108.68 110.41C108.18 110.41 107.73 110.52 107.36 110.74C106.98 110.96 106.68 111.27 106.46 111.67C106.24 112.07 106.13 112.53 106.13 113.06C106.13 113.59 106.24 114.03 106.46 114.44C106.68 114.85 106.99 115.16 107.37 115.38C107.76 115.6 108.19 115.71 108.68 115.71C109.14 115.71 109.54 115.63 109.89 115.48C110.24 115.33 110.54 115.1 110.79 114.78L112.929 116.97C112.369 117.57 111.729 118.03 111.029 118.34C110.32 118.65 109.53 118.8 108.64 118.8" fill="#10A96C"/>
<path d="M120.827 107.58V108.51C120.537 108.23 120.207 108 119.827 107.8C119.237 107.5 118.577 107.35 117.847 107.35C116.857 107.35 115.968 107.6 115.178 108.11C114.388 108.62 113.778 109.3 113.328 110.16C112.878 111.02 112.658 112 112.658 113.1C112.658 114.2 112.878 115.16 113.328 116.02C113.778 116.88 114.388 117.56 115.168 118.05C115.948 118.55 116.837 118.8 117.827 118.8C118.567 118.8 119.237 118.66 119.827 118.37C120.207 118.19 120.547 117.95 120.827 117.67V118.57H124.096V107.58H120.827ZM120.307 114.98C119.857 115.47 119.247 115.71 118.497 115.71C118.017 115.71 117.597 115.6 117.227 115.37C116.857 115.14 116.568 114.84 116.348 114.44C116.128 114.05 116.028 113.6 116.028 113.08C116.028 112.56 116.138 112.09 116.348 111.69C116.568 111.29 116.857 110.98 117.227 110.75C117.597 110.52 118.027 110.41 118.517 110.41C119.007 110.41 119.437 110.52 119.807 110.75C120.177 110.98 120.467 111.29 120.677 111.68C120.887 112.07 120.987 112.53 120.987 113.06C120.987 113.84 120.757 114.48 120.307 114.97V114.98Z" fill="#00A6BF"/>
<path d="M132.166 107.38C131.956 107.34 131.726 107.32 131.486 107.32C130.916 107.32 130.376 107.46 129.876 107.74C129.376 108.02 128.936 108.39 128.556 108.86C128.456 108.98 128.366 109.11 128.286 109.24L128.216 107.58H125.127V118.57H128.396V113.05C128.396 112.72 128.446 112.42 128.546 112.16C128.646 111.9 128.786 111.67 128.966 111.47C129.146 111.28 129.366 111.13 129.616 111.02C129.876 110.92 130.156 110.86 130.456 110.86C130.726 110.86 130.986 110.89 131.246 110.95C131.496 111.01 131.696 111.09 131.846 111.19L132.746 107.52C132.566 107.46 132.376 107.42 132.166 107.37V107.38Z" fill="#8280B8"/>
<path d="M98.7807 107.57V113.81C98.7807 114.86 97.9409 115.71 96.9111 115.71C95.8812 115.71 95.0414 114.86 95.0414 113.81V107.57H91.752V113.56C91.752 116.45 94.0716 118.8 96.9111 118.8C99.7506 118.8 102.07 116.45 102.07 113.56V107.57H98.7707H98.7807Z" fill="#EF664E"/>
<path d="M100.33 136.09H91.752V177.77H100.33V136.09Z" fill="#10A96C" stroke="black" stroke-width="0.5" stroke-linecap="round" stroke-linejoin="round"/>
<path d="M100.33 136.09H131.115V147.2H111.438V177.78H100.33V136.09Z" fill="#EF664E" stroke="black" stroke-width="0.5" stroke-linecap="round" stroke-linejoin="round"/>
<path d="M178.476 136.09H139.113V147.2H178.476V136.09Z" fill="#EF664E" stroke="black" stroke-width="0.5" stroke-linecap="round" stroke-linejoin="round"/>
<path d="M59.0586 147.199H78.0453" stroke="black" stroke-width="0.5" stroke-linecap="round" stroke-linejoin="round"/>
<path d="M59.0586 152.67H78.0453" stroke="black" stroke-width="0.5" stroke-linecap="round" stroke-linejoin="round"/>
<path d="M59.0586 158.141H78.0453" stroke="black" stroke-width="0.5" stroke-linecap="round" stroke-linejoin="round"/>
<path d="M59.0586 163.609H78.0453" stroke="black" stroke-width="0.5" stroke-linecap="round" stroke-linejoin="round"/>
<path d="M59.0586 169.08H78.0453" stroke="black" stroke-width="0.5" stroke-linecap="round" stroke-linejoin="round"/>
<path d="M100.361 172.67H106.94V179.71C106.94 181.53 105.47 183 103.651 183C101.831 183 100.361 181.53 100.361 179.71V172.67Z" fill="white" stroke="black" stroke-width="0.5" stroke-linecap="round" stroke-linejoin="round"/>
<path d="M123.717 172.67H130.296V179.71C130.296 181.53 128.826 183 127.006 183C125.187 183 123.717 181.53 123.717 179.71V172.67Z" fill="white" stroke="black" stroke-width="0.5" stroke-linecap="round" stroke-linejoin="round"/>
<path d="M131.265 178.94H99.3809C99.3809 174.69 99.6208 170.46 100.111 166.3C100.591 162.14 101.321 158.05 102.27 154.07C102.39 153.57 102.69 153.24 103.04 153.24H127.616C127.956 153.24 128.256 153.57 128.376 154.07C130.285 162.02 131.265 170.44 131.265 178.94Z" fill="white" stroke="black" stroke-width="0.5" stroke-linecap="round" stroke-linejoin="round"/>
<path d="M128.256 166.09C118.977 166.47 111.679 166.47 102.4 166.09C102.62 164.29 102.88 162.5 103.19 160.73C103.5 158.96 103.85 157.21 104.25 155.49H126.406C126.806 157.22 127.156 158.98 127.466 160.74C127.776 162.5 128.036 164.29 128.256 166.09Z" fill="white" stroke="black" stroke-width="0.5" stroke-linecap="round" stroke-linejoin="round"/>
<path d="M99.502 173.93H131.156" stroke="black" stroke-width="0.5" stroke-linecap="round" stroke-linejoin="round"/>
<path d="M100.112 166.37H96.6621C95.9721 166.37 95.4121 165.81 95.4121 165.12V163.6C95.4121 162.87 96.0021 162.27 96.7421 162.27H98.4721C99.0621 162.27 99.5621 162.7 99.6521 163.29L100.122 166.38L100.112 166.37Z" fill="white" stroke="black" stroke-width="0.5" stroke-linecap="round" stroke-linejoin="round"/>
<path d="M130.535 166.37H133.985C134.675 166.37 135.235 165.81 135.235 165.12V163.6C135.235 162.87 134.645 162.27 133.905 162.27H132.175C131.585 162.27 131.085 162.7 130.995 163.29L130.525 166.38L130.535 166.37Z" fill="white" stroke="black" stroke-width="0.5" stroke-linecap="round" stroke-linejoin="round"/>
<path d="M108.342 170.785C108.649 169.707 107.426 168.414 105.609 167.897C103.793 167.38 102.072 167.835 101.765 168.913C101.458 169.991 102.681 171.284 104.498 171.801C106.314 172.319 108.035 171.864 108.342 170.785Z" fill="white" stroke="black" stroke-width="0.5" stroke-linecap="round" stroke-linejoin="round"/>
<path d="M126.136 171.851C127.953 171.334 129.176 170.041 128.87 168.963C128.563 167.884 126.841 167.429 125.025 167.946C123.209 168.464 121.985 169.757 122.292 170.835C122.599 171.914 124.32 172.368 126.136 171.851Z" fill="white" stroke="black" stroke-width="0.5" stroke-linecap="round" stroke-linejoin="round"/>
<path d="M148.133 172.67H154.712V179.71C154.712 181.53 153.242 183 151.422 183C149.603 183 148.133 181.53 148.133 179.71V172.67Z" fill="white" stroke="black" stroke-width="0.5" stroke-linecap="round" stroke-linejoin="round"/>
<path d="M171.488 172.67H178.067V179.71C178.067 181.53 176.597 183 174.778 183C172.958 183 171.488 181.53 171.488 179.71V172.67Z" fill="white" stroke="black" stroke-width="0.5" stroke-linecap="round" stroke-linejoin="round"/>
<path d="M179.037 178.94H147.152C147.152 174.69 147.392 170.46 147.882 166.3C148.362 162.14 149.092 158.05 150.042 154.07C150.162 153.57 150.462 153.24 150.812 153.24H175.387C175.727 153.24 176.027 153.57 176.147 154.07C178.057 162.02 179.037 170.44 179.037 178.94Z" fill="white" stroke="black" stroke-width="0.5" stroke-linecap="round" stroke-linejoin="round"/>
<path d="M176.027 166.09C166.749 166.47 159.45 166.47 150.172 166.09C150.392 164.29 150.652 162.5 150.962 160.73C151.272 158.96 151.622 157.21 152.022 155.49H174.178C174.578 157.22 174.928 158.98 175.237 160.74C175.547 162.5 175.807 164.29 176.027 166.09Z" fill="white" stroke="black" stroke-width="0.5" stroke-linecap="round" stroke-linejoin="round"/>
<path d="M147.273 173.93H178.928" stroke="black" stroke-width="0.5" stroke-linecap="round" stroke-linejoin="round"/>
<path d="M147.884 166.37H144.434C143.744 166.37 143.184 165.81 143.184 165.12V163.6C143.184 162.87 143.774 162.27 144.514 162.27H146.244C146.834 162.27 147.334 162.7 147.424 163.29L147.894 166.38L147.884 166.37Z" fill="white" stroke="black" stroke-width="0.5" stroke-linecap="round" stroke-linejoin="round"/>
<path d="M178.317 166.37H181.767C182.457 166.37 183.017 165.81 183.017 165.12V163.6C183.017 162.87 182.427 162.27 181.687 162.27H179.957C179.367 162.27 178.867 162.7 178.777 163.29L178.307 166.38L178.317 166.37Z" fill="white" stroke="black" stroke-width="0.5" stroke-linecap="round" stroke-linejoin="round"/>
<path d="M156.106 170.781C156.413 169.703 155.189 168.41 153.373 167.893C151.557 167.376 149.835 167.831 149.528 168.909C149.221 169.987 150.445 171.28 152.261 171.798C154.078 172.315 155.799 171.86 156.106 170.781Z" fill="white" stroke="black" stroke-width="0.5" stroke-linecap="round" stroke-linejoin="round"/>
<path d="M173.914 171.851C175.73 171.334 176.954 170.041 176.647 168.963C176.34 167.884 174.619 167.429 172.802 167.946C170.986 168.464 169.762 169.757 170.069 170.835C170.376 171.914 172.098 172.368 173.914 171.851Z" fill="white" stroke="black" stroke-width="0.5" stroke-linecap="round" stroke-linejoin="round"/>
</svg>
