<svg width="299" height="137" viewBox="0 0 299 137" fill="none" xmlns="http://www.w3.org/2000/svg">
<rect width="298.667" height="96" fill="#5FBE6E"/>
<g clip-path="url(#clip0_568_13283)">
<path d="M299 96L0 96" stroke="#3D3D3B" stroke-width="0.57" stroke-miterlimit="10" stroke-linecap="round"/>
<path d="M70.5234 36.3468V44.3888H187.823C182.045 36.0231 176.513 35 162.288 35H71.8708C71.1194 35 70.5234 35.6087 70.5234 36.3468Z" fill="white"/>
<path d="M70.5234 36.3468V44.3888H187.823C182.045 36.0231 176.513 35 162.288 35H71.8708C71.1194 35 70.5234 35.6087 70.5234 36.3468Z" stroke="#1E1E1C" stroke-width="0.57" stroke-linecap="round" stroke-linejoin="round"/>
<path d="M70.5286 44.375V96.007H229.701C230.18 86.67 224.441 78.4466 213.001 78.4466H208.817L205.487 73.0465H162.902V44.375H70.5156H70.5286Z" fill="white"/>
<path d="M70.5286 44.375V96.007H229.701C230.18 86.67 224.441 78.4466 213.001 78.4466H208.817L205.487 73.0465H162.902V44.375H70.5156H70.5286Z" stroke="#1E1E1C" stroke-width="0.57" stroke-linecap="round" stroke-linejoin="round"/>
<path d="M70.5234 36.3468V44.3888H187.823C182.045 36.0231 176.513 35 162.288 35H71.8708C71.1194 35 70.5234 35.6087 70.5234 36.3468Z" fill="white"/>
<path d="M70.5234 36.3468V44.3888H187.823C182.045 36.0231 176.513 35 162.288 35H71.8708C71.1194 35 70.5234 35.6087 70.5234 36.3468Z" stroke="#1E1E1C" stroke-width="0.57" stroke-linecap="round" stroke-linejoin="round"/>
<path d="M162.914 44.375V73.0465H205.499L190.691 49.0241C189.706 47.2629 188.773 45.7348 187.841 44.388H162.927L162.914 44.375Z" fill="white"/>
<path d="M162.914 44.375V73.0465H205.499L190.691 49.0241C189.706 47.2629 188.773 45.7348 187.841 44.388H162.927L162.914 44.375Z" stroke="#1E1E1C" stroke-width="0.57" stroke-linecap="round" stroke-linejoin="round"/>
<path d="M233 96.0078H67V105.811H233V96.0078Z" fill="#A8A8A7"/>
<path d="M233 96.0078H67V105.811H233V96.0078Z" stroke="#1E1E1C" stroke-width="0.57" stroke-miterlimit="10" stroke-linecap="round"/>
<path d="M192.141 105.824C192.141 98.4556 198.126 92.4727 205.498 92.4727C212.87 92.4727 218.855 98.4556 218.855 105.824C218.855 113.193 212.87 119.176 205.498 119.176C198.126 119.176 192.141 113.193 192.141 105.824Z" fill="white"/>
<path d="M205.498 119.176C212.875 119.176 218.855 113.198 218.855 105.824C218.855 98.4503 212.875 92.4727 205.498 92.4727C198.121 92.4727 192.141 98.4503 192.141 105.824C192.141 113.198 198.121 119.176 205.498 119.176Z" stroke="#1E1E1C" stroke-width="0.57" stroke-linecap="round" stroke-linejoin="round"/>
<path d="M76.6641 105.824C76.6641 98.4556 82.6495 92.4727 90.0213 92.4727C97.393 92.4727 103.378 98.4556 103.378 105.824C103.378 113.193 97.393 119.176 90.0213 119.176C82.6495 119.176 76.6641 113.193 76.6641 105.824Z" fill="white"/>
<path d="M90.0213 119.176C97.3983 119.176 103.378 113.198 103.378 105.824C103.378 98.4503 97.3983 92.4727 90.0213 92.4727C82.6443 92.4727 76.6641 98.4503 76.6641 105.824C76.6641 113.198 82.6443 119.176 90.0213 119.176Z" stroke="#1E1E1C" stroke-width="0.57" stroke-linecap="round" stroke-linejoin="round"/>
<path d="M82.6719 105.824C82.6719 101.771 85.9626 98.4688 90.0306 98.4688C94.0987 98.4688 97.3765 101.758 97.3765 105.824C97.3765 109.891 94.0857 113.18 90.0306 113.18C85.9755 113.18 82.6719 109.891 82.6719 105.824Z" fill="white"/>
<path d="M82.6719 105.824C82.6719 101.771 85.9626 98.4688 90.0306 98.4688C94.0987 98.4688 97.3765 101.758 97.3765 105.824C97.3765 109.891 94.0857 113.18 90.0306 113.18C85.9755 113.18 82.6719 109.891 82.6719 105.824Z" stroke="#1E1E1C" stroke-width="0.57" stroke-linecap="round" stroke-linejoin="round"/>
<path d="M198.141 105.824C198.141 101.771 201.431 98.4688 205.499 98.4688C209.567 98.4688 212.845 101.758 212.845 105.824C212.845 109.891 209.555 113.18 205.499 113.18C201.444 113.18 198.141 109.891 198.141 105.824Z" fill="white"/>
<path d="M198.141 105.824C198.141 101.771 201.431 98.4688 205.499 98.4688C209.567 98.4688 212.845 101.758 212.845 105.824C212.845 109.891 209.555 113.18 205.499 113.18C201.444 113.18 198.141 109.891 198.141 105.824Z" stroke="#1E1E1C" stroke-width="0.57" stroke-linecap="round" stroke-linejoin="round"/>
<path d="M228.723 89.4937C228.723 89.4937 213.539 90.3613 213.008 78.4473" stroke="#1E1E1C" stroke-width="0.57" stroke-linecap="round" stroke-linejoin="round"/>
<path d="M110.842 78.2663C109.209 78.2663 107.732 77.9037 106.437 77.1914C105.128 76.4791 104.092 75.482 103.314 74.2388C102.537 72.9826 102.148 71.584 102.148 70.0171C102.148 68.4501 102.537 67.0127 103.314 65.7565C104.092 64.5003 105.128 63.5161 106.45 62.7909C107.771 62.0657 109.248 61.7031 110.906 61.7031C112.15 61.7031 113.29 61.9233 114.327 62.3506C115.363 62.7909 116.283 63.4255 117.086 64.2802L113.951 67.4141C113.575 66.9738 113.135 66.663 112.63 66.4687C112.124 66.2745 111.541 66.1709 110.919 66.1709C110.181 66.1709 109.533 66.3263 108.976 66.65C108.419 66.9608 107.978 67.4141 107.655 67.9839C107.331 68.5667 107.162 69.2271 107.162 69.9912C107.162 70.7552 107.331 71.3898 107.655 71.9855C107.978 72.5682 108.432 73.0215 108.989 73.3452C109.559 73.656 110.194 73.8244 110.919 73.8244C111.593 73.8244 112.189 73.7208 112.694 73.5006C113.213 73.2805 113.64 72.9438 114.016 72.4905L117.151 75.6633C116.322 76.531 115.389 77.1914 114.353 77.6447C113.316 78.085 112.15 78.3181 110.842 78.3181" fill="#64B76E"/>
<path d="M128.047 73.2158C127.387 73.9281 126.493 74.2777 125.379 74.2777C124.679 74.2777 124.057 74.1094 123.513 73.7856C122.969 73.4619 122.541 73.0086 122.23 72.4518C121.919 71.882 121.751 71.2344 121.751 70.4963C121.751 69.7581 121.906 69.0589 122.23 68.489C122.541 67.9063 122.969 67.466 123.513 67.1293C124.057 66.8055 124.692 66.6372 125.405 66.6372C126.117 66.6372 126.752 66.8055 127.296 67.1293C127.84 67.453 128.268 67.9063 128.566 68.4631C128.864 69.0329 129.019 69.6934 129.019 70.4574C129.019 71.5841 128.682 72.5165 128.022 73.2158M128.786 62.5191V63.8659C128.371 63.4644 127.879 63.1277 127.309 62.8428C126.441 62.4025 125.469 62.1953 124.407 62.1953C122.943 62.1953 121.647 62.5579 120.481 63.2831C119.328 64.0083 118.421 64.9925 117.774 66.2357C117.126 67.4789 116.789 68.8905 116.789 70.4834C116.789 72.0762 117.113 73.4489 117.774 74.6921C118.421 75.9353 119.328 76.9066 120.468 77.6318C121.609 78.357 122.917 78.7067 124.368 78.7067C125.456 78.7067 126.441 78.4994 127.309 78.085C127.879 77.8131 128.358 77.4764 128.786 77.0749V78.3829H133.592V62.5191H128.786Z" fill="#2FBAD0"/>
<path d="M146.028 62.2356C145.432 61.9896 144.745 61.873 143.981 61.873C142.258 61.873 140.911 62.391 139.926 63.44V62.1968H135.055V78.0606H139.926V69.3711C139.926 68.3092 140.185 67.5193 140.69 67.0013C141.209 66.4962 141.869 66.2372 142.699 66.2372C143.139 66.2372 143.515 66.302 143.839 66.4185C144.163 66.5351 144.422 66.7164 144.616 66.9624L147.557 63.3364C147.116 62.8313 146.598 62.4687 146.002 62.2227" fill="#8581BD"/>
<path d="M96.2808 62.5059V71.2213C96.2808 71.7781 96.1642 72.2832 95.931 72.7235C95.6978 73.1638 95.3739 73.5134 94.9593 73.7465C94.5448 73.9796 94.0524 74.0962 93.4954 74.0962C92.9383 74.0962 92.4719 73.9796 92.0573 73.7465C91.6427 73.5005 91.3188 73.1638 91.0856 72.7235C90.8524 72.2832 90.7358 71.7781 90.7358 71.2213V62.5059H85.8516V71.0141C85.8516 72.3997 86.1884 73.6559 86.8621 74.7696C87.5358 75.8833 88.4556 76.7768 89.6087 77.4243C90.7617 78.0719 92.0832 78.3956 93.5472 78.3956C95.0112 78.3956 96.2938 78.0719 97.4339 77.4243C98.5869 76.7768 99.4938 75.8962 100.155 74.7696C100.815 73.6559 101.152 72.3997 101.152 71.0141V62.5059H96.2679H96.2808Z" fill="#ED6E49"/>
<path d="M193.43 72.6594C193.43 72.6594 195.282 70.419 197.07 70.1471C201.41 69.4866 200.568 72.6594 200.568 72.6594L195.956 75.366L193.43 72.6594Z" fill="white"/>
<path d="M193.43 72.6594C193.43 72.6594 195.282 70.419 197.07 70.1471C201.41 69.4866 200.568 72.6594 200.568 72.6594L195.956 75.366L193.43 72.6594Z" stroke="#1E1E1C" stroke-width="0.57" stroke-linecap="round" stroke-linejoin="round"/>
<path d="M199.966 73.0484C199.966 73.0484 196.624 79.5753 188.513 83.3955C183.176 85.9078 179.457 79.8861 175.921 75.1981C173.174 71.5592 173.407 68.3864 175.649 65.9518C176.568 64.9546 178.188 64.8381 179.768 65.0064L183.992 64.6309C183.992 64.6309 188.85 68.218 190.638 72.8542L186.713 73.1002C187.555 75.6773 187.866 75.4442 187.866 75.4442L192.957 72.7894C195.03 73.4499 195.199 75.1852 199.94 73.0484" fill="#1E1E1C"/>
<path d="M199.966 73.0484C199.966 73.0484 196.624 79.5753 188.513 83.3955C183.176 85.9078 179.457 79.8861 175.921 75.1981C173.174 71.5592 173.407 68.3864 175.649 65.9518C176.568 64.9546 178.188 64.8381 179.768 65.0064L183.992 64.6309C183.992 64.6309 188.85 68.218 190.638 72.8542L186.713 73.1002C187.555 75.6773 187.866 75.4442 187.866 75.4442L192.957 72.7894C195.03 73.4499 195.199 75.1852 199.94 73.0484H199.966Z" stroke="#1E1E1C" stroke-width="0.57" stroke-linecap="round" stroke-linejoin="round"/>
<path d="M177.926 65.9643L187.876 64.1772C188.485 64.0736 188.847 63.452 188.666 62.8692L187.202 58.1813C187.15 58.0259 187.228 57.8576 187.383 57.7799L190.052 56.6403C190.247 56.5626 190.273 56.2906 190.091 56.1741C188.277 55.0215 185.686 53.3121 185.064 51.3566L184.896 50.8386C184.157 48.4688 181.774 47.0313 179.338 47.4716C176.902 47.9119 175.166 50.1005 175.296 52.561L175.931 64.3844C175.982 65.3945 176.915 66.1327 177.913 65.9514" fill="white"/>
<path d="M177.926 65.9643L187.876 64.1772C188.485 64.0736 188.847 63.452 188.666 62.8692L187.202 58.1813C187.15 58.0259 187.228 57.8576 187.383 57.7799L190.052 56.6403C190.247 56.5626 190.273 56.2906 190.091 56.1741C188.277 55.0215 185.686 53.3121 185.064 51.3566L184.896 50.8386C184.157 48.4688 181.774 47.0313 179.338 47.4716C176.902 47.9119 175.166 50.1005 175.296 52.561L175.931 64.3844C175.982 65.3945 176.915 66.1327 177.913 65.9514L177.926 65.9643Z" stroke="#1E1E1C" stroke-width="0.57" stroke-miterlimit="10" stroke-linecap="round"/>
<path d="M175.355 53.5578L184.476 49.8541C183.44 48.1188 181.445 47.1216 179.372 47.4842C176.923 47.9245 175.174 50.126 175.304 52.6124L175.355 53.5448V53.5578Z" fill="#1E1E1C"/>
<path d="M175.355 53.5578L184.476 49.8541C183.44 48.1188 181.445 47.1216 179.372 47.4842C176.923 47.9245 175.174 50.126 175.304 52.6124L175.355 53.5448V53.5578Z" stroke="#1E1E1C" stroke-width="0.57" stroke-miterlimit="10" stroke-linecap="round"/>
<path d="M187.557 60.6664C186.171 60.9901 184.512 60.4333 183.852 59.9023" stroke="#1E1E1C" stroke-width="0.57" stroke-miterlimit="10" stroke-linecap="round"/>
<path d="M182.956 54.3733C183.02 54.7359 183.37 54.9819 183.733 54.9172C184.095 54.8524 184.341 54.5028 184.277 54.1402C184.212 53.7776 183.862 53.5315 183.5 53.5963C183.137 53.661 182.891 54.0107 182.956 54.3733Z" fill="#1E1E1C"/>
<path d="M173.99 73.0462H168.367V63.502H171.23C172.759 63.502 173.99 64.7322 173.99 66.2603V73.0462Z" fill="#A8A8A7"/>
<path d="M173.99 73.0462H168.367V63.502H171.23C172.759 63.502 173.99 64.7322 173.99 66.2603V73.0462Z" stroke="#1E1E1C" stroke-width="0.57" stroke-miterlimit="10" stroke-linecap="round"/>
<path d="M170.453 63.4895C169.624 63.4895 168.885 63.1399 168.367 62.5701V54.8648C168.885 54.295 169.624 53.9453 170.453 53.9453C172.008 53.9453 173.264 55.2015 173.264 56.7555V60.6793C173.264 62.2334 172.008 63.4895 170.453 63.4895Z" fill="#A8A8A7"/>
<path d="M170.453 63.4895C169.624 63.4895 168.885 63.1399 168.367 62.5701V54.8648C168.885 54.295 169.624 53.9453 170.453 53.9453C172.008 53.9453 173.264 55.2015 173.264 56.7555V60.6793C173.264 62.2334 172.008 63.4895 170.453 63.4895V63.4895Z" stroke="#1E1E1C" stroke-width="0.57" stroke-miterlimit="10" stroke-linecap="round"/>
</g>
<defs>
<clipPath id="clip0_568_13283">
<rect width="299" height="137" fill="white"/>
</clipPath>
</defs>
</svg>
