<svg width="462" height="140" viewBox="0 0 462 140" fill="none" xmlns="http://www.w3.org/2000/svg">
<g clip-path="url(#clip0_568_12966)">
<path d="M502.5 170C502.5 174.142 499.142 177.5 495 177.5L381 177.5C376.858 177.5 373.5 174.142 373.5 170L373.5 122C373.5 117.858 376.858 114.5 381 114.5L495 114.5C499.142 114.5 502.5 117.858 502.5 122L502.5 170Z" fill="url(#paint0_linear_568_12966)"/>
<path d="M502.5 170C502.5 174.142 499.142 177.5 495 177.5L381 177.5C376.858 177.5 373.5 174.142 373.5 170L373.5 122C373.5 117.858 376.858 114.5 381 114.5L495 114.5C499.142 114.5 502.5 117.858 502.5 122L502.5 170Z" stroke="url(#paint1_linear_568_12966)"/>
<path d="M364.5 170C364.5 174.142 361.142 177.5 357 177.5L243 177.5C238.858 177.5 235.5 174.142 235.5 170L235.5 122C235.5 117.858 238.858 114.5 243 114.5L357 114.5C361.142 114.5 364.5 117.858 364.5 122L364.5 170Z" fill="url(#paint2_linear_568_12966)"/>
<path d="M364.5 170C364.5 174.142 361.142 177.5 357 177.5L243 177.5C238.858 177.5 235.5 174.142 235.5 170L235.5 122C235.5 117.858 238.858 114.5 243 114.5L357 114.5C361.142 114.5 364.5 117.858 364.5 122L364.5 170Z" stroke="url(#paint3_linear_568_12966)"/>
<path d="M226.5 170C226.5 174.142 223.142 177.5 219 177.5L105 177.5C100.858 177.5 97.5 174.142 97.5 170L97.5 122C97.5 117.858 100.858 114.5 105 114.5L219 114.5C223.142 114.5 226.5 117.858 226.5 122L226.5 170Z" fill="url(#paint4_linear_568_12966)"/>
<path d="M226.5 170C226.5 174.142 223.142 177.5 219 177.5L105 177.5C100.858 177.5 97.5 174.142 97.5 170L97.5 122C97.5 117.858 100.858 114.5 105 114.5L219 114.5C223.142 114.5 226.5 117.858 226.5 122L226.5 170Z" stroke="url(#paint5_linear_568_12966)"/>
<path d="M88.5 170C88.5 174.142 85.1421 177.5 81 177.5L-33 177.5C-37.1421 177.5 -40.5 174.142 -40.5 170L-40.5 122C-40.5 117.858 -37.1421 114.5 -33 114.5L81 114.5C85.1421 114.5 88.5 117.858 88.5 122L88.5 170Z" fill="url(#paint6_linear_568_12966)"/>
<path d="M88.5 170C88.5 174.142 85.1421 177.5 81 177.5L-33 177.5C-37.1421 177.5 -40.5 174.142 -40.5 170L-40.5 122C-40.5 117.858 -37.1421 114.5 -33 114.5L81 114.5C85.1421 114.5 88.5 117.858 88.5 122L88.5 170Z" stroke="url(#paint7_linear_568_12966)"/>
<g clip-path="url(#clip1_568_12966)">
<path fill-rule="evenodd" clip-rule="evenodd" d="M87.8011 24.8837C90.3211 23.8749 93.3122 24.3893 95.3558 26.4329C97.2555 28.3326 97.8338 31.051 97.0955 33.4485L101.49 37.1667C103.169 38.5878 103.275 41.1407 101.72 42.6964C100.164 44.252 97.6112 44.1458 96.1901 42.4664L92.4719 38.0721C90.0744 38.8104 87.356 38.2321 85.4563 36.3324C83.4126 34.2886 82.8982 31.2972 83.9074 28.7771C84.2653 27.8833 85.3868 27.7704 85.9708 28.4046L89.172 31.882L90.6185 31.5944L90.9077 30.1459L87.4291 26.9477C86.7942 26.3639 86.9069 25.2418 87.8011 24.8837ZM89.8082 26.4181L92.5718 28.959C92.893 29.2544 93.037 29.6959 92.9516 30.1239L92.4818 32.4771C92.3829 32.9726 91.9953 33.3599 91.4997 33.4584L89.1491 33.9257C88.7217 34.0107 88.2809 33.8669 87.9857 33.5463L85.4418 30.7829C85.265 32.2552 85.7421 33.7898 86.8705 34.9182C88.3224 36.3701 90.4467 36.7438 92.2456 36.0336C92.7295 35.8425 93.3074 35.9632 93.6672 36.3885L97.7169 41.1745C98.3822 41.9607 99.5773 42.0104 100.306 41.2821C101.034 40.5539 100.984 39.3588 100.198 38.6935L95.4119 34.6438C94.9866 34.284 94.8659 33.7061 95.057 33.2222C95.7673 31.4233 95.3935 29.299 93.9416 27.8471C92.8137 26.7192 91.2799 26.2419 89.8082 26.4181Z" fill="black"/>
</g>
<path d="M63.372 81V71.2H69.546V72.656H64.884V79.544H69.546V81H63.372ZM64.058 76.702V75.246H68.776V76.702H64.058ZM71.6076 81V73.65H73.0496V75.162L72.7976 75.33C72.8909 75.0033 73.0729 74.7047 73.3436 74.434C73.6143 74.154 73.9363 73.93 74.3096 73.762C74.6829 73.5847 75.0656 73.496 75.4576 73.496C76.0176 73.496 76.4843 73.608 76.8576 73.832C77.2309 74.0467 77.5109 74.378 77.6976 74.826C77.8843 75.274 77.9776 75.8387 77.9776 76.52V81H76.5356V76.618C76.5356 76.198 76.4796 75.8527 76.3676 75.582C76.2556 75.302 76.0829 75.1013 75.8496 74.98C75.6163 74.8493 75.3269 74.7933 74.9816 74.812C74.7016 74.812 74.4449 74.8587 74.2116 74.952C73.9783 75.036 73.7729 75.1573 73.5956 75.316C73.4276 75.4747 73.2923 75.6613 73.1896 75.876C73.0963 76.0813 73.0496 76.3053 73.0496 76.548V81H72.3356C72.2143 81 72.0929 81 71.9716 81C71.8503 81 71.7289 81 71.6076 81ZM80.8438 81V71.774H82.2858V81H80.8438ZM79.3178 75.05V73.65H83.9938V75.05H79.3178ZM85.3068 81V73.65H86.7628V75.96L86.6228 75.4C86.7255 75.0453 86.8982 74.7233 87.1408 74.434C87.3928 74.1447 87.6775 73.916 87.9948 73.748C88.3215 73.58 88.6575 73.496 89.0028 73.496C89.1615 73.496 89.3108 73.51 89.4508 73.538C89.6002 73.566 89.7168 73.5987 89.8008 73.636L89.4228 75.204C89.3108 75.1573 89.1848 75.12 89.0448 75.092C88.9142 75.0547 88.7835 75.036 88.6528 75.036C88.4008 75.036 88.1582 75.0873 87.9248 75.19C87.7008 75.2833 87.5002 75.4187 87.3228 75.596C87.1548 75.764 87.0195 75.9647 86.9168 76.198C86.8142 76.422 86.7628 76.6693 86.7628 76.94V81H85.3068ZM94.0689 81.14C93.3129 81.14 92.6409 80.9813 92.0529 80.664C91.4742 80.3373 91.0169 79.894 90.6809 79.334C90.3542 78.774 90.1909 78.13 90.1909 77.402C90.1909 76.8233 90.2842 76.296 90.4709 75.82C90.6575 75.344 90.9142 74.9333 91.2409 74.588C91.5769 74.2333 91.9735 73.9627 92.4309 73.776C92.8975 73.58 93.4015 73.482 93.9429 73.482C94.4189 73.482 94.8622 73.5753 95.2729 73.762C95.6835 73.9393 96.0382 74.1867 96.3369 74.504C96.6449 74.8213 96.8782 75.1993 97.0369 75.638C97.2049 76.0673 97.2842 76.5387 97.2749 77.052L97.2609 77.668H91.2549L90.9329 76.52H96.0149L95.8049 76.758V76.422C95.7769 76.114 95.6742 75.8387 95.4969 75.596C95.3195 75.3533 95.0955 75.162 94.8249 75.022C94.5542 74.882 94.2602 74.812 93.9429 74.812C93.4389 74.812 93.0142 74.91 92.6689 75.106C92.3235 75.2927 92.0622 75.5727 91.8849 75.946C91.7075 76.31 91.6189 76.7627 91.6189 77.304C91.6189 77.8173 91.7262 78.2653 91.9409 78.648C92.1555 79.0213 92.4589 79.3107 92.8509 79.516C93.2429 79.7213 93.6955 79.824 94.2089 79.824C94.5729 79.824 94.9089 79.7633 95.2169 79.642C95.5342 79.5207 95.8749 79.3013 96.2389 78.984L96.9669 80.006C96.7429 80.23 96.4675 80.426 96.1409 80.594C95.8235 80.762 95.4829 80.8973 95.1189 81C94.7642 81.0933 94.4142 81.14 94.0689 81.14ZM99.752 81V71.774H101.194V81H99.752ZM98.226 75.05V73.65H102.902V75.05H98.226ZM104.453 81V73.65H105.895V81H104.453ZM105.153 72.026C104.845 72.026 104.607 71.9467 104.439 71.788C104.271 71.6293 104.187 71.4053 104.187 71.116C104.187 70.8453 104.271 70.626 104.439 70.458C104.616 70.29 104.854 70.206 105.153 70.206C105.461 70.206 105.699 70.2853 105.867 70.444C106.035 70.6027 106.119 70.8267 106.119 71.116C106.119 71.3867 106.03 71.606 105.853 71.774C105.685 71.942 105.452 72.026 105.153 72.026ZM111.542 81.14C110.786 81.14 110.114 80.9813 109.526 80.664C108.947 80.3373 108.49 79.894 108.154 79.334C107.827 78.774 107.664 78.13 107.664 77.402C107.664 76.8233 107.757 76.296 107.944 75.82C108.13 75.344 108.387 74.9333 108.714 74.588C109.05 74.2333 109.446 73.9627 109.904 73.776C110.37 73.58 110.874 73.482 111.416 73.482C111.892 73.482 112.335 73.5753 112.746 73.762C113.156 73.9393 113.511 74.1867 113.81 74.504C114.118 74.8213 114.351 75.1993 114.51 75.638C114.678 76.0673 114.757 76.5387 114.748 77.052L114.734 77.668H108.728L108.406 76.52H113.488L113.278 76.758V76.422C113.25 76.114 113.147 75.8387 112.97 75.596C112.792 75.3533 112.568 75.162 112.298 75.022C112.027 74.882 111.733 74.812 111.416 74.812C110.912 74.812 110.487 74.91 110.142 75.106C109.796 75.2927 109.535 75.5727 109.358 75.946C109.18 76.31 109.092 76.7627 109.092 77.304C109.092 77.8173 109.199 78.2653 109.414 78.648C109.628 79.0213 109.932 79.3107 110.324 79.516C110.716 79.7213 111.168 79.824 111.682 79.824C112.046 79.824 112.382 79.7633 112.69 79.642C113.007 79.5207 113.348 79.3013 113.712 78.984L114.44 80.006C114.216 80.23 113.94 80.426 113.614 80.594C113.296 80.762 112.956 80.8973 112.592 81C112.237 81.0933 111.887 81.14 111.542 81.14ZM116.315 81V73.65H117.757V75.162L117.505 75.33C117.598 75.0033 117.78 74.7047 118.051 74.434C118.321 74.154 118.643 73.93 119.017 73.762C119.39 73.5847 119.773 73.496 120.165 73.496C120.725 73.496 121.191 73.608 121.565 73.832C121.938 74.0467 122.218 74.378 122.405 74.826C122.591 75.274 122.685 75.8387 122.685 76.52V81H121.243V76.618C121.243 76.198 121.187 75.8527 121.075 75.582C120.963 75.302 120.79 75.1013 120.557 74.98C120.323 74.8493 120.034 74.7933 119.689 74.812C119.409 74.812 119.152 74.8587 118.919 74.952C118.685 75.036 118.48 75.1573 118.303 75.316C118.135 75.4747 117.999 75.6613 117.897 75.876C117.803 76.0813 117.757 76.3053 117.757 76.548V81H117.043C116.921 81 116.8 81 116.679 81C116.557 81 116.436 81 116.315 81Z" fill="#676767"/>
<rect x="28.5" y="2.5" width="129" height="103" rx="11.5" stroke="#C3C9CB"/>
<rect x="166.5" y="2.5" width="129" height="103" rx="11.5" fill="#FF6E41"/>
<g clip-path="url(#clip2_568_12966)">
<path fill-rule="evenodd" clip-rule="evenodd" d="M224 31C224 27.134 227.134 24 231 24C234.866 24 238 27.134 238 31V32.0354C239.696 32.2781 241 33.7368 241 35.5V35.75C241 37.5449 239.545 39 237.75 39C237.722 39 237.695 38.9994 237.668 38.9981C236.927 41.118 235.046 42.5467 233.015 42.9093C232.546 43.0808 231.989 43 231.5 43C230.672 43 230 42.3284 230 41.5C230 40.6716 230.672 40 231.5 40H232.5C232.995 40 233.433 40.2394 233.707 40.6086C235.003 39.9919 236 38.6885 236 37V31C236 28.2386 233.761 26 231 26C228.239 26 226 28.2386 226 31V37.25C226 38.2165 225.216 39 224.25 39C222.455 39 221 37.5449 221 35.75V35.5C221 33.7368 222.304 32.2781 224 32.0354V31ZM224 34.0854C223.417 34.2913 223 34.8469 223 35.5V35.75C223 36.3547 223.429 36.8592 224 36.975V34.0854ZM238 34.0854V36.975C238.571 36.8592 239 36.3547 239 35.75V35.5C239 34.8469 238.583 34.2913 238 34.0854Z" fill="black"/>
</g>
<path d="M198.35 81L202.144 71.2H203.684L207.45 81H205.84L203.6 75.092C203.572 75.0267 203.516 74.868 203.432 74.616C203.357 74.364 203.269 74.084 203.166 73.776C203.063 73.468 202.97 73.188 202.886 72.936C202.802 72.6747 202.746 72.5067 202.718 72.432L203.04 72.418C202.984 72.5767 202.914 72.7773 202.83 73.02C202.755 73.2627 202.671 73.5193 202.578 73.79C202.494 74.0607 202.41 74.3173 202.326 74.56C202.242 74.7933 202.172 74.9893 202.116 75.148L199.89 81H198.35ZM200.03 78.564L200.59 77.108H205.042L205.686 78.564H200.03ZM211.261 81.14C210.645 81.14 210.089 81.0327 209.595 80.818C209.1 80.6033 208.689 80.286 208.363 79.866L209.343 79.026C209.623 79.3527 209.926 79.5907 210.253 79.74C210.589 79.88 210.967 79.95 211.387 79.95C211.555 79.95 211.709 79.9313 211.849 79.894C211.998 79.8473 212.124 79.782 212.227 79.698C212.339 79.614 212.423 79.516 212.479 79.404C212.535 79.2827 212.563 79.152 212.563 79.012C212.563 78.7693 212.474 78.5733 212.297 78.424C212.203 78.3587 212.054 78.2887 211.849 78.214C211.653 78.13 211.396 78.046 211.079 77.962C210.537 77.822 210.094 77.6633 209.749 77.486C209.403 77.3087 209.137 77.108 208.951 76.884C208.811 76.7067 208.708 76.5153 208.643 76.31C208.577 76.0953 208.545 75.862 208.545 75.61C208.545 75.302 208.61 75.022 208.741 74.77C208.881 74.5087 209.067 74.2847 209.301 74.098C209.543 73.902 209.823 73.7527 210.141 73.65C210.467 73.5473 210.813 73.496 211.177 73.496C211.522 73.496 211.863 73.5427 212.199 73.636C212.544 73.7293 212.861 73.8647 213.151 74.042C213.44 74.2193 213.683 74.4293 213.879 74.672L213.053 75.582C212.875 75.4047 212.679 75.2507 212.465 75.12C212.259 74.98 212.049 74.8727 211.835 74.798C211.62 74.7233 211.424 74.686 211.247 74.686C211.051 74.686 210.873 74.7047 210.715 74.742C210.556 74.7793 210.421 74.8353 210.309 74.91C210.206 74.9847 210.127 75.078 210.071 75.19C210.015 75.302 209.987 75.428 209.987 75.568C209.996 75.6893 210.024 75.806 210.071 75.918C210.127 76.0207 210.201 76.1093 210.295 76.184C210.397 76.2587 210.551 76.338 210.757 76.422C210.962 76.506 211.223 76.5853 211.541 76.66C212.007 76.7813 212.39 76.9167 212.689 77.066C212.997 77.206 213.239 77.3693 213.417 77.556C213.603 77.7333 213.734 77.9387 213.809 78.172C213.883 78.4053 213.921 78.6667 213.921 78.956C213.921 79.376 213.799 79.754 213.557 80.09C213.323 80.4167 213.006 80.6733 212.605 80.86C212.203 81.0467 211.755 81.14 211.261 81.14ZM217.96 81.14C217.344 81.14 216.789 81.0327 216.294 80.818C215.799 80.6033 215.389 80.286 215.062 79.866L216.042 79.026C216.322 79.3527 216.625 79.5907 216.952 79.74C217.288 79.88 217.666 79.95 218.086 79.95C218.254 79.95 218.408 79.9313 218.548 79.894C218.697 79.8473 218.823 79.782 218.926 79.698C219.038 79.614 219.122 79.516 219.178 79.404C219.234 79.2827 219.262 79.152 219.262 79.012C219.262 78.7693 219.173 78.5733 218.996 78.424C218.903 78.3587 218.753 78.2887 218.548 78.214C218.352 78.13 218.095 78.046 217.778 77.962C217.237 77.822 216.793 77.6633 216.448 77.486C216.103 77.3087 215.837 77.108 215.65 76.884C215.51 76.7067 215.407 76.5153 215.342 76.31C215.277 76.0953 215.244 75.862 215.244 75.61C215.244 75.302 215.309 75.022 215.44 74.77C215.58 74.5087 215.767 74.2847 216 74.098C216.243 73.902 216.523 73.7527 216.84 73.65C217.167 73.5473 217.512 73.496 217.876 73.496C218.221 73.496 218.562 73.5427 218.898 73.636C219.243 73.7293 219.561 73.8647 219.85 74.042C220.139 74.2193 220.382 74.4293 220.578 74.672L219.752 75.582C219.575 75.4047 219.379 75.2507 219.164 75.12C218.959 74.98 218.749 74.8727 218.534 74.798C218.319 74.7233 218.123 74.686 217.946 74.686C217.75 74.686 217.573 74.7047 217.414 74.742C217.255 74.7793 217.12 74.8353 217.008 74.91C216.905 74.9847 216.826 75.078 216.77 75.19C216.714 75.302 216.686 75.428 216.686 75.568C216.695 75.6893 216.723 75.806 216.77 75.918C216.826 76.0207 216.901 76.1093 216.994 76.184C217.097 76.2587 217.251 76.338 217.456 76.422C217.661 76.506 217.923 76.5853 218.24 76.66C218.707 76.7813 219.089 76.9167 219.388 77.066C219.696 77.206 219.939 77.3693 220.116 77.556C220.303 77.7333 220.433 77.9387 220.508 78.172C220.583 78.4053 220.62 78.6667 220.62 78.956C220.62 79.376 220.499 79.754 220.256 80.09C220.023 80.4167 219.705 80.6733 219.304 80.86C218.903 81.0467 218.455 81.14 217.96 81.14ZM222.447 81V73.65H223.889V81H222.447ZM223.147 72.026C222.839 72.026 222.601 71.9467 222.433 71.788C222.265 71.6293 222.181 71.4053 222.181 71.116C222.181 70.8453 222.265 70.626 222.433 70.458C222.611 70.29 222.849 70.206 223.147 70.206C223.455 70.206 223.693 70.2853 223.861 70.444C224.029 70.6027 224.113 70.8267 224.113 71.116C224.113 71.3867 224.025 71.606 223.847 71.774C223.679 71.942 223.446 72.026 223.147 72.026ZM227.016 81V71.774H228.458V81H227.016ZM225.49 75.05V73.65H230.166V75.05H225.49ZM234.238 81.14C233.632 81.14 233.076 80.972 232.572 80.636C232.078 80.3 231.681 79.8427 231.382 79.264C231.084 78.6853 230.934 78.032 230.934 77.304C230.934 76.5667 231.084 75.9133 231.382 75.344C231.69 74.7653 232.101 74.3127 232.614 73.986C233.137 73.6593 233.72 73.496 234.364 73.496C234.747 73.496 235.097 73.552 235.414 73.664C235.732 73.776 236.007 73.9347 236.24 74.14C236.483 74.336 236.679 74.5647 236.828 74.826C236.987 75.0873 237.085 75.3673 237.122 75.666L236.8 75.554V73.65H238.256V81H236.8V79.25L237.136 79.152C237.08 79.404 236.964 79.6513 236.786 79.894C236.618 80.1273 236.399 80.3373 236.128 80.524C235.867 80.7107 235.573 80.86 235.246 80.972C234.929 81.084 234.593 81.14 234.238 81.14ZM234.616 79.81C235.055 79.81 235.442 79.7027 235.778 79.488C236.114 79.2733 236.376 78.9793 236.562 78.606C236.758 78.2233 236.856 77.7893 236.856 77.304C236.856 76.828 236.758 76.4033 236.562 76.03C236.376 75.6567 236.114 75.3627 235.778 75.148C235.442 74.9333 235.055 74.826 234.616 74.826C234.187 74.826 233.804 74.9333 233.468 75.148C233.142 75.3627 232.88 75.6567 232.684 76.03C232.498 76.4033 232.404 76.828 232.404 77.304C232.404 77.7893 232.498 78.2233 232.684 78.606C232.88 78.9793 233.142 79.2733 233.468 79.488C233.804 79.7027 234.187 79.81 234.616 79.81ZM240.27 81V73.65H241.712V75.162L241.46 75.33C241.553 75.0033 241.735 74.7047 242.006 74.434C242.276 74.154 242.598 73.93 242.972 73.762C243.345 73.5847 243.728 73.496 244.12 73.496C244.68 73.496 245.146 73.608 245.52 73.832C245.893 74.0467 246.173 74.378 246.36 74.826C246.546 75.274 246.64 75.8387 246.64 76.52V81H245.198V76.618C245.198 76.198 245.142 75.8527 245.03 75.582C244.918 75.302 244.745 75.1013 244.512 74.98C244.278 74.8493 243.989 74.7933 243.644 74.812C243.364 74.812 243.107 74.8587 242.874 74.952C242.64 75.036 242.435 75.1573 242.258 75.316C242.09 75.4747 241.954 75.6613 241.852 75.876C241.758 76.0813 241.712 76.3053 241.712 76.548V81H240.998C240.876 81 240.755 81 240.634 81C240.512 81 240.391 81 240.27 81ZM251.718 81.14C251.037 81.14 250.425 80.972 249.884 80.636C249.352 80.3 248.927 79.8427 248.61 79.264C248.302 78.6853 248.148 78.0367 248.148 77.318C248.148 76.5993 248.302 75.9507 248.61 75.372C248.927 74.7933 249.352 74.336 249.884 74C250.425 73.664 251.037 73.496 251.718 73.496C252.371 73.496 252.964 73.6313 253.496 73.902C254.037 74.1633 254.448 74.5227 254.728 74.98L253.93 75.96C253.781 75.7453 253.589 75.5493 253.356 75.372C253.123 75.1947 252.875 75.0547 252.614 74.952C252.353 74.8493 252.101 74.798 251.858 74.798C251.41 74.798 251.009 74.91 250.654 75.134C250.309 75.3487 250.033 75.6473 249.828 76.03C249.623 76.4127 249.52 76.842 249.52 77.318C249.52 77.794 249.627 78.2233 249.842 78.606C250.057 78.9793 250.341 79.278 250.696 79.502C251.051 79.726 251.443 79.838 251.872 79.838C252.124 79.838 252.367 79.796 252.6 79.712C252.843 79.628 253.076 79.502 253.3 79.334C253.524 79.166 253.734 78.9607 253.93 78.718L254.728 79.698C254.429 80.118 254 80.4633 253.44 80.734C252.889 81.0047 252.315 81.14 251.718 81.14ZM259.518 81.14C258.762 81.14 258.09 80.9813 257.502 80.664C256.923 80.3373 256.466 79.894 256.13 79.334C255.803 78.774 255.64 78.13 255.64 77.402C255.64 76.8233 255.733 76.296 255.92 75.82C256.107 75.344 256.363 74.9333 256.69 74.588C257.026 74.2333 257.423 73.9627 257.88 73.776C258.347 73.58 258.851 73.482 259.392 73.482C259.868 73.482 260.311 73.5753 260.722 73.762C261.133 73.9393 261.487 74.1867 261.786 74.504C262.094 74.8213 262.327 75.1993 262.486 75.638C262.654 76.0673 262.733 76.5387 262.724 77.052L262.71 77.668H256.704L256.382 76.52H261.464L261.254 76.758V76.422C261.226 76.114 261.123 75.8387 260.946 75.596C260.769 75.3533 260.545 75.162 260.274 75.022C260.003 74.882 259.709 74.812 259.392 74.812C258.888 74.812 258.463 74.91 258.118 75.106C257.773 75.2927 257.511 75.5727 257.334 75.946C257.157 76.31 257.068 76.7627 257.068 77.304C257.068 77.8173 257.175 78.2653 257.39 78.648C257.605 79.0213 257.908 79.3107 258.3 79.516C258.692 79.7213 259.145 79.824 259.658 79.824C260.022 79.824 260.358 79.7633 260.666 79.642C260.983 79.5207 261.324 79.3013 261.688 78.984L262.416 80.006C262.192 80.23 261.917 80.426 261.59 80.594C261.273 80.762 260.932 80.8973 260.568 81C260.213 81.0933 259.863 81.14 259.518 81.14Z" fill="black"/>
<rect x="166.5" y="2.5" width="129" height="103" rx="11.5" stroke="#FF6E41"/>
<g clip-path="url(#clip3_568_12966)">
<path d="M372.839 26C373.849 26 374.785 26.507 375.339 27.3406L375.444 27.5116L377.438 31H378.6C378.793 31 378.955 31.1371 378.992 31.3194L379 31.4V31.8754C379 32.2058 378.798 32.498 378.498 32.6181L378.37 32.6574C378.745 33.4354 378.912 34.2976 378.854 35.1598L378.827 35.4471L378.102 41.2481C377.983 42.1962 377.213 42.9202 376.275 42.9938L376.117 43H375C373.946 43 373.082 42.1841 373.005 41.1493L373 41H365C365 42.0544 364.184 42.9182 363.149 42.9945L363 43H361.883C360.927 43 360.113 42.3259 359.924 41.404L359.898 41.2481L359.173 35.4471C359.065 34.5859 359.184 33.7154 359.513 32.9197L359.63 32.6574L359.606 32.6515C359.285 32.5714 359.051 32.3042 359.007 31.9839L359 31.8754V31.4C359 31.2067 359.137 31.0454 359.319 31.0081L359.4 31H360.563L362.556 27.5116C363.057 26.6353 363.962 26.0735 364.96 26.0067L365.161 26H372.839ZM376.759 34.0355C376.266 34.5742 375.572 34.9402 374.759 34.9933L374.554 35H363.446C362.545 35 361.775 34.6191 361.241 34.0355C361.158 34.3365 361.123 34.6497 361.138 34.9636L361.158 35.199L361.883 41H363V40C363 39.4872 363.386 39.0645 363.883 39.0067L364 39H374C374.513 39 374.936 39.386 374.993 39.8834L375 40V41H376.117L376.842 35.199C376.891 34.807 376.862 34.4118 376.759 34.0355ZM362.738 35.8983L365.48 37.3793C365.853 37.5808 365.698 38.1479 365.274 38.131L362.96 38.0384C362.424 38.0169 362 37.5759 362 37.0392V36.3382C362 35.9596 362.404 35.7184 362.738 35.8983ZM376 36.3382V37.0392C376 37.5759 375.576 38.0169 375.04 38.0384L372.726 38.131C372.302 38.1479 372.147 37.5808 372.52 37.3793L375.262 35.8983C375.596 35.7184 376 35.9596 376 36.3382ZM372.839 28H365.161C364.802 28 364.47 28.1923 364.292 28.5039L362.578 31.5039C362.198 32.1705 362.679 33 363.446 33H374.554C375.322 33 375.803 32.1705 375.422 31.5039L373.708 28.5039C373.53 28.1923 373.198 28 372.839 28Z" fill="black"/>
</g>
<path d="M344.256 81L340.336 71.2H342.058L344.396 77.15C344.508 77.4393 344.606 77.7007 344.69 77.934C344.783 78.1673 344.863 78.382 344.928 78.578C344.993 78.7647 345.054 78.942 345.11 79.11C345.166 79.278 345.222 79.446 345.278 79.614L344.914 79.628C344.979 79.404 345.049 79.1707 345.124 78.928C345.199 78.6853 345.283 78.4193 345.376 78.13C345.479 77.8407 345.6 77.514 345.74 77.15L347.91 71.2H349.674L345.726 81H344.256ZM353.612 81.14C352.856 81.14 352.184 80.9813 351.596 80.664C351.017 80.3373 350.56 79.894 350.224 79.334C349.897 78.774 349.734 78.13 349.734 77.402C349.734 76.8233 349.827 76.296 350.014 75.82C350.2 75.344 350.457 74.9333 350.784 74.588C351.12 74.2333 351.516 73.9627 351.974 73.776C352.44 73.58 352.944 73.482 353.486 73.482C353.962 73.482 354.405 73.5753 354.816 73.762C355.226 73.9393 355.581 74.1867 355.88 74.504C356.188 74.8213 356.421 75.1993 356.58 75.638C356.748 76.0673 356.827 76.5387 356.818 77.052L356.804 77.668H350.798L350.476 76.52H355.558L355.348 76.758V76.422C355.32 76.114 355.217 75.8387 355.04 75.596C354.862 75.3533 354.638 75.162 354.368 75.022C354.097 74.882 353.803 74.812 353.486 74.812C352.982 74.812 352.557 74.91 352.212 75.106C351.866 75.2927 351.605 75.5727 351.428 75.946C351.25 76.31 351.162 76.7627 351.162 77.304C351.162 77.8173 351.269 78.2653 351.484 78.648C351.698 79.0213 352.002 79.3107 352.394 79.516C352.786 79.7213 353.238 79.824 353.752 79.824C354.116 79.824 354.452 79.7633 354.76 79.642C355.077 79.5207 355.418 79.3013 355.782 78.984L356.51 80.006C356.286 80.23 356.01 80.426 355.684 80.594C355.366 80.762 355.026 80.8973 354.662 81C354.307 81.0933 353.957 81.14 353.612 81.14ZM352.506 72.516L352.03 71.802L354.032 70.052L354.942 71.2L352.506 72.516ZM358.385 81V70.64H359.827V75.162L359.575 75.33C359.668 75.0033 359.85 74.7047 360.121 74.434C360.392 74.154 360.714 73.93 361.087 73.762C361.46 73.5847 361.843 73.496 362.235 73.496C362.795 73.496 363.262 73.608 363.635 73.832C364.008 74.0467 364.288 74.378 364.475 74.826C364.662 75.274 364.755 75.8387 364.755 76.52V81H363.313V76.618C363.313 76.198 363.257 75.8527 363.145 75.582C363.033 75.302 362.86 75.1013 362.627 74.98C362.394 74.8493 362.104 74.7933 361.759 74.812C361.479 74.812 361.222 74.8587 360.989 74.952C360.756 75.036 360.55 75.1573 360.373 75.316C360.205 75.4747 360.07 75.6613 359.967 75.876C359.874 76.0813 359.827 76.3053 359.827 76.548V81H359.113C358.992 81 358.87 81 358.749 81C358.628 81 358.506 81 358.385 81ZM366.949 81V73.65H368.391V81H366.949ZM367.649 72.026C367.341 72.026 367.103 71.9467 366.935 71.788C366.767 71.6293 366.683 71.4053 366.683 71.116C366.683 70.8453 366.767 70.626 366.935 70.458C367.112 70.29 367.35 70.206 367.649 70.206C367.957 70.206 368.195 70.2853 368.363 70.444C368.531 70.6027 368.615 70.8267 368.615 71.116C368.615 71.3867 368.526 71.606 368.349 71.774C368.181 71.942 367.948 72.026 367.649 72.026ZM373.73 81.14C373.048 81.14 372.437 80.972 371.896 80.636C371.364 80.3 370.939 79.8427 370.622 79.264C370.314 78.6853 370.16 78.0367 370.16 77.318C370.16 76.5993 370.314 75.9507 370.622 75.372C370.939 74.7933 371.364 74.336 371.896 74C372.437 73.664 373.048 73.496 373.73 73.496C374.383 73.496 374.976 73.6313 375.508 73.902C376.049 74.1633 376.46 74.5227 376.74 74.98L375.942 75.96C375.792 75.7453 375.601 75.5493 375.368 75.372C375.134 75.1947 374.887 75.0547 374.626 74.952C374.364 74.8493 374.112 74.798 373.87 74.798C373.422 74.798 373.02 74.91 372.666 75.134C372.32 75.3487 372.045 75.6473 371.84 76.03C371.634 76.4127 371.532 76.842 371.532 77.318C371.532 77.794 371.639 78.2233 371.854 78.606C372.068 78.9793 372.353 79.278 372.708 79.502C373.062 79.726 373.454 79.838 373.884 79.838C374.136 79.838 374.378 79.796 374.612 79.712C374.854 79.628 375.088 79.502 375.312 79.334C375.536 79.166 375.746 78.9607 375.942 78.718L376.74 79.698C376.441 80.118 376.012 80.4633 375.452 80.734C374.901 81.0047 374.327 81.14 373.73 81.14ZM380.676 81.14C380.153 81.14 379.696 81.0187 379.304 80.776C378.921 80.5333 378.622 80.1927 378.408 79.754C378.202 79.3153 378.1 78.7927 378.1 78.186V73.65H379.542V77.794C379.542 78.2233 379.607 78.5967 379.738 78.914C379.878 79.222 380.074 79.46 380.326 79.628C380.587 79.796 380.9 79.88 381.264 79.88C381.534 79.88 381.782 79.838 382.006 79.754C382.23 79.6607 382.421 79.5347 382.58 79.376C382.748 79.2173 382.878 79.026 382.972 78.802C383.065 78.578 383.112 78.3353 383.112 78.074V73.65H384.554V81H383.112V79.46L383.364 79.292C383.252 79.6373 383.06 79.95 382.79 80.23C382.528 80.51 382.216 80.734 381.852 80.902C381.488 81.0607 381.096 81.14 380.676 81.14ZM386.604 81V70.64H388.046V81H386.604ZM393.383 81.14C392.627 81.14 391.955 80.9813 391.367 80.664C390.789 80.3373 390.331 79.894 389.995 79.334C389.669 78.774 389.505 78.13 389.505 77.402C389.505 76.8233 389.599 76.296 389.785 75.82C389.972 75.344 390.229 74.9333 390.555 74.588C390.891 74.2333 391.288 73.9627 391.745 73.776C392.212 73.58 392.716 73.482 393.257 73.482C393.733 73.482 394.177 73.5753 394.587 73.762C394.998 73.9393 395.353 74.1867 395.651 74.504C395.959 74.8213 396.193 75.1993 396.351 75.638C396.519 76.0673 396.599 76.5387 396.589 77.052L396.575 77.668H390.569L390.247 76.52H395.329L395.119 76.758V76.422C395.091 76.114 394.989 75.8387 394.811 75.596C394.634 75.3533 394.41 75.162 394.139 75.022C393.869 74.882 393.575 74.812 393.257 74.812C392.753 74.812 392.329 74.91 391.983 75.106C391.638 75.2927 391.377 75.5727 391.199 75.946C391.022 76.31 390.933 76.7627 390.933 77.304C390.933 77.8173 391.041 78.2653 391.255 78.648C391.47 79.0213 391.773 79.3107 392.165 79.516C392.557 79.7213 393.01 79.824 393.523 79.824C393.887 79.824 394.223 79.7633 394.531 79.642C394.849 79.5207 395.189 79.3013 395.553 78.984L396.281 80.006C396.057 80.23 395.782 80.426 395.455 80.594C395.138 80.762 394.797 80.8973 394.433 81C394.079 81.0933 393.729 81.14 393.383 81.14Z" fill="#676767"/>
<rect x="304.5" y="2.5" width="129" height="103" rx="11.5" stroke="#C3C9CB"/>
<rect width="24" height="24" transform="translate(264 42)" fill="white" style="mix-blend-mode:multiply"/>
<g filter="url(#filter0_dd_568_12966)">
<path fill-rule="evenodd" clip-rule="evenodd" d="M276.017 55.2H279.2L272 48V57.9L274.252 55.6482L276.318 60.5163L277.975 59.813L276.017 55.2Z" fill="black"/>
<path d="M276.772 55.7H279.2H280.407L279.554 54.8464L272.354 47.6464L271.5 46.7929V48V57.9V59.1071L272.354 58.2536L274.081 56.5259L275.858 60.7117L276.053 61.1719L276.514 60.9766L278.171 60.2733L278.631 60.0779L278.435 59.6176L276.772 55.7Z" stroke="white"/>
</g>
</g>
<defs>
<filter id="filter0_dd_568_12966" x="269.5" y="45.0859" width="13.6172" height="19.2422" filterUnits="userSpaceOnUse" color-interpolation-filters="sRGB">
<feFlood flood-opacity="0" result="BackgroundImageFix"/>
<feColorMatrix in="SourceAlpha" type="matrix" values="0 0 0 0 0 0 0 0 0 0 0 0 0 0 0 0 0 0 127 0" result="hardAlpha"/>
<feOffset dy="0.75"/>
<feGaussianBlur stdDeviation="0.5"/>
<feColorMatrix type="matrix" values="0 0 0 0 0 0 0 0 0 0 0 0 0 0 0 0 0 0 0.2 0"/>
<feBlend mode="normal" in2="BackgroundImageFix" result="effect1_dropShadow_568_12966"/>
<feColorMatrix in="SourceAlpha" type="matrix" values="0 0 0 0 0 0 0 0 0 0 0 0 0 0 0 0 0 0 127 0" result="hardAlpha"/>
<feOffset dy="1"/>
<feGaussianBlur stdDeviation="0.75"/>
<feColorMatrix type="matrix" values="0 0 0 0 0 0 0 0 0 0 0 0 0 0 0 0 0 0 0.25 0"/>
<feBlend mode="normal" in2="effect1_dropShadow_568_12966" result="effect2_dropShadow_568_12966"/>
<feBlend mode="normal" in="SourceGraphic" in2="effect2_dropShadow_568_12966" result="shape"/>
</filter>
<linearGradient id="paint0_linear_568_12966" x1="438" y1="178" x2="438" y2="114" gradientUnits="userSpaceOnUse">
<stop offset="0.203125" stop-color="#EEF2F3"/>
<stop offset="1" stop-color="#ECF0F1"/>
</linearGradient>
<linearGradient id="paint1_linear_568_12966" x1="438" y1="178" x2="428.787" y2="115.355" gradientUnits="userSpaceOnUse">
<stop stop-color="#F1F5F6" stop-opacity="0.21"/>
<stop offset="1" stop-color="#DAE2E4"/>
</linearGradient>
<linearGradient id="paint2_linear_568_12966" x1="300" y1="178" x2="300" y2="114" gradientUnits="userSpaceOnUse">
<stop offset="0.203125" stop-color="#EEF2F3"/>
<stop offset="1" stop-color="#ECF0F1"/>
</linearGradient>
<linearGradient id="paint3_linear_568_12966" x1="300" y1="178" x2="290.787" y2="115.355" gradientUnits="userSpaceOnUse">
<stop stop-color="#F1F5F6" stop-opacity="0.21"/>
<stop offset="1" stop-color="#DAE2E4"/>
</linearGradient>
<linearGradient id="paint4_linear_568_12966" x1="162" y1="178" x2="162" y2="114" gradientUnits="userSpaceOnUse">
<stop offset="0.203125" stop-color="#EEF2F3"/>
<stop offset="1" stop-color="#ECF0F1"/>
</linearGradient>
<linearGradient id="paint5_linear_568_12966" x1="162" y1="178" x2="152.683" y2="115.387" gradientUnits="userSpaceOnUse">
<stop stop-color="#F1F5F6" stop-opacity="0.21"/>
<stop offset="1" stop-color="#DAE2E4"/>
</linearGradient>
<linearGradient id="paint6_linear_568_12966" x1="24" y1="178" x2="24" y2="114" gradientUnits="userSpaceOnUse">
<stop offset="0.203125" stop-color="#EEF2F3"/>
<stop offset="1" stop-color="#ECF0F1"/>
</linearGradient>
<linearGradient id="paint7_linear_568_12966" x1="24" y1="178" x2="14.7156" y2="115.376" gradientUnits="userSpaceOnUse">
<stop stop-color="#F1F5F6" stop-opacity="0.21"/>
<stop offset="1" stop-color="#DAE2E4"/>
</linearGradient>
<clipPath id="clip0_568_12966">
<rect width="462" height="140" fill="white"/>
</clipPath>
<clipPath id="clip1_568_12966">
<rect width="24" height="24" fill="white" transform="translate(81 22)"/>
</clipPath>
<clipPath id="clip2_568_12966">
<rect width="24" height="24" fill="white" transform="translate(219 22)"/>
</clipPath>
<clipPath id="clip3_568_12966">
<rect width="24" height="24" fill="white" transform="translate(357 22)"/>
</clipPath>
</defs>
</svg>
