<svg width="823" height="210" viewBox="0 0 823 210" fill="none" xmlns="http://www.w3.org/2000/svg">
<rect x="282.5" y="0.5" width="540" height="209" rx="31.5" fill="white"/>
<path d="M349.734 146L354.648 133.4H356.844L361.722 146H359.292L356.592 138.836C356.532 138.692 356.448 138.464 356.34 138.152C356.244 137.84 356.136 137.504 356.016 137.144C355.896 136.772 355.788 136.43 355.692 136.118C355.596 135.794 355.524 135.56 355.476 135.416L355.926 135.398C355.854 135.638 355.77 135.908 355.674 136.208C355.578 136.508 355.476 136.82 355.368 137.144C355.26 137.468 355.152 137.78 355.044 138.08C354.948 138.38 354.858 138.65 354.774 138.89L352.074 146H349.734ZM351.966 143.12L352.776 141.086H358.518L359.382 143.12H351.966ZM366.479 146.18C365.639 146.18 364.883 146.042 364.211 145.766C363.551 145.478 363.011 145.07 362.591 144.542L364.031 143.3C364.391 143.708 364.793 144.002 365.237 144.182C365.681 144.362 366.149 144.452 366.641 144.452C366.845 144.452 367.025 144.428 367.181 144.38C367.349 144.332 367.493 144.26 367.613 144.164C367.733 144.068 367.823 143.96 367.883 143.84C367.955 143.708 367.991 143.564 367.991 143.408C367.991 143.12 367.883 142.892 367.667 142.724C367.547 142.64 367.355 142.55 367.091 142.454C366.839 142.358 366.509 142.262 366.101 142.166C365.453 141.998 364.913 141.806 364.481 141.59C364.049 141.362 363.713 141.11 363.473 140.834C363.269 140.606 363.113 140.348 363.005 140.06C362.909 139.772 362.861 139.46 362.861 139.124C362.861 138.704 362.951 138.326 363.131 137.99C363.323 137.642 363.581 137.342 363.905 137.09C364.229 136.838 364.607 136.646 365.039 136.514C365.471 136.382 365.921 136.316 366.389 136.316C366.869 136.316 367.331 136.376 367.775 136.496C368.231 136.616 368.651 136.79 369.035 137.018C369.431 137.234 369.767 137.498 370.043 137.81L368.819 139.16C368.591 138.944 368.339 138.752 368.063 138.584C367.799 138.416 367.529 138.284 367.253 138.188C366.977 138.08 366.719 138.026 366.479 138.026C366.251 138.026 366.047 138.05 365.867 138.098C365.687 138.134 365.537 138.194 365.417 138.278C365.297 138.362 365.201 138.47 365.129 138.602C365.069 138.722 365.039 138.866 365.039 139.034C365.051 139.178 365.087 139.316 365.147 139.448C365.219 139.568 365.315 139.67 365.435 139.754C365.567 139.838 365.765 139.934 366.029 140.042C366.293 140.15 366.635 140.252 367.055 140.348C367.643 140.504 368.135 140.678 368.531 140.87C368.927 141.062 369.239 141.284 369.467 141.536C369.695 141.752 369.857 142.004 369.953 142.292C370.049 142.58 370.097 142.898 370.097 143.246C370.097 143.81 369.935 144.314 369.611 144.758C369.299 145.202 368.867 145.55 368.315 145.802C367.775 146.054 367.163 146.18 366.479 146.18ZM375.215 146.18C374.375 146.18 373.619 146.042 372.947 145.766C372.287 145.478 371.747 145.07 371.327 144.542L372.767 143.3C373.127 143.708 373.529 144.002 373.973 144.182C374.417 144.362 374.885 144.452 375.377 144.452C375.581 144.452 375.761 144.428 375.917 144.38C376.085 144.332 376.229 144.26 376.349 144.164C376.469 144.068 376.559 143.96 376.619 143.84C376.691 143.708 376.727 143.564 376.727 143.408C376.727 143.12 376.619 142.892 376.403 142.724C376.283 142.64 376.091 142.55 375.827 142.454C375.575 142.358 375.245 142.262 374.837 142.166C374.189 141.998 373.649 141.806 373.217 141.59C372.785 141.362 372.449 141.11 372.209 140.834C372.005 140.606 371.849 140.348 371.741 140.06C371.645 139.772 371.597 139.46 371.597 139.124C371.597 138.704 371.687 138.326 371.867 137.99C372.059 137.642 372.317 137.342 372.641 137.09C372.965 136.838 373.343 136.646 373.775 136.514C374.207 136.382 374.657 136.316 375.125 136.316C375.605 136.316 376.067 136.376 376.511 136.496C376.967 136.616 377.387 136.79 377.771 137.018C378.167 137.234 378.503 137.498 378.779 137.81L377.555 139.16C377.327 138.944 377.075 138.752 376.799 138.584C376.535 138.416 376.265 138.284 375.989 138.188C375.713 138.08 375.455 138.026 375.215 138.026C374.987 138.026 374.783 138.05 374.603 138.098C374.423 138.134 374.273 138.194 374.153 138.278C374.033 138.362 373.937 138.47 373.865 138.602C373.805 138.722 373.775 138.866 373.775 139.034C373.787 139.178 373.823 139.316 373.883 139.448C373.955 139.568 374.051 139.67 374.171 139.754C374.303 139.838 374.501 139.934 374.765 140.042C375.029 140.15 375.371 140.252 375.791 140.348C376.379 140.504 376.871 140.678 377.267 140.87C377.663 141.062 377.975 141.284 378.203 141.536C378.431 141.752 378.593 142.004 378.689 142.292C378.785 142.58 378.833 142.898 378.833 143.246C378.833 143.81 378.671 144.314 378.347 144.758C378.035 145.202 377.603 145.55 377.051 145.802C376.511 146.054 375.899 146.18 375.215 146.18ZM384.077 146.18C383.393 146.18 382.799 146.03 382.295 145.73C381.791 145.418 381.407 144.98 381.143 144.416C380.879 143.84 380.747 143.156 380.747 142.364V136.514H382.961V141.896C382.961 142.4 383.039 142.832 383.195 143.192C383.351 143.54 383.579 143.81 383.879 144.002C384.179 144.194 384.539 144.29 384.959 144.29C385.271 144.29 385.553 144.242 385.805 144.146C386.069 144.038 386.297 143.894 386.489 143.714C386.681 143.522 386.831 143.3 386.939 143.048C387.047 142.784 387.101 142.502 387.101 142.202V136.514H389.315V146H387.155L387.119 144.02L387.515 143.804C387.371 144.26 387.125 144.668 386.777 145.028C386.441 145.376 386.039 145.658 385.571 145.874C385.103 146.078 384.605 146.18 384.077 146.18ZM391.91 146V136.514H394.088L394.124 139.538L393.818 138.854C393.95 138.374 394.178 137.942 394.502 137.558C394.826 137.174 395.198 136.874 395.618 136.658C396.05 136.43 396.5 136.316 396.968 136.316C397.172 136.316 397.364 136.334 397.544 136.37C397.736 136.406 397.892 136.448 398.012 136.496L397.418 138.926C397.286 138.854 397.124 138.794 396.932 138.746C396.74 138.698 396.548 138.674 396.356 138.674C396.056 138.674 395.768 138.734 395.492 138.854C395.228 138.962 394.994 139.118 394.79 139.322C394.586 139.526 394.424 139.766 394.304 140.042C394.196 140.306 394.142 140.606 394.142 140.942V146H391.91ZM402.664 146.18C401.884 146.18 401.176 145.964 400.54 145.532C399.904 145.1 399.394 144.512 399.01 143.768C398.626 143.024 398.434 142.178 398.434 141.23C398.434 140.282 398.626 139.436 399.01 138.692C399.394 137.948 399.916 137.366 400.576 136.946C401.236 136.526 401.98 136.316 402.808 136.316C403.288 136.316 403.726 136.388 404.122 136.532C404.518 136.664 404.866 136.856 405.166 137.108C405.466 137.36 405.712 137.648 405.904 137.972C406.108 138.296 406.246 138.644 406.318 139.016L405.832 138.89V136.514H408.064V146H405.814V143.732L406.336 143.642C406.252 143.966 406.096 144.284 405.868 144.596C405.652 144.896 405.376 145.166 405.04 145.406C404.716 145.634 404.35 145.82 403.942 145.964C403.546 146.108 403.12 146.18 402.664 146.18ZM403.276 144.218C403.792 144.218 404.248 144.092 404.644 143.84C405.04 143.588 405.346 143.24 405.562 142.796C405.79 142.34 405.904 141.818 405.904 141.23C405.904 140.654 405.79 140.144 405.562 139.7C405.346 139.256 405.04 138.908 404.644 138.656C404.248 138.404 403.792 138.278 403.276 138.278C402.76 138.278 402.304 138.404 401.908 138.656C401.524 138.908 401.224 139.256 401.008 139.7C400.792 140.144 400.684 140.654 400.684 141.23C400.684 141.818 400.792 142.34 401.008 142.796C401.224 143.24 401.524 143.588 401.908 143.84C402.304 144.092 402.76 144.218 403.276 144.218ZM410.631 146V136.514H412.791L412.827 138.458L412.413 138.674C412.533 138.242 412.767 137.852 413.115 137.504C413.463 137.144 413.877 136.856 414.357 136.64C414.837 136.424 415.329 136.316 415.833 136.316C416.553 136.316 417.153 136.46 417.633 136.748C418.125 137.036 418.491 137.468 418.731 138.044C418.983 138.62 419.109 139.34 419.109 140.204V146H416.895V140.366C416.895 139.886 416.829 139.49 416.697 139.178C416.565 138.854 416.361 138.62 416.085 138.476C415.809 138.32 415.473 138.248 415.077 138.26C414.753 138.26 414.453 138.314 414.177 138.422C413.913 138.518 413.679 138.662 413.475 138.854C413.283 139.034 413.127 139.244 413.007 139.484C412.899 139.724 412.845 139.988 412.845 140.276V146H411.747C411.531 146 411.327 146 411.135 146C410.955 146 410.787 146 410.631 146ZM425.668 146.18C424.78 146.18 423.982 145.964 423.274 145.532C422.566 145.1 422.008 144.512 421.6 143.768C421.192 143.024 420.988 142.184 420.988 141.248C420.988 140.312 421.192 139.472 421.6 138.728C422.008 137.984 422.566 137.396 423.274 136.964C423.982 136.532 424.78 136.316 425.668 136.316C426.52 136.316 427.294 136.478 427.99 136.802C428.686 137.126 429.226 137.576 429.61 138.152L428.386 139.628C428.206 139.376 427.978 139.148 427.702 138.944C427.426 138.74 427.132 138.578 426.82 138.458C426.508 138.338 426.196 138.278 425.884 138.278C425.356 138.278 424.882 138.41 424.462 138.674C424.054 138.926 423.73 139.28 423.49 139.736C423.25 140.18 423.13 140.684 423.13 141.248C423.13 141.812 423.25 142.316 423.49 142.76C423.742 143.204 424.078 143.558 424.498 143.822C424.918 144.086 425.386 144.218 425.902 144.218C426.214 144.218 426.514 144.17 426.802 144.074C427.102 143.966 427.384 143.816 427.648 143.624C427.912 143.432 428.158 143.192 428.386 142.904L429.61 144.398C429.202 144.926 428.638 145.358 427.918 145.694C427.21 146.018 426.46 146.18 425.668 146.18ZM435.749 146.18C434.753 146.18 433.871 145.97 433.103 145.55C432.347 145.13 431.753 144.56 431.321 143.84C430.901 143.108 430.691 142.274 430.691 141.338C430.691 140.594 430.811 139.916 431.051 139.304C431.291 138.692 431.621 138.164 432.041 137.72C432.473 137.264 432.983 136.916 433.571 136.676C434.171 136.424 434.825 136.298 435.533 136.298C436.157 136.298 436.739 136.418 437.279 136.658C437.819 136.898 438.287 137.228 438.683 137.648C439.079 138.056 439.379 138.548 439.583 139.124C439.799 139.688 439.901 140.306 439.889 140.978L439.871 141.752H432.185L431.771 140.24H438.017L437.729 140.546V140.15C437.693 139.778 437.573 139.454 437.369 139.178C437.165 138.89 436.901 138.668 436.577 138.512C436.265 138.344 435.917 138.26 435.533 138.26C434.945 138.26 434.447 138.374 434.039 138.602C433.643 138.83 433.343 139.16 433.139 139.592C432.935 140.012 432.833 140.54 432.833 141.176C432.833 141.788 432.959 142.322 433.211 142.778C433.475 143.234 433.841 143.588 434.309 143.84C434.789 144.08 435.347 144.2 435.983 144.2C436.427 144.2 436.835 144.128 437.207 143.984C437.579 143.84 437.981 143.582 438.413 143.21L439.511 144.74C439.187 145.04 438.815 145.298 438.395 145.514C437.987 145.718 437.555 145.88 437.099 146C436.643 146.12 436.193 146.18 435.749 146.18Z" fill="#404040"/>
<path d="M509.964 146V133.4H518.208V135.524H512.268V143.876H518.28V146H509.964ZM511.044 140.6V138.512H517.29V140.6H511.044ZM520.818 146V136.514H522.978L523.014 138.458L522.6 138.674C522.72 138.242 522.954 137.852 523.302 137.504C523.65 137.144 524.064 136.856 524.544 136.64C525.024 136.424 525.516 136.316 526.02 136.316C526.74 136.316 527.34 136.46 527.82 136.748C528.312 137.036 528.678 137.468 528.918 138.044C529.17 138.62 529.296 139.34 529.296 140.204V146H527.082V140.366C527.082 139.886 527.016 139.49 526.884 139.178C526.752 138.854 526.548 138.62 526.272 138.476C525.996 138.32 525.66 138.248 525.264 138.26C524.94 138.26 524.64 138.314 524.364 138.422C524.1 138.518 523.866 138.662 523.662 138.854C523.47 139.034 523.314 139.244 523.194 139.484C523.086 139.724 523.032 139.988 523.032 140.276V146H521.934C521.718 146 521.514 146 521.322 146C521.142 146 520.974 146 520.818 146ZM532.813 146V134.102H535.027V146H532.813ZM530.941 138.566V136.514H537.097V138.566H530.941ZM538.783 146V136.514H540.961L540.997 139.538L540.691 138.854C540.823 138.374 541.051 137.942 541.375 137.558C541.699 137.174 542.071 136.874 542.491 136.658C542.923 136.43 543.373 136.316 543.841 136.316C544.045 136.316 544.237 136.334 544.417 136.37C544.609 136.406 544.765 136.448 544.885 136.496L544.291 138.926C544.159 138.854 543.997 138.794 543.805 138.746C543.613 138.698 543.421 138.674 543.229 138.674C542.929 138.674 542.641 138.734 542.365 138.854C542.101 138.962 541.867 139.118 541.663 139.322C541.459 139.526 541.297 139.766 541.177 140.042C541.069 140.306 541.015 140.606 541.015 140.942V146H538.783ZM550.401 146.18C549.405 146.18 548.523 145.97 547.755 145.55C546.999 145.13 546.405 144.56 545.973 143.84C545.553 143.108 545.343 142.274 545.343 141.338C545.343 140.594 545.463 139.916 545.703 139.304C545.943 138.692 546.273 138.164 546.693 137.72C547.125 137.264 547.635 136.916 548.223 136.676C548.823 136.424 549.477 136.298 550.185 136.298C550.809 136.298 551.391 136.418 551.931 136.658C552.471 136.898 552.939 137.228 553.335 137.648C553.731 138.056 554.031 138.548 554.235 139.124C554.451 139.688 554.553 140.306 554.541 140.978L554.523 141.752H546.837L546.423 140.24H552.669L552.381 140.546V140.15C552.345 139.778 552.225 139.454 552.021 139.178C551.817 138.89 551.553 138.668 551.229 138.512C550.917 138.344 550.569 138.26 550.185 138.26C549.597 138.26 549.099 138.374 548.691 138.602C548.295 138.83 547.995 139.16 547.791 139.592C547.587 140.012 547.485 140.54 547.485 141.176C547.485 141.788 547.611 142.322 547.863 142.778C548.127 143.234 548.493 143.588 548.961 143.84C549.441 144.08 549.999 144.2 550.635 144.2C551.079 144.2 551.487 144.128 551.859 143.984C552.231 143.84 552.633 143.582 553.065 143.21L554.163 144.74C553.839 145.04 553.467 145.298 553.047 145.514C552.639 145.718 552.207 145.88 551.751 146C551.295 146.12 550.845 146.18 550.401 146.18ZM557.528 146V134.102H559.742V146H557.528ZM555.656 138.566V136.514H561.812V138.566H555.656ZM563.75 146V136.514H565.964V146H563.75ZM564.83 134.498C564.386 134.498 564.038 134.39 563.786 134.174C563.546 133.946 563.426 133.628 563.426 133.22C563.426 132.836 563.552 132.524 563.804 132.284C564.056 132.044 564.398 131.924 564.83 131.924C565.286 131.924 565.634 132.038 565.874 132.266C566.126 132.482 566.252 132.8 566.252 133.22C566.252 133.592 566.126 133.898 565.874 134.138C565.622 134.378 565.274 134.498 564.83 134.498ZM573.218 146.18C572.222 146.18 571.34 145.97 570.572 145.55C569.816 145.13 569.222 144.56 568.79 143.84C568.37 143.108 568.16 142.274 568.16 141.338C568.16 140.594 568.28 139.916 568.52 139.304C568.76 138.692 569.09 138.164 569.51 137.72C569.942 137.264 570.452 136.916 571.04 136.676C571.64 136.424 572.294 136.298 573.002 136.298C573.626 136.298 574.208 136.418 574.748 136.658C575.288 136.898 575.756 137.228 576.152 137.648C576.548 138.056 576.848 138.548 577.052 139.124C577.268 139.688 577.37 140.306 577.358 140.978L577.34 141.752H569.654L569.24 140.24H575.486L575.198 140.546V140.15C575.162 139.778 575.042 139.454 574.838 139.178C574.634 138.89 574.37 138.668 574.046 138.512C573.734 138.344 573.386 138.26 573.002 138.26C572.414 138.26 571.916 138.374 571.508 138.602C571.112 138.83 570.812 139.16 570.608 139.592C570.404 140.012 570.302 140.54 570.302 141.176C570.302 141.788 570.428 142.322 570.68 142.778C570.944 143.234 571.31 143.588 571.778 143.84C572.258 144.08 572.816 144.2 573.452 144.2C573.896 144.2 574.304 144.128 574.676 143.984C575.048 143.84 575.45 143.582 575.882 143.21L576.98 144.74C576.656 145.04 576.284 145.298 575.864 145.514C575.456 145.718 575.024 145.88 574.568 146C574.112 146.12 573.662 146.18 573.218 146.18ZM579.318 146V136.514H581.478L581.514 138.458L581.1 138.674C581.22 138.242 581.454 137.852 581.802 137.504C582.15 137.144 582.564 136.856 583.044 136.64C583.524 136.424 584.016 136.316 584.52 136.316C585.24 136.316 585.84 136.46 586.32 136.748C586.812 137.036 587.178 137.468 587.418 138.044C587.67 138.62 587.796 139.34 587.796 140.204V146H585.582V140.366C585.582 139.886 585.516 139.49 585.384 139.178C585.252 138.854 585.048 138.62 584.772 138.476C584.496 138.32 584.16 138.248 583.764 138.26C583.44 138.26 583.14 138.314 582.864 138.422C582.6 138.518 582.366 138.662 582.162 138.854C581.97 139.034 581.814 139.244 581.694 139.484C581.586 139.724 581.532 139.988 581.532 140.276V146H580.434C580.218 146 580.014 146 579.822 146C579.642 146 579.474 146 579.318 146ZM593.455 146.18C592.615 146.18 591.859 146.042 591.187 145.766C590.527 145.478 589.987 145.07 589.567 144.542L591.007 143.3C591.367 143.708 591.769 144.002 592.213 144.182C592.657 144.362 593.125 144.452 593.617 144.452C593.821 144.452 594.001 144.428 594.157 144.38C594.325 144.332 594.469 144.26 594.589 144.164C594.709 144.068 594.799 143.96 594.859 143.84C594.931 143.708 594.967 143.564 594.967 143.408C594.967 143.12 594.859 142.892 594.643 142.724C594.523 142.64 594.331 142.55 594.067 142.454C593.815 142.358 593.485 142.262 593.077 142.166C592.429 141.998 591.889 141.806 591.457 141.59C591.025 141.362 590.689 141.11 590.449 140.834C590.245 140.606 590.089 140.348 589.981 140.06C589.885 139.772 589.837 139.46 589.837 139.124C589.837 138.704 589.927 138.326 590.107 137.99C590.299 137.642 590.557 137.342 590.881 137.09C591.205 136.838 591.583 136.646 592.015 136.514C592.447 136.382 592.897 136.316 593.365 136.316C593.845 136.316 594.307 136.376 594.751 136.496C595.207 136.616 595.627 136.79 596.011 137.018C596.407 137.234 596.743 137.498 597.019 137.81L595.795 139.16C595.567 138.944 595.315 138.752 595.039 138.584C594.775 138.416 594.505 138.284 594.229 138.188C593.953 138.08 593.695 138.026 593.455 138.026C593.227 138.026 593.023 138.05 592.843 138.098C592.663 138.134 592.513 138.194 592.393 138.278C592.273 138.362 592.177 138.47 592.105 138.602C592.045 138.722 592.015 138.866 592.015 139.034C592.027 139.178 592.063 139.316 592.123 139.448C592.195 139.568 592.291 139.67 592.411 139.754C592.543 139.838 592.741 139.934 593.005 140.042C593.269 140.15 593.611 140.252 594.031 140.348C594.619 140.504 595.111 140.678 595.507 140.87C595.903 141.062 596.215 141.284 596.443 141.536C596.671 141.752 596.833 142.004 596.929 142.292C597.025 142.58 597.073 142.898 597.073 143.246C597.073 143.81 596.911 144.314 596.587 144.758C596.275 145.202 595.843 145.55 595.291 145.802C594.751 146.054 594.139 146.18 593.455 146.18Z" fill="#404040"/>
<path d="M658.815 146V133.4H664.287C665.043 133.4 665.733 133.58 666.357 133.94C666.981 134.288 667.473 134.768 667.833 135.38C668.205 135.98 668.391 136.658 668.391 137.414C668.391 138.134 668.205 138.8 667.833 139.412C667.473 140.012 666.981 140.492 666.357 140.852C665.745 141.2 665.055 141.374 664.287 141.374H661.101V146H658.815ZM666.123 146L662.919 140.312L665.331 139.862L668.895 146.018L666.123 146ZM661.101 139.34H664.305C664.653 139.34 664.953 139.262 665.205 139.106C665.469 138.938 665.673 138.71 665.817 138.422C665.961 138.134 666.033 137.816 666.033 137.468C666.033 137.072 665.943 136.73 665.763 136.442C665.583 136.154 665.331 135.926 665.007 135.758C664.683 135.59 664.311 135.506 663.891 135.506H661.101V139.34ZM675.064 146.18C674.068 146.18 673.186 145.97 672.418 145.55C671.662 145.13 671.068 144.56 670.636 143.84C670.216 143.108 670.006 142.274 670.006 141.338C670.006 140.594 670.126 139.916 670.366 139.304C670.606 138.692 670.936 138.164 671.356 137.72C671.788 137.264 672.298 136.916 672.886 136.676C673.486 136.424 674.14 136.298 674.848 136.298C675.472 136.298 676.054 136.418 676.594 136.658C677.134 136.898 677.602 137.228 677.998 137.648C678.394 138.056 678.694 138.548 678.898 139.124C679.114 139.688 679.216 140.306 679.204 140.978L679.186 141.752H671.5L671.086 140.24H677.332L677.044 140.546V140.15C677.008 139.778 676.888 139.454 676.684 139.178C676.48 138.89 676.216 138.668 675.892 138.512C675.58 138.344 675.232 138.26 674.848 138.26C674.26 138.26 673.762 138.374 673.354 138.602C672.958 138.83 672.658 139.16 672.454 139.592C672.25 140.012 672.148 140.54 672.148 141.176C672.148 141.788 672.274 142.322 672.526 142.778C672.79 143.234 673.156 143.588 673.624 143.84C674.104 144.08 674.662 144.2 675.298 144.2C675.742 144.2 676.15 144.128 676.522 143.984C676.894 143.84 677.296 143.582 677.728 143.21L678.826 144.74C678.502 145.04 678.13 145.298 677.71 145.514C677.302 145.718 676.87 145.88 676.414 146C675.958 146.12 675.508 146.18 675.064 146.18ZM673.534 135.2L672.832 134.138L675.64 131.798L676.864 133.4L673.534 135.2ZM681.165 149.96V136.514H683.343L683.379 138.674L683.001 138.512C683.073 138.14 683.277 137.792 683.613 137.468C683.949 137.132 684.357 136.862 684.837 136.658C685.329 136.454 685.839 136.352 686.367 136.352C687.207 136.352 687.951 136.562 688.599 136.982C689.259 137.402 689.775 137.978 690.147 138.71C690.531 139.442 690.723 140.288 690.723 141.248C690.723 142.196 690.531 143.042 690.147 143.786C689.775 144.518 689.259 145.1 688.599 145.532C687.951 145.952 687.219 146.162 686.403 146.162C685.851 146.162 685.317 146.054 684.801 145.838C684.297 145.622 683.865 145.34 683.505 144.992C683.157 144.644 682.941 144.278 682.857 143.894L683.397 143.642V149.96H681.165ZM685.953 144.2C686.457 144.2 686.907 144.074 687.303 143.822C687.699 143.57 688.005 143.222 688.221 142.778C688.449 142.334 688.563 141.824 688.563 141.248C688.563 140.672 688.455 140.168 688.239 139.736C688.023 139.292 687.717 138.944 687.321 138.692C686.925 138.44 686.469 138.314 685.953 138.314C685.425 138.314 684.963 138.44 684.567 138.692C684.183 138.932 683.877 139.274 683.649 139.718C683.421 140.162 683.307 140.672 683.307 141.248C683.307 141.824 683.421 142.334 683.649 142.778C683.877 143.222 684.183 143.57 684.567 143.822C684.963 144.074 685.425 144.2 685.953 144.2ZM696.278 146.18C695.498 146.18 694.79 145.964 694.154 145.532C693.518 145.1 693.008 144.512 692.624 143.768C692.24 143.024 692.048 142.178 692.048 141.23C692.048 140.282 692.24 139.436 692.624 138.692C693.008 137.948 693.53 137.366 694.19 136.946C694.85 136.526 695.594 136.316 696.422 136.316C696.902 136.316 697.34 136.388 697.736 136.532C698.132 136.664 698.48 136.856 698.78 137.108C699.08 137.36 699.326 137.648 699.518 137.972C699.722 138.296 699.86 138.644 699.932 139.016L699.446 138.89V136.514H701.678V146H699.428V143.732L699.95 143.642C699.866 143.966 699.71 144.284 699.482 144.596C699.266 144.896 698.99 145.166 698.654 145.406C698.33 145.634 697.964 145.82 697.556 145.964C697.16 146.108 696.734 146.18 696.278 146.18ZM696.89 144.218C697.406 144.218 697.862 144.092 698.258 143.84C698.654 143.588 698.96 143.24 699.176 142.796C699.404 142.34 699.518 141.818 699.518 141.23C699.518 140.654 699.404 140.144 699.176 139.7C698.96 139.256 698.654 138.908 698.258 138.656C697.862 138.404 697.406 138.278 696.89 138.278C696.374 138.278 695.918 138.404 695.522 138.656C695.138 138.908 694.838 139.256 694.622 139.7C694.406 140.144 694.298 140.654 694.298 141.23C694.298 141.818 694.406 142.34 694.622 142.796C694.838 143.24 695.138 143.588 695.522 143.84C695.918 144.092 696.374 144.218 696.89 144.218ZM704.245 146V136.514H706.423L706.459 139.538L706.153 138.854C706.285 138.374 706.513 137.942 706.837 137.558C707.161 137.174 707.533 136.874 707.953 136.658C708.385 136.43 708.835 136.316 709.303 136.316C709.507 136.316 709.699 136.334 709.879 136.37C710.071 136.406 710.227 136.448 710.347 136.496L709.753 138.926C709.621 138.854 709.459 138.794 709.267 138.746C709.075 138.698 708.883 138.674 708.691 138.674C708.391 138.674 708.103 138.734 707.827 138.854C707.563 138.962 707.329 139.118 707.125 139.322C706.921 139.526 706.759 139.766 706.639 140.042C706.531 140.306 706.477 140.606 706.477 140.942V146H704.245ZM714.999 146.18C714.219 146.18 713.511 145.964 712.875 145.532C712.239 145.1 711.729 144.512 711.345 143.768C710.961 143.024 710.769 142.178 710.769 141.23C710.769 140.282 710.961 139.436 711.345 138.692C711.729 137.948 712.251 137.366 712.911 136.946C713.571 136.526 714.315 136.316 715.143 136.316C715.623 136.316 716.061 136.388 716.457 136.532C716.853 136.664 717.201 136.856 717.501 137.108C717.801 137.36 718.047 137.648 718.239 137.972C718.443 138.296 718.581 138.644 718.653 139.016L718.167 138.89V136.514H720.399V146H718.149V143.732L718.671 143.642C718.587 143.966 718.431 144.284 718.203 144.596C717.987 144.896 717.711 145.166 717.375 145.406C717.051 145.634 716.685 145.82 716.277 145.964C715.881 146.108 715.455 146.18 714.999 146.18ZM715.611 144.218C716.127 144.218 716.583 144.092 716.979 143.84C717.375 143.588 717.681 143.24 717.897 142.796C718.125 142.34 718.239 141.818 718.239 141.23C718.239 140.654 718.125 140.144 717.897 139.7C717.681 139.256 717.375 138.908 716.979 138.656C716.583 138.404 716.127 138.278 715.611 138.278C715.095 138.278 714.639 138.404 714.243 138.656C713.859 138.908 713.559 139.256 713.343 139.7C713.127 140.144 713.019 140.654 713.019 141.23C713.019 141.818 713.127 142.34 713.343 142.796C713.559 143.24 713.859 143.588 714.243 143.84C714.639 144.092 715.095 144.218 715.611 144.218ZM723.992 146V134.102H726.206V146H723.992ZM722.12 138.566V136.514H728.276V138.566H722.12ZM730.214 146V136.514H732.428V146H730.214ZM731.294 134.498C730.85 134.498 730.502 134.39 730.25 134.174C730.01 133.946 729.89 133.628 729.89 133.22C729.89 132.836 730.016 132.524 730.268 132.284C730.52 132.044 730.862 131.924 731.294 131.924C731.75 131.924 732.098 132.038 732.338 132.266C732.59 132.482 732.716 132.8 732.716 133.22C732.716 133.592 732.59 133.898 732.338 134.138C732.086 134.378 731.738 134.498 731.294 134.498ZM739.573 146.18C738.625 146.18 737.779 145.97 737.035 145.55C736.291 145.118 735.703 144.53 735.271 143.786C734.839 143.042 734.623 142.196 734.623 141.248C734.623 140.3 734.839 139.454 735.271 138.71C735.703 137.966 736.291 137.384 737.035 136.964C737.779 136.532 738.625 136.316 739.573 136.316C740.509 136.316 741.349 136.532 742.093 136.964C742.837 137.384 743.419 137.966 743.839 138.71C744.271 139.454 744.487 140.3 744.487 141.248C744.487 142.196 744.271 143.042 743.839 143.786C743.419 144.53 742.837 145.118 742.093 145.55C741.349 145.97 740.509 146.18 739.573 146.18ZM739.573 144.218C740.089 144.218 740.545 144.086 740.941 143.822C741.349 143.558 741.667 143.204 741.895 142.76C742.135 142.316 742.249 141.812 742.237 141.248C742.249 140.672 742.135 140.162 741.895 139.718C741.667 139.274 741.349 138.926 740.941 138.674C740.545 138.41 740.089 138.278 739.573 138.278C739.057 138.278 738.589 138.41 738.169 138.674C737.761 138.926 737.443 139.28 737.215 139.736C736.987 140.18 736.873 140.684 736.873 141.248C736.873 141.812 736.987 142.316 737.215 142.76C737.443 143.204 737.761 143.558 738.169 143.822C738.589 144.086 739.057 144.218 739.573 144.218ZM746.468 146V136.514H748.628L748.664 138.458L748.25 138.674C748.37 138.242 748.604 137.852 748.952 137.504C749.3 137.144 749.714 136.856 750.194 136.64C750.674 136.424 751.166 136.316 751.67 136.316C752.39 136.316 752.99 136.46 753.47 136.748C753.962 137.036 754.328 137.468 754.568 138.044C754.82 138.62 754.946 139.34 754.946 140.204V146H752.732V140.366C752.732 139.886 752.666 139.49 752.534 139.178C752.402 138.854 752.198 138.62 751.922 138.476C751.646 138.32 751.31 138.248 750.914 138.26C750.59 138.26 750.29 138.314 750.014 138.422C749.75 138.518 749.516 138.662 749.312 138.854C749.12 139.034 748.964 139.244 748.844 139.484C748.736 139.724 748.682 139.988 748.682 140.276V146H747.584C747.368 146 747.164 146 746.972 146C746.792 146 746.624 146 746.468 146ZM760.605 146.18C759.765 146.18 759.009 146.042 758.337 145.766C757.677 145.478 757.137 145.07 756.717 144.542L758.157 143.3C758.517 143.708 758.919 144.002 759.363 144.182C759.807 144.362 760.275 144.452 760.767 144.452C760.971 144.452 761.151 144.428 761.307 144.38C761.475 144.332 761.619 144.26 761.739 144.164C761.859 144.068 761.949 143.96 762.009 143.84C762.081 143.708 762.117 143.564 762.117 143.408C762.117 143.12 762.009 142.892 761.793 142.724C761.673 142.64 761.481 142.55 761.217 142.454C760.965 142.358 760.635 142.262 760.227 142.166C759.579 141.998 759.039 141.806 758.607 141.59C758.175 141.362 757.839 141.11 757.599 140.834C757.395 140.606 757.239 140.348 757.131 140.06C757.035 139.772 756.987 139.46 756.987 139.124C756.987 138.704 757.077 138.326 757.257 137.99C757.449 137.642 757.707 137.342 758.031 137.09C758.355 136.838 758.733 136.646 759.165 136.514C759.597 136.382 760.047 136.316 760.515 136.316C760.995 136.316 761.457 136.376 761.901 136.496C762.357 136.616 762.777 136.79 763.161 137.018C763.557 137.234 763.893 137.498 764.169 137.81L762.945 139.16C762.717 138.944 762.465 138.752 762.189 138.584C761.925 138.416 761.655 138.284 761.379 138.188C761.103 138.08 760.845 138.026 760.605 138.026C760.377 138.026 760.173 138.05 759.993 138.098C759.813 138.134 759.663 138.194 759.543 138.278C759.423 138.362 759.327 138.47 759.255 138.602C759.195 138.722 759.165 138.866 759.165 139.034C759.177 139.178 759.213 139.316 759.273 139.448C759.345 139.568 759.441 139.67 759.561 139.754C759.693 139.838 759.891 139.934 760.155 140.042C760.419 140.15 760.761 140.252 761.181 140.348C761.769 140.504 762.261 140.678 762.657 140.87C763.053 141.062 763.365 141.284 763.593 141.536C763.821 141.752 763.983 142.004 764.079 142.292C764.175 142.58 764.223 142.898 764.223 143.246C764.223 143.81 764.061 144.314 763.737 144.758C763.425 145.202 762.993 145.55 762.441 145.802C761.901 146.054 761.289 146.18 760.605 146.18Z" fill="#404040"/>
<rect x="371" y="58" width="48" height="48" rx="8" fill="#5FBE6E"/>
<g clip-path="url(#clip0_427_17956)">
<path d="M393.587 72.1014C394.327 71.3615 395.502 71.3225 396.288 71.9846L396.415 72.1014L398.315 74.0009H401.001C402.055 74.0009 402.919 74.8168 402.995 75.8516L403.001 76.0009V78.6872L404.9 80.5867C405.64 81.3266 405.679 82.5021 405.017 83.2879L404.9 83.4152L403.001 85.3147V88.001C403.001 89.0552 402.185 89.9191 401.15 89.9955L401.001 90.001H398.315L396.415 91.9004C395.675 92.6403 394.5 92.6793 393.714 92.0172L393.587 91.9004L391.687 90.001H389.001C387.947 90.001 387.083 89.185 387.006 88.1502L387.001 88.001V85.3146L385.101 83.4152C384.361 82.6752 384.323 81.4997 384.985 80.7139L385.101 80.5867L387.001 78.6872V76.0009C387.001 74.9465 387.817 74.0827 388.852 74.0064L389.001 74.0009H391.687L393.587 72.1014ZM395.001 73.5156L393.101 75.4151C392.768 75.7485 392.329 75.952 391.863 75.9932L391.687 76.0009H389.001V78.6872C389.001 79.1587 388.834 79.613 388.534 79.9716L388.415 80.1015L386.516 82.001L388.415 83.9004C388.748 84.2338 388.952 84.6728 388.993 85.1387L389.001 85.3146V88.001H391.687C392.159 88.001 392.613 88.1674 392.972 88.4678L393.101 88.5867L395.001 90.4862L396.9 88.5867C397.234 88.2533 397.673 88.0498 398.139 88.0087L398.315 88.001H401.001V85.3147C401.001 84.8431 401.167 84.3888 401.468 84.0303L401.587 83.9005L403.486 82.001L401.587 80.1014C401.253 79.768 401.05 79.329 401.009 78.863L401.001 78.6872V76.0009H398.315C397.843 76.0009 397.389 75.8344 397.03 75.534L396.9 75.4151L395.001 73.5156ZM398.08 78.9835C398.471 78.5929 399.104 78.5929 399.494 78.9835C399.855 79.344 399.883 79.9112 399.578 80.3035L399.494 80.3977L394.614 85.2787C394.215 85.6775 393.586 85.706 393.154 85.3641L393.058 85.2787L390.654 82.8745C390.263 82.484 390.263 81.8508 390.654 81.4603C391.014 81.0998 391.581 81.0721 391.974 81.3771L392.068 81.4603L393.836 83.228L398.08 78.9835Z" fill="white"/>
</g>
<rect x="371.5" y="58.5" width="47" height="47" rx="7.5" stroke="#5FBE6E"/>
<rect x="529" y="58" width="48" height="48" rx="8" fill="#5FBE6E"/>
<path fill-rule="evenodd" clip-rule="evenodd" d="M545.734 75.0555C547.284 74.5163 549.646 74 553 74C556.354 74 558.716 74.5163 560.266 75.0555C561.074 75.3366 561.945 75.6779 562.624 76.2183C562.958 76.4859 563.087 76.9498 562.936 77.3511L559.936 85.3511C559.748 85.8547 559.194 86.1187 558.684 85.9488C558.102 85.7572 557.506 85.609 556.908 85.4762C555.881 85.2479 554.555 85.0259 553.232 85.0021L553.677 86.6608C554.165 86.9081 554.5 87.415 554.5 88C554.5 88.8284 553.828 89.5 553 89.5C552.172 89.5 551.5 88.8284 551.5 88C551.5 87.6968 551.59 87.4146 551.745 87.1786L551.192 85.1143C550.428 85.2053 549.707 85.3396 549.092 85.4762C548.496 85.6086 547.901 85.7585 547.32 85.9473L547.316 85.9487C546.806 86.1186 546.253 85.8547 546.064 85.3511L543.064 77.3511C542.912 76.9461 543.038 76.4894 543.375 76.2191L543.376 76.2183C544.055 75.6777 544.926 75.3365 545.734 75.0555ZM553 83C552.899 83 552.797 83.0011 552.696 83.0031L551.637 79.0478C551.494 78.5144 550.945 78.1978 550.412 78.3407C549.878 78.4837 549.562 79.032 549.705 79.5655L550.669 83.1644C549.927 83.2632 549.241 83.3944 548.658 83.5238C548.259 83.6126 547.905 83.7014 547.611 83.78L545.229 77.4289C545.51 77.2873 545.895 77.1172 546.391 76.9445C547.716 76.4837 549.854 76 553 76C556.146 76 558.284 76.4837 559.609 76.9445C560.106 77.1172 560.49 77.2873 560.771 77.4289L558.389 83.78C558.095 83.7014 557.741 83.6126 557.342 83.5238C556.179 83.2655 554.601 83 553 83Z" fill="white"/>
<rect x="529.5" y="58.5" width="47" height="47" rx="7.5" stroke="#5FBE6E"/>
<rect x="687" y="58" width="48" height="48" rx="8" fill="#5FBE6E"/>
<g clip-path="url(#clip1_427_17956)">
<path fill-rule="evenodd" clip-rule="evenodd" d="M705.797 72.8837C708.317 71.8749 711.308 72.3893 713.352 74.4329C715.252 76.3326 715.83 79.051 715.092 81.4485L719.486 85.1667C721.165 86.5878 721.272 89.1407 719.716 90.6964C718.16 92.252 715.607 92.1458 714.186 90.4664L710.468 86.0721C708.07 86.8104 705.352 86.2321 703.452 84.3324C701.409 82.2886 700.894 79.2972 701.903 76.7771C702.261 75.8833 703.383 75.7704 703.967 76.4046L707.168 79.882L708.615 79.5944L708.904 78.1459L705.425 74.9477C704.79 74.3639 704.903 73.2418 705.797 72.8837ZM707.804 74.4181L710.568 76.959C710.889 77.2544 711.033 77.6959 710.948 78.1239L710.478 80.4771C710.379 80.9726 709.991 81.3599 709.496 81.4584L707.145 81.9257C706.718 82.0107 706.277 81.8669 705.982 81.5463L703.438 78.7829C703.261 80.2552 703.738 81.7898 704.867 82.9182C706.319 84.3701 708.443 84.7438 710.242 84.0336C710.726 83.8425 711.304 83.9632 711.663 84.3885L715.713 89.1745C716.378 89.9607 717.573 90.0104 718.302 89.2821C719.03 88.5539 718.98 87.3588 718.194 86.6935L713.408 82.6438C712.983 82.284 712.862 81.7061 713.053 81.2222C713.763 79.4233 713.39 77.299 711.938 75.8471C710.81 74.7192 709.276 74.2419 707.804 74.4181Z" fill="white"/>
</g>
<rect x="687.5" y="58.5" width="47" height="47" rx="7.5" stroke="#5FBE6E"/>
<rect x="282.5" y="0.5" width="540" height="209" rx="31.5" stroke="url(#paint0_linear_427_17956)"/>
<g clip-path="url(#clip2_427_17956)">
<path d="M264.5 113C264.5 113.828 265.172 114.5 266 114.5C266.828 114.5 267.5 113.828 267.5 113V106.5H274C274.828 106.5 275.5 105.828 275.5 105C275.5 104.172 274.828 103.5 274 103.5H267.5V97C267.5 96.1716 266.828 95.5 266 95.5C265.172 95.5 264.5 96.1716 264.5 97V103.5H258C257.172 103.5 256.5 104.172 256.5 105C256.5 105.828 257.172 106.5 258 106.5H264.5V113Z" fill="black"/>
</g>
<rect x="0.5" y="0.5" width="249" height="209" rx="31.5" fill="url(#paint1_linear_427_17956)"/>
<rect x="77.5" y="32.5" width="95" height="95" rx="15.5" fill="url(#paint2_linear_427_17956)" fill-opacity="0.05"/>
<path fill-rule="evenodd" clip-rule="evenodd" d="M127.665 64C130.183 64 132.554 65.1855 134.065 67.2L139.786 74.8277L146.994 75.7285C149.662 76.0621 151.665 78.3309 151.665 81.0208V88C151.665 92.4184 148.084 96 143.665 96H143.21C142.112 99.1072 139.149 101.333 135.665 101.333C132.182 101.333 129.219 99.1072 128.121 96H119.21C118.112 99.1072 115.149 101.333 111.665 101.333C108.055 101.333 105.004 98.9421 104.008 95.6573C100.723 94.6616 98.332 91.6101 98.332 88V77.9629C98.332 77.1349 98.5248 76.3184 98.8951 75.5776L102.473 68.4223C103.828 65.712 106.598 64 109.628 64H127.665ZM111.665 90.6667C110.193 90.6667 108.999 91.8605 108.999 93.3333C108.999 94.8061 110.193 96 111.665 96C113.138 96 114.332 94.8061 114.332 93.3333C114.332 91.8605 113.138 90.6667 111.665 90.6667ZM135.665 90.6667C134.193 90.6667 132.999 91.8605 132.999 93.3333C132.999 94.8061 134.193 96 135.665 96C137.138 96 138.332 94.8061 138.332 93.3333C138.332 91.8605 137.138 90.6667 135.665 90.6667ZM116.999 69.3333H109.628C108.618 69.3333 107.695 69.904 107.243 70.8074L105.313 74.6667H116.999V69.3333ZM127.665 69.3333H122.332V74.6667H132.999L129.799 70.4C129.295 69.7285 128.505 69.3333 127.665 69.3333Z" fill="#AAAEB2"/>
<rect x="77.5" y="32.5" width="95" height="95" rx="15.5" stroke="#D2D8DA"/>
<path d="M76.3804 154L73.0204 145.6H74.4964L76.5004 150.7C76.5964 150.948 76.6804 151.172 76.7524 151.372C76.8324 151.572 76.9004 151.756 76.9564 151.924C77.0124 152.084 77.0644 152.236 77.1124 152.38C77.1604 152.524 77.2084 152.668 77.2564 152.812L76.9444 152.824C77.0004 152.632 77.0604 152.432 77.1244 152.224C77.1884 152.016 77.2604 151.788 77.3404 151.54C77.4284 151.292 77.5324 151.012 77.6524 150.7L79.5124 145.6H81.0244L77.6404 154H76.3804ZM84.2917 154.12C83.6757 154.12 83.1237 153.98 82.6357 153.7C82.1557 153.412 81.7757 153.024 81.4957 152.536C81.2157 152.04 81.0757 151.476 81.0757 150.844C81.0757 150.212 81.2157 149.652 81.4957 149.164C81.7757 148.668 82.1557 148.28 82.6357 148C83.1237 147.712 83.6757 147.568 84.2917 147.568C84.8997 147.568 85.4437 147.712 85.9237 148C86.4117 148.28 86.7957 148.668 87.0757 149.164C87.3557 149.652 87.4957 150.212 87.4957 150.844C87.4957 151.476 87.3557 152.04 87.0757 152.536C86.7957 153.024 86.4117 153.412 85.9237 153.7C85.4437 153.98 84.8997 154.12 84.2917 154.12ZM84.2917 152.992C84.6677 152.992 85.0037 152.9 85.2997 152.716C85.5957 152.524 85.8277 152.268 85.9957 151.948C86.1637 151.62 86.2437 151.252 86.2357 150.844C86.2437 150.428 86.1637 150.06 85.9957 149.74C85.8277 149.412 85.5957 149.156 85.2997 148.972C85.0037 148.788 84.6677 148.696 84.2917 148.696C83.9157 148.696 83.5757 148.792 83.2717 148.984C82.9757 149.168 82.7437 149.424 82.5757 149.752C82.4077 150.072 82.3277 150.436 82.3357 150.844C82.3277 151.252 82.4077 151.62 82.5757 151.948C82.7437 152.268 82.9757 152.524 83.2717 152.716C83.5757 152.9 83.9157 152.992 84.2917 152.992ZM89.6225 154V146.092H90.8585V154H89.6225ZM88.3145 148.9V147.7H92.3225V148.9H88.3145ZM93.448 154V147.7H94.696V149.68L94.576 149.2C94.664 148.896 94.812 148.62 95.02 148.372C95.236 148.124 95.48 147.928 95.752 147.784C96.032 147.64 96.32 147.568 96.616 147.568C96.752 147.568 96.88 147.58 97 147.604C97.128 147.628 97.228 147.656 97.3 147.688L96.976 149.032C96.88 148.992 96.772 148.96 96.652 148.936C96.54 148.904 96.428 148.888 96.316 148.888C96.1 148.888 95.892 148.932 95.692 149.02C95.5 149.1 95.328 149.216 95.176 149.368C95.032 149.512 94.916 149.684 94.828 149.884C94.74 150.076 94.696 150.288 94.696 150.52V154H93.448ZM100.958 154.12C100.31 154.12 99.7343 153.984 99.2303 153.712C98.7343 153.432 98.3423 153.052 98.0543 152.572C97.7743 152.092 97.6343 151.54 97.6343 150.916C97.6343 150.42 97.7143 149.968 97.8743 149.56C98.0343 149.152 98.2543 148.8 98.5343 148.504C98.8223 148.2 99.1623 147.968 99.5543 147.808C99.9543 147.64 100.386 147.556 100.85 147.556C101.258 147.556 101.638 147.636 101.99 147.796C102.342 147.948 102.646 148.16 102.902 148.432C103.166 148.704 103.366 149.028 103.502 149.404C103.646 149.772 103.714 150.176 103.706 150.616L103.694 151.144H98.5463L98.2703 150.16H102.626L102.446 150.364V150.076C102.422 149.812 102.334 149.576 102.182 149.368C102.03 149.16 101.838 148.996 101.606 148.876C101.374 148.756 101.122 148.696 100.85 148.696C100.418 148.696 100.054 148.78 99.7583 148.948C99.4623 149.108 99.2383 149.348 99.0863 149.668C98.9343 149.98 98.8583 150.368 98.8583 150.832C98.8583 151.272 98.9503 151.656 99.1343 151.984C99.3183 152.304 99.5783 152.552 99.9143 152.728C100.25 152.904 100.638 152.992 101.078 152.992C101.39 152.992 101.678 152.94 101.942 152.836C102.214 152.732 102.506 152.544 102.818 152.272L103.442 153.148C103.25 153.34 103.014 153.508 102.734 153.652C102.462 153.796 102.17 153.912 101.858 154C101.554 154.08 101.254 154.12 100.958 154.12ZM110.477 154L107.813 147.7H109.145L111.065 152.416L110.837 152.524L112.889 147.7H114.161L111.365 154H110.477ZM118.056 154.12C117.408 154.12 116.832 153.984 116.328 153.712C115.832 153.432 115.44 153.052 115.152 152.572C114.872 152.092 114.732 151.54 114.732 150.916C114.732 150.42 114.812 149.968 114.972 149.56C115.132 149.152 115.352 148.8 115.632 148.504C115.92 148.2 116.26 147.968 116.652 147.808C117.052 147.64 117.484 147.556 117.948 147.556C118.356 147.556 118.736 147.636 119.088 147.796C119.44 147.948 119.744 148.16 120 148.432C120.264 148.704 120.464 149.028 120.6 149.404C120.744 149.772 120.812 150.176 120.804 150.616L120.792 151.144H115.644L115.368 150.16H119.724L119.544 150.364V150.076C119.52 149.812 119.432 149.576 119.28 149.368C119.128 149.16 118.936 148.996 118.704 148.876C118.472 148.756 118.22 148.696 117.948 148.696C117.516 148.696 117.152 148.78 116.856 148.948C116.56 149.108 116.336 149.348 116.184 149.668C116.032 149.98 115.956 150.368 115.956 150.832C115.956 151.272 116.048 151.656 116.232 151.984C116.416 152.304 116.676 152.552 117.012 152.728C117.348 152.904 117.736 152.992 118.176 152.992C118.488 152.992 118.776 152.94 119.04 152.836C119.312 152.732 119.604 152.544 119.916 152.272L120.54 153.148C120.348 153.34 120.112 153.508 119.832 153.652C119.56 153.796 119.268 153.912 118.956 154C118.652 154.08 118.352 154.12 118.056 154.12ZM117.108 146.728L116.7 146.116L118.416 144.616L119.196 145.6L117.108 146.728ZM122.147 154V145.12H123.383V148.996L123.167 149.14C123.247 148.86 123.403 148.604 123.635 148.372C123.867 148.132 124.143 147.94 124.463 147.796C124.783 147.644 125.111 147.568 125.447 147.568C125.927 147.568 126.327 147.664 126.647 147.856C126.967 148.04 127.207 148.324 127.367 148.708C127.527 149.092 127.607 149.576 127.607 150.16V154H126.371V150.244C126.371 149.884 126.323 149.588 126.227 149.356C126.131 149.116 125.983 148.944 125.783 148.84C125.583 148.728 125.335 148.68 125.039 148.696C124.799 148.696 124.579 148.736 124.379 148.816C124.179 148.888 124.003 148.992 123.851 149.128C123.707 149.264 123.591 149.424 123.503 149.608C123.423 149.784 123.383 149.976 123.383 150.184V154H122.771C122.667 154 122.563 154 122.459 154C122.355 154 122.251 154 122.147 154ZM129.488 154V147.7H130.724V154H129.488ZM130.088 146.308C129.824 146.308 129.62 146.24 129.476 146.104C129.332 145.968 129.26 145.776 129.26 145.528C129.26 145.296 129.332 145.108 129.476 144.964C129.628 144.82 129.832 144.748 130.088 144.748C130.352 144.748 130.556 144.816 130.7 144.952C130.844 145.088 130.916 145.28 130.916 145.528C130.916 145.76 130.84 145.948 130.688 146.092C130.544 146.236 130.344 146.308 130.088 146.308ZM135.3 154.12C134.716 154.12 134.192 153.976 133.728 153.688C133.272 153.4 132.908 153.008 132.636 152.512C132.372 152.016 132.24 151.46 132.24 150.844C132.24 150.228 132.372 149.672 132.636 149.176C132.908 148.68 133.272 148.288 133.728 148C134.192 147.712 134.716 147.568 135.3 147.568C135.86 147.568 136.368 147.684 136.824 147.916C137.288 148.14 137.64 148.448 137.88 148.84L137.196 149.68C137.068 149.496 136.904 149.328 136.704 149.176C136.504 149.024 136.292 148.904 136.068 148.816C135.844 148.728 135.628 148.684 135.42 148.684C135.036 148.684 134.692 148.78 134.388 148.972C134.092 149.156 133.856 149.412 133.68 149.74C133.504 150.068 133.416 150.436 133.416 150.844C133.416 151.252 133.508 151.62 133.692 151.948C133.876 152.268 134.12 152.524 134.424 152.716C134.728 152.908 135.064 153.004 135.432 153.004C135.648 153.004 135.856 152.968 136.056 152.896C136.264 152.824 136.464 152.716 136.656 152.572C136.848 152.428 137.028 152.252 137.196 152.044L137.88 152.884C137.624 153.244 137.256 153.54 136.776 153.772C136.304 154.004 135.812 154.12 135.3 154.12ZM141.254 154.12C140.806 154.12 140.414 154.016 140.078 153.808C139.75 153.6 139.494 153.308 139.31 152.932C139.134 152.556 139.046 152.108 139.046 151.588V147.7H140.282V151.252C140.282 151.62 140.338 151.94 140.45 152.212C140.57 152.476 140.738 152.68 140.954 152.824C141.178 152.968 141.446 153.04 141.758 153.04C141.99 153.04 142.202 153.004 142.394 152.932C142.586 152.852 142.75 152.744 142.886 152.608C143.03 152.472 143.142 152.308 143.222 152.116C143.302 151.924 143.342 151.716 143.342 151.492V147.7H144.578V154H143.342V152.68L143.558 152.536C143.462 152.832 143.298 153.1 143.066 153.34C142.842 153.58 142.574 153.772 142.262 153.916C141.95 154.052 141.614 154.12 141.254 154.12ZM146.335 154V145.12H147.571V154H146.335ZM152.146 154.12C151.498 154.12 150.922 153.984 150.418 153.712C149.922 153.432 149.53 153.052 149.242 152.572C148.962 152.092 148.822 151.54 148.822 150.916C148.822 150.42 148.902 149.968 149.062 149.56C149.222 149.152 149.442 148.8 149.722 148.504C150.01 148.2 150.35 147.968 150.742 147.808C151.142 147.64 151.574 147.556 152.038 147.556C152.446 147.556 152.826 147.636 153.178 147.796C153.53 147.948 153.834 148.16 154.09 148.432C154.354 148.704 154.554 149.028 154.69 149.404C154.834 149.772 154.902 150.176 154.894 150.616L154.882 151.144H149.734L149.458 150.16H153.814L153.634 150.364V150.076C153.61 149.812 153.522 149.576 153.37 149.368C153.218 149.16 153.026 148.996 152.794 148.876C152.562 148.756 152.31 148.696 152.038 148.696C151.606 148.696 151.242 148.78 150.946 148.948C150.65 149.108 150.426 149.348 150.274 149.668C150.122 149.98 150.046 150.368 150.046 150.832C150.046 151.272 150.138 151.656 150.322 151.984C150.506 152.304 150.766 152.552 151.102 152.728C151.438 152.904 151.826 152.992 152.266 152.992C152.578 152.992 152.866 152.94 153.13 152.836C153.402 152.732 153.694 152.544 154.006 152.272L154.63 153.148C154.438 153.34 154.202 153.508 153.922 153.652C153.65 153.796 153.358 153.912 153.046 154C152.742 154.08 152.442 154.12 152.146 154.12ZM162.54 154.12C161.892 154.12 161.316 153.984 160.812 153.712C160.316 153.432 159.924 153.052 159.636 152.572C159.356 152.092 159.216 151.54 159.216 150.916C159.216 150.42 159.296 149.968 159.456 149.56C159.616 149.152 159.836 148.8 160.116 148.504C160.404 148.2 160.744 147.968 161.136 147.808C161.536 147.64 161.968 147.556 162.432 147.556C162.84 147.556 163.22 147.636 163.572 147.796C163.924 147.948 164.228 148.16 164.484 148.432C164.748 148.704 164.948 149.028 165.084 149.404C165.228 149.772 165.296 150.176 165.288 150.616L165.276 151.144H160.128L159.852 150.16H164.208L164.028 150.364V150.076C164.004 149.812 163.916 149.576 163.764 149.368C163.612 149.16 163.42 148.996 163.188 148.876C162.956 148.756 162.704 148.696 162.432 148.696C162 148.696 161.636 148.78 161.34 148.948C161.044 149.108 160.82 149.348 160.668 149.668C160.516 149.98 160.44 150.368 160.44 150.832C160.44 151.272 160.532 151.656 160.716 151.984C160.9 152.304 161.16 152.552 161.496 152.728C161.832 152.904 162.22 152.992 162.66 152.992C162.972 152.992 163.26 152.94 163.524 152.836C163.796 152.732 164.088 152.544 164.4 152.272L165.024 153.148C164.832 153.34 164.596 153.508 164.316 153.652C164.044 153.796 163.752 153.912 163.44 154C163.136 154.08 162.836 154.12 162.54 154.12ZM166.632 154V147.7H167.868V148.996L167.652 149.14C167.732 148.86 167.888 148.604 168.12 148.372C168.352 148.132 168.628 147.94 168.948 147.796C169.268 147.644 169.596 147.568 169.932 147.568C170.412 147.568 170.812 147.664 171.132 147.856C171.452 148.04 171.692 148.324 171.852 148.708C172.012 149.092 172.092 149.576 172.092 150.16V154H170.856V150.244C170.856 149.884 170.808 149.588 170.712 149.356C170.616 149.116 170.468 148.944 170.268 148.84C170.068 148.728 169.82 148.68 169.524 148.696C169.284 148.696 169.064 148.736 168.864 148.816C168.664 148.888 168.488 148.992 168.336 149.128C168.192 149.264 168.076 149.424 167.988 149.608C167.908 149.784 167.868 149.976 167.868 150.184V154H167.256C167.152 154 167.048 154 166.944 154C166.84 154 166.736 154 166.632 154ZM55.1048 172V163.12H56.3408V172H55.1048ZM60.8073 172.12C60.1913 172.12 59.6393 171.98 59.1513 171.7C58.6713 171.412 58.2913 171.024 58.0113 170.536C57.7313 170.04 57.5913 169.476 57.5913 168.844C57.5913 168.212 57.7313 167.652 58.0113 167.164C58.2913 166.668 58.6713 166.28 59.1513 166C59.6393 165.712 60.1913 165.568 60.8073 165.568C61.4153 165.568 61.9593 165.712 62.4393 166C62.9273 166.28 63.3113 166.668 63.5913 167.164C63.8713 167.652 64.0113 168.212 64.0113 168.844C64.0113 169.476 63.8713 170.04 63.5913 170.536C63.3113 171.024 62.9273 171.412 62.4393 171.7C61.9593 171.98 61.4153 172.12 60.8073 172.12ZM60.8073 170.992C61.1833 170.992 61.5193 170.9 61.8153 170.716C62.1113 170.524 62.3433 170.268 62.5113 169.948C62.6793 169.62 62.7593 169.252 62.7513 168.844C62.7593 168.428 62.6793 168.06 62.5113 167.74C62.3433 167.412 62.1113 167.156 61.8153 166.972C61.5193 166.788 61.1833 166.696 60.8073 166.696C60.4313 166.696 60.0913 166.792 59.7873 166.984C59.4913 167.168 59.2593 167.424 59.0913 167.752C58.9233 168.072 58.8433 168.436 58.8513 168.844C58.8433 169.252 58.9233 169.62 59.0913 169.948C59.2593 170.268 59.4913 170.524 59.7873 170.716C60.0913 170.9 60.4313 170.992 60.8073 170.992ZM68.0341 172.12C67.4501 172.12 66.9261 171.976 66.4621 171.688C66.0061 171.4 65.6421 171.008 65.3701 170.512C65.1061 170.016 64.9741 169.46 64.9741 168.844C64.9741 168.228 65.1061 167.672 65.3701 167.176C65.6421 166.68 66.0061 166.288 66.4621 166C66.9261 165.712 67.4501 165.568 68.0341 165.568C68.5941 165.568 69.1021 165.684 69.5581 165.916C70.0221 166.14 70.3741 166.448 70.6141 166.84L69.9301 167.68C69.8021 167.496 69.6381 167.328 69.4381 167.176C69.2381 167.024 69.0261 166.904 68.8021 166.816C68.5781 166.728 68.3621 166.684 68.1541 166.684C67.7701 166.684 67.4261 166.78 67.1221 166.972C66.8261 167.156 66.5901 167.412 66.4141 167.74C66.2381 168.068 66.1501 168.436 66.1501 168.844C66.1501 169.252 66.2421 169.62 66.4261 169.948C66.6101 170.268 66.8541 170.524 67.1581 170.716C67.4621 170.908 67.7981 171.004 68.1661 171.004C68.3821 171.004 68.5901 170.968 68.7901 170.896C68.9981 170.824 69.1981 170.716 69.3901 170.572C69.5821 170.428 69.7621 170.252 69.9301 170.044L70.6141 170.884C70.3581 171.244 69.9901 171.54 69.5101 171.772C69.0381 172.004 68.5461 172.12 68.0341 172.12ZM74.204 172.12C73.684 172.12 73.208 171.976 72.776 171.688C72.352 171.4 72.012 171.008 71.756 170.512C71.5 170.016 71.372 169.456 71.372 168.832C71.372 168.2 71.5 167.64 71.756 167.152C72.02 166.656 72.372 166.268 72.812 165.988C73.26 165.708 73.76 165.568 74.312 165.568C74.64 165.568 74.94 165.616 75.212 165.712C75.484 165.808 75.72 165.944 75.92 166.12C76.128 166.288 76.296 166.484 76.424 166.708C76.56 166.932 76.644 167.172 76.676 167.428L76.4 167.332V165.7H77.648V172H76.4V170.5L76.688 170.416C76.64 170.632 76.54 170.844 76.388 171.052C76.244 171.252 76.056 171.432 75.824 171.592C75.6 171.752 75.348 171.88 75.068 171.976C74.796 172.072 74.508 172.12 74.204 172.12ZM74.528 170.98C74.904 170.98 75.236 170.888 75.524 170.704C75.812 170.52 76.036 170.268 76.196 169.948C76.364 169.62 76.448 169.248 76.448 168.832C76.448 168.424 76.364 168.06 76.196 167.74C76.036 167.42 75.812 167.168 75.524 166.984C75.236 166.8 74.904 166.708 74.528 166.708C74.16 166.708 73.832 166.8 73.544 166.984C73.264 167.168 73.04 167.42 72.872 167.74C72.712 168.06 72.632 168.424 72.632 168.832C72.632 169.248 72.712 169.62 72.872 169.948C73.04 170.268 73.264 170.52 73.544 170.704C73.832 170.888 74.16 170.98 74.528 170.98ZM80.1538 172V164.092H81.3898V172H80.1538ZM78.8458 166.9V165.7H82.8538V166.9H78.8458ZM84.1832 172V165.7H85.4192V172H84.1832ZM84.7832 164.308C84.5192 164.308 84.3152 164.24 84.1712 164.104C84.0272 163.968 83.9552 163.776 83.9552 163.528C83.9552 163.296 84.0272 163.108 84.1712 162.964C84.3232 162.82 84.5272 162.748 84.7832 162.748C85.0472 162.748 85.2512 162.816 85.3952 162.952C85.5392 163.088 85.6112 163.28 85.6112 163.528C85.6112 163.76 85.5352 163.948 85.3832 164.092C85.2392 164.236 85.0392 164.308 84.7832 164.308ZM90.1511 172.12C89.5351 172.12 88.9831 171.98 88.4951 171.7C88.0151 171.412 87.6351 171.024 87.3551 170.536C87.0751 170.04 86.9351 169.476 86.9351 168.844C86.9351 168.212 87.0751 167.652 87.3551 167.164C87.6351 166.668 88.0151 166.28 88.4951 166C88.9831 165.712 89.5351 165.568 90.1511 165.568C90.7591 165.568 91.3031 165.712 91.7831 166C92.2711 166.28 92.6551 166.668 92.9351 167.164C93.2151 167.652 93.3551 168.212 93.3551 168.844C93.3551 169.476 93.2151 170.04 92.9351 170.536C92.6551 171.024 92.2711 171.412 91.7831 171.7C91.3031 171.98 90.7591 172.12 90.1511 172.12ZM90.1511 170.992C90.5271 170.992 90.8631 170.9 91.1591 170.716C91.4551 170.524 91.6871 170.268 91.8551 169.948C92.0231 169.62 92.1031 169.252 92.0951 168.844C92.1031 168.428 92.0231 168.06 91.8551 167.74C91.6871 167.412 91.4551 167.156 91.1591 166.972C90.8631 166.788 90.5271 166.696 90.1511 166.696C89.7751 166.696 89.4351 166.792 89.1311 166.984C88.8351 167.168 88.6031 167.424 88.4351 167.752C88.2671 168.072 88.1871 168.436 88.1951 168.844C88.1871 169.252 88.2671 169.62 88.4351 169.948C88.6031 170.268 88.8351 170.524 89.1311 170.716C89.4351 170.9 89.7751 170.992 90.1511 170.992ZM94.7019 172V165.7H95.9379V166.996L95.7219 167.14C95.8019 166.86 95.9579 166.604 96.1899 166.372C96.4219 166.132 96.6979 165.94 97.0179 165.796C97.3379 165.644 97.6659 165.568 98.0019 165.568C98.4819 165.568 98.8819 165.664 99.2019 165.856C99.5219 166.04 99.7619 166.324 99.9219 166.708C100.082 167.092 100.162 167.576 100.162 168.16V172H98.9259V168.244C98.9259 167.884 98.8779 167.588 98.7819 167.356C98.6859 167.116 98.5379 166.944 98.3379 166.84C98.1379 166.728 97.8899 166.68 97.5939 166.696C97.3539 166.696 97.1339 166.736 96.9339 166.816C96.7339 166.888 96.5579 166.992 96.4059 167.128C96.2619 167.264 96.1459 167.424 96.0579 167.608C95.9779 167.784 95.9379 167.976 95.9379 168.184V172H95.3259C95.2219 172 95.1179 172 95.0139 172C94.9099 172 94.8059 172 94.7019 172ZM105.178 172V165.7H106.426V167.044L106.198 167.188C106.262 166.98 106.362 166.78 106.498 166.588C106.642 166.396 106.814 166.228 107.014 166.084C107.222 165.932 107.442 165.812 107.674 165.724C107.914 165.636 108.158 165.592 108.406 165.592C108.766 165.592 109.082 165.652 109.354 165.772C109.626 165.892 109.85 166.072 110.026 166.312C110.202 166.552 110.33 166.852 110.41 167.212L110.218 167.164L110.302 166.96C110.39 166.776 110.51 166.604 110.662 166.444C110.822 166.276 111.002 166.128 111.202 166C111.402 165.872 111.614 165.772 111.838 165.7C112.062 165.628 112.282 165.592 112.498 165.592C112.97 165.592 113.358 165.688 113.662 165.88C113.974 166.072 114.206 166.364 114.358 166.756C114.518 167.148 114.598 167.636 114.598 168.22V172H113.35V168.292C113.35 167.932 113.302 167.64 113.206 167.416C113.118 167.184 112.982 167.012 112.798 166.9C112.614 166.788 112.378 166.732 112.09 166.732C111.866 166.732 111.654 166.772 111.454 166.852C111.262 166.924 111.094 167.028 110.95 167.164C110.806 167.3 110.694 167.46 110.614 167.644C110.534 167.82 110.494 168.016 110.494 168.232V172H109.246V168.268C109.246 167.94 109.198 167.664 109.102 167.44C109.006 167.208 108.866 167.032 108.682 166.912C108.498 166.792 108.274 166.732 108.01 166.732C107.786 166.732 107.578 166.772 107.386 166.852C107.194 166.924 107.026 167.028 106.882 167.164C106.738 167.292 106.626 167.448 106.546 167.632C106.466 167.808 106.426 168 106.426 168.208V172H105.178ZM119.085 172.12C118.469 172.12 117.917 171.98 117.429 171.7C116.949 171.412 116.569 171.024 116.289 170.536C116.009 170.04 115.869 169.476 115.869 168.844C115.869 168.212 116.009 167.652 116.289 167.164C116.569 166.668 116.949 166.28 117.429 166C117.917 165.712 118.469 165.568 119.085 165.568C119.693 165.568 120.237 165.712 120.717 166C121.205 166.28 121.589 166.668 121.869 167.164C122.149 167.652 122.289 168.212 122.289 168.844C122.289 169.476 122.149 170.04 121.869 170.536C121.589 171.024 121.205 171.412 120.717 171.7C120.237 171.98 119.693 172.12 119.085 172.12ZM119.085 170.992C119.461 170.992 119.797 170.9 120.093 170.716C120.389 170.524 120.621 170.268 120.789 169.948C120.957 169.62 121.037 169.252 121.029 168.844C121.037 168.428 120.957 168.06 120.789 167.74C120.621 167.412 120.389 167.156 120.093 166.972C119.797 166.788 119.461 166.696 119.085 166.696C118.709 166.696 118.369 166.792 118.065 166.984C117.769 167.168 117.537 167.424 117.369 167.752C117.201 168.072 117.121 168.436 117.129 168.844C117.121 169.252 117.201 169.62 117.369 169.948C117.537 170.268 117.769 170.524 118.065 170.716C118.369 170.9 118.709 170.992 119.085 170.992ZM124.457 174.76L125.729 171.82L125.741 172.804L122.597 165.7H124.037L126.005 170.332C126.045 170.412 126.093 170.536 126.149 170.704C126.205 170.864 126.253 171.024 126.293 171.184L125.981 171.256C126.045 171.088 126.105 170.92 126.161 170.752C126.225 170.584 126.285 170.416 126.341 170.248L127.985 165.7H129.449L126.857 172L125.789 174.76H124.457ZM133.197 172.12C132.549 172.12 131.973 171.984 131.469 171.712C130.973 171.432 130.581 171.052 130.293 170.572C130.013 170.092 129.873 169.54 129.873 168.916C129.873 168.42 129.953 167.968 130.113 167.56C130.273 167.152 130.493 166.8 130.773 166.504C131.061 166.2 131.401 165.968 131.793 165.808C132.193 165.64 132.625 165.556 133.089 165.556C133.497 165.556 133.877 165.636 134.229 165.796C134.581 165.948 134.885 166.16 135.141 166.432C135.405 166.704 135.605 167.028 135.741 167.404C135.885 167.772 135.953 168.176 135.945 168.616L135.933 169.144H130.785L130.509 168.16H134.865L134.685 168.364V168.076C134.661 167.812 134.573 167.576 134.421 167.368C134.269 167.16 134.077 166.996 133.845 166.876C133.613 166.756 133.361 166.696 133.089 166.696C132.657 166.696 132.293 166.78 131.997 166.948C131.701 167.108 131.477 167.348 131.325 167.668C131.173 167.98 131.097 168.368 131.097 168.832C131.097 169.272 131.189 169.656 131.373 169.984C131.557 170.304 131.817 170.552 132.153 170.728C132.489 170.904 132.877 170.992 133.317 170.992C133.629 170.992 133.917 170.94 134.181 170.836C134.453 170.732 134.745 170.544 135.057 170.272L135.681 171.148C135.489 171.34 135.253 171.508 134.973 171.652C134.701 171.796 134.409 171.912 134.097 172C133.793 172.08 133.493 172.12 133.197 172.12ZM137.288 172V165.7H138.524V166.996L138.308 167.14C138.388 166.86 138.544 166.604 138.776 166.372C139.008 166.132 139.284 165.94 139.604 165.796C139.924 165.644 140.252 165.568 140.588 165.568C141.068 165.568 141.468 165.664 141.788 165.856C142.108 166.04 142.348 166.324 142.508 166.708C142.668 167.092 142.748 167.576 142.748 168.16V172H141.512V168.244C141.512 167.884 141.464 167.588 141.368 167.356C141.272 167.116 141.124 166.944 140.924 166.84C140.724 166.728 140.476 166.68 140.18 166.696C139.94 166.696 139.72 166.736 139.52 166.816C139.32 166.888 139.144 166.992 138.992 167.128C138.848 167.264 138.732 167.424 138.644 167.608C138.564 167.784 138.524 167.976 138.524 168.184V172H137.912C137.808 172 137.704 172 137.6 172C137.496 172 137.392 172 137.288 172ZM144.425 172V165.7H145.661V166.996L145.445 167.14C145.525 166.86 145.681 166.604 145.913 166.372C146.145 166.132 146.421 165.94 146.741 165.796C147.061 165.644 147.389 165.568 147.725 165.568C148.205 165.568 148.605 165.664 148.925 165.856C149.245 166.04 149.485 166.324 149.645 166.708C149.805 167.092 149.885 167.576 149.885 168.16V172H148.649V168.244C148.649 167.884 148.601 167.588 148.505 167.356C148.409 167.116 148.261 166.944 148.061 166.84C147.861 166.728 147.613 166.68 147.317 166.696C147.077 166.696 146.857 166.736 146.657 166.816C146.457 166.888 146.281 166.992 146.129 167.128C145.985 167.264 145.869 167.424 145.781 167.608C145.701 167.784 145.661 167.976 145.661 168.184V172H145.049C144.945 172 144.841 172 144.737 172C144.633 172 144.529 172 144.425 172ZM154.501 172.12C153.853 172.12 153.277 171.984 152.773 171.712C152.277 171.432 151.885 171.052 151.597 170.572C151.317 170.092 151.177 169.54 151.177 168.916C151.177 168.42 151.257 167.968 151.417 167.56C151.577 167.152 151.797 166.8 152.077 166.504C152.365 166.2 152.705 165.968 153.097 165.808C153.497 165.64 153.929 165.556 154.393 165.556C154.801 165.556 155.181 165.636 155.533 165.796C155.885 165.948 156.189 166.16 156.445 166.432C156.709 166.704 156.909 167.028 157.045 167.404C157.189 167.772 157.257 168.176 157.249 168.616L157.237 169.144H152.089L151.813 168.16H156.169L155.989 168.364V168.076C155.965 167.812 155.877 167.576 155.725 167.368C155.573 167.16 155.381 166.996 155.149 166.876C154.917 166.756 154.665 166.696 154.393 166.696C153.961 166.696 153.597 166.78 153.301 166.948C153.005 167.108 152.781 167.348 152.629 167.668C152.477 167.98 152.401 168.368 152.401 168.832C152.401 169.272 152.493 169.656 152.677 169.984C152.861 170.304 153.121 170.552 153.457 170.728C153.793 170.904 154.181 170.992 154.621 170.992C154.933 170.992 155.221 170.94 155.485 170.836C155.757 170.732 156.049 170.544 156.361 170.272L156.985 171.148C156.793 171.34 156.557 171.508 156.277 171.652C156.005 171.796 155.713 171.912 155.401 172C155.097 172.08 154.797 172.12 154.501 172.12ZM164.584 172.12C164.008 172.12 163.492 171.98 163.036 171.7C162.588 171.412 162.232 171.024 161.968 170.536C161.704 170.04 161.572 169.476 161.572 168.844C161.572 168.212 161.7 167.652 161.956 167.164C162.22 166.668 162.576 166.28 163.024 166C163.472 165.712 163.98 165.568 164.548 165.568C164.86 165.568 165.16 165.62 165.448 165.724C165.744 165.82 166.008 165.956 166.24 166.132C166.472 166.3 166.652 166.488 166.78 166.696C166.916 166.896 166.984 167.1 166.984 167.308L166.624 167.332V163.12H167.86V172H166.624V170.5H166.864C166.864 170.692 166.8 170.884 166.672 171.076C166.544 171.26 166.372 171.432 166.156 171.592C165.948 171.752 165.704 171.88 165.424 171.976C165.152 172.072 164.872 172.12 164.584 172.12ZM164.752 171.052C165.128 171.052 165.46 170.956 165.748 170.764C166.036 170.572 166.26 170.312 166.42 169.984C166.588 169.648 166.672 169.268 166.672 168.844C166.672 168.42 166.588 168.044 166.42 167.716C166.26 167.38 166.036 167.116 165.748 166.924C165.46 166.732 165.128 166.636 164.752 166.636C164.376 166.636 164.044 166.732 163.756 166.924C163.468 167.116 163.24 167.38 163.072 167.716C162.912 168.044 162.832 168.42 162.832 168.844C162.832 169.268 162.912 169.648 163.072 169.984C163.24 170.312 163.468 170.572 163.756 170.764C164.044 170.956 164.376 171.052 164.752 171.052ZM171.957 172.12C171.509 172.12 171.117 172.016 170.781 171.808C170.453 171.6 170.197 171.308 170.013 170.932C169.837 170.556 169.749 170.108 169.749 169.588V165.7H170.985V169.252C170.985 169.62 171.041 169.94 171.153 170.212C171.273 170.476 171.441 170.68 171.657 170.824C171.881 170.968 172.149 171.04 172.461 171.04C172.693 171.04 172.905 171.004 173.097 170.932C173.289 170.852 173.453 170.744 173.589 170.608C173.733 170.472 173.845 170.308 173.925 170.116C174.005 169.924 174.045 169.716 174.045 169.492V165.7H175.281V172H174.045V170.68L174.261 170.536C174.165 170.832 174.001 171.1 173.769 171.34C173.545 171.58 173.277 171.772 172.965 171.916C172.653 172.052 172.317 172.12 171.957 172.12ZM177.014 172V165.7H178.262V167.68L178.142 167.2C178.23 166.896 178.378 166.62 178.586 166.372C178.802 166.124 179.046 165.928 179.318 165.784C179.598 165.64 179.886 165.568 180.182 165.568C180.318 165.568 180.446 165.58 180.566 165.604C180.694 165.628 180.794 165.656 180.866 165.688L180.542 167.032C180.446 166.992 180.338 166.96 180.218 166.936C180.106 166.904 179.994 166.888 179.882 166.888C179.666 166.888 179.458 166.932 179.258 167.02C179.066 167.1 178.894 167.216 178.742 167.368C178.598 167.512 178.482 167.684 178.394 167.884C178.306 168.076 178.262 168.288 178.262 168.52V172H177.014ZM184.525 172.12C183.877 172.12 183.301 171.984 182.797 171.712C182.301 171.432 181.909 171.052 181.621 170.572C181.341 170.092 181.201 169.54 181.201 168.916C181.201 168.42 181.281 167.968 181.441 167.56C181.601 167.152 181.821 166.8 182.101 166.504C182.389 166.2 182.729 165.968 183.121 165.808C183.521 165.64 183.953 165.556 184.417 165.556C184.825 165.556 185.205 165.636 185.557 165.796C185.909 165.948 186.213 166.16 186.469 166.432C186.733 166.704 186.933 167.028 187.069 167.404C187.213 167.772 187.281 168.176 187.273 168.616L187.261 169.144H182.113L181.837 168.16H186.193L186.013 168.364V168.076C185.989 167.812 185.901 167.576 185.749 167.368C185.597 167.16 185.405 166.996 185.173 166.876C184.941 166.756 184.689 166.696 184.417 166.696C183.985 166.696 183.621 166.78 183.325 166.948C183.029 167.108 182.805 167.348 182.653 167.668C182.501 167.98 182.425 168.368 182.425 168.832C182.425 169.272 182.517 169.656 182.701 169.984C182.885 170.304 183.145 170.552 183.481 170.728C183.817 170.904 184.205 170.992 184.645 170.992C184.957 170.992 185.245 170.94 185.509 170.836C185.781 170.732 186.073 170.544 186.385 170.272L187.009 171.148C186.817 171.34 186.581 171.508 186.301 171.652C186.029 171.796 185.737 171.912 185.425 172C185.121 172.08 184.821 172.12 184.525 172.12ZM183.577 164.728L183.169 164.116L184.885 162.616L185.665 163.6L183.577 164.728ZM191.556 172.12C190.908 172.12 190.332 171.984 189.828 171.712C189.332 171.432 188.94 171.052 188.652 170.572C188.372 170.092 188.232 169.54 188.232 168.916C188.232 168.42 188.312 167.968 188.472 167.56C188.632 167.152 188.852 166.8 189.132 166.504C189.42 166.2 189.76 165.968 190.152 165.808C190.552 165.64 190.984 165.556 191.448 165.556C191.856 165.556 192.236 165.636 192.588 165.796C192.94 165.948 193.244 166.16 193.5 166.432C193.764 166.704 193.964 167.028 194.1 167.404C194.244 167.772 194.312 168.176 194.304 168.616L194.292 169.144H189.144L188.868 168.16H193.224L193.044 168.364V168.076C193.02 167.812 192.932 167.576 192.78 167.368C192.628 167.16 192.436 166.996 192.204 166.876C191.972 166.756 191.72 166.696 191.448 166.696C191.016 166.696 190.652 166.78 190.356 166.948C190.06 167.108 189.836 167.348 189.684 167.668C189.532 167.98 189.456 168.368 189.456 168.832C189.456 169.272 189.548 169.656 189.732 169.984C189.916 170.304 190.176 170.552 190.512 170.728C190.848 170.904 191.236 170.992 191.676 170.992C191.988 170.992 192.276 170.94 192.54 170.836C192.812 170.732 193.104 170.544 193.416 170.272L194.04 171.148C193.848 171.34 193.612 171.508 193.332 171.652C193.06 171.796 192.768 171.912 192.456 172C192.152 172.08 191.852 172.12 191.556 172.12Z" fill="#676767"/>
<rect x="0.5" y="0.5" width="249" height="209" rx="31.5" stroke="url(#paint3_linear_427_17956)"/>
<defs>
<linearGradient id="paint0_linear_427_17956" x1="552.5" y1="0" x2="552.5" y2="212.8" gradientUnits="userSpaceOnUse">
<stop offset="0.0104167" stop-color="#97D7A1"/>
<stop offset="0.2345" stop-color="#C0FFC7"/>
<stop offset="1" stop-color="#5FBE6E"/>
</linearGradient>
<linearGradient id="paint1_linear_427_17956" x1="125" y1="0" x2="125" y2="210" gradientUnits="userSpaceOnUse">
<stop stop-color="white" stop-opacity="0.71"/>
<stop offset="1" stop-color="#F2F6F7"/>
</linearGradient>
<linearGradient id="paint2_linear_427_17956" x1="125" y1="32" x2="125" y2="128" gradientUnits="userSpaceOnUse">
<stop stop-color="#181A1C"/>
<stop offset="1" stop-color="#181A1C" stop-opacity="0"/>
</linearGradient>
<linearGradient id="paint3_linear_427_17956" x1="125" y1="0" x2="125" y2="212.8" gradientUnits="userSpaceOnUse">
<stop offset="0.0104167" stop-color="#DBE3E5"/>
<stop offset="0.2345" stop-color="#E1E1E1" stop-opacity="0.29"/>
<stop offset="1" stop-color="#DAE2E4"/>
</linearGradient>
<clipPath id="clip0_427_17956">
<rect width="24" height="24" fill="white" transform="translate(383 70)"/>
</clipPath>
<clipPath id="clip1_427_17956">
<rect width="24" height="24" fill="white" transform="translate(699 70)"/>
</clipPath>
<clipPath id="clip2_427_17956">
<rect width="24" height="24" fill="white" transform="translate(254 93)"/>
</clipPath>
</defs>
</svg>
