<svg width="434" height="272" viewBox="0 0 434 272" fill="none" xmlns="http://www.w3.org/2000/svg">
<g clip-path="url(#clip0_427_18708)">
<rect width="433" height="272" transform="translate(0.5)" fill="url(#paint0_linear_427_18708)"/>
<rect x="32.5" y="145" width="369" height="131" fill="url(#paint1_linear_427_18708)"/>
<path d="M32.9875 127.033C33.3774 128.59 33.1876 134.742 34 137.5C34 139.447 36.0584 144.99 36.6433 152.582C37.369 162 44.3371 170.22 47.0626 173.436L47.1235 173.508C49.2683 176.038 51.7543 176.833 52.7292 176.914C60.6909 176.752 77.4429 175.892 80.7576 173.751C84.0723 171.61 87.6631 161.179 89.0443 156.232C89.9379 156.069 92.2614 155.745 94.4062 155.745C95.7711 157.302 97.0872 156.394 97.5746 155.745C117.966 157.124 160.553 160.125 167.768 161.098C171.082 169.274 179.548 172.615 183.366 173.264C184.097 174.643 186.144 178.131 188.484 181.051C194.09 188.837 208.713 192 216.269 192C223.824 192 235.279 190.783 245.516 184.7C253.705 179.834 258.515 168.073 259.896 162.801C277.363 162.639 314.003 162.315 320.827 162.315C323.752 174.724 341.787 183.727 345.443 184.457C349.099 185.187 362.017 185.43 369.572 183.727C377.127 182.024 391.507 173.994 395.894 159.882C398.039 158.714 399.225 154.204 399.55 152.095C400.2 151.446 401.5 149.857 401.5 148.689C401.5 147.521 401.013 144.958 400.769 143.822C401.013 135.63 401.5 118.955 401.5 117.787C401.5 116.327 401.256 114.38 400.525 112.434C399.355 109.709 396.95 105.783 395.894 104.161C395.813 103.106 395.553 100.219 395.163 97.1045C394.676 93.2113 392.482 90.2915 388.095 86.885C384.585 84.1598 380.783 82.9918 379.321 82.7485C378.671 82.0997 376.445 80.2666 372.74 78.1254C368.11 75.4489 358.117 72.7723 353.242 72.0424C349.343 71.4584 331.307 69.0414 322.777 67.9059C319.527 67.3381 312.248 65.9593 309.128 64.986C308.641 63.2828 308.153 61.5795 306.447 59.8763C304.741 58.173 301.816 57.1997 297.429 56.9564C289.874 51.6033 272.326 40.4105 270.132 39.1939C268.377 38.2206 261.764 34.5708 258.677 32.8675C257.133 31.8943 253.266 29.5097 250.147 27.7578C245.857 25.4219 239.585 24.5135 236.985 24.3513L214.319 23.8646C197.827 23.2968 163.332 22.1126 157.287 21.918C150.463 18.9981 135.839 20.2147 129.015 20.458C122.191 20.7013 108.055 22.8912 104.399 23.6212C100.743 24.3512 86.3633 27.5144 82.2199 28.731C78.9053 29.7043 76.4518 32.2186 75.6394 33.3541C73.6083 34.2463 69.205 36.2253 67.8402 37.0039C66.1341 37.9772 64.9155 39.4371 64.9155 40.1671V41.8703C59.391 47.9534 47.9522 60.7034 46.3923 63.0393C44.4425 65.9592 39.0806 71.3123 37.3745 72.2856C35.6684 73.2589 33.4749 76.6654 32.9875 78.6119C32.5 80.5585 32.5 81.5318 32.5 85.9116V119.733C32.5 122.167 32.5 125.086 32.9875 127.033Z" fill="url(#paint2_linear_427_18708)"/>
<rect x="102" y="124" width="40" height="40" rx="4" fill="#E6E8E9"/>
<rect x="102" y="228" width="40" height="40" rx="4" fill="url(#paint3_linear_427_18708)"/>
<rect x="102" y="76" width="40" height="40" rx="4" fill="url(#paint4_linear_427_18708)"/>
<rect x="98" y="172" width="238" height="48" rx="6" fill="white"/>
<rect x="102" y="176" width="40" height="40" rx="4" fill="#00C3D7"/>
<g clip-path="url(#clip1_427_18708)">
<path fill-rule="evenodd" clip-rule="evenodd" d="M119.333 184C120.806 184 122 185.194 122 186.667V205.333C122 206.806 120.806 208 119.333 208H112.667C111.194 208 110 206.806 110 205.333V186.667C110 185.194 111.194 184 112.667 184H119.333ZM132.213 196.148C133.188 196.489 133.906 197.381 133.991 198.45L134 205.333C134 206.739 132.912 207.891 131.532 207.993L131.333 208H123.333V205.028L132.213 196.148ZM116 200C114.895 200 114 200.895 114 202C114 203.105 114.895 204 116 204C117.105 204 118 203.105 118 202C118 200.895 117.105 200 116 200ZM124.181 185.333C125.168 184.347 126.735 184.295 127.783 185.178L127.952 185.333L132.666 190.047C133.607 190.988 133.698 192.457 132.939 193.5L123.333 203.142V186.181L124.181 185.333Z" fill="white"/>
</g>
<circle cx="173" cy="196" r="8" fill="#CF333D"/>
<rect x="162" y="185" width="22" height="22" rx="11" stroke="#00C3D7" stroke-width="2"/>
<circle cx="204" cy="196" r="8" fill="#0D155E"/>
<circle cx="232" cy="196" r="8" fill="black"/>
<circle cx="260" cy="196" r="8" fill="#929191"/>
<circle cx="288" cy="196" r="8" fill="#00B2C4"/>
<circle cx="316" cy="196" r="8" fill="url(#paint5_linear_427_18708)"/>
<rect x="98" y="172" width="238" height="48" rx="6" stroke="#00C3D7" stroke-width="2"/>
</g>
<defs>
<linearGradient id="paint0_linear_427_18708" x1="216.5" y1="0" x2="216.5" y2="272" gradientUnits="userSpaceOnUse">
<stop stop-color="white"/>
<stop offset="1" stop-color="#F5F8F9"/>
</linearGradient>
<linearGradient id="paint1_linear_427_18708" x1="217" y1="145" x2="217" y2="276" gradientUnits="userSpaceOnUse">
<stop stop-color="#F8FAFB"/>
<stop offset="1" stop-color="#F4F7F8"/>
</linearGradient>
<linearGradient id="paint2_linear_427_18708" x1="217" y1="20" x2="217" y2="192" gradientUnits="userSpaceOnUse">
<stop stop-color="#DBDEDE"/>
<stop offset="0.813821" stop-color="#F6F8F9"/>
</linearGradient>
<linearGradient id="paint3_linear_427_18708" x1="122" y1="228" x2="122" y2="268" gradientUnits="userSpaceOnUse">
<stop stop-color="#EAEFF0"/>
<stop offset="1" stop-color="#F0F4F5" stop-opacity="0"/>
</linearGradient>
<linearGradient id="paint4_linear_427_18708" x1="122" y1="76" x2="122" y2="116" gradientUnits="userSpaceOnUse">
<stop stop-color="#E6E8E9"/>
<stop offset="1" stop-color="#E6E8E9"/>
</linearGradient>
<linearGradient id="paint5_linear_427_18708" x1="308" y1="196" x2="339.333" y2="196" gradientUnits="userSpaceOnUse">
<stop stop-color="#E6E5E5"/>
<stop offset="1" stop-color="#E6E5E5" stop-opacity="0"/>
</linearGradient>
<clipPath id="clip0_427_18708">
<rect width="433" height="272" fill="white" transform="translate(0.5)"/>
</clipPath>
<clipPath id="clip1_427_18708">
<rect width="32" height="32" fill="white" transform="translate(106 180)"/>
</clipPath>
</defs>
</svg>
