<svg width="824" height="240" viewBox="0 0 824 240" fill="none" xmlns="http://www.w3.org/2000/svg">
<g clip-path="url(#clip0_568_13459)">
<rect x="0.5" width="823" height="240" rx="32" fill="url(#paint0_linear_568_13459)"/>
<rect x="562" y="270" width="300" height="300" rx="150" transform="rotate(-180 562 270)" fill="url(#paint1_linear_568_13459)" fill-opacity="0.5"/>
<rect x="561.5" y="269.5" width="299" height="299" rx="149.5" transform="rotate(-180 561.5 269.5)" stroke="url(#paint2_linear_568_13459)" stroke-opacity="0.7" stroke-dasharray="10 10"/>
<rect x="662" y="370" width="500" height="500" rx="200" transform="rotate(-180 662 370)" fill="url(#paint3_linear_568_13459)" fill-opacity="0.3"/>
<g filter="url(#filter0_d_568_13459)">
<rect x="384" y="92" width="56" height="56" rx="28" fill="#00C3D7" shape-rendering="crispEdges"/>
<g clip-path="url(#clip1_568_13459)">
<path fill-rule="evenodd" clip-rule="evenodd" d="M412 112C408.134 112 405 115.134 405 119V121C405 121.552 404.552 122 404 122C403.448 122 403 121.552 403 121V119C403 114.029 407.029 110 412 110C416.971 110 421 114.029 421 119V122C421 122.262 420.989 122.524 420.975 122.786C420.951 123.259 420.902 123.913 420.803 124.635C420.615 126.02 420.218 127.876 419.3 129.1C418.969 129.542 418.342 129.631 417.9 129.3C417.458 128.969 417.369 128.342 417.7 127.9C418.282 127.124 418.635 125.73 418.822 124.365C418.911 123.712 418.955 123.116 418.978 122.683C418.99 122.455 419 122.227 419 122V119C419 115.134 415.866 112 412 112ZM412 116C410.343 116 409 117.343 409 119V120C409 120.94 408.696 122.101 408.132 123.158C407.565 124.221 406.683 125.276 405.447 125.894C404.953 126.141 404.353 125.941 404.106 125.447C403.859 124.953 404.059 124.353 404.553 124.106C405.317 123.724 405.935 123.029 406.368 122.217C406.804 121.399 407 120.56 407 120V119C407 116.239 409.239 114 412 114C414.761 114 417 116.239 417 119V120V120.117C417.001 123.042 417.001 126.967 413.64 129.768C413.216 130.122 412.585 130.064 412.232 129.64C411.878 129.216 411.936 128.585 412.36 128.232C414.954 126.07 415 123.063 415 120V119C415 117.343 413.657 116 412 116ZM413 119.5C413 118.948 412.552 118.5 412 118.5C411.448 118.5 411 118.948 411 119.5C411 120.697 410.878 122.202 410.426 123.559C409.975 124.912 409.232 126.016 408.053 126.606C407.559 126.853 407.359 127.453 407.606 127.947C407.853 128.441 408.453 128.641 408.947 128.394C410.768 127.484 411.775 125.838 412.324 124.191C412.872 122.548 413 120.803 413 119.5Z" fill="white"/>
</g>
</g>
<rect x="381.5" y="89.5" width="61" height="61" rx="30.5" stroke="#96F0FF"/>
<rect x="661.5" y="369.5" width="499" height="499" rx="199.5" transform="rotate(-180 661.5 369.5)" stroke="url(#paint4_linear_568_13459)" stroke-opacity="0.7" stroke-dasharray="10 10"/>
<path d="M381 120L184 120" stroke="url(#paint5_linear_568_13459)"/>
<path d="M443 120L561 120" stroke="url(#paint6_linear_568_13459)"/>
<path d="M561 120L639 120" stroke="url(#paint7_linear_568_13459)"/>
<path d="M195 52C196.2 52 240.167 97.3333 262 120" stroke="#DCE3E5"/>
<path d="M195 188C196.2 188 240.167 142.667 262 120" stroke="#DCE3E5"/>
<path d="M629 52C627.782 52 583.159 97.3333 561 120" stroke="url(#paint8_linear_568_13459)"/>
<path d="M629 188C627.782 188 583.159 142.667 561 120" stroke="url(#paint9_linear_568_13459)"/>
<circle cx="262" cy="120" r="4" fill="#00C3D7"/>
<circle cx="561" cy="119.998" r="4" transform="rotate(180 561 119.998)" fill="#00C3D7"/>
<rect x="126.5" y="30.5" width="96" height="43" rx="21.5" fill="#E8ECEF"/>
<g clip-path="url(#clip2_568_13459)">
<path fill-rule="evenodd" clip-rule="evenodd" d="M163.497 57.834C163.958 57.834 164.331 58.2071 164.331 58.6673C164.331 59.0947 164.009 59.4469 163.595 59.495L163.497 59.5007H148.497C148.037 59.5007 147.664 59.1276 147.664 58.6673C147.664 58.2399 147.986 57.8877 148.4 57.8396L148.497 57.834H163.497ZM161.831 45.334C162.709 45.334 163.429 46.0139 163.493 46.8763L163.497 47.0007V55.334C163.497 56.2126 162.818 56.9325 161.955 56.9961L161.831 57.0007H150.164C149.285 57.0007 148.566 56.3208 148.502 55.4584L148.497 55.334V47.0007C148.497 46.122 149.177 45.4022 150.04 45.3386L150.164 45.334H161.831ZM161.831 47.0007H150.164V55.334H161.831V47.0007Z" fill="black"/>
</g>
<path d="M176.688 57L174.21 49.594L176.282 49.58L177.794 54.634L177.486 54.592L179.152 50.658H180.328L182.064 54.606L181.728 54.634L183.24 49.594H185.312L182.792 57H181.35L179.6 52.786L179.824 52.814L178.116 57H176.688ZM189.828 57.14C189.026 57.14 188.321 56.9767 187.714 56.65C187.117 56.3233 186.65 55.8753 186.314 55.306C185.988 54.7367 185.824 54.0833 185.824 53.346C185.824 52.7673 185.918 52.24 186.104 51.764C186.291 51.288 186.552 50.8773 186.888 50.532C187.224 50.1773 187.621 49.9067 188.078 49.72C188.545 49.524 189.049 49.426 189.59 49.426C190.094 49.426 190.561 49.5193 190.99 49.706C191.42 49.8927 191.788 50.154 192.096 50.49C192.414 50.8167 192.656 51.2087 192.824 51.666C192.992 52.114 193.067 52.5993 193.048 53.122L193.034 53.738H187.084L186.762 52.52H191.396L191.172 52.772V52.464C191.154 52.212 191.07 51.988 190.92 51.792C190.78 51.5867 190.598 51.428 190.374 51.316C190.15 51.1947 189.898 51.134 189.618 51.134C189.208 51.134 188.858 51.2133 188.568 51.372C188.288 51.5307 188.074 51.764 187.924 52.072C187.775 52.38 187.7 52.7533 187.7 53.192C187.7 53.64 187.794 54.0273 187.98 54.354C188.176 54.6807 188.447 54.9373 188.792 55.124C189.147 55.3013 189.562 55.39 190.038 55.39C190.365 55.39 190.664 55.3387 190.934 55.236C191.205 55.1333 191.494 54.956 191.802 54.704L192.754 56.034C192.484 56.2767 192.185 56.482 191.858 56.65C191.532 56.8087 191.196 56.93 190.85 57.014C190.505 57.098 190.164 57.14 189.828 57.14ZM198.787 57.14C198.461 57.14 198.143 57.0933 197.835 57C197.527 56.9067 197.247 56.7807 196.995 56.622C196.743 56.454 196.533 56.2673 196.365 56.062C196.197 55.8473 196.09 55.628 196.043 55.404L196.491 55.236L196.393 56.972H194.517V46.64H196.519V51.33L196.127 51.176C196.183 50.952 196.291 50.7373 196.449 50.532C196.608 50.3173 196.809 50.1307 197.051 49.972C197.294 49.804 197.56 49.6733 197.849 49.58C198.139 49.4867 198.437 49.44 198.745 49.44C199.389 49.44 199.963 49.608 200.467 49.944C200.981 50.2707 201.382 50.7233 201.671 51.302C201.961 51.8807 202.105 52.5433 202.105 53.29C202.105 54.0367 201.961 54.6993 201.671 55.278C201.391 55.8567 200.999 56.314 200.495 56.65C199.991 56.9767 199.422 57.14 198.787 57.14ZM198.311 55.446C198.685 55.446 199.007 55.3573 199.277 55.18C199.557 54.9933 199.777 54.7413 199.935 54.424C200.094 54.0973 200.173 53.7193 200.173 53.29C200.173 52.87 200.094 52.4967 199.935 52.17C199.786 51.8433 199.571 51.5913 199.291 51.414C199.011 51.2367 198.685 51.148 198.311 51.148C197.938 51.148 197.611 51.2367 197.331 51.414C197.051 51.5913 196.832 51.8433 196.673 52.17C196.524 52.4967 196.449 52.87 196.449 53.29C196.449 53.7193 196.524 54.0973 196.673 54.424C196.832 54.7413 197.051 54.9933 197.331 55.18C197.611 55.3573 197.938 55.446 198.311 55.446Z" fill="black"/>
<rect x="126.5" y="30.5" width="96" height="43" rx="21.5" stroke="url(#paint10_linear_568_13459)"/>
<rect x="67.5" y="166.5" width="155" height="43" rx="21.5" fill="#E8ECEF"/>
<g clip-path="url(#clip3_568_13459)">
<path d="M101.164 179.666C102.043 179.666 102.763 180.346 102.826 181.208L102.831 181.333V194.666C102.831 195.545 102.151 196.264 101.288 196.328L101.164 196.333H92.8307C91.9521 196.333 91.2323 195.653 91.1686 194.79L91.1641 194.666V181.333C91.1641 180.454 91.844 179.734 92.7063 179.671L92.8307 179.666H101.164ZM101.164 181.333H92.8307V194.666H101.164V181.333ZM97.4141 191.333C97.6186 191.333 97.7887 191.48 97.824 191.674L97.8307 191.749V192.583C97.8307 192.787 97.6833 192.957 97.4889 192.993L97.4141 192.999H96.5807C96.3762 192.999 96.2061 192.852 96.1708 192.658L96.1641 192.583V191.749C96.1641 191.545 96.3115 191.375 96.5058 191.339L96.5807 191.333H97.4141Z" fill="black"/>
</g>
<path d="M119.508 193.14C118.705 193.14 118.001 192.977 117.394 192.65C116.797 192.323 116.33 191.875 115.994 191.306C115.667 190.737 115.504 190.083 115.504 189.346C115.504 188.767 115.597 188.24 115.784 187.764C115.971 187.288 116.232 186.877 116.568 186.532C116.904 186.177 117.301 185.907 117.758 185.72C118.225 185.524 118.729 185.426 119.27 185.426C119.774 185.426 120.241 185.519 120.67 185.706C121.099 185.893 121.468 186.154 121.776 186.49C122.093 186.817 122.336 187.209 122.504 187.666C122.672 188.114 122.747 188.599 122.728 189.122L122.714 189.738H116.764L116.442 188.52H121.076L120.852 188.772V188.464C120.833 188.212 120.749 187.988 120.6 187.792C120.46 187.587 120.278 187.428 120.054 187.316C119.83 187.195 119.578 187.134 119.298 187.134C118.887 187.134 118.537 187.213 118.248 187.372C117.968 187.531 117.753 187.764 117.604 188.072C117.455 188.38 117.38 188.753 117.38 189.192C117.38 189.64 117.473 190.027 117.66 190.354C117.856 190.681 118.127 190.937 118.472 191.124C118.827 191.301 119.242 191.39 119.718 191.39C120.045 191.39 120.343 191.339 120.614 191.236C120.885 191.133 121.174 190.956 121.482 190.704L122.434 192.034C122.163 192.277 121.865 192.482 121.538 192.65C121.211 192.809 120.875 192.93 120.53 193.014C120.185 193.098 119.844 193.14 119.508 193.14ZM123.931 189.906V188.058H128.509V189.906H123.931ZM133.446 193.14C132.737 193.14 132.102 192.972 131.542 192.636C130.982 192.3 130.539 191.843 130.212 191.264C129.895 190.685 129.736 190.027 129.736 189.29C129.736 188.553 129.895 187.895 130.212 187.316C130.539 186.737 130.982 186.28 131.542 185.944C132.102 185.608 132.737 185.44 133.446 185.44C134.109 185.44 134.716 185.561 135.266 185.804C135.817 186.047 136.246 186.383 136.554 186.812L135.462 188.128C135.332 187.951 135.168 187.792 134.972 187.652C134.776 187.503 134.562 187.386 134.328 187.302C134.104 187.218 133.871 187.176 133.628 187.176C133.246 187.176 132.905 187.269 132.606 187.456C132.317 187.633 132.088 187.881 131.92 188.198C131.752 188.515 131.668 188.879 131.668 189.29C131.668 189.682 131.752 190.037 131.92 190.354C132.098 190.671 132.336 190.923 132.634 191.11C132.933 191.297 133.269 191.39 133.642 191.39C133.885 191.39 134.114 191.357 134.328 191.292C134.543 191.227 134.744 191.124 134.93 190.984C135.126 190.844 135.304 190.676 135.462 190.48L136.54 191.796C136.232 192.197 135.794 192.524 135.224 192.776C134.664 193.019 134.072 193.14 133.446 193.14ZM141.258 193.14C140.502 193.14 139.826 192.977 139.228 192.65C138.64 192.314 138.174 191.857 137.828 191.278C137.492 190.699 137.324 190.037 137.324 189.29C137.324 188.543 137.492 187.881 137.828 187.302C138.174 186.723 138.64 186.271 139.228 185.944C139.826 185.608 140.502 185.44 141.258 185.44C142.005 185.44 142.672 185.608 143.26 185.944C143.858 186.271 144.324 186.723 144.66 187.302C144.996 187.881 145.164 188.543 145.164 189.29C145.164 190.037 144.996 190.699 144.66 191.278C144.324 191.857 143.858 192.314 143.26 192.65C142.672 192.977 142.005 193.14 141.258 193.14ZM141.258 191.404C141.622 191.404 141.949 191.315 142.238 191.138C142.528 190.951 142.752 190.699 142.91 190.382C143.078 190.055 143.158 189.691 143.148 189.29C143.158 188.879 143.078 188.515 142.91 188.198C142.752 187.871 142.528 187.619 142.238 187.442C141.949 187.255 141.622 187.162 141.258 187.162C140.885 187.162 140.554 187.255 140.264 187.442C139.975 187.629 139.746 187.881 139.578 188.198C139.41 188.515 139.331 188.879 139.34 189.29C139.331 189.691 139.41 190.055 139.578 190.382C139.746 190.699 139.975 190.951 140.264 191.138C140.554 191.315 140.885 191.404 141.258 191.404ZM146.66 193V185.594H148.578L148.62 187.008L148.326 187.064C148.428 186.821 148.564 186.602 148.732 186.406C148.909 186.21 149.11 186.042 149.334 185.902C149.558 185.762 149.796 185.655 150.048 185.58C150.3 185.496 150.552 185.454 150.804 185.454C151.186 185.454 151.532 185.515 151.84 185.636C152.148 185.757 152.409 185.949 152.624 186.21C152.838 186.462 153.006 186.798 153.128 187.218L152.82 187.19L152.918 186.966C153.039 186.742 153.193 186.537 153.38 186.35C153.566 186.163 153.776 186.005 154.01 185.874C154.243 185.743 154.486 185.641 154.738 185.566C154.99 185.491 155.237 185.454 155.48 185.454C156.058 185.454 156.539 185.571 156.922 185.804C157.304 186.028 157.589 186.369 157.776 186.826C157.972 187.283 158.07 187.843 158.07 188.506V193H156.082V188.646C156.082 188.31 156.035 188.035 155.942 187.82C155.848 187.605 155.713 187.447 155.536 187.344C155.358 187.232 155.13 187.176 154.85 187.176C154.635 187.176 154.434 187.213 154.248 187.288C154.07 187.353 153.912 187.451 153.772 187.582C153.641 187.703 153.538 187.853 153.464 188.03C153.389 188.198 153.352 188.38 153.352 188.576V193H151.35V188.632C151.35 188.324 151.303 188.063 151.21 187.848C151.116 187.624 150.981 187.456 150.804 187.344C150.626 187.232 150.407 187.176 150.146 187.176C149.931 187.176 149.73 187.213 149.544 187.288C149.366 187.353 149.212 187.451 149.082 187.582C148.951 187.703 148.848 187.848 148.774 188.016C148.699 188.184 148.662 188.366 148.662 188.562V193H146.66ZM159.949 193V185.594H161.867L161.909 187.008L161.615 187.064C161.717 186.821 161.853 186.602 162.021 186.406C162.198 186.21 162.399 186.042 162.623 185.902C162.847 185.762 163.085 185.655 163.337 185.58C163.589 185.496 163.841 185.454 164.093 185.454C164.475 185.454 164.821 185.515 165.129 185.636C165.437 185.757 165.698 185.949 165.913 186.21C166.127 186.462 166.295 186.798 166.417 187.218L166.109 187.19L166.207 186.966C166.328 186.742 166.482 186.537 166.669 186.35C166.855 186.163 167.065 186.005 167.299 185.874C167.532 185.743 167.775 185.641 168.027 185.566C168.279 185.491 168.526 185.454 168.769 185.454C169.347 185.454 169.828 185.571 170.211 185.804C170.593 186.028 170.878 186.369 171.065 186.826C171.261 187.283 171.359 187.843 171.359 188.506V193H169.371V188.646C169.371 188.31 169.324 188.035 169.231 187.82C169.137 187.605 169.002 187.447 168.825 187.344C168.647 187.232 168.419 187.176 168.139 187.176C167.924 187.176 167.723 187.213 167.537 187.288C167.359 187.353 167.201 187.451 167.061 187.582C166.93 187.703 166.827 187.853 166.753 188.03C166.678 188.198 166.641 188.38 166.641 188.576V193H164.639V188.632C164.639 188.324 164.592 188.063 164.499 187.848C164.405 187.624 164.27 187.456 164.093 187.344C163.915 187.232 163.696 187.176 163.435 187.176C163.22 187.176 163.019 187.213 162.833 187.288C162.655 187.353 162.501 187.451 162.371 187.582C162.24 187.703 162.137 187.848 162.063 188.016C161.988 188.184 161.951 188.366 161.951 188.562V193H159.949ZM176.766 193.14C175.963 193.14 175.258 192.977 174.652 192.65C174.054 192.323 173.588 191.875 173.252 191.306C172.925 190.737 172.762 190.083 172.762 189.346C172.762 188.767 172.855 188.24 173.042 187.764C173.228 187.288 173.49 186.877 173.826 186.532C174.162 186.177 174.558 185.907 175.016 185.72C175.482 185.524 175.986 185.426 176.528 185.426C177.032 185.426 177.498 185.519 177.928 185.706C178.357 185.893 178.726 186.154 179.034 186.49C179.351 186.817 179.594 187.209 179.762 187.666C179.93 188.114 180.004 188.599 179.986 189.122L179.972 189.738H174.022L173.7 188.52H178.334L178.11 188.772V188.464C178.091 188.212 178.007 187.988 177.858 187.792C177.718 187.587 177.536 187.428 177.312 187.316C177.088 187.195 176.836 187.134 176.556 187.134C176.145 187.134 175.795 187.213 175.506 187.372C175.226 187.531 175.011 187.764 174.862 188.072C174.712 188.38 174.638 188.753 174.638 189.192C174.638 189.64 174.731 190.027 174.918 190.354C175.114 190.681 175.384 190.937 175.73 191.124C176.084 191.301 176.5 191.39 176.976 191.39C177.302 191.39 177.601 191.339 177.872 191.236C178.142 191.133 178.432 190.956 178.74 190.704L179.692 192.034C179.421 192.277 179.122 192.482 178.796 192.65C178.469 192.809 178.133 192.93 177.788 193.014C177.442 193.098 177.102 193.14 176.766 193.14ZM181.455 193V185.594H183.373L183.443 187.974L183.107 187.484C183.219 187.101 183.401 186.756 183.653 186.448C183.905 186.131 184.199 185.883 184.535 185.706C184.88 185.529 185.24 185.44 185.613 185.44C185.772 185.44 185.926 185.454 186.075 185.482C186.224 185.51 186.35 185.543 186.453 185.58L185.921 187.764C185.818 187.708 185.683 187.661 185.515 187.624C185.356 187.577 185.193 187.554 185.025 187.554C184.801 187.554 184.591 187.596 184.395 187.68C184.208 187.755 184.045 187.867 183.905 188.016C183.765 188.156 183.653 188.324 183.569 188.52C183.494 188.716 183.457 188.931 183.457 189.164V193H181.455ZM190.499 193.14C189.79 193.14 189.155 192.972 188.595 192.636C188.035 192.3 187.592 191.843 187.265 191.264C186.948 190.685 186.789 190.027 186.789 189.29C186.789 188.553 186.948 187.895 187.265 187.316C187.592 186.737 188.035 186.28 188.595 185.944C189.155 185.608 189.79 185.44 190.499 185.44C191.162 185.44 191.768 185.561 192.319 185.804C192.87 186.047 193.299 186.383 193.607 186.812L192.515 188.128C192.384 187.951 192.221 187.792 192.025 187.652C191.829 187.503 191.614 187.386 191.381 187.302C191.157 187.218 190.924 187.176 190.681 187.176C190.298 187.176 189.958 187.269 189.659 187.456C189.37 187.633 189.141 187.881 188.973 188.198C188.805 188.515 188.721 188.879 188.721 189.29C188.721 189.682 188.805 190.037 188.973 190.354C189.15 190.671 189.388 190.923 189.687 191.11C189.986 191.297 190.322 191.39 190.695 191.39C190.938 191.39 191.166 191.357 191.381 191.292C191.596 191.227 191.796 191.124 191.983 190.984C192.179 190.844 192.356 190.676 192.515 190.48L193.593 191.796C193.285 192.197 192.846 192.524 192.277 192.776C191.717 193.019 191.124 193.14 190.499 193.14ZM198.381 193.14C197.578 193.14 196.874 192.977 196.267 192.65C195.67 192.323 195.203 191.875 194.867 191.306C194.54 190.737 194.377 190.083 194.377 189.346C194.377 188.767 194.47 188.24 194.657 187.764C194.844 187.288 195.105 186.877 195.441 186.532C195.777 186.177 196.174 185.907 196.631 185.72C197.098 185.524 197.602 185.426 198.143 185.426C198.647 185.426 199.114 185.519 199.543 185.706C199.972 185.893 200.341 186.154 200.649 186.49C200.966 186.817 201.209 187.209 201.377 187.666C201.545 188.114 201.62 188.599 201.601 189.122L201.587 189.738H195.637L195.315 188.52H199.949L199.725 188.772V188.464C199.706 188.212 199.622 187.988 199.473 187.792C199.333 187.587 199.151 187.428 198.927 187.316C198.703 187.195 198.451 187.134 198.171 187.134C197.76 187.134 197.41 187.213 197.121 187.372C196.841 187.531 196.626 187.764 196.477 188.072C196.328 188.38 196.253 188.753 196.253 189.192C196.253 189.64 196.346 190.027 196.533 190.354C196.729 190.681 197 190.937 197.345 191.124C197.7 191.301 198.115 191.39 198.591 191.39C198.918 191.39 199.216 191.339 199.487 191.236C199.758 191.133 200.047 190.956 200.355 190.704L201.307 192.034C201.036 192.277 200.738 192.482 200.411 192.65C200.084 192.809 199.748 192.93 199.403 193.014C199.058 193.098 198.717 193.14 198.381 193.14Z" fill="black"/>
<rect x="67.5" y="166.5" width="155" height="43" rx="21.5" stroke="url(#paint11_linear_568_13459)"/>
<rect x="29.5" y="98.5" width="182" height="43" rx="21.5" fill="#E8ECEF"/>
<g clip-path="url(#clip4_568_13459)">
<path d="M58.9974 111.666C63.5997 111.666 67.3307 115.397 67.3307 119.999C67.3307 124.602 63.5997 128.333 58.9974 128.333C54.395 128.333 50.6641 124.602 50.6641 119.999C50.6641 115.397 54.395 111.666 58.9974 111.666ZM58.9974 123.333C57.1648 123.333 55.5401 124.023 54.4685 124.892C55.6576 125.993 57.2489 126.666 58.9974 126.666C60.7459 126.666 62.3372 125.993 63.5263 124.892C62.4547 124.023 60.83 123.333 58.9974 123.333ZM58.9974 113.333C55.3155 113.333 52.3307 116.317 52.3307 119.999C52.3307 121.332 52.722 122.574 53.3959 123.616C54.7698 122.493 56.7763 121.666 58.9974 121.666C61.2185 121.666 63.225 122.493 64.5989 123.616C65.2728 122.574 65.6641 121.332 65.6641 119.999C65.6641 116.317 62.6793 113.333 58.9974 113.333ZM58.9974 114.166C60.8383 114.166 62.3307 115.658 62.3307 117.499C62.3307 119.34 60.8383 120.833 58.9974 120.833C57.1564 120.833 55.6641 119.34 55.6641 117.499C55.6641 115.658 57.1564 114.166 58.9974 114.166ZM58.9974 115.833C58.0769 115.833 57.3307 116.579 57.3307 117.499C57.3307 118.42 58.0769 119.166 58.9974 119.166C59.9179 119.166 60.6641 118.42 60.6641 117.499C60.6641 116.579 59.9179 115.833 58.9974 115.833Z" fill="black"/>
</g>
<path d="M80.486 125.14C79.7953 125.14 79.1793 125.028 78.638 124.804C78.106 124.571 77.6767 124.253 77.35 123.852L78.596 122.788C78.876 123.096 79.1933 123.32 79.548 123.46C79.9027 123.591 80.2573 123.656 80.612 123.656C80.752 123.656 80.878 123.642 80.99 123.614C81.1113 123.577 81.214 123.53 81.298 123.474C81.382 123.409 81.4427 123.334 81.48 123.25C81.5267 123.157 81.55 123.059 81.55 122.956C81.55 122.751 81.466 122.592 81.298 122.48C81.2047 122.424 81.06 122.363 80.864 122.298C80.668 122.223 80.416 122.144 80.108 122.06C79.632 121.939 79.226 121.799 78.89 121.64C78.5633 121.472 78.302 121.285 78.106 121.08C77.938 120.884 77.8073 120.674 77.714 120.45C77.63 120.217 77.588 119.96 77.588 119.68C77.588 119.344 77.6627 119.041 77.812 118.77C77.9613 118.49 78.1667 118.252 78.428 118.056C78.6987 117.86 79.0067 117.711 79.352 117.608C79.6973 117.496 80.0613 117.44 80.444 117.44C80.8267 117.44 81.2 117.487 81.564 117.58C81.928 117.673 82.264 117.809 82.572 117.986C82.8893 118.154 83.1647 118.355 83.398 118.588L82.334 119.764C82.166 119.605 81.9747 119.461 81.76 119.33C81.5547 119.199 81.34 119.097 81.116 119.022C80.892 118.947 80.6913 118.91 80.514 118.91C80.3553 118.91 80.2107 118.924 80.08 118.952C79.9587 118.98 79.856 119.027 79.772 119.092C79.688 119.148 79.6227 119.218 79.576 119.302C79.5387 119.386 79.52 119.479 79.52 119.582C79.52 119.685 79.5433 119.783 79.59 119.876C79.646 119.969 79.7207 120.049 79.814 120.114C79.9167 120.17 80.066 120.235 80.262 120.31C80.4673 120.385 80.7427 120.469 81.088 120.562C81.536 120.683 81.914 120.819 82.222 120.968C82.5393 121.117 82.7913 121.29 82.978 121.486C83.1367 121.654 83.2533 121.845 83.328 122.06C83.4027 122.275 83.44 122.513 83.44 122.774C83.44 123.231 83.3093 123.637 83.048 123.992C82.796 124.347 82.446 124.627 81.998 124.832C81.55 125.037 81.046 125.14 80.486 125.14ZM88.3013 125.14C87.5453 125.14 86.8686 124.977 86.2713 124.65C85.6833 124.314 85.2166 123.857 84.8713 123.278C84.5353 122.699 84.3673 122.037 84.3673 121.29C84.3673 120.543 84.5353 119.881 84.8713 119.302C85.2166 118.723 85.6833 118.271 86.2713 117.944C86.8686 117.608 87.5453 117.44 88.3013 117.44C89.0479 117.44 89.7153 117.608 90.3033 117.944C90.9006 118.271 91.3673 118.723 91.7033 119.302C92.0393 119.881 92.2073 120.543 92.2073 121.29C92.2073 122.037 92.0393 122.699 91.7033 123.278C91.3673 123.857 90.9006 124.314 90.3033 124.65C89.7153 124.977 89.0479 125.14 88.3013 125.14ZM88.3013 123.404C88.6653 123.404 88.9919 123.315 89.2813 123.138C89.5706 122.951 89.7946 122.699 89.9533 122.382C90.1213 122.055 90.2006 121.691 90.1913 121.29C90.2006 120.879 90.1213 120.515 89.9533 120.198C89.7946 119.871 89.5706 119.619 89.2813 119.442C88.9919 119.255 88.6653 119.162 88.3013 119.162C87.9279 119.162 87.5966 119.255 87.3073 119.442C87.0179 119.629 86.7893 119.881 86.6213 120.198C86.4533 120.515 86.3739 120.879 86.3833 121.29C86.3739 121.691 86.4533 122.055 86.6213 122.382C86.7893 122.699 87.0179 122.951 87.3073 123.138C87.5966 123.315 87.9279 123.404 88.3013 123.404ZM93.7307 125V114.64H95.7187V125H93.7307ZM100.216 125.14C99.6745 125.14 99.2078 125.023 98.8158 124.79C98.4332 124.547 98.1345 124.207 97.9198 123.768C97.7145 123.32 97.6118 122.783 97.6118 122.158V117.594H99.5998V121.836C99.5998 122.172 99.6558 122.466 99.7678 122.718C99.8798 122.961 100.038 123.147 100.244 123.278C100.449 123.409 100.701 123.474 101 123.474C101.214 123.474 101.41 123.441 101.588 123.376C101.774 123.301 101.933 123.199 102.064 123.068C102.204 122.937 102.311 122.783 102.386 122.606C102.46 122.429 102.498 122.237 102.498 122.032V117.594H104.486V125H102.596L102.526 123.474L102.89 123.306C102.778 123.651 102.591 123.964 102.33 124.244C102.068 124.524 101.756 124.743 101.392 124.902C101.028 125.061 100.636 125.14 100.216 125.14ZM107.2 125V115.718H109.188V125H107.2ZM105.814 119.372V117.594H110.714V119.372H105.814ZM112.164 125V117.594H114.152V125H112.164ZM113.144 116.082C112.761 116.082 112.463 115.989 112.248 115.802C112.033 115.606 111.926 115.335 111.926 114.99C111.926 114.673 112.033 114.416 112.248 114.22C112.472 114.015 112.771 113.912 113.144 113.912C113.527 113.912 113.825 114.01 114.04 114.206C114.255 114.393 114.362 114.654 114.362 114.99C114.362 115.307 114.25 115.569 114.026 115.774C113.811 115.979 113.517 116.082 113.144 116.082ZM119.719 125.14C118.963 125.14 118.287 124.977 117.689 124.65C117.101 124.314 116.635 123.857 116.289 123.278C115.953 122.699 115.785 122.037 115.785 121.29C115.785 120.543 115.953 119.881 116.289 119.302C116.635 118.723 117.101 118.271 117.689 117.944C118.287 117.608 118.963 117.44 119.719 117.44C120.466 117.44 121.133 117.608 121.721 117.944C122.319 118.271 122.785 118.723 123.121 119.302C123.457 119.881 123.625 120.543 123.625 121.29C123.625 122.037 123.457 122.699 123.121 123.278C122.785 123.857 122.319 124.314 121.721 124.65C121.133 124.977 120.466 125.14 119.719 125.14ZM119.719 123.404C120.083 123.404 120.41 123.315 120.699 123.138C120.989 122.951 121.213 122.699 121.371 122.382C121.539 122.055 121.619 121.691 121.609 121.29C121.619 120.879 121.539 120.515 121.371 120.198C121.213 119.871 120.989 119.619 120.699 119.442C120.41 119.255 120.083 119.162 119.719 119.162C119.346 119.162 119.015 119.255 118.725 119.442C118.436 119.629 118.207 119.881 118.039 120.198C117.871 120.515 117.792 120.879 117.801 121.29C117.792 121.691 117.871 122.055 118.039 122.382C118.207 122.699 118.436 122.951 118.725 123.138C119.015 123.315 119.346 123.404 119.719 123.404ZM125.135 125V117.594H127.039L127.095 119.106L126.703 119.274C126.805 118.938 126.987 118.635 127.249 118.364C127.519 118.084 127.841 117.86 128.215 117.692C128.588 117.524 128.98 117.44 129.391 117.44C129.951 117.44 130.417 117.552 130.791 117.776C131.173 118 131.458 118.341 131.645 118.798C131.841 119.246 131.939 119.801 131.939 120.464V125H129.951V120.618C129.951 120.282 129.904 120.002 129.811 119.778C129.717 119.554 129.573 119.391 129.377 119.288C129.19 119.185 128.957 119.139 128.677 119.148C128.453 119.148 128.243 119.185 128.047 119.26C127.86 119.325 127.697 119.423 127.557 119.554C127.426 119.685 127.319 119.834 127.235 120.002C127.16 120.17 127.123 120.352 127.123 120.548V125H126.143C125.928 125 125.737 125 125.569 125C125.401 125 125.256 125 125.135 125ZM136.336 125.14C135.645 125.14 135.029 125.028 134.488 124.804C133.956 124.571 133.526 124.253 133.2 123.852L134.446 122.788C134.726 123.096 135.043 123.32 135.398 123.46C135.752 123.591 136.107 123.656 136.462 123.656C136.602 123.656 136.728 123.642 136.84 123.614C136.961 123.577 137.064 123.53 137.148 123.474C137.232 123.409 137.292 123.334 137.33 123.25C137.376 123.157 137.4 123.059 137.4 122.956C137.4 122.751 137.316 122.592 137.148 122.48C137.054 122.424 136.91 122.363 136.714 122.298C136.518 122.223 136.266 122.144 135.958 122.06C135.482 121.939 135.076 121.799 134.74 121.64C134.413 121.472 134.152 121.285 133.956 121.08C133.788 120.884 133.657 120.674 133.564 120.45C133.48 120.217 133.438 119.96 133.438 119.68C133.438 119.344 133.512 119.041 133.662 118.77C133.811 118.49 134.016 118.252 134.278 118.056C134.548 117.86 134.856 117.711 135.202 117.608C135.547 117.496 135.911 117.44 136.294 117.44C136.676 117.44 137.05 117.487 137.414 117.58C137.778 117.673 138.114 117.809 138.422 117.986C138.739 118.154 139.014 118.355 139.248 118.588L138.184 119.764C138.016 119.605 137.824 119.461 137.61 119.33C137.404 119.199 137.19 119.097 136.966 119.022C136.742 118.947 136.541 118.91 136.364 118.91C136.205 118.91 136.06 118.924 135.93 118.952C135.808 118.98 135.706 119.027 135.622 119.092C135.538 119.148 135.472 119.218 135.426 119.302C135.388 119.386 135.37 119.479 135.37 119.582C135.37 119.685 135.393 119.783 135.44 119.876C135.496 119.969 135.57 120.049 135.664 120.114C135.766 120.17 135.916 120.235 136.112 120.31C136.317 120.385 136.592 120.469 136.938 120.562C137.386 120.683 137.764 120.819 138.072 120.968C138.389 121.117 138.641 121.29 138.828 121.486C138.986 121.654 139.103 121.845 139.178 122.06C139.252 122.275 139.29 122.513 139.29 122.774C139.29 123.231 139.159 123.637 138.898 123.992C138.646 124.347 138.296 124.627 137.848 124.832C137.4 125.037 136.896 125.14 136.336 125.14ZM144.986 125V117.594H146.904L146.946 119.008L146.652 119.064C146.755 118.821 146.89 118.602 147.058 118.406C147.235 118.21 147.436 118.042 147.66 117.902C147.884 117.762 148.122 117.655 148.374 117.58C148.626 117.496 148.878 117.454 149.13 117.454C149.513 117.454 149.858 117.515 150.166 117.636C150.474 117.757 150.735 117.949 150.95 118.21C151.165 118.462 151.333 118.798 151.454 119.218L151.146 119.19L151.244 118.966C151.365 118.742 151.519 118.537 151.706 118.35C151.893 118.163 152.103 118.005 152.336 117.874C152.569 117.743 152.812 117.641 153.064 117.566C153.316 117.491 153.563 117.454 153.806 117.454C154.385 117.454 154.865 117.571 155.248 117.804C155.631 118.028 155.915 118.369 156.102 118.826C156.298 119.283 156.396 119.843 156.396 120.506V125H154.408V120.646C154.408 120.31 154.361 120.035 154.268 119.82C154.175 119.605 154.039 119.447 153.862 119.344C153.685 119.232 153.456 119.176 153.176 119.176C152.961 119.176 152.761 119.213 152.574 119.288C152.397 119.353 152.238 119.451 152.098 119.582C151.967 119.703 151.865 119.853 151.79 120.03C151.715 120.198 151.678 120.38 151.678 120.576V125H149.676V120.632C149.676 120.324 149.629 120.063 149.536 119.848C149.443 119.624 149.307 119.456 149.13 119.344C148.953 119.232 148.733 119.176 148.472 119.176C148.257 119.176 148.057 119.213 147.87 119.288C147.693 119.353 147.539 119.451 147.408 119.582C147.277 119.703 147.175 119.848 147.1 120.016C147.025 120.184 146.988 120.366 146.988 120.562V125H144.986ZM161.733 125.14C160.977 125.14 160.3 124.977 159.703 124.65C159.115 124.314 158.648 123.857 158.303 123.278C157.967 122.699 157.799 122.037 157.799 121.29C157.799 120.543 157.967 119.881 158.303 119.302C158.648 118.723 159.115 118.271 159.703 117.944C160.3 117.608 160.977 117.44 161.733 117.44C162.48 117.44 163.147 117.608 163.735 117.944C164.332 118.271 164.799 118.723 165.135 119.302C165.471 119.881 165.639 120.543 165.639 121.29C165.639 122.037 165.471 122.699 165.135 123.278C164.799 123.857 164.332 124.314 163.735 124.65C163.147 124.977 162.48 125.14 161.733 125.14ZM161.733 123.404C162.097 123.404 162.424 123.315 162.713 123.138C163.002 122.951 163.226 122.699 163.385 122.382C163.553 122.055 163.632 121.691 163.623 121.29C163.632 120.879 163.553 120.515 163.385 120.198C163.226 119.871 163.002 119.619 162.713 119.442C162.424 119.255 162.097 119.162 161.733 119.162C161.36 119.162 161.028 119.255 160.739 119.442C160.45 119.629 160.221 119.881 160.053 120.198C159.885 120.515 159.806 120.879 159.815 121.29C159.806 121.691 159.885 122.055 160.053 122.382C160.221 122.699 160.45 122.951 160.739 123.138C161.028 123.315 161.36 123.404 161.733 123.404ZM171.418 125.14C171.092 125.14 170.774 125.093 170.466 125C170.158 124.907 169.878 124.781 169.626 124.622C169.374 124.454 169.164 124.267 168.996 124.062C168.828 123.847 168.721 123.628 168.674 123.404L169.122 123.236L169.024 124.972H167.148V114.64H169.15V119.33L168.758 119.176C168.814 118.952 168.922 118.737 169.08 118.532C169.239 118.317 169.44 118.131 169.682 117.972C169.925 117.804 170.191 117.673 170.48 117.58C170.77 117.487 171.068 117.44 171.376 117.44C172.02 117.44 172.594 117.608 173.098 117.944C173.612 118.271 174.013 118.723 174.302 119.302C174.592 119.881 174.736 120.543 174.736 121.29C174.736 122.037 174.592 122.699 174.302 123.278C174.022 123.857 173.63 124.314 173.126 124.65C172.622 124.977 172.053 125.14 171.418 125.14ZM170.942 123.446C171.316 123.446 171.638 123.357 171.908 123.18C172.188 122.993 172.408 122.741 172.566 122.424C172.725 122.097 172.804 121.719 172.804 121.29C172.804 120.87 172.725 120.497 172.566 120.17C172.417 119.843 172.202 119.591 171.922 119.414C171.642 119.237 171.316 119.148 170.942 119.148C170.569 119.148 170.242 119.237 169.962 119.414C169.682 119.591 169.463 119.843 169.304 120.17C169.155 120.497 169.08 120.87 169.08 121.29C169.08 121.719 169.155 122.097 169.304 122.424C169.463 122.741 169.682 122.993 169.962 123.18C170.242 123.357 170.569 123.446 170.942 123.446ZM176.408 125V117.594H178.396V125H176.408ZM177.388 116.082C177.005 116.082 176.707 115.989 176.492 115.802C176.277 115.606 176.17 115.335 176.17 114.99C176.17 114.673 176.277 114.416 176.492 114.22C176.716 114.015 177.015 113.912 177.388 113.912C177.771 113.912 178.069 114.01 178.284 114.206C178.499 114.393 178.606 114.654 178.606 114.99C178.606 115.307 178.494 115.569 178.27 115.774C178.055 115.979 177.761 116.082 177.388 116.082ZM180.533 125V114.64H182.521V125H180.533ZM187.916 125.14C187.114 125.14 186.409 124.977 185.802 124.65C185.205 124.323 184.738 123.875 184.402 123.306C184.076 122.737 183.912 122.083 183.912 121.346C183.912 120.767 184.006 120.24 184.192 119.764C184.379 119.288 184.64 118.877 184.976 118.532C185.312 118.177 185.709 117.907 186.166 117.72C186.633 117.524 187.137 117.426 187.678 117.426C188.182 117.426 188.649 117.519 189.078 117.706C189.508 117.893 189.876 118.154 190.184 118.49C190.502 118.817 190.744 119.209 190.912 119.666C191.08 120.114 191.155 120.599 191.136 121.122L191.122 121.738H185.172L184.85 120.52H189.484L189.26 120.772V120.464C189.242 120.212 189.158 119.988 189.008 119.792C188.868 119.587 188.686 119.428 188.462 119.316C188.238 119.195 187.986 119.134 187.706 119.134C187.296 119.134 186.946 119.213 186.656 119.372C186.376 119.531 186.162 119.764 186.012 120.072C185.863 120.38 185.788 120.753 185.788 121.192C185.788 121.64 185.882 122.027 186.068 122.354C186.264 122.681 186.535 122.937 186.88 123.124C187.235 123.301 187.65 123.39 188.126 123.39C188.453 123.39 188.752 123.339 189.022 123.236C189.293 123.133 189.582 122.956 189.89 122.704L190.842 124.034C190.572 124.277 190.273 124.482 189.946 124.65C189.62 124.809 189.284 124.93 188.938 125.014C188.593 125.098 188.252 125.14 187.916 125.14Z" fill="black"/>
<rect x="29.5" y="98.5" width="182" height="43" rx="21.5" stroke="url(#paint12_linear_568_13459)"/>
<rect x="629.5" y="30.5" width="106" height="43" rx="21.5" fill="#E8ECEF"/>
<g clip-path="url(#clip5_568_13459)">
<path fill-rule="evenodd" clip-rule="evenodd" d="M658.581 45.3327C656.374 45.3327 654.613 47.3167 654.853 49.4987C654.9 49.9199 654.627 50.3058 654.221 50.4073C653.135 50.6793 652.331 51.6631 652.331 52.8327C652.331 54.2134 653.45 55.3327 654.831 55.3327H655.664C656.124 55.3327 656.497 55.7058 656.497 56.166C656.497 56.6263 656.124 56.9993 655.664 56.9993H654.831C652.53 56.9993 650.664 55.1338 650.664 52.8327C650.664 51.1232 651.693 49.6556 653.165 49.0128C653.202 46.0535 655.613 43.666 658.581 43.666C660.902 43.666 662.881 45.1256 663.652 47.176C665.772 47.7557 667.331 49.6949 667.331 51.9993C667.331 54.7608 665.092 56.9993 662.331 56.9993C661.87 56.9993 661.497 56.6263 661.497 56.166C661.497 55.7058 661.87 55.3327 662.331 55.3327C664.172 55.3327 665.664 53.8403 665.664 51.9993C665.664 50.3448 664.458 48.9704 662.877 48.7104C662.552 48.657 662.287 48.4187 662.201 48.0998C661.769 46.5049 660.311 45.3327 658.581 45.3327ZM659.831 52.3462L660.909 53.4224C661.234 53.7476 661.762 53.7472 662.087 53.4215C662.412 53.0958 662.412 52.5682 662.086 52.2429L659.733 49.8939C659.327 49.4878 658.668 49.4878 658.261 49.8939L655.909 52.2429C655.583 52.5682 655.582 53.0958 655.908 53.4215C656.233 53.7472 656.76 53.7476 657.086 53.4224L658.164 52.3462V59.4993C658.164 59.9596 658.537 60.3327 658.997 60.3327C659.458 60.3327 659.831 59.9596 659.831 59.4993V52.3462Z" fill="black"/>
</g>
<path d="M681.214 57.14C680.505 57.14 679.87 56.972 679.31 56.636C678.75 56.3 678.307 55.8427 677.98 55.264C677.663 54.6853 677.504 54.0273 677.504 53.29C677.504 52.5527 677.663 51.8947 677.98 51.316C678.307 50.7373 678.75 50.28 679.31 49.944C679.87 49.608 680.505 49.44 681.214 49.44C681.877 49.44 682.483 49.5613 683.034 49.804C683.585 50.0467 684.014 50.3827 684.322 50.812L683.23 52.128C683.099 51.9507 682.936 51.792 682.74 51.652C682.544 51.5027 682.329 51.386 682.096 51.302C681.872 51.218 681.639 51.176 681.396 51.176C681.013 51.176 680.673 51.2693 680.374 51.456C680.085 51.6333 679.856 51.8807 679.688 52.198C679.52 52.5153 679.436 52.8793 679.436 53.29C679.436 53.682 679.52 54.0367 679.688 54.354C679.865 54.6713 680.103 54.9233 680.402 55.11C680.701 55.2967 681.037 55.39 681.41 55.39C681.653 55.39 681.881 55.3573 682.096 55.292C682.311 55.2267 682.511 55.124 682.698 54.984C682.894 54.844 683.071 54.676 683.23 54.48L684.308 55.796C684 56.1973 683.561 56.524 682.992 56.776C682.432 57.0187 681.839 57.14 681.214 57.14ZM685.596 57V46.64H687.584V57H685.596ZM692.909 57.14C692.153 57.14 691.476 56.9767 690.879 56.65C690.291 56.314 689.824 55.8567 689.479 55.278C689.143 54.6993 688.975 54.0367 688.975 53.29C688.975 52.5433 689.143 51.8807 689.479 51.302C689.824 50.7233 690.291 50.2707 690.879 49.944C691.476 49.608 692.153 49.44 692.909 49.44C693.655 49.44 694.323 49.608 694.911 49.944C695.508 50.2707 695.975 50.7233 696.311 51.302C696.647 51.8807 696.815 52.5433 696.815 53.29C696.815 54.0367 696.647 54.6993 696.311 55.278C695.975 55.8567 695.508 56.314 694.911 56.65C694.323 56.9767 693.655 57.14 692.909 57.14ZM692.909 55.404C693.273 55.404 693.599 55.3153 693.889 55.138C694.178 54.9513 694.402 54.6993 694.561 54.382C694.729 54.0553 694.808 53.6913 694.799 53.29C694.808 52.8793 694.729 52.5153 694.561 52.198C694.402 51.8713 694.178 51.6193 693.889 51.442C693.599 51.2553 693.273 51.162 692.909 51.162C692.535 51.162 692.204 51.2553 691.915 51.442C691.625 51.6287 691.397 51.8807 691.229 52.198C691.061 52.5153 690.981 52.8793 690.991 53.29C690.981 53.6913 691.061 54.0553 691.229 54.382C691.397 54.6993 691.625 54.9513 691.915 55.138C692.204 55.3153 692.535 55.404 692.909 55.404ZM700.872 57.14C700.331 57.14 699.864 57.0233 699.472 56.79C699.089 56.5473 698.791 56.2067 698.576 55.768C698.371 55.32 698.268 54.7833 698.268 54.158V49.594H700.256V53.836C700.256 54.172 700.312 54.466 700.424 54.718C700.536 54.9607 700.695 55.1473 700.9 55.278C701.105 55.4087 701.357 55.474 701.656 55.474C701.871 55.474 702.067 55.4413 702.244 55.376C702.431 55.3013 702.589 55.1987 702.72 55.068C702.86 54.9373 702.967 54.7833 703.042 54.606C703.117 54.4287 703.154 54.2373 703.154 54.032V49.594H705.142V57H703.252L703.182 55.474L703.546 55.306C703.434 55.6513 703.247 55.964 702.986 56.244C702.725 56.524 702.412 56.7433 702.048 56.902C701.684 57.0607 701.292 57.14 700.872 57.14ZM710.04 57.14C709.387 57.14 708.804 56.9767 708.29 56.65C707.786 56.314 707.385 55.8613 707.086 55.292C706.797 54.7133 706.652 54.046 706.652 53.29C706.652 52.5527 706.797 51.8947 707.086 51.316C707.385 50.728 707.786 50.2707 708.29 49.944C708.804 49.608 709.387 49.44 710.04 49.44C710.386 49.44 710.717 49.496 711.034 49.608C711.361 49.7107 711.65 49.8553 711.902 50.042C712.164 50.2287 712.374 50.4387 712.532 50.672C712.691 50.896 712.78 51.1293 712.798 51.372L712.294 51.47V46.64H714.296V57H712.406L712.322 55.292L712.714 55.334C712.696 55.5673 712.612 55.7913 712.462 56.006C712.313 56.2207 712.112 56.4167 711.86 56.594C711.618 56.762 711.338 56.8973 711.02 57C710.712 57.0933 710.386 57.14 710.04 57.14ZM710.488 55.488C710.862 55.488 711.188 55.3947 711.468 55.208C711.748 55.0213 711.968 54.7647 712.126 54.438C712.285 54.1113 712.364 53.7287 712.364 53.29C712.364 52.8607 712.285 52.4827 712.126 52.156C711.968 51.8293 711.748 51.5727 711.468 51.386C711.188 51.1993 710.862 51.106 710.488 51.106C710.115 51.106 709.788 51.1993 709.508 51.386C709.238 51.5727 709.023 51.8293 708.864 52.156C708.715 52.4827 708.64 52.8607 708.64 53.29C708.64 53.7287 708.715 54.1113 708.864 54.438C709.023 54.7647 709.238 55.0213 709.508 55.208C709.788 55.3947 710.115 55.488 710.488 55.488Z" fill="black"/>
<rect x="629.5" y="30.5" width="106" height="43" rx="21.5" stroke="url(#paint13_linear_568_13459)"/>
<rect x="629.5" y="166.5" width="99" height="43" rx="21.5" fill="#E8ECEF"/>
<g clip-path="url(#clip6_568_13459)">
<path d="M659 179.666C661.699 179.666 663.898 181.804 663.997 184.479L664 184.666H664.833C665.712 184.666 666.432 185.346 666.495 186.208L666.5 186.333V194.666C666.5 195.545 665.82 196.264 664.958 196.328L664.833 196.333H653.167C652.288 196.333 651.568 195.653 651.505 194.79L651.5 194.666V186.333C651.5 185.454 652.18 184.734 653.042 184.671L653.167 184.666H654C654 181.905 656.239 179.666 659 179.666ZM664.833 186.333H653.167V194.666H664.833V186.333ZM659 187.999C659.92 187.999 660.667 188.746 660.667 189.666C660.667 190.235 660.381 190.738 659.945 191.039L659.833 191.11V192.166C659.833 192.626 659.46 192.999 659 192.999C658.573 192.999 658.22 192.678 658.172 192.263L658.167 192.166V191.11C657.668 190.822 657.333 190.283 657.333 189.666C657.333 188.746 658.079 187.999 659 187.999ZM659 181.333C657.159 181.333 655.667 182.825 655.667 184.666H662.333C662.333 182.825 660.841 181.333 659 181.333Z" fill="black"/>
</g>
<path d="M682.572 193.14C681.853 193.14 681.191 193.019 680.584 192.776C679.987 192.524 679.464 192.174 679.016 191.726C678.577 191.269 678.237 190.732 677.994 190.116C677.751 189.491 677.63 188.809 677.63 188.072C677.63 187.353 677.756 186.691 678.008 186.084C678.26 185.468 678.615 184.936 679.072 184.488C679.529 184.031 680.066 183.676 680.682 183.424C681.298 183.172 681.965 183.046 682.684 183.046C683.151 183.046 683.608 183.111 684.056 183.242C684.513 183.363 684.929 183.545 685.302 183.788C685.685 184.031 686.011 184.32 686.282 184.656L684.966 186.112C684.751 185.888 684.523 185.697 684.28 185.538C684.037 185.37 683.781 185.244 683.51 185.16C683.249 185.067 682.969 185.02 682.67 185.02C682.269 185.02 681.891 185.095 681.536 185.244C681.191 185.393 680.887 185.603 680.626 185.874C680.365 186.135 680.155 186.457 679.996 186.84C679.847 187.213 679.772 187.629 679.772 188.086C679.772 188.553 679.847 188.977 679.996 189.36C680.145 189.733 680.355 190.055 680.626 190.326C680.897 190.587 681.219 190.793 681.592 190.942C681.975 191.082 682.395 191.152 682.852 191.152C683.151 191.152 683.44 191.11 683.72 191.026C684 190.942 684.257 190.825 684.49 190.676C684.733 190.527 684.947 190.354 685.134 190.158L686.17 191.796C685.937 192.048 685.629 192.277 685.246 192.482C684.873 192.687 684.453 192.851 683.986 192.972C683.519 193.084 683.048 193.14 682.572 193.14ZM687.926 193V183.2H692.266C692.873 183.2 693.424 183.34 693.918 183.62C694.413 183.891 694.8 184.259 695.08 184.726C695.37 185.193 695.514 185.725 695.514 186.322C695.514 186.91 695.37 187.447 695.08 187.932C694.8 188.408 694.413 188.786 693.918 189.066C693.424 189.346 692.873 189.486 692.266 189.486H689.956V193H687.926ZM693.484 193L690.992 188.576L693.148 188.226L695.92 193.014L693.484 193ZM689.956 187.778H692.168C692.42 187.778 692.64 187.722 692.826 187.61C693.022 187.489 693.172 187.325 693.274 187.12C693.377 186.905 693.428 186.667 693.428 186.406C693.428 186.126 693.368 185.883 693.246 185.678C693.125 185.473 692.948 185.314 692.714 185.202C692.481 185.081 692.21 185.02 691.902 185.02H689.956V187.778ZM697.729 193V183.2H699.647L703.217 189.01L701.957 188.996L705.569 183.2H707.403V193H705.345V189.64C705.345 188.8 705.364 188.044 705.401 187.372C705.448 186.7 705.522 186.033 705.625 185.37L705.877 186.028L703.007 190.48H702.083L699.269 186.056L699.507 185.37C699.61 185.995 699.68 186.639 699.717 187.302C699.764 187.955 699.787 188.735 699.787 189.64V193H697.729Z" fill="black"/>
<rect x="629.5" y="166.5" width="99" height="43" rx="21.5" stroke="url(#paint14_linear_568_13459)"/>
<rect x="639.5" y="98.5" width="162" height="43" rx="21.5" fill="#E8ECEF"/>
<g clip-path="url(#clip7_568_13459)">
<path d="M662.333 113.334C662.761 113.334 663.113 113.656 663.161 114.07L663.167 114.167V125.001H675.667C676.127 125.001 676.5 125.374 676.5 125.834C676.5 126.261 676.178 126.614 675.764 126.662L675.667 126.667H662.333C661.906 126.667 661.554 126.346 661.506 125.931L661.5 125.834V114.167C661.5 113.707 661.873 113.334 662.333 113.334ZM675.828 115.682C676.578 115.682 676.953 116.589 676.423 117.119L671.782 121.76C671.424 122.118 670.844 122.118 670.486 121.76L668.188 119.462L665.241 122.408C664.916 122.734 664.388 122.734 664.063 122.408C663.737 122.083 663.737 121.555 664.063 121.23L667.54 117.753C667.898 117.395 668.478 117.395 668.836 117.753L671.134 120.051L673.836 117.349H673.491C673.031 117.349 672.658 116.976 672.658 116.516C672.658 116.056 673.031 115.682 673.491 115.682H675.828Z" fill="black"/>
</g>
<path d="M690.318 125L687.21 117.594H689.394L691.368 123.124L690.906 123.208L692.978 117.594H695.106L691.844 125H690.318ZM696.488 125V117.594H698.476V125H696.488ZM697.468 116.082C697.086 116.082 696.787 115.989 696.572 115.802C696.358 115.606 696.25 115.335 696.25 114.99C696.25 114.673 696.358 114.416 696.572 114.22C696.796 114.015 697.095 113.912 697.468 113.912C697.851 113.912 698.15 114.01 698.364 114.206C698.579 114.393 698.686 114.654 698.686 114.99C698.686 115.307 698.574 115.569 698.35 115.774C698.136 115.979 697.842 116.082 697.468 116.082ZM700.599 125V117.594H702.517L702.587 119.974L702.251 119.484C702.363 119.101 702.545 118.756 702.797 118.448C703.049 118.131 703.343 117.883 703.679 117.706C704.025 117.529 704.384 117.44 704.757 117.44C704.916 117.44 705.07 117.454 705.219 117.482C705.369 117.51 705.495 117.543 705.597 117.58L705.065 119.764C704.963 119.708 704.827 119.661 704.659 119.624C704.501 119.577 704.337 119.554 704.169 119.554C703.945 119.554 703.735 119.596 703.539 119.68C703.353 119.755 703.189 119.867 703.049 120.016C702.909 120.156 702.797 120.324 702.713 120.52C702.639 120.716 702.601 120.931 702.601 121.164V125H700.599ZM707.726 125V115.718H709.714V125H707.726ZM706.34 119.372V117.594H711.24V119.372H706.34ZM715.069 125.14C714.528 125.14 714.061 125.023 713.669 124.79C713.287 124.547 712.988 124.207 712.773 123.768C712.568 123.32 712.465 122.783 712.465 122.158V117.594H714.453V121.836C714.453 122.172 714.509 122.466 714.621 122.718C714.733 122.961 714.892 123.147 715.097 123.278C715.303 123.409 715.555 123.474 715.853 123.474C716.068 123.474 716.264 123.441 716.441 123.376C716.628 123.301 716.787 123.199 716.917 123.068C717.057 122.937 717.165 122.783 717.239 122.606C717.314 122.429 717.351 122.237 717.351 122.032V117.594H719.339V125H717.449L717.379 123.474L717.743 123.306C717.631 123.651 717.445 123.964 717.183 124.244C716.922 124.524 716.609 124.743 716.245 124.902C715.881 125.061 715.489 125.14 715.069 125.14ZM724.112 125.14C723.496 125.14 722.94 124.972 722.446 124.636C721.951 124.3 721.559 123.843 721.27 123.264C720.98 122.685 720.836 122.023 720.836 121.276C720.836 120.529 720.98 119.867 721.27 119.288C721.568 118.709 721.97 118.257 722.474 117.93C722.978 117.603 723.552 117.44 724.196 117.44C724.56 117.44 724.891 117.496 725.19 117.608C725.498 117.711 725.764 117.855 725.988 118.042C726.221 118.229 726.417 118.443 726.576 118.686C726.734 118.929 726.846 119.19 726.912 119.47L726.492 119.4V117.594H728.466V125H726.464V123.222L726.912 123.18C726.837 123.441 726.716 123.689 726.548 123.922C726.38 124.155 726.17 124.365 725.918 124.552C725.675 124.729 725.4 124.874 725.092 124.986C724.784 125.089 724.457 125.14 724.112 125.14ZM724.658 123.418C725.031 123.418 725.358 123.329 725.638 123.152C725.918 122.975 726.132 122.727 726.282 122.41C726.44 122.083 726.52 121.705 726.52 121.276C726.52 120.856 726.44 120.487 726.282 120.17C726.132 119.853 725.918 119.605 725.638 119.428C725.358 119.241 725.031 119.148 724.658 119.148C724.294 119.148 723.972 119.241 723.692 119.428C723.421 119.605 723.206 119.853 723.048 120.17C722.889 120.487 722.81 120.856 722.81 121.276C722.81 121.705 722.889 122.083 723.048 122.41C723.206 122.727 723.421 122.975 723.692 123.152C723.972 123.329 724.294 123.418 724.658 123.418ZM730.473 125V114.64H732.461V125H730.473ZM734.646 125V117.594H736.634V125H734.646ZM735.626 116.082C735.244 116.082 734.945 115.989 734.73 115.802C734.516 115.606 734.408 115.335 734.408 114.99C734.408 114.673 734.516 114.416 734.73 114.22C734.954 114.015 735.253 113.912 735.626 113.912C736.009 113.912 736.308 114.01 736.522 114.206C736.737 114.393 736.844 114.654 736.844 114.99C736.844 115.307 736.732 115.569 736.508 115.774C736.294 115.979 736 116.082 735.626 116.082ZM741.25 125.14C740.559 125.14 739.943 125.028 739.402 124.804C738.87 124.571 738.44 124.253 738.114 123.852L739.36 122.788C739.64 123.096 739.957 123.32 740.312 123.46C740.666 123.591 741.021 123.656 741.376 123.656C741.516 123.656 741.642 123.642 741.754 123.614C741.875 123.577 741.978 123.53 742.062 123.474C742.146 123.409 742.206 123.334 742.244 123.25C742.29 123.157 742.314 123.059 742.314 122.956C742.314 122.751 742.23 122.592 742.062 122.48C741.968 122.424 741.824 122.363 741.628 122.298C741.432 122.223 741.18 122.144 740.872 122.06C740.396 121.939 739.99 121.799 739.654 121.64C739.327 121.472 739.066 121.285 738.87 121.08C738.702 120.884 738.571 120.674 738.478 120.45C738.394 120.217 738.352 119.96 738.352 119.68C738.352 119.344 738.426 119.041 738.576 118.77C738.725 118.49 738.93 118.252 739.192 118.056C739.462 117.86 739.77 117.711 740.116 117.608C740.461 117.496 740.825 117.44 741.208 117.44C741.59 117.44 741.964 117.487 742.328 117.58C742.692 117.673 743.028 117.809 743.336 117.986C743.653 118.154 743.928 118.355 744.162 118.588L743.098 119.764C742.93 119.605 742.738 119.461 742.524 119.33C742.318 119.199 742.104 119.097 741.88 119.022C741.656 118.947 741.455 118.91 741.278 118.91C741.119 118.91 740.974 118.924 740.844 118.952C740.722 118.98 740.62 119.027 740.536 119.092C740.452 119.148 740.386 119.218 740.34 119.302C740.302 119.386 740.284 119.479 740.284 119.582C740.284 119.685 740.307 119.783 740.354 119.876C740.41 119.969 740.484 120.049 740.578 120.114C740.68 120.17 740.83 120.235 741.026 120.31C741.231 120.385 741.506 120.469 741.852 120.562C742.3 120.683 742.678 120.819 742.986 120.968C743.303 121.117 743.555 121.29 743.742 121.486C743.9 121.654 744.017 121.845 744.092 122.06C744.166 122.275 744.204 122.513 744.204 122.774C744.204 123.231 744.073 123.637 743.812 123.992C743.56 124.347 743.21 124.627 742.762 124.832C742.314 125.037 741.81 125.14 741.25 125.14ZM748.393 125.14C747.777 125.14 747.222 124.972 746.727 124.636C746.232 124.3 745.84 123.843 745.551 123.264C745.262 122.685 745.117 122.023 745.117 121.276C745.117 120.529 745.262 119.867 745.551 119.288C745.85 118.709 746.251 118.257 746.755 117.93C747.259 117.603 747.833 117.44 748.477 117.44C748.841 117.44 749.172 117.496 749.471 117.608C749.779 117.711 750.045 117.855 750.269 118.042C750.502 118.229 750.698 118.443 750.857 118.686C751.016 118.929 751.128 119.19 751.193 119.47L750.773 119.4V117.594H752.747V125H750.745V123.222L751.193 123.18C751.118 123.441 750.997 123.689 750.829 123.922C750.661 124.155 750.451 124.365 750.199 124.552C749.956 124.729 749.681 124.874 749.373 124.986C749.065 125.089 748.738 125.14 748.393 125.14ZM748.939 123.418C749.312 123.418 749.639 123.329 749.919 123.152C750.199 122.975 750.414 122.727 750.563 122.41C750.722 122.083 750.801 121.705 750.801 121.276C750.801 120.856 750.722 120.487 750.563 120.17C750.414 119.853 750.199 119.605 749.919 119.428C749.639 119.241 749.312 119.148 748.939 119.148C748.575 119.148 748.253 119.241 747.973 119.428C747.702 119.605 747.488 119.853 747.329 120.17C747.17 120.487 747.091 120.856 747.091 121.276C747.091 121.705 747.17 122.083 747.329 122.41C747.488 122.727 747.702 122.975 747.973 123.152C748.253 123.329 748.575 123.418 748.939 123.418ZM755.454 125V115.718H757.442V125H755.454ZM754.068 119.372V117.594H758.968V119.372H754.068ZM760.418 125V117.594H762.406V125H760.418ZM761.398 116.082C761.015 116.082 760.717 115.989 760.502 115.802C760.287 115.606 760.18 115.335 760.18 114.99C760.18 114.673 760.287 114.416 760.502 114.22C760.726 114.015 761.025 113.912 761.398 113.912C761.781 113.912 762.079 114.01 762.294 114.206C762.509 114.393 762.616 114.654 762.616 114.99C762.616 115.307 762.504 115.569 762.28 115.774C762.065 115.979 761.771 116.082 761.398 116.082ZM767.973 125.14C767.217 125.14 766.54 124.977 765.943 124.65C765.355 124.314 764.888 123.857 764.543 123.278C764.207 122.699 764.039 122.037 764.039 121.29C764.039 120.543 764.207 119.881 764.543 119.302C764.888 118.723 765.355 118.271 765.943 117.944C766.54 117.608 767.217 117.44 767.973 117.44C768.72 117.44 769.387 117.608 769.975 117.944C770.572 118.271 771.039 118.723 771.375 119.302C771.711 119.881 771.879 120.543 771.879 121.29C771.879 122.037 771.711 122.699 771.375 123.278C771.039 123.857 770.572 124.314 769.975 124.65C769.387 124.977 768.72 125.14 767.973 125.14ZM767.973 123.404C768.337 123.404 768.664 123.315 768.953 123.138C769.242 122.951 769.466 122.699 769.625 122.382C769.793 122.055 769.872 121.691 769.863 121.29C769.872 120.879 769.793 120.515 769.625 120.198C769.466 119.871 769.242 119.619 768.953 119.442C768.664 119.255 768.337 119.162 767.973 119.162C767.6 119.162 767.268 119.255 766.979 119.442C766.69 119.629 766.461 119.881 766.293 120.198C766.125 120.515 766.046 120.879 766.055 121.29C766.046 121.691 766.125 122.055 766.293 122.382C766.461 122.699 766.69 122.951 766.979 123.138C767.268 123.315 767.6 123.404 767.973 123.404ZM773.389 125V117.594H775.293L775.349 119.106L774.957 119.274C775.059 118.938 775.241 118.635 775.503 118.364C775.773 118.084 776.095 117.86 776.469 117.692C776.842 117.524 777.234 117.44 777.645 117.44C778.205 117.44 778.671 117.552 779.045 117.776C779.427 118 779.712 118.341 779.899 118.798C780.095 119.246 780.193 119.801 780.193 120.464V125H778.205V120.618C778.205 120.282 778.158 120.002 778.065 119.778C777.971 119.554 777.827 119.391 777.631 119.288C777.444 119.185 777.211 119.139 776.931 119.148C776.707 119.148 776.497 119.185 776.301 119.26C776.114 119.325 775.951 119.423 775.811 119.554C775.68 119.685 775.573 119.834 775.489 120.002C775.414 120.17 775.377 120.352 775.377 120.548V125H774.397C774.182 125 773.991 125 773.823 125C773.655 125 773.51 125 773.389 125Z" fill="black"/>
<rect x="639.5" y="98.5" width="162" height="43" rx="21.5" stroke="url(#paint15_linear_568_13459)"/>
</g>
<rect x="1" y="0.5" width="822" height="239" rx="31.5" stroke="url(#paint16_linear_568_13459)"/>
<defs>
<filter id="filter0_d_568_13459" x="352" y="60" width="120" height="120" filterUnits="userSpaceOnUse" color-interpolation-filters="sRGB">
<feFlood flood-opacity="0" result="BackgroundImageFix"/>
<feColorMatrix in="SourceAlpha" type="matrix" values="0 0 0 0 0 0 0 0 0 0 0 0 0 0 0 0 0 0 127 0" result="hardAlpha"/>
<feOffset/>
<feGaussianBlur stdDeviation="16"/>
<feComposite in2="hardAlpha" operator="out"/>
<feColorMatrix type="matrix" values="0 0 0 0 0.768627 0 0 0 0 0.780392 0 0 0 0 0.780392 0 0 0 1 0"/>
<feBlend mode="normal" in2="BackgroundImageFix" result="effect1_dropShadow_568_13459"/>
<feBlend mode="normal" in="SourceGraphic" in2="effect1_dropShadow_568_13459" result="shape"/>
</filter>
<linearGradient id="paint0_linear_568_13459" x1="412" y1="0" x2="412" y2="240" gradientUnits="userSpaceOnUse">
<stop stop-color="white" stop-opacity="0.9"/>
<stop offset="1" stop-color="#EDF1F2" stop-opacity="0.07"/>
</linearGradient>
<linearGradient id="paint1_linear_568_13459" x1="712" y1="270" x2="712" y2="570" gradientUnits="userSpaceOnUse">
<stop offset="0.203125" stop-color="#EBFAFC"/>
<stop offset="1" stop-color="#EBFAFC"/>
</linearGradient>
<linearGradient id="paint2_linear_568_13459" x1="712" y1="270" x2="794.803" y2="545.075" gradientUnits="userSpaceOnUse">
<stop stop-color="#A5E2EC"/>
<stop offset="1" stop-color="#C4D2D6"/>
</linearGradient>
<linearGradient id="paint3_linear_568_13459" x1="912" y1="370" x2="912" y2="870" gradientUnits="userSpaceOnUse">
<stop offset="0.203125" stop-color="#EBFAFC"/>
<stop offset="1" stop-color="#EBFAFC"/>
</linearGradient>
<linearGradient id="paint4_linear_568_13459" x1="912" y1="370" x2="1050.56" y2="828.09" gradientUnits="userSpaceOnUse">
<stop stop-color="#A5E2EC"/>
<stop offset="1" stop-color="#C4D2D6"/>
</linearGradient>
<linearGradient id="paint5_linear_568_13459" x1="383.391" y1="120.001" x2="184" y2="120" gradientUnits="userSpaceOnUse">
<stop stop-color="#A5E2EC"/>
<stop offset="1" stop-color="#E9E9E9"/>
</linearGradient>
<linearGradient id="paint6_linear_568_13459" x1="441.568" y1="119.999" x2="561" y2="120" gradientUnits="userSpaceOnUse">
<stop stop-color="#A6E2EC"/>
<stop offset="1" stop-color="#E9E9E9"/>
</linearGradient>
<linearGradient id="paint7_linear_568_13459" x1="560.053" y1="119.999" x2="639" y2="119.999" gradientUnits="userSpaceOnUse">
<stop stop-color="#A6E2EC"/>
<stop offset="1" stop-color="#E9E9E9"/>
</linearGradient>
<linearGradient id="paint8_linear_568_13459" x1="561" y1="120" x2="631.949" y2="44.9498" gradientUnits="userSpaceOnUse">
<stop stop-color="#A5E3ED"/>
<stop offset="1" stop-color="#DCE3E5"/>
</linearGradient>
<linearGradient id="paint9_linear_568_13459" x1="561" y1="120" x2="631.949" y2="195.05" gradientUnits="userSpaceOnUse">
<stop stop-color="#A5E3ED"/>
<stop offset="1" stop-color="#DCE3E5"/>
</linearGradient>
<linearGradient id="paint10_linear_568_13459" x1="223" y1="52" x2="126" y2="52" gradientUnits="userSpaceOnUse">
<stop stop-color="#00C3D7"/>
<stop offset="1" stop-color="#E8ECEF"/>
</linearGradient>
<linearGradient id="paint11_linear_568_13459" x1="223" y1="188" x2="67" y2="188" gradientUnits="userSpaceOnUse">
<stop stop-color="#00C3D7"/>
<stop offset="1" stop-color="#E8ECEF"/>
</linearGradient>
<linearGradient id="paint12_linear_568_13459" x1="212" y1="120" x2="29" y2="120" gradientUnits="userSpaceOnUse">
<stop stop-color="#00C3D7"/>
<stop offset="1" stop-color="#E8ECEF"/>
</linearGradient>
<linearGradient id="paint13_linear_568_13459" x1="629" y1="52" x2="736" y2="52" gradientUnits="userSpaceOnUse">
<stop stop-color="#00C3D7"/>
<stop offset="1" stop-color="#E8ECEF"/>
</linearGradient>
<linearGradient id="paint14_linear_568_13459" x1="629" y1="188" x2="729" y2="188" gradientUnits="userSpaceOnUse">
<stop stop-color="#00C3D7"/>
<stop offset="1" stop-color="#E8ECEF"/>
</linearGradient>
<linearGradient id="paint15_linear_568_13459" x1="639" y1="120" x2="802" y2="120" gradientUnits="userSpaceOnUse">
<stop stop-color="#00C3D7"/>
<stop offset="1" stop-color="#E8ECEF"/>
</linearGradient>
<linearGradient id="paint16_linear_568_13459" x1="412" y1="0" x2="412" y2="243.2" gradientUnits="userSpaceOnUse">
<stop offset="0.0104167" stop-color="#DBE3E5"/>
<stop offset="0.2345" stop-color="#E1E1E1" stop-opacity="0.29"/>
<stop offset="1" stop-color="#DAE2E4"/>
</linearGradient>
<clipPath id="clip0_568_13459">
<rect x="0.5" width="823" height="240" rx="32" fill="white"/>
</clipPath>
<clipPath id="clip1_568_13459">
<rect width="24" height="24" fill="white" transform="translate(400 108)"/>
</clipPath>
<clipPath id="clip2_568_13459">
<rect width="20" height="20" fill="white" transform="translate(146 42)"/>
</clipPath>
<clipPath id="clip3_568_13459">
<rect width="20" height="20" fill="white" transform="translate(87 178)"/>
</clipPath>
<clipPath id="clip4_568_13459">
<rect width="20" height="20" fill="white" transform="translate(49 110)"/>
</clipPath>
<clipPath id="clip5_568_13459">
<rect width="20" height="20" fill="white" transform="translate(649 42)"/>
</clipPath>
<clipPath id="clip6_568_13459">
<rect width="20" height="20" fill="white" transform="translate(649 178)"/>
</clipPath>
<clipPath id="clip7_568_13459">
<rect width="20" height="20" fill="white" transform="translate(659 110)"/>
</clipPath>
</defs>
</svg>
