<svg width="392" height="499" viewBox="0 0 392 499" fill="none" xmlns="http://www.w3.org/2000/svg">
<g clip-path="url(#clip0_637_11292)">
<rect x="1" width="391" height="145" fill="#FF6E41"/>
<rect x="0.5" y="145" width="391" height="355" fill="white"/>
<g clip-path="url(#clip1_637_11292)">
<path fill-rule="evenodd" clip-rule="evenodd" d="M294.513 411.829V402.436C290.374 402.019 287.18 402.497 287.18 394.538C287.18 385.883 290.96 371.141 295.627 371.141C300.294 371.141 304.072 385.883 304.072 394.538C304.072 402.497 300.878 402.019 296.739 402.436V411.829H294.51H294.513Z" fill="#FF6E41" stroke="#090203" stroke-miterlimit="10"/>
<path fill-rule="evenodd" clip-rule="evenodd" d="M135.166 123.099C135.166 114.464 131.393 99.7598 126.741 99.7598C122.09 99.7598 118.316 114.464 118.316 123.099C118.316 131.035 121.504 130.56 125.631 130.977V145.353H127.851V130.977C131.979 130.56 135.166 131.035 135.166 123.099Z" stroke="#090203" stroke-miterlimit="10"/>
<path fill-rule="evenodd" clip-rule="evenodd" d="M194.016 225.132C194.016 233.068 190.829 232.593 186.701 233.01V243.907L184.481 244.732V233.01C180.351 232.593 177.164 233.068 177.164 225.132C177.164 216.497 180.937 201.793 185.591 201.793C190.245 201.793 194.016 216.497 194.016 225.132Z" stroke="#090203" stroke-miterlimit="10"/>
<path fill-rule="evenodd" clip-rule="evenodd" d="M288.432 152.526V133.58C292.562 133.166 295.747 133.641 295.747 125.703C295.747 117.067 291.976 102.363 287.322 102.363C282.668 102.363 278.895 117.067 278.895 125.703C278.895 133.641 282.082 133.166 286.212 133.58V151.607" fill="white"/>
<path d="M288.432 152.526V133.58C292.562 133.166 295.747 133.641 295.747 125.703C295.747 117.067 291.976 102.363 287.322 102.363C282.668 102.363 278.895 117.067 278.895 125.703C278.895 133.641 282.082 133.166 286.212 133.58V151.607" stroke="#090203" stroke-miterlimit="10"/>
<path fill-rule="evenodd" clip-rule="evenodd" d="M115.195 129.462C115.195 123.443 112.565 113.572 109.322 113.572C106.079 113.572 103.449 123.443 103.449 129.462C103.449 134.995 105.671 135.042 108.549 135.331V145.352H110.098V135.331C112.975 135.042 115.197 134.995 115.197 129.462H115.195Z" stroke="#090203" stroke-miterlimit="10"/>
<path fill-rule="evenodd" clip-rule="evenodd" d="M269.861 146.872V135.331C272.739 135.042 274.961 134.995 274.961 129.462C274.961 123.443 272.331 113.572 269.088 113.572C265.845 113.572 263.215 123.443 263.215 129.462C263.215 134.995 265.435 135.042 268.312 135.331V146.598" fill="white"/>
<path d="M269.861 146.872V135.331C272.739 135.042 274.961 134.995 274.961 129.462C274.961 123.443 272.331 113.572 269.088 113.572C265.845 113.572 263.215 123.443 263.215 129.462C263.215 134.995 265.435 135.042 268.312 135.331V146.598" stroke="#090203" stroke-miterlimit="10"/>
<path d="M83.2539 163.945H93.5289" stroke="#090203" stroke-miterlimit="10"/>
<path d="M114.408 163.945H253.417C292.201 163.945 323.799 195.682 323.85 234.692C323.864 244.197 321.991 253.451 318.285 262.194C314.734 270.57 309.664 278.111 303.213 284.608C296.694 291.174 289.1 296.339 280.644 299.96C271.856 303.721 262.561 305.629 253.015 305.629H190.405L135.932 306.47C127.264 306.604 118.839 308.333 110.886 311.61C102.916 314.897 95.7816 319.591 89.6813 325.568C89.4517 325.792 89.2288 326.014 89.0059 326.238C75.7889 339.53 68.5117 357.202 68.5117 375.999C68.5117 394.797 75.7332 412.332 88.8477 425.603C95.3916 432.223 103.101 437.398 111.767 440.982C120.415 444.558 129.573 446.371 138.988 446.371H310.39" stroke="#090203" stroke-miterlimit="10"/>
<path d="M320.828 446.375H331.105" stroke="#090203" stroke-miterlimit="10"/>
<path d="M331.106 465.44H138.989C115.16 465.44 92.2053 456.047 75.4065 439.048C58.7347 422.178 49.5586 399.801 49.5586 376.004C49.5586 352.207 58.8083 329.655 75.6026 312.763C75.8857 312.478 76.171 312.196 76.4563 311.915C92.29 296.402 113.54 287.751 135.641 287.41L190.259 286.567H253.016C281.369 286.567 304.937 263.235 304.899 234.719C304.861 206.201 281.782 183.01 253.42 183.01H83.2542" stroke="#090203" stroke-miterlimit="10"/>
<path d="M60.7891 145.354H253.417C277.167 145.354 299.498 154.655 316.292 171.547C317.151 172.41 317.989 173.289 318.807 174.181L318.811 174.185L322.714 178.729C335.429 194.568 342.337 214.145 342.337 234.788C342.337 258.679 333.087 281.137 316.292 298.029C299.498 314.923 277.167 324.224 253.417 324.224H138.475C110.091 324.224 86.998 347.454 86.998 376.003C86.998 404.552 110.091 427.782 138.475 427.782H224.275" stroke="#090203" stroke-miterlimit="10"/>
<path d="M171.656 340.496L175.341 344.202L180.743 338.768" stroke="#090203" stroke-miterlimit="10"/>
<path d="M102.805 197.8L106.774 201.791L112.596 195.938" stroke="#090203" stroke-miterlimit="10" stroke-linecap="round"/>
<path d="M124.637 208.236L128.606 212.229L134.428 206.373" stroke="#090203" stroke-miterlimit="10" stroke-linecap="round"/>
<path d="M285.957 68.236L289.927 72.2264L295.746 66.373" stroke="#090203" stroke-miterlimit="10" stroke-linecap="round"/>
<path d="M129.372 375.668V363.61L105.035 352.051L89.418 359.469" stroke="#090203" stroke-miterlimit="10"/>
<path d="M140.625 96.0781H133.831L130.448 89.0859H108.866L103.229 102.707H89.1363V97.8738L88.9937 97.6563C85.8065 92.7602 78.634 92.8768 75.6073 97.8738V112.087H67.7773V145.351" stroke="#090203" stroke-miterlimit="10"/>
<path d="M232.699 86.4001V76.5765C232.699 74.3325 233.727 72.2162 235.488 70.8375C238.102 68.7885 241.766 68.7885 244.381 70.8375C246.139 72.2162 247.169 74.3347 247.169 76.5765V95.1341H260.35L265.987 88.7091H287.943L297.527 102.317H307.299V163.626" stroke="#090203" stroke-miterlimit="10"/>
<path d="M104.847 120.308L99.7224 115.154H83.4853L75.8203 122.864V145.351" stroke="#090203" stroke-miterlimit="10"/>
<path d="M175.104 50.3281V63.5054H149.869L140.57 77.344V145.351V145.353H241.985V89.2637L217.439 81.6954V63.5054H208.699V50.3281H175.104Z" stroke="#090203" stroke-miterlimit="10"/>
<path d="M64.543 326.269L74.3811 303.902C91.2824 265.482 132.801 244.41 173.569 253.561L281.924 277.884" stroke="#090203" stroke-miterlimit="10"/>
<path d="M164.785 252.051L195.483 240.645C217.098 232.613 240.481 230.653 263.12 234.975L304.275 242.833" stroke="#090203" stroke-miterlimit="10"/>
<path d="M150.175 251.542C126.284 252.721 103.855 263.742 88.2417 281.885C86.4943 281.427 84.9742 280.181 84.2276 278.372C83.0084 275.408 84.3234 272.028 87.1674 270.658C84.0225 270.481 81.5195 267.885 81.5195 264.677C81.5195 261.469 84.0225 258.873 87.1674 258.698C84.3234 257.326 83.0084 253.947 84.2276 250.982C85.449 248.016 88.7566 246.563 91.7299 247.617C89.6303 245.256 89.686 241.64 91.9416 239.371C94.1972 237.105 97.7923 237.049 100.139 239.161C99.0917 236.168 100.536 232.843 103.485 231.615C106.434 230.386 109.792 231.711 111.156 234.569C111.33 231.406 113.914 228.889 117.101 228.889C120.288 228.889 122.871 231.406 123.047 234.569C124.409 231.711 127.768 230.386 130.717 231.615C133.666 232.843 135.11 236.168 134.062 239.161C136.411 237.049 140.007 237.105 142.26 239.371C144.516 241.64 144.571 245.256 142.472 247.617C145.445 246.563 148.753 248.016 149.974 250.982C150.05 251.168 150.117 251.354 150.175 251.542Z" stroke="#090203" stroke-linecap="round" stroke-linejoin="round"/>
<path d="M199.766 239.142V218.715L213.321 206.764L226.877 218.715V233.367" stroke="#090203" stroke-linecap="round" stroke-linejoin="round"/>
<path d="M274.379 218.715H226.876L213.32 206.764H260.824L274.379 218.715ZM274.379 218.715V237.127" stroke="#090203" stroke-linecap="round" stroke-linejoin="round"/>
<path fill-rule="evenodd" clip-rule="evenodd" d="M278.875 237.985V229.08C282.374 228.728 285.075 229.13 285.075 222.404C285.075 215.085 281.879 202.625 277.934 202.625C273.989 202.625 270.793 215.087 270.793 222.404C270.793 229.13 273.494 228.728 276.994 229.08V237.626L278.875 237.985Z" fill="#FF6E41" stroke="#090203" stroke-miterlimit="10"/>
<path fill-rule="evenodd" clip-rule="evenodd" d="M322.714 158.871V178.728C321.47 177.177 320.168 175.662 318.811 174.184L318.807 174.18V158.871C302.01 157.31 294.847 141.207 301.602 135.717C303.031 134.556 303.519 132.599 302.757 130.92C301.558 128.277 301.954 124.833 303.951 123.02C305.204 121.879 305.69 120.112 305.093 118.52C303.998 115.593 304.304 111.887 307.063 110.661C308.69 109.937 309.633 108.179 309.396 106.406C308.966 103.146 310.527 100.967 312.401 100.068C313.892 99.3531 314.822 97.8354 314.748 96.1765C314.574 92.3766 316.404 88.8749 320.623 88.7001C320.67 88.6934 320.715 88.6956 320.761 88.6956C320.808 88.6956 320.851 88.6934 320.897 88.6934C325.117 88.8749 326.946 92.3766 326.775 96.1765C326.699 97.8354 327.631 99.3531 329.12 100.068C330.996 100.967 332.556 103.146 332.124 106.406C331.89 108.179 332.831 109.937 334.46 110.661C337.219 111.887 337.524 115.593 336.428 118.52C335.833 120.112 336.316 121.879 337.571 123.02C339.566 124.833 339.965 128.277 338.766 130.92C338.001 132.599 338.49 134.556 339.918 135.717C346.676 141.207 339.51 157.31 322.714 158.871Z" fill="white" stroke="#090203" stroke-miterlimit="10"/>
<path d="M142.861 372.315V363.621C146.991 363.207 150.177 363.682 150.177 355.744C150.177 347.108 146.405 332.404 141.751 332.404C137.098 332.404 133.324 347.108 133.324 355.744C133.324 363.682 136.511 363.207 140.642 363.621V372.58" stroke="#090203" stroke-miterlimit="10"/>
<path d="M87.8008 385.141L137.754 373.233C150.587 370.175 164.107 372.768 174.917 380.364L201.291 398.892" stroke="#090203" stroke-miterlimit="10"/>
<path fill-rule="evenodd" clip-rule="evenodd" d="M264.302 392.839C261.55 392.469 258.842 391.765 256.241 390.734L242.859 385.432C239.444 384.078 235.925 383.311 232.423 383.087C231.984 380.386 232.648 377.922 234.534 376.389C235.804 375.357 236.239 373.618 235.561 372.127C234.496 369.778 234.848 366.718 236.622 365.106C237.734 364.092 238.167 362.521 237.636 361.106C236.665 358.506 236.934 355.213 239.388 354.123C240.833 353.48 241.671 351.917 241.461 350.341C241.078 347.445 242.466 345.508 244.131 344.71C245.455 344.073 246.282 342.726 246.217 341.251C246.061 337.875 247.688 334.763 251.437 334.606C251.48 334.602 251.52 334.604 251.56 334.604C251.6 334.604 251.64 334.602 251.68 334.602C255.431 334.763 257.056 337.875 256.905 341.251C256.838 342.726 257.665 344.073 258.989 344.71C260.656 345.508 262.042 347.445 261.659 350.341C261.449 351.917 262.285 353.48 263.734 354.123C266.186 355.213 266.458 358.506 265.484 361.106C264.953 362.521 265.383 364.092 266.5 365.106C268.272 366.718 268.626 369.778 267.561 372.127C266.881 373.618 267.316 375.357 268.584 376.389C272.792 379.807 270.926 387.853 264.302 392.839Z" fill="white" stroke="#090203" stroke-miterlimit="10"/>
<path d="M184.344 427.783L200.561 400.085C209.16 385.399 227.1 379.185 242.864 385.431L256.246 390.732C261.225 392.705 266.593 393.483 271.924 393.006C284.744 391.858 297.13 397.994 304.039 408.916L315.973 427.78H184.344V427.783Z" fill="#FF6E41" stroke="#090203" stroke-miterlimit="10"/>
<path d="M142.976 69.4987H142.562C142.562 64.6967 138.69 60.8027 133.916 60.8027C129.142 60.8027 125.27 64.6967 125.27 69.4987H124.856C121.245 69.4987 118.316 72.4444 118.316 76.0761C118.316 79.7078 121.245 82.6535 124.856 82.6535H142.979C146.589 82.6535 149.518 79.7078 149.518 76.0761C149.518 72.4444 146.589 69.4987 142.979 69.4987H142.976Z" fill="white" stroke="#090203" stroke-miterlimit="10"/>
<path d="M259.469 42.5241H259.054C259.054 37.7221 255.182 33.8281 250.408 33.8281C245.634 33.8281 241.763 37.7221 241.763 42.5241H241.348C237.737 42.5241 234.809 45.4698 234.809 49.1015C234.809 52.7332 237.737 55.6789 241.348 55.6789H259.471C263.081 55.6789 266.01 52.7332 266.01 49.1015C266.01 45.4698 263.081 42.5241 259.471 42.5241H259.469Z" fill="white" stroke="#090203" stroke-miterlimit="10"/>
<path d="M283.441 350.262H283.027C283.027 345.46 279.155 341.566 274.381 341.566C269.607 341.566 265.735 345.46 265.735 350.262H265.321C261.71 350.262 258.781 353.208 258.781 356.84C258.781 360.471 261.71 363.417 265.321 363.417H283.443C287.054 363.417 289.983 360.471 289.983 356.84C289.983 353.208 287.054 350.262 283.443 350.262H283.441Z" fill="white" stroke="#090203" stroke-miterlimit="10"/>
<path d="M176.156 205.893H175.741C175.741 201.091 171.87 197.197 167.096 197.197C162.322 197.197 158.45 201.091 158.45 205.893H158.036C154.425 205.893 151.496 208.839 151.496 212.471C151.496 216.102 154.425 219.048 158.036 219.048H176.158C179.769 219.048 182.698 216.102 182.698 212.471C182.698 208.839 179.769 205.893 176.158 205.893H176.156Z" fill="white" stroke="#090203" stroke-miterlimit="10"/>
<path d="M226.496 383.21C226.549 382.503 226.578 381.788 226.578 381.066C226.578 365.939 214.384 353.674 199.344 353.674C185.244 353.674 173.645 364.452 172.25 378.264" stroke="#090203" stroke-linecap="round" stroke-linejoin="round"/>
<path d="M262.023 432.088V432.756H140.852L148.84 415.023L152.954 405.89C155.455 400.337 160.022 396.156 165.503 394.103C167.754 393.256 170.159 392.767 172.635 392.693C172.693 392.691 172.751 392.691 172.809 392.691C172.983 392.686 173.152 392.682 173.326 392.682H218.397C226.809 392.682 234.59 397.154 238.86 404.444L245.059 415.026C245.17 415.026 245.286 415.026 245.4 415.03C245.645 415.032 245.886 415.044 246.127 415.057C250.384 415.324 254.222 417.171 257.055 420.02C258.468 421.442 259.636 423.116 260.48 424.968C261.015 426.138 261.421 427.378 261.682 428.676C261.907 429.777 262.023 430.918 262.023 432.086V432.088Z" fill="white" stroke="#090203" stroke-linecap="round" stroke-linejoin="round"/>
<path d="M140.852 432.758H262.531C264.046 432.758 265.277 433.995 265.277 435.52V442.297H140.852V432.758Z" fill="#090203" stroke="#090203" stroke-linecap="round" stroke-linejoin="round"/>
<path d="M240.941 451.026C246.328 451.026 250.694 446.634 250.694 441.216C250.694 435.798 246.328 431.406 240.941 431.406C235.554 431.406 231.188 435.798 231.188 441.216C231.188 446.634 235.554 451.026 240.941 451.026Z" fill="white" stroke="#090203" stroke-miterlimit="10"/>
<path d="M240.939 447.214C244.232 447.214 246.901 444.529 246.901 441.218C246.901 437.906 244.232 435.221 240.939 435.221C237.646 435.221 234.977 437.906 234.977 441.218C234.977 444.529 237.646 447.214 240.939 447.214Z" fill="white" stroke="#090203" stroke-miterlimit="10"/>
<path d="M160.828 451.026C166.214 451.026 170.581 446.634 170.581 441.216C170.581 435.798 166.214 431.406 160.828 431.406C155.441 431.406 151.074 435.798 151.074 441.216C151.074 446.634 155.441 451.026 160.828 451.026Z" fill="white" stroke="#090203" stroke-miterlimit="10"/>
<path d="M160.825 447.214C164.118 447.214 166.788 444.529 166.788 441.218C166.788 437.906 164.118 435.221 160.825 435.221C157.533 435.221 154.863 437.906 154.863 441.218C154.863 444.529 157.533 447.214 160.825 447.214Z" fill="white" stroke="#090203" stroke-miterlimit="10"/>
<path d="M245.059 415.025C245.059 421.011 249.884 425.864 255.835 425.864H260.859" stroke="#090203" stroke-miterlimit="10"/>
<path d="M165.503 394.105V415.026H148.84L152.954 405.893C155.455 400.34 160.022 396.159 165.503 394.105Z" fill="white" stroke="#090203" stroke-miterlimit="10"/>
<path d="M205.499 392.682V415.024H172.809V392.689C172.982 392.684 173.152 392.68 173.326 392.68H205.501L205.499 392.682Z" fill="white" stroke="#090203" stroke-miterlimit="10"/>
<path d="M245.058 415.025H212.867V392.684H218.399C226.811 392.684 234.592 397.156 238.862 404.446L245.061 415.028L245.058 415.025Z" fill="white" stroke="#090203" stroke-miterlimit="10"/>
<path d="M238.287 406.801H236.66V415.026H238.287V406.801Z" fill="#090203"/>
<path d="M228.666 403.187H227.284C227.284 403.187 228.541 408.025 223.861 408.827C219.18 409.63 217.613 406.052 217.613 406.052V400.436L226.145 397.428L226.587 399.934L228.666 403.185V403.187Z" fill="white" stroke="#090203" stroke-linejoin="round"/>
<path d="M225.559 402.102C225.805 402.102 226.005 401.901 226.005 401.653C226.005 401.406 225.805 401.205 225.559 401.205C225.313 401.205 225.113 401.406 225.113 401.653C225.113 401.901 225.313 402.102 225.559 402.102Z" fill="#090203"/>
<path d="M212.866 409.028C212.866 409.028 218.861 405.174 224.589 408.685C230.317 412.196 233.984 411.017 233.984 411.017V414.951C233.984 414.951 226.127 415.635 223.424 412.918V415.027H212.863V409.028H212.866Z" fill="white" stroke="#090203" stroke-linecap="round" stroke-linejoin="round"/>
<path d="M226.782 396.691C226.782 394.774 224.319 394.577 223.459 394.777C223.608 394.745 223.309 394.81 223.459 394.777C222.451 394.981 221.134 397.774 219.01 397.774C216.779 397.774 214.777 398.471 214.777 401.024C214.777 402.921 215.586 405.075 216.001 406.754C215.751 407.093 215.6 407.51 215.6 407.963C215.6 408.416 215.745 408.817 215.985 409.151C215.294 409.301 214.777 409.918 214.777 410.657C214.777 411.509 215.464 412.198 216.309 412.198C217.153 412.198 217.84 411.507 217.84 410.657C217.84 410.415 217.784 410.189 217.686 409.987C218.765 409.949 219.627 409.059 219.627 407.965C219.627 407.6 219.529 407.257 219.36 406.961C219.647 406.692 219.89 406.452 220.051 406.29C220.875 405.461 224.491 404.201 223.673 400.717C223.673 400.717 226.78 399.014 226.78 396.693L226.782 396.691Z" fill="#090203"/>
<path d="M217.614 413.407C218.278 413.407 218.817 412.865 218.817 412.197C218.817 411.528 218.278 410.986 217.614 410.986C216.949 410.986 216.41 411.528 216.41 412.197C216.41 412.865 216.949 413.407 217.614 413.407Z" fill="#090203"/>
<path d="M233.984 411.014C233.984 411.014 236.251 409.115 236.251 410.131C236.251 411.146 235.816 412.083 235.816 412.083C235.816 412.083 238.277 411.299 238.531 412.083C238.785 412.868 238.277 414.948 233.984 414.948V411.014Z" fill="white" stroke="#090203" stroke-linecap="round" stroke-linejoin="round"/>
<path d="M225.559 404.363C225.559 404.363 226.368 405.217 227.438 404.738Z" fill="white"/>
<path d="M225.559 404.363C225.559 404.363 226.368 405.217 227.438 404.738" stroke="#090203" stroke-linecap="round" stroke-linejoin="round"/>
<path d="M181.721 412.196C181.721 412.196 188.379 409.008 192.212 412.196C196.046 415.384 197.02 415.023 197.02 415.023H182.022L181.719 412.196H181.721Z" stroke="#090203" stroke-linecap="round" stroke-linejoin="round"/>
<path d="M193.777 405.722C193.777 409.103 190.739 411.845 186.995 411.845C184.356 411.845 182.067 410.482 180.948 408.491C180.48 407.657 180.215 406.718 180.215 405.722C180.215 405.413 180.239 405.112 180.288 404.817C180.297 404.758 180.308 404.7 180.322 404.644C180.886 401.774 183.663 399.598 186.995 399.598C190.151 399.598 192.806 401.546 193.561 404.182C193.699 404.675 193.777 405.191 193.777 405.724V405.722Z" fill="white" stroke="#090203" stroke-linecap="round" stroke-linejoin="round"/>
<path d="M185.692 405.729C185.938 405.729 186.138 405.528 186.138 405.28C186.138 405.033 185.938 404.832 185.692 404.832C185.446 404.832 185.246 405.033 185.246 405.28C185.246 405.528 185.446 405.729 185.692 405.729Z" fill="#090203"/>
<path d="M190.302 405.679C190.525 405.679 190.705 405.497 190.705 405.273C190.705 405.049 190.525 404.867 190.302 404.867C190.079 404.867 189.898 405.049 189.898 405.273C189.898 405.497 190.079 405.679 190.302 405.679Z" fill="#090203"/>
<path d="M183.672 408.304C183.672 408.304 187.472 411.575 191.067 407.959" stroke="#090203" stroke-linecap="round" stroke-linejoin="round"/>
<path d="M180.946 408.49C180.739 408.564 180.518 408.604 180.287 408.604C179.199 408.604 178.316 407.719 178.316 406.623C178.316 405.526 179.197 404.639 180.287 404.639H180.32C180.307 404.699 180.296 404.757 180.287 404.814C180.238 405.109 180.213 405.41 180.213 405.719C180.213 406.717 180.478 407.656 180.946 408.488V408.49Z" fill="white" stroke="#090203" stroke-linecap="round" stroke-linejoin="round"/>
<path d="M180.318 404.643C180.305 404.701 180.293 404.759 180.284 404.815C180.235 405.111 180.211 405.412 180.211 405.721C180.211 406.718 180.476 407.658 180.944 408.489" fill="white"/>
<path d="M180.318 404.643C180.305 404.701 180.293 404.759 180.284 404.815C180.235 405.111 180.211 405.412 180.211 405.721C180.211 406.718 180.476 407.658 180.944 408.489" stroke="#090203" stroke-linecap="round" stroke-linejoin="round"/>
<path d="M180.578 403.734C180.578 403.734 186.246 403.705 188.811 399.82C188.811 399.82 189.618 403.302 191.221 403.302C192.823 403.302 193.367 403.629 193.367 403.629C193.43 403.622 193.492 403.62 193.557 403.62C194.589 403.62 195.422 404.459 195.422 405.497C195.422 406.534 194.589 407.373 193.557 407.373H193.521" stroke="#090203" stroke-linecap="round" stroke-linejoin="round"/>
<path d="M184.878 406.798C185.804 406.798 186.556 406.124 186.556 405.293C186.556 404.463 185.804 403.789 184.878 403.789C183.951 403.789 183.199 404.463 183.199 405.293C183.199 406.124 183.951 406.798 184.878 406.798Z" stroke="#090203" stroke-linecap="round" stroke-linejoin="round"/>
<path d="M189.397 406.798C190.324 406.798 191.075 406.124 191.075 405.293C191.075 404.463 190.324 403.789 189.397 403.789C188.47 403.789 187.719 404.463 187.719 405.293C187.719 406.124 188.47 406.798 189.397 406.798Z" stroke="#090203" stroke-linecap="round" stroke-linejoin="round"/>
<path d="M186.871 405.889C186.871 405.889 188.398 405.703 188.552 406.613C188.734 407.693 187.118 407.736 187.118 407.736" fill="white"/>
<path d="M186.871 405.889C186.871 405.889 188.398 405.703 188.552 406.613C188.734 407.693 187.118 407.736 187.118 407.736" stroke="#090203" stroke-linecap="round" stroke-linejoin="round"/>
<path d="M174.492 415.026C174.492 415.026 177.477 410.213 180.523 410.381C183.57 410.549 186.194 415.026 186.194 415.026H174.492Z" fill="white" stroke="#090203" stroke-linecap="round" stroke-linejoin="round"/>
<path d="M201.338 261.242V307.255H129.531V290.063C129.531 285.927 132.259 282.29 136.213 281.154L138.057 280.625L150.531 277.04C155.04 275.744 159.173 273.373 162.574 270.126L168.52 264.452C170.68 262.392 173.542 261.242 176.52 261.242H201.34H201.338Z" fill="white" stroke="#090203" stroke-linecap="round" stroke-linejoin="round"/>
<path d="M129.531 291.321C135.028 291.321 139.483 286.839 139.483 281.311V280.215" fill="white"/>
<path d="M129.531 291.321C135.028 291.321 139.483 286.839 139.483 281.311V280.215" stroke="#090203" stroke-linecap="round" stroke-linejoin="round"/>
<path d="M230.997 261.242H201.336V307.255H230.997V261.242Z" fill="white" stroke="#090203" stroke-linecap="round" stroke-linejoin="round"/>
<path d="M260.658 266.093V302.406C260.658 305.085 258.498 307.257 255.834 307.257H230.996V261.244H255.834C258.498 261.244 260.658 263.416 260.658 266.095V266.093Z" fill="white" stroke="#090203" stroke-linecap="round" stroke-linejoin="round"/>
<path d="M260.659 282.31H217.584C211.609 282.31 205.836 280.128 201.336 276.174" stroke="#090203" stroke-linecap="round" stroke-linejoin="round"/>
<path d="M260.659 300.719V302.407C260.659 305.086 258.499 307.258 255.835 307.258H129.531V300.721H260.659V300.719Z" fill="#9D9FA0" stroke="#090203" stroke-linecap="round" stroke-linejoin="round"/>
<path d="M155.483 317.265C160.979 317.265 165.435 312.784 165.435 307.256C165.435 301.728 160.979 297.246 155.483 297.246C149.987 297.246 145.531 301.728 145.531 307.256C145.531 312.784 149.987 317.265 155.483 317.265Z" fill="white" stroke="#090203" stroke-linecap="round" stroke-linejoin="round"/>
<path d="M155.482 312.459C158.339 312.459 160.655 310.13 160.655 307.256C160.655 304.382 158.339 302.053 155.482 302.053C152.625 302.053 150.309 304.382 150.309 307.256C150.309 310.13 152.625 312.459 155.482 312.459Z" fill="white" stroke="#090203" stroke-linecap="round" stroke-linejoin="round"/>
<path d="M244.124 317.265C249.62 317.265 254.075 312.784 254.075 307.256C254.075 301.728 249.62 297.246 244.124 297.246C238.627 297.246 234.172 301.728 234.172 307.256C234.172 312.784 238.627 317.265 244.124 317.265Z" fill="white" stroke="#090203" stroke-linecap="round" stroke-linejoin="round"/>
<path d="M244.126 312.459C246.983 312.459 249.299 310.13 249.299 307.256C249.299 304.382 246.983 302.053 244.126 302.053C241.269 302.053 238.953 304.382 238.953 307.256C238.953 310.13 241.269 312.459 244.126 312.459Z" fill="white" stroke="#090203" stroke-linecap="round" stroke-linejoin="round"/>
<path d="M158.164 273.586C158.164 278.403 162.047 282.311 166.839 282.311H187.462C192.252 282.311 196.137 278.405 196.137 273.586V261.242" stroke="#090203" stroke-linecap="round" stroke-linejoin="round"/>
<path d="M221.525 282.689C222.378 282.113 223.375 281.555 224.034 281.555L224.161 284.855L221.843 284.357C221.05 284.187 220.852 283.142 221.525 282.689Z" fill="white" stroke="#090203" stroke-linecap="round" stroke-linejoin="round"/>
<path d="M177.172 271.442H175.801C175.284 271.442 174.936 270.906 175.15 270.433C175.504 269.655 177.343 268.279 178.373 267.913C180.149 267.281 179.126 262.869 184.15 262.869C189.174 262.869 189.589 275.596 186.914 276.497C185.222 277.069 181.589 277.277 179.151 277.356C177.854 277.396 176.808 276.298 176.904 274.995L177.167 271.444L177.172 271.442Z" fill="white" stroke="#090203" stroke-linecap="round" stroke-linejoin="round"/>
<path d="M177.055 273.039C177.055 273.039 179.502 273.68 181.537 272.117Z" fill="white"/>
<path d="M177.055 273.039C177.055 273.039 179.502 273.68 181.537 272.117" stroke="#090203" stroke-linecap="round" stroke-linejoin="round"/>
<path d="M181.534 268.303C181.867 268.303 182.138 268.031 182.138 267.695C182.138 267.36 181.867 267.088 181.534 267.088C181.2 267.088 180.93 267.36 180.93 267.695C180.93 268.031 181.2 268.303 181.534 268.303Z" fill="#090203"/>
<path d="M190.933 281.584C189.87 282.05 188.698 282.31 187.463 282.31H168.5V281.023C168.5 281.023 175.247 281.429 177.257 281.429C179.268 281.429 182.524 275.762 185.827 275.762C188.02 275.762 189.91 279.248 190.931 281.586L190.933 281.584Z" fill="#090203" stroke="#090203" stroke-linecap="round" stroke-linejoin="round"/>
<path d="M168.499 281.022C168.499 281.022 165.432 279.034 162.305 281.022" stroke="#090203" stroke-linecap="round" stroke-linejoin="round"/>
<path d="M217.035 282.045C217.234 277.398 221.981 277.434 221.981 277.434L231.746 278.38C231.746 278.38 238.08 276.254 238.775 280.039C239.471 283.823 224.181 285.316 224.181 285.316L224.036 281.554L232.463 280.691" fill="white"/>
<path d="M217.035 282.045C217.234 277.398 221.981 277.434 221.981 277.434L231.746 278.38C231.746 278.38 238.08 276.254 238.775 280.039C239.471 283.823 224.181 285.316 224.181 285.316L224.036 281.554L232.463 280.691" stroke="#090203" stroke-linecap="round" stroke-linejoin="round"/>
<path d="M220.54 273.414C220.395 276.79 223.315 279.662 227.055 279.823C229.692 279.937 232.037 278.673 233.238 276.734C233.742 275.922 234.047 274.994 234.089 273.999C234.103 273.689 234.089 273.387 234.056 273.091C234.049 273.033 234.04 272.974 234.029 272.916C233.588 270.024 230.907 267.731 227.577 267.587C224.425 267.451 221.69 269.282 220.821 271.885C220.661 272.371 220.563 272.882 220.54 273.416V273.414Z" fill="white" stroke="#090203" stroke-linecap="round" stroke-linejoin="round"/>
<path d="M229.22 273.785C229.52 273.785 229.763 273.541 229.763 273.238C229.763 272.936 229.52 272.691 229.22 272.691C228.919 272.691 228.676 272.936 228.676 273.238C228.676 273.541 228.919 273.785 229.22 273.785Z" fill="#090203"/>
<path d="M225.298 273.403C225.598 273.403 225.842 273.158 225.842 272.856C225.842 272.553 225.598 272.309 225.298 272.309C224.997 272.309 224.754 272.553 224.754 272.856C224.754 273.158 224.997 273.403 225.298 273.403Z" fill="#090203"/>
<path d="M230.529 276.431C230.529 276.431 226.593 279.536 223.156 275.768" stroke="#090203" stroke-linecap="round" stroke-linejoin="round"/>
<path d="M227.433 272.652L226.927 274.08C226.927 274.08 225.409 273.829 225.217 274.733C224.99 275.804 226.601 275.919 226.601 275.919" stroke="#090203" stroke-linecap="round" stroke-linejoin="round"/>
<path d="M233.238 276.734C233.443 276.817 233.662 276.866 233.894 276.875C234.981 276.922 235.9 276.075 235.946 274.981C235.993 273.887 235.151 272.961 234.063 272.914H234.03C234.041 272.972 234.05 273.031 234.056 273.089C234.092 273.387 234.103 273.69 234.09 273.997C234.047 274.992 233.742 275.92 233.238 276.732V276.734Z" fill="white" stroke="#090203" stroke-linecap="round" stroke-linejoin="round"/>
<path d="M233.238 276.734C233.742 275.922 234.047 274.994 234.09 273.999C234.103 273.689 234.09 273.387 234.056 273.091C234.05 273.033 234.041 272.974 234.03 272.916" fill="white"/>
<path d="M233.238 276.734C233.742 275.922 234.047 274.994 234.09 273.999C234.103 273.689 234.09 273.387 234.056 273.091C234.05 273.033 234.041 272.974 234.03 272.916" stroke="#090203" stroke-linecap="round" stroke-linejoin="round"/>
<path d="M221.037 271.34C220.975 271.331 220.912 271.327 220.848 271.322C219.818 271.277 218.949 272.08 218.904 273.116C218.86 274.149 219.657 275.026 220.687 275.07H220.723" stroke="#090203" stroke-linecap="round" stroke-linejoin="round"/>
<path d="M218.01 281.963C218.01 277.311 214.283 277.226 214.283 277.226L204.487 277.748C204.487 277.748 198.249 275.352 197.393 279.102C196.537 282.853 214.635 284.945 214.635 284.945L214.94 281.192L203.674 280.026" fill="white"/>
<path d="M218.01 281.963C218.01 277.311 214.283 277.226 214.283 277.226L204.487 277.748C204.487 277.748 198.249 275.352 197.393 279.102C196.537 282.853 214.635 284.945 214.635 284.945L214.94 281.192L203.674 280.026" stroke="#090203" stroke-linecap="round" stroke-linejoin="round"/>
<path d="M215.895 273.271C215.895 276.652 212.857 279.393 209.112 279.393C206.473 279.393 204.184 278.03 203.065 276.04C202.597 275.206 202.332 274.266 202.332 273.271C202.332 272.962 202.357 272.661 202.406 272.365C202.415 272.307 202.426 272.249 202.439 272.193C203.003 269.323 205.78 267.146 209.112 267.146C212.268 267.146 214.923 269.095 215.678 271.731C215.817 272.224 215.895 272.74 215.895 273.273V273.271Z" fill="white" stroke="#090203" stroke-linecap="round" stroke-linejoin="round"/>
<path d="M215.675 271.729C215.171 271.839 214.645 271.895 214.104 271.895C211.888 271.895 209.92 270.041 208.683 268.559C207.493 270.317 205.347 272.381 202.899 272.381C202.732 272.381 202.567 272.377 202.402 272.363C202.886 269.409 205.708 267.145 209.109 267.145C212.265 267.145 214.917 269.093 215.675 271.729Z" stroke="#090203" stroke-linecap="round" stroke-linejoin="round"/>
<path d="M207.227 273.27C207.528 273.27 207.771 273.025 207.771 272.723C207.771 272.421 207.528 272.176 207.227 272.176C206.927 272.176 206.684 272.421 206.684 272.723C206.684 273.025 206.927 273.27 207.227 273.27Z" fill="#090203"/>
<path d="M211.165 273.057C211.465 273.057 211.709 272.812 211.709 272.51C211.709 272.208 211.465 271.963 211.165 271.963C210.865 271.963 210.621 272.208 210.621 272.51C210.621 272.812 210.865 273.057 211.165 273.057Z" fill="#090203"/>
<path d="M205.789 275.857C205.789 275.857 209.589 279.128 213.184 275.512" stroke="#090203" stroke-linecap="round" stroke-linejoin="round"/>
<path d="M209.039 272.213L209.483 273.661C209.483 273.661 211.009 273.475 211.163 274.385C211.346 275.466 209.73 275.508 209.73 275.508" stroke="#090203" stroke-linecap="round" stroke-linejoin="round"/>
<path d="M203.064 276.041C202.856 276.115 202.636 276.155 202.404 276.155C201.316 276.155 200.434 275.27 200.434 274.173C200.434 273.077 201.314 272.189 202.404 272.189H202.437C202.424 272.25 202.413 272.308 202.404 272.364C202.355 272.66 202.33 272.961 202.33 273.27C202.33 274.268 202.596 275.207 203.064 276.039V276.041Z" fill="white" stroke="#090203" stroke-linecap="round" stroke-linejoin="round"/>
<path d="M202.435 272.193C202.422 272.252 202.411 272.31 202.402 272.366C202.353 272.662 202.328 272.962 202.328 273.272C202.328 274.269 202.593 275.209 203.061 276.04" fill="white"/>
<path d="M202.435 272.193C202.422 272.252 202.411 272.31 202.402 272.366C202.353 272.662 202.328 272.962 202.328 273.272C202.328 274.269 202.593 275.209 203.061 276.04" stroke="#090203" stroke-linecap="round" stroke-linejoin="round"/>
<path d="M215.638 274.923H215.674C216.706 274.923 217.539 274.082 217.539 273.046C217.539 272.011 216.706 271.17 215.674 271.17C215.609 271.17 215.547 271.17 215.484 271.179" stroke="#090203" stroke-linecap="round" stroke-linejoin="round"/>
<path d="M214.637 284.946C214.637 284.946 215.47 286.675 216.364 286.675C217.258 286.675 217.024 282.644 214.944 281.193L214.639 284.946H214.637Z" fill="white" stroke="#090203" stroke-linecap="round" stroke-linejoin="round"/>
<path d="M221.113 267.582C221.113 267.582 222.299 270.649 226.839 270.649C231.379 270.649 233.92 272.384 233.92 272.384C233.92 272.384 234.219 268.295 232.197 267.147C230.174 265.997 227.501 266.943 226.61 266.046C225.718 265.149 221.113 267.582 221.113 267.582Z" fill="white" stroke="#090203" stroke-linecap="round" stroke-linejoin="round"/>
<path d="M242.064 273.705L238.688 282.309H250.376L249.081 278.007" fill="white"/>
<path d="M242.064 273.705L238.688 282.309H250.376L249.081 278.007" stroke="#090203" stroke-linecap="round" stroke-linejoin="round"/>
<path d="M246.195 270.043C246.195 270.043 238.767 264.503 237.991 266.711C237.215 268.92 244.051 272.502 244.051 272.502" fill="white"/>
<path d="M246.195 270.043C246.195 270.043 238.767 264.503 237.991 266.711C237.215 268.92 244.051 272.502 244.051 272.502" stroke="#090203" stroke-linecap="round" stroke-linejoin="round"/>
<path d="M257.06 273.802C256.743 274.495 256.066 274.99 255.261 275.044L249.207 274.699C249.207 274.699 248.855 276.273 251.084 276.546C253.259 276.815 255.887 277.45 249.078 278.008C247.609 278.129 246.379 278.053 245.358 277.826C239.996 276.647 241.612 268.529 247.03 269.41L253.859 270.527C253.895 270.634 255.123 274.085 257.057 273.802H257.06Z" fill="white" stroke="#090203" stroke-linecap="round" stroke-linejoin="round"/>
<path d="M248.25 273.329C248.631 273.329 248.94 273.018 248.94 272.634C248.94 272.251 248.631 271.939 248.25 271.939C247.868 271.939 247.559 272.251 247.559 272.634C247.559 273.018 247.868 273.329 248.25 273.329Z" fill="#090203"/>
<path d="M243.714 272.854C243.714 272.854 240.551 283.202 243.262 283.202C245.972 283.202 247.227 274.266 247.227 274.266" fill="white"/>
<path d="M243.714 272.854C243.714 272.854 240.551 283.202 243.262 283.202C245.972 283.202 247.227 274.266 247.227 274.266" stroke="#090203" stroke-linecap="round" stroke-linejoin="round"/>
<path d="M257.256 272.904C257.256 273.224 257.185 273.527 257.058 273.8C255.123 274.083 253.895 270.633 253.859 270.527L255.469 270.787C255.986 270.87 256.431 271.137 256.75 271.514C257.069 271.89 257.258 272.377 257.258 272.904H257.256Z" fill="#090203" stroke="#090203" stroke-linecap="round" stroke-linejoin="round"/>
<path d="M242.883 240.699H250.02C251.372 240.699 252.469 241.804 252.469 243.163V258.777C252.469 260.138 251.37 261.241 250.02 261.241H242.883V240.699Z" fill="white" stroke="#090203" stroke-linecap="round" stroke-linejoin="round"/>
<path d="M242.883 244.518H252.469" stroke="#090203" stroke-linecap="round" stroke-linejoin="round"/>
<path d="M242.883 240.7V237.465C242.883 236.618 243.565 235.932 244.407 235.932H244.956C245.798 235.932 246.48 236.618 246.48 237.465V240.7H242.883Z" fill="white" stroke="#090203" stroke-linecap="round" stroke-linejoin="round"/>
<path d="M239.317 261.55C243.935 261.55 247.678 257.786 247.678 253.141C247.678 248.497 243.935 244.732 239.317 244.732C234.7 244.732 230.957 248.497 230.957 253.141C230.957 257.786 234.7 261.55 239.317 261.55Z" fill="white" stroke="#090203" stroke-linecap="round" stroke-linejoin="round"/>
<path d="M231.879 249.306C231.879 249.306 235.198 253.597 237.634 252.095C240.068 250.593 238.122 244.818 238.122 244.818" stroke="#090203" stroke-linecap="round" stroke-linejoin="round"/>
<path d="M240.607 261.449C240.607 261.449 238.853 256.642 240.928 255.364C243.003 254.084 246.948 256.57 246.948 256.57" stroke="#090203" stroke-linecap="round" stroke-linejoin="round"/>
<path d="M232.824 258.433C232.824 258.433 240.378 254.326 245.504 247.484" stroke="#090203" stroke-linecap="round" stroke-linejoin="round"/>
<path d="M234.512 246.264C234.512 246.264 238.675 253.251 244.129 260.037" stroke="#090203" stroke-linecap="round" stroke-linejoin="round"/>
<path d="M216.848 245.325L210.09 261.241H236.437L232.401 244.984C232.031 243.491 230.638 242.489 229.115 242.619L219.455 243.433C218.305 243.529 217.3 244.258 216.848 245.327V245.325Z" fill="white" stroke="#090203" stroke-linecap="round" stroke-linejoin="round"/>
<path d="M220.285 243.361V242.731C220.285 240.677 221.799 238.942 223.822 238.678L224.524 238.586C226.949 238.267 229.102 240.16 229.116 242.619" stroke="#090203" stroke-linecap="round" stroke-linejoin="round"/>
<path d="M226.152 242.867L229.09 261.241" stroke="#090203" stroke-linecap="round" stroke-linejoin="round"/>
<path d="M215.815 254.195C216.794 254.195 217.587 253.397 217.587 252.413C217.587 251.429 216.794 250.631 215.815 250.631C214.836 250.631 214.043 251.429 214.043 252.413C214.043 253.397 214.836 254.195 215.815 254.195Z" fill="white" stroke="#090203" stroke-linecap="round" stroke-linejoin="round"/>
<path d="M215.815 258.092C216.794 258.092 217.587 257.294 217.587 256.31C217.587 255.325 216.794 254.527 215.815 254.527C214.836 254.527 214.043 255.325 214.043 256.31C214.043 257.294 214.836 258.092 215.815 258.092Z" fill="white" stroke="#090203" stroke-linecap="round" stroke-linejoin="round"/>
<path d="M211.522 261.242H189.993C188.6 261.242 187.473 260.107 187.473 258.706V252.008C187.473 250.712 188.444 249.625 189.726 249.488L211.254 247.177C212.743 247.017 214.043 248.19 214.043 249.696V258.706C214.043 260.107 212.915 261.242 211.522 261.242Z" fill="white" stroke="#090203" stroke-linecap="round" stroke-linejoin="round"/>
<path d="M189.727 249.485L189.958 248.516C190.297 247.1 191.494 246.055 192.936 245.918L207.577 244.531C209.055 244.392 210.453 245.234 211.023 246.613L211.255 247.171L189.727 249.483V249.485Z" fill="white" stroke="#090203" stroke-linecap="round" stroke-linejoin="round"/>
<path d="M96.5692 60.1568C103.008 60.1568 108.228 54.9065 108.228 48.43C108.228 41.9534 103.008 36.7031 96.5692 36.7031C90.1301 36.7031 84.9102 41.9534 84.9102 48.43C84.9102 54.9065 90.1301 60.1568 96.5692 60.1568Z" stroke="#090203" stroke-miterlimit="10"/>
<path d="M96.5703 32.5867V27.5605" stroke="#090203" stroke-miterlimit="10" stroke-linecap="round"/>
<path d="M107.707 37.2271L111.24 33.6738" stroke="#090203" stroke-miterlimit="10" stroke-linecap="round"/>
<path d="M112.32 48.4297H117.32" stroke="#090203" stroke-miterlimit="10" stroke-linecap="round"/>
<path d="M107.707 59.6309L111.24 63.1864" stroke="#090203" stroke-miterlimit="10" stroke-linecap="round"/>
<path d="M96.5703 64.2715V69.2998" stroke="#090203" stroke-miterlimit="10" stroke-linecap="round"/>
<path d="M85.4312 59.6309L81.8984 63.1864" stroke="#090203" stroke-miterlimit="10" stroke-linecap="round"/>
<path d="M80.8174 48.4297H75.8203" stroke="#090203" stroke-miterlimit="10" stroke-linecap="round"/>
<path d="M85.4312 37.2271L81.8984 33.6738" stroke="#090203" stroke-miterlimit="10" stroke-linecap="round"/>
<path d="M173.031 122.643L167.022 120.218C166.093 119.843 165.038 120.296 164.665 121.231L161.973 127.98C161.6 128.914 162.051 129.975 162.98 130.35L168.989 132.775C169.918 133.15 170.973 132.696 171.346 131.762L174.038 125.013C174.411 124.078 173.96 123.017 173.031 122.643Z" fill="white" stroke="#090203" stroke-miterlimit="10"/>
<path d="M172.038 122.25C172.129 120.66 170.754 119.093 169.666 118.847C168.578 118.598 169.479 121.219 169.479 121.219C169.479 121.219 168.333 133.663 172.992 133.663C177.65 133.663 173.435 126.502 173.435 126.502" stroke="#090203" stroke-miterlimit="10"/>
<path d="M169.48 121.219C167.081 124.685 164.509 124.904 162.918 124.581" stroke="#090203" stroke-miterlimit="10"/>
<path d="M169.935 148.539H256.893C258.409 148.539 259.639 149.777 259.639 151.301V157.034H169.935C167.603 157.034 165.711 155.13 165.711 152.785C165.711 150.44 167.603 148.537 169.935 148.537V148.539Z" fill="#090203" stroke="#090203" stroke-miterlimit="10"/>
<path d="M256.738 147.945V148.539H241.629V132.748C241.729 132.748 241.832 132.748 241.932 132.753C242.15 132.755 242.364 132.764 242.581 132.777C246.372 133.015 249.791 134.66 252.314 137.198C253.573 138.465 254.612 139.955 255.365 141.605C255.842 142.648 256.203 143.753 256.435 144.908C256.636 145.889 256.738 146.905 256.738 147.945Z" fill="#090203" stroke="#090203" stroke-miterlimit="10"/>
<path d="M256.437 144.907C256.218 144.905 256.004 144.896 255.788 144.882C251.997 144.645 248.578 142.999 246.055 140.461C244.795 139.195 243.757 137.704 243.003 136.054C242.526 135.012 242.163 133.904 241.934 132.752C242.152 132.754 242.366 132.763 242.582 132.777C246.373 133.014 249.792 134.66 252.316 137.197C253.575 138.464 254.613 139.955 255.367 141.605C255.844 142.647 256.205 143.752 256.437 144.907Z" fill="white" stroke="#090203" stroke-miterlimit="10"/>
<path d="M185.63 112.848H217.886C225.377 112.848 232.309 116.834 236.109 123.324L241.63 132.748V148.539H169.988L185.63 112.848Z" fill="#090203" stroke="#090203" stroke-miterlimit="10"/>
<path d="M183.951 164.81C188.748 164.81 192.637 160.899 192.637 156.074C192.637 151.249 188.748 147.338 183.951 147.338C179.154 147.338 175.266 151.249 175.266 156.074C175.266 160.899 179.154 164.81 183.951 164.81Z" fill="white" stroke="#090203" stroke-miterlimit="10"/>
<path d="M183.952 161.415C186.885 161.415 189.263 159.023 189.263 156.073C189.263 153.122 186.885 150.73 183.952 150.73C181.019 150.73 178.641 153.122 178.641 156.073C178.641 159.023 181.019 161.415 183.952 161.415Z" fill="white" stroke="#090203" stroke-miterlimit="10"/>
<path d="M241.627 132.748L236.108 123.324C232.306 116.834 225.374 112.848 217.885 112.848H213.223V132.748H241.629H241.627Z" fill="white" stroke="#090203" stroke-miterlimit="10"/>
<path d="M209.602 132.753H183.941L192.852 112.848H209.602V132.753Z" fill="white" stroke="#090203" stroke-miterlimit="10"/>
<path d="M240.498 164.81C245.295 164.81 249.184 160.899 249.184 156.074C249.184 151.249 245.295 147.338 240.498 147.338C235.701 147.338 231.812 151.249 231.812 156.074C231.812 160.899 235.701 164.81 240.498 164.81Z" fill="white" stroke="#090203" stroke-miterlimit="10"/>
<path d="M240.499 161.415C243.432 161.415 245.81 159.023 245.81 156.073C245.81 153.122 243.432 150.73 240.499 150.73C237.565 150.73 235.188 153.122 235.188 156.073C235.188 159.023 237.565 161.415 240.499 161.415Z" fill="white" stroke="#090203" stroke-miterlimit="10"/>
<path d="M169.096 95.7888L183.702 104.805C186.442 106.496 187.301 110.107 185.62 112.862L161.086 97.7171C162.768 94.962 166.357 94.0978 169.096 95.7888Z" fill="white" stroke="#090203" stroke-miterlimit="10"/>
<path d="M150.821 147.589C150.061 149.1 149.067 151.091 148.144 152.963L143.457 151.012C144.021 149.282 144.522 147.511 144.852 145.865L150.821 147.589Z" fill="white" stroke="#090203" stroke-linejoin="round"/>
<path d="M150.82 147.59L144.852 145.866C145.008 145.092 145.128 144.344 145.197 143.642C145.877 136.899 148.291 131.072 148.291 131.072L150.453 132.26C153.241 133.794 154.567 137.094 153.62 140.145L152.942 142.328C152.381 144.137 151.672 145.897 150.823 147.59H150.82Z" fill="#090203" stroke="#090203" stroke-miterlimit="10"/>
<path d="M146.259 164.074L139.41 161.223C139.41 161.223 141.735 156.293 143.458 151.014L148.145 152.964C147.024 155.246 146.005 157.358 145.644 158.237C145.065 159.645 146.088 161.79 146.968 163.245C147.258 163.72 146.772 164.287 146.259 164.072V164.074Z" fill="#090203" stroke="#090203" stroke-miterlimit="10"/>
<path d="M148.148 152.966L148.145 152.963" stroke="#090203" stroke-miterlimit="10"/>
<path d="M154.991 133.433L147.109 132.575L147.252 128.99L154.821 130.214L154.991 133.433Z" fill="white" stroke="#090203" stroke-linejoin="round"/>
<path d="M154.823 130.212L147.254 128.988L147.446 124.119C147.573 120.902 150.401 118.481 153.577 118.869C153.954 118.916 154.244 119.228 154.264 119.609L154.823 130.215V130.212Z" fill="#090203" stroke="#090203" stroke-miterlimit="10"/>
<path d="M156.4 124.254L152.272 126.875C151.269 125.297 150.473 123.566 149.918 121.721L149.78 121.264C149.508 120.363 150.115 119.432 151.046 119.325L151.18 119.309C153.386 119.053 155.441 120.479 155.99 122.642L156.398 124.254H156.4Z" fill="#090203" stroke="#090203" stroke-miterlimit="10"/>
<path d="M166.306 134.853C166.119 134.826 165.932 134.797 165.749 134.768C159.918 133.813 154.901 130.363 151.816 125.494L155.944 122.873C156.64 124.483 157.587 125.978 158.775 127.289C160.462 129.146 162.64 130.675 165.116 130.376C170.944 129.67 166.003 131.957 166.003 131.957C166.003 131.957 167.256 132.627 168.096 132.71C169.861 132.878 169.44 135.331 166.306 134.858V134.853Z" fill="white" stroke="#090203" stroke-linejoin="round"/>
<path d="M152.311 120.283C150.229 119.92 148.82 117.909 149.181 115.815L150.209 109.857C150.57 107.763 152.569 106.346 154.653 106.709C160.007 107.478 158.915 115.88 158.808 116.616C158.803 116.643 158.777 116.663 158.75 116.658L157.011 116.34C156.947 116.329 156.884 116.371 156.873 116.436L156.751 117.136C156.39 119.23 154.39 120.646 152.309 120.283" fill="white"/>
<path d="M152.311 120.283C150.229 119.92 148.82 117.909 149.181 115.815L150.209 109.857C150.57 107.763 152.569 106.346 154.653 106.709C160.007 107.478 158.915 115.88 158.808 116.616C158.803 116.643 158.777 116.663 158.75 116.658L157.011 116.34C156.947 116.329 156.884 116.371 156.873 116.436L156.751 117.136C156.39 119.23 154.39 120.646 152.309 120.283" stroke="#090203" stroke-miterlimit="10"/>
<path d="M156.177 112.869C156.121 113.196 156.339 113.51 156.665 113.566C156.99 113.622 157.302 113.402 157.358 113.075C157.414 112.748 157.197 112.436 156.87 112.38C156.544 112.324 156.232 112.541 156.177 112.871" fill="#090203"/>
<path d="M149.162 118.117C144.9 114.046 147.434 106.713 153.3 106.352C153.423 106.346 153.546 106.339 153.67 106.337C154.694 106.31 157.061 107.146 157.769 108.769C157.769 108.769 156.278 112.564 153.216 112.903C153.02 112.925 152.828 112.829 152.725 112.654C152.407 112.105 151.582 111.017 150.682 112.378C149.527 114.127 151.283 115.492 151.283 115.492C150.782 116.315 150.641 117.895 150.677 119.563L149.162 118.115V118.117Z" fill="#090203" stroke="#090203" stroke-miterlimit="10"/>
<path d="M154.047 116.508C154.047 116.508 154.381 118.283 156.508 117.974" stroke="#090203" stroke-linecap="round" stroke-linejoin="round"/>
<path d="M155.728 146.863C155.601 148.554 155.441 150.773 155.298 152.858H150.225C150.089 151.04 149.877 149.213 149.559 147.567L155.73 146.863H155.728Z" fill="white" stroke="#090203" stroke-linejoin="round"/>
<path d="M155.728 146.863L149.557 147.567C149.407 146.792 149.233 146.054 149.031 145.379C147.094 138.887 147.109 132.574 147.109 132.574L154.991 133.433L155.686 141.187C155.855 143.075 155.869 144.974 155.728 146.866V146.863Z" fill="#090203" stroke="#090203" stroke-miterlimit="10"/>
<path d="M157.778 163.849H150.365C150.365 163.849 150.639 158.399 150.223 152.859H155.296C155.126 155.399 153.92 158.41 153.92 159.361C153.92 160.885 156.749 161.806 158.117 162.813C158.565 163.14 158.333 163.851 157.778 163.851V163.849Z" fill="#090203" stroke="#090203" stroke-miterlimit="10"/>
<path d="M155.3 152.859H155.297" stroke="#090203" stroke-miterlimit="10"/>
<path d="M146.394 109.849C148.45 109.849 150.116 108.173 150.116 106.105C150.116 104.037 148.45 102.361 146.394 102.361C144.338 102.361 142.672 104.037 142.672 106.105C142.672 108.173 144.338 109.849 146.394 109.849Z" fill="#090203" stroke="#090203" stroke-miterlimit="10"/>
</g>
</g>
<rect x="1" y="0.5" width="390" height="498" rx="19.5" stroke="#FFB59F"/>
<defs>
<clipPath id="clip0_637_11292">
<rect x="0.5" width="391" height="499" rx="20" fill="white"/>
</clipPath>
<clipPath id="clip1_637_11292">
<rect width="294" height="439" fill="white" transform="translate(49 27)"/>
</clipPath>
</defs>
</svg>
