<svg width="435" height="172" viewBox="0 0 435 172" fill="none" xmlns="http://www.w3.org/2000/svg">
<g clip-path="url(#clip0_427_17769)">
<rect x="82.5" y="16.5" width="47" height="47" rx="7.5" fill="url(#paint0_linear_427_17769)"/>
<rect x="82.5" y="16.5" width="47" height="47" rx="7.5" stroke="url(#paint1_linear_427_17769)"/>
<rect x="353.5" y="123.5" width="47" height="47" rx="7.5" transform="rotate(-180 353.5 123.5)" fill="url(#paint2_linear_427_17769)"/>
<rect x="353.5" y="123.5" width="47" height="47" rx="7.5" transform="rotate(-180 353.5 123.5)" stroke="url(#paint3_linear_427_17769)"/>
<rect x="26.5" y="16.5" width="47" height="47" rx="7.5" fill="url(#paint4_linear_427_17769)"/>
<rect x="26.5" y="16.5" width="47" height="47" rx="7.5" stroke="url(#paint5_linear_427_17769)"/>
<rect x="409.5" y="123.5" width="47" height="47" rx="7.5" transform="rotate(-180 409.5 123.5)" fill="url(#paint6_linear_427_17769)"/>
<rect x="409.5" y="123.5" width="47" height="47" rx="7.5" transform="rotate(-180 409.5 123.5)" stroke="url(#paint7_linear_427_17769)"/>
<rect x="-29.5" y="16.5" width="47" height="47" rx="7.5" fill="url(#paint8_linear_427_17769)"/>
<rect x="-29.5" y="16.5" width="47" height="47" rx="7.5" stroke="url(#paint9_linear_427_17769)"/>
<rect x="465.5" y="123.5" width="47" height="47" rx="7.5" transform="rotate(-180 465.5 123.5)" fill="url(#paint10_linear_427_17769)"/>
<rect x="465.5" y="123.5" width="47" height="47" rx="7.5" transform="rotate(-180 465.5 123.5)" stroke="url(#paint11_linear_427_17769)"/>
<rect x="138.5" y="16.5" width="47" height="47" rx="7.5" fill="url(#paint12_linear_427_17769)"/>
<rect x="138.5" y="16.5" width="47" height="47" rx="7.5" stroke="url(#paint13_linear_427_17769)"/>
<rect x="297.5" y="123.5" width="47" height="47" rx="7.5" transform="rotate(-180 297.5 123.5)" fill="url(#paint14_linear_427_17769)"/>
<rect x="297.5" y="123.5" width="47" height="47" rx="7.5" transform="rotate(-180 297.5 123.5)" stroke="url(#paint15_linear_427_17769)"/>
<rect x="194.5" y="16.5" width="47" height="47" rx="7.5" fill="url(#paint16_linear_427_17769)"/>
<rect x="194.5" y="16.5" width="47" height="47" rx="7.5" stroke="url(#paint17_linear_427_17769)"/>
<rect x="241.5" y="123.5" width="47" height="47" rx="7.5" transform="rotate(-180 241.5 123.5)" fill="url(#paint18_linear_427_17769)"/>
<rect x="241.5" y="123.5" width="47" height="47" rx="7.5" transform="rotate(-180 241.5 123.5)" stroke="url(#paint19_linear_427_17769)"/>
<rect x="250.5" y="16.5" width="47" height="47" rx="7.5" fill="url(#paint20_linear_427_17769)"/>
<rect x="250.5" y="16.5" width="47" height="47" rx="7.5" stroke="url(#paint21_linear_427_17769)"/>
<rect x="185.5" y="123.5" width="47" height="47" rx="7.5" transform="rotate(-180 185.5 123.5)" fill="url(#paint22_linear_427_17769)"/>
<rect x="185.5" y="123.5" width="47" height="47" rx="7.5" transform="rotate(-180 185.5 123.5)" stroke="url(#paint23_linear_427_17769)"/>
<rect x="306.5" y="16.5" width="47" height="47" rx="7.5" fill="url(#paint24_linear_427_17769)"/>
<rect x="306.5" y="16.5" width="47" height="47" rx="7.5" stroke="url(#paint25_linear_427_17769)"/>
<rect x="129.5" y="123.5" width="47" height="47" rx="7.5" transform="rotate(-180 129.5 123.5)" fill="url(#paint26_linear_427_17769)"/>
<rect x="129.5" y="123.5" width="47" height="47" rx="7.5" transform="rotate(-180 129.5 123.5)" stroke="url(#paint27_linear_427_17769)"/>
<rect x="362.5" y="16.5" width="47" height="47" rx="7.5" fill="url(#paint28_linear_427_17769)"/>
<rect x="362.5" y="16.5" width="47" height="47" rx="7.5" stroke="url(#paint29_linear_427_17769)"/>
<rect x="73.5" y="123.5" width="47" height="47" rx="7.5" transform="rotate(-180 73.5 123.5)" fill="url(#paint30_linear_427_17769)"/>
<rect x="73.5" y="123.5" width="47" height="47" rx="7.5" transform="rotate(-180 73.5 123.5)" stroke="url(#paint31_linear_427_17769)"/>
<rect x="418.5" y="16.5" width="47" height="47" rx="7.5" fill="url(#paint32_linear_427_17769)"/>
<rect x="418.5" y="16.5" width="47" height="47" rx="7.5" stroke="url(#paint33_linear_427_17769)"/>
<rect x="17.5" y="123.5" width="47" height="47" rx="7.5" transform="rotate(-180 17.5 123.5)" fill="url(#paint34_linear_427_17769)"/>
<rect x="17.5" y="123.5" width="47" height="47" rx="7.5" transform="rotate(-180 17.5 123.5)" stroke="url(#paint35_linear_427_17769)"/>
<rect x="138" y="46" width="48" height="48" rx="8" fill="white"/>
<rect x="138.5" y="46.5" width="47" height="47" rx="7.5" fill="#F6FFF1"/>
<g clip-path="url(#clip1_427_17769)">
<path fill-rule="evenodd" clip-rule="evenodd" d="M165.743 60.0298C165.831 60.0519 165.914 60.0852 165.99 60.1277C167.437 60.5084 168.603 61.6985 169.41 63.1503C170.412 64.9537 171 67.3774 171 69.9999C171 72.6224 170.412 75.0461 169.41 76.8495C168.603 78.3011 167.437 79.4911 165.99 79.8719C165.914 79.9146 165.831 79.948 165.743 79.9702C162.074 80.8873 159.905 80.6164 158.262 80.0091L157.918 79.8742C157.805 79.8277 157.695 79.7798 157.587 79.7308C156.191 79.098 155.05 77.7571 154.266 76.0928C153.473 74.4108 153 72.3089 153 70C153 67.6911 153.473 65.5892 154.266 63.9072C155.05 62.2429 156.191 60.902 157.587 60.2693C157.695 60.2203 157.805 60.1724 157.918 60.1259L158.262 59.9909C159.905 59.3837 162.074 59.1128 165.743 60.0298ZM158.413 62.0908C157.596 62.4613 156.737 63.3534 156.075 64.7597C155.42 66.1483 155 67.9548 155 70C155 72.0452 155.42 73.8517 156.075 75.2403C156.737 76.6466 157.596 77.5387 158.413 77.9092C159.223 78.2766 160.235 78.6116 161.849 78.5593C161.365 78.0701 160.943 77.4849 160.59 76.8495C159.588 75.0461 159 72.6224 159 69.9999C159 67.3774 159.588 64.9537 160.59 63.1503C160.943 62.5151 161.365 61.9299 161.849 61.4408C160.235 61.3885 159.223 61.7234 158.413 62.0908ZM165 61.9999C164.147 61.9999 163.165 62.6338 162.339 64.1216C161.531 65.5755 161 67.6519 161 69.9999C161 72.348 161.531 74.4243 162.339 75.8782C163.165 77.366 164.147 77.9999 165 77.9999C165.853 77.9999 166.835 77.366 167.661 75.8782C168.469 74.4243 169 72.348 169 69.9999C169 67.6519 168.469 65.5755 167.661 64.1216C166.835 62.6338 165.853 61.9999 165 61.9999ZM165 65.9999C165.997 65.9999 166.63 66.7822 166.955 67.4314C167.31 68.1404 167.5 69.0499 167.5 69.9999C167.5 70.9499 167.31 71.8594 166.955 72.5685C166.63 73.2176 165.997 73.9999 165 73.9999C164.003 73.9999 163.37 73.2176 163.045 72.5685C162.69 71.8594 162.5 70.9499 162.5 69.9999C162.5 69.0499 162.69 68.1404 163.045 67.4314C163.37 66.7822 164.003 65.9999 165 65.9999ZM165 68.0603C164.958 68.1103 164.9 68.1926 164.834 68.3258C164.645 68.7026 164.5 69.2931 164.5 69.9999C164.5 70.7068 164.645 71.2972 164.834 71.674C164.9 71.8073 164.958 71.8896 165 71.9395C165.042 71.8896 165.1 71.8073 165.166 71.674C165.355 71.2972 165.5 70.7068 165.5 69.9999C165.5 69.2931 165.355 68.7026 165.166 68.3258C165.1 68.1926 165.042 68.1103 165 68.0603Z" fill="#006E2B"/>
</g>
<rect width="24" height="24" transform="translate(166 81)" fill="white" style="mix-blend-mode:multiply"/>
<path fill-rule="evenodd" clip-rule="evenodd" d="M172.831 97.4731C172.553 97.0969 172.215 96.3277 171.614 95.394C171.274 94.8658 170.429 93.8713 170.178 93.3662C169.96 92.9198 169.983 92.7196 170.035 92.3497C170.127 91.6916 170.757 91.1792 171.429 91.2483C171.937 91.2997 172.368 91.6591 172.755 91.9987C172.989 92.203 173.277 92.6002 173.45 92.8244C173.609 93.0298 173.649 93.1147 173.819 93.3578C174.044 93.6795 174.114 93.8388 174.028 93.4846C173.959 92.9649 173.845 92.0773 173.681 91.2924C173.556 90.6971 173.525 90.6039 173.406 90.147C173.28 89.6607 173.215 89.3201 173.097 88.8046C173.015 88.4399 172.867 87.6948 172.827 87.2756C172.771 86.7024 172.742 85.7676 173.085 85.338C173.354 85.0016 173.971 84.9 174.354 85.1074C174.855 85.3789 175.14 86.1585 175.27 86.4698C175.504 87.0294 175.649 87.6759 175.775 88.5248C175.935 89.6052 176.231 91.1048 176.24 91.4202C176.264 91.0335 176.174 90.2193 176.237 89.8483C176.293 89.5119 176.557 89.121 176.888 89.0152C177.168 88.9261 177.496 88.8936 177.784 88.9576C178.091 89.0246 178.414 89.2594 178.534 89.4805C178.888 90.1344 178.895 91.4705 178.91 91.3992C178.994 91.0052 178.979 90.1113 179.188 89.7393C179.325 89.4941 179.674 89.273 179.86 89.2374C180.147 89.1829 180.501 89.1661 180.803 89.229C181.047 89.2803 181.376 89.5905 181.465 89.7393C181.679 90.0998 181.8 91.1194 181.836 91.4768C181.851 91.6245 181.909 91.066 182.123 90.7055C182.52 90.0359 183.926 89.9059 183.98 91.3751C184.004 92.0605 184 92.0291 184 92.4901C184 93.0319 183.988 93.3578 183.96 93.7498C183.93 94.1689 183.846 95.1163 183.724 95.5753C183.64 95.8907 183.361 96.6001 183.086 97.0256C183.086 97.0256 182.035 98.3355 181.92 98.9255C181.805 99.5144 181.843 99.5186 181.821 99.9368C181.798 100.354 181.939 100.903 181.939 100.903C181.939 100.903 181.154 101.012 180.732 100.94C180.349 100.874 179.875 100.058 179.753 99.8089C179.585 99.4652 179.226 99.5312 179.086 99.7848C178.866 100.186 178.392 100.906 178.057 100.951C177.404 101.039 176.048 100.984 174.986 100.972C174.986 100.972 175.167 99.9127 174.764 99.549C174.466 99.2776 173.952 98.7274 173.645 98.4382L172.831 97.4731Z" fill="white" stroke="black" stroke-width="0.75" stroke-linecap="round" stroke-linejoin="round"/>
<path fill-rule="evenodd" clip-rule="evenodd" d="M180.5 97.5V94.5V97.5Z" fill="white"/>
<path d="M180.5 97.5V94.5" stroke="black" stroke-width="0.75" stroke-linecap="round"/>
<path fill-rule="evenodd" clip-rule="evenodd" d="M178.5 97.5V94.5V97.5Z" fill="white"/>
<path d="M178.5 97.5V94.5" stroke="black" stroke-width="0.75" stroke-linecap="round"/>
<path fill-rule="evenodd" clip-rule="evenodd" d="M176.5 94.5V97.5V94.5Z" fill="white"/>
<path d="M176.5 94.5V97.5" stroke="black" stroke-width="0.75" stroke-linecap="round"/>
<rect x="138.5" y="46.5" width="47" height="47" rx="7.5" stroke="#5FBE6E"/>
<rect x="202.5" y="46.5" width="47" height="47" rx="7.5" fill="#5FBE6E"/>
<g clip-path="url(#clip2_427_17769)">
<path fill-rule="evenodd" clip-rule="evenodd" d="M226.616 60.2116L232.493 64.6196C233.08 65.0597 233.08 65.9397 232.493 66.3796L227.667 69.9996L232.493 73.6196C233.08 74.0596 233.08 74.9396 232.493 75.3796L226.616 79.7876C225.95 80.2871 225 79.8118 225 78.9796V71.9996L220.6 75.2996C220.158 75.631 219.531 75.5414 219.2 75.0996C218.869 74.6578 218.958 74.031 219.4 73.6996L224.333 69.9996L219.4 66.2996C218.958 65.9683 218.869 65.3415 219.2 64.8996C219.531 64.4578 220.158 64.3683 220.6 64.6996L225 67.9996V61.0196C225 60.1874 225.95 59.7123 226.616 60.2116ZM227 71.9996V76.9996L230.333 74.4996L227 71.9996ZM227 62.9996V67.9996L230.333 65.4996L227 62.9996Z" fill="white"/>
</g>
<rect x="202.5" y="46.5" width="47" height="47" rx="7.5" stroke="#5FBE6E"/>
<rect x="258.5" y="46.5" width="47" height="47" rx="7.5" fill="#5FBE6E"/>
<g clip-path="url(#clip3_427_17769)">
<path fill-rule="evenodd" clip-rule="evenodd" d="M275 61C273.895 61 273 61.8954 273 63V77C272.448 77 272 77.4477 272 78C272 78.5523 272.448 79 273 79H285C285.552 79 286 78.5523 286 78C286 77.4477 285.552 77 285 77V72H286V74.5C286 75.8807 287.119 77 288.5 77C289.881 77 291 75.8807 291 74.5V68.4142C291 67.8838 290.789 67.3751 290.414 67L287.707 64.2929C287.317 63.9024 286.683 63.9024 286.293 64.2929C285.902 64.6834 285.902 65.3166 286.293 65.7071L286.336 65.75L286.293 65.7929C285.902 66.1834 285.902 66.8166 286.293 67.2071C286.683 67.5976 287.317 67.5976 287.707 67.2071L287.75 67.1642L289 68.4142V74.5C289 74.7761 288.776 75 288.5 75C288.224 75 288 74.7761 288 74.5V72C288 70.8954 287.105 70 286 70H285V63C285 61.8954 284.105 61 283 61H275ZM283 77V63H275V77H283ZM279.894 66.4474C280.141 65.9535 279.941 65.3528 279.447 65.1058C278.953 64.8588 278.353 65.059 278.106 65.553L276.113 69.5385C275.777 70.21 276.265 71.0002 277.016 71.0002H279.382L278.106 73.553C277.859 74.047 278.059 74.6476 278.553 74.8946C279.047 75.1416 279.647 74.9414 279.894 74.4474L281.887 70.4619C282.223 69.7903 281.735 69.0002 280.984 69.0002H278.618L279.894 66.4474Z" fill="white"/>
</g>
<rect x="258.5" y="46.5" width="47" height="47" rx="7.5" stroke="#5FBE6E"/>
</g>
<defs>
<linearGradient id="paint0_linear_427_17769" x1="106" y1="16" x2="106" y2="64" gradientUnits="userSpaceOnUse">
<stop stop-color="#F2F6F7"/>
<stop offset="1" stop-color="#ECF0F1"/>
</linearGradient>
<linearGradient id="paint1_linear_427_17769" x1="106" y1="16" x2="119.447" y2="59.8792" gradientUnits="userSpaceOnUse">
<stop stop-color="#F2F6F7"/>
<stop offset="1" stop-color="#DAE2E4"/>
</linearGradient>
<linearGradient id="paint2_linear_427_17769" x1="378" y1="124" x2="378" y2="172" gradientUnits="userSpaceOnUse">
<stop stop-color="#F2F6F7"/>
<stop offset="1" stop-color="#ECF0F1"/>
</linearGradient>
<linearGradient id="paint3_linear_427_17769" x1="378" y1="124" x2="391.447" y2="167.879" gradientUnits="userSpaceOnUse">
<stop stop-color="#F2F6F7"/>
<stop offset="1" stop-color="#DAE2E4"/>
</linearGradient>
<linearGradient id="paint4_linear_427_17769" x1="50" y1="16" x2="50" y2="64" gradientUnits="userSpaceOnUse">
<stop stop-color="#F2F6F7"/>
<stop offset="1" stop-color="#ECF0F1"/>
</linearGradient>
<linearGradient id="paint5_linear_427_17769" x1="50" y1="16" x2="63.4021" y2="59.9094" gradientUnits="userSpaceOnUse">
<stop stop-color="#F2F6F7"/>
<stop offset="1" stop-color="#DAE2E4"/>
</linearGradient>
<linearGradient id="paint6_linear_427_17769" x1="434" y1="124" x2="434" y2="172" gradientUnits="userSpaceOnUse">
<stop stop-color="#F2F6F7"/>
<stop offset="1" stop-color="#ECF0F1"/>
</linearGradient>
<linearGradient id="paint7_linear_427_17769" x1="434" y1="124" x2="447.447" y2="167.879" gradientUnits="userSpaceOnUse">
<stop stop-color="#F2F6F7"/>
<stop offset="1" stop-color="#DAE2E4"/>
</linearGradient>
<linearGradient id="paint8_linear_427_17769" x1="-6" y1="16" x2="-6" y2="64" gradientUnits="userSpaceOnUse">
<stop stop-color="#F2F6F7"/>
<stop offset="1" stop-color="#ECF0F1"/>
</linearGradient>
<linearGradient id="paint9_linear_427_17769" x1="-6" y1="16" x2="7.40207" y2="59.9094" gradientUnits="userSpaceOnUse">
<stop stop-color="#F2F6F7"/>
<stop offset="1" stop-color="#DAE2E4"/>
</linearGradient>
<linearGradient id="paint10_linear_427_17769" x1="490" y1="124" x2="490" y2="172" gradientUnits="userSpaceOnUse">
<stop stop-color="#F2F6F7"/>
<stop offset="1" stop-color="#ECF0F1"/>
</linearGradient>
<linearGradient id="paint11_linear_427_17769" x1="490" y1="124" x2="503.447" y2="167.879" gradientUnits="userSpaceOnUse">
<stop stop-color="#F2F6F7"/>
<stop offset="1" stop-color="#DAE2E4"/>
</linearGradient>
<linearGradient id="paint12_linear_427_17769" x1="162" y1="16" x2="162" y2="64" gradientUnits="userSpaceOnUse">
<stop stop-color="#F2F6F7"/>
<stop offset="1" stop-color="#ECF0F1"/>
</linearGradient>
<linearGradient id="paint13_linear_427_17769" x1="162" y1="16" x2="175.269" y2="59.9982" gradientUnits="userSpaceOnUse">
<stop stop-color="#F2F6F7"/>
<stop offset="1" stop-color="#DAE2E4"/>
</linearGradient>
<linearGradient id="paint14_linear_427_17769" x1="322" y1="124" x2="322" y2="172" gradientUnits="userSpaceOnUse">
<stop stop-color="#F2F6F7"/>
<stop offset="1" stop-color="#ECF0F1"/>
</linearGradient>
<linearGradient id="paint15_linear_427_17769" x1="322" y1="124" x2="335.447" y2="167.879" gradientUnits="userSpaceOnUse">
<stop stop-color="#F2F6F7"/>
<stop offset="1" stop-color="#DAE2E4"/>
</linearGradient>
<linearGradient id="paint16_linear_427_17769" x1="218" y1="16" x2="218" y2="64" gradientUnits="userSpaceOnUse">
<stop stop-color="#F2F6F7"/>
<stop offset="1" stop-color="#ECF0F1"/>
</linearGradient>
<linearGradient id="paint17_linear_427_17769" x1="218" y1="16" x2="231.269" y2="59.9982" gradientUnits="userSpaceOnUse">
<stop stop-color="#F2F6F7"/>
<stop offset="1" stop-color="#DAE2E4"/>
</linearGradient>
<linearGradient id="paint18_linear_427_17769" x1="266" y1="124" x2="266" y2="172" gradientUnits="userSpaceOnUse">
<stop stop-color="#F2F6F7"/>
<stop offset="1" stop-color="#ECF0F1"/>
</linearGradient>
<linearGradient id="paint19_linear_427_17769" x1="266" y1="124" x2="279.447" y2="167.879" gradientUnits="userSpaceOnUse">
<stop stop-color="#F2F6F7"/>
<stop offset="1" stop-color="#DAE2E4"/>
</linearGradient>
<linearGradient id="paint20_linear_427_17769" x1="274" y1="16" x2="274" y2="64" gradientUnits="userSpaceOnUse">
<stop stop-color="#F2F6F7"/>
<stop offset="1" stop-color="#ECF0F1"/>
</linearGradient>
<linearGradient id="paint21_linear_427_17769" x1="274" y1="16" x2="287.447" y2="59.8792" gradientUnits="userSpaceOnUse">
<stop stop-color="#F2F6F7"/>
<stop offset="1" stop-color="#DAE2E4"/>
</linearGradient>
<linearGradient id="paint22_linear_427_17769" x1="210" y1="124" x2="210" y2="172" gradientUnits="userSpaceOnUse">
<stop stop-color="#F2F6F7"/>
<stop offset="1" stop-color="#ECF0F1"/>
</linearGradient>
<linearGradient id="paint23_linear_427_17769" x1="210" y1="124" x2="223.269" y2="167.998" gradientUnits="userSpaceOnUse">
<stop stop-color="#F2F6F7"/>
<stop offset="1" stop-color="#DAE2E4"/>
</linearGradient>
<linearGradient id="paint24_linear_427_17769" x1="330" y1="16" x2="330" y2="64" gradientUnits="userSpaceOnUse">
<stop stop-color="#F2F6F7"/>
<stop offset="1" stop-color="#ECF0F1"/>
</linearGradient>
<linearGradient id="paint25_linear_427_17769" x1="330" y1="16" x2="343.447" y2="59.8792" gradientUnits="userSpaceOnUse">
<stop stop-color="#F2F6F7"/>
<stop offset="1" stop-color="#DAE2E4"/>
</linearGradient>
<linearGradient id="paint26_linear_427_17769" x1="154" y1="124" x2="154" y2="172" gradientUnits="userSpaceOnUse">
<stop stop-color="#F2F6F7"/>
<stop offset="1" stop-color="#ECF0F1"/>
</linearGradient>
<linearGradient id="paint27_linear_427_17769" x1="154" y1="124" x2="167.269" y2="167.998" gradientUnits="userSpaceOnUse">
<stop stop-color="#F2F6F7"/>
<stop offset="1" stop-color="#DAE2E4"/>
</linearGradient>
<linearGradient id="paint28_linear_427_17769" x1="386" y1="16" x2="386" y2="64" gradientUnits="userSpaceOnUse">
<stop stop-color="#F2F6F7"/>
<stop offset="1" stop-color="#ECF0F1"/>
</linearGradient>
<linearGradient id="paint29_linear_427_17769" x1="386" y1="16" x2="399.447" y2="59.8792" gradientUnits="userSpaceOnUse">
<stop stop-color="#F2F6F7"/>
<stop offset="1" stop-color="#DAE2E4"/>
</linearGradient>
<linearGradient id="paint30_linear_427_17769" x1="98" y1="124" x2="98" y2="172" gradientUnits="userSpaceOnUse">
<stop stop-color="#F2F6F7"/>
<stop offset="1" stop-color="#ECF0F1"/>
</linearGradient>
<linearGradient id="paint31_linear_427_17769" x1="98" y1="124" x2="111.447" y2="167.879" gradientUnits="userSpaceOnUse">
<stop stop-color="#F2F6F7"/>
<stop offset="1" stop-color="#DAE2E4"/>
</linearGradient>
<linearGradient id="paint32_linear_427_17769" x1="442" y1="16" x2="442" y2="64" gradientUnits="userSpaceOnUse">
<stop stop-color="#F2F6F7"/>
<stop offset="1" stop-color="#ECF0F1"/>
</linearGradient>
<linearGradient id="paint33_linear_427_17769" x1="442" y1="16" x2="455.447" y2="59.8792" gradientUnits="userSpaceOnUse">
<stop stop-color="#F2F6F7"/>
<stop offset="1" stop-color="#DAE2E4"/>
</linearGradient>
<linearGradient id="paint34_linear_427_17769" x1="42" y1="124" x2="42" y2="172" gradientUnits="userSpaceOnUse">
<stop stop-color="#F2F6F7"/>
<stop offset="1" stop-color="#ECF0F1"/>
</linearGradient>
<linearGradient id="paint35_linear_427_17769" x1="42" y1="124" x2="55.4021" y2="167.909" gradientUnits="userSpaceOnUse">
<stop stop-color="#F2F6F7"/>
<stop offset="1" stop-color="#DAE2E4"/>
</linearGradient>
<clipPath id="clip0_427_17769">
<rect width="435" height="172" fill="white"/>
</clipPath>
<clipPath id="clip1_427_17769">
<rect width="24" height="24" fill="white" transform="translate(150 58)"/>
</clipPath>
<clipPath id="clip2_427_17769">
<rect width="24" height="24" fill="white" transform="translate(214 58)"/>
</clipPath>
<clipPath id="clip3_427_17769">
<rect width="24" height="24" fill="white" transform="translate(270 58)"/>
</clipPath>
</defs>
</svg>
