<svg width="462" height="164" viewBox="0 0 462 164" fill="none" xmlns="http://www.w3.org/2000/svg">
<g clip-path="url(#clip0_568_12966)">
<path d="M495 182.5L381 182.5C376.858 182.5 373.5 179.142 373.5 175L373.5 147C373.5 142.858 376.858 139.5 381 139.5L495 139.5C499.142 139.5 502.5 142.858 502.5 147L502.5 175C502.5 179.142 499.142 182.5 495 182.5Z" fill="url(#paint0_linear_568_12966)"/>
<path d="M495 182.5L381 182.5C376.858 182.5 373.5 179.142 373.5 175L373.5 147C373.5 142.858 376.858 139.5 381 139.5L495 139.5C499.142 139.5 502.5 142.858 502.5 147L502.5 175C502.5 179.142 499.142 182.5 495 182.5Z" stroke="url(#paint1_linear_568_12966)"/>
<path d="M357 182.5L243 182.5C238.858 182.5 235.5 179.142 235.5 175L235.5 147C235.5 142.858 238.858 139.5 243 139.5L357 139.5C361.142 139.5 364.5 142.858 364.5 147L364.5 175C364.5 179.142 361.142 182.5 357 182.5Z" fill="url(#paint2_linear_568_12966)"/>
<path d="M357 182.5L243 182.5C238.858 182.5 235.5 179.142 235.5 175L235.5 147C235.5 142.858 238.858 139.5 243 139.5L357 139.5C361.142 139.5 364.5 142.858 364.5 147L364.5 175C364.5 179.142 361.142 182.5 357 182.5Z" stroke="url(#paint3_linear_568_12966)"/>
<path d="M219 182.5L105 182.5C100.858 182.5 97.5 179.142 97.5 175L97.5 147C97.5 142.858 100.858 139.5 105 139.5L219 139.5C223.142 139.5 226.5 142.858 226.5 147L226.5 175C226.5 179.142 223.142 182.5 219 182.5Z" fill="url(#paint4_linear_568_12966)"/>
<path d="M219 182.5L105 182.5C100.858 182.5 97.5 179.142 97.5 175L97.5 147C97.5 142.858 100.858 139.5 105 139.5L219 139.5C223.142 139.5 226.5 142.858 226.5 147L226.5 175C226.5 179.142 223.142 182.5 219 182.5Z" stroke="url(#paint5_linear_568_12966)"/>
<path d="M81 182.5L-33 182.5C-37.1421 182.5 -40.5 179.142 -40.5 175L-40.5 147C-40.5 142.858 -37.1421 139.5 -33 139.5L81 139.5C85.1421 139.5 88.5 142.858 88.5 147L88.5 175C88.5 179.142 85.1421 182.5 81 182.5Z" fill="url(#paint6_linear_568_12966)"/>
<path d="M81 182.5L-33 182.5C-37.1421 182.5 -40.5 179.142 -40.5 175L-40.5 147C-40.5 142.858 -37.1421 139.5 -33 139.5L81 139.5C85.1421 139.5 88.5 142.858 88.5 147L88.5 175C88.5 179.142 85.1421 182.5 81 182.5Z" stroke="url(#paint7_linear_568_12966)"/>
<g clip-path="url(#clip1_568_12966)">
<path fill-rule="evenodd" clip-rule="evenodd" d="M83.8011 46.8837C86.3211 45.8749 89.3122 46.3893 91.3558 48.4329C93.2555 50.3326 93.8338 53.051 93.0955 55.4485L97.4898 59.1667C99.1692 60.5878 99.2754 63.1407 97.7198 64.6964C96.1641 66.252 93.6112 66.1458 92.1901 64.4664L88.4719 60.0721C86.0744 60.8104 83.356 60.2321 81.4563 58.3324C79.4126 56.2886 78.8982 53.2972 79.9074 50.7771C80.2653 49.8833 81.3868 49.7704 81.9708 50.4046L85.172 53.882L86.6185 53.5944L86.9077 52.1459L83.4291 48.9477C82.7942 48.3639 82.9069 47.2418 83.8011 46.8837ZM85.8082 48.4181L88.5718 50.959C88.893 51.2544 89.037 51.6959 88.9516 52.1239L88.4818 54.4771C88.3829 54.9726 87.9953 55.3599 87.4997 55.4584L85.1491 55.9257C84.7217 56.0107 84.2809 55.8669 83.9857 55.5463L81.4418 52.7829C81.265 54.2552 81.7421 55.7898 82.8705 56.9182C84.3224 58.3701 86.4467 58.7438 88.2456 58.0336C88.7295 57.8425 89.3074 57.9632 89.6672 58.3885L93.7169 63.1745C94.3822 63.9607 95.5773 64.0104 96.3056 63.2821C97.0338 62.5539 96.9841 61.3588 96.1979 60.6935L91.4119 56.6438C90.9866 56.284 90.8659 55.7061 91.057 55.2222C91.7673 53.4233 91.3935 51.299 89.9416 49.8471C88.8137 48.7192 87.2799 48.2419 85.8082 48.4181Z" fill="black"/>
</g>
<path d="M59.372 103V93.2H65.546V94.656H60.884V101.544H65.546V103H59.372ZM60.058 98.702V97.246H64.776V98.702H60.058ZM67.6076 103V95.65H69.0496V97.162L68.7976 97.33C68.8909 97.0033 69.0729 96.7047 69.3436 96.434C69.6143 96.154 69.9363 95.93 70.3096 95.762C70.6829 95.5847 71.0656 95.496 71.4576 95.496C72.0176 95.496 72.4843 95.608 72.8576 95.832C73.2309 96.0467 73.5109 96.378 73.6976 96.826C73.8843 97.274 73.9776 97.8387 73.9776 98.52V103H72.5356V98.618C72.5356 98.198 72.4796 97.8527 72.3676 97.582C72.2556 97.302 72.0829 97.1013 71.8496 96.98C71.6163 96.8493 71.3269 96.7933 70.9816 96.812C70.7016 96.812 70.4449 96.8587 70.2116 96.952C69.9783 97.036 69.7729 97.1573 69.5956 97.316C69.4276 97.4747 69.2923 97.6613 69.1896 97.876C69.0963 98.0813 69.0496 98.3053 69.0496 98.548V103H68.3356C68.2143 103 68.0929 103 67.9716 103C67.8503 103 67.7289 103 67.6076 103ZM76.8438 103V93.774H78.2858V103H76.8438ZM75.3178 97.05V95.65H79.9938V97.05H75.3178ZM81.3068 103V95.65H82.7628V97.96L82.6228 97.4C82.7255 97.0453 82.8982 96.7233 83.1408 96.434C83.3928 96.1447 83.6775 95.916 83.9948 95.748C84.3215 95.58 84.6575 95.496 85.0028 95.496C85.1615 95.496 85.3108 95.51 85.4508 95.538C85.6002 95.566 85.7168 95.5987 85.8008 95.636L85.4228 97.204C85.3108 97.1573 85.1848 97.12 85.0448 97.092C84.9142 97.0547 84.7835 97.036 84.6528 97.036C84.4008 97.036 84.1582 97.0873 83.9248 97.19C83.7008 97.2833 83.5002 97.4187 83.3228 97.596C83.1548 97.764 83.0195 97.9647 82.9168 98.198C82.8142 98.422 82.7628 98.6693 82.7628 98.94V103H81.3068ZM90.0689 103.14C89.3129 103.14 88.6409 102.981 88.0529 102.664C87.4742 102.337 87.0169 101.894 86.6809 101.334C86.3542 100.774 86.1909 100.13 86.1909 99.402C86.1909 98.8233 86.2842 98.296 86.4709 97.82C86.6575 97.344 86.9142 96.9333 87.2409 96.588C87.5769 96.2333 87.9735 95.9627 88.4309 95.776C88.8975 95.58 89.4015 95.482 89.9429 95.482C90.4189 95.482 90.8622 95.5753 91.2729 95.762C91.6835 95.9393 92.0382 96.1867 92.3369 96.504C92.6449 96.8213 92.8782 97.1993 93.0369 97.638C93.2049 98.0673 93.2842 98.5387 93.2749 99.052L93.2609 99.668H87.2549L86.9329 98.52H92.0149L91.8049 98.758V98.422C91.7769 98.114 91.6742 97.8387 91.4969 97.596C91.3195 97.3533 91.0955 97.162 90.8249 97.022C90.5542 96.882 90.2602 96.812 89.9429 96.812C89.4389 96.812 89.0142 96.91 88.6689 97.106C88.3235 97.2927 88.0622 97.5727 87.8849 97.946C87.7075 98.31 87.6189 98.7627 87.6189 99.304C87.6189 99.8173 87.7262 100.265 87.9409 100.648C88.1555 101.021 88.4589 101.311 88.8509 101.516C89.2429 101.721 89.6955 101.824 90.2089 101.824C90.5729 101.824 90.9089 101.763 91.2169 101.642C91.5342 101.521 91.8749 101.301 92.2389 100.984L92.9669 102.006C92.7429 102.23 92.4675 102.426 92.1409 102.594C91.8235 102.762 91.4829 102.897 91.1189 103C90.7642 103.093 90.4142 103.14 90.0689 103.14ZM95.752 103V93.774H97.194V103H95.752ZM94.226 97.05V95.65H98.902V97.05H94.226ZM100.453 103V95.65H101.895V103H100.453ZM101.153 94.026C100.845 94.026 100.607 93.9467 100.439 93.788C100.271 93.6293 100.187 93.4053 100.187 93.116C100.187 92.8453 100.271 92.626 100.439 92.458C100.616 92.29 100.854 92.206 101.153 92.206C101.461 92.206 101.699 92.2853 101.867 92.444C102.035 92.6027 102.119 92.8267 102.119 93.116C102.119 93.3867 102.03 93.606 101.853 93.774C101.685 93.942 101.452 94.026 101.153 94.026ZM107.542 103.14C106.786 103.14 106.114 102.981 105.526 102.664C104.947 102.337 104.49 101.894 104.154 101.334C103.827 100.774 103.664 100.13 103.664 99.402C103.664 98.8233 103.757 98.296 103.944 97.82C104.13 97.344 104.387 96.9333 104.714 96.588C105.05 96.2333 105.446 95.9627 105.904 95.776C106.37 95.58 106.874 95.482 107.416 95.482C107.892 95.482 108.335 95.5753 108.746 95.762C109.156 95.9393 109.511 96.1867 109.81 96.504C110.118 96.8213 110.351 97.1993 110.51 97.638C110.678 98.0673 110.757 98.5387 110.748 99.052L110.734 99.668H104.728L104.406 98.52H109.488L109.278 98.758V98.422C109.25 98.114 109.147 97.8387 108.97 97.596C108.792 97.3533 108.568 97.162 108.298 97.022C108.027 96.882 107.733 96.812 107.416 96.812C106.912 96.812 106.487 96.91 106.142 97.106C105.796 97.2927 105.535 97.5727 105.358 97.946C105.18 98.31 105.092 98.7627 105.092 99.304C105.092 99.8173 105.199 100.265 105.414 100.648C105.628 101.021 105.932 101.311 106.324 101.516C106.716 101.721 107.168 101.824 107.682 101.824C108.046 101.824 108.382 101.763 108.69 101.642C109.007 101.521 109.348 101.301 109.712 100.984L110.44 102.006C110.216 102.23 109.94 102.426 109.614 102.594C109.296 102.762 108.956 102.897 108.592 103C108.237 103.093 107.887 103.14 107.542 103.14ZM112.315 103V95.65H113.757V97.162L113.505 97.33C113.598 97.0033 113.78 96.7047 114.051 96.434C114.321 96.154 114.643 95.93 115.017 95.762C115.39 95.5847 115.773 95.496 116.165 95.496C116.725 95.496 117.191 95.608 117.565 95.832C117.938 96.0467 118.218 96.378 118.405 96.826C118.591 97.274 118.685 97.8387 118.685 98.52V103H117.243V98.618C117.243 98.198 117.187 97.8527 117.075 97.582C116.963 97.302 116.79 97.1013 116.557 96.98C116.323 96.8493 116.034 96.7933 115.689 96.812C115.409 96.812 115.152 96.8587 114.919 96.952C114.685 97.036 114.48 97.1573 114.303 97.316C114.135 97.4747 113.999 97.6613 113.897 97.876C113.803 98.0813 113.757 98.3053 113.757 98.548V103H113.043C112.921 103 112.8 103 112.679 103C112.557 103 112.436 103 112.315 103Z" fill="#676767"/>
<rect x="24.5" y="24.5" width="129" height="103" rx="11.5" stroke="#C3C9CB"/>
<rect x="162.5" y="24.5" width="129" height="103" rx="11.5" fill="#FF6E41"/>
<g clip-path="url(#clip2_568_12966)">
<path fill-rule="evenodd" clip-rule="evenodd" d="M220 53C220 49.134 223.134 46 227 46C230.866 46 234 49.134 234 53V54.0354C235.696 54.2781 237 55.7368 237 57.5V57.75C237 59.5449 235.545 61 233.75 61C233.722 61 233.695 60.9994 233.668 60.9981C232.927 63.118 231.046 64.5467 229.015 64.9093C228.546 65.0808 227.989 65 227.5 65C226.672 65 226 64.3284 226 63.5C226 62.6716 226.672 62 227.5 62H228.5C228.995 62 229.433 62.2394 229.707 62.6086C231.003 61.9919 232 60.6885 232 59V53C232 50.2386 229.761 48 227 48C224.239 48 222 50.2386 222 53V59.25C222 60.2165 221.216 61 220.25 61C218.455 61 217 59.5449 217 57.75V57.5C217 55.7368 218.304 54.2781 220 54.0354V53ZM220 56.0854C219.417 56.2913 219 56.8469 219 57.5V57.75C219 58.3547 219.429 58.8592 220 58.975V56.0854ZM234 56.0854V58.975C234.571 58.8592 235 58.3547 235 57.75V57.5C235 56.8469 234.583 56.2913 234 56.0854Z" fill="black"/>
</g>
<path d="M194.35 103L198.144 93.2H199.684L203.45 103H201.84L199.6 97.092C199.572 97.0267 199.516 96.868 199.432 96.616C199.357 96.364 199.269 96.084 199.166 95.776C199.063 95.468 198.97 95.188 198.886 94.936C198.802 94.6747 198.746 94.5067 198.718 94.432L199.04 94.418C198.984 94.5767 198.914 94.7773 198.83 95.02C198.755 95.2627 198.671 95.5193 198.578 95.79C198.494 96.0607 198.41 96.3173 198.326 96.56C198.242 96.7933 198.172 96.9893 198.116 97.148L195.89 103H194.35ZM196.03 100.564L196.59 99.108H201.042L201.686 100.564H196.03ZM207.261 103.14C206.645 103.14 206.089 103.033 205.595 102.818C205.1 102.603 204.689 102.286 204.363 101.866L205.343 101.026C205.623 101.353 205.926 101.591 206.253 101.74C206.589 101.88 206.967 101.95 207.387 101.95C207.555 101.95 207.709 101.931 207.849 101.894C207.998 101.847 208.124 101.782 208.227 101.698C208.339 101.614 208.423 101.516 208.479 101.404C208.535 101.283 208.563 101.152 208.563 101.012C208.563 100.769 208.474 100.573 208.297 100.424C208.203 100.359 208.054 100.289 207.849 100.214C207.653 100.13 207.396 100.046 207.079 99.962C206.537 99.822 206.094 99.6633 205.749 99.486C205.403 99.3087 205.137 99.108 204.951 98.884C204.811 98.7067 204.708 98.5153 204.643 98.31C204.577 98.0953 204.545 97.862 204.545 97.61C204.545 97.302 204.61 97.022 204.741 96.77C204.881 96.5087 205.067 96.2847 205.301 96.098C205.543 95.902 205.823 95.7527 206.141 95.65C206.467 95.5473 206.813 95.496 207.177 95.496C207.522 95.496 207.863 95.5427 208.199 95.636C208.544 95.7293 208.861 95.8647 209.151 96.042C209.44 96.2193 209.683 96.4293 209.879 96.672L209.053 97.582C208.875 97.4047 208.679 97.2507 208.465 97.12C208.259 96.98 208.049 96.8727 207.835 96.798C207.62 96.7233 207.424 96.686 207.247 96.686C207.051 96.686 206.873 96.7047 206.715 96.742C206.556 96.7793 206.421 96.8353 206.309 96.91C206.206 96.9847 206.127 97.078 206.071 97.19C206.015 97.302 205.987 97.428 205.987 97.568C205.996 97.6893 206.024 97.806 206.071 97.918C206.127 98.0207 206.201 98.1093 206.295 98.184C206.397 98.2587 206.551 98.338 206.757 98.422C206.962 98.506 207.223 98.5853 207.541 98.66C208.007 98.7813 208.39 98.9167 208.689 99.066C208.997 99.206 209.239 99.3693 209.417 99.556C209.603 99.7333 209.734 99.9387 209.809 100.172C209.883 100.405 209.921 100.667 209.921 100.956C209.921 101.376 209.799 101.754 209.557 102.09C209.323 102.417 209.006 102.673 208.605 102.86C208.203 103.047 207.755 103.14 207.261 103.14ZM213.96 103.14C213.344 103.14 212.789 103.033 212.294 102.818C211.799 102.603 211.389 102.286 211.062 101.866L212.042 101.026C212.322 101.353 212.625 101.591 212.952 101.74C213.288 101.88 213.666 101.95 214.086 101.95C214.254 101.95 214.408 101.931 214.548 101.894C214.697 101.847 214.823 101.782 214.926 101.698C215.038 101.614 215.122 101.516 215.178 101.404C215.234 101.283 215.262 101.152 215.262 101.012C215.262 100.769 215.173 100.573 214.996 100.424C214.903 100.359 214.753 100.289 214.548 100.214C214.352 100.13 214.095 100.046 213.778 99.962C213.237 99.822 212.793 99.6633 212.448 99.486C212.103 99.3087 211.837 99.108 211.65 98.884C211.51 98.7067 211.407 98.5153 211.342 98.31C211.277 98.0953 211.244 97.862 211.244 97.61C211.244 97.302 211.309 97.022 211.44 96.77C211.58 96.5087 211.767 96.2847 212 96.098C212.243 95.902 212.523 95.7527 212.84 95.65C213.167 95.5473 213.512 95.496 213.876 95.496C214.221 95.496 214.562 95.5427 214.898 95.636C215.243 95.7293 215.561 95.8647 215.85 96.042C216.139 96.2193 216.382 96.4293 216.578 96.672L215.752 97.582C215.575 97.4047 215.379 97.2507 215.164 97.12C214.959 96.98 214.749 96.8727 214.534 96.798C214.319 96.7233 214.123 96.686 213.946 96.686C213.75 96.686 213.573 96.7047 213.414 96.742C213.255 96.7793 213.12 96.8353 213.008 96.91C212.905 96.9847 212.826 97.078 212.77 97.19C212.714 97.302 212.686 97.428 212.686 97.568C212.695 97.6893 212.723 97.806 212.77 97.918C212.826 98.0207 212.901 98.1093 212.994 98.184C213.097 98.2587 213.251 98.338 213.456 98.422C213.661 98.506 213.923 98.5853 214.24 98.66C214.707 98.7813 215.089 98.9167 215.388 99.066C215.696 99.206 215.939 99.3693 216.116 99.556C216.303 99.7333 216.433 99.9387 216.508 100.172C216.583 100.405 216.62 100.667 216.62 100.956C216.62 101.376 216.499 101.754 216.256 102.09C216.023 102.417 215.705 102.673 215.304 102.86C214.903 103.047 214.455 103.14 213.96 103.14ZM218.447 103V95.65H219.889V103H218.447ZM219.147 94.026C218.839 94.026 218.601 93.9467 218.433 93.788C218.265 93.6293 218.181 93.4053 218.181 93.116C218.181 92.8453 218.265 92.626 218.433 92.458C218.611 92.29 218.849 92.206 219.147 92.206C219.455 92.206 219.693 92.2853 219.861 92.444C220.029 92.6027 220.113 92.8267 220.113 93.116C220.113 93.3867 220.025 93.606 219.847 93.774C219.679 93.942 219.446 94.026 219.147 94.026ZM223.016 103V93.774H224.458V103H223.016ZM221.49 97.05V95.65H226.166V97.05H221.49ZM230.238 103.14C229.632 103.14 229.076 102.972 228.572 102.636C228.078 102.3 227.681 101.843 227.382 101.264C227.084 100.685 226.934 100.032 226.934 99.304C226.934 98.5667 227.084 97.9133 227.382 97.344C227.69 96.7653 228.101 96.3127 228.614 95.986C229.137 95.6593 229.72 95.496 230.364 95.496C230.747 95.496 231.097 95.552 231.414 95.664C231.732 95.776 232.007 95.9347 232.24 96.14C232.483 96.336 232.679 96.5647 232.828 96.826C232.987 97.0873 233.085 97.3673 233.122 97.666L232.8 97.554V95.65H234.256V103H232.8V101.25L233.136 101.152C233.08 101.404 232.964 101.651 232.786 101.894C232.618 102.127 232.399 102.337 232.128 102.524C231.867 102.711 231.573 102.86 231.246 102.972C230.929 103.084 230.593 103.14 230.238 103.14ZM230.616 101.81C231.055 101.81 231.442 101.703 231.778 101.488C232.114 101.273 232.376 100.979 232.562 100.606C232.758 100.223 232.856 99.7893 232.856 99.304C232.856 98.828 232.758 98.4033 232.562 98.03C232.376 97.6567 232.114 97.3627 231.778 97.148C231.442 96.9333 231.055 96.826 230.616 96.826C230.187 96.826 229.804 96.9333 229.468 97.148C229.142 97.3627 228.88 97.6567 228.684 98.03C228.498 98.4033 228.404 98.828 228.404 99.304C228.404 99.7893 228.498 100.223 228.684 100.606C228.88 100.979 229.142 101.273 229.468 101.488C229.804 101.703 230.187 101.81 230.616 101.81ZM236.27 103V95.65H237.712V97.162L237.46 97.33C237.553 97.0033 237.735 96.7047 238.006 96.434C238.276 96.154 238.598 95.93 238.972 95.762C239.345 95.5847 239.728 95.496 240.12 95.496C240.68 95.496 241.146 95.608 241.52 95.832C241.893 96.0467 242.173 96.378 242.36 96.826C242.546 97.274 242.64 97.8387 242.64 98.52V103H241.198V98.618C241.198 98.198 241.142 97.8527 241.03 97.582C240.918 97.302 240.745 97.1013 240.512 96.98C240.278 96.8493 239.989 96.7933 239.644 96.812C239.364 96.812 239.107 96.8587 238.874 96.952C238.64 97.036 238.435 97.1573 238.258 97.316C238.09 97.4747 237.954 97.6613 237.852 97.876C237.758 98.0813 237.712 98.3053 237.712 98.548V103H236.998C236.876 103 236.755 103 236.634 103C236.512 103 236.391 103 236.27 103ZM247.718 103.14C247.037 103.14 246.425 102.972 245.884 102.636C245.352 102.3 244.927 101.843 244.61 101.264C244.302 100.685 244.148 100.037 244.148 99.318C244.148 98.5993 244.302 97.9507 244.61 97.372C244.927 96.7933 245.352 96.336 245.884 96C246.425 95.664 247.037 95.496 247.718 95.496C248.371 95.496 248.964 95.6313 249.496 95.902C250.037 96.1633 250.448 96.5227 250.728 96.98L249.93 97.96C249.781 97.7453 249.589 97.5493 249.356 97.372C249.123 97.1947 248.875 97.0547 248.614 96.952C248.353 96.8493 248.101 96.798 247.858 96.798C247.41 96.798 247.009 96.91 246.654 97.134C246.309 97.3487 246.033 97.6473 245.828 98.03C245.623 98.4127 245.52 98.842 245.52 99.318C245.52 99.794 245.627 100.223 245.842 100.606C246.057 100.979 246.341 101.278 246.696 101.502C247.051 101.726 247.443 101.838 247.872 101.838C248.124 101.838 248.367 101.796 248.6 101.712C248.843 101.628 249.076 101.502 249.3 101.334C249.524 101.166 249.734 100.961 249.93 100.718L250.728 101.698C250.429 102.118 250 102.463 249.44 102.734C248.889 103.005 248.315 103.14 247.718 103.14ZM255.518 103.14C254.762 103.14 254.09 102.981 253.502 102.664C252.923 102.337 252.466 101.894 252.13 101.334C251.803 100.774 251.64 100.13 251.64 99.402C251.64 98.8233 251.733 98.296 251.92 97.82C252.107 97.344 252.363 96.9333 252.69 96.588C253.026 96.2333 253.423 95.9627 253.88 95.776C254.347 95.58 254.851 95.482 255.392 95.482C255.868 95.482 256.311 95.5753 256.722 95.762C257.133 95.9393 257.487 96.1867 257.786 96.504C258.094 96.8213 258.327 97.1993 258.486 97.638C258.654 98.0673 258.733 98.5387 258.724 99.052L258.71 99.668H252.704L252.382 98.52H257.464L257.254 98.758V98.422C257.226 98.114 257.123 97.8387 256.946 97.596C256.769 97.3533 256.545 97.162 256.274 97.022C256.003 96.882 255.709 96.812 255.392 96.812C254.888 96.812 254.463 96.91 254.118 97.106C253.773 97.2927 253.511 97.5727 253.334 97.946C253.157 98.31 253.068 98.7627 253.068 99.304C253.068 99.8173 253.175 100.265 253.39 100.648C253.605 101.021 253.908 101.311 254.3 101.516C254.692 101.721 255.145 101.824 255.658 101.824C256.022 101.824 256.358 101.763 256.666 101.642C256.983 101.521 257.324 101.301 257.688 100.984L258.416 102.006C258.192 102.23 257.917 102.426 257.59 102.594C257.273 102.762 256.932 102.897 256.568 103C256.213 103.093 255.863 103.14 255.518 103.14Z" fill="black"/>
<rect x="162.5" y="24.5" width="129" height="103" rx="11.5" stroke="#FF6E41"/>
<g clip-path="url(#clip3_568_12966)">
<path d="M368.839 48C369.849 48 370.785 48.507 371.339 49.3406L371.444 49.5116L373.438 53H374.6C374.793 53 374.955 53.1371 374.992 53.3194L375 53.4V53.8754C375 54.2058 374.798 54.498 374.498 54.6181L374.37 54.6574C374.745 55.4354 374.912 56.2976 374.854 57.1598L374.827 57.4471L374.102 63.2481C373.983 64.1962 373.213 64.9202 372.275 64.9938L372.117 65H371C369.946 65 369.082 64.1841 369.005 63.1493L369 63H361C361 64.0544 360.184 64.9182 359.149 64.9945L359 65H357.883C356.927 65 356.113 64.3259 355.924 63.404L355.898 63.2481L355.173 57.4471C355.065 56.5859 355.184 55.7154 355.513 54.9197L355.63 54.6574L355.606 54.6515C355.285 54.5714 355.051 54.3042 355.007 53.9839L355 53.8754V53.4C355 53.2067 355.137 53.0454 355.319 53.0081L355.4 53H356.563L358.556 49.5116C359.057 48.6353 359.962 48.0735 360.96 48.0067L361.161 48H368.839ZM372.759 56.0355C372.266 56.5742 371.572 56.9402 370.759 56.9933L370.554 57H359.446C358.545 57 357.775 56.6191 357.241 56.0355C357.158 56.3365 357.123 56.6497 357.138 56.9636L357.158 57.199L357.883 63H359V62C359 61.4872 359.386 61.0645 359.883 61.0067L360 61H370C370.513 61 370.936 61.386 370.993 61.8834L371 62V63H372.117L372.842 57.199C372.891 56.807 372.862 56.4118 372.759 56.0355ZM358.738 57.8983L361.48 59.3793C361.853 59.5808 361.698 60.1479 361.274 60.131L358.96 60.0384C358.424 60.0169 358 59.5759 358 59.0392V58.3382C358 57.9596 358.404 57.7184 358.738 57.8983ZM372 58.3382V59.0392C372 59.5759 371.576 60.0169 371.04 60.0384L368.726 60.131C368.302 60.1479 368.147 59.5808 368.52 59.3793L371.262 57.8983C371.596 57.7184 372 57.9596 372 58.3382ZM368.839 50H361.161C360.802 50 360.47 50.1923 360.292 50.5039L358.578 53.5039C358.198 54.1705 358.679 55 359.446 55H370.554C371.322 55 371.803 54.1705 371.422 53.5039L369.708 50.5039C369.53 50.1923 369.198 50 368.839 50Z" fill="black"/>
</g>
<path d="M340.256 103L336.336 93.2H338.058L340.396 99.15C340.508 99.4393 340.606 99.7007 340.69 99.934C340.783 100.167 340.863 100.382 340.928 100.578C340.993 100.765 341.054 100.942 341.11 101.11C341.166 101.278 341.222 101.446 341.278 101.614L340.914 101.628C340.979 101.404 341.049 101.171 341.124 100.928C341.199 100.685 341.283 100.419 341.376 100.13C341.479 99.8407 341.6 99.514 341.74 99.15L343.91 93.2H345.674L341.726 103H340.256ZM349.612 103.14C348.856 103.14 348.184 102.981 347.596 102.664C347.017 102.337 346.56 101.894 346.224 101.334C345.897 100.774 345.734 100.13 345.734 99.402C345.734 98.8233 345.827 98.296 346.014 97.82C346.2 97.344 346.457 96.9333 346.784 96.588C347.12 96.2333 347.516 95.9627 347.974 95.776C348.44 95.58 348.944 95.482 349.486 95.482C349.962 95.482 350.405 95.5753 350.816 95.762C351.226 95.9393 351.581 96.1867 351.88 96.504C352.188 96.8213 352.421 97.1993 352.58 97.638C352.748 98.0673 352.827 98.5387 352.818 99.052L352.804 99.668H346.798L346.476 98.52H351.558L351.348 98.758V98.422C351.32 98.114 351.217 97.8387 351.04 97.596C350.862 97.3533 350.638 97.162 350.368 97.022C350.097 96.882 349.803 96.812 349.486 96.812C348.982 96.812 348.557 96.91 348.212 97.106C347.866 97.2927 347.605 97.5727 347.428 97.946C347.25 98.31 347.162 98.7627 347.162 99.304C347.162 99.8173 347.269 100.265 347.484 100.648C347.698 101.021 348.002 101.311 348.394 101.516C348.786 101.721 349.238 101.824 349.752 101.824C350.116 101.824 350.452 101.763 350.76 101.642C351.077 101.521 351.418 101.301 351.782 100.984L352.51 102.006C352.286 102.23 352.01 102.426 351.684 102.594C351.366 102.762 351.026 102.897 350.662 103C350.307 103.093 349.957 103.14 349.612 103.14ZM348.506 94.516L348.03 93.802L350.032 92.052L350.942 93.2L348.506 94.516ZM354.385 103V92.64H355.827V97.162L355.575 97.33C355.668 97.0033 355.85 96.7047 356.121 96.434C356.392 96.154 356.714 95.93 357.087 95.762C357.46 95.5847 357.843 95.496 358.235 95.496C358.795 95.496 359.262 95.608 359.635 95.832C360.008 96.0467 360.288 96.378 360.475 96.826C360.662 97.274 360.755 97.8387 360.755 98.52V103H359.313V98.618C359.313 98.198 359.257 97.8527 359.145 97.582C359.033 97.302 358.86 97.1013 358.627 96.98C358.394 96.8493 358.104 96.7933 357.759 96.812C357.479 96.812 357.222 96.8587 356.989 96.952C356.756 97.036 356.55 97.1573 356.373 97.316C356.205 97.4747 356.07 97.6613 355.967 97.876C355.874 98.0813 355.827 98.3053 355.827 98.548V103H355.113C354.992 103 354.87 103 354.749 103C354.628 103 354.506 103 354.385 103ZM362.949 103V95.65H364.391V103H362.949ZM363.649 94.026C363.341 94.026 363.103 93.9467 362.935 93.788C362.767 93.6293 362.683 93.4053 362.683 93.116C362.683 92.8453 362.767 92.626 362.935 92.458C363.112 92.29 363.35 92.206 363.649 92.206C363.957 92.206 364.195 92.2853 364.363 92.444C364.531 92.6027 364.615 92.8267 364.615 93.116C364.615 93.3867 364.526 93.606 364.349 93.774C364.181 93.942 363.948 94.026 363.649 94.026ZM369.73 103.14C369.048 103.14 368.437 102.972 367.896 102.636C367.364 102.3 366.939 101.843 366.622 101.264C366.314 100.685 366.16 100.037 366.16 99.318C366.16 98.5993 366.314 97.9507 366.622 97.372C366.939 96.7933 367.364 96.336 367.896 96C368.437 95.664 369.048 95.496 369.73 95.496C370.383 95.496 370.976 95.6313 371.508 95.902C372.049 96.1633 372.46 96.5227 372.74 96.98L371.942 97.96C371.792 97.7453 371.601 97.5493 371.368 97.372C371.134 97.1947 370.887 97.0547 370.626 96.952C370.364 96.8493 370.112 96.798 369.87 96.798C369.422 96.798 369.02 96.91 368.666 97.134C368.32 97.3487 368.045 97.6473 367.84 98.03C367.634 98.4127 367.532 98.842 367.532 99.318C367.532 99.794 367.639 100.223 367.854 100.606C368.068 100.979 368.353 101.278 368.708 101.502C369.062 101.726 369.454 101.838 369.884 101.838C370.136 101.838 370.378 101.796 370.612 101.712C370.854 101.628 371.088 101.502 371.312 101.334C371.536 101.166 371.746 100.961 371.942 100.718L372.74 101.698C372.441 102.118 372.012 102.463 371.452 102.734C370.901 103.005 370.327 103.14 369.73 103.14ZM376.676 103.14C376.153 103.14 375.696 103.019 375.304 102.776C374.921 102.533 374.622 102.193 374.408 101.754C374.202 101.315 374.1 100.793 374.1 100.186V95.65H375.542V99.794C375.542 100.223 375.607 100.597 375.738 100.914C375.878 101.222 376.074 101.46 376.326 101.628C376.587 101.796 376.9 101.88 377.264 101.88C377.534 101.88 377.782 101.838 378.006 101.754C378.23 101.661 378.421 101.535 378.58 101.376C378.748 101.217 378.878 101.026 378.972 100.802C379.065 100.578 379.112 100.335 379.112 100.074V95.65H380.554V103H379.112V101.46L379.364 101.292C379.252 101.637 379.06 101.95 378.79 102.23C378.528 102.51 378.216 102.734 377.852 102.902C377.488 103.061 377.096 103.14 376.676 103.14ZM382.604 103V92.64H384.046V103H382.604ZM389.383 103.14C388.627 103.14 387.955 102.981 387.367 102.664C386.789 102.337 386.331 101.894 385.995 101.334C385.669 100.774 385.505 100.13 385.505 99.402C385.505 98.8233 385.599 98.296 385.785 97.82C385.972 97.344 386.229 96.9333 386.555 96.588C386.891 96.2333 387.288 95.9627 387.745 95.776C388.212 95.58 388.716 95.482 389.257 95.482C389.733 95.482 390.177 95.5753 390.587 95.762C390.998 95.9393 391.353 96.1867 391.651 96.504C391.959 96.8213 392.193 97.1993 392.351 97.638C392.519 98.0673 392.599 98.5387 392.589 99.052L392.575 99.668H386.569L386.247 98.52H391.329L391.119 98.758V98.422C391.091 98.114 390.989 97.8387 390.811 97.596C390.634 97.3533 390.41 97.162 390.139 97.022C389.869 96.882 389.575 96.812 389.257 96.812C388.753 96.812 388.329 96.91 387.983 97.106C387.638 97.2927 387.377 97.5727 387.199 97.946C387.022 98.31 386.933 98.7627 386.933 99.304C386.933 99.8173 387.041 100.265 387.255 100.648C387.47 101.021 387.773 101.311 388.165 101.516C388.557 101.721 389.01 101.824 389.523 101.824C389.887 101.824 390.223 101.763 390.531 101.642C390.849 101.521 391.189 101.301 391.553 100.984L392.281 102.006C392.057 102.23 391.782 102.426 391.455 102.594C391.138 102.762 390.797 102.897 390.433 103C390.079 103.093 389.729 103.14 389.383 103.14Z" fill="#676767"/>
<rect x="300.5" y="24.5" width="129" height="103" rx="11.5" stroke="#C3C9CB"/>
<rect width="24" height="24" transform="translate(264 42)" fill="white" style="mix-blend-mode:multiply"/>
<g filter="url(#filter0_dd_568_12966)">
<path fill-rule="evenodd" clip-rule="evenodd" d="M276.017 55.2H279.2L272 48V57.9L274.252 55.6482L276.318 60.5163L277.975 59.813L276.017 55.2Z" fill="black"/>
<path d="M276.772 55.7H279.2H280.407L279.554 54.8464L272.354 47.6464L271.5 46.7929V48V57.9V59.1071L272.354 58.2536L274.081 56.5259L275.858 60.7117L276.053 61.1719L276.514 60.9766L278.171 60.2733L278.631 60.0779L278.435 59.6176L276.772 55.7Z" stroke="white"/>
</g>
</g>
<defs>
<filter id="filter0_dd_568_12966" x="269.5" y="45.0859" width="13.6172" height="19.2422" filterUnits="userSpaceOnUse" color-interpolation-filters="sRGB">
<feFlood flood-opacity="0" result="BackgroundImageFix"/>
<feColorMatrix in="SourceAlpha" type="matrix" values="0 0 0 0 0 0 0 0 0 0 0 0 0 0 0 0 0 0 127 0" result="hardAlpha"/>
<feOffset dy="0.75"/>
<feGaussianBlur stdDeviation="0.5"/>
<feColorMatrix type="matrix" values="0 0 0 0 0 0 0 0 0 0 0 0 0 0 0 0 0 0 0.2 0"/>
<feBlend mode="normal" in2="BackgroundImageFix" result="effect1_dropShadow_568_12966"/>
<feColorMatrix in="SourceAlpha" type="matrix" values="0 0 0 0 0 0 0 0 0 0 0 0 0 0 0 0 0 0 127 0" result="hardAlpha"/>
<feOffset dy="1"/>
<feGaussianBlur stdDeviation="0.75"/>
<feColorMatrix type="matrix" values="0 0 0 0 0 0 0 0 0 0 0 0 0 0 0 0 0 0 0.25 0"/>
<feBlend mode="normal" in2="effect1_dropShadow_568_12966" result="effect2_dropShadow_568_12966"/>
<feBlend mode="normal" in="SourceGraphic" in2="effect2_dropShadow_568_12966" result="shape"/>
</filter>
<linearGradient id="paint0_linear_568_12966" x1="438" y1="183" x2="438" y2="139" gradientUnits="userSpaceOnUse">
<stop offset="0.203125" stop-color="#EEF2F3"/>
<stop offset="1" stop-color="#ECF0F1"/>
</linearGradient>
<linearGradient id="paint1_linear_568_12966" x1="438" y1="183" x2="433.393" y2="139.488" gradientUnits="userSpaceOnUse">
<stop stop-color="#F1F5F6" stop-opacity="0.21"/>
<stop offset="1" stop-color="#DAE2E4"/>
</linearGradient>
<linearGradient id="paint2_linear_568_12966" x1="300" y1="183" x2="300" y2="139" gradientUnits="userSpaceOnUse">
<stop offset="0.203125" stop-color="#EEF2F3"/>
<stop offset="1" stop-color="#ECF0F1"/>
</linearGradient>
<linearGradient id="paint3_linear_568_12966" x1="300" y1="183" x2="295.393" y2="139.488" gradientUnits="userSpaceOnUse">
<stop stop-color="#F1F5F6" stop-opacity="0.21"/>
<stop offset="1" stop-color="#DAE2E4"/>
</linearGradient>
<linearGradient id="paint4_linear_568_12966" x1="162" y1="183" x2="162" y2="139" gradientUnits="userSpaceOnUse">
<stop offset="0.203125" stop-color="#EEF2F3"/>
<stop offset="1" stop-color="#ECF0F1"/>
</linearGradient>
<linearGradient id="paint5_linear_568_12966" x1="162" y1="183" x2="157.339" y2="139.499" gradientUnits="userSpaceOnUse">
<stop stop-color="#F1F5F6" stop-opacity="0.21"/>
<stop offset="1" stop-color="#DAE2E4"/>
</linearGradient>
<linearGradient id="paint6_linear_568_12966" x1="24" y1="183" x2="24" y2="139" gradientUnits="userSpaceOnUse">
<stop offset="0.203125" stop-color="#EEF2F3"/>
<stop offset="1" stop-color="#ECF0F1"/>
</linearGradient>
<linearGradient id="paint7_linear_568_12966" x1="24" y1="183" x2="19.3561" y2="139.496" gradientUnits="userSpaceOnUse">
<stop stop-color="#F1F5F6" stop-opacity="0.21"/>
<stop offset="1" stop-color="#DAE2E4"/>
</linearGradient>
<clipPath id="clip0_568_12966">
<rect width="462" height="164" fill="white"/>
</clipPath>
<clipPath id="clip1_568_12966">
<rect width="24" height="24" fill="white" transform="translate(77 44)"/>
</clipPath>
<clipPath id="clip2_568_12966">
<rect width="24" height="24" fill="white" transform="translate(215 44)"/>
</clipPath>
<clipPath id="clip3_568_12966">
<rect width="24" height="24" fill="white" transform="translate(353 44)"/>
</clipPath>
</defs>
</svg>
