<svg width="462" height="224" viewBox="0 0 462 224" fill="none" xmlns="http://www.w3.org/2000/svg">
<g clip-path="url(#clip0_568_12949)">
<rect x="182.5" y="76.5" width="95" height="95" rx="47.5" fill="#FF6E41"/>
<g clip-path="url(#clip1_568_12949)">
<path fill-rule="evenodd" clip-rule="evenodd" d="M224.811 105.794C227.69 103.34 231.875 103.249 234.851 105.521L235.189 105.794L235.942 106.436C236.491 106.904 237.154 107.213 237.861 107.334L238.218 107.378L239.204 107.457C242.985 107.759 246.014 110.668 246.5 114.393L246.542 114.795L246.621 115.782C246.678 116.501 246.929 117.189 247.343 117.774L247.564 118.058L248.205 118.811C250.659 121.69 250.75 125.875 248.478 128.851L248.205 129.189L247.564 129.942C247.096 130.491 246.786 131.154 246.665 131.861L246.621 132.218L246.542 133.204C246.24 136.985 243.331 140.014 239.606 140.5L239.204 140.542L238.218 140.621C237.499 140.678 236.811 140.929 236.225 141.343L235.942 141.564L235.189 142.205C232.309 144.659 228.125 144.75 225.149 142.478L224.811 142.205L224.058 141.564C223.509 141.096 222.845 140.786 222.138 140.666L221.781 140.621L220.795 140.542C217.014 140.241 213.985 137.331 213.499 133.606L213.457 133.204L213.378 132.218C213.321 131.499 213.07 130.811 212.656 130.225L212.436 129.942L211.794 129.189C209.34 126.309 209.249 122.125 211.521 119.149L211.794 118.811L212.436 118.058C212.904 117.509 213.213 116.845 213.334 116.138L213.378 115.782L213.457 114.795C213.759 111.014 216.668 107.985 220.393 107.499L220.795 107.457L221.781 107.378C222.501 107.321 223.189 107.07 223.774 106.656L224.058 106.436L224.811 105.794ZM235 126C233.343 126 232 127.343 232 129C232 130.657 233.343 132 235 132C236.656 132 238 130.657 238 129C238 127.343 236.656 126 235 126ZM234.585 116.586L222.585 128.586C221.804 129.367 221.804 130.633 222.585 131.414C223.366 132.195 224.633 132.195 225.414 131.414L237.414 119.414C238.195 118.633 238.195 117.367 237.414 116.586C236.633 115.805 235.366 115.805 234.585 116.586ZM225 116C223.343 116 222 117.343 222 119C222 120.657 223.343 122 225 122C226.656 122 228 120.657 228 119C228 117.343 226.656 116 225 116Z" fill="white"/>
</g>
<rect x="182.5" y="76.5" width="95" height="95" rx="47.5" stroke="white"/>
<circle cx="229.5" cy="124.5" r="117" stroke="#FF6E41"/>
<circle cx="228.5" cy="125.5" r="152" stroke="#FFB59F"/>
<circle cx="229.5" cy="124.5" r="192" stroke="#FFEDE8"/>
<circle cx="229.5" cy="124.5" r="78" stroke="#FF6E41"/>
<rect x="103" y="40" width="64" height="26" rx="4" fill="#FFB59F"/>
<g clip-path="url(#clip2_568_12949)">
<path d="M121.562 47.666C122.235 47.666 122.86 48.004 123.228 48.5597L123.299 48.6737L124.628 50.9993H125.403C125.531 50.9993 125.639 51.0908 125.664 51.2123L125.669 51.266V51.5829C125.669 51.8032 125.534 51.998 125.334 52.0781L125.249 52.1043C125.499 52.6229 125.611 53.1977 125.572 53.7725L125.554 53.9641L125.07 57.8314C124.991 58.4635 124.478 58.9462 123.853 58.9952L123.747 58.9993H123.003C122.3 58.9993 121.724 58.4554 121.673 57.7655L121.669 57.666H116.336C116.336 58.3689 115.792 58.9448 115.102 58.9957L115.003 58.9993H114.258C113.621 58.9993 113.078 58.5499 112.952 57.9353L112.935 57.8314L112.451 53.9641C112.38 53.3899 112.459 52.8096 112.678 52.2792L112.756 52.1043L112.74 52.1003C112.526 52.0469 112.37 51.8688 112.341 51.6553L112.336 51.5829V51.266C112.336 51.1372 112.427 51.0296 112.549 51.0048L112.603 50.9993H113.378L114.707 48.6737C115.04 48.0895 115.644 47.715 116.309 47.6705L116.443 47.666H121.562ZM124.175 53.023C123.846 53.3822 123.384 53.6261 122.842 53.6616L122.705 53.666H115.3C114.699 53.666 114.186 53.4121 113.83 53.023C113.775 53.2237 113.751 53.4325 113.761 53.6417L113.774 53.7987L114.258 57.666H115.003V56.9993C115.003 56.6574 115.26 56.3757 115.592 56.3372L115.669 56.3327H122.336C122.678 56.3327 122.96 56.59 122.998 56.9216L123.003 56.9993V57.666H123.747L124.231 53.7987C124.263 53.5373 124.244 53.2739 124.175 53.023ZM114.828 54.2649L116.656 55.2522C116.905 55.3865 116.801 55.7646 116.519 55.7533L114.976 55.6916C114.618 55.6773 114.336 55.3833 114.336 55.0255V54.5581C114.336 54.3057 114.606 54.1449 114.828 54.2649ZM123.669 54.5581V55.0255C123.669 55.3833 123.387 55.6773 123.029 55.6916L121.486 55.7533C121.204 55.7646 121.1 55.3865 121.349 55.2522L123.178 54.2649C123.4 54.1449 123.669 54.3057 123.669 54.5581ZM121.562 48.9993H116.443C116.204 48.9993 115.983 49.1275 115.864 49.3353L114.721 51.3353C114.468 51.7797 114.788 52.3327 115.3 52.3327H122.705C123.217 52.3327 123.538 51.7797 123.284 51.3353L122.141 49.3353C122.022 49.1275 121.801 48.9993 121.562 48.9993Z" fill="black"/>
</g>
<path d="M136.504 58V49.6H137.8V56.752H141.736V58H136.504ZM143.688 58V49.6H144.984V56.752H148.92V58H143.688ZM150.871 58V49.6H154.159C154.759 49.6 155.299 49.7 155.779 49.9C156.267 50.1 156.683 50.388 157.027 50.764C157.371 51.14 157.635 51.584 157.819 52.096C158.003 52.608 158.095 53.176 158.095 53.8C158.095 54.424 158.003 54.996 157.819 55.516C157.635 56.028 157.371 56.472 157.027 56.848C156.691 57.216 156.279 57.5 155.791 57.7C155.303 57.9 154.759 58 154.159 58H150.871ZM152.167 56.884L152.131 56.752H154.099C154.523 56.752 154.899 56.684 155.227 56.548C155.563 56.412 155.843 56.22 156.067 55.972C156.299 55.716 156.475 55.404 156.595 55.036C156.715 54.668 156.775 54.256 156.775 53.8C156.775 53.344 156.715 52.936 156.595 52.576C156.475 52.208 156.299 51.896 156.067 51.64C155.835 51.384 155.555 51.188 155.227 51.052C154.899 50.916 154.523 50.848 154.099 50.848H152.095L152.167 50.74V56.884Z" fill="black"/>
<rect x="357" y="61" width="65" height="26" rx="4" fill="#FFB59F"/>
<g clip-path="url(#clip3_568_12949)">
<path d="M375.562 68.666C376.235 68.666 376.86 69.004 377.228 69.5597L377.299 69.6737L378.628 71.9993H379.403C379.531 71.9993 379.639 72.0908 379.664 72.2123L379.669 72.266V72.5829C379.669 72.8032 379.534 72.998 379.334 73.0781L379.249 73.1043C379.499 73.6229 379.611 74.1977 379.572 74.7725L379.554 74.9641L379.07 78.8314C378.991 79.4635 378.478 79.9462 377.853 79.9952L377.747 79.9993H377.003C376.3 79.9993 375.724 79.4554 375.673 78.7655L375.669 78.666H370.336C370.336 79.3689 369.792 79.9448 369.102 79.9957L369.003 79.9993H368.258C367.621 79.9993 367.078 79.5499 366.952 78.9353L366.935 78.8314L366.451 74.9641C366.38 74.3899 366.459 73.8096 366.678 73.2792L366.756 73.1043L366.74 73.1003C366.526 73.0469 366.37 72.8688 366.341 72.6553L366.336 72.5829V72.266C366.336 72.1372 366.427 72.0296 366.549 72.0048L366.603 71.9993H367.378L368.707 69.6737C369.04 69.0895 369.644 68.715 370.309 68.6705L370.443 68.666H375.562ZM378.175 74.023C377.846 74.3822 377.384 74.6261 376.842 74.6616L376.705 74.666H369.3C368.699 74.666 368.186 74.4121 367.83 74.023C367.775 74.2237 367.751 74.4325 367.761 74.6417L367.774 74.7987L368.258 78.666H369.003V77.9993C369.003 77.6574 369.26 77.3757 369.592 77.3372L369.669 77.3327H376.336C376.678 77.3327 376.96 77.59 376.998 77.9216L377.003 77.9993V78.666H377.747L378.231 74.7987C378.263 74.5373 378.244 74.2739 378.175 74.023ZM368.828 75.2649L370.656 76.2522C370.905 76.3865 370.801 76.7646 370.519 76.7533L368.976 76.6916C368.618 76.6773 368.336 76.3833 368.336 76.0255V75.5581C368.336 75.3057 368.606 75.1449 368.828 75.2649ZM377.669 75.5581V76.0255C377.669 76.3833 377.387 76.6773 377.029 76.6916L375.486 76.7533C375.204 76.7646 375.1 76.3865 375.349 76.2522L377.178 75.2649C377.4 75.1449 377.669 75.3057 377.669 75.5581ZM375.562 69.9993H370.443C370.204 69.9993 369.983 70.1275 369.864 70.3353L368.721 72.3353C368.468 72.7797 368.788 73.3327 369.3 73.3327H376.705C377.217 73.3327 377.538 72.7797 377.284 72.3353L376.141 70.3353C376.022 70.1275 375.801 69.9993 375.562 69.9993Z" fill="black"/>
</g>
<path d="M390.641 79V70.6H391.937V77.752H395.873V79H390.641ZM400.998 79.12C400.414 79.12 399.878 79.016 399.39 78.808C398.902 78.6 398.478 78.304 398.118 77.92C397.758 77.528 397.478 77.068 397.278 76.54C397.086 76.012 396.99 75.432 396.99 74.8C396.99 74.2 397.094 73.644 397.302 73.132C397.518 72.612 397.814 72.156 398.19 71.764C398.566 71.372 399.002 71.068 399.498 70.852C399.994 70.636 400.53 70.528 401.106 70.528C401.514 70.528 401.91 70.592 402.294 70.72C402.686 70.84 403.038 71.012 403.35 71.236C403.67 71.452 403.93 71.7 404.13 71.98L403.266 72.88C403.034 72.648 402.798 72.456 402.558 72.304C402.326 72.144 402.086 72.024 401.838 71.944C401.598 71.864 401.354 71.824 401.106 71.824C400.714 71.824 400.346 71.9 400.002 72.052C399.666 72.196 399.37 72.4 399.114 72.664C398.866 72.928 398.67 73.244 398.526 73.612C398.382 73.972 398.31 74.368 398.31 74.8C398.31 75.256 398.378 75.672 398.514 76.048C398.658 76.416 398.858 76.732 399.114 76.996C399.37 77.26 399.674 77.464 400.026 77.608C400.386 77.744 400.782 77.812 401.214 77.812C401.478 77.812 401.738 77.776 401.994 77.704C402.25 77.632 402.49 77.528 402.714 77.392C402.938 77.256 403.142 77.096 403.326 76.912L403.974 77.968C403.79 78.184 403.538 78.38 403.218 78.556C402.906 78.732 402.554 78.872 402.162 78.976C401.778 79.072 401.39 79.12 400.998 79.12ZM405.735 79V70.6H409.023C409.623 70.6 410.163 70.7 410.643 70.9C411.131 71.1 411.547 71.388 411.891 71.764C412.235 72.14 412.499 72.584 412.683 73.096C412.867 73.608 412.959 74.176 412.959 74.8C412.959 75.424 412.867 75.996 412.683 76.516C412.499 77.028 412.235 77.472 411.891 77.848C411.555 78.216 411.143 78.5 410.655 78.7C410.167 78.9 409.623 79 409.023 79H405.735ZM407.031 77.884L406.995 77.752H408.963C409.387 77.752 409.763 77.684 410.091 77.548C410.427 77.412 410.707 77.22 410.931 76.972C411.163 76.716 411.339 76.404 411.459 76.036C411.579 75.668 411.639 75.256 411.639 74.8C411.639 74.344 411.579 73.936 411.459 73.576C411.339 73.208 411.163 72.896 410.931 72.64C410.699 72.384 410.419 72.188 410.091 72.052C409.763 71.916 409.387 71.848 408.963 71.848H406.959L407.031 71.74V77.884Z" fill="black"/>
<rect x="328" y="166" width="65" height="26" rx="4" fill="#FFB59F"/>
<g clip-path="url(#clip4_568_12949)">
<path d="M346.562 173.666C347.235 173.666 347.86 174.004 348.228 174.56L348.299 174.674L349.628 176.999H350.403C350.531 176.999 350.639 177.091 350.664 177.212L350.669 177.266V177.583C350.669 177.803 350.534 177.998 350.334 178.078L350.249 178.104C350.499 178.623 350.611 179.198 350.572 179.773L350.554 179.964L350.07 183.831C349.991 184.463 349.478 184.946 348.853 184.995L348.747 184.999H348.003C347.3 184.999 346.724 184.455 346.673 183.766L346.669 183.666H341.336C341.336 184.369 340.792 184.945 340.102 184.996L340.003 184.999H339.258C338.621 184.999 338.078 184.55 337.952 183.935L337.935 183.831L337.451 179.964C337.38 179.39 337.459 178.81 337.678 178.279L337.756 178.104L337.74 178.1C337.526 178.047 337.37 177.869 337.341 177.655L337.336 177.583V177.266C337.336 177.137 337.427 177.03 337.549 177.005L337.603 176.999H338.378L339.707 174.674C340.04 174.09 340.644 173.715 341.309 173.67L341.443 173.666H346.562ZM349.175 179.023C348.846 179.382 348.384 179.626 347.842 179.662L347.705 179.666H340.3C339.699 179.666 339.186 179.412 338.83 179.023C338.775 179.224 338.751 179.432 338.761 179.642L338.774 179.799L339.258 183.666H340.003V182.999C340.003 182.657 340.26 182.376 340.592 182.337L340.669 182.333H347.336C347.678 182.333 347.96 182.59 347.998 182.922L348.003 182.999V183.666H348.747L349.231 179.799C349.263 179.537 349.244 179.274 349.175 179.023ZM339.828 180.265L341.656 181.252C341.905 181.387 341.801 181.765 341.519 181.753L339.976 181.692C339.618 181.677 339.336 181.383 339.336 181.025V180.558C339.336 180.306 339.606 180.145 339.828 180.265ZM348.669 180.558V181.025C348.669 181.383 348.387 181.677 348.029 181.692L346.486 181.753C346.204 181.765 346.1 181.387 346.349 181.252L348.178 180.265C348.4 180.145 348.669 180.306 348.669 180.558ZM346.562 174.999H341.443C341.204 174.999 340.983 175.128 340.864 175.335L339.721 177.335C339.468 177.78 339.788 178.333 340.3 178.333H347.705C348.217 178.333 348.538 177.78 348.284 177.335L347.141 175.335C347.022 175.128 346.801 174.999 346.562 174.999Z" fill="black"/>
</g>
<path d="M361.424 184V175.6H362.72V182.752H366.656V184H361.424ZM371.889 184.12C371.297 184.12 370.749 184.012 370.245 183.796C369.749 183.58 369.313 183.28 368.937 182.896C368.569 182.504 368.281 182.048 368.073 181.528C367.873 181 367.773 180.424 367.773 179.8C367.773 179.176 367.873 178.604 368.073 178.084C368.281 177.556 368.569 177.1 368.937 176.716C369.313 176.324 369.749 176.02 370.245 175.804C370.749 175.588 371.297 175.48 371.889 175.48C372.481 175.48 373.025 175.588 373.521 175.804C374.025 176.02 374.461 176.324 374.829 176.716C375.205 177.108 375.493 177.568 375.693 178.096C375.901 178.616 376.005 179.184 376.005 179.8C376.005 180.416 375.901 180.988 375.693 181.516C375.493 182.036 375.205 182.492 374.829 182.884C374.461 183.276 374.025 183.58 373.521 183.796C373.025 184.012 372.481 184.12 371.889 184.12ZM371.889 182.86C372.297 182.86 372.669 182.784 373.005 182.632C373.349 182.48 373.645 182.268 373.893 181.996C374.141 181.716 374.333 181.392 374.469 181.024C374.613 180.648 374.685 180.24 374.685 179.8C374.685 179.36 374.613 178.956 374.469 178.588C374.333 178.212 374.141 177.888 373.893 177.616C373.645 177.336 373.349 177.12 373.005 176.968C372.669 176.816 372.297 176.74 371.889 176.74C371.481 176.74 371.105 176.816 370.761 176.968C370.425 177.12 370.129 177.332 369.873 177.604C369.625 177.876 369.433 178.2 369.297 178.576C369.161 178.944 369.093 179.352 369.093 179.8C369.093 180.24 369.161 180.648 369.297 181.024C369.433 181.4 369.625 181.724 369.873 181.996C370.129 182.268 370.425 182.48 370.761 182.632C371.105 182.784 371.481 182.86 371.889 182.86ZM376.65 184L379.902 175.6H381.222L384.45 184H383.07L381.15 178.936C381.126 178.88 381.078 178.744 381.006 178.528C380.942 178.312 380.866 178.072 380.778 177.808C380.69 177.544 380.61 177.304 380.538 177.088C380.466 176.864 380.418 176.72 380.394 176.656L380.67 176.644C380.622 176.78 380.562 176.952 380.49 177.16C380.426 177.368 380.354 177.588 380.274 177.82C380.202 178.052 380.13 178.272 380.058 178.48C379.986 178.68 379.926 178.848 379.878 178.984L377.97 184H376.65ZM378.09 181.912L378.57 180.664H382.386L382.938 181.912H378.09Z" fill="black"/>
<rect x="34" y="153" width="67" height="26" rx="4" fill="#FFB59F"/>
<g clip-path="url(#clip5_568_12949)">
<path d="M52.5622 160.666C53.235 160.666 53.8595 161.004 54.2284 161.56L54.2987 161.674L55.6276 163.999H56.4026C56.5315 163.999 56.639 164.091 56.6639 164.212L56.6693 164.266V164.583C56.6693 164.803 56.5344 164.998 56.3343 165.078L56.2495 165.104C56.4993 165.623 56.6106 166.198 56.5722 166.773L56.5539 166.964L56.0705 170.831C55.9915 171.463 55.4782 171.946 54.8527 171.995L54.7474 171.999H54.0026C53.2997 171.999 52.7238 171.455 52.6729 170.766L52.6693 170.666H47.3359C47.3359 171.369 46.792 171.945 46.1021 171.996L46.0026 171.999H45.2578C44.6208 171.999 44.0782 171.55 43.9519 170.935L43.9348 170.831L43.4513 166.964C43.3796 166.39 43.4587 165.81 43.6776 165.279L43.7557 165.104L43.7399 165.1C43.5262 165.047 43.37 164.869 43.3408 164.655L43.3359 164.583V164.266C43.3359 164.137 43.4273 164.03 43.5489 164.005L43.6026 163.999H44.3776L45.7066 161.674C46.0404 161.09 46.6437 160.715 47.3092 160.67L47.443 160.666H52.5622ZM55.1754 166.023C54.8464 166.382 54.3839 166.626 53.8421 166.662L53.705 166.666H46.3002C45.6994 166.666 45.1862 166.412 44.8298 166.023C44.7749 166.224 44.7515 166.432 44.761 166.642L44.7744 166.799L45.2578 170.666H46.0026V169.999C46.0026 169.657 46.26 169.376 46.5915 169.337L46.6693 169.333H53.3359C53.6778 169.333 53.9596 169.59 53.9981 169.922L54.0026 169.999V170.666H54.7474L55.2308 166.799C55.2635 166.537 55.2441 166.274 55.1754 166.023ZM45.8277 167.265L47.6561 168.252C47.9048 168.387 47.8011 168.765 47.5187 168.753L45.976 168.692C45.6184 168.677 45.3359 168.383 45.3359 168.025V167.558C45.3359 167.306 45.6056 167.145 45.8277 167.265ZM54.6693 167.558V168.025C54.6693 168.383 54.3868 168.677 54.0293 168.692L52.4865 168.753C52.2041 168.765 52.1004 168.387 52.3491 168.252L54.1775 167.265C54.3997 167.145 54.6693 167.306 54.6693 167.558ZM52.5622 161.999H47.443C47.2038 161.999 46.9829 162.128 46.8642 162.335L45.7214 164.335C45.4676 164.78 45.7884 165.333 46.3002 165.333H53.705C54.2169 165.333 54.5378 164.78 54.2839 164.335L53.141 162.335C53.0223 162.128 52.8014 161.999 52.5622 161.999Z" fill="black"/>
</g>
<path d="M67.4104 171V162.6H68.7064V169.752H72.6424V171H67.4104ZM74.594 171V162.6H75.866L78.926 167.58L78.314 167.568L81.41 162.6H82.61V171H81.314V167.556C81.314 166.836 81.33 166.188 81.362 165.612C81.402 165.036 81.466 164.464 81.554 163.896L81.722 164.34L78.974 168.588H78.182L75.518 164.388L75.65 163.896C75.738 164.432 75.798 164.984 75.83 165.552C75.87 166.112 75.89 166.78 75.89 167.556V171H74.594ZM84.9651 171V162.6H88.2531C88.8531 162.6 89.3931 162.7 89.8731 162.9C90.3611 163.1 90.7771 163.388 91.1211 163.764C91.4651 164.14 91.7291 164.584 91.9131 165.096C92.0971 165.608 92.1891 166.176 92.1891 166.8C92.1891 167.424 92.0971 167.996 91.9131 168.516C91.7291 169.028 91.4651 169.472 91.1211 169.848C90.7851 170.216 90.3731 170.5 89.8851 170.7C89.3971 170.9 88.8531 171 88.2531 171H84.9651ZM86.2611 169.884L86.2251 169.752H88.1931C88.6171 169.752 88.9931 169.684 89.3211 169.548C89.6571 169.412 89.9371 169.22 90.1611 168.972C90.3931 168.716 90.5691 168.404 90.6891 168.036C90.8091 167.668 90.8691 167.256 90.8691 166.8C90.8691 166.344 90.8091 165.936 90.6891 165.576C90.5691 165.208 90.3931 164.896 90.1611 164.64C89.9291 164.384 89.6491 164.188 89.3211 164.052C88.9931 163.916 88.6171 163.848 88.1931 163.848H86.1891L86.2611 163.74V169.884Z" fill="black"/>
</g>
<defs>
<clipPath id="clip0_568_12949">
<rect width="462" height="224" fill="white"/>
</clipPath>
<clipPath id="clip1_568_12949">
<rect width="48" height="48" fill="white" transform="translate(206 100)"/>
</clipPath>
<clipPath id="clip2_568_12949">
<rect width="16" height="16" fill="white" transform="translate(111 45)"/>
</clipPath>
<clipPath id="clip3_568_12949">
<rect width="16" height="16" fill="white" transform="translate(365 66)"/>
</clipPath>
<clipPath id="clip4_568_12949">
<rect width="16" height="16" fill="white" transform="translate(336 171)"/>
</clipPath>
<clipPath id="clip5_568_12949">
<rect width="16" height="16" fill="white" transform="translate(42 158)"/>
</clipPath>
</defs>
</svg>
