<svg width="435" height="292" viewBox="0 0 435 292" fill="none" xmlns="http://www.w3.org/2000/svg">
<g clip-path="url(#clip0_427_18111)">
<circle cx="189" cy="174" r="71.5" stroke="url(#paint0_linear_427_18111)"/>
<circle cx="188.5" cy="174.5" r="93" stroke="url(#paint1_linear_427_18111)"/>
<circle cx="189" cy="174" r="117.5" stroke="url(#paint2_linear_427_18111)"/>
<circle cx="189" cy="174" r="47.5" stroke="#E8ECEF"/>
<rect x="94" y="171" width="260" height="6" rx="3" fill="#E8ECEF"/>
<path d="M94 174C94 172.343 95.3431 171 97 171H182V177H97C95.3431 177 94 175.657 94 174Z" fill="#00C3D7"/>
<g filter="url(#filter0_d_427_18111)">
<circle cx="189" cy="174" r="8" fill="#00C3D7" shape-rendering="crispEdges"/>
<circle cx="189" cy="174" r="10" stroke="#00C3D7" stroke-opacity="0.2" stroke-width="4" shape-rendering="crispEdges"/>
</g>
<rect width="24" height="24" transform="translate(184 172)" fill="white" style="mix-blend-mode:multiply"/>
<path fill-rule="evenodd" clip-rule="evenodd" d="M190.831 188.473C190.553 188.097 190.215 187.328 189.614 186.394C189.274 185.866 188.429 184.871 188.178 184.366C187.96 183.92 187.983 183.72 188.035 183.35C188.127 182.692 188.757 182.179 189.429 182.248C189.937 182.3 190.368 182.659 190.755 182.999C190.989 183.203 191.277 183.6 191.45 183.824C191.609 184.03 191.649 184.115 191.819 184.358C192.044 184.68 192.114 184.839 192.028 184.485C191.959 183.965 191.845 183.077 191.681 182.292C191.556 181.697 191.525 181.604 191.406 181.147C191.28 180.661 191.215 180.32 191.097 179.805C191.015 179.44 190.867 178.695 190.827 178.276C190.771 177.702 190.742 176.768 191.085 176.338C191.354 176.002 191.971 175.9 192.354 176.107C192.855 176.379 193.14 177.159 193.27 177.47C193.504 178.029 193.649 178.676 193.775 179.525C193.935 180.605 194.231 182.105 194.24 182.42C194.264 182.034 194.174 181.219 194.237 180.848C194.293 180.512 194.557 180.121 194.888 180.015C195.168 179.926 195.496 179.894 195.784 179.958C196.091 180.025 196.414 180.259 196.534 180.48C196.888 181.134 196.895 182.471 196.91 182.399C196.994 182.005 196.979 181.111 197.188 180.739C197.325 180.494 197.674 180.273 197.86 180.237C198.147 180.183 198.501 180.166 198.803 180.229C199.047 180.28 199.376 180.591 199.465 180.739C199.679 181.1 199.8 182.119 199.836 182.477C199.851 182.625 199.909 182.066 200.123 181.706C200.52 181.036 201.926 180.906 201.98 182.375C202.004 183.06 202 183.029 202 183.49C202 184.032 201.988 184.358 201.96 184.75C201.93 185.169 201.846 186.116 201.724 186.575C201.64 186.891 201.361 187.6 201.086 188.026C201.086 188.026 200.035 189.336 199.92 189.926C199.805 190.514 199.843 190.519 199.821 190.937C199.798 191.354 199.939 191.903 199.939 191.903C199.939 191.903 199.154 192.012 198.732 191.94C198.349 191.874 197.875 191.058 197.753 190.809C197.585 190.465 197.226 190.531 197.086 190.785C196.866 191.186 196.392 191.906 196.057 191.951C195.404 192.039 194.048 191.984 192.986 191.972C192.986 191.972 193.167 190.913 192.764 190.549C192.466 190.278 191.952 189.727 191.645 189.438L190.831 188.473Z" fill="white" stroke="black" stroke-width="0.75" stroke-linecap="round" stroke-linejoin="round"/>
<path fill-rule="evenodd" clip-rule="evenodd" d="M198.5 188.5V185.5V188.5Z" fill="white"/>
<path d="M198.5 188.5V185.5" stroke="black" stroke-width="0.75" stroke-linecap="round"/>
<path fill-rule="evenodd" clip-rule="evenodd" d="M196.5 188.5V185.5V188.5Z" fill="white"/>
<path d="M196.5 188.5V185.5" stroke="black" stroke-width="0.75" stroke-linecap="round"/>
<path fill-rule="evenodd" clip-rule="evenodd" d="M194.5 185.5V188.5V185.5Z" fill="white"/>
<path d="M194.5 185.5V188.5" stroke="black" stroke-width="0.75" stroke-linecap="round"/>
<mask id="path-16-inside-1_427_18111" fill="white">
<path d="M-68 12H24C33.3888 12 41 19.6112 41 29C41 38.3888 33.3888 46 24 46H-68V12Z"/>
</mask>
<path d="M-68 12H24C33.3888 12 41 19.6112 41 29C41 38.3888 33.3888 46 24 46H-68V12Z" fill="url(#paint3_linear_427_18111)"/>
<path d="M-68 11H24C33.9411 11 42 19.0589 42 29H40C40 20.1634 32.8366 13 24 13H-68V11ZM42 29C42 38.9411 33.9411 47 24 47H-68V45H24C32.8366 45 40 37.8366 40 29H42ZM-68 46V12V46ZM24 11C33.9411 11 42 19.0589 42 29C42 38.9411 33.9411 47 24 47V45C32.8366 45 40 37.8366 40 29C40 20.1634 32.8366 13 24 13V11Z" fill="url(#paint4_linear_427_18111)" mask="url(#path-16-inside-1_427_18111)"/>
<mask id="path-18-inside-2_427_18111" fill="white">
<path d="M166 29C166 19.6112 173.611 12 183 12H258C267.389 12 275 19.6112 275 29C275 38.3888 267.389 46 258 46H183C173.611 46 166 38.3888 166 29Z"/>
</mask>
<path d="M166 29C166 19.6112 173.611 12 183 12H258C267.389 12 275 19.6112 275 29C275 38.3888 267.389 46 258 46H183C173.611 46 166 38.3888 166 29Z" fill="url(#paint5_linear_427_18111)"/>
<path d="M166 29C166 19.0589 174.059 11 184 11H258C267.941 11 276 19.0589 276 29H274C274 20.1634 266.837 13 258 13H183C173.611 13 166 20.1634 166 29ZM276 29C276 38.9411 267.941 47 258 47H184C174.059 47 166 38.9411 166 29C166 37.8366 173.611 45 183 45H258C266.837 45 274 37.8366 274 29H276ZM166 46V12V46ZM258 11C267.941 11 276 19.0589 276 29C276 38.9411 267.941 47 258 47V45C266.837 45 274 37.8366 274 29C274 20.1634 266.837 13 258 13V11Z" fill="url(#paint6_linear_427_18111)" mask="url(#path-18-inside-2_427_18111)"/>
<mask id="path-20-inside-3_427_18111" fill="white">
<path d="M49 29C49 19.6112 56.6112 12 66 12H141C150.389 12 158 19.6112 158 29C158 38.3888 150.389 46 141 46H66C56.6112 46 49 38.3888 49 29Z"/>
</mask>
<path d="M49 29C49 19.6112 56.6112 12 66 12H141C150.389 12 158 19.6112 158 29C158 38.3888 150.389 46 141 46H66C56.6112 46 49 38.3888 49 29Z" fill="url(#paint7_linear_427_18111)"/>
<path d="M49 29C49 19.0589 57.0589 11 67 11H141C150.941 11 159 19.0589 159 29H157C157 20.1634 149.837 13 141 13H66C56.6112 13 49 20.1634 49 29ZM159 29C159 38.9411 150.941 47 141 47H67C57.0589 47 49 38.9411 49 29C49 37.8366 56.6112 45 66 45H141C149.837 45 157 37.8366 157 29H159ZM49 46V12V46ZM141 11C150.941 11 159 19.0589 159 29C159 38.9411 150.941 47 141 47V45C149.837 45 157 37.8366 157 29C157 20.1634 149.837 13 141 13V11Z" fill="url(#paint8_linear_427_18111)" mask="url(#path-20-inside-3_427_18111)"/>
<mask id="path-22-inside-4_427_18111" fill="white">
<path d="M283 29C283 19.6112 290.611 12 300 12H375C384.389 12 392 19.6112 392 29C392 38.3888 384.389 46 375 46H300C290.611 46 283 38.3888 283 29Z"/>
</mask>
<path d="M283 29C283 19.6112 290.611 12 300 12H375C384.389 12 392 19.6112 392 29C392 38.3888 384.389 46 375 46H300C290.611 46 283 38.3888 283 29Z" fill="url(#paint9_linear_427_18111)"/>
<path d="M283 29C283 19.0589 291.059 11 301 11H375C384.941 11 393 19.0589 393 29H391C391 20.1634 383.837 13 375 13H300C290.611 13 283 20.1634 283 29ZM393 29C393 38.9411 384.941 47 375 47H301C291.059 47 283 38.9411 283 29C283 37.8366 290.611 45 300 45H375C383.837 45 391 37.8366 391 29H393ZM283 46V12V46ZM375 11C384.941 11 393 19.0589 393 29C393 38.9411 384.941 47 375 47V45C383.837 45 391 37.8366 391 29C391 20.1634 383.837 13 375 13V11Z" fill="url(#paint10_linear_427_18111)" mask="url(#path-22-inside-4_427_18111)"/>
<mask id="path-24-inside-5_427_18111" fill="white">
<path d="M400 29C400 19.6112 407.611 12 417 12H492C501.389 12 509 19.6112 509 29C509 38.3888 501.389 46 492 46H417C407.611 46 400 38.3888 400 29Z"/>
</mask>
<path d="M400 29C400 19.6112 407.611 12 417 12H492C501.389 12 509 19.6112 509 29C509 38.3888 501.389 46 492 46H417C407.611 46 400 38.3888 400 29Z" fill="url(#paint11_linear_427_18111)"/>
<path d="M400 29C400 19.0589 408.059 11 418 11H492C501.941 11 510 19.0589 510 29H508C508 20.1634 500.837 13 492 13H417C407.611 13 400 20.1634 400 29ZM510 29C510 38.9411 501.941 47 492 47H418C408.059 47 400 38.9411 400 29C400 37.8366 407.611 45 417 45H492C500.837 45 508 37.8366 508 29H510ZM400 46V12V46ZM492 11C501.941 11 510 19.0589 510 29C510 38.9411 501.941 47 492 47V45C500.837 45 508 37.8366 508 29C508 20.1634 500.837 13 492 13V11Z" fill="url(#paint12_linear_427_18111)" mask="url(#path-24-inside-5_427_18111)"/>
<mask id="path-26-inside-6_427_18111" fill="white">
<path d="M-11 67C-11 57.6112 -3.38884 50 6 50H91C100.389 50 108 57.6112 108 67C108 76.3888 100.389 84 91 84H6C-3.38884 84 -11 76.3888 -11 67Z"/>
</mask>
<path d="M-11 67C-11 57.6112 -3.38884 50 6 50H91C100.389 50 108 57.6112 108 67C108 76.3888 100.389 84 91 84H6C-3.38884 84 -11 76.3888 -11 67Z" fill="#EEF2F3"/>
<path d="M-12 67C-12 57.0589 -3.94113 49 6 49H91C100.941 49 109 57.0589 109 67H107C107 58.1634 99.8366 51 91 51H6C-2.83656 51 -10 58.1634 -10 67H-12ZM109 67C109 76.9411 100.941 85 91 85H6C-3.94113 85 -12 76.9411 -12 67H-10C-10 75.8366 -2.83656 83 6 83H91C99.8366 83 107 75.8366 107 67H109ZM6 85C-3.94113 85 -12 76.9411 -12 67C-12 57.0589 -3.94113 49 6 49V51C-2.83656 51 -10 58.1634 -10 67C-10 75.8366 -2.83656 83 6 83V85ZM91 49C100.941 49 109 57.0589 109 67C109 76.9411 100.941 85 91 85V83C99.8366 83 107 75.8366 107 67C107 58.1634 99.8366 51 91 51V49Z" fill="#EBEDED" mask="url(#path-26-inside-6_427_18111)"/>
<mask id="path-28-inside-7_427_18111" fill="white">
<path d="M59 99C59 89.6112 66.6112 82 76 82H196C205.389 82 213 89.6112 213 99C213 108.389 205.389 116 196 116H76C66.6112 116 59 108.389 59 99Z"/>
</mask>
<path d="M59 99C59 89.6112 66.6112 82 76 82H196C205.389 82 213 89.6112 213 99C213 108.389 205.389 116 196 116H76C66.6112 116 59 108.389 59 99Z" fill="url(#paint13_linear_427_18111)"/>
<path d="M59 99C59 89.0589 67.0589 81 77 81H196C205.941 81 214 89.0589 214 99H212C212 90.1634 204.837 83 196 83H76C66.6112 83 59 90.1634 59 99ZM214 99C214 108.941 205.941 117 196 117H77C67.0589 117 59 108.941 59 99C59 107.837 66.6112 115 76 115H196C204.837 115 212 107.837 212 99H214ZM59 116V82V116ZM196 81C205.941 81 214 89.0589 214 99C214 108.941 205.941 117 196 117V115C204.837 115 212 107.837 212 99C212 90.1634 204.837 83 196 83V81Z" fill="url(#paint14_linear_427_18111)" mask="url(#path-28-inside-7_427_18111)"/>
<mask id="path-30-inside-8_427_18111" fill="white">
<path d="M71 109C71 99.6112 78.6112 92 88 92H168C177.389 92 185 99.6112 185 109C185 118.389 177.389 126 168 126H88C78.6112 126 71 118.389 71 109Z"/>
</mask>
<path d="M71 109C71 99.6112 78.6112 92 88 92H168C177.389 92 185 99.6112 185 109C185 118.389 177.389 126 168 126H88C78.6112 126 71 118.389 71 109Z" fill="#EEF2F3"/>
<path d="M70 109C70 99.0589 78.0589 91 88 91H168C177.941 91 186 99.0589 186 109H184C184 100.163 176.837 93 168 93H88C79.1634 93 72 100.163 72 109H70ZM186 109C186 118.941 177.941 127 168 127H88C78.0589 127 70 118.941 70 109H72C72 117.837 79.1634 125 88 125H168C176.837 125 184 117.837 184 109H186ZM88 127C78.0589 127 70 118.941 70 109C70 99.0589 78.0589 91 88 91V93C79.1634 93 72 100.163 72 109C72 117.837 79.1634 125 88 125V127ZM168 91C177.941 91 186 99.0589 186 109C186 118.941 177.941 127 168 127V125C176.837 125 184 117.837 184 109C184 100.163 176.837 93 168 93V91Z" fill="url(#paint15_linear_427_18111)" mask="url(#path-30-inside-8_427_18111)"/>
<mask id="path-32-inside-9_427_18111" fill="white">
<path d="M193 109C193 99.6112 200.611 92 210 92H282C291.389 92 299 99.6112 299 109C299 118.389 291.389 126 282 126H210C200.611 126 193 118.389 193 109Z"/>
</mask>
<path d="M193 109C193 99.6112 200.611 92 210 92H282C291.389 92 299 99.6112 299 109C299 118.389 291.389 126 282 126H210C200.611 126 193 118.389 193 109Z" fill="#EEF2F3"/>
<path d="M192 109C192 99.0589 200.059 91 210 91H282C291.941 91 300 99.0589 300 109H298C298 100.163 290.837 93 282 93H210C201.163 93 194 100.163 194 109H192ZM300 109C300 118.941 291.941 127 282 127H210C200.059 127 192 118.941 192 109H194C194 117.837 201.163 125 210 125H282C290.837 125 298 117.837 298 109H300ZM210 127C200.059 127 192 118.941 192 109C192 99.0589 200.059 91 210 91V93C201.163 93 194 100.163 194 109C194 117.837 201.163 125 210 125V127ZM282 91C291.941 91 300 99.0589 300 109C300 118.941 291.941 127 282 127V125C290.837 125 298 117.837 298 109C298 100.163 290.837 93 282 93V91Z" fill="url(#paint16_linear_427_18111)" mask="url(#path-32-inside-9_427_18111)"/>
<mask id="path-34-inside-10_427_18111" fill="white">
<path d="M116 67C116 57.6112 123.611 50 133 50H212C221.389 50 229 57.6112 229 67C229 76.3888 221.389 84 212 84H133C123.611 84 116 76.3888 116 67Z"/>
</mask>
<path d="M116 67C116 57.6112 123.611 50 133 50H212C221.389 50 229 57.6112 229 67C229 76.3888 221.389 84 212 84H133C123.611 84 116 76.3888 116 67Z" fill="#EEF2F3"/>
<path d="M115 67C115 57.0589 123.059 49 133 49H212C221.941 49 230 57.0589 230 67H228C228 58.1634 220.837 51 212 51H133C124.163 51 117 58.1634 117 67H115ZM230 67C230 76.9411 221.941 85 212 85H133C123.059 85 115 76.9411 115 67H117C117 75.8366 124.163 83 133 83H212C220.837 83 228 75.8366 228 67H230ZM133 85C123.059 85 115 76.9411 115 67C115 57.0589 123.059 49 133 49V51C124.163 51 117 58.1634 117 67C117 75.8366 124.163 83 133 83V85ZM212 49C221.941 49 230 57.0589 230 67C230 76.9411 221.941 85 212 85V83C220.837 83 228 75.8366 228 67C228 58.1634 220.837 51 212 51V49Z" fill="#EBEDED" mask="url(#path-34-inside-10_427_18111)"/>
<mask id="path-36-inside-11_427_18111" fill="white">
<path d="M237 67C237 57.6112 244.611 50 254 50H333C342.389 50 350 57.6112 350 67C350 76.3888 342.389 84 333 84H254C244.611 84 237 76.3888 237 67Z"/>
</mask>
<path d="M237 67C237 57.6112 244.611 50 254 50H333C342.389 50 350 57.6112 350 67C350 76.3888 342.389 84 333 84H254C244.611 84 237 76.3888 237 67Z" fill="#EEF2F3"/>
<path d="M236 67C236 57.0589 244.059 49 254 49H333C342.941 49 351 57.0589 351 67H349C349 58.1634 341.837 51 333 51H254C245.163 51 238 58.1634 238 67H236ZM351 67C351 76.9411 342.941 85 333 85H254C244.059 85 236 76.9411 236 67H238C238 75.8366 245.163 83 254 83H333C341.837 83 349 75.8366 349 67H351ZM254 85C244.059 85 236 76.9411 236 67C236 57.0589 244.059 49 254 49V51C245.163 51 238 58.1634 238 67C238 75.8366 245.163 83 254 83V85ZM333 49C342.941 49 351 57.0589 351 67C351 76.9411 342.941 85 333 85V83C341.837 83 349 75.8366 349 67C349 58.1634 341.837 51 333 51V49Z" fill="#EBEDED" mask="url(#path-36-inside-11_427_18111)"/>
<mask id="path-38-inside-12_427_18111" fill="white">
<path d="M358 67C358 57.6112 365.611 50 375 50H454C463.389 50 471 57.6112 471 67C471 76.3888 463.389 84 454 84H375C365.611 84 358 76.3888 358 67Z"/>
</mask>
<path d="M358 67C358 57.6112 365.611 50 375 50H454C463.389 50 471 57.6112 471 67C471 76.3888 463.389 84 454 84H375C365.611 84 358 76.3888 358 67Z" fill="#EEF2F3"/>
<path d="M357 67C357 57.0589 365.059 49 375 49H454C463.941 49 472 57.0589 472 67H470C470 58.1634 462.837 51 454 51H375C366.163 51 359 58.1634 359 67H357ZM472 67C472 76.9411 463.941 85 454 85H375C365.059 85 357 76.9411 357 67H359C359 75.8366 366.163 83 375 83H454C462.837 83 470 75.8366 470 67H472ZM375 85C365.059 85 357 76.9411 357 67C357 57.0589 365.059 49 375 49V51C366.163 51 359 58.1634 359 67C359 75.8366 366.163 83 375 83V85ZM454 49C463.941 49 472 57.0589 472 67C472 76.9411 463.941 85 454 85V83C462.837 83 470 75.8366 470 67C470 58.1634 462.837 51 454 51V49Z" fill="#EBEDED" mask="url(#path-38-inside-12_427_18111)"/>
<rect x="138.5" y="72.5" width="101" height="35" rx="17.5" fill="#00C3D7"/>
<path d="M166.946 95V87.09L167.618 87.16L164.286 91.234L164.132 90.982H170.362V92.564H163.152L162.396 91.108L167.268 85.172H168.696V95H166.946ZM175.007 95.042C174.382 95.042 173.808 94.916 173.285 94.664C172.772 94.4027 172.361 94.0573 172.053 93.628C171.745 93.1893 171.591 92.704 171.591 92.172C171.591 91.8547 171.633 91.5607 171.717 91.29C171.81 91.0193 171.941 90.7767 172.109 90.562C172.286 90.3473 172.496 90.156 172.739 89.988C172.991 89.8107 173.276 89.6567 173.593 89.526L173.481 89.918C173.238 89.8153 173.014 89.694 172.809 89.554C172.613 89.414 172.44 89.2553 172.291 89.078C172.151 88.8913 172.044 88.6953 171.969 88.49C171.894 88.2753 171.857 88.0513 171.857 87.818C171.857 87.314 171.997 86.8613 172.277 86.46C172.566 86.0587 172.949 85.7413 173.425 85.508C173.901 85.2653 174.428 85.144 175.007 85.144C175.595 85.144 176.127 85.2653 176.603 85.508C177.079 85.7413 177.457 86.0587 177.737 86.46C178.026 86.8613 178.171 87.314 178.171 87.818C178.171 88.0513 178.134 88.2753 178.059 88.49C177.984 88.6953 177.877 88.8867 177.737 89.064C177.606 89.232 177.438 89.3907 177.233 89.54C177.028 89.68 176.79 89.806 176.519 89.918L176.449 89.582C176.748 89.6847 177.018 89.82 177.261 89.988C177.504 90.156 177.714 90.352 177.891 90.576C178.068 90.8 178.204 91.0473 178.297 91.318C178.4 91.5887 178.451 91.8733 178.451 92.172C178.451 92.7133 178.297 93.2033 177.989 93.642C177.681 94.0713 177.266 94.412 176.743 94.664C176.23 94.916 175.651 95.042 175.007 95.042ZM175.007 93.474C175.324 93.474 175.609 93.4133 175.861 93.292C176.113 93.1707 176.309 93.0073 176.449 92.802C176.598 92.5967 176.673 92.3587 176.673 92.088C176.673 91.7987 176.598 91.5467 176.449 91.332C176.309 91.108 176.113 90.9353 175.861 90.814C175.609 90.6833 175.324 90.618 175.007 90.618C174.699 90.618 174.419 90.6833 174.167 90.814C173.924 90.9353 173.728 91.108 173.579 91.332C173.43 91.5467 173.355 91.7987 173.355 92.088C173.355 92.3493 173.43 92.5827 173.579 92.788C173.728 92.9933 173.924 93.1613 174.167 93.292C174.419 93.4133 174.699 93.474 175.007 93.474ZM175.007 89.078C175.287 89.078 175.534 89.0267 175.749 88.924C175.973 88.8213 176.146 88.6813 176.267 88.504C176.388 88.3267 176.449 88.1213 176.449 87.888C176.449 87.6453 176.388 87.4353 176.267 87.258C176.146 87.0713 175.973 86.9267 175.749 86.824C175.534 86.712 175.287 86.656 175.007 86.656C174.736 86.656 174.489 86.712 174.265 86.824C174.05 86.9267 173.882 87.0713 173.761 87.258C173.64 87.4353 173.579 87.6453 173.579 87.888C173.579 88.1213 173.64 88.3267 173.761 88.504C173.882 88.6813 174.05 88.8213 174.265 88.924C174.489 89.0267 174.736 89.078 175.007 89.078ZM184.217 95V87.622H185.911L185.939 89.106L185.659 89.218C185.743 88.9753 185.869 88.7513 186.037 88.546C186.205 88.3313 186.406 88.1493 186.639 88C186.873 87.8413 187.12 87.72 187.381 87.636C187.643 87.5427 187.909 87.496 188.179 87.496C188.581 87.496 188.935 87.5613 189.243 87.692C189.561 87.8133 189.822 88.0093 190.027 88.28C190.242 88.5507 190.401 88.896 190.503 89.316L190.237 89.26L190.349 89.036C190.452 88.812 190.597 88.6113 190.783 88.434C190.97 88.2473 191.18 88.084 191.413 87.944C191.647 87.7947 191.889 87.6827 192.141 87.608C192.403 87.5333 192.659 87.496 192.911 87.496C193.471 87.496 193.938 87.608 194.311 87.832C194.685 88.056 194.965 88.3967 195.151 88.854C195.338 89.3113 195.431 89.876 195.431 90.548V95H193.695V90.66C193.695 90.2867 193.644 89.9787 193.541 89.736C193.448 89.4933 193.299 89.316 193.093 89.204C192.897 89.0827 192.65 89.022 192.351 89.022C192.118 89.022 191.894 89.064 191.679 89.148C191.474 89.2227 191.297 89.3347 191.147 89.484C190.998 89.624 190.881 89.7873 190.797 89.974C190.713 90.1607 190.671 90.366 190.671 90.59V95H188.935V90.646C188.935 90.2913 188.884 89.9973 188.781 89.764C188.679 89.5213 188.529 89.3393 188.333 89.218C188.137 89.0873 187.899 89.022 187.619 89.022C187.386 89.022 187.167 89.064 186.961 89.148C186.756 89.2227 186.579 89.33 186.429 89.47C186.28 89.61 186.163 89.7733 186.079 89.96C185.995 90.1467 185.953 90.352 185.953 90.576V95H184.217ZM200.717 95.14C199.98 95.14 199.322 94.9767 198.743 94.65C198.164 94.314 197.707 93.8567 197.371 93.278C197.035 92.6993 196.867 92.0413 196.867 91.304C196.867 90.5667 197.035 89.9087 197.371 89.33C197.707 88.7513 198.164 88.2987 198.743 87.972C199.322 87.636 199.98 87.468 200.717 87.468C201.445 87.468 202.098 87.636 202.677 87.972C203.256 88.2987 203.708 88.7513 204.035 89.33C204.371 89.9087 204.539 90.5667 204.539 91.304C204.539 92.0413 204.371 92.6993 204.035 93.278C203.708 93.8567 203.256 94.314 202.677 94.65C202.098 94.9767 201.445 95.14 200.717 95.14ZM200.717 93.614C201.118 93.614 201.473 93.5113 201.781 93.306C202.098 93.1007 202.346 92.8253 202.523 92.48C202.71 92.1347 202.798 91.7427 202.789 91.304C202.798 90.856 202.71 90.4593 202.523 90.114C202.346 89.7687 202.098 89.498 201.781 89.302C201.473 89.0967 201.118 88.994 200.717 88.994C200.316 88.994 199.952 89.0967 199.625 89.302C199.308 89.498 199.06 89.7733 198.883 90.128C198.706 90.4733 198.617 90.8653 198.617 91.304C198.617 91.7427 198.706 92.1347 198.883 92.48C199.06 92.8253 199.308 93.1007 199.625 93.306C199.952 93.5113 200.316 93.614 200.717 93.614ZM206.275 95V87.622H207.997V95H206.275ZM207.115 86.054C206.77 86.054 206.499 85.97 206.303 85.802C206.117 85.6247 206.023 85.3773 206.023 85.06C206.023 84.7613 206.121 84.5187 206.317 84.332C206.513 84.1453 206.779 84.052 207.115 84.052C207.47 84.052 207.741 84.1407 207.927 84.318C208.123 84.486 208.221 84.7333 208.221 85.06C208.221 85.3493 208.123 85.5873 207.927 85.774C207.731 85.9607 207.461 86.054 207.115 86.054ZM212.645 95.14C211.992 95.14 211.404 95.0327 210.881 94.818C210.368 94.594 209.948 94.2767 209.621 93.866L210.741 92.9C211.021 93.2173 211.334 93.446 211.679 93.586C212.024 93.726 212.388 93.796 212.771 93.796C212.93 93.796 213.07 93.7773 213.191 93.74C213.322 93.7027 213.434 93.6467 213.527 93.572C213.62 93.4973 213.69 93.4133 213.737 93.32C213.793 93.2173 213.821 93.1053 213.821 92.984C213.821 92.76 213.737 92.5827 213.569 92.452C213.476 92.3867 213.326 92.3167 213.121 92.242C212.925 92.1673 212.668 92.0927 212.351 92.018C211.847 91.8873 211.427 91.738 211.091 91.57C210.755 91.3927 210.494 91.1967 210.307 90.982C210.148 90.8047 210.027 90.604 209.943 90.38C209.868 90.156 209.831 89.9133 209.831 89.652C209.831 89.3253 209.901 89.0313 210.041 88.77C210.19 88.4993 210.391 88.266 210.643 88.07C210.895 87.874 211.189 87.7247 211.525 87.622C211.861 87.5193 212.211 87.468 212.575 87.468C212.948 87.468 213.308 87.5147 213.653 87.608C214.008 87.7013 214.334 87.8367 214.633 88.014C214.941 88.182 215.202 88.3873 215.417 88.63L214.465 89.68C214.288 89.512 214.092 89.3627 213.877 89.232C213.672 89.1013 213.462 88.9987 213.247 88.924C213.032 88.84 212.832 88.798 212.645 88.798C212.468 88.798 212.309 88.8167 212.169 88.854C212.029 88.882 211.912 88.9287 211.819 88.994C211.726 89.0593 211.651 89.1433 211.595 89.246C211.548 89.3393 211.525 89.4513 211.525 89.582C211.534 89.694 211.562 89.8013 211.609 89.904C211.665 89.9973 211.74 90.0767 211.833 90.142C211.936 90.2073 212.09 90.282 212.295 90.366C212.5 90.45 212.766 90.5293 213.093 90.604C213.55 90.7253 213.933 90.8607 214.241 91.01C214.549 91.1593 214.792 91.332 214.969 91.528C215.146 91.696 215.272 91.892 215.347 92.116C215.422 92.34 215.459 92.5873 215.459 92.858C215.459 93.2967 215.333 93.6887 215.081 94.034C214.838 94.3793 214.502 94.65 214.073 94.846C213.653 95.042 213.177 95.14 212.645 95.14Z" fill="black"/>
<rect x="138.5" y="72.5" width="101" height="35" rx="17.5" stroke="url(#paint17_linear_427_18111)"/>
<rect x="138.5" y="114.5" width="101" height="35" rx="17.5" fill="#00C3D7"/>
<path d="M156.227 137.098C155.546 137.098 154.93 136.953 154.379 136.664C153.828 136.365 153.371 135.936 153.007 135.376L154.015 134.284C154.426 134.741 154.794 135.059 155.121 135.236C155.448 135.404 155.807 135.488 156.199 135.488C156.554 135.488 156.871 135.413 157.151 135.264C157.431 135.105 157.655 134.895 157.823 134.634C157.991 134.363 158.075 134.069 158.075 133.752C158.075 133.407 157.996 133.103 157.837 132.842C157.678 132.571 157.464 132.357 157.193 132.198C156.922 132.039 156.614 131.96 156.269 131.96C156.082 131.96 155.905 131.974 155.737 132.002C155.569 132.03 155.373 132.086 155.149 132.17C154.934 132.254 154.659 132.385 154.323 132.562L153.455 131.386L154.029 127.172H159.447V128.782H155.051L155.457 128.334L154.995 131.442L154.477 131.078C154.598 130.966 154.776 130.859 155.009 130.756C155.252 130.653 155.513 130.569 155.793 130.504C156.073 130.439 156.348 130.406 156.619 130.406C157.226 130.406 157.767 130.546 158.243 130.826C158.719 131.106 159.097 131.493 159.377 131.988C159.657 132.473 159.797 133.033 159.797 133.668C159.797 134.312 159.638 134.895 159.321 135.418C159.013 135.931 158.588 136.342 158.047 136.65C157.506 136.949 156.899 137.098 156.227 137.098ZM165.007 137.14C164.213 137.14 163.532 136.939 162.963 136.538C162.403 136.127 161.969 135.549 161.661 134.802C161.362 134.046 161.213 133.145 161.213 132.1C161.213 131.055 161.362 130.159 161.661 129.412C161.969 128.656 162.403 128.077 162.963 127.676C163.532 127.265 164.213 127.06 165.007 127.06C165.8 127.06 166.481 127.265 167.051 127.676C167.62 128.077 168.054 128.656 168.353 129.412C168.661 130.159 168.815 131.055 168.815 132.1C168.815 133.145 168.661 134.046 168.353 134.802C168.054 135.549 167.62 136.127 167.051 136.538C166.481 136.939 165.8 137.14 165.007 137.14ZM165.007 135.544C165.66 135.544 166.164 135.245 166.519 134.648C166.883 134.041 167.065 133.192 167.065 132.1C167.065 130.999 166.883 130.145 166.519 129.538C166.164 128.931 165.66 128.628 165.007 128.628C164.353 128.628 163.845 128.931 163.481 129.538C163.126 130.145 162.949 130.999 162.949 132.1C162.949 133.192 163.126 134.041 163.481 134.648C163.845 135.245 164.353 135.544 165.007 135.544ZM177.954 137.14C177.161 137.14 176.479 136.939 175.91 136.538C175.35 136.127 174.916 135.549 174.608 134.802C174.309 134.046 174.16 133.145 174.16 132.1C174.16 131.055 174.309 130.159 174.608 129.412C174.916 128.656 175.35 128.077 175.91 127.676C176.479 127.265 177.161 127.06 177.954 127.06C178.747 127.06 179.429 127.265 179.998 127.676C180.567 128.077 181.001 128.656 181.3 129.412C181.608 130.159 181.762 131.055 181.762 132.1C181.762 133.145 181.608 134.046 181.3 134.802C181.001 135.549 180.567 136.127 179.998 136.538C179.429 136.939 178.747 137.14 177.954 137.14ZM177.954 135.544C178.607 135.544 179.111 135.245 179.466 134.648C179.83 134.041 180.012 133.192 180.012 132.1C180.012 130.999 179.83 130.145 179.466 129.538C179.111 128.931 178.607 128.628 177.954 128.628C177.301 128.628 176.792 128.931 176.428 129.538C176.073 130.145 175.896 130.999 175.896 132.1C175.896 133.192 176.073 134.041 176.428 134.648C176.792 135.245 177.301 135.544 177.954 135.544ZM186.786 137.14C185.993 137.14 185.311 136.939 184.742 136.538C184.182 136.127 183.748 135.549 183.44 134.802C183.141 134.046 182.992 133.145 182.992 132.1C182.992 131.055 183.141 130.159 183.44 129.412C183.748 128.656 184.182 128.077 184.742 127.676C185.311 127.265 185.993 127.06 186.786 127.06C187.579 127.06 188.261 127.265 188.83 127.676C189.399 128.077 189.833 128.656 190.132 129.412C190.44 130.159 190.594 131.055 190.594 132.1C190.594 133.145 190.44 134.046 190.132 134.802C189.833 135.549 189.399 136.127 188.83 136.538C188.261 136.939 187.579 137.14 186.786 137.14ZM186.786 135.544C187.439 135.544 187.943 135.245 188.298 134.648C188.662 134.041 188.844 133.192 188.844 132.1C188.844 130.999 188.662 130.145 188.298 129.538C187.943 128.931 187.439 128.628 186.786 128.628C186.133 128.628 185.624 128.931 185.26 129.538C184.905 130.145 184.728 130.999 184.728 132.1C184.728 133.192 184.905 134.041 185.26 134.648C185.624 135.245 186.133 135.544 186.786 135.544ZM195.618 137.14C194.825 137.14 194.143 136.939 193.574 136.538C193.014 136.127 192.58 135.549 192.272 134.802C191.973 134.046 191.824 133.145 191.824 132.1C191.824 131.055 191.973 130.159 192.272 129.412C192.58 128.656 193.014 128.077 193.574 127.676C194.143 127.265 194.825 127.06 195.618 127.06C196.411 127.06 197.093 127.265 197.662 127.676C198.231 128.077 198.665 128.656 198.964 129.412C199.272 130.159 199.426 131.055 199.426 132.1C199.426 133.145 199.272 134.046 198.964 134.802C198.665 135.549 198.231 136.127 197.662 136.538C197.093 136.939 196.411 137.14 195.618 137.14ZM195.618 135.544C196.271 135.544 196.775 135.245 197.13 134.648C197.494 134.041 197.676 133.192 197.676 132.1C197.676 130.999 197.494 130.145 197.13 129.538C196.775 128.931 196.271 128.628 195.618 128.628C194.965 128.628 194.456 128.931 194.092 129.538C193.737 130.145 193.56 130.999 193.56 132.1C193.56 133.192 193.737 134.041 194.092 134.648C194.456 135.245 194.965 135.544 195.618 135.544ZM206.773 134.746L206.437 133.136L209.937 129.622H212.233L206.773 134.746ZM205.163 137V126.64H206.885V137H205.163ZM210.147 137L207.431 133.71L208.649 132.674L212.275 137H210.147ZM213.379 137V129.622H215.073L215.101 131.106L214.821 131.218C214.905 130.975 215.031 130.751 215.199 130.546C215.367 130.331 215.568 130.149 215.801 130C216.035 129.841 216.282 129.72 216.543 129.636C216.805 129.543 217.071 129.496 217.341 129.496C217.743 129.496 218.097 129.561 218.405 129.692C218.723 129.813 218.984 130.009 219.189 130.28C219.404 130.551 219.563 130.896 219.665 131.316L219.399 131.26L219.511 131.036C219.614 130.812 219.759 130.611 219.945 130.434C220.132 130.247 220.342 130.084 220.575 129.944C220.809 129.795 221.051 129.683 221.303 129.608C221.565 129.533 221.821 129.496 222.073 129.496C222.633 129.496 223.1 129.608 223.473 129.832C223.847 130.056 224.127 130.397 224.313 130.854C224.5 131.311 224.593 131.876 224.593 132.548V137H222.857V132.66C222.857 132.287 222.806 131.979 222.703 131.736C222.61 131.493 222.461 131.316 222.255 131.204C222.059 131.083 221.812 131.022 221.513 131.022C221.28 131.022 221.056 131.064 220.841 131.148C220.636 131.223 220.459 131.335 220.309 131.484C220.16 131.624 220.043 131.787 219.959 131.974C219.875 132.161 219.833 132.366 219.833 132.59V137H218.097V132.646C218.097 132.291 218.046 131.997 217.943 131.764C217.841 131.521 217.691 131.339 217.495 131.218C217.299 131.087 217.061 131.022 216.781 131.022C216.548 131.022 216.329 131.064 216.123 131.148C215.918 131.223 215.741 131.33 215.591 131.47C215.442 131.61 215.325 131.773 215.241 131.96C215.157 132.147 215.115 132.352 215.115 132.576V137H213.379Z" fill="black"/>
<rect x="138.5" y="114.5" width="101" height="35" rx="17.5" stroke="url(#paint18_linear_427_18111)"/>
<path d="M190.505 156.28C189.708 157.19 188.292 157.19 187.495 156.28L182 150L196 150L190.505 156.28Z" fill="#00C3D7"/>
</g>
<defs>
<filter id="filter0_d_427_18111" x="173" y="158" width="32" height="32" filterUnits="userSpaceOnUse" color-interpolation-filters="sRGB">
<feFlood flood-opacity="0" result="BackgroundImageFix"/>
<feColorMatrix in="SourceAlpha" type="matrix" values="0 0 0 0 0 0 0 0 0 0 0 0 0 0 0 0 0 0 127 0" result="hardAlpha"/>
<feOffset/>
<feGaussianBlur stdDeviation="2"/>
<feComposite in2="hardAlpha" operator="out"/>
<feColorMatrix type="matrix" values="0 0 0 0 0 0 0 0 0 0 0 0 0 0 0 0 0 0 0.16 0"/>
<feBlend mode="normal" in2="BackgroundImageFix" result="effect1_dropShadow_427_18111"/>
<feBlend mode="normal" in="SourceGraphic" in2="effect1_dropShadow_427_18111" result="shape"/>
</filter>
<linearGradient id="paint0_linear_427_18111" x1="189" y1="102" x2="189" y2="246" gradientUnits="userSpaceOnUse">
<stop stop-color="#E9ECEE"/>
<stop offset="1" stop-color="#F1F1F1"/>
</linearGradient>
<linearGradient id="paint1_linear_427_18111" x1="188.5" y1="81" x2="188.5" y2="268" gradientUnits="userSpaceOnUse">
<stop stop-color="#E9EFF3"/>
<stop offset="1" stop-color="#F1F1F1"/>
</linearGradient>
<linearGradient id="paint2_linear_427_18111" x1="189" y1="56" x2="189" y2="292" gradientUnits="userSpaceOnUse">
<stop stop-color="#EDF3F8"/>
<stop offset="1" stop-color="#F1F1F1"/>
</linearGradient>
<linearGradient id="paint3_linear_427_18111" x1="-13.5" y1="12" x2="-13.5" y2="46" gradientUnits="userSpaceOnUse">
<stop stop-color="#F2F6F7" stop-opacity="0"/>
<stop offset="1" stop-color="#EDF1F2"/>
</linearGradient>
<linearGradient id="paint4_linear_427_18111" x1="-13.5" y1="12" x2="-10.2973" y2="45.6956" gradientUnits="userSpaceOnUse">
<stop stop-color="#F2F6F7" stop-opacity="0"/>
<stop offset="1" stop-color="#EBEDED"/>
</linearGradient>
<linearGradient id="paint5_linear_427_18111" x1="220.5" y1="12" x2="220.5" y2="46" gradientUnits="userSpaceOnUse">
<stop stop-color="#F2F6F7" stop-opacity="0"/>
<stop offset="1" stop-color="#EDF1F2"/>
</linearGradient>
<linearGradient id="paint6_linear_427_18111" x1="220.5" y1="12" x2="223.689" y2="45.6982" gradientUnits="userSpaceOnUse">
<stop stop-color="#F2F6F7" stop-opacity="0"/>
<stop offset="1" stop-color="#EBEDED"/>
</linearGradient>
<linearGradient id="paint7_linear_427_18111" x1="103.5" y1="12" x2="103.5" y2="46" gradientUnits="userSpaceOnUse">
<stop stop-color="#F2F6F7" stop-opacity="0"/>
<stop offset="1" stop-color="#EDF1F2"/>
</linearGradient>
<linearGradient id="paint8_linear_427_18111" x1="103.5" y1="12" x2="106.711" y2="45.694" gradientUnits="userSpaceOnUse">
<stop stop-color="#F2F6F7" stop-opacity="0"/>
<stop offset="1" stop-color="#EBEDED"/>
</linearGradient>
<linearGradient id="paint9_linear_427_18111" x1="337.5" y1="12" x2="337.5" y2="46" gradientUnits="userSpaceOnUse">
<stop stop-color="#F2F6F7" stop-opacity="0"/>
<stop offset="1" stop-color="#EDF1F2"/>
</linearGradient>
<linearGradient id="paint10_linear_427_18111" x1="337.5" y1="12" x2="340.734" y2="45.6896" gradientUnits="userSpaceOnUse">
<stop stop-color="#F2F6F7" stop-opacity="0"/>
<stop offset="1" stop-color="#EBEDED"/>
</linearGradient>
<linearGradient id="paint11_linear_427_18111" x1="454.5" y1="12" x2="454.5" y2="46" gradientUnits="userSpaceOnUse">
<stop stop-color="#F2F6F7" stop-opacity="0"/>
<stop offset="1" stop-color="#EDF1F2"/>
</linearGradient>
<linearGradient id="paint12_linear_427_18111" x1="454.5" y1="12" x2="457.734" y2="45.6896" gradientUnits="userSpaceOnUse">
<stop stop-color="#F2F6F7" stop-opacity="0"/>
<stop offset="1" stop-color="#EBEDED"/>
</linearGradient>
<linearGradient id="paint13_linear_427_18111" x1="136" y1="82" x2="136" y2="116" gradientUnits="userSpaceOnUse">
<stop stop-color="#F2F6F7" stop-opacity="0"/>
<stop offset="1" stop-color="#EDF1F2"/>
</linearGradient>
<linearGradient id="paint14_linear_427_18111" x1="136" y1="82" x2="138.296" y2="115.844" gradientUnits="userSpaceOnUse">
<stop stop-color="#F2F6F7" stop-opacity="0"/>
<stop offset="1" stop-color="#DAE2E4"/>
</linearGradient>
<linearGradient id="paint15_linear_427_18111" x1="128" y1="92" x2="131.086" y2="125.718" gradientUnits="userSpaceOnUse">
<stop stop-color="#EBEBEB" stop-opacity="0.78"/>
<stop offset="1" stop-color="#DAE2E4"/>
</linearGradient>
<linearGradient id="paint16_linear_427_18111" x1="246" y1="92" x2="249.295" y2="125.678" gradientUnits="userSpaceOnUse">
<stop stop-color="#EBEBEB" stop-opacity="0.78"/>
<stop offset="1" stop-color="#DAE2E4"/>
</linearGradient>
<linearGradient id="paint17_linear_427_18111" x1="189" y1="72" x2="189" y2="108" gradientUnits="userSpaceOnUse">
<stop stop-color="#8BE8F1"/>
<stop offset="1" stop-color="#00C3D7" stop-opacity="0"/>
</linearGradient>
<linearGradient id="paint18_linear_427_18111" x1="189" y1="114" x2="189" y2="150" gradientUnits="userSpaceOnUse">
<stop stop-color="#8BE8F1"/>
<stop offset="1" stop-color="#00C3D7" stop-opacity="0"/>
</linearGradient>
<clipPath id="clip0_427_18111">
<rect width="435" height="292" fill="white"/>
</clipPath>
</defs>
</svg>
