<svg width="435" height="172" viewBox="0 0 435 172" fill="none" xmlns="http://www.w3.org/2000/svg">
<g clip-path="url(#clip0_427_17740)">
<rect x="222" y="41" width="216" height="4" fill="url(#paint0_linear_427_17740)"/>
<g opacity="0.3">
<rect x="32" y="53" width="48" height="76" rx="24" fill="#181A1C" fill-opacity="0.05"/>
<g filter="url(#filter0_f_427_17740)">
<path d="M52.3815 91L51.7215 89.36L56.0015 84.54C56.2282 84.3 56.4615 84.0267 56.7015 83.72C56.9548 83.4 57.1948 83.0733 57.4215 82.74C57.6482 82.4067 57.8282 82.08 57.9615 81.76C58.1082 81.4267 58.1815 81.1133 58.1815 80.82C58.1815 80.3933 58.0948 80.0333 57.9215 79.74C57.7615 79.4333 57.5215 79.2 57.2015 79.04C56.8948 78.88 56.5215 78.8 56.0815 78.8C55.6948 78.8 55.3148 78.9133 54.9415 79.14C54.5682 79.3667 54.2282 79.6867 53.9215 80.1C53.6148 80.5133 53.3748 80.9933 53.2015 81.54L51.5415 80.5C51.7682 79.7267 52.1082 79.0667 52.5615 78.52C53.0282 77.96 53.5815 77.5333 54.2215 77.24C54.8748 76.9467 55.5815 76.8 56.3415 76.8C57.1282 76.8 57.8282 76.9667 58.4415 77.3C59.0548 77.62 59.5348 78.0733 59.8815 78.66C60.2282 79.2333 60.4015 79.9 60.4015 80.66C60.4015 80.9667 60.3682 81.28 60.3015 81.6C60.2348 81.92 60.1282 82.2533 59.9815 82.6C59.8348 82.9333 59.6482 83.2867 59.4215 83.66C59.1948 84.02 58.9215 84.4 58.6015 84.8C58.2948 85.2 57.9415 85.62 57.5415 86.06L54.3615 89.52L53.9615 88.92H60.8415V91H52.3815ZM46.758 109V100.6H48.054V109H46.758ZM47.334 105.424V104.176H51.666V105.424H47.334ZM47.334 101.848V100.6H52.206V101.848H47.334ZM56.429 109.12C55.781 109.12 55.205 108.984 54.701 108.712C54.205 108.432 53.813 108.052 53.525 107.572C53.245 107.092 53.105 106.54 53.105 105.916C53.105 105.42 53.185 104.968 53.345 104.56C53.505 104.152 53.725 103.8 54.005 103.504C54.293 103.2 54.633 102.968 55.025 102.808C55.425 102.64 55.857 102.556 56.321 102.556C56.729 102.556 57.109 102.636 57.461 102.796C57.813 102.948 58.117 103.16 58.373 103.432C58.637 103.704 58.837 104.028 58.973 104.404C59.117 104.772 59.185 105.176 59.177 105.616L59.165 106.144H54.017L53.741 105.16H58.097L57.917 105.364V105.076C57.893 104.812 57.805 104.576 57.653 104.368C57.501 104.16 57.309 103.996 57.077 103.876C56.845 103.756 56.593 103.696 56.321 103.696C55.889 103.696 55.525 103.78 55.229 103.948C54.933 104.108 54.709 104.348 54.557 104.668C54.405 104.98 54.329 105.368 54.329 105.832C54.329 106.272 54.421 106.656 54.605 106.984C54.789 107.304 55.049 107.552 55.385 107.728C55.721 107.904 56.109 107.992 56.549 107.992C56.861 107.992 57.149 107.94 57.413 107.836C57.685 107.732 57.977 107.544 58.289 107.272L58.913 108.148C58.721 108.34 58.485 108.508 58.205 108.652C57.933 108.796 57.641 108.912 57.329 109C57.025 109.08 56.725 109.12 56.429 109.12ZM62.4671 109L59.8031 102.7H61.1351L63.0551 107.416L62.8271 107.524L64.8791 102.7H66.1511L63.3551 109H62.4671Z" fill="#AAAEB2"/>
</g>
</g>
<g opacity="0.3">
<rect x="-24" y="53" width="48" height="76" rx="24" fill="#181A1C" fill-opacity="0.05"/>
<g filter="url(#filter1_f_427_17740)">
<path d="M-0.66 90.02V78.66L0.0800002 79.22L-2.68 80.68L-3.26 78.8L0.48 76.8H1.52V90.02H-0.66ZM-2.88 91V88.92H3.8V91H-2.88ZM-9.24197 109V100.6H-7.94597V109H-9.24197ZM-8.66597 105.424V104.176H-4.33397V105.424H-8.66597ZM-8.66597 101.848V100.6H-3.79397V101.848H-8.66597ZM0.429 109.12C-0.219 109.12 -0.795 108.984 -1.299 108.712C-1.795 108.432 -2.187 108.052 -2.475 107.572C-2.755 107.092 -2.895 106.54 -2.895 105.916C-2.895 105.42 -2.815 104.968 -2.655 104.56C-2.495 104.152 -2.275 103.8 -1.995 103.504C-1.707 103.2 -1.367 102.968 -0.975 102.808C-0.575 102.64 -0.143 102.556 0.321 102.556C0.729 102.556 1.109 102.636 1.461 102.796C1.813 102.948 2.117 103.16 2.373 103.432C2.637 103.704 2.837 104.028 2.973 104.404C3.117 104.772 3.185 105.176 3.177 105.616L3.165 106.144H-1.983L-2.259 105.16H2.097L1.917 105.364V105.076C1.893 104.812 1.805 104.576 1.653 104.368C1.501 104.16 1.309 103.996 1.077 103.876C0.845 103.756 0.593 103.696 0.321 103.696C-0.111 103.696 -0.475 103.78 -0.771 103.948C-1.067 104.108 -1.291 104.348 -1.443 104.668C-1.595 104.98 -1.671 105.368 -1.671 105.832C-1.671 106.272 -1.579 106.656 -1.395 106.984C-1.211 107.304 -0.951 107.552 -0.615 107.728C-0.279 107.904 0.109 107.992 0.549 107.992C0.861 107.992 1.149 107.94 1.413 107.836C1.685 107.732 1.977 107.544 2.289 107.272L2.913 108.148C2.721 108.34 2.485 108.508 2.205 108.652C1.933 108.796 1.641 108.912 1.329 109C1.025 109.08 0.725 109.12 0.429 109.12ZM6.46706 109L3.80306 102.7H5.13506L7.05506 107.416L6.82706 107.524L8.87906 102.7H10.1511L7.35506 109H6.46706Z" fill="#AAAEB2"/>
</g>
</g>
<g opacity="0.4">
<rect x="88" y="53" width="47" height="76" rx="23.5" fill="#181A1C" fill-opacity="0.05"/>
<g filter="url(#filter2_f_427_17740)">
<path d="M111.227 91.2C110.24 91.2 109.38 90.9733 108.647 90.52C107.927 90.0667 107.247 89.3067 106.607 88.24L108.287 87.18C108.62 87.6733 108.947 88.08 109.267 88.4C109.6 88.7067 109.94 88.9333 110.287 89.08C110.634 89.2267 111 89.3 111.387 89.3C111.854 89.3 112.287 89.1867 112.687 88.96C113.087 88.72 113.407 88.3933 113.647 87.98C113.887 87.5667 114.007 87.1 114.007 86.58C114.007 86.06 113.914 85.62 113.727 85.26C113.54 84.8867 113.267 84.6067 112.907 84.42C112.547 84.22 112.12 84.12 111.627 84.12C111.4 84.12 111.16 84.1467 110.907 84.2C110.667 84.24 110.407 84.3067 110.127 84.4C109.847 84.48 109.54 84.5867 109.207 84.72L108.607 83.14L112.927 78.38L113.347 79H107.387V77H115.407L115.807 77.8L111.227 82.88L110.727 82.36C110.834 82.3067 111.007 82.26 111.247 82.22C111.5 82.1667 111.707 82.14 111.867 82.14C112.454 82.14 113 82.2533 113.507 82.48C114.027 82.6933 114.474 83 114.847 83.4C115.234 83.7867 115.534 84.2467 115.747 84.78C115.974 85.3 116.087 85.86 116.087 86.46C116.087 87.3667 115.867 88.18 115.427 88.9C115 89.6067 114.42 90.1667 113.687 90.58C112.954 90.9933 112.134 91.2 111.227 91.2ZM102.258 109V100.6H103.554V109H102.258ZM102.834 105.424V104.176H107.166V105.424H102.834ZM102.834 101.848V100.6H107.706V101.848H102.834ZM111.929 109.12C111.281 109.12 110.705 108.984 110.201 108.712C109.705 108.432 109.313 108.052 109.025 107.572C108.745 107.092 108.605 106.54 108.605 105.916C108.605 105.42 108.685 104.968 108.845 104.56C109.005 104.152 109.225 103.8 109.505 103.504C109.793 103.2 110.133 102.968 110.525 102.808C110.925 102.64 111.357 102.556 111.821 102.556C112.229 102.556 112.609 102.636 112.961 102.796C113.313 102.948 113.617 103.16 113.873 103.432C114.137 103.704 114.337 104.028 114.473 104.404C114.617 104.772 114.685 105.176 114.677 105.616L114.665 106.144H109.517L109.241 105.16H113.597L113.417 105.364V105.076C113.393 104.812 113.305 104.576 113.153 104.368C113.001 104.16 112.809 103.996 112.577 103.876C112.345 103.756 112.093 103.696 111.821 103.696C111.389 103.696 111.025 103.78 110.729 103.948C110.433 104.108 110.209 104.348 110.057 104.668C109.905 104.98 109.829 105.368 109.829 105.832C109.829 106.272 109.921 106.656 110.105 106.984C110.289 107.304 110.549 107.552 110.885 107.728C111.221 107.904 111.609 107.992 112.049 107.992C112.361 107.992 112.649 107.94 112.913 107.836C113.185 107.732 113.477 107.544 113.789 107.272L114.413 108.148C114.221 108.34 113.985 108.508 113.705 108.652C113.433 108.796 113.141 108.912 112.829 109C112.525 109.08 112.225 109.12 111.929 109.12ZM117.967 109L115.303 102.7H116.635L118.555 107.416L118.327 107.524L120.379 102.7H121.651L118.855 109H117.967Z" fill="#AAAEB2"/>
</g>
</g>
<g opacity="0.5">
<rect x="143" y="53" width="47" height="76" rx="23.5" fill="#181A1C" fill-opacity="0.05"/>
<g filter="url(#filter3_f_427_17740)">
<path d="M167.339 91V79.72L167.839 79.84L163.239 85.46L163.159 85.22H171.859V87.2H161.819L160.899 85.4L167.759 77H169.419V91H167.339ZM157.258 109V100.6H158.554V109H157.258ZM157.834 105.424V104.176H162.166V105.424H157.834ZM157.834 101.848V100.6H162.706V101.848H157.834ZM166.929 109.12C166.281 109.12 165.705 108.984 165.201 108.712C164.705 108.432 164.313 108.052 164.025 107.572C163.745 107.092 163.605 106.54 163.605 105.916C163.605 105.42 163.685 104.968 163.845 104.56C164.005 104.152 164.225 103.8 164.505 103.504C164.793 103.2 165.133 102.968 165.525 102.808C165.925 102.64 166.357 102.556 166.821 102.556C167.229 102.556 167.609 102.636 167.961 102.796C168.313 102.948 168.617 103.16 168.873 103.432C169.137 103.704 169.337 104.028 169.473 104.404C169.617 104.772 169.685 105.176 169.677 105.616L169.665 106.144H164.517L164.241 105.16H168.597L168.417 105.364V105.076C168.393 104.812 168.305 104.576 168.153 104.368C168.001 104.16 167.809 103.996 167.577 103.876C167.345 103.756 167.093 103.696 166.821 103.696C166.389 103.696 166.025 103.78 165.729 103.948C165.433 104.108 165.209 104.348 165.057 104.668C164.905 104.98 164.829 105.368 164.829 105.832C164.829 106.272 164.921 106.656 165.105 106.984C165.289 107.304 165.549 107.552 165.885 107.728C166.221 107.904 166.609 107.992 167.049 107.992C167.361 107.992 167.649 107.94 167.913 107.836C168.185 107.732 168.477 107.544 168.789 107.272L169.413 108.148C169.221 108.34 168.985 108.508 168.705 108.652C168.433 108.796 168.141 108.912 167.829 109C167.525 109.08 167.225 109.12 166.929 109.12ZM172.967 109L170.303 102.7H171.635L173.555 107.416L173.327 107.524L175.379 102.7H176.651L173.855 109H172.967Z" fill="#AAAEB2"/>
</g>
</g>
<g opacity="0.7">
<rect x="198.5" y="53.5" width="46" height="75" rx="23" fill="url(#paint1_linear_427_17740)"/>
<path d="M220.956 91.14C220.036 91.14 219.203 90.9333 218.456 90.52C217.71 90.0933 217.09 89.4867 216.596 88.7L217.796 87.36C218.423 88.0533 218.97 88.5267 219.436 88.78C219.903 89.0333 220.41 89.16 220.956 89.16C221.503 89.16 221.996 89.04 222.436 88.8C222.876 88.56 223.223 88.2333 223.476 87.82C223.743 87.4067 223.876 86.9467 223.876 86.44C223.876 85.9067 223.75 85.4333 223.496 85.02C223.256 84.5933 222.93 84.26 222.516 84.02C222.103 83.7667 221.636 83.64 221.116 83.64C220.863 83.64 220.623 83.66 220.396 83.7C220.17 83.7267 219.896 83.8 219.576 83.92C219.256 84.04 218.836 84.2267 218.316 84.48L217.176 82.94L217.996 77H225.556V79H219.356L219.776 78.62L219.116 83.06L218.616 82.48C218.75 82.3467 218.976 82.22 219.296 82.1C219.616 81.9667 219.97 81.86 220.356 81.78C220.756 81.6867 221.136 81.64 221.496 81.64C222.35 81.64 223.11 81.84 223.776 82.24C224.456 82.6267 224.99 83.1667 225.376 83.86C225.776 84.5533 225.976 85.3467 225.976 86.24C225.976 87.16 225.756 87.9933 225.316 88.74C224.876 89.4733 224.276 90.06 223.516 90.5C222.756 90.9267 221.903 91.14 220.956 91.14ZM212.258 109V100.6H213.554V109H212.258ZM212.834 105.424V104.176H217.166V105.424H212.834ZM212.834 101.848V100.6H217.706V101.848H212.834ZM221.929 109.12C221.281 109.12 220.705 108.984 220.201 108.712C219.705 108.432 219.313 108.052 219.025 107.572C218.745 107.092 218.605 106.54 218.605 105.916C218.605 105.42 218.685 104.968 218.845 104.56C219.005 104.152 219.225 103.8 219.505 103.504C219.793 103.2 220.133 102.968 220.525 102.808C220.925 102.64 221.357 102.556 221.821 102.556C222.229 102.556 222.609 102.636 222.961 102.796C223.313 102.948 223.617 103.16 223.873 103.432C224.137 103.704 224.337 104.028 224.473 104.404C224.617 104.772 224.685 105.176 224.677 105.616L224.665 106.144H219.517L219.241 105.16H223.597L223.417 105.364V105.076C223.393 104.812 223.305 104.576 223.153 104.368C223.001 104.16 222.809 103.996 222.577 103.876C222.345 103.756 222.093 103.696 221.821 103.696C221.389 103.696 221.025 103.78 220.729 103.948C220.433 104.108 220.209 104.348 220.057 104.668C219.905 104.98 219.829 105.368 219.829 105.832C219.829 106.272 219.921 106.656 220.105 106.984C220.289 107.304 220.549 107.552 220.885 107.728C221.221 107.904 221.609 107.992 222.049 107.992C222.361 107.992 222.649 107.94 222.913 107.836C223.185 107.732 223.477 107.544 223.789 107.272L224.413 108.148C224.221 108.34 223.985 108.508 223.705 108.652C223.433 108.796 223.141 108.912 222.829 109C222.525 109.08 222.225 109.12 221.929 109.12ZM227.967 109L225.303 102.7H226.635L228.555 107.416L228.327 107.524L230.379 102.7H231.651L228.855 109H227.967Z" fill="black"/>
<rect x="198.5" y="53.5" width="46" height="75" rx="23" stroke="#C3C9CB"/>
</g>
<g opacity="0.6">
<path d="M276.594 91C275.9 91 275.254 90.88 274.654 90.64C274.067 90.3867 273.554 90.04 273.114 89.6C272.687 89.16 272.347 88.64 272.094 88.04C271.854 87.44 271.734 86.78 271.734 86.06C271.734 85.7 271.78 85.3 271.874 84.86C271.98 84.4067 272.134 83.9133 272.334 83.38C272.547 82.8467 272.8 82.2867 273.094 81.7C273.387 81.1 273.727 80.48 274.114 79.84L275.934 76.76H278.034L278.114 76.96L275.914 80.66C275.514 81.34 275.154 81.9867 274.834 82.6C274.527 83.2133 274.267 83.7933 274.054 84.34C273.84 84.8733 273.68 85.36 273.574 85.8L273.094 83.74C273.347 83.3267 273.62 82.9667 273.914 82.66C274.207 82.34 274.52 82.0733 274.854 81.86C275.2 81.6467 275.56 81.4867 275.934 81.38C276.307 81.2733 276.694 81.22 277.094 81.22C277.867 81.22 278.574 81.4333 279.214 81.86C279.867 82.2733 280.387 82.8267 280.774 83.52C281.174 84.2133 281.374 84.9733 281.374 85.8C281.374 86.8 281.167 87.6933 280.754 88.48C280.354 89.2533 279.794 89.8667 279.074 90.32C278.354 90.7733 277.527 91 276.594 91ZM276.594 89C277.114 89 277.574 88.88 277.974 88.64C278.387 88.3867 278.707 88.04 278.934 87.6C279.174 87.1467 279.294 86.6333 279.294 86.06C279.294 85.5667 279.174 85.1067 278.934 84.68C278.694 84.24 278.374 83.8867 277.974 83.62C277.574 83.3533 277.127 83.22 276.634 83.22C276.087 83.22 275.6 83.3467 275.174 83.6C274.747 83.8533 274.414 84.1933 274.174 84.62C273.934 85.0467 273.814 85.52 273.814 86.04C273.814 86.6 273.934 87.1067 274.174 87.56C274.414 88 274.74 88.3533 275.154 88.62C275.567 88.8733 276.047 89 276.594 89ZM267.258 109V100.6H268.554V109H267.258ZM267.834 105.424V104.176H272.166V105.424H267.834ZM267.834 101.848V100.6H272.706V101.848H267.834ZM276.929 109.12C276.281 109.12 275.705 108.984 275.201 108.712C274.705 108.432 274.313 108.052 274.025 107.572C273.745 107.092 273.605 106.54 273.605 105.916C273.605 105.42 273.685 104.968 273.845 104.56C274.005 104.152 274.225 103.8 274.505 103.504C274.793 103.2 275.133 102.968 275.525 102.808C275.925 102.64 276.357 102.556 276.821 102.556C277.229 102.556 277.609 102.636 277.961 102.796C278.313 102.948 278.617 103.16 278.873 103.432C279.137 103.704 279.337 104.028 279.473 104.404C279.617 104.772 279.685 105.176 279.677 105.616L279.665 106.144H274.517L274.241 105.16H278.597L278.417 105.364V105.076C278.393 104.812 278.305 104.576 278.153 104.368C278.001 104.16 277.809 103.996 277.577 103.876C277.345 103.756 277.093 103.696 276.821 103.696C276.389 103.696 276.025 103.78 275.729 103.948C275.433 104.108 275.209 104.348 275.057 104.668C274.905 104.98 274.829 105.368 274.829 105.832C274.829 106.272 274.921 106.656 275.105 106.984C275.289 107.304 275.549 107.552 275.885 107.728C276.221 107.904 276.609 107.992 277.049 107.992C277.361 107.992 277.649 107.94 277.913 107.836C278.185 107.732 278.477 107.544 278.789 107.272L279.413 108.148C279.221 108.34 278.985 108.508 278.705 108.652C278.433 108.796 278.141 108.912 277.829 109C277.525 109.08 277.225 109.12 276.929 109.12ZM282.967 109L280.303 102.7H281.635L283.555 107.416L283.327 107.524L285.379 102.7H286.651L283.855 109H282.967Z" fill="black"/>
<rect x="253.5" y="53.5" width="46" height="75" rx="23" stroke="#C3C9CB"/>
</g>
<g opacity="0.5">
<path d="M328.32 91L334.12 78.36L334.36 79H327.28V77H335.94L336.22 78.38L330.64 91H328.32ZM322.258 109V100.6H323.554V109H322.258ZM322.834 105.424V104.176H327.166V105.424H322.834ZM322.834 101.848V100.6H327.706V101.848H322.834ZM331.929 109.12C331.281 109.12 330.705 108.984 330.201 108.712C329.705 108.432 329.313 108.052 329.025 107.572C328.745 107.092 328.605 106.54 328.605 105.916C328.605 105.42 328.685 104.968 328.845 104.56C329.005 104.152 329.225 103.8 329.505 103.504C329.793 103.2 330.133 102.968 330.525 102.808C330.925 102.64 331.357 102.556 331.821 102.556C332.229 102.556 332.609 102.636 332.961 102.796C333.313 102.948 333.617 103.16 333.873 103.432C334.137 103.704 334.337 104.028 334.473 104.404C334.617 104.772 334.685 105.176 334.677 105.616L334.665 106.144H329.517L329.241 105.16H333.597L333.417 105.364V105.076C333.393 104.812 333.305 104.576 333.153 104.368C333.001 104.16 332.809 103.996 332.577 103.876C332.345 103.756 332.093 103.696 331.821 103.696C331.389 103.696 331.025 103.78 330.729 103.948C330.433 104.108 330.209 104.348 330.057 104.668C329.905 104.98 329.829 105.368 329.829 105.832C329.829 106.272 329.921 106.656 330.105 106.984C330.289 107.304 330.549 107.552 330.885 107.728C331.221 107.904 331.609 107.992 332.049 107.992C332.361 107.992 332.649 107.94 332.913 107.836C333.185 107.732 333.477 107.544 333.789 107.272L334.413 108.148C334.221 108.34 333.985 108.508 333.705 108.652C333.433 108.796 333.141 108.912 332.829 109C332.525 109.08 332.225 109.12 331.929 109.12ZM337.967 109L335.303 102.7H336.635L338.555 107.416L338.327 107.524L340.379 102.7H341.651L338.855 109H337.967Z" fill="black"/>
<rect x="308.5" y="53.5" width="46" height="75" rx="23" stroke="#C3C9CB"/>
</g>
<g opacity="0.5">
<path d="M386.489 91.06C385.622 91.06 384.829 90.88 384.109 90.52C383.402 90.1467 382.836 89.6533 382.409 89.04C381.982 88.4267 381.769 87.7467 381.769 87C381.769 86.5867 381.822 86.2 381.929 85.84C382.049 85.4667 382.222 85.1267 382.449 84.82C382.689 84.5133 382.976 84.2333 383.309 83.98C383.642 83.7267 384.029 83.5 384.469 83.3L384.349 83.72C384.002 83.5867 383.689 83.4267 383.409 83.24C383.142 83.04 382.909 82.8133 382.709 82.56C382.509 82.3067 382.356 82.0333 382.249 81.74C382.156 81.4467 382.109 81.14 382.109 80.82C382.109 80.1133 382.302 79.4733 382.689 78.9C383.089 78.3267 383.616 77.8667 384.269 77.52C384.936 77.1733 385.676 77 386.489 77C387.302 77 388.036 77.1733 388.689 77.52C389.356 77.8667 389.882 78.3267 390.269 78.9C390.669 79.4733 390.869 80.1133 390.869 80.82C390.869 81.14 390.816 81.4467 390.709 81.74C390.616 82.0333 390.476 82.3 390.289 82.54C390.102 82.78 389.862 83 389.569 83.2C389.289 83.4 388.969 83.5733 388.609 83.72L388.549 83.38C388.949 83.54 389.309 83.7467 389.629 84C389.962 84.2533 390.249 84.54 390.489 84.86C390.729 85.18 390.909 85.52 391.029 85.88C391.162 86.24 391.229 86.6133 391.229 87C391.229 87.76 391.016 88.4467 390.589 89.06C390.162 89.6733 389.589 90.16 388.869 90.52C388.162 90.88 387.369 91.06 386.489 91.06ZM386.489 89.06C386.982 89.06 387.422 88.9667 387.809 88.78C388.209 88.5933 388.522 88.34 388.749 88.02C388.976 87.7 389.089 87.3333 389.089 86.92C389.089 86.48 388.976 86.0933 388.749 85.76C388.522 85.4133 388.209 85.14 387.809 84.94C387.422 84.74 386.982 84.64 386.489 84.64C385.996 84.64 385.556 84.74 385.169 84.94C384.782 85.14 384.476 85.4133 384.249 85.76C384.022 86.0933 383.909 86.48 383.909 86.92C383.909 87.32 384.022 87.68 384.249 88C384.476 88.32 384.782 88.58 385.169 88.78C385.556 88.9667 385.996 89.06 386.489 89.06ZM386.489 82.72C386.916 82.72 387.296 82.64 387.629 82.48C387.976 82.32 388.242 82.1067 388.429 81.84C388.629 81.56 388.729 81.24 388.729 80.88C388.729 80.52 388.629 80.2 388.429 79.92C388.242 79.64 387.976 79.42 387.629 79.26C387.296 79.0867 386.916 79 386.489 79C386.062 79 385.676 79.0867 385.329 79.26C384.996 79.42 384.729 79.64 384.529 79.92C384.342 80.2 384.249 80.52 384.249 80.88C384.249 81.24 384.342 81.56 384.529 81.84C384.729 82.1067 384.996 82.32 385.329 82.48C385.676 82.64 386.062 82.72 386.489 82.72ZM377.258 109V100.6H378.554V109H377.258ZM377.834 105.424V104.176H382.166V105.424H377.834ZM377.834 101.848V100.6H382.706V101.848H377.834ZM386.929 109.12C386.281 109.12 385.705 108.984 385.201 108.712C384.705 108.432 384.313 108.052 384.025 107.572C383.745 107.092 383.605 106.54 383.605 105.916C383.605 105.42 383.685 104.968 383.845 104.56C384.005 104.152 384.225 103.8 384.505 103.504C384.793 103.2 385.133 102.968 385.525 102.808C385.925 102.64 386.357 102.556 386.821 102.556C387.229 102.556 387.609 102.636 387.961 102.796C388.313 102.948 388.617 103.16 388.873 103.432C389.137 103.704 389.337 104.028 389.473 104.404C389.617 104.772 389.685 105.176 389.677 105.616L389.665 106.144H384.517L384.241 105.16H388.597L388.417 105.364V105.076C388.393 104.812 388.305 104.576 388.153 104.368C388.001 104.16 387.809 103.996 387.577 103.876C387.345 103.756 387.093 103.696 386.821 103.696C386.389 103.696 386.025 103.78 385.729 103.948C385.433 104.108 385.209 104.348 385.057 104.668C384.905 104.98 384.829 105.368 384.829 105.832C384.829 106.272 384.921 106.656 385.105 106.984C385.289 107.304 385.549 107.552 385.885 107.728C386.221 107.904 386.609 107.992 387.049 107.992C387.361 107.992 387.649 107.94 387.913 107.836C388.185 107.732 388.477 107.544 388.789 107.272L389.413 108.148C389.221 108.34 388.985 108.508 388.705 108.652C388.433 108.796 388.141 108.912 387.829 109C387.525 109.08 387.225 109.12 386.929 109.12ZM392.967 109L390.303 102.7H391.635L393.555 107.416L393.327 107.524L395.379 102.7H396.651L393.855 109H392.967Z" fill="black"/>
<rect x="363.5" y="53.5" width="46" height="75" rx="23" stroke="#C3C9CB"/>
</g>
<g opacity="0.5">
<path d="M440.552 91L440.472 90.8L444.632 81.96L444.692 83.62C444.452 84.02 444.186 84.3733 443.892 84.68C443.612 84.9867 443.299 85.2533 442.952 85.48C442.619 85.6933 442.272 85.86 441.912 85.98C441.552 86.0867 441.186 86.14 440.812 86.14C440.052 86.14 439.352 85.94 438.712 85.54C438.072 85.14 437.559 84.6067 437.172 83.94C436.786 83.2733 436.592 82.5467 436.592 81.76C436.592 80.8133 436.806 79.9667 437.232 79.22C437.659 78.46 438.239 77.86 438.972 77.42C439.719 76.98 440.552 76.76 441.472 76.76C442.139 76.76 442.766 76.88 443.352 77.12C443.939 77.36 444.452 77.7 444.892 78.14C445.332 78.5667 445.679 79.0667 445.932 79.64C446.186 80.2 446.312 80.8 446.312 81.44C446.312 81.7733 446.279 82.1333 446.212 82.52C446.146 82.8933 446.032 83.32 445.872 83.8C445.726 84.2667 445.526 84.8067 445.272 85.42C445.019 86.02 444.706 86.72 444.332 87.52L442.672 91H440.552ZM441.272 84.14C441.792 84.14 442.259 84.0267 442.672 83.8C443.086 83.56 443.406 83.2467 443.632 82.86C443.872 82.46 443.992 82.0133 443.992 81.52C443.992 81 443.879 80.5333 443.652 80.12C443.426 79.6933 443.106 79.36 442.692 79.12C442.292 78.88 441.832 78.76 441.312 78.76C440.832 78.76 440.406 78.88 440.032 79.12C439.659 79.3467 439.359 79.6667 439.132 80.08C438.919 80.48 438.812 80.9533 438.812 81.5C438.812 81.9667 438.919 82.4 439.132 82.8C439.359 83.2 439.659 83.5267 440.032 83.78C440.406 84.02 440.819 84.14 441.272 84.14ZM432.258 109V100.6H433.554V109H432.258ZM432.834 105.424V104.176H437.166V105.424H432.834ZM432.834 101.848V100.6H437.706V101.848H432.834ZM441.929 109.12C441.281 109.12 440.705 108.984 440.201 108.712C439.705 108.432 439.313 108.052 439.025 107.572C438.745 107.092 438.605 106.54 438.605 105.916C438.605 105.42 438.685 104.968 438.845 104.56C439.005 104.152 439.225 103.8 439.505 103.504C439.793 103.2 440.133 102.968 440.525 102.808C440.925 102.64 441.357 102.556 441.821 102.556C442.229 102.556 442.609 102.636 442.961 102.796C443.313 102.948 443.617 103.16 443.873 103.432C444.137 103.704 444.337 104.028 444.473 104.404C444.617 104.772 444.685 105.176 444.677 105.616L444.665 106.144H439.517L439.241 105.16H443.597L443.417 105.364V105.076C443.393 104.812 443.305 104.576 443.153 104.368C443.001 104.16 442.809 103.996 442.577 103.876C442.345 103.756 442.093 103.696 441.821 103.696C441.389 103.696 441.025 103.78 440.729 103.948C440.433 104.108 440.209 104.348 440.057 104.668C439.905 104.98 439.829 105.368 439.829 105.832C439.829 106.272 439.921 106.656 440.105 106.984C440.289 107.304 440.549 107.552 440.885 107.728C441.221 107.904 441.609 107.992 442.049 107.992C442.361 107.992 442.649 107.94 442.913 107.836C443.185 107.732 443.477 107.544 443.789 107.272L444.413 108.148C444.221 108.34 443.985 108.508 443.705 108.652C443.433 108.796 443.141 108.912 442.829 109C442.525 109.08 442.225 109.12 441.929 109.12ZM447.967 109L445.303 102.7H446.635L448.555 107.416L448.327 107.524L450.379 102.7H451.651L448.855 109H447.967Z" fill="black"/>
<rect x="418.5" y="53.5" width="46" height="75" rx="23" stroke="#C3C9CB"/>
</g>
<g filter="url(#filter4_d_427_17740)">
<rect x="164" y="15" width="56" height="56" rx="28" fill="#5FBE6E" shape-rendering="crispEdges"/>
<g clip-path="url(#clip1_427_17740)">
<path d="M195.839 35C196.849 35 197.785 35.507 198.339 36.3406L198.444 36.5116L200.438 40H201.6C201.793 40 201.955 40.1371 201.992 40.3194L202 40.4V40.8754C202 41.2058 201.798 41.498 201.498 41.6181L201.37 41.6574C201.745 42.4354 201.912 43.2976 201.854 44.1598L201.827 44.4471L201.102 50.2481C200.983 51.1962 200.213 51.9202 199.275 51.9938L199.117 52H198C196.946 52 196.082 51.1841 196.005 50.1493L196 50H188C188 51.0544 187.184 51.9182 186.149 51.9945L186 52H184.883C183.927 52 183.113 51.3259 182.924 50.404L182.898 50.2481L182.173 44.4471C182.065 43.5859 182.184 42.7154 182.513 41.9197L182.63 41.6574L182.606 41.6515C182.285 41.5714 182.051 41.3042 182.007 40.9839L182 40.8754V40.4C182 40.2067 182.137 40.0454 182.319 40.0081L182.4 40H183.563L185.556 36.5116C186.057 35.6353 186.962 35.0735 187.96 35.0067L188.161 35H195.839ZM199.759 43.0355C199.266 43.5742 198.572 43.9402 197.759 43.9933L197.554 44H186.446C185.545 44 184.775 43.6191 184.241 43.0355C184.158 43.3365 184.123 43.6497 184.138 43.9636L184.158 44.199L184.883 50H186V49C186 48.4872 186.386 48.0645 186.883 48.0067L187 48H197C197.513 48 197.936 48.386 197.993 48.8834L198 49V50H199.117L199.842 44.199C199.891 43.807 199.862 43.4118 199.759 43.0355ZM185.738 44.8983L188.48 46.3793C188.853 46.5808 188.698 47.1479 188.274 47.131L185.96 47.0384C185.424 47.0169 185 46.5759 185 46.0392V45.3382C185 44.9596 185.404 44.7184 185.738 44.8983ZM199 45.3382V46.0392C199 46.5759 198.576 47.0169 198.04 47.0384L195.726 47.131C195.302 47.1479 195.147 46.5808 195.52 46.3793L198.262 44.8983C198.596 44.7184 199 44.9596 199 45.3382ZM195.839 37H188.161C187.802 37 187.47 37.1923 187.292 37.5039L185.578 40.5039C185.198 41.1705 185.679 42 186.446 42H197.554C198.322 42 198.803 41.1705 198.422 40.5039L196.708 37.5039C196.53 37.1923 196.198 37 195.839 37Z" fill="white"/>
</g>
</g>
<rect x="161.5" y="12.5" width="61" height="61" rx="30.5" stroke="#5FBE6E"/>
</g>
<defs>
<filter id="filter0_f_427_17740" x="42.7578" y="72.8008" width="27.3945" height="40.3184" filterUnits="userSpaceOnUse" color-interpolation-filters="sRGB">
<feFlood flood-opacity="0" result="BackgroundImageFix"/>
<feBlend mode="normal" in="SourceGraphic" in2="BackgroundImageFix" result="shape"/>
<feGaussianBlur stdDeviation="2" result="effect1_foregroundBlur_427_17740"/>
</filter>
<filter id="filter1_f_427_17740" x="-13.2422" y="72.8008" width="27.3945" height="40.3184" filterUnits="userSpaceOnUse" color-interpolation-filters="sRGB">
<feFlood flood-opacity="0" result="BackgroundImageFix"/>
<feBlend mode="normal" in="SourceGraphic" in2="BackgroundImageFix" result="shape"/>
<feGaussianBlur stdDeviation="2" result="effect1_foregroundBlur_427_17740"/>
</filter>
<filter id="filter2_f_427_17740" x="98.2578" y="73" width="27.3945" height="40.1191" filterUnits="userSpaceOnUse" color-interpolation-filters="sRGB">
<feFlood flood-opacity="0" result="BackgroundImageFix"/>
<feBlend mode="normal" in="SourceGraphic" in2="BackgroundImageFix" result="shape"/>
<feGaussianBlur stdDeviation="2" result="effect1_foregroundBlur_427_17740"/>
</filter>
<filter id="filter3_f_427_17740" x="153.258" y="73" width="27.3945" height="40.1191" filterUnits="userSpaceOnUse" color-interpolation-filters="sRGB">
<feFlood flood-opacity="0" result="BackgroundImageFix"/>
<feBlend mode="normal" in="SourceGraphic" in2="BackgroundImageFix" result="shape"/>
<feGaussianBlur stdDeviation="2" result="effect1_foregroundBlur_427_17740"/>
</filter>
<filter id="filter4_d_427_17740" x="148" y="-1" width="88" height="88" filterUnits="userSpaceOnUse" color-interpolation-filters="sRGB">
<feFlood flood-opacity="0" result="BackgroundImageFix"/>
<feColorMatrix in="SourceAlpha" type="matrix" values="0 0 0 0 0 0 0 0 0 0 0 0 0 0 0 0 0 0 127 0" result="hardAlpha"/>
<feOffset/>
<feGaussianBlur stdDeviation="8"/>
<feComposite in2="hardAlpha" operator="out"/>
<feColorMatrix type="matrix" values="0 0 0 0 0.768627 0 0 0 0 0.780392 0 0 0 0 0.780392 0 0 0 1 0"/>
<feBlend mode="normal" in2="BackgroundImageFix" result="effect1_dropShadow_427_17740"/>
<feBlend mode="normal" in="SourceGraphic" in2="effect1_dropShadow_427_17740" result="shape"/>
</filter>
<linearGradient id="paint0_linear_427_17740" x1="222" y1="43.0001" x2="438" y2="43.0001" gradientUnits="userSpaceOnUse">
<stop offset="0.0104167" stop-color="#006E2B"/>
<stop offset="1" stop-color="#5FBE6E" stop-opacity="0.05"/>
</linearGradient>
<linearGradient id="paint1_linear_427_17740" x1="198" y1="88.5" x2="245" y2="88" gradientUnits="userSpaceOnUse">
<stop stop-color="#EBEEEF"/>
<stop offset="1" stop-color="white" stop-opacity="0"/>
</linearGradient>
<clipPath id="clip0_427_17740">
<rect width="435" height="172" fill="white"/>
</clipPath>
<clipPath id="clip1_427_17740">
<rect width="24" height="24" fill="white" transform="translate(180 31)"/>
</clipPath>
</defs>
</svg>
