<svg width="432" height="296" viewBox="0 0 432 296" fill="none" xmlns="http://www.w3.org/2000/svg">
<g clip-path="url(#clip0_401_14349)">
<rect width="432" height="130" fill="#96F0FF"/>
<rect y="130" width="432" height="166" fill="white"/>
<path d="M69.357 47.0939C67.6697 47.0939 66.1243 47.6984 64.9251 48.7033C64.3084 43.2444 59.6703 39 54.0392 39C49.0511 39 44.8443 42.3301 43.5183 46.8843C41.9294 44.8556 39.4572 43.5504 36.6804 43.5504C31.8872 43.5504 28 47.4302 28 52.2185C28 57.0069 31.8853 60.8867 36.6804 60.8867H69.3589C73.1723 60.8867 76.265 57.8002 76.265 53.9903C76.265 50.1804 73.1742 47.0939 69.3589 47.0939H69.357Z" fill="white" stroke="black" stroke-width="0.5" stroke-linecap="round" stroke-linejoin="round"/>
<path d="M405.477 113.038C405.477 107.791 402.926 101.395 400.421 96.3859C398.165 91.8714 393.135 91.8714 390.88 96.3859C388.378 101.395 385.824 107.789 385.824 113.038C385.824 122.613 389.628 125.001 394.525 125.288V134.345H396.776V125.288C401.674 125.001 405.477 122.613 405.477 113.038Z" fill="white" stroke="black" stroke-width="0.5" stroke-linecap="round" stroke-linejoin="round"/>
<path d="M437 130L21 130" stroke="black" stroke-width="0.5" stroke-linecap="round" stroke-linejoin="round"/>
<path d="M173.946 59.2734H120.367V140.432H173.946V59.2734Z" fill="white" stroke="black" stroke-width="0.5" stroke-linecap="round" stroke-linejoin="round"/>
<path d="M141.949 69.0605H130.012V81.1949H141.949V69.0605Z" fill="white" stroke="black" stroke-width="0.5" stroke-linecap="round" stroke-linejoin="round"/>
<path d="M164.301 69.0605H152.363V81.1949H164.301V69.0605Z" fill="white" stroke="black" stroke-width="0.5" stroke-linecap="round" stroke-linejoin="round"/>
<path d="M141.949 89.3457H130.012V101.48H141.949V89.3457Z" fill="white" stroke="black" stroke-width="0.5" stroke-linecap="round" stroke-linejoin="round"/>
<path d="M164.301 89.3457H152.363V101.48H164.301V89.3457Z" fill="white" stroke="black" stroke-width="0.5" stroke-linecap="round" stroke-linejoin="round"/>
<path d="M227.528 50H173.949V140.433H227.528V50Z" fill="white" stroke="black" stroke-width="0.5" stroke-linecap="round" stroke-linejoin="round"/>
<path d="M195.535 60.9043H183.598V74.4251H195.535V60.9043Z" fill="white" stroke="black" stroke-width="0.5" stroke-linecap="round" stroke-linejoin="round"/>
<path d="M217.887 60.9043H205.949V74.4251H217.887V60.9043Z" fill="white" stroke="black" stroke-width="0.5" stroke-linecap="round" stroke-linejoin="round"/>
<path d="M195.535 83.5078H183.598V97.0286H195.535V83.5078Z" fill="white" stroke="black" stroke-width="0.5" stroke-linecap="round" stroke-linejoin="round"/>
<path d="M217.887 83.5078H205.949V97.0286H217.887V83.5078Z" fill="white" stroke="black" stroke-width="0.5" stroke-linecap="round" stroke-linejoin="round"/>
<path d="M120.368 140.43H94V93.6287L120.368 74.3789V140.43Z" fill="white" stroke="black" stroke-width="0.5" stroke-linecap="round" stroke-linejoin="round"/>
<path d="M374.331 99.4961H247V148.661H374.331V99.4961Z" fill="white" stroke="black" stroke-width="0.5" stroke-linecap="round" stroke-linejoin="round"/>
<path d="M374.331 81H247V99.4959H374.331V81Z" fill="white" stroke="black" stroke-width="0.5" stroke-linecap="round" stroke-linejoin="round"/>
<path d="M320.439 111.443H285.234V148.66H320.439V111.443Z" fill="white" stroke="black" stroke-width="0.5" stroke-linecap="round" stroke-linejoin="round"/>
<path d="M272.973 111.443H251.379V148.66H272.973V111.443Z" fill="white" stroke="black" stroke-width="0.5" stroke-linecap="round" stroke-linejoin="round"/>
<path d="M362.791 111.443H327.586V148.66H362.791V111.443Z" fill="white" stroke="black" stroke-width="0.5" stroke-linecap="round" stroke-linejoin="round"/>
<path d="M272.973 111.443V116.054H255.996V148.66H251.379V111.443H272.973Z" fill="#8280B8" stroke="black" stroke-width="0.5" stroke-linecap="round" stroke-linejoin="round"/>
<path d="M300.336 96.0112C299.341 96.0112 298.447 95.79 297.65 95.3456C296.854 94.9012 296.22 94.2925 295.75 93.5193C295.279 92.7462 295.043 91.8737 295.043 90.9058C295.043 89.9378 295.279 89.045 295.75 88.2719C296.222 87.4988 296.858 86.886 297.66 86.4355C298.463 85.985 299.369 85.7598 300.377 85.7598C301.133 85.7598 301.826 85.8937 302.456 86.1636C303.086 86.4335 303.647 86.8291 304.138 87.3547L302.228 89.2926C302.003 89.0227 301.734 88.8279 301.422 88.7082C301.111 88.5864 300.761 88.5255 300.377 88.5255C299.926 88.5255 299.532 88.6229 299.192 88.8177C298.853 89.0125 298.585 89.2885 298.386 89.6456C298.187 90.0028 298.087 90.4167 298.087 90.8875C298.087 91.3583 298.187 91.756 298.386 92.1192C298.585 92.4824 298.857 92.7625 299.203 92.9573C299.548 93.1521 299.938 93.2495 300.377 93.2495C300.788 93.2495 301.149 93.1825 301.462 93.0486C301.773 92.9146 302.043 92.7056 302.269 92.4236L304.179 94.3817C303.675 94.9195 303.108 95.3273 302.478 95.6033C301.848 95.8793 301.135 96.0173 300.338 96.0173" fill="#10A96C"/>
<path d="M311.247 85.9842V86.8182C310.991 86.5706 310.692 86.3596 310.35 86.1851C309.82 85.9152 309.229 85.7812 308.578 85.7812C307.69 85.7812 306.894 86.0065 306.191 86.457C305.488 86.9074 304.937 87.5162 304.539 88.2832C304.141 89.0503 303.941 89.9248 303.941 90.9069C303.941 91.8891 304.141 92.7434 304.539 93.5104C304.937 94.2774 305.484 94.8821 306.181 95.3265C306.878 95.7709 307.67 95.9921 308.558 95.9921C309.221 95.9921 309.818 95.8642 310.348 95.6085C310.692 95.4442 310.991 95.2352 311.245 94.9815V95.7891H314.171V85.9801H311.245L311.247 85.9842ZM310.779 92.5932C310.375 93.0315 309.834 93.2486 309.158 93.2486C308.733 93.2486 308.355 93.1472 308.024 92.9463C307.693 92.7454 307.43 92.4694 307.237 92.1184C307.044 91.7693 306.949 91.3655 306.949 90.9069C306.949 90.4484 307.044 90.0222 307.237 89.6651C307.43 89.308 307.693 89.03 308.024 88.827C308.355 88.6262 308.741 88.5247 309.178 88.5247C309.615 88.5247 310.001 88.6262 310.332 88.827C310.663 89.0279 310.921 89.3039 311.108 89.6549C311.293 90.004 311.387 90.4159 311.387 90.8867C311.387 91.5867 311.184 92.1549 310.779 92.5912V92.5932Z" fill="#00A6BF"/>
<path d="M321.377 85.8028C321.188 85.7663 320.985 85.748 320.766 85.748C320.254 85.748 319.772 85.8718 319.323 86.1194C318.872 86.3669 318.48 86.6997 318.144 87.1198C318.057 87.2293 317.978 87.343 317.902 87.4586L317.844 85.9773H315.082V95.7925H318.008V90.8616C318.008 90.5653 318.053 90.2995 318.144 90.0641C318.236 89.8287 318.36 89.6258 318.518 89.4533C318.677 89.2808 318.872 89.1469 319.103 89.0556C319.335 88.9623 319.585 88.9176 319.853 88.9176C320.097 88.9176 320.331 88.946 320.556 89.0008C320.782 89.0556 320.961 89.1266 321.095 89.2139L321.899 85.9327C321.741 85.884 321.568 85.8394 321.379 85.8028H321.377Z" fill="#8280B8"/>
<path d="M291.527 85.9707V91.5408C291.527 92.4762 290.779 93.2352 289.857 93.2352C288.934 93.2352 288.187 92.4762 288.187 91.5408V85.9707H285.242V91.3176C285.242 93.8987 287.313 95.9989 289.859 95.9989C292.405 95.9989 294.476 93.8987 294.476 91.3176V85.9707H291.529H291.527Z" fill="#EF664E"/>
<path d="M292.907 111.441H285.234V148.659H292.907V111.441Z" fill="#10A96C" stroke="black" stroke-width="0.5" stroke-linecap="round" stroke-linejoin="round"/>
<path d="M292.902 111.441H320.436V121.36H302.833V148.659H292.902V111.441Z" fill="#EF664E" stroke="black" stroke-width="0.5" stroke-linecap="round" stroke-linejoin="round"/>
<path d="M362.791 111.441H327.586V121.358H362.791V111.441Z" fill="#EF664E" stroke="black" stroke-width="0.5" stroke-linecap="round" stroke-linejoin="round"/>
<path d="M255.996 121.361H272.974" stroke="black" stroke-width="0.5" stroke-linecap="round" stroke-linejoin="round"/>
<path d="M255.996 126.246H272.974" stroke="black" stroke-width="0.5" stroke-linecap="round" stroke-linejoin="round"/>
<path d="M255.996 131.129H272.974" stroke="black" stroke-width="0.5" stroke-linecap="round" stroke-linejoin="round"/>
<path d="M255.996 136.014H272.974" stroke="black" stroke-width="0.5" stroke-linecap="round" stroke-linejoin="round"/>
<path d="M255.996 140.898H272.974" stroke="black" stroke-width="0.5" stroke-linecap="round" stroke-linejoin="round"/>
<path d="M292.932 144.105H298.814V150.394C298.814 152.015 297.496 153.332 295.872 153.332C294.248 153.332 292.93 152.015 292.93 150.394V144.105H292.932Z" fill="white" stroke="black" stroke-width="0.5" stroke-linecap="round" stroke-linejoin="round"/>
<path d="M313.818 144.105H319.701V150.394C319.701 152.015 318.382 153.332 316.759 153.332C315.135 153.332 313.816 152.015 313.816 150.394V144.105H313.818Z" fill="white" stroke="black" stroke-width="0.5" stroke-linecap="round" stroke-linejoin="round"/>
<path d="M320.576 149.696H292.062C292.062 145.903 292.28 142.127 292.715 138.412C293.148 134.696 293.794 131.042 294.649 127.495C294.757 127.048 295.029 126.752 295.334 126.752H317.308C317.611 126.752 317.884 127.046 317.991 127.493C319.7 134.589 320.576 142.111 320.576 149.696Z" fill="white" stroke="black" stroke-width="0.5" stroke-linecap="round" stroke-linejoin="round"/>
<path d="M317.882 138.224C309.589 138.559 303.056 138.559 294.762 138.224C294.957 136.615 295.193 135.016 295.469 133.435C295.745 131.854 296.06 130.292 296.416 128.758H316.226C316.584 130.306 316.901 131.871 317.177 133.447C317.453 135.026 317.689 136.619 317.882 138.222V138.224Z" fill="white" stroke="black" stroke-width="0.5" stroke-linecap="round" stroke-linejoin="round"/>
<path d="M292.164 145.23H320.474" stroke="black" stroke-width="0.5" stroke-linecap="round" stroke-linejoin="round"/>
<path d="M292.714 138.473H289.626C289.006 138.473 288.504 137.972 288.504 137.353V135.996C288.504 135.34 289.036 134.811 289.691 134.811H291.239C291.767 134.811 292.216 135.196 292.296 135.718L292.714 138.473Z" fill="white" stroke="black" stroke-width="0.5" stroke-linecap="round" stroke-linejoin="round"/>
<path d="M319.922 138.473H323.011C323.63 138.473 324.132 137.972 324.132 137.353V135.996C324.132 135.34 323.6 134.811 322.946 134.811H321.397C320.869 134.811 320.42 135.196 320.34 135.718L319.922 138.473Z" fill="white" stroke="black" stroke-width="0.5" stroke-linecap="round" stroke-linejoin="round"/>
<path d="M300.062 142.419C300.336 141.458 299.24 140.305 297.614 139.843C295.989 139.381 294.449 139.785 294.175 140.745C293.902 141.706 294.997 142.859 296.623 143.321C298.249 143.783 299.788 143.379 300.062 142.419Z" fill="white" stroke="black" stroke-width="0.5" stroke-linecap="round" stroke-linejoin="round"/>
<path d="M315.993 143.368C317.619 142.906 318.715 141.752 318.441 140.792C318.167 139.832 316.627 139.428 315.002 139.89C313.376 140.352 312.281 141.505 312.554 142.465C312.828 143.426 314.368 143.83 315.993 143.368Z" fill="white" stroke="black" stroke-width="0.5" stroke-linecap="round" stroke-linejoin="round"/>
<path d="M335.65 144.105H341.533V150.394C341.533 152.015 340.214 153.332 338.591 153.332C336.967 153.332 335.648 152.015 335.648 150.394V144.105H335.65Z" fill="white" stroke="black" stroke-width="0.5" stroke-linecap="round" stroke-linejoin="round"/>
<path d="M356.541 144.105H362.424V150.394C362.424 152.015 361.105 153.332 359.481 153.332C357.858 153.332 356.539 152.015 356.539 150.394V144.105H356.541Z" fill="white" stroke="black" stroke-width="0.5" stroke-linecap="round" stroke-linejoin="round"/>
<path d="M363.295 149.696H334.781C334.781 145.903 334.999 142.127 335.434 138.412C335.866 134.696 336.513 131.042 337.368 127.495C337.476 127.048 337.748 126.752 338.053 126.752H360.027C360.33 126.752 360.602 127.046 360.71 127.493C362.419 134.589 363.295 142.111 363.295 149.696Z" fill="white" stroke="black" stroke-width="0.5" stroke-linecap="round" stroke-linejoin="round"/>
<path d="M360.601 138.224C352.308 138.559 345.775 138.559 337.48 138.224C337.676 136.615 337.911 135.016 338.188 133.435C338.464 131.854 338.779 130.292 339.135 128.758H358.945C359.302 130.306 359.619 131.871 359.896 133.447C360.172 135.026 360.408 136.619 360.601 138.222V138.224Z" fill="white" stroke="black" stroke-width="0.5" stroke-linecap="round" stroke-linejoin="round"/>
<path d="M334.883 145.23H363.193" stroke="black" stroke-width="0.5" stroke-linecap="round" stroke-linejoin="round"/>
<path d="M335.433 138.473H332.344C331.725 138.473 331.223 137.972 331.223 137.353V135.996C331.223 135.34 331.755 134.811 332.409 134.811H333.958C334.486 134.811 334.935 135.196 335.014 135.718L335.433 138.473Z" fill="white" stroke="black" stroke-width="0.5" stroke-linecap="round" stroke-linejoin="round"/>
<path d="M362.645 138.473H365.733C366.353 138.473 366.855 137.972 366.855 137.353V135.996C366.855 135.34 366.323 134.811 365.668 134.811H364.12C363.591 134.811 363.142 135.196 363.063 135.718L362.645 138.473Z" fill="white" stroke="black" stroke-width="0.5" stroke-linecap="round" stroke-linejoin="round"/>
<path d="M342.781 142.419C343.055 141.458 341.959 140.305 340.333 139.843C338.708 139.381 337.168 139.785 336.894 140.745C336.62 141.706 337.716 142.859 339.342 143.321C340.967 143.783 342.507 143.379 342.781 142.419Z" fill="white" stroke="black" stroke-width="0.5" stroke-linecap="round" stroke-linejoin="round"/>
<path d="M358.716 143.372C360.342 142.91 361.437 141.756 361.164 140.796C360.89 139.836 359.35 139.432 357.725 139.894C356.099 140.356 355.003 141.509 355.277 142.469C355.551 143.43 357.09 143.834 358.716 143.372Z" fill="white" stroke="black" stroke-width="0.5" stroke-linecap="round" stroke-linejoin="round"/>
<path d="M84.2232 81.2988H72V114.171H84.2232V81.2988Z" fill="white" stroke="black" stroke-width="0.5" stroke-linecap="round" stroke-linejoin="round"/>
<path d="M78.1133 129.623V114.168" stroke="black" stroke-width="0.5" stroke-linecap="round" stroke-linejoin="round"/>
<path d="M78.1156 101.258C80.065 101.258 81.6452 99.6803 81.6452 97.7337C81.6452 95.787 80.065 94.209 78.1156 94.209C76.1662 94.209 74.5859 95.787 74.5859 97.7337C74.5859 99.6803 76.1662 101.258 78.1156 101.258Z" fill="#8280B8" stroke="black" stroke-width="0.5" stroke-linecap="round" stroke-linejoin="round"/>
<path d="M78.1156 109.946C80.065 109.946 81.6452 108.368 81.6452 106.421C81.6452 104.475 80.065 102.896 78.1156 102.896C76.1662 102.896 74.5859 104.475 74.5859 106.421C74.5859 108.368 76.1662 109.946 78.1156 109.946Z" fill="#10A96C" stroke="black" stroke-width="0.5" stroke-linecap="round" stroke-linejoin="round"/>
<path d="M78.1156 92.5728C80.065 92.5728 81.6452 90.9948 81.6452 89.0481C81.6452 87.1015 80.065 85.5234 78.1156 85.5234C76.1662 85.5234 74.5859 87.1015 74.5859 89.0481C74.5859 90.9948 76.1662 92.5728 78.1156 92.5728Z" fill="#EF664E" stroke="black" stroke-width="0.5" stroke-linecap="round" stroke-linejoin="round"/>
<path d="M45.3203 171.543V131.9" stroke="black" stroke-width="0.5" stroke-linecap="round" stroke-linejoin="round"/>
<path d="M39.8046 136.418L32 128.624V117.604L39.8046 109.811H50.8399L58.6445 117.604V128.624L50.8399 136.418H39.8046Z" fill="white" stroke="black" stroke-width="0.5" stroke-linecap="round" stroke-linejoin="round"/>
<path d="M49.715 112.523H40.9306L34.7188 118.727V127.499L40.9306 133.702H49.715L55.9269 127.499V118.727L49.715 112.523Z" fill="#EF664E" stroke="black" stroke-width="0.5" stroke-linecap="round" stroke-linejoin="round"/>
<path d="M40.9505 123.952C40.9505 124.758 40.4398 125.304 39.2802 125.304C38.5709 125.304 37.9505 125.008 37.6289 124.534L38.2418 123.988C38.5387 124.333 38.9208 124.473 39.3275 124.473C39.8307 124.473 40.069 124.333 40.069 124.012C40.069 123.74 39.9234 123.617 39.1213 123.436C38.3382 123.255 37.7916 123.005 37.7916 122.169C37.7916 121.398 38.4706 120.926 39.3086 120.926C39.9707 120.926 40.4568 121.175 40.8559 121.593L40.243 122.188C39.9707 121.908 39.6661 121.751 39.2783 121.751C38.8225 121.751 38.6712 121.946 38.6712 122.133C38.6712 122.399 38.8527 122.484 39.528 122.643C40.2014 122.8 40.9486 123.03 40.9486 123.952H40.9505Z" fill="white"/>
<path d="M44.7113 121.831H43.4912V125.239H42.6419V121.831H41.4219V120.994H44.7113V121.831Z" fill="white"/>
<path d="M48.8312 123.109C48.8312 124.479 48.0595 125.304 46.9548 125.304C45.8501 125.304 45.0859 124.492 45.0859 123.123C45.0859 121.753 45.8577 120.928 46.968 120.928C48.0784 120.928 48.8312 121.74 48.8312 123.109ZM47.9573 123.121C47.9573 122.259 47.545 121.768 46.9491 121.768C46.3533 121.768 45.9598 122.248 45.9598 123.108C45.9598 123.967 46.3722 124.46 46.968 124.46C47.5639 124.46 47.9573 123.982 47.9573 123.121Z" fill="white"/>
<path d="M53.015 122.339C53.015 123.321 52.3586 123.733 51.4791 123.733H50.5446V125.237H49.6953V120.992H51.5528C52.3548 120.992 53.015 121.434 53.015 122.337V122.339ZM52.1411 122.358C52.1411 121.988 51.899 121.818 51.5226 121.818H50.5446V122.909H51.5339C51.9292 122.909 52.1411 122.728 52.1411 122.358Z" fill="white"/>
<path d="M379.706 38.5082C379.706 35.1705 377.941 32.0293 374.996 30.4502C373.71 29.7607 372.24 29.3697 370.677 29.3697C369.115 29.3697 367.53 29.7928 366.211 30.5333C365.515 26.1699 361.736 22.8379 357.172 22.8379C352.119 22.8379 348.02 26.9274 348.02 31.9764C348.02 32.3825 348.045 32.7792 348.1 33.1702C346.683 32.3636 345.032 31.9254 343.271 31.9821C338.517 32.137 334.621 36.0017 334.433 40.7466C334.428 40.8826 334.426 41.0205 334.426 41.1546C334.441 44.6264 337.344 47.3993 340.821 47.3993H370.804C375.72 47.3993 379.708 43.4194 379.708 38.5082H379.706Z" fill="white" stroke="black" stroke-width="0.5" stroke-linecap="round" stroke-linejoin="round"/>
<path d="M431 217L0 217" stroke="black" stroke-width="0.5" stroke-linecap="round" stroke-linejoin="round"/>
<path d="M434 171.592L4 171.592" stroke="black" stroke-width="0.5" stroke-linecap="round" stroke-linejoin="round"/>
<path d="M83.3983 190.514C83.3983 190.514 82.7266 187.331 83.3983 187.331C84.0699 187.331 86.6121 189.221 87.8576 187.331C89.1009 185.441 88.7228 182.605 90.5621 182.267C92.4015 181.93 90.5621 180.686 90.5621 178.687C90.5621 176.688 89.8059 171.502 84.8284 172.799C79.8508 174.096 76.6214 175.391 76.9127 179.445C77.2019 183.496 79.0457 190.556 79.0457 190.556L83.4005 190.514H83.3983Z" fill="white" stroke="black" stroke-width="0.5" stroke-miterlimit="10"/>
<path d="M78.521 231.428C77.4156 233.613 75.97 236.489 74.6244 239.194L67.8008 236.374C68.6215 233.871 69.351 231.314 69.8314 228.936L78.521 231.428Z" fill="white" stroke="black" stroke-width="0.5" stroke-linejoin="round"/>
<path d="M78.5177 231.428L69.8281 228.936C70.0572 227.819 70.2307 226.737 70.333 225.722C71.3227 215.977 74.8346 207.555 74.8346 207.555L77.9817 209.272C82.0407 211.488 83.9713 216.257 82.5923 220.665L81.6048 223.821C80.7863 226.438 79.7566 228.981 78.5177 231.426V231.428Z" fill="black" stroke="black" stroke-width="0.5" stroke-miterlimit="10"/>
<path d="M71.877 255.253L61.9062 251.133C61.9062 251.133 65.2914 244.008 67.7979 236.379L74.6215 239.2C72.989 242.498 71.5078 245.552 70.9829 246.82C70.1399 248.856 71.6278 251.955 72.9089 254.058C73.3293 254.744 72.6243 255.564 71.877 255.255V255.253Z" fill="black" stroke="black" stroke-width="0.5" stroke-miterlimit="10"/>
<path d="M74.633 239.199L74.6289 239.197" stroke="black" stroke-width="0.5" stroke-miterlimit="10"/>
<path d="M84.5914 210.97L73.1172 209.728L73.324 204.547L84.3423 206.317L84.5914 210.97Z" fill="black" stroke="black" stroke-width="0.5" stroke-miterlimit="10"/>
<path d="M84.3464 206.318L73.3281 204.548L73.6061 197.509C73.7907 192.861 77.9098 189.361 82.5337 189.923C83.0831 189.989 83.5034 190.44 83.5324 190.991L84.3464 206.318Z" fill="black" stroke="black" stroke-width="0.5" stroke-miterlimit="10"/>
<path d="M86.6441 197.707L80.6367 201.496C79.1777 199.215 78.0167 196.712 77.2094 194.047L77.0092 193.385C76.6133 192.082 77.4963 190.738 78.853 190.582L79.0487 190.56C82.2603 190.192 85.2518 192.25 86.0502 195.38L86.6441 197.707Z" fill="black" stroke="black" stroke-width="0.5" stroke-miterlimit="10"/>
<path d="M93.7859 204.339L95.0982 192.341C95.2516 190.939 96.4549 189.891 97.8672 189.929L116.543 190.44C118.033 190.48 119.21 191.714 119.179 193.202L118.883 206.997C118.849 208.594 117.446 209.813 115.858 209.627L96.1635 207.317C94.6845 207.144 93.6236 205.813 93.7859 204.334V204.339Z" fill="white" stroke="black" stroke-width="0.5" stroke-miterlimit="10"/>
<path d="M94.2852 199.791H96.4225C100.101 199.791 103.084 196.812 103.084 193.139V189.932" fill="white"/>
<path d="M94.2852 199.791H96.4225C100.101 199.791 103.084 196.812 103.084 193.139V189.932" stroke="black" stroke-width="0.5" stroke-miterlimit="10"/>
<path d="M111.207 190.295V195.397C111.207 197.822 113.175 199.79 115.606 199.79H119.178" fill="white"/>
<path d="M111.207 190.295V195.397C111.207 197.822 113.175 199.79 115.606 199.79H119.178" stroke="black" stroke-width="0.5" stroke-miterlimit="10"/>
<path d="M101.054 213.026C100.781 212.986 100.51 212.944 100.243 212.902C91.7554 211.523 84.4514 206.537 79.9609 199.496L85.9683 195.707C86.978 198.035 88.3592 200.196 90.0896 202.09C92.545 204.773 95.7166 206.983 99.3218 206.55C107.807 205.53 100.614 208.835 100.614 208.835C100.614 208.835 102.436 209.806 103.661 209.924C106.23 210.166 105.618 213.713 101.057 213.026H101.054Z" fill="white" stroke="black" stroke-width="0.5" stroke-linejoin="round"/>
<path d="M86.9427 179.575C86.8604 180.05 87.1784 180.501 87.6521 180.583C88.1259 180.666 88.5796 180.348 88.6619 179.873C88.7442 179.397 88.4284 178.949 87.9524 178.867C87.4764 178.784 87.0249 179.1 86.9427 179.575Z" fill="#13100E"/>
<path d="M85.6668 230.385C85.4822 232.826 85.2464 236.035 85.0396 239.049H77.6555C77.4554 236.422 77.1507 233.783 76.6836 231.4L85.6668 230.383V230.385Z" fill="white" stroke="black" stroke-width="0.5" stroke-linejoin="round"/>
<path d="M85.6673 230.383L76.6841 231.4C76.4662 230.281 76.2148 229.215 75.919 228.238C73.1011 218.856 73.1211 209.732 73.1211 209.732L84.5953 210.972L85.605 222.177C85.8497 224.906 85.8719 227.649 85.6651 230.383H85.6673Z" fill="black" stroke="black" stroke-width="0.5" stroke-miterlimit="10"/>
<path d="M88.6467 254.929H77.8553C77.8553 254.929 78.2534 247.054 77.6484 239.047H85.0325C84.7878 242.718 83.0308 247.069 83.0308 248.442C83.0308 250.645 87.1498 251.975 89.1382 253.43C89.7899 253.903 89.4518 254.929 88.6445 254.929H88.6467Z" fill="black" stroke="black" stroke-width="0.5" stroke-miterlimit="10"/>
<path d="M85.0416 239.047H85.0391" stroke="black" stroke-width="0.5" stroke-miterlimit="10"/>
<path d="M86.4023 182.561C86.4023 182.561 86.8449 184.282 89.0001 184.173L86.4023 182.561Z" fill="white"/>
<path d="M86.4023 182.561C86.4023 182.561 86.8449 184.282 89.0001 184.173" stroke="black" stroke-width="0.5" stroke-miterlimit="10" stroke-linecap="round"/>
<path d="M89.141 176.79C90.4866 176.799 91.5808 175.711 91.5764 174.367C91.5697 172.235 91.0448 169.492 88.3826 169.492C84.0322 169.492 76.2122 170.183 74.5286 179.129C72.8449 188.075 65.125 188.428 65.125 192.426C65.125 198.087 73.9392 199.418 77.2042 194.045C80.4692 188.67 81.9816 177.055 84.5904 176.881C85.9516 176.79 87.742 176.779 89.141 176.79Z" fill="white" stroke="black" stroke-width="0.5" stroke-miterlimit="10" stroke-linecap="round"/>
<path d="M105.176 190.127C105.176 190.127 109.824 181.412 113.554 185.137C117.284 188.861 114.377 190.378 114.377 190.378" stroke="black" stroke-width="0.5" stroke-miterlimit="10"/>
<path d="M291.212 269.696C290.732 270.176 277 269.696 277 269.696C277 269.696 278.751 262.122 279.16 257.484H285.654C284.992 262.195 286.518 263.214 287.625 263.363C288.797 263.522 289.902 264.042 290.654 264.953C292.444 267.12 291.594 269.316 291.21 269.696H291.212Z" fill="black" stroke="black" stroke-width="0.5" stroke-linecap="round" stroke-linejoin="round"/>
<path d="M291.212 239.92C291.212 239.92 287.869 248.197 286.297 254.328C285.989 255.531 285.78 256.575 285.654 257.483H279.16C279.215 256.868 279.245 256.306 279.245 255.82C279.245 251.657 279.958 240.558 279.958 240.558L291.212 239.918V239.92Z" fill="white" stroke="black" stroke-width="0.5" stroke-linecap="round" stroke-linejoin="round"/>
<path d="M309.888 269.696C309.408 270.176 295.676 269.696 295.676 269.696C295.676 269.696 297.427 262.122 297.836 257.484H304.33C303.668 262.195 305.194 263.214 306.301 263.363C307.473 263.522 308.578 264.042 309.33 264.953C311.12 267.12 310.27 269.316 309.886 269.696H309.888Z" fill="black" stroke="black" stroke-width="0.5" stroke-linecap="round" stroke-linejoin="round"/>
<path d="M303.867 238.852C303.867 238.852 306.542 248.196 304.97 254.327C304.663 255.529 304.453 256.573 304.327 257.482H297.833C297.888 256.867 297.918 256.305 297.918 255.818C297.918 251.656 293.672 239.811 293.672 239.811L303.867 238.85V238.852Z" fill="white" stroke="black" stroke-width="0.5" stroke-linecap="round" stroke-linejoin="round"/>
<path d="M279.961 224.947V240.562L291.216 239.919L292.39 233.94L293.675 239.814L303.868 238.852L300.623 222.115L279.961 224.947Z" fill="white" stroke="black" stroke-width="0.5" stroke-linecap="round" stroke-linejoin="round"/>
<path d="M303.047 215.939C303.047 215.939 331.49 240.412 357.141 237.048" stroke="black" stroke-width="0.5" stroke-linecap="round" stroke-linejoin="round"/>
<path d="M333.822 245.36C333.822 245.36 327.103 227.99 336.719 226.514C346.336 225.039 337.248 242.134 337.248 242.134" fill="white"/>
<path d="M333.822 245.36C333.822 245.36 327.103 227.99 336.719 226.514C346.336 225.039 337.248 242.134 337.248 242.134" stroke="black" stroke-width="0.5" stroke-linecap="round" stroke-linejoin="round"/>
<path d="M367.826 242.55C367.826 243.897 367.849 248.465 367.144 250.285C365.675 254.082 363.41 258.165 363.41 259.438C363.41 260.78 365.45 261.235 366.627 261.822C367.105 262.061 367.443 262.32 367.443 262.671C367.443 263.883 364.023 262.942 361.054 262.942C358.086 262.942 356.335 253.915 356.335 253.915C349.59 253.915 340.955 250.413 340.955 250.413C340.955 250.413 336.778 255.124 336.778 258.222C336.778 261.32 340.716 260.925 340.716 262.272C340.716 263.619 334.512 262.272 331.947 262.272C329.946 262.272 329.286 256.866 329.875 251.932C330.261 248.695 331.623 245.634 333.852 243.249C334.944 242.084 336.139 241.187 337.235 241.187C338.648 241.187 341.943 241.682 345.139 242.226C349.813 243.025 354.524 240.998 357.139 237.047L357.555 236.416" fill="white"/>
<path d="M367.826 242.55C367.826 243.897 367.849 248.465 367.144 250.285C365.675 254.082 363.41 258.165 363.41 259.438C363.41 260.78 365.45 261.235 366.627 261.822C367.105 262.061 367.443 262.32 367.443 262.671C367.443 263.883 364.023 262.942 361.054 262.942C358.086 262.942 356.335 253.915 356.335 253.915C349.59 253.915 340.955 250.413 340.955 250.413C340.955 250.413 336.778 255.124 336.778 258.222C336.778 261.32 340.716 260.925 340.716 262.272C340.716 263.619 334.512 262.272 331.947 262.272C329.946 262.272 329.286 256.866 329.875 251.932C330.261 248.695 331.623 245.634 333.852 243.249C334.944 242.084 336.139 241.187 337.235 241.187C338.648 241.187 341.943 241.682 345.139 242.226C349.813 243.025 354.524 240.998 357.139 237.047L357.555 236.416" stroke="black" stroke-width="0.5" stroke-linecap="round" stroke-linejoin="round"/>
<path d="M363.41 231.273C363.41 231.273 352.895 223.487 351.794 226.59C350.696 229.692 360.372 234.726 360.372 234.726" fill="white"/>
<path d="M363.41 231.273C363.41 231.273 352.895 223.487 351.794 226.59C350.696 229.692 360.372 234.726 360.372 234.726" stroke="black" stroke-width="0.5" stroke-linecap="round" stroke-linejoin="round"/>
<path d="M378.788 236.555C378.34 237.528 377.379 238.226 376.244 238.299L367.676 237.815C367.676 237.815 367.177 240.027 370.332 240.412C373.413 240.791 377.134 241.684 367.492 242.468C365.412 242.638 363.673 242.53 362.225 242.214C354.635 240.557 356.922 229.146 364.59 230.387L374.257 231.954H374.259C374.31 232.104 376.047 236.954 378.786 236.557L378.788 236.555Z" fill="white" stroke="black" stroke-width="0.5" stroke-linecap="round" stroke-linejoin="round"/>
<path d="M366.316 235.892C366.856 235.892 367.293 235.455 367.293 234.917C367.293 234.378 366.856 233.941 366.316 233.941C365.777 233.941 365.34 234.378 365.34 234.917C365.34 235.455 365.777 235.892 366.316 235.892Z" fill="black"/>
<path d="M359.896 235.223C359.896 235.223 355.42 249.766 359.257 249.766C363.095 249.766 364.871 237.208 364.871 237.208" fill="white"/>
<path d="M359.896 235.223C359.896 235.223 355.42 249.766 359.257 249.766C363.095 249.766 364.871 237.208 364.871 237.208" stroke="black" stroke-width="0.5" stroke-linecap="round" stroke-linejoin="round"/>
<path d="M379.067 235.294C379.067 235.744 378.966 236.17 378.787 236.556C376.048 236.953 374.311 232.102 374.26 231.955H374.258L376.535 232.32C377.266 232.437 377.898 232.811 378.35 233.341C378.801 233.871 379.07 234.553 379.07 235.294H379.067Z" fill="black" stroke="black" stroke-width="0.5" stroke-linecap="round" stroke-linejoin="round"/>
<path d="M297.038 171.815C297.038 171.815 297.323 176.273 298.651 177.352C299.979 178.43 297.776 179.965 297.776 179.965C297.776 179.965 298.541 187.01 295.862 186.617C293.182 186.225 291.751 184.722 291.004 187.205L285.094 186.551L283.258 181.487L283.756 172.859L297.04 171.812L297.038 171.815Z" fill="white" stroke="black" stroke-width="0.5" stroke-linecap="round" stroke-linejoin="round"/>
<path d="M284.563 186.127C278.696 191.18 277.577 204.135 278.662 215.407C278.995 218.855 278.986 221.939 278.967 225.083L300.625 222.116C300.101 217.355 299.012 212.678 297.385 208.199C294.908 201.377 291.102 194.973 291.233 186.6L284.563 186.127Z" fill="white" stroke="black" stroke-width="0.5" stroke-linecap="round" stroke-linejoin="round"/>
<path d="M295.489 178.046C295.917 178.046 296.264 177.683 296.264 177.234C296.264 176.786 295.917 176.422 295.489 176.422C295.062 176.422 294.715 176.786 294.715 177.234C294.715 177.683 295.062 178.046 295.489 178.046Z" fill="black"/>
<path d="M284.016 199.862C286.447 208.511 292.104 213.68 299.032 218.483L302.162 209.548C293.143 201.989 289.489 193.453 289.489 193.453" fill="white"/>
<path d="M284.016 199.862C286.447 208.511 292.104 213.68 299.032 218.483L302.162 209.548C293.143 201.989 289.489 193.453 289.489 193.453" stroke="black" stroke-width="0.5" stroke-linecap="round" stroke-linejoin="round"/>
<path d="M302.578 220.793C300.903 219.866 299.035 218.482 299.035 218.482L302.165 209.549C302.165 209.549 306.97 209.792 306.06 211.77C305.152 213.748 303.583 214.092 303.583 214.092L305.885 216.465C306.818 217.426 306.924 218.92 306.133 220.003C305.315 221.123 303.789 221.467 302.576 220.795L302.578 220.793Z" fill="white" stroke="black" stroke-width="0.5" stroke-linecap="round" stroke-linejoin="round"/>
<path d="M299.028 218.482C299.028 218.482 297.3 232.119 305.591 231.383C311.697 230.839 307.813 224.191 305.343 220.727" stroke="black" stroke-width="0.5" stroke-linecap="round" stroke-linejoin="round"/>
<path d="M279.163 257.484H279.16" stroke="black" stroke-width="0.5" stroke-linecap="round" stroke-linejoin="round"/>
<path d="M297.031 171.815C297.031 171.815 297.576 166.909 290.813 168.224C284.051 169.539 282.789 173.313 282.789 173.313L297.031 171.815Z" fill="white" stroke="black" stroke-width="0.5" stroke-linecap="round" stroke-linejoin="round"/>
<path d="M282.968 174.611C282.968 174.611 282.34 181.536 280.711 181.892C279.082 182.248 279.073 184.591 281.63 184.334C283.271 184.168 285.635 183.668 287.175 180.922C287.492 180.357 285.445 179.818 286.672 177.523C287.561 175.864 288.942 176.883 289.016 176.504C289.186 175.623 288.717 175.196 288.65 174.152L282.968 174.611Z" fill="white" stroke="black" stroke-width="0.5" stroke-linecap="round" stroke-linejoin="round"/>
<path d="M297.865 171.453L282.285 172.41L282.505 175.983L298.085 175.026L297.865 171.453Z" fill="black" stroke="black" stroke-width="0.5" stroke-linecap="round" stroke-linejoin="round"/>
<path d="M294.008 181.156C294.008 181.156 295.761 182.237 297.854 181.156H294.008Z" fill="white"/>
<path d="M294.008 181.156C294.008 181.156 295.761 182.237 297.854 181.156" stroke="black" stroke-width="0.5" stroke-linecap="round" stroke-linejoin="round"/>
<path d="M140.477 180.254V208.092H170.711V178.359H150.961C150.73 178.359 150.501 178.364 150.269 178.37C150.191 178.37 150.114 178.37 150.038 178.375C146.72 178.473 143.495 179.123 140.477 180.254Z" fill="white" stroke="black" stroke-width="0.5" stroke-linecap="round" stroke-linejoin="round"/>
<path d="M223.734 208.092C223.734 216.061 230.2 222.515 238.178 222.515H244.912C244.757 222.115 244.585 221.718 244.405 221.327C243.273 218.859 241.71 216.634 239.815 214.741C236.016 210.95 230.874 208.492 225.167 208.136C224.844 208.116 224.519 208.103 224.19 208.101C224.039 208.092 223.888 208.092 223.734 208.092Z" fill="white" stroke="black" stroke-width="0.5" stroke-linecap="round" stroke-linejoin="round"/>
<path d="M107.438 231.69H246.472V230.799C246.472 229.245 246.318 227.728 246.016 226.264C245.756 224.969 245.384 223.716 244.91 222.517H238.176C230.2 222.517 223.735 216.061 223.732 208.094L215.423 194.013C215.245 193.709 215.061 193.409 214.874 193.113C213.935 191.634 212.883 190.251 211.733 188.967C211.504 188.709 211.271 188.456 211.033 188.209C210.915 188.085 210.795 187.963 210.675 187.841C210.552 187.719 210.432 187.596 210.31 187.477C204.434 181.709 196.452 178.359 187.995 178.359H170.71V208.092H140.475V180.254C133.133 182.986 127.01 188.549 123.656 195.939L118.143 208.092L107.434 231.69H107.438Z" fill="#A9A9A9" stroke="black" stroke-width="0.5" stroke-linecap="round" stroke-linejoin="round"/>
<path d="M107.438 231.691H245.328C248.366 231.691 250.835 234.154 250.835 237.191V239.358C250.835 242.132 248.58 244.384 245.802 244.384H107.438V231.691Z" fill="white" stroke="black" stroke-width="0.5" stroke-miterlimit="10"/>
<path d="M218.212 256.002C225.431 256.002 231.283 250.158 231.283 242.949C231.283 235.74 225.431 229.896 218.212 229.896C210.993 229.896 205.141 235.74 205.141 242.949C205.141 250.158 210.993 256.002 218.212 256.002Z" fill="white" stroke="black" stroke-width="0.5" stroke-miterlimit="10"/>
<path d="M218.218 250.931C222.631 250.931 226.209 247.358 226.209 242.951C226.209 238.543 222.631 234.971 218.218 234.971C213.804 234.971 210.227 238.543 210.227 242.951C210.227 247.358 213.804 250.931 218.218 250.931Z" fill="white" stroke="black" stroke-width="0.5" stroke-miterlimit="10"/>
<path d="M134.216 256.002C141.435 256.002 147.287 250.158 147.287 242.949C147.287 235.74 141.435 229.896 134.216 229.896C126.997 229.896 121.145 235.74 121.145 242.949C121.145 250.158 126.997 256.002 134.216 256.002Z" fill="white" stroke="black" stroke-width="0.5" stroke-miterlimit="10"/>
<path d="M134.21 250.931C138.623 250.931 142.201 247.358 142.201 242.951C142.201 238.543 138.623 234.971 134.21 234.971C129.797 234.971 126.219 238.543 126.219 242.951C126.219 247.358 129.797 250.931 134.21 250.931Z" fill="white" stroke="black" stroke-width="0.5" stroke-miterlimit="10"/>
<path d="M118.145 208.094H140.477V180.256C133.135 182.988 127.012 188.551 123.658 195.941L118.145 208.094Z" fill="white" stroke="black" stroke-width="0.5" stroke-linecap="round" stroke-linejoin="round"/>
<path d="M180.584 178.361V208.094H223.734L215.425 194.013C215.247 193.708 215.062 193.409 214.876 193.113C213.937 191.636 212.885 190.25 211.735 188.967C211.506 188.709 211.27 188.456 211.035 188.209C210.917 188.085 210.797 187.963 210.677 187.841C210.554 187.718 210.434 187.596 210.312 187.476C204.436 181.711 196.453 178.361 187.997 178.361H180.582H180.584Z" fill="white" stroke="black" stroke-width="0.5" stroke-miterlimit="10"/>
<path d="M101.508 158.59L127.956 179.381C130.476 181.362 130.911 185.014 128.928 187.53L126.856 190.158L91.2748 162.188L93.3467 159.56C95.3304 157.044 98.9878 156.609 101.508 158.59Z" fill="white" stroke="black" stroke-width="0.5" stroke-miterlimit="10"/>
</g>
<defs>
<clipPath id="clip0_401_14349">
<rect width="432" height="296" rx="20" fill="white"/>
</clipPath>
</defs>
</svg>
