<svg width="887" height="216" viewBox="0 0 887 216" fill="none" xmlns="http://www.w3.org/2000/svg">
<g clip-path="url(#clip0_427_18489)">
<rect x="434" y="30" width="128" height="152" rx="16" fill="#F9F9F9"/>
<rect x="446" y="78" width="64" height="16" fill="#F4F4F4"/>
<rect x="446" y="46" width="71" height="24" rx="12" fill="#F4F4F4"/>
<rect x="446" y="150" width="47" height="16" fill="#F4F4F4"/>
<rect x="446" y="102" width="80" height="12" fill="#F4F4F4"/>
<rect x="574" y="30" width="128" height="152" rx="16" fill="#F9F9F9"/>
<rect x="586" y="78" width="64" height="16" fill="#F4F4F4"/>
<rect x="586" y="46" width="71" height="24" rx="12" fill="#F4F4F4"/>
<rect x="586" y="150" width="47" height="16" fill="#F4F4F4"/>
<rect x="586" y="102" width="80" height="12" fill="#F4F4F4"/>
<rect x="714" y="30" width="128" height="152" rx="16" fill="#F9F9F9"/>
<rect x="726" y="78" width="64" height="16" fill="#F4F4F4"/>
<rect x="726" y="46" width="71" height="24" rx="12" fill="#F4F4F4"/>
<rect x="726" y="150" width="47" height="16" fill="#F4F4F4"/>
<rect x="726" y="102" width="80" height="12" fill="#F4F4F4"/>
<rect x="854" y="30" width="128" height="152" rx="16" fill="#F9F9F9"/>
<rect x="866" y="78" width="64" height="16" fill="#F4F4F4"/>
<rect x="866" y="46" width="71" height="24" rx="12" fill="#F4F4F4"/>
<rect x="866" y="150" width="47" height="16" fill="#F4F4F4"/>
<rect x="866" y="102" width="80" height="12" fill="#F4F4F4"/>
<rect x="294" y="30" width="128" height="152" rx="16" fill="#F9F9F9"/>
<rect x="306" y="78" width="64" height="16" fill="#F4F4F4"/>
<rect x="306" y="46" width="71" height="24" rx="12" fill="#F4F4F4"/>
<rect x="306" y="150" width="47" height="16" fill="#F4F4F4"/>
<rect x="306" y="102" width="80" height="12" fill="#F4F4F4"/>
<rect x="154" y="30" width="128" height="152" rx="16" fill="#F9F9F9"/>
<rect x="166" y="78" width="64" height="16" fill="#F4F4F4"/>
<rect x="166" y="46" width="71" height="24" rx="12" fill="#F4F4F4"/>
<rect x="166" y="150" width="47" height="16" fill="#F4F4F4"/>
<rect x="166" y="102" width="80" height="12" fill="#F4F4F4"/>
<g filter="url(#filter0_d_427_18489)">
<rect x="72" y="24" width="140" height="168" rx="16" fill="white" shape-rendering="crispEdges"/>
<rect x="96" y="48" width="61" height="26" rx="13" fill="#D0F8FF"/>
<circle cx="108" cy="61" r="4" fill="#00C3D7"/>
<path d="M121.176 66V57.6H124.596C125.052 57.6 125.464 57.716 125.832 57.948C126.208 58.172 126.508 58.48 126.732 58.872C126.956 59.264 127.068 59.7 127.068 60.18C127.068 60.66 126.956 61.096 126.732 61.488C126.508 61.88 126.208 62.196 125.832 62.436C125.464 62.668 125.052 62.784 124.596 62.784H122.472V66H121.176ZM122.472 61.536H124.572C124.788 61.536 124.984 61.476 125.16 61.356C125.336 61.228 125.476 61.064 125.58 60.864C125.692 60.656 125.748 60.428 125.748 60.18C125.748 59.932 125.692 59.708 125.58 59.508C125.476 59.308 125.336 59.148 125.16 59.028C124.984 58.908 124.788 58.848 124.572 58.848H122.472V61.536ZM130.776 66.12C130.256 66.12 129.78 65.976 129.348 65.688C128.924 65.4 128.584 65.008 128.328 64.512C128.072 64.016 127.944 63.456 127.944 62.832C127.944 62.2 128.072 61.64 128.328 61.152C128.592 60.656 128.944 60.268 129.384 59.988C129.832 59.708 130.332 59.568 130.884 59.568C131.212 59.568 131.512 59.616 131.784 59.712C132.056 59.808 132.292 59.944 132.492 60.12C132.7 60.288 132.868 60.484 132.996 60.708C133.132 60.932 133.216 61.172 133.248 61.428L132.972 61.332V59.7H134.22V66H132.972V64.5L133.26 64.416C133.212 64.632 133.112 64.844 132.96 65.052C132.816 65.252 132.628 65.432 132.396 65.592C132.172 65.752 131.92 65.88 131.64 65.976C131.368 66.072 131.08 66.12 130.776 66.12ZM131.1 64.98C131.476 64.98 131.808 64.888 132.096 64.704C132.384 64.52 132.608 64.268 132.768 63.948C132.936 63.62 133.02 63.248 133.02 62.832C133.02 62.424 132.936 62.06 132.768 61.74C132.608 61.42 132.384 61.168 132.096 60.984C131.808 60.8 131.476 60.708 131.1 60.708C130.732 60.708 130.404 60.8 130.116 60.984C129.836 61.168 129.612 61.42 129.444 61.74C129.284 62.06 129.204 62.424 129.204 62.832C129.204 63.248 129.284 63.62 129.444 63.948C129.612 64.268 129.836 64.52 130.116 64.704C130.404 64.888 130.732 64.98 131.1 64.98ZM136.861 68.76L138.133 65.82L138.145 66.804L135.001 59.7H136.441L138.409 64.332C138.449 64.412 138.497 64.536 138.553 64.704C138.609 64.864 138.657 65.024 138.697 65.184L138.385 65.256C138.449 65.088 138.509 64.92 138.565 64.752C138.629 64.584 138.689 64.416 138.745 64.248L140.389 59.7H141.853L139.261 66L138.193 68.76H136.861ZM145.601 66.12C144.953 66.12 144.377 65.984 143.873 65.712C143.377 65.432 142.985 65.052 142.697 64.572C142.417 64.092 142.277 63.54 142.277 62.916C142.277 62.42 142.357 61.968 142.517 61.56C142.677 61.152 142.897 60.8 143.177 60.504C143.465 60.2 143.805 59.968 144.197 59.808C144.597 59.64 145.029 59.556 145.493 59.556C145.901 59.556 146.281 59.636 146.633 59.796C146.985 59.948 147.289 60.16 147.545 60.432C147.809 60.704 148.009 61.028 148.145 61.404C148.289 61.772 148.357 62.176 148.349 62.616L148.337 63.144H143.189L142.913 62.16H147.269L147.089 62.364V62.076C147.065 61.812 146.977 61.576 146.825 61.368C146.673 61.16 146.481 60.996 146.249 60.876C146.017 60.756 145.765 60.696 145.493 60.696C145.061 60.696 144.697 60.78 144.401 60.948C144.105 61.108 143.881 61.348 143.729 61.668C143.577 61.98 143.501 62.368 143.501 62.832C143.501 63.272 143.593 63.656 143.777 63.984C143.961 64.304 144.221 64.552 144.557 64.728C144.893 64.904 145.281 64.992 145.721 64.992C146.033 64.992 146.321 64.94 146.585 64.836C146.857 64.732 147.149 64.544 147.461 64.272L148.085 65.148C147.893 65.34 147.657 65.508 147.377 65.652C147.105 65.796 146.813 65.912 146.501 66C146.197 66.08 145.897 66.12 145.601 66.12ZM144.653 58.728L144.245 58.116L145.961 56.616L146.741 57.6L144.653 58.728Z" fill="black"/>
<path d="M101.274 97V87.2H103.374V97H101.274ZM102.24 93.108V91.302H107.308V93.108H102.24ZM102.24 89.09V87.2H107.896V89.09H102.24ZM112.147 97.14C111.531 97.14 110.976 96.972 110.481 96.636C109.986 96.3 109.594 95.8427 109.305 95.264C109.016 94.6853 108.871 94.0227 108.871 93.276C108.871 92.5293 109.016 91.8667 109.305 91.288C109.604 90.7093 110.005 90.2567 110.509 89.93C111.013 89.6033 111.587 89.44 112.231 89.44C112.595 89.44 112.926 89.496 113.225 89.608C113.533 89.7107 113.799 89.8553 114.023 90.042C114.256 90.2287 114.452 90.4433 114.611 90.686C114.77 90.9287 114.882 91.19 114.947 91.47L114.527 91.4V89.594H116.501V97H114.499V95.222L114.947 95.18C114.872 95.4413 114.751 95.6887 114.583 95.922C114.415 96.1553 114.205 96.3653 113.953 96.552C113.71 96.7293 113.435 96.874 113.127 96.986C112.819 97.0887 112.492 97.14 112.147 97.14ZM112.693 95.418C113.066 95.418 113.393 95.3293 113.673 95.152C113.953 94.9747 114.168 94.7273 114.317 94.41C114.476 94.0833 114.555 93.7053 114.555 93.276C114.555 92.856 114.476 92.4873 114.317 92.17C114.168 91.8527 113.953 91.6053 113.673 91.428C113.393 91.2413 113.066 91.148 112.693 91.148C112.329 91.148 112.007 91.2413 111.727 91.428C111.456 91.6053 111.242 91.8527 111.083 92.17C110.924 92.4873 110.845 92.856 110.845 93.276C110.845 93.7053 110.924 94.0833 111.083 94.41C111.242 94.7273 111.456 94.9747 111.727 95.152C112.007 95.3293 112.329 95.418 112.693 95.418ZM121.714 97.14C121.005 97.14 120.37 96.972 119.81 96.636C119.25 96.3 118.807 95.8427 118.48 95.264C118.163 94.6853 118.004 94.0273 118.004 93.29C118.004 92.5527 118.163 91.8947 118.48 91.316C118.807 90.7373 119.25 90.28 119.81 89.944C120.37 89.608 121.005 89.44 121.714 89.44C122.377 89.44 122.983 89.5613 123.534 89.804C124.085 90.0467 124.514 90.3827 124.822 90.812L123.73 92.128C123.599 91.9507 123.436 91.792 123.24 91.652C123.044 91.5027 122.829 91.386 122.596 91.302C122.372 91.218 122.139 91.176 121.896 91.176C121.513 91.176 121.173 91.2693 120.874 91.456C120.585 91.6333 120.356 91.8807 120.188 92.198C120.02 92.5153 119.936 92.8793 119.936 93.29C119.936 93.682 120.02 94.0367 120.188 94.354C120.365 94.6713 120.603 94.9233 120.902 95.11C121.201 95.2967 121.537 95.39 121.91 95.39C122.153 95.39 122.381 95.3573 122.596 95.292C122.811 95.2267 123.011 95.124 123.198 94.984C123.394 94.844 123.571 94.676 123.73 94.48L124.808 95.796C124.5 96.1973 124.061 96.524 123.492 96.776C122.932 97.0187 122.339 97.14 121.714 97.14ZM126.796 97V87.718H128.784V97H126.796ZM125.41 91.372V89.594H130.31V91.372H125.41ZM134.14 97.14C133.598 97.14 133.132 97.0233 132.74 96.79C132.357 96.5473 132.058 96.2067 131.844 95.768C131.638 95.32 131.536 94.7833 131.536 94.158V89.594H133.524V93.836C133.524 94.172 133.58 94.466 133.692 94.718C133.804 94.9607 133.962 95.1473 134.168 95.278C134.373 95.4087 134.625 95.474 134.924 95.474C135.138 95.474 135.334 95.4413 135.512 95.376C135.698 95.3013 135.857 95.1987 135.988 95.068C136.128 94.9373 136.235 94.7833 136.31 94.606C136.384 94.4287 136.422 94.2373 136.422 94.032V89.594H138.41V97H136.52L136.45 95.474L136.814 95.306C136.702 95.6513 136.515 95.964 136.254 96.244C135.992 96.524 135.68 96.7433 135.316 96.902C134.952 97.0607 134.56 97.14 134.14 97.14ZM140.41 97V89.594H142.328L142.398 91.974L142.062 91.484C142.174 91.1013 142.356 90.756 142.608 90.448C142.86 90.1307 143.154 89.8833 143.49 89.706C143.835 89.5287 144.195 89.44 144.568 89.44C144.727 89.44 144.881 89.454 145.03 89.482C145.179 89.51 145.305 89.5427 145.408 89.58L144.876 91.764C144.773 91.708 144.638 91.6613 144.47 91.624C144.311 91.5773 144.148 91.554 143.98 91.554C143.756 91.554 143.546 91.596 143.35 91.68C143.163 91.7547 143 91.8667 142.86 92.016C142.72 92.156 142.608 92.324 142.524 92.52C142.449 92.716 142.412 92.9307 142.412 93.164V97H140.41ZM149.748 97.14C148.946 97.14 148.241 96.9767 147.634 96.65C147.037 96.3233 146.57 95.8753 146.234 95.306C145.908 94.7367 145.744 94.0833 145.744 93.346C145.744 92.7673 145.838 92.24 146.024 91.764C146.211 91.288 146.472 90.8773 146.808 90.532C147.144 90.1773 147.541 89.9067 147.998 89.72C148.465 89.524 148.969 89.426 149.51 89.426C150.014 89.426 150.481 89.5193 150.91 89.706C151.34 89.8927 151.708 90.154 152.016 90.49C152.334 90.8167 152.576 91.2087 152.744 91.666C152.912 92.114 152.987 92.5993 152.968 93.122L152.954 93.738H147.004L146.682 92.52H151.316L151.092 92.772V92.464C151.074 92.212 150.99 91.988 150.84 91.792C150.7 91.5867 150.518 91.428 150.294 91.316C150.07 91.1947 149.818 91.134 149.538 91.134C149.128 91.134 148.778 91.2133 148.488 91.372C148.208 91.5307 147.994 91.764 147.844 92.072C147.695 92.38 147.62 92.7533 147.62 93.192C147.62 93.64 147.714 94.0273 147.9 94.354C148.096 94.6807 148.367 94.9373 148.712 95.124C149.067 95.3013 149.482 95.39 149.958 95.39C150.285 95.39 150.584 95.3387 150.854 95.236C151.125 95.1333 151.414 94.956 151.722 94.704L152.674 96.034C152.404 96.2767 152.105 96.482 151.778 96.65C151.452 96.8087 151.116 96.93 150.77 97.014C150.425 97.098 150.084 97.14 149.748 97.14Z" fill="black"/>
<path d="M102.604 119.412V112.596L103.048 112.932L101.392 113.808L101.044 112.68L103.288 111.48H103.912V119.412H102.604ZM101.272 120V118.752H105.28V120H101.272ZM109.636 120.12C108.996 120.12 108.444 119.944 107.98 119.592C107.524 119.24 107.172 118.744 106.924 118.104C106.676 117.456 106.552 116.688 106.552 115.8C106.552 114.912 106.676 114.148 106.924 113.508C107.172 112.86 107.524 112.36 107.98 112.008C108.444 111.656 108.996 111.48 109.636 111.48C110.276 111.48 110.828 111.656 111.292 112.008C111.756 112.36 112.112 112.86 112.36 113.508C112.608 114.148 112.732 114.912 112.732 115.8C112.732 116.688 112.608 117.456 112.36 118.104C112.112 118.744 111.756 119.24 111.292 119.592C110.828 119.944 110.276 120.12 109.636 120.12ZM109.636 118.944C110.22 118.944 110.672 118.672 110.992 118.128C111.312 117.576 111.472 116.8 111.472 115.8C111.472 114.8 111.312 114.028 110.992 113.484C110.672 112.932 110.22 112.656 109.636 112.656C109.052 112.656 108.6 112.932 108.28 113.484C107.96 114.028 107.8 114.8 107.8 115.8C107.8 116.8 107.96 117.576 108.28 118.128C108.6 118.672 109.052 118.944 109.636 118.944ZM112.907 121.584L117.851 111.6H119.039L114.107 121.584H112.907ZM122.409 120.12C121.769 120.12 121.217 119.944 120.753 119.592C120.297 119.24 119.945 118.744 119.697 118.104C119.449 117.456 119.325 116.688 119.325 115.8C119.325 114.912 119.449 114.148 119.697 113.508C119.945 112.86 120.297 112.36 120.753 112.008C121.217 111.656 121.769 111.48 122.409 111.48C123.049 111.48 123.601 111.656 124.065 112.008C124.529 112.36 124.885 112.86 125.133 113.508C125.381 114.148 125.505 114.912 125.505 115.8C125.505 116.688 125.381 117.456 125.133 118.104C124.885 118.744 124.529 119.24 124.065 119.592C123.601 119.944 123.049 120.12 122.409 120.12ZM122.409 118.944C122.993 118.944 123.445 118.672 123.765 118.128C124.085 117.576 124.245 116.8 124.245 115.8C124.245 114.8 124.085 114.028 123.765 113.484C123.445 112.932 122.993 112.656 122.409 112.656C121.825 112.656 121.373 112.932 121.053 113.484C120.733 114.028 120.573 114.8 120.573 115.8C120.573 116.8 120.733 117.576 121.053 118.128C121.373 118.672 121.825 118.944 122.409 118.944ZM127.179 120L126.783 119.016L129.351 116.124C129.487 115.98 129.627 115.816 129.771 115.632C129.923 115.44 130.067 115.244 130.203 115.044C130.339 114.844 130.447 114.648 130.527 114.456C130.615 114.256 130.659 114.068 130.659 113.892C130.659 113.636 130.607 113.42 130.503 113.244C130.407 113.06 130.263 112.92 130.071 112.824C129.887 112.728 129.663 112.68 129.399 112.68C129.167 112.68 128.939 112.748 128.715 112.884C128.491 113.02 128.287 113.212 128.103 113.46C127.919 113.708 127.775 113.996 127.671 114.324L126.675 113.7C126.811 113.236 127.015 112.84 127.287 112.512C127.567 112.176 127.899 111.92 128.283 111.744C128.675 111.568 129.099 111.48 129.555 111.48C130.027 111.48 130.447 111.58 130.815 111.78C131.183 111.972 131.471 112.244 131.679 112.596C131.887 112.94 131.991 113.34 131.991 113.796C131.991 113.98 131.971 114.168 131.931 114.36C131.891 114.552 131.827 114.752 131.739 114.96C131.651 115.16 131.539 115.372 131.403 115.596C131.267 115.812 131.103 116.04 130.911 116.28C130.727 116.52 130.515 116.772 130.275 117.036L128.367 119.112L128.127 118.752H132.255V120H127.179ZM132.853 121.584L137.797 111.6H138.985L134.053 121.584H132.853ZM140.069 120L139.673 119.016L142.241 116.124C142.377 115.98 142.517 115.816 142.661 115.632C142.813 115.44 142.957 115.244 143.093 115.044C143.229 114.844 143.337 114.648 143.417 114.456C143.505 114.256 143.549 114.068 143.549 113.892C143.549 113.636 143.497 113.42 143.393 113.244C143.297 113.06 143.153 112.92 142.961 112.824C142.777 112.728 142.553 112.68 142.289 112.68C142.057 112.68 141.829 112.748 141.605 112.884C141.381 113.02 141.177 113.212 140.993 113.46C140.809 113.708 140.665 113.996 140.561 114.324L139.565 113.7C139.701 113.236 139.905 112.84 140.177 112.512C140.457 112.176 140.789 111.92 141.173 111.744C141.565 111.568 141.989 111.48 142.445 111.48C142.917 111.48 143.337 111.58 143.705 111.78C144.073 111.972 144.361 112.244 144.569 112.596C144.777 112.94 144.881 113.34 144.881 113.796C144.881 113.98 144.861 114.168 144.821 114.36C144.781 114.552 144.717 114.752 144.629 114.96C144.541 115.16 144.429 115.372 144.293 115.596C144.157 115.812 143.993 116.04 143.801 116.28C143.617 116.52 143.405 116.772 143.165 117.036L141.257 119.112L141.017 118.752H145.145V120H140.069ZM149.163 120.12C148.523 120.12 147.971 119.944 147.507 119.592C147.051 119.24 146.699 118.744 146.451 118.104C146.203 117.456 146.079 116.688 146.079 115.8C146.079 114.912 146.203 114.148 146.451 113.508C146.699 112.86 147.051 112.36 147.507 112.008C147.971 111.656 148.523 111.48 149.163 111.48C149.803 111.48 150.355 111.656 150.819 112.008C151.283 112.36 151.639 112.86 151.887 113.508C152.135 114.148 152.259 114.912 152.259 115.8C152.259 116.688 152.135 117.456 151.887 118.104C151.639 118.744 151.283 119.24 150.819 119.592C150.355 119.944 149.803 120.12 149.163 120.12ZM149.163 118.944C149.747 118.944 150.199 118.672 150.519 118.128C150.839 117.576 150.999 116.8 150.999 115.8C150.999 114.8 150.839 114.028 150.519 113.484C150.199 112.932 149.747 112.656 149.163 112.656C148.579 112.656 148.127 112.932 147.807 113.484C147.487 114.028 147.327 114.8 147.327 115.8C147.327 116.8 147.487 117.576 147.807 118.128C148.127 118.672 148.579 118.944 149.163 118.944ZM153.932 120L153.536 119.016L156.104 116.124C156.24 115.98 156.38 115.816 156.524 115.632C156.676 115.44 156.82 115.244 156.956 115.044C157.092 114.844 157.2 114.648 157.28 114.456C157.368 114.256 157.412 114.068 157.412 113.892C157.412 113.636 157.36 113.42 157.256 113.244C157.16 113.06 157.016 112.92 156.824 112.824C156.64 112.728 156.416 112.68 156.152 112.68C155.92 112.68 155.692 112.748 155.468 112.884C155.244 113.02 155.04 113.212 154.856 113.46C154.672 113.708 154.528 113.996 154.424 114.324L153.428 113.7C153.564 113.236 153.768 112.84 154.04 112.512C154.32 112.176 154.652 111.92 155.036 111.744C155.428 111.568 155.852 111.48 156.308 111.48C156.78 111.48 157.2 111.58 157.568 111.78C157.936 111.972 158.224 112.244 158.432 112.596C158.64 112.94 158.744 113.34 158.744 113.796C158.744 113.98 158.724 114.168 158.684 114.36C158.644 114.552 158.58 114.752 158.492 114.96C158.404 115.16 158.292 115.372 158.156 115.596C158.02 115.812 157.856 116.04 157.664 116.28C157.48 116.52 157.268 116.772 157.028 117.036L155.12 119.112L154.88 118.752H159.008V120H153.932ZM162.403 120.12C161.811 120.12 161.295 119.984 160.855 119.712C160.423 119.44 160.015 118.984 159.631 118.344L160.639 117.708C160.839 118.004 161.035 118.248 161.227 118.44C161.427 118.624 161.631 118.76 161.839 118.848C162.047 118.936 162.267 118.98 162.499 118.98C162.779 118.98 163.039 118.912 163.279 118.776C163.519 118.632 163.711 118.436 163.855 118.188C163.999 117.94 164.071 117.66 164.071 117.348C164.071 117.036 164.015 116.772 163.903 116.556C163.791 116.332 163.627 116.164 163.411 116.052C163.195 115.932 162.939 115.872 162.643 115.872C162.507 115.872 162.363 115.888 162.211 115.92C162.067 115.944 161.911 115.984 161.743 116.04C161.575 116.088 161.391 116.152 161.191 116.232L160.831 115.284L163.423 112.428L163.675 112.8H160.099V111.6H164.911L165.151 112.08L162.403 115.128L162.103 114.816C162.167 114.784 162.271 114.756 162.415 114.732C162.567 114.7 162.691 114.684 162.787 114.684C163.139 114.684 163.467 114.752 163.771 114.888C164.083 115.016 164.351 115.2 164.575 115.44C164.807 115.672 164.987 115.948 165.115 116.268C165.251 116.58 165.319 116.916 165.319 117.276C165.319 117.82 165.187 118.308 164.923 118.74C164.667 119.164 164.319 119.5 163.879 119.748C163.439 119.996 162.947 120.12 162.403 120.12Z" fill="#676767"/>
<path d="M104.9 163V155.076L105.88 155.132L102.436 159.346L102.198 159.01H108.554V160.774H101.176L100.308 159.122L105.25 153.144H106.93V163H104.9ZM112.074 163L112.018 162.86L115.042 156.672L115.336 157.61C115.215 157.927 115.051 158.212 114.846 158.464C114.641 158.716 114.403 158.94 114.132 159.136C113.871 159.323 113.595 159.467 113.306 159.57C113.017 159.663 112.732 159.71 112.452 159.71C111.92 159.71 111.43 159.565 110.982 159.276C110.534 158.987 110.175 158.604 109.904 158.128C109.633 157.652 109.498 157.129 109.498 156.56C109.498 155.888 109.652 155.281 109.96 154.74C110.277 154.199 110.707 153.774 111.248 153.466C111.789 153.149 112.401 152.99 113.082 152.99C113.567 152.99 114.025 153.079 114.454 153.256C114.883 153.424 115.261 153.667 115.588 153.984C115.915 154.292 116.167 154.647 116.344 155.048C116.531 155.449 116.624 155.879 116.624 156.336C116.624 156.635 116.596 156.938 116.54 157.246C116.484 157.554 116.4 157.876 116.288 158.212C116.176 158.539 116.031 158.898 115.854 159.29C115.686 159.673 115.49 160.097 115.266 160.564L114.048 163H112.074ZM112.942 157.974C113.259 157.974 113.539 157.904 113.782 157.764C114.025 157.624 114.216 157.437 114.356 157.204C114.496 156.961 114.566 156.695 114.566 156.406C114.566 156.089 114.496 155.809 114.356 155.566C114.225 155.314 114.039 155.118 113.796 154.978C113.553 154.829 113.273 154.754 112.956 154.754C112.667 154.754 112.405 154.824 112.172 154.964C111.948 155.104 111.766 155.295 111.626 155.538C111.495 155.781 111.43 156.065 111.43 156.392C111.43 156.672 111.495 156.933 111.626 157.176C111.766 157.409 111.948 157.601 112.172 157.75C112.405 157.899 112.662 157.974 112.942 157.974ZM120.045 163L119.989 162.86L123.013 156.672L123.307 157.61C123.185 157.927 123.022 158.212 122.817 158.464C122.611 158.716 122.373 158.94 122.103 159.136C121.841 159.323 121.566 159.467 121.277 159.57C120.987 159.663 120.703 159.71 120.423 159.71C119.891 159.71 119.401 159.565 118.953 159.276C118.505 158.987 118.145 158.604 117.875 158.128C117.604 157.652 117.469 157.129 117.469 156.56C117.469 155.888 117.623 155.281 117.931 154.74C118.248 154.199 118.677 153.774 119.219 153.466C119.76 153.149 120.371 152.99 121.053 152.99C121.538 152.99 121.995 153.079 122.425 153.256C122.854 153.424 123.232 153.667 123.559 153.984C123.885 154.292 124.137 154.647 124.315 155.048C124.501 155.449 124.595 155.879 124.595 156.336C124.595 156.635 124.567 156.938 124.511 157.246C124.455 157.554 124.371 157.876 124.259 158.212C124.147 158.539 124.002 158.898 123.825 159.29C123.657 159.673 123.461 160.097 123.237 160.564L122.019 163H120.045ZM120.913 157.974C121.23 157.974 121.51 157.904 121.753 157.764C121.995 157.624 122.187 157.437 122.327 157.204C122.467 156.961 122.537 156.695 122.537 156.406C122.537 156.089 122.467 155.809 122.327 155.566C122.196 155.314 122.009 155.118 121.767 154.978C121.524 154.829 121.244 154.754 120.927 154.754C120.637 154.754 120.376 154.824 120.143 154.964C119.919 155.104 119.737 155.295 119.597 155.538C119.466 155.781 119.401 156.065 119.401 156.392C119.401 156.672 119.466 156.933 119.597 157.176C119.737 157.409 119.919 157.601 120.143 157.75C120.376 157.899 120.633 157.974 120.913 157.974ZM135.585 163.14C134.866 163.14 134.199 163.019 133.583 162.776C132.976 162.524 132.449 162.174 132.001 161.726C131.553 161.278 131.207 160.746 130.965 160.13C130.722 159.505 130.601 158.819 130.601 158.072C130.601 157.344 130.722 156.677 130.965 156.07C131.207 155.454 131.553 154.922 132.001 154.474C132.458 154.017 132.99 153.667 133.597 153.424C134.203 153.172 134.866 153.046 135.585 153.046C135.893 153.046 136.187 153.069 136.467 153.116C136.756 153.163 137.036 153.242 137.307 153.354C137.577 153.457 137.839 153.587 138.091 153.746L137.097 155.398C136.826 155.211 136.555 155.081 136.285 155.006C136.023 154.931 135.753 154.894 135.473 154.894C135.062 154.894 134.679 154.973 134.325 155.132C133.979 155.281 133.676 155.501 133.415 155.79C133.163 156.079 132.967 156.415 132.827 156.798C132.687 157.181 132.617 157.605 132.617 158.072C132.617 158.548 132.687 158.987 132.827 159.388C132.967 159.78 133.163 160.121 133.415 160.41C133.667 160.69 133.965 160.905 134.311 161.054C134.665 161.203 135.053 161.278 135.473 161.278C135.678 161.278 135.869 161.264 136.047 161.236C136.224 161.208 136.397 161.157 136.565 161.082C136.742 161.007 136.924 160.905 137.111 160.774L138.049 162.44C137.787 162.608 137.521 162.743 137.251 162.846C136.98 162.939 136.705 163.009 136.425 163.056C136.154 163.112 135.874 163.14 135.585 163.14ZM129.551 159.64V158.506L135.697 158.52V159.64H129.551ZM129.551 157.778V156.644L135.697 156.658V157.778H129.551Z" fill="black"/>
<rect x="72.5" y="24.5" width="139" height="167" rx="15.5" stroke="#D2D8DA" shape-rendering="crispEdges"/>
</g>
</g>
<defs>
<filter id="filter0_d_427_18489" x="56" y="8" width="172" height="200" filterUnits="userSpaceOnUse" color-interpolation-filters="sRGB">
<feFlood flood-opacity="0" result="BackgroundImageFix"/>
<feColorMatrix in="SourceAlpha" type="matrix" values="0 0 0 0 0 0 0 0 0 0 0 0 0 0 0 0 0 0 127 0" result="hardAlpha"/>
<feOffset/>
<feGaussianBlur stdDeviation="8"/>
<feComposite in2="hardAlpha" operator="out"/>
<feColorMatrix type="matrix" values="0 0 0 0 0.882353 0 0 0 0 0.890196 0 0 0 0 0.890196 0 0 0 1 0"/>
<feBlend mode="normal" in2="BackgroundImageFix" result="effect1_dropShadow_427_18489"/>
<feBlend mode="normal" in="SourceGraphic" in2="effect1_dropShadow_427_18489" result="shape"/>
</filter>
<clipPath id="clip0_427_18489">
<rect width="887" height="216" fill="white"/>
</clipPath>
</defs>
</svg>
