<svg width="433" height="252" viewBox="0 0 433 252" fill="none" xmlns="http://www.w3.org/2000/svg">
<g clip-path="url(#clip0_427_18904)">
<path fill-rule="evenodd" clip-rule="evenodd" d="M42.0215 15.8238C47.5062 12.6596 55.4775 12.5424 61.1463 15.4722L61.7899 15.8238L63.2243 16.6512C64.2702 17.2546 65.5345 17.6535 66.8808 17.8095L67.5601 17.8671L69.4387 17.9685C76.6409 18.3576 82.4111 22.1093 83.3365 26.9128L83.4169 27.4314L83.5667 28.703C83.676 29.6304 84.1535 30.5176 84.9427 31.2724L85.3629 31.6383L86.5851 32.6093C91.2589 36.3222 91.432 41.7185 87.1044 45.5561L86.5851 45.9918L85.3629 46.9628C84.4715 47.6708 83.8823 48.5267 83.6518 49.4381L83.5667 49.898L83.4169 51.1697C82.842 56.0454 77.3003 59.9519 70.2047 60.5781L69.4387 60.6325L67.5601 60.7341C66.1903 60.808 64.8797 61.1311 63.7648 61.6654L63.2243 61.9499L61.7899 62.7772C56.3053 65.9415 48.334 66.0587 42.6651 63.1288L42.0215 62.7772L40.5872 61.9499C39.5412 61.3464 38.277 60.9475 36.9306 60.7916L36.2512 60.7341L34.3728 60.6325C27.1705 60.2436 21.4001 56.4918 20.4749 51.6883L20.3945 51.1697L20.2445 49.898C20.1352 48.9706 19.6579 48.0835 18.8688 47.3287L18.4485 46.9628L17.2263 45.9918C12.5523 42.2789 12.3791 36.8826 16.707 33.045L17.2263 32.6093L18.4485 31.6383C19.3399 30.9302 19.929 30.0744 20.1595 29.163L20.2445 28.703L20.3945 27.4314C20.9692 22.5557 26.5111 18.6493 33.6068 18.023L34.3728 17.9685L36.2512 17.8671C37.6212 17.793 38.9317 17.4699 40.0467 16.9357L40.5872 16.6512L42.0215 15.8238Z" fill="url(#paint0_linear_427_18904)"/>
<path fill-rule="evenodd" clip-rule="evenodd" d="M-45.5645 15.8238C-40.0797 12.6596 -32.1084 12.5424 -26.4396 15.4722L-25.796 15.8238L-24.3617 16.6512C-23.3157 17.2546 -22.0515 17.6535 -20.7052 17.8095L-20.0258 17.8671L-18.1473 17.9685C-10.945 18.3576 -5.1748 22.1093 -4.24945 26.9128L-4.16901 27.4314L-4.01928 28.703C-3.90989 29.6304 -3.43243 30.5176 -2.64328 31.2724L-2.22299 31.6383L-1.00084 32.6093C3.67297 36.3222 3.84609 41.7185 -0.481522 45.5561L-1.00084 45.9918L-2.22299 46.9628C-3.11446 47.6708 -3.70366 48.5267 -3.93417 49.4381L-4.01928 49.898L-4.16901 51.1697C-4.74393 56.0454 -10.2856 59.9519 -17.3812 60.5781L-18.1473 60.6325L-20.0258 60.7341C-21.3957 60.808 -22.7062 61.1311 -23.8211 61.6654L-24.3617 61.9499L-25.796 62.7772C-31.2806 65.9415 -39.2519 66.0587 -44.9208 63.1288L-45.5645 62.7772L-46.9987 61.9499C-48.0447 61.3464 -49.3089 60.9475 -50.6553 60.7916L-51.3347 60.7341L-53.2131 60.6325C-60.4154 60.2436 -66.1859 56.4918 -67.111 51.6883L-67.1915 51.1697L-67.3414 49.898C-67.4507 48.9706 -67.9281 48.0835 -68.7172 47.3287L-69.1374 46.9628L-70.3596 45.9918C-75.0337 42.2789 -75.2068 36.8826 -70.879 33.045L-70.3596 32.6093L-69.1374 31.6383C-68.246 30.9302 -67.6569 30.0744 -67.4265 29.163L-67.3414 28.703L-67.1915 27.4314C-66.6167 22.5557 -61.0749 18.6493 -53.9792 18.023L-53.2131 17.9685L-51.3347 17.8671C-49.9647 17.793 -48.6542 17.4699 -47.5393 16.9357L-46.9987 16.6512L-45.5645 15.8238Z" fill="url(#paint1_linear_427_18904)"/>
<path fill-rule="evenodd" clip-rule="evenodd" d="M129.611 15.8238C135.096 12.6596 143.067 12.5424 148.736 15.4722L149.38 15.8238L150.814 16.6512C151.86 17.2546 153.124 17.6535 154.471 17.8095L155.15 17.8671L157.029 17.9685C164.231 18.3576 170.001 22.1093 170.926 26.9128L171.007 27.4314L171.157 28.703C171.266 29.6304 171.743 30.5176 172.533 31.2724L172.953 31.6383L174.175 32.6093C178.849 36.3222 179.022 41.7185 174.694 45.5561L174.175 45.9918L172.953 46.9628C172.061 47.6708 171.472 48.5267 171.242 49.4381L171.157 49.898L171.007 51.1697C170.432 56.0454 164.89 59.9519 157.795 60.5781L157.029 60.6325L155.15 60.7341C153.78 60.808 152.47 61.1311 151.355 61.6654L150.814 61.9499L149.38 62.7772C143.895 65.9415 135.924 66.0587 130.255 63.1288L129.611 62.7772L128.177 61.9499C127.131 61.3464 125.867 60.9475 124.52 60.7916L123.841 60.7341L121.963 60.6325C114.76 60.2436 108.99 56.4918 108.065 51.6883L107.984 51.1697L107.834 49.898C107.725 48.9706 107.248 48.0835 106.459 47.3287L106.038 46.9628L104.816 45.9918C100.142 42.2789 99.969 36.8826 104.297 33.045L104.816 32.6093L106.038 31.6383C106.93 30.9302 107.519 30.0744 107.749 29.163L107.834 28.703L107.984 27.4314C108.559 22.5557 114.101 18.6493 121.197 18.023L121.963 17.9685L123.841 17.8671C125.211 17.793 126.522 17.4699 127.637 16.9357L128.177 16.6512L129.611 15.8238Z" fill="url(#paint2_linear_427_18904)"/>
<path fill-rule="evenodd" clip-rule="evenodd" d="M217.201 15.8238C222.686 12.6596 230.657 12.5424 236.326 15.4722L236.97 15.8238L238.404 16.6512C239.45 17.2546 240.714 17.6535 242.06 17.8095L242.74 17.8671L244.618 17.9685C251.821 18.3576 257.591 22.1093 258.516 26.9128L258.597 27.4314L258.746 28.703C258.856 29.6304 259.333 30.5176 260.122 31.2724L260.543 31.6383L261.765 32.6093C266.439 36.3222 266.612 41.7185 262.284 45.5561L261.765 45.9918L260.543 46.9628C259.651 47.6708 259.062 48.5267 258.831 49.4381L258.746 49.898L258.597 51.1697C258.022 56.0454 252.48 59.9519 245.384 60.5781L244.618 60.6325L242.74 60.7341C241.37 60.808 240.059 61.1311 238.944 61.6654L238.404 61.9499L236.97 62.7772C231.485 65.9415 223.514 66.0587 217.845 63.1288L217.201 62.7772L215.767 61.9499C214.721 61.3464 213.457 60.9475 212.11 60.7916L211.431 60.7341L209.553 60.6325C202.35 60.2436 196.58 56.4918 195.655 51.6883L195.574 51.1697L195.424 49.898C195.315 48.9706 194.838 48.0835 194.048 47.3287L193.628 46.9628L192.406 45.9918C187.732 42.2789 187.559 36.8826 191.887 33.045L192.406 32.6093L193.628 31.6383C194.52 30.9302 195.109 30.0744 195.339 29.163L195.424 28.703L195.574 27.4314C196.149 22.5557 201.691 18.6493 208.786 18.023L209.553 17.9685L211.431 17.8671C212.801 17.793 214.111 17.4699 215.226 16.9357L215.767 16.6512L217.201 15.8238Z" fill="url(#paint3_linear_427_18904)"/>
<path fill-rule="evenodd" clip-rule="evenodd" d="M304.791 15.8238C310.276 12.6596 318.247 12.5424 323.916 15.4722L324.559 15.8238L325.994 16.6512C327.04 17.2546 328.304 17.6535 329.65 17.8095L330.33 17.8671L332.208 17.9685C339.41 18.3576 345.181 22.1093 346.106 26.9128L346.186 27.4314L346.336 28.703C346.446 29.6304 346.923 30.5176 347.712 31.2724L348.132 31.6383L349.355 32.6093C354.028 36.3222 354.202 41.7185 349.874 45.5561L349.355 45.9918L348.132 46.9628C347.241 47.6708 346.652 48.5267 346.421 49.4381L346.336 49.898L346.186 51.1697C345.612 56.0454 340.07 59.9519 332.974 60.5781L332.208 60.6325L330.33 60.7341C328.96 60.808 327.649 61.1311 326.534 61.6654L325.994 61.9499L324.559 62.7772C319.075 65.9415 311.104 66.0587 305.435 63.1288L304.791 62.7772L303.357 61.9499C302.311 61.3464 301.047 60.9475 299.7 60.7916L299.021 60.7341L297.142 60.6325C289.94 60.2436 284.17 56.4918 283.244 51.6883L283.164 51.1697L283.014 49.898C282.905 48.9706 282.427 48.0835 281.638 47.3287L281.218 46.9628L279.996 45.9918C275.322 42.2789 275.149 36.8826 279.476 33.045L279.996 32.6093L281.218 31.6383C282.109 30.9302 282.699 30.0744 282.929 29.163L283.014 28.703L283.164 27.4314C283.739 22.5557 289.281 18.6493 296.376 18.023L297.142 17.9685L299.021 17.8671C300.391 17.793 301.701 17.4699 302.816 16.9357L303.357 16.6512L304.791 15.8238Z" fill="url(#paint4_linear_427_18904)"/>
<path fill-rule="evenodd" clip-rule="evenodd" d="M392.377 15.8238C397.862 12.6596 405.833 12.5424 411.502 15.4722L412.145 15.8238L413.58 16.6512C414.626 17.2546 415.89 17.6535 417.236 17.8095L417.916 17.8671L419.794 17.9685C426.996 18.3576 432.767 22.1093 433.692 26.9128L433.772 27.4314L433.922 28.703C434.032 29.6304 434.509 30.5176 435.298 31.2724L435.718 31.6383L436.941 32.6093C441.614 36.3222 441.787 41.7185 437.46 45.5561L436.941 45.9918L435.718 46.9628C434.827 47.6708 434.238 48.5267 434.007 49.4381L433.922 49.898L433.772 51.1697C433.197 56.0454 427.656 59.9519 420.56 60.5781L419.794 60.6325L417.916 60.7341C416.546 60.808 415.235 61.1311 414.12 61.6654L413.58 61.9499L412.145 62.7772C406.661 65.9415 398.69 66.0587 393.021 63.1288L392.377 62.7772L390.943 61.9499C389.897 61.3464 388.632 60.9475 387.286 60.7916L386.607 60.7341L384.728 60.6325C377.526 60.2436 371.756 56.4918 370.83 51.6883L370.75 51.1697L370.6 49.898C370.491 48.9706 370.013 48.0835 369.224 47.3287L368.804 46.9628L367.582 45.9918C362.908 42.2789 362.735 36.8826 367.062 33.045L367.582 32.6093L368.804 31.6383C369.695 30.9302 370.284 30.0744 370.515 29.163L370.6 28.703L370.75 27.4314C371.325 22.5557 376.867 18.6493 383.962 18.023L384.728 17.9685L386.607 17.8671C387.977 17.793 389.287 17.4699 390.402 16.9357L390.943 16.6512L392.377 15.8238Z" fill="url(#paint5_linear_427_18904)"/>
<path fill-rule="evenodd" clip-rule="evenodd" d="M458.674 221.204C453.189 224.368 445.218 224.485 439.549 221.555L438.905 221.204L437.471 220.376C436.425 219.773 435.161 219.374 433.815 219.218L433.135 219.16L431.257 219.059C424.054 218.67 418.284 214.918 417.359 210.115L417.278 209.596L417.129 208.324C417.019 207.397 416.542 206.51 415.753 205.755L415.332 205.389L414.11 204.418C409.436 200.705 409.263 195.309 413.591 191.471L414.11 191.036L415.332 190.065C416.224 189.357 416.813 188.501 417.044 187.589L417.129 187.129L417.278 185.858C417.853 180.982 423.395 177.075 430.491 176.449L431.257 176.395L433.135 176.293C434.505 176.219 435.816 175.896 436.931 175.362L437.471 175.077L438.905 174.25C444.39 171.086 452.361 170.969 458.03 173.899L458.674 174.25L460.108 175.077C461.154 175.681 462.418 176.08 463.765 176.236L464.444 176.293L466.323 176.395C473.525 176.784 479.295 180.536 480.22 185.339L480.301 185.858L480.451 187.129C480.56 188.057 481.037 188.944 481.827 189.699L482.247 190.065L483.469 191.036C488.143 194.748 488.316 200.145 483.988 203.982L483.469 204.418L482.247 205.389C481.355 206.097 480.766 206.953 480.536 207.864L480.451 208.324L480.301 209.596C479.726 214.472 474.184 218.378 467.089 219.004L466.322 219.059L464.444 219.16C463.074 219.234 461.764 219.557 460.649 220.092L460.108 220.376L458.674 221.204Z" fill="url(#paint6_linear_427_18904)"/>
<path fill-rule="evenodd" clip-rule="evenodd" d="M371.088 221.204C365.603 224.368 357.632 224.485 351.963 221.555L351.319 221.204L349.885 220.376C348.839 219.773 347.575 219.374 346.229 219.218L345.549 219.16L343.671 219.059C336.468 218.67 330.698 214.918 329.773 210.115L329.692 209.596L329.543 208.324C329.433 207.397 328.956 206.51 328.167 205.755L327.746 205.389L326.524 204.418C321.85 200.705 321.677 195.309 326.005 191.471L326.524 191.036L327.746 190.065C328.638 189.357 329.227 188.501 329.458 187.589L329.543 187.129L329.692 185.858C330.267 180.982 335.809 177.075 342.905 176.449L343.671 176.395L345.549 176.293C346.919 176.219 348.23 175.896 349.345 175.362L349.885 175.077L351.319 174.25C356.804 171.086 364.775 170.969 370.444 173.899L371.088 174.25L372.522 175.077C373.568 175.681 374.832 176.08 376.179 176.236L376.858 176.293L378.737 176.395C385.939 176.784 391.709 180.536 392.634 185.339L392.715 185.858L392.865 187.129C392.974 188.057 393.452 188.944 394.241 189.699L394.661 190.065L395.883 191.036C400.557 194.748 400.73 200.145 396.402 203.982L395.883 204.418L394.661 205.389C393.769 206.097 393.18 206.953 392.95 207.864L392.865 208.324L392.715 209.596C392.14 214.472 386.598 218.378 379.503 219.004L378.737 219.059L376.858 219.16C375.488 219.234 374.178 219.557 373.063 220.092L372.522 220.376L371.088 221.204Z" fill="url(#paint7_linear_427_18904)"/>
<path fill-rule="evenodd" clip-rule="evenodd" d="M283.498 221.204C278.013 224.368 270.042 224.485 264.373 221.555L263.73 221.204L262.295 220.376C261.249 219.773 259.985 219.374 258.639 219.218L257.959 219.16L256.081 219.059C248.879 218.67 243.108 214.918 242.183 210.115L242.103 209.596L241.953 208.324C241.843 207.397 241.366 206.51 240.577 205.755L240.157 205.389L238.934 204.418C234.261 200.705 234.088 195.309 238.415 191.471L238.934 191.036L240.157 190.065C241.048 189.357 241.637 188.501 241.868 187.589L241.953 187.129L242.103 185.858C242.678 180.982 248.219 177.075 255.315 176.449L256.081 176.395L257.959 176.293C259.329 176.219 260.64 175.896 261.755 175.362L262.295 175.077L263.73 174.25C269.214 171.086 277.185 170.969 282.854 173.899L283.498 174.25L284.932 175.077C285.978 175.681 287.243 176.08 288.589 176.236L289.268 176.293L291.147 176.395C298.349 176.784 304.119 180.536 305.045 185.339L305.125 185.858L305.275 187.129C305.384 188.057 305.862 188.944 306.651 189.699L307.071 190.065L308.293 191.036C312.967 194.748 313.14 200.145 308.813 203.982L308.293 204.418L307.071 205.389C306.18 206.097 305.591 206.953 305.36 207.864L305.275 208.324L305.125 209.596C304.55 214.472 299.008 218.378 291.913 219.004L291.147 219.059L289.268 219.16C287.898 219.234 286.588 219.557 285.473 220.092L284.932 220.376L283.498 221.204Z" fill="url(#paint8_linear_427_18904)"/>
<path fill-rule="evenodd" clip-rule="evenodd" d="M195.912 221.204C190.427 224.368 182.456 224.485 176.787 221.555L176.144 221.204L174.709 220.376C173.663 219.773 172.399 219.374 171.053 219.218L170.373 219.16L168.495 219.059C161.293 218.67 155.522 214.918 154.597 210.115L154.517 209.596L154.367 208.324C154.258 207.397 153.78 206.51 152.991 205.755L152.571 205.389L151.348 204.418C146.675 200.705 146.502 195.309 150.829 191.471L151.348 191.036L152.571 190.065C153.462 189.357 154.051 188.501 154.282 187.589L154.367 187.129L154.517 185.858C155.092 180.982 160.633 177.075 167.729 176.449L168.495 176.395L170.373 176.293C171.743 176.219 173.054 175.896 174.169 175.362L174.709 175.077L176.144 174.25C181.628 171.086 189.6 170.969 195.269 173.899L195.912 174.25L197.346 175.077C198.392 175.681 199.657 176.08 201.003 176.236L201.682 176.293L203.561 176.395C210.763 176.784 216.534 180.536 217.459 185.339L217.539 185.858L217.689 187.129C217.798 188.057 218.276 188.944 219.065 189.699L219.485 190.065L220.707 191.036C225.381 194.748 225.554 200.145 221.227 203.982L220.707 204.418L219.485 205.389C218.594 206.097 218.005 206.953 217.774 207.864L217.689 208.324L217.539 209.596C216.964 214.472 211.423 218.378 204.327 219.004L203.561 219.059L201.682 219.16C200.312 219.234 199.002 219.557 197.887 220.092L197.346 220.376L195.912 221.204Z" fill="url(#paint9_linear_427_18904)"/>
<path fill-rule="evenodd" clip-rule="evenodd" d="M108.322 221.204C102.838 224.368 94.8662 224.485 89.1974 221.555L88.5538 221.204L87.1195 220.376C86.0735 219.773 84.8093 219.374 83.463 219.218L82.7836 219.16L80.9051 219.059C73.7029 218.67 67.9326 214.918 67.0073 210.115L66.9268 209.596L66.7771 208.324C66.6677 207.397 66.1902 206.51 65.4011 205.755L64.9808 205.389L63.7587 204.418C59.0848 200.705 58.9117 195.309 63.2393 191.471L63.7587 191.036L64.9808 190.065C65.8723 189.357 66.4615 188.501 66.692 187.589L66.7771 187.129L66.9268 185.858C67.5017 180.982 73.0435 177.075 80.139 176.449L80.9051 176.395L82.7836 176.293C84.1535 176.219 85.464 175.896 86.5789 175.362L87.1195 175.077L88.5538 174.25C94.0384 171.086 102.01 170.969 107.679 173.899L108.322 174.25L109.757 175.077C110.803 175.681 112.067 176.08 113.413 176.236L114.093 176.293L115.971 176.395C123.173 176.784 128.944 180.536 129.869 185.339L129.949 185.858L130.099 187.129C130.209 188.057 130.686 188.944 131.475 189.699L131.895 190.065L133.117 191.036C137.791 194.748 137.965 200.145 133.637 203.982L133.117 204.418L131.895 205.389C131.004 206.097 130.415 206.953 130.184 207.864L130.099 208.324L129.949 209.596C129.375 214.472 123.833 218.378 116.737 219.004L115.971 219.059L114.093 219.16C112.723 219.234 111.412 219.557 110.297 220.092L109.757 220.376L108.322 221.204Z" fill="url(#paint10_linear_427_18904)"/>
<path fill-rule="evenodd" clip-rule="evenodd" d="M20.7363 221.204C15.2516 224.368 7.28028 224.485 1.61149 221.555L0.967896 221.204L-0.466468 220.376C-1.5124 219.773 -2.77665 219.374 -4.12295 219.218L-4.80231 219.16L-6.68087 219.059C-13.8831 218.67 -19.6533 214.918 -20.5787 210.115L-20.6591 209.596L-20.8088 208.324C-20.9182 207.397 -21.3957 206.51 -22.1848 205.755L-22.6051 205.389L-23.8273 204.418C-28.5011 200.705 -28.6742 195.309 -24.3466 191.471L-23.8273 191.036L-22.6051 190.065C-21.7137 189.357 -21.1245 188.501 -20.8939 187.589L-20.8088 187.129L-20.6591 185.858C-20.0842 180.982 -14.5425 177.075 -7.4469 176.449L-6.68087 176.395L-4.8023 176.293C-3.43244 176.219 -2.12191 175.896 -1.00699 175.362L-0.466463 175.077L0.967902 174.25C6.45248 171.086 14.4238 170.969 20.0927 173.899L20.7363 174.25L22.1706 175.077C23.2166 175.681 24.4808 176.08 25.8272 176.236L26.5066 176.293L28.385 176.395C35.5873 176.784 41.3577 180.536 42.2829 185.339L42.3634 185.858L42.5133 187.129C42.6226 188.057 43.1 188.944 43.889 189.699L44.3093 190.065L45.5315 191.036C50.2056 194.748 50.3787 200.145 46.0509 203.982L45.5315 204.418L44.3093 205.389C43.4179 206.097 42.8288 206.953 42.5983 207.864L42.5133 208.324L42.3634 209.596C41.7886 214.472 36.2467 218.378 29.151 219.004L28.385 219.059L26.5066 219.16C25.1366 219.234 23.8261 219.557 22.7111 220.092L22.1706 220.376L20.7363 221.204Z" fill="url(#paint11_linear_427_18904)"/>
<path fill-rule="evenodd" clip-rule="evenodd" d="M63.1621 169.323C57.6773 172.487 49.7061 172.604 44.0373 169.674L43.3937 169.323L41.9593 168.495C40.9134 167.892 39.6491 167.493 38.3028 167.337L37.6235 167.279L35.7449 167.178C28.5427 166.789 22.7725 163.037 21.8471 158.234L21.7667 157.715L21.6169 156.443C21.5075 155.516 21.0301 154.629 20.2409 153.874L19.8207 153.508L18.5985 152.537C13.9247 148.824 13.7516 143.428 18.0792 139.59L18.5985 139.155L19.8207 138.184C20.7121 137.476 21.3013 136.62 21.5318 135.708L21.6169 135.248L21.7667 133.977C22.3416 129.101 27.8833 125.195 34.9789 124.568L35.7449 124.514L37.6235 124.412C38.9933 124.339 40.3039 124.015 41.4188 123.481L41.9593 123.197L43.3937 122.369C48.8783 119.205 56.8496 119.088 62.5185 122.018L63.1621 122.369L64.5964 123.197C65.6424 123.8 66.9066 124.199 68.253 124.355L68.9324 124.412L70.8108 124.514C78.0131 124.903 83.7835 128.655 84.7087 133.458L84.7891 133.977L84.9391 135.248C85.0484 136.176 85.5257 137.063 86.3148 137.818L86.7351 138.184L87.9573 139.155C92.6313 142.868 92.8045 148.264 88.4766 152.102L87.9573 152.537L86.7351 153.508C85.8437 154.216 85.2546 155.072 85.0241 155.984L84.939 156.443L84.7891 157.715C84.2144 162.591 78.6725 166.497 71.5768 167.124L70.8108 167.178L68.9324 167.279C67.5624 167.353 66.2519 167.677 65.1369 168.211L64.5964 168.495L63.1621 169.323Z" fill="#00C0D4"/>
<path fill-rule="evenodd" clip-rule="evenodd" d="M-24.4238 169.323C-29.9086 172.487 -37.8799 172.604 -43.5487 169.674L-44.1923 169.323L-45.6266 168.495C-46.6726 167.892 -47.9368 167.493 -49.2831 167.337L-49.9625 167.279L-51.841 167.178C-59.0432 166.789 -64.8135 163.037 -65.7388 158.234L-65.8193 157.715L-65.969 156.443C-66.0784 155.516 -66.5559 154.629 -67.345 153.874L-67.7653 153.508L-68.9874 152.537C-73.6613 148.824 -73.8344 143.428 -69.5068 139.59L-68.9874 139.155L-67.7653 138.184C-66.8738 137.476 -66.2846 136.62 -66.0541 135.708L-65.969 135.248L-65.8193 133.977C-65.2443 129.101 -59.7026 125.195 -52.6071 124.568L-51.841 124.514L-49.9625 124.412C-48.5926 124.339 -47.2821 124.015 -46.1671 123.481L-45.6266 123.197L-44.1923 122.369C-38.7077 119.205 -30.7364 119.088 -25.0674 122.018L-24.4238 122.369L-22.9896 123.197C-21.9436 123.8 -20.6794 124.199 -19.333 124.355L-18.6536 124.412L-16.7752 124.514C-9.57283 124.903 -3.80241 128.655 -2.87723 133.458L-2.7968 133.977L-2.64688 135.248C-2.53756 136.176 -2.06019 137.063 -1.27112 137.818L-0.85087 138.184L0.371365 139.155C5.0454 142.868 5.21852 148.264 0.890701 152.102L0.371363 152.537L-0.850872 153.508C-1.74228 154.216 -2.33137 155.072 -2.56181 155.984L-2.64689 156.443L-2.7968 157.715C-3.37154 162.591 -8.91343 166.497 -16.0091 167.124L-16.7752 167.178L-18.6536 167.279C-20.0236 167.353 -21.3341 167.677 -22.449 168.211L-22.9896 168.495L-24.4238 169.323Z" fill="#00BDD1"/>
<path fill-rule="evenodd" clip-rule="evenodd" d="M238.338 169.323C232.853 172.487 224.882 172.604 219.213 169.674L218.569 169.323L217.135 168.495C216.089 167.892 214.825 167.493 213.479 167.337L212.799 167.279L210.921 167.178C203.718 166.789 197.948 163.037 197.023 158.234L196.942 157.715L196.793 156.443C196.683 155.516 196.206 154.629 195.417 153.874L194.996 153.508L193.774 152.537C189.1 148.824 188.927 143.428 193.255 139.59L193.774 139.155L194.996 138.184C195.888 137.476 196.477 136.62 196.708 135.708L196.793 135.248L196.942 133.977C197.517 129.101 203.059 125.195 210.155 124.568L210.921 124.514L212.799 124.412C214.169 124.339 215.48 124.015 216.595 123.481L217.135 123.197L218.569 122.369C224.054 119.205 232.025 119.088 237.694 122.018L238.338 122.369L239.772 123.197C240.818 123.8 242.082 124.199 243.429 124.355L244.108 124.412L245.987 124.514C253.189 124.903 258.959 128.655 259.884 133.458L259.965 133.977L260.115 135.248C260.224 136.176 260.702 137.063 261.491 137.818L261.911 138.184L263.133 139.155C267.807 142.868 267.98 148.264 263.652 152.102L263.133 152.537L261.911 153.508C261.019 154.216 260.43 155.072 260.2 155.984L260.115 156.443L259.965 157.715C259.39 162.591 253.848 166.497 246.753 167.124L245.987 167.178L244.108 167.279C242.738 167.353 241.428 167.677 240.313 168.211L239.772 168.495L238.338 169.323Z" fill="#00C0D4"/>
<path fill-rule="evenodd" clip-rule="evenodd" d="M413.518 169.323C408.033 172.487 400.062 172.604 394.393 169.674L393.749 169.323L392.315 168.495C391.269 167.892 390.005 167.493 388.658 167.337L387.979 167.279L386.1 167.178C378.898 166.789 373.128 163.037 372.203 158.234L372.122 157.715L371.972 156.443C371.863 155.516 371.386 154.629 370.596 153.874L370.176 153.508L368.954 152.537C364.28 148.824 364.107 143.428 368.435 139.59L368.954 139.155L370.176 138.184C371.068 137.476 371.657 136.62 371.887 135.708L371.972 135.248L372.122 133.977C372.697 129.101 378.239 125.195 385.334 124.568L386.1 124.514L387.979 124.412C389.349 124.339 390.659 124.015 391.774 123.481L392.315 123.197L393.749 122.369C399.234 119.205 407.205 119.088 412.874 122.018L413.518 122.369L414.952 123.197C415.998 123.8 417.262 124.199 418.608 124.355L419.288 124.412L421.166 124.514C428.369 124.903 434.139 128.655 435.064 133.458L435.145 133.977L435.295 135.248C435.404 136.176 435.881 137.063 436.67 137.818L437.091 138.184L438.313 139.155C442.987 142.868 443.16 148.264 438.832 152.102L438.313 152.537L437.091 153.508C436.199 154.216 435.61 155.072 435.38 155.984L435.295 156.443L435.145 157.715C434.57 162.591 429.028 166.497 421.932 167.124L421.166 167.178L419.288 167.279C417.918 167.353 416.607 167.677 415.492 168.211L414.952 168.495L413.518 169.323Z" fill="#00C0D4"/>
<path fill-rule="evenodd" clip-rule="evenodd" d="M150.752 169.323C145.267 172.487 137.296 172.604 131.627 169.674L130.984 169.323L129.549 168.495C128.503 167.892 127.239 167.493 125.893 167.337L125.213 167.279L123.335 167.178C116.133 166.789 110.362 163.037 109.437 158.234L109.357 157.715L109.207 156.443C109.097 155.516 108.62 154.629 107.831 153.874L107.41 153.508L106.188 152.537C101.515 148.824 101.341 143.428 105.669 139.59L106.188 139.155L107.41 138.184C108.302 137.476 108.891 136.62 109.122 135.708L109.207 135.248L109.357 133.977C109.931 129.101 115.473 125.195 122.569 124.568L123.335 124.514L125.213 124.412C126.583 124.339 127.894 124.015 129.009 123.481L129.549 123.197L130.984 122.369C136.468 119.205 144.439 119.088 150.108 122.018L150.752 122.369L152.186 123.197C153.232 123.8 154.496 124.199 155.843 124.355L156.522 124.412L158.401 124.514C165.603 124.903 171.373 128.655 172.299 133.458L172.379 133.977L172.529 135.248C172.638 136.176 173.116 137.063 173.905 137.818L174.325 138.184L175.547 139.155C180.221 142.868 180.394 148.264 176.066 152.102L175.547 152.537L174.325 153.508C173.434 154.216 172.844 155.072 172.614 155.984L172.529 156.443L172.379 157.715C171.804 162.591 166.262 166.497 159.167 167.124L158.401 167.178L156.522 167.279C155.152 167.353 153.842 167.677 152.727 168.211L152.186 168.495L150.752 169.323Z" fill="#00C0D4"/>
<path fill-rule="evenodd" clip-rule="evenodd" d="M325.924 169.323C320.439 172.487 312.468 172.604 306.799 169.674L306.155 169.323L304.721 168.495C303.675 167.892 302.411 167.493 301.065 167.337L300.385 167.279L298.507 167.178C291.304 166.789 285.534 163.037 284.609 158.234L284.528 157.715L284.379 156.443C284.269 155.516 283.792 154.629 283.003 153.874L282.582 153.508L281.36 152.537C276.686 148.824 276.513 143.428 280.841 139.59L281.36 139.155L282.582 138.184C283.474 137.476 284.063 136.62 284.294 135.708L284.379 135.248L284.528 133.977C285.103 129.101 290.645 125.195 297.741 124.568L298.507 124.514L300.385 124.412C301.755 124.339 303.066 124.015 304.181 123.481L304.721 123.197L306.155 122.369C311.64 119.205 319.611 119.088 325.28 122.018L325.924 122.369L327.358 123.197C328.404 123.8 329.668 124.199 331.015 124.355L331.694 124.412L333.573 124.514C340.775 124.903 346.545 128.655 347.47 133.458L347.551 133.977L347.701 135.248C347.81 136.176 348.287 137.063 349.077 137.818L349.497 138.184L350.719 139.155C355.393 142.868 355.566 148.264 351.238 152.102L350.719 152.537L349.497 153.508C348.605 154.216 348.016 155.072 347.786 155.984L347.701 156.443L347.551 157.715C346.976 162.591 341.434 166.497 334.339 167.124L333.572 167.178L331.694 167.279C330.324 167.353 329.014 167.677 327.899 168.211L327.358 168.495L325.924 169.323Z" fill="#00C0D4"/>
<path fill-rule="evenodd" clip-rule="evenodd" d="M19.3692 117.44C13.8844 120.604 5.91309 120.721 0.244305 117.791L-0.399292 117.44L-1.83366 116.612C-2.87958 116.009 -4.14384 115.61 -5.49014 115.454L-6.16949 115.397L-8.04806 115.295C-15.2503 114.906 -21.0205 111.154 -21.9459 106.351L-22.0263 105.832L-22.176 104.561C-22.2854 103.633 -22.7629 102.746 -23.552 101.991L-23.9723 101.625L-25.1945 100.654C-29.8683 96.9415 -30.0414 91.5452 -25.7138 87.7076L-25.1945 87.2719L-23.9723 86.3009C-23.0808 85.5928 -22.4916 84.737 -22.2611 83.8256L-22.176 83.3657L-22.0263 82.0939C-21.4514 77.2183 -15.9097 73.3118 -8.81408 72.6856L-8.04806 72.6312L-6.16949 72.5295C-4.79962 72.4557 -3.4891 72.1325 -2.37418 71.5983L-1.83365 71.3138L-0.399286 70.4864C5.0853 67.3222 13.0566 67.205 18.7255 70.1348L19.3692 70.4864L20.8034 71.3138C21.8494 71.9173 23.1136 72.3161 24.46 72.472L25.1394 72.5295L27.0178 72.6312C34.2201 73.0201 39.9906 76.7719 40.9157 81.5754L40.9962 82.0939L41.1461 83.3657C41.2554 84.293 41.7328 85.1802 42.5218 85.935L42.9421 86.3009L44.1643 87.2719C48.8384 90.9848 49.0115 96.3811 44.6837 100.219L44.1643 100.654L42.9421 101.625C42.0507 102.333 41.4616 103.189 41.2312 104.101L41.1461 104.561L40.9962 105.832C40.4214 110.708 34.8795 114.614 27.7839 115.241L27.0178 115.295L25.1394 115.397C23.7694 115.471 22.4589 115.794 21.3439 116.328L20.8034 116.612L19.3692 117.44Z" fill="#00C0D4"/>
<path fill-rule="evenodd" clip-rule="evenodd" d="M194.545 117.44C189.06 120.604 181.089 120.721 175.42 117.791L174.776 117.44L173.342 116.612C172.296 116.009 171.032 115.61 169.686 115.454L169.006 115.397L167.128 115.295C159.926 114.906 154.155 111.154 153.23 106.351L153.149 105.832L153 104.561C152.89 103.633 152.413 102.746 151.624 101.991L151.203 101.625L149.981 100.654C145.307 96.9415 145.134 91.5452 149.462 87.7076L149.981 87.2719L151.203 86.3009C152.095 85.5928 152.684 84.737 152.915 83.8256L153 83.3657L153.149 82.0939C153.724 77.2183 159.266 73.3118 166.362 72.6856L167.128 72.6312L169.006 72.5295C170.376 72.4557 171.687 72.1325 172.802 71.5983L173.342 71.3138L174.776 70.4864C180.261 67.3222 188.232 67.205 193.901 70.1348L194.545 70.4864L195.979 71.3138C197.025 71.9173 198.289 72.3161 199.636 72.472L200.315 72.5295L202.194 72.6312C209.396 73.0201 215.166 76.7719 216.092 81.5754L216.172 82.0939L216.322 83.3657C216.431 84.293 216.909 85.1802 217.698 85.935L218.118 86.3009L219.34 87.2719C224.014 90.9848 224.187 96.3811 219.859 100.219L219.34 100.654L218.118 101.625C217.226 102.333 216.637 103.189 216.407 104.101L216.322 104.561L216.172 105.832C215.597 110.708 210.055 114.614 202.96 115.241L202.194 115.295L200.315 115.397C198.945 115.471 197.635 115.794 196.52 116.328L195.979 116.612L194.545 117.44Z" fill="#00C0D4"/>
<path fill-rule="evenodd" clip-rule="evenodd" d="M369.721 117.44C364.236 120.604 356.265 120.721 350.596 117.791L349.952 117.44L348.518 116.612C347.472 116.009 346.208 115.61 344.861 115.454L344.182 115.397L342.304 115.295C335.101 114.906 329.331 111.154 328.406 106.351L328.325 105.832L328.176 104.561C328.066 103.633 327.589 102.746 326.8 101.991L326.379 101.625L325.157 100.654C320.483 96.9415 320.31 91.5452 324.638 87.7076L325.157 87.2719L326.379 86.3009C327.271 85.5928 327.86 84.737 328.09 83.8256L328.176 83.3657L328.325 82.0939C328.9 77.2183 334.442 73.3118 341.537 72.6856L342.304 72.6312L344.182 72.5295C345.552 72.4557 346.862 72.1325 347.977 71.5983L348.518 71.3138L349.952 70.4864C355.437 67.3222 363.408 67.205 369.077 70.1348L369.721 70.4864L371.155 71.3138C372.201 71.9173 373.465 72.3161 374.812 72.472L375.491 72.5295L377.369 72.6312C384.572 73.0201 390.342 76.7719 391.267 81.5754L391.348 82.0939L391.498 83.3657C391.607 84.293 392.084 85.1802 392.873 85.935L393.294 86.3009L394.516 87.2719C399.19 90.9848 399.363 96.3811 395.035 100.219L394.516 100.654L393.294 101.625C392.402 102.333 391.813 103.189 391.583 104.101L391.498 104.561L391.348 105.832C390.773 110.708 385.231 114.614 378.135 115.241L377.369 115.295L375.491 115.397C374.121 115.471 372.81 115.794 371.696 116.328L371.155 116.612L369.721 117.44Z" fill="#00C0D4"/>
<path fill-rule="evenodd" clip-rule="evenodd" d="M106.955 117.44C101.47 120.604 93.499 120.721 87.8302 117.791L87.1866 117.44L85.7523 116.612C84.7064 116.009 83.4421 115.61 82.0958 115.454L81.4164 115.397L79.5379 115.295C72.3357 114.906 66.5654 111.154 65.6401 106.351L65.5596 105.832L65.4099 104.561C65.3005 103.633 64.8231 102.746 64.0339 101.991L63.6136 101.625L62.3915 100.654C57.7177 96.9415 57.5445 91.5452 61.8722 87.7076L62.3915 87.2719L63.6136 86.3009C64.5051 85.5928 65.0943 84.737 65.3248 83.8256L65.4099 83.3657L65.5596 82.0939C66.1346 77.2183 71.6763 73.3118 78.7719 72.6856L79.5379 72.6312L81.4164 72.5295C82.7863 72.4557 84.0968 72.1325 85.2118 71.5983L85.7523 71.3138L87.1867 70.4864C92.6712 67.3222 100.643 67.205 106.311 70.1348L106.955 70.4864L108.389 71.3138C109.435 71.9173 110.7 72.3161 112.046 72.472L112.725 72.5295L114.604 72.6312C121.806 73.0201 127.576 76.7719 128.502 81.5754L128.582 82.0939L128.732 83.3657C128.841 84.293 129.319 85.1802 130.108 85.935L130.528 86.3009L131.75 87.2719C136.424 90.9848 136.597 96.3811 132.27 100.219L131.75 100.654L130.528 101.625C129.637 102.333 129.048 103.189 128.817 104.101L128.732 104.561L128.582 105.832C128.007 110.708 122.465 114.614 115.37 115.241L114.604 115.295L112.725 115.397C111.355 115.471 110.045 115.794 108.93 116.328L108.389 116.612L106.955 117.44Z" fill="#00C0D4"/>
<path fill-rule="evenodd" clip-rule="evenodd" d="M282.135 117.44C276.65 120.604 268.679 120.721 263.01 117.791L262.366 117.44L260.932 116.612C259.886 116.009 258.622 115.61 257.275 115.454L256.596 115.397L254.718 115.295C247.515 114.906 241.745 111.154 240.82 106.351L240.739 105.832L240.59 104.561C240.48 103.633 240.003 102.746 239.214 101.991L238.793 101.625L237.571 100.654C232.897 96.9415 232.724 91.5452 237.052 87.7076L237.571 87.2719L238.793 86.3009C239.685 85.5928 240.274 84.737 240.504 83.8256L240.59 83.3657L240.739 82.0939C241.314 77.2183 246.856 73.3118 253.952 72.6856L254.718 72.6312L256.596 72.5295C257.966 72.4557 259.277 72.1325 260.391 71.5983L260.932 71.3138L262.366 70.4864C267.851 67.3222 275.822 67.205 281.491 70.1348L282.135 70.4864L283.569 71.3138C284.615 71.9173 285.879 72.3161 287.226 72.472L287.905 72.5295L289.783 72.6312C296.986 73.0201 302.756 76.7719 303.681 81.5754L303.762 82.0939L303.912 83.3657C304.021 84.293 304.498 85.1802 305.287 85.935L305.708 86.3009L306.93 87.2719C311.604 90.9848 311.777 96.3811 307.449 100.219L306.93 100.654L305.708 101.625C304.816 102.333 304.227 103.189 303.997 104.101L303.912 104.561L303.762 105.832C303.187 110.708 297.645 114.614 290.549 115.241L289.783 115.295L287.905 115.397C286.535 115.471 285.225 115.794 284.11 116.328L283.569 116.612L282.135 117.44Z" fill="#00BED2"/>
<path fill-rule="evenodd" clip-rule="evenodd" d="M457.311 117.44C451.826 120.604 443.854 120.721 438.186 117.791L437.542 117.44L436.108 116.612C435.062 116.009 433.798 115.61 432.451 115.454L431.772 115.397L429.893 115.295C422.691 114.906 416.921 111.154 415.996 106.351L415.915 105.832L415.765 104.561C415.656 103.633 415.179 102.746 414.389 101.991L413.969 101.625L412.747 100.654C408.073 96.9415 407.9 91.5452 412.228 87.7076L412.747 87.2719L413.969 86.3009C414.861 85.5928 415.45 84.737 415.68 83.8256L415.765 83.3657L415.915 82.0939C416.49 77.2183 422.032 73.3118 429.127 72.6856L429.893 72.6312L431.772 72.5295C433.142 72.4557 434.452 72.1325 435.567 71.5983L436.108 71.3138L437.542 70.4864C443.027 67.3222 450.998 67.205 456.667 70.1348L457.311 70.4864L458.745 71.3138C459.791 71.9173 461.055 72.3161 462.401 72.472L463.081 72.5295L464.959 72.6312C472.162 73.0201 477.932 76.7719 478.857 81.5754L478.938 82.0939L479.087 83.3657C479.197 84.293 479.674 85.1802 480.463 85.935L480.884 86.3009L482.106 87.2719C486.78 90.9848 486.953 96.3811 482.625 100.219L482.106 100.654L480.884 101.625C479.992 102.333 479.403 103.189 479.173 104.101L479.087 104.561L478.938 105.832C478.363 110.708 472.821 114.614 465.725 115.241L464.959 115.295L463.081 115.397C461.711 115.471 460.4 115.794 459.285 116.328L458.745 116.612L457.311 117.44Z" fill="#00C0D4"/>
<rect x="167.512" y="73.5" width="95" height="95" rx="47.5" fill="url(#paint12_linear_427_18904)"/>
<g clip-path="url(#clip1_427_18904)">
<path fill-rule="evenodd" clip-rule="evenodd" d="M209.822 102.794C212.702 100.34 216.886 100.249 219.862 102.521L220.2 102.794L220.953 103.436C221.502 103.904 222.166 104.213 222.873 104.334L223.23 104.378L224.216 104.457C227.997 104.759 231.026 107.668 231.512 111.393L231.554 111.795L231.633 112.782C231.69 113.501 231.941 114.189 232.355 114.774L232.576 115.058L233.217 115.811C235.671 118.69 235.762 122.875 233.49 125.851L233.217 126.189L232.576 126.942C232.108 127.491 231.798 128.154 231.677 128.861L231.633 129.218L231.554 130.204C231.252 133.985 228.343 137.014 224.618 137.5L224.216 137.542L223.23 137.621C222.51 137.678 221.822 137.929 221.237 138.343L220.953 138.564L220.2 139.205C217.321 141.659 213.136 141.75 210.16 139.478L209.822 139.205L209.069 138.564C208.52 138.096 207.857 137.786 207.15 137.666L206.793 137.621L205.807 137.542C202.026 137.241 198.997 134.331 198.511 130.606L198.469 130.204L198.39 129.218C198.333 128.499 198.082 127.811 197.668 127.225L197.447 126.942L196.806 126.189C194.352 123.309 194.261 119.125 196.533 116.149L196.806 115.811L197.447 115.058C197.915 114.509 198.224 113.845 198.345 113.138L198.39 112.782L198.469 111.795C198.771 108.014 201.68 104.985 205.405 104.499L205.807 104.457L206.793 104.378C207.512 104.321 208.2 104.07 208.786 103.656L209.069 103.436L209.822 102.794ZM220.011 123C218.355 123 217.011 124.343 217.011 126C217.011 127.657 218.355 129 220.011 129C221.668 129 223.011 127.657 223.011 126C223.011 124.343 221.668 123 220.011 123ZM219.597 113.586L207.597 125.586C206.816 126.367 206.816 127.633 207.597 128.414C208.378 129.195 209.645 129.195 210.426 128.414L222.426 116.414C223.207 115.633 223.207 114.367 222.426 113.586C221.645 112.805 220.378 112.805 219.597 113.586ZM210.011 113C208.355 113 207.011 114.343 207.011 116C207.011 117.657 208.355 119 210.011 119C211.668 119 213.011 117.657 213.011 116C213.011 114.343 211.668 113 210.011 113Z" fill="white"/>
</g>
<rect x="167.512" y="73.5" width="95" height="95" rx="47.5" stroke="white"/>
<circle cx="214.512" cy="121.5" r="117" stroke="url(#paint13_linear_427_18904)"/>
<circle cx="213.512" cy="122.5" r="152" stroke="url(#paint14_linear_427_18904)"/>
<circle cx="214.512" cy="121.5" r="192" stroke="url(#paint15_linear_427_18904)"/>
<circle cx="214.512" cy="121.5" r="78" stroke="url(#paint16_linear_427_18904)"/>
<rect x="88.0117" y="37" width="71" height="26" rx="4" fill="white"/>
<g clip-path="url(#clip2_427_18904)">
<path fill-rule="evenodd" clip-rule="evenodd" d="M105.74 43.932C104.743 43.0826 103.277 43.0826 102.281 43.932L102.03 44.1458C101.816 44.3278 101.551 44.4378 101.271 44.4601L100.942 44.4864C99.6369 44.5905 98.6003 45.6271 98.4961 46.9324L98.4699 47.2612C98.4476 47.5408 98.3376 47.8064 98.1556 48.0199L97.9417 48.2709C97.0923 49.2676 97.0923 50.7335 97.9417 51.7302L98.1556 51.9812C98.3376 52.1947 98.4476 52.4602 98.4699 52.7399L98.4961 53.0686C98.6003 54.374 99.6369 55.4106 100.942 55.5147L101.271 55.541C101.551 55.5632 101.816 55.6732 102.03 55.8552L102.281 56.0691C103.277 56.9185 104.743 56.9185 105.74 56.0691L105.991 55.8552C106.204 55.6732 106.47 55.5632 106.75 55.541L107.078 55.5147C108.384 55.4106 109.42 54.374 109.524 53.0686L109.551 52.7399C109.573 52.4602 109.683 52.1947 109.865 51.9812L110.079 51.7302C110.928 50.7335 110.928 49.2676 110.079 48.2709L109.865 48.0199C109.683 47.8064 109.573 47.5408 109.551 47.2612L109.524 46.9324C109.42 45.6271 108.384 44.5905 107.078 44.4864L106.75 44.4601C106.47 44.4378 106.204 44.3278 105.991 44.1458L105.74 43.932ZM103.145 44.9468C103.644 44.5221 104.377 44.5221 104.875 44.9468L105.126 45.1607C105.553 45.5246 106.084 45.7446 106.644 45.7892L106.972 45.8155C107.625 45.8675 108.143 46.3858 108.195 47.0385L108.222 47.3672C108.266 47.9266 108.486 48.4576 108.85 48.8847L109.064 49.1357C109.489 49.634 109.489 50.367 109.064 50.8654L108.85 51.1163C108.486 51.5434 108.266 52.0745 108.222 52.6338L108.195 52.9626C108.143 53.6152 107.625 54.1335 106.972 54.1856L106.644 54.2118C106.084 54.2565 105.553 54.4764 105.126 54.8404L104.875 55.0543C104.377 55.479 103.644 55.479 103.145 55.0543L102.894 54.8404C102.467 54.4764 101.936 54.2565 101.377 54.2118L101.048 54.1856C100.396 54.1335 99.8773 53.6152 99.8252 52.9626L99.799 52.6338C99.7544 52.0745 99.5344 51.5434 99.1704 51.1163L98.9565 50.8654C98.5319 50.367 98.5319 49.634 98.9565 49.1357L99.1704 48.8847C99.5344 48.4576 99.7544 47.9266 99.799 47.3672L99.8252 47.0385C99.8773 46.3858 100.396 45.8675 101.048 45.8155L101.377 45.7892C101.936 45.7446 102.467 45.5246 102.894 45.1607L103.145 44.9468ZM106.482 48.4719C106.742 48.2116 106.742 47.7895 106.482 47.5291C106.221 47.2688 105.799 47.2688 105.539 47.5291L101.539 51.5291C101.279 51.7895 101.279 52.2116 101.539 52.4719C101.799 52.7323 102.221 52.7323 102.482 52.4719L106.482 48.4719ZM103.344 48.3339C103.344 48.8862 102.896 49.3338 102.344 49.3338C101.791 49.3338 101.344 48.8862 101.344 48.3339C101.344 47.7816 101.791 47.3339 102.344 47.3339C102.896 47.3339 103.344 47.7816 103.344 48.3339ZM105.677 52.6672C106.229 52.6672 106.677 52.2195 106.677 51.6672C106.677 51.1149 106.229 50.6672 105.677 50.6672C105.125 50.6672 104.677 51.1149 104.677 51.6672C104.677 52.2195 105.125 52.6672 105.677 52.6672Z" fill="black"/>
</g>
<path d="M120.732 52.18V50.956H124.188V52.18H120.732ZM127.422 54.412V47.596L127.866 47.932L126.21 48.808L125.862 47.68L128.106 46.48H128.73V54.412H127.422ZM126.09 55V53.752H130.098V55H126.09ZM134.214 55C133.798 55 133.41 54.928 133.05 54.784C132.698 54.632 132.39 54.424 132.126 54.16C131.87 53.896 131.666 53.584 131.514 53.224C131.37 52.864 131.298 52.468 131.298 52.036C131.298 51.82 131.326 51.58 131.382 51.316C131.446 51.044 131.538 50.748 131.658 50.428C131.786 50.108 131.938 49.772 132.114 49.42C132.29 49.06 132.494 48.688 132.726 48.304L133.818 46.456H135.078L135.126 46.576L133.806 48.796C133.566 49.204 133.35 49.592 133.158 49.96C132.974 50.328 132.818 50.676 132.69 51.004C132.562 51.324 132.466 51.616 132.402 51.88L132.114 50.644C132.266 50.396 132.43 50.18 132.606 49.996C132.782 49.804 132.97 49.644 133.17 49.516C133.378 49.388 133.594 49.292 133.818 49.228C134.042 49.164 134.274 49.132 134.514 49.132C134.978 49.132 135.402 49.26 135.786 49.516C136.178 49.764 136.49 50.096 136.722 50.512C136.962 50.928 137.082 51.384 137.082 51.88C137.082 52.48 136.958 53.016 136.71 53.488C136.47 53.952 136.134 54.32 135.702 54.592C135.27 54.864 134.774 55 134.214 55ZM134.214 53.8C134.526 53.8 134.802 53.728 135.042 53.584C135.29 53.432 135.482 53.224 135.618 52.96C135.762 52.688 135.834 52.38 135.834 52.036C135.834 51.74 135.762 51.464 135.618 51.208C135.474 50.944 135.282 50.732 135.042 50.572C134.802 50.412 134.534 50.332 134.238 50.332C133.91 50.332 133.618 50.408 133.362 50.56C133.106 50.712 132.906 50.916 132.762 51.172C132.618 51.428 132.546 51.712 132.546 52.024C132.546 52.36 132.618 52.664 132.762 52.936C132.906 53.2 133.102 53.412 133.35 53.572C133.598 53.724 133.886 53.8 134.214 53.8ZM142.409 55L147.965 46.6H149.201L143.585 55H142.409ZM143.177 51.052C142.817 51.052 142.497 50.956 142.217 50.764C141.945 50.564 141.729 50.296 141.569 49.96C141.417 49.616 141.341 49.224 141.341 48.784C141.341 48.344 141.417 47.952 141.569 47.608C141.729 47.256 141.949 46.984 142.229 46.792C142.509 46.592 142.829 46.492 143.189 46.492C143.549 46.492 143.865 46.592 144.137 46.792C144.417 46.984 144.633 47.256 144.785 47.608C144.945 47.952 145.025 48.344 145.025 48.784C145.025 49.208 144.945 49.592 144.785 49.936C144.625 50.28 144.405 50.552 144.125 50.752C143.845 50.952 143.529 51.052 143.177 51.052ZM143.189 50.152C143.357 50.152 143.501 50.096 143.621 49.984C143.749 49.872 143.845 49.716 143.909 49.516C143.981 49.308 144.017 49.064 144.017 48.784C144.017 48.504 143.981 48.26 143.909 48.052C143.845 47.844 143.749 47.684 143.621 47.572C143.501 47.46 143.353 47.404 143.177 47.404C143.009 47.404 142.861 47.464 142.733 47.584C142.605 47.696 142.505 47.856 142.433 48.064C142.369 48.264 142.337 48.504 142.337 48.784C142.337 49.064 142.369 49.308 142.433 49.516C142.505 49.716 142.605 49.872 142.733 49.984C142.861 50.096 143.013 50.152 143.189 50.152ZM148.493 55.108C148.133 55.108 147.813 55.008 147.533 54.808C147.261 54.608 147.045 54.34 146.885 54.004C146.725 53.66 146.645 53.272 146.645 52.84C146.645 52.4 146.721 52.008 146.873 51.664C147.033 51.312 147.253 51.04 147.533 50.848C147.813 50.648 148.133 50.548 148.493 50.548C148.853 50.548 149.169 50.648 149.441 50.848C149.721 51.04 149.937 51.312 150.089 51.664C150.249 52.008 150.329 52.4 150.329 52.84C150.329 53.264 150.249 53.648 150.089 53.992C149.929 54.336 149.709 54.608 149.429 54.808C149.157 55.008 148.845 55.108 148.493 55.108ZM148.493 54.22C148.661 54.22 148.809 54.164 148.937 54.052C149.065 53.932 149.161 53.772 149.225 53.572C149.297 53.364 149.333 53.12 149.333 52.84C149.333 52.56 149.297 52.32 149.225 52.12C149.161 51.912 149.065 51.752 148.937 51.64C148.809 51.52 148.661 51.46 148.493 51.46C148.317 51.46 148.165 51.516 148.037 51.628C147.909 51.74 147.809 51.9 147.737 52.108C147.673 52.316 147.641 52.56 147.641 52.84C147.641 53.12 147.673 53.364 147.737 53.572C147.809 53.772 147.909 53.932 148.037 54.052C148.165 54.164 148.317 54.22 148.493 54.22Z" fill="black"/>
<rect x="318.012" y="169" width="65" height="26" rx="4" fill="#01B4C8"/>
<g clip-path="url(#clip3_427_18904)">
<path fill-rule="evenodd" clip-rule="evenodd" d="M335.74 175.932C334.743 175.083 333.277 175.083 332.281 175.932L332.03 176.146C331.816 176.328 331.551 176.438 331.271 176.46L330.942 176.486C329.637 176.591 328.6 177.627 328.496 178.932L328.47 179.261C328.448 179.541 328.338 179.806 328.156 180.02L327.942 180.271C327.092 181.268 327.092 182.734 327.942 183.73L328.156 183.981C328.338 184.195 328.448 184.46 328.47 184.74L328.496 185.069C328.6 186.374 329.637 187.411 330.942 187.515L331.271 187.541C331.551 187.563 331.816 187.673 332.03 187.855L332.281 188.069C333.277 188.919 334.743 188.919 335.74 188.069L335.991 187.855C336.204 187.673 336.47 187.563 336.75 187.541L337.078 187.515C338.384 187.411 339.42 186.374 339.524 185.069L339.551 184.74C339.573 184.46 339.683 184.195 339.865 183.981L340.079 183.73C340.928 182.734 340.928 181.268 340.079 180.271L339.865 180.02C339.683 179.806 339.573 179.541 339.551 179.261L339.524 178.932C339.42 177.627 338.384 176.591 337.078 176.486L336.75 176.46C336.47 176.438 336.204 176.328 335.991 176.146L335.74 175.932ZM333.145 176.947C333.644 176.522 334.377 176.522 334.875 176.947L335.126 177.161C335.553 177.525 336.084 177.745 336.644 177.789L336.972 177.815C337.625 177.868 338.143 178.386 338.195 179.039L338.222 179.367C338.266 179.927 338.486 180.458 338.85 180.885L339.064 181.136C339.489 181.634 339.489 182.367 339.064 182.865L338.85 183.116C338.486 183.543 338.266 184.075 338.222 184.634L338.195 184.963C338.143 185.615 337.625 186.134 336.972 186.186L336.644 186.212C336.084 186.257 335.553 186.476 335.126 186.84L334.875 187.054C334.377 187.479 333.644 187.479 333.145 187.054L332.894 186.84C332.467 186.476 331.936 186.257 331.377 186.212L331.048 186.186C330.396 186.134 329.877 185.615 329.825 184.963L329.799 184.634C329.754 184.075 329.534 183.543 329.17 183.116L328.957 182.865C328.532 182.367 328.532 181.634 328.957 181.136L329.17 180.885C329.534 180.458 329.754 179.927 329.799 179.367L329.825 179.039C329.877 178.386 330.396 177.868 331.048 177.815L331.377 177.789C331.936 177.745 332.467 177.525 332.894 177.161L333.145 176.947ZM336.482 180.472C336.742 180.212 336.742 179.789 336.482 179.529C336.221 179.269 335.799 179.269 335.539 179.529L331.539 183.529C331.279 183.79 331.279 184.212 331.539 184.472C331.799 184.732 332.221 184.732 332.482 184.472L336.482 180.472ZM333.344 180.334C333.344 180.886 332.896 181.334 332.344 181.334C331.791 181.334 331.344 180.886 331.344 180.334C331.344 179.782 331.791 179.334 332.344 179.334C332.896 179.334 333.344 179.782 333.344 180.334ZM335.677 184.667C336.229 184.667 336.677 184.22 336.677 183.667C336.677 183.115 336.229 182.667 335.677 182.667C335.125 182.667 334.677 183.115 334.677 183.667C334.677 184.22 335.125 184.667 335.677 184.667Z" fill="#01B4C7"/>
</g>
<path d="M350.767 184.18V182.956H354.223V184.18H350.767ZM357.59 187L357.542 186.88L360.038 181.576L360.074 182.572C359.93 182.812 359.77 183.024 359.594 183.208C359.426 183.392 359.238 183.552 359.03 183.688C358.83 183.816 358.622 183.916 358.406 183.988C358.19 184.052 357.97 184.084 357.746 184.084C357.29 184.084 356.87 183.964 356.486 183.724C356.102 183.484 355.794 183.164 355.562 182.764C355.33 182.364 355.214 181.928 355.214 181.456C355.214 180.888 355.342 180.38 355.598 179.932C355.854 179.476 356.202 179.116 356.642 178.852C357.09 178.588 357.59 178.456 358.142 178.456C358.542 178.456 358.918 178.528 359.27 178.672C359.622 178.816 359.93 179.02 360.194 179.284C360.458 179.54 360.666 179.84 360.818 180.184C360.97 180.52 361.046 180.88 361.046 181.264C361.046 181.464 361.026 181.68 360.986 181.912C360.946 182.136 360.878 182.392 360.782 182.68C360.694 182.96 360.574 183.284 360.422 183.652C360.27 184.012 360.082 184.432 359.858 184.912L358.862 187H357.59ZM358.022 182.884C358.334 182.884 358.614 182.816 358.862 182.68C359.11 182.536 359.302 182.348 359.438 182.116C359.582 181.876 359.654 181.608 359.654 181.312C359.654 181 359.586 180.72 359.45 180.472C359.314 180.216 359.122 180.016 358.874 179.872C358.634 179.728 358.358 179.656 358.046 179.656C357.758 179.656 357.502 179.728 357.278 179.872C357.054 180.008 356.874 180.2 356.738 180.448C356.61 180.688 356.546 180.972 356.546 181.3C356.546 181.58 356.61 181.84 356.738 182.08C356.874 182.32 357.054 182.516 357.278 182.668C357.502 182.812 357.75 182.884 358.022 182.884ZM366.374 187L371.93 178.6H373.166L367.55 187H366.374ZM367.142 183.052C366.782 183.052 366.462 182.956 366.182 182.764C365.91 182.564 365.694 182.296 365.534 181.96C365.382 181.616 365.306 181.224 365.306 180.784C365.306 180.344 365.382 179.952 365.534 179.608C365.694 179.256 365.914 178.984 366.194 178.792C366.474 178.592 366.794 178.492 367.154 178.492C367.514 178.492 367.83 178.592 368.102 178.792C368.382 178.984 368.598 179.256 368.75 179.608C368.91 179.952 368.99 180.344 368.99 180.784C368.99 181.208 368.91 181.592 368.75 181.936C368.59 182.28 368.37 182.552 368.09 182.752C367.81 182.952 367.494 183.052 367.142 183.052ZM367.154 182.152C367.322 182.152 367.466 182.096 367.586 181.984C367.714 181.872 367.81 181.716 367.874 181.516C367.946 181.308 367.982 181.064 367.982 180.784C367.982 180.504 367.946 180.26 367.874 180.052C367.81 179.844 367.714 179.684 367.586 179.572C367.466 179.46 367.318 179.404 367.142 179.404C366.974 179.404 366.826 179.464 366.698 179.584C366.57 179.696 366.47 179.856 366.398 180.064C366.334 180.264 366.302 180.504 366.302 180.784C366.302 181.064 366.334 181.308 366.398 181.516C366.47 181.716 366.57 181.872 366.698 181.984C366.826 182.096 366.978 182.152 367.154 182.152ZM372.458 187.108C372.098 187.108 371.778 187.008 371.498 186.808C371.226 186.608 371.01 186.34 370.85 186.004C370.69 185.66 370.61 185.272 370.61 184.84C370.61 184.4 370.686 184.008 370.838 183.664C370.998 183.312 371.218 183.04 371.498 182.848C371.778 182.648 372.098 182.548 372.458 182.548C372.818 182.548 373.134 182.648 373.406 182.848C373.686 183.04 373.902 183.312 374.054 183.664C374.214 184.008 374.294 184.4 374.294 184.84C374.294 185.264 374.214 185.648 374.054 185.992C373.894 186.336 373.674 186.608 373.394 186.808C373.122 187.008 372.81 187.108 372.458 187.108ZM372.458 186.22C372.626 186.22 372.774 186.164 372.902 186.052C373.03 185.932 373.126 185.772 373.19 185.572C373.262 185.364 373.298 185.12 373.298 184.84C373.298 184.56 373.262 184.32 373.19 184.12C373.126 183.912 373.03 183.752 372.902 183.64C372.774 183.52 372.626 183.46 372.458 183.46C372.282 183.46 372.13 183.516 372.002 183.628C371.874 183.74 371.774 183.9 371.702 184.108C371.638 184.316 371.606 184.56 371.606 184.84C371.606 185.12 371.638 185.364 371.702 185.572C371.774 185.772 371.874 185.932 372.002 186.052C372.13 186.164 372.282 186.22 372.458 186.22Z" fill="#01B4C7"/>
</g>
<defs>
<linearGradient id="paint0_linear_427_18904" x1="51.9056" y1="13.3594" x2="51.9056" y2="65.2417" gradientUnits="userSpaceOnUse">
<stop stop-color="#00C3D7"/>
<stop offset="1" stop-color="#00C0D4"/>
</linearGradient>
<linearGradient id="paint1_linear_427_18904" x1="-35.6803" y1="13.3594" x2="-35.6803" y2="65.2417" gradientUnits="userSpaceOnUse">
<stop stop-color="#00C3D7"/>
<stop offset="1" stop-color="#00C0D4"/>
</linearGradient>
<linearGradient id="paint2_linear_427_18904" x1="139.495" y1="13.3594" x2="139.495" y2="65.2417" gradientUnits="userSpaceOnUse">
<stop stop-color="#00C3D7"/>
<stop offset="1" stop-color="#00C0D4"/>
</linearGradient>
<linearGradient id="paint3_linear_427_18904" x1="227.085" y1="13.3594" x2="227.085" y2="65.2417" gradientUnits="userSpaceOnUse">
<stop stop-color="#00C3D7"/>
<stop offset="1" stop-color="#00C0D4"/>
</linearGradient>
<linearGradient id="paint4_linear_427_18904" x1="314.675" y1="13.3594" x2="314.675" y2="65.2417" gradientUnits="userSpaceOnUse">
<stop stop-color="#00C3D7"/>
<stop offset="1" stop-color="#00C0D4"/>
</linearGradient>
<linearGradient id="paint5_linear_427_18904" x1="402.261" y1="13.3594" x2="402.261" y2="65.2417" gradientUnits="userSpaceOnUse">
<stop stop-color="#00C3D7"/>
<stop offset="1" stop-color="#00C0D4"/>
</linearGradient>
<linearGradient id="paint6_linear_427_18904" x1="448.79" y1="223.668" x2="448.79" y2="171.786" gradientUnits="userSpaceOnUse">
<stop stop-color="#00C3D7"/>
<stop offset="1" stop-color="#00C0D4"/>
</linearGradient>
<linearGradient id="paint7_linear_427_18904" x1="361.204" y1="223.668" x2="361.204" y2="171.786" gradientUnits="userSpaceOnUse">
<stop stop-color="#00C3D7"/>
<stop offset="1" stop-color="#00C0D4"/>
</linearGradient>
<linearGradient id="paint8_linear_427_18904" x1="273.614" y1="223.668" x2="273.614" y2="171.786" gradientUnits="userSpaceOnUse">
<stop stop-color="#00C3D7"/>
<stop offset="1" stop-color="#00C0D4"/>
</linearGradient>
<linearGradient id="paint9_linear_427_18904" x1="186.028" y1="223.668" x2="186.028" y2="171.786" gradientUnits="userSpaceOnUse">
<stop stop-color="#00C3D7"/>
<stop offset="1" stop-color="#00C0D4"/>
</linearGradient>
<linearGradient id="paint10_linear_427_18904" x1="98.4381" y1="223.668" x2="98.4381" y2="171.786" gradientUnits="userSpaceOnUse">
<stop stop-color="#00C3D7"/>
<stop offset="1" stop-color="#00C0D4"/>
</linearGradient>
<linearGradient id="paint11_linear_427_18904" x1="10.8522" y1="223.668" x2="10.8522" y2="171.786" gradientUnits="userSpaceOnUse">
<stop stop-color="#00C3D7"/>
<stop offset="1" stop-color="#00C0D4"/>
</linearGradient>
<linearGradient id="paint12_linear_427_18904" x1="167.012" y1="63.7273" x2="270.648" y2="181" gradientUnits="userSpaceOnUse">
<stop stop-color="#009BAB"/>
<stop offset="1" stop-color="#00C3D7" stop-opacity="0"/>
</linearGradient>
<linearGradient id="paint13_linear_427_18904" x1="214.512" y1="4" x2="214.512" y2="239" gradientUnits="userSpaceOnUse">
<stop stop-color="#0CCCE0"/>
<stop offset="0.494792" stop-color="#26DFF2"/>
<stop offset="1" stop-color="#0DCDE1"/>
</linearGradient>
<linearGradient id="paint14_linear_427_18904" x1="213.512" y1="-30" x2="213.512" y2="275" gradientUnits="userSpaceOnUse">
<stop stop-color="#00C3D7"/>
<stop offset="0.5" stop-color="#1DD5E8"/>
<stop offset="1" stop-color="#01C3D7"/>
</linearGradient>
<linearGradient id="paint15_linear_427_18904" x1="214.512" y1="-71" x2="214.512" y2="314" gradientUnits="userSpaceOnUse">
<stop offset="0.16243" stop-color="#00C3D7"/>
<stop offset="0.494792" stop-color="#05CEE2"/>
<stop offset="0.826598" stop-color="#00C3D7"/>
</linearGradient>
<linearGradient id="paint16_linear_427_18904" x1="214.512" y1="43" x2="214.512" y2="200" gradientUnits="userSpaceOnUse">
<stop stop-color="#0FCEE2"/>
<stop offset="0.494792" stop-color="#3BE3F4"/>
<stop offset="1" stop-color="#0DCEE2"/>
</linearGradient>
<clipPath id="clip0_427_18904">
<rect width="433" height="252" fill="white"/>
</clipPath>
<clipPath id="clip1_427_18904">
<rect width="48" height="48" fill="white" transform="translate(191.012 97)"/>
</clipPath>
<clipPath id="clip2_427_18904">
<rect width="16" height="16" fill="white" transform="translate(96.0117 42)"/>
</clipPath>
<clipPath id="clip3_427_18904">
<rect width="16" height="16" fill="white" transform="translate(326.012 174)"/>
</clipPath>
</defs>
</svg>
