<svg width="299" height="133" viewBox="0 0 299 133" fill="none" xmlns="http://www.w3.org/2000/svg">
<rect width="298.333" height="96" transform="translate(0.664062)" fill="#5FBE6E"/>
<path d="M241.706 75.9766H240.016V96.0546H241.706V75.9766Z" fill="white"/>
<path d="M242 76H240V96H242V76Z" stroke="#1E1E1C" stroke-width="0.57" stroke-linecap="round" stroke-linejoin="round"/>
<path d="M247.917 77.8929C247.917 81.7795 244.761 84.9341 240.872 84.9341C236.984 84.9341 233.828 81.7795 233.828 77.8929C233.828 74.0062 236.984 59 240.872 59C244.761 59 247.917 74.0062 247.917 77.8929Z" fill="white"/>
<path d="M247.917 77.8929C247.917 81.7795 244.761 84.9341 240.872 84.9341C236.984 84.9341 233.828 81.7795 233.828 77.8929C233.828 74.0062 236.984 59 240.872 59C244.761 59 247.917 74.0062 247.917 77.8929Z" stroke="#1E1E1C" stroke-width="0.57" stroke-linecap="round" stroke-linejoin="round"/>
<path d="M228.676 83H227.578V96.0716H228.676V83Z" fill="white"/>
<path d="M228.5 83H227.5V96H228.5V83Z" stroke="#1E1E1C" stroke-width="0.57" stroke-linecap="round" stroke-linejoin="round"/>
<path d="M232.684 84.2367C232.684 86.7639 230.643 88.8031 228.115 88.8031C225.587 88.8031 223.547 86.7639 223.547 84.2367C223.547 81.7095 225.587 71.9668 228.115 71.9668C230.643 71.9668 232.684 81.7095 232.684 84.2367Z" fill="white"/>
<path d="M232.684 84.2367C232.684 86.7639 230.643 88.8031 228.115 88.8031C225.587 88.8031 223.547 86.7639 223.547 84.2367C223.547 81.7095 225.587 71.9668 228.115 71.9668C230.643 71.9668 232.684 81.7095 232.684 84.2367Z" stroke="#1E1E1C" stroke-width="0.57" stroke-linecap="round" stroke-linejoin="round"/>
<path d="M253.011 75.9766H251.32V96.0546H253.011V75.9766Z" fill="white"/>
<path d="M253 76H251.5V96H253V76Z" stroke="#1E1E1C" stroke-width="0.57" stroke-linecap="round" stroke-linejoin="round"/>
<path d="M259.214 77.8929C259.214 81.7795 256.058 84.9341 252.169 84.9341C248.281 84.9341 245.125 81.7795 245.125 77.8929C245.125 74.0062 248.281 59 252.169 59C256.058 59 259.214 74.0062 259.214 77.8929Z" fill="white"/>
<path d="M259.214 77.8929C259.214 81.7795 256.058 84.9341 252.169 84.9341C248.281 84.9341 245.125 81.7795 245.125 77.8929C245.125 74.0062 248.281 59 252.169 59C256.058 59 259.214 74.0062 259.214 77.8929Z" stroke="#1E1E1C" stroke-width="0.57" stroke-linecap="round" stroke-linejoin="round"/>
<path d="M270 72H268V96H270V72Z" fill="white"/>
<path d="M270 76H268V96H270V76Z" stroke="#1E1E1C" stroke-width="0.57" stroke-linecap="round" stroke-linejoin="round"/>
<path d="M276.221 77.8929C276.221 81.7795 273.065 84.9341 269.177 84.9341C265.289 84.9341 262.133 81.7795 262.133 77.8929C262.133 74.0062 265.289 59 269.177 59C273.065 59 276.221 74.0062 276.221 77.8929Z" fill="white"/>
<path d="M276.221 77.8929C276.221 81.7795 273.065 84.9341 269.177 84.9341C265.289 84.9341 262.133 81.7795 262.133 77.8929C262.133 74.0062 265.289 59 269.177 59C273.065 59 276.221 74.0062 276.221 77.8929Z" stroke="#1E1E1C" stroke-width="0.57" stroke-linecap="round" stroke-linejoin="round"/>
<path d="M89.0281 95.9437C102.438 73.7944 126.751 59 154.5 59C182.249 59 206.618 73.8225 220 96L89 95.9437H89.0281Z" fill="white"/>
<path d="M89.0281 95.9437C102.438 73.7944 126.751 59 154.5 59C182.249 59 206.618 73.8225 220 96L89 95.9437H89.0281Z" stroke="#1E1E1C" stroke-width="0.57" stroke-miterlimit="10" stroke-linecap="round"/>
<path d="M300 96L1 96" stroke="#1E1E1C" stroke-width="0.57" stroke-miterlimit="10" stroke-linecap="round"/>
<path d="M180 61H34V111H180V61Z" fill="white"/>
<path d="M180 61H34V111H180V61Z" stroke="#1E1E1C" stroke-width="0.57" stroke-linecap="round" stroke-linejoin="round"/>
<path d="M180 36H34V61H180V36Z" fill="white"/>
<path d="M180 36H34V61H180V36Z" stroke="#1E1E1C" stroke-width="0.57" stroke-linecap="round" stroke-linejoin="round"/>
<path d="M69 72H47V111H69V72Z" fill="#1E1E1C"/>
<path d="M69 72H47V111H69V72Z" stroke="#1E1E1C" stroke-width="0.57" stroke-linecap="round" stroke-linejoin="round"/>
<path d="M119 72H74V111H119V72Z" fill="#1E1E1C"/>
<path d="M119 72H74V111H119V72Z" stroke="#1E1E1C" stroke-width="0.57" stroke-linecap="round" stroke-linejoin="round"/>
<path d="M169 72H124V111H169V72Z" fill="#1E1E1C"/>
<path d="M169 72H124V111H169V72Z" stroke="#1E1E1C" stroke-width="0.57" stroke-linecap="round" stroke-linejoin="round"/>
<path d="M81.8398 100.846H83.9394C84.4118 100.846 84.7792 101.213 84.7792 101.685V110.159C84.7792 110.631 84.4118 110.998 83.9394 110.998H81.8398C81.3674 110.998 81 110.631 81 110.159V101.685C81 101.213 81.3674 100.846 81.8398 100.846Z" fill="white"/>
<path d="M81.8292 100.845H83.9289C84.4013 100.845 84.7686 101.212 84.7686 101.684V110.158C84.7686 110.63 84.4013 110.997 83.9289 110.997H81.8555C81.3831 110.997 81.0156 110.63 81.0156 110.158V101.658C81.0156 101.186 81.3831 100.818 81.8555 100.818L81.8292 100.845Z" stroke="#1E1E1C" stroke-width="0.57" stroke-linecap="round" stroke-linejoin="round"/>
<path d="M109.551 100.846H111.65C112.123 100.846 112.49 101.213 112.49 101.685V110.159C112.49 110.631 112.123 110.998 111.65 110.998H109.551C109.078 110.998 108.711 110.631 108.711 110.159V101.685C108.711 101.213 109.078 100.846 109.551 100.846Z" fill="white"/>
<path d="M109.556 100.845H111.655C112.128 100.845 112.495 101.212 112.495 101.684V110.158C112.495 110.63 112.128 110.997 111.655 110.997H109.582C109.11 110.997 108.742 110.63 108.742 110.158V101.658C108.742 101.186 109.11 100.818 109.582 100.818L109.556 100.845Z" stroke="#1E1E1C" stroke-width="0.57" stroke-linecap="round" stroke-linejoin="round"/>
<path d="M108.341 93.605H85.1406L86.1379 86.0235C86.4266 83.9247 88.2113 82.377 90.3109 82.377H103.145C105.271 82.377 107.055 83.951 107.318 86.0235L108.315 93.605H108.341Z" fill="white"/>
<path d="M108.341 93.605H85.1406L86.1379 86.0235C86.4266 83.9247 88.2113 82.377 90.3109 82.377H103.145C105.271 82.377 107.055 83.951 107.318 86.0235L108.315 93.605H108.341Z" stroke="#1E1E1C" stroke-width="0.57" stroke-miterlimit="10" stroke-linecap="round"/>
<path d="M113 101H82V106H113V101Z" fill="white"/>
<path d="M113 101H82V106H113V101Z" stroke="#1E1E1C" stroke-width="0.57" stroke-linecap="round" stroke-linejoin="round"/>
<path d="M112.547 101.476H80.9219V97.8291C80.9219 95.4943 82.8115 93.6055 85.1211 93.6055H108.322C110.658 93.6055 112.547 95.4943 112.547 97.8291V101.476Z" fill="#A8A8A7"/>
<path d="M112.547 101.476H80.9219V97.8291C80.9219 95.4943 82.8115 93.6055 85.1211 93.6055H108.322C110.658 93.6055 112.547 95.4943 112.547 97.8291V101.476Z" stroke="#1E1E1C" stroke-width="0.57" stroke-miterlimit="10" stroke-linecap="round"/>
<path d="M87.4438 95.8616C87.4438 97.1208 86.4203 98.1177 85.1868 98.1177C83.9533 98.1177 82.9297 97.0946 82.9297 95.8616C82.9297 94.6286 83.9533 93.6055 85.1868 93.6055C86.4203 93.6055 87.4438 94.6286 87.4438 95.8616Z" fill="white"/>
<path d="M85.1399 98.1177C86.3865 98.1177 87.397 97.1076 87.397 95.8616C87.397 94.6156 86.3865 93.6055 85.1399 93.6055C83.8934 93.6055 82.8828 94.6156 82.8828 95.8616C82.8828 97.1076 83.8934 98.1177 85.1399 98.1177Z" stroke="#1E1E1C" stroke-width="0.57" stroke-miterlimit="10" stroke-linecap="round"/>
<path d="M110.616 95.8616C110.616 97.1208 109.592 98.1177 108.359 98.1177C107.125 98.1177 106.102 97.0946 106.102 95.8616C106.102 94.6286 107.125 93.6055 108.359 93.6055C109.592 93.6055 110.616 94.6286 110.616 95.8616Z" fill="white"/>
<path d="M108.359 98.1177C109.605 98.1177 110.616 97.1076 110.616 95.8616C110.616 94.6156 109.605 93.6055 108.359 93.6055C107.112 93.6055 106.102 94.6156 106.102 95.8616C106.102 97.1076 107.112 98.1177 108.359 98.1177Z" stroke="#1E1E1C" stroke-width="0.57" stroke-miterlimit="10" stroke-linecap="round"/>
<path d="M132.168 100.846H134.268C134.74 100.846 135.107 101.213 135.107 101.685V110.159C135.107 110.631 134.74 110.998 134.268 110.998H132.168C131.696 110.998 131.328 110.631 131.328 110.159V101.685C131.328 101.213 131.696 100.846 132.168 100.846Z" fill="white"/>
<path d="M132.173 100.847H134.273C134.745 100.847 135.112 101.214 135.112 101.686V110.16C135.112 110.632 134.745 110.999 134.273 110.999H132.199C131.727 110.999 131.359 110.632 131.359 110.16V101.66C131.359 101.188 131.727 100.82 132.199 100.82L132.173 100.847Z" stroke="#1E1E1C" stroke-width="0.57" stroke-linecap="round" stroke-linejoin="round"/>
<path d="M159.887 100.846H161.986C162.459 100.846 162.826 101.213 162.826 101.685V110.159C162.826 110.631 162.459 110.998 161.986 110.998H159.887C159.414 110.998 159.047 110.631 159.047 110.159V101.685C159.047 101.213 159.414 100.846 159.887 100.846Z" fill="white"/>
<path d="M159.9 100.847H161.999C162.472 100.847 162.839 101.214 162.839 101.686V110.16C162.839 110.632 162.472 110.999 161.999 110.999H159.926C159.453 110.999 159.086 110.632 159.086 110.16V101.66C159.086 101.188 159.453 100.82 159.926 100.82L159.9 100.847Z" stroke="#1E1E1C" stroke-width="0.57" stroke-linecap="round" stroke-linejoin="round"/>
<path d="M158.677 93.605H135.477L136.474 86.0235C136.763 83.9247 138.547 82.377 140.647 82.377H153.481C155.607 82.377 157.391 83.951 157.654 86.0235L158.651 93.605H158.677Z" fill="white"/>
<path d="M158.677 93.605H135.477L136.474 86.0235C136.763 83.9247 138.547 82.377 140.647 82.377H153.481C155.607 82.377 157.391 83.951 157.654 86.0235L158.651 93.605H158.677Z" stroke="#1E1E1C" stroke-width="0.57" stroke-miterlimit="10" stroke-linecap="round"/>
<path d="M163 101H131V106H163V101Z" fill="#A8A8A7"/>
<path d="M163 101H131V106H163V101Z" stroke="#1E1E1C" stroke-width="0.57" stroke-miterlimit="10" stroke-linecap="round"/>
<path d="M162.891 101.476H131.266V97.8291C131.266 95.4943 133.155 93.6055 135.465 93.6055H158.665C161.001 93.6055 162.891 95.4943 162.891 97.8291V101.476Z" fill="white"/>
<path d="M162.891 101.476H131.266V97.8291C131.266 95.4943 133.155 93.6055 135.465 93.6055H158.665C161.001 93.6055 162.891 95.4943 162.891 97.8291V101.476Z" stroke="#1E1E1C" stroke-width="0.57" stroke-miterlimit="10" stroke-linecap="round"/>
<path d="M137.788 95.8616C137.788 97.1208 136.764 98.1177 135.531 98.1177C134.297 98.1177 133.273 97.0946 133.273 95.8616C133.273 94.6286 134.297 93.6055 135.531 93.6055C136.764 93.6055 137.788 94.6286 137.788 95.8616Z" fill="white"/>
<path d="M135.491 98.1177C136.738 98.1177 137.749 97.1076 137.749 95.8616C137.749 94.6156 136.738 93.6055 135.491 93.6055C134.245 93.6055 133.234 94.6156 133.234 95.8616C133.234 97.1076 134.245 98.1177 135.491 98.1177Z" stroke="#1E1E1C" stroke-width="0.57" stroke-miterlimit="10" stroke-linecap="round"/>
<path d="M160.944 95.8616C160.944 97.1208 159.92 98.1177 158.687 98.1177C157.453 98.1177 156.43 97.0946 156.43 95.8616C156.43 94.6286 157.453 93.6055 158.687 93.6055C159.92 93.6055 160.944 94.6286 160.944 95.8616Z" fill="white"/>
<path d="M158.687 98.1177C159.933 98.1177 160.944 97.1076 160.944 95.8616C160.944 94.6156 159.933 93.6055 158.687 93.6055C157.44 93.6055 156.43 94.6156 156.43 95.8616C156.43 97.1076 157.44 98.1177 158.687 98.1177Z" stroke="#1E1E1C" stroke-width="0.57" stroke-miterlimit="10" stroke-linecap="round"/>
</svg>
