<svg width="462" height="140" viewBox="0 0 462 140" fill="none" xmlns="http://www.w3.org/2000/svg">
<g clip-path="url(#clip0_568_13147)">
<g clip-path="url(#clip1_568_13147)">
<rect x="-336" y="-30" width="823" height="200" rx="32" fill="url(#paint0_linear_568_13147)"/>
<rect x="208" y="202" width="263" height="263" rx="131.5" transform="rotate(-180 208 202)" fill="url(#paint1_linear_568_13147)" fill-opacity="0.2"/>
<rect x="207.5" y="201.5" width="262" height="262" rx="131" transform="rotate(-180 207.5 201.5)" stroke="url(#paint2_linear_568_13147)" stroke-opacity="0.7" stroke-dasharray="10 10"/>
<rect x="121.5" y="116.5" width="92" height="92" rx="46" transform="rotate(-180 121.5 116.5)" fill="url(#paint3_linear_568_13147)"/>
<g filter="url(#filter0_d_568_13147)">
<rect x="48" y="42" width="56" height="56" rx="28" fill="#FF6E41" shape-rendering="crispEdges"/>
<g clip-path="url(#clip2_568_13147)">
<path fill-rule="evenodd" clip-rule="evenodd" d="M80 72C82.6887 72 84.8818 74.1223 84.9954 76.7831L85 77V78C85 79.0544 84.1841 79.9182 83.1493 79.9945L83 80H69C67.9456 80 67.0818 79.1841 67.0055 78.1493L67 78V77C67 74.3113 69.1223 72.1182 71.7831 72.0046L72 72H80ZM80 74H72C70.4023 74 69.0963 75.2489 69.0051 76.8237L69 77V78H83V77C83 75.4023 81.7511 74.0963 80.1763 74.0051L80 74ZM76 60C78.7614 60 81 62.2386 81 65C81 67.7614 78.7614 70 76 70C73.2386 70 71 67.7614 71 65C71 62.2386 73.2386 60 76 60ZM76 62C74.3431 62 73 63.3432 73 65C73 66.6568 74.3431 68 76 68C77.6569 68 79 66.6568 79 65C79 63.3432 77.6569 62 76 62Z" fill="white"/>
</g>
</g>
<rect x="45.5" y="39.5" width="61" height="61" rx="30.5" stroke="#FF6E41"/>
<rect x="121.5" y="116.5" width="92" height="92" rx="46" transform="rotate(-180 121.5 116.5)" stroke="url(#paint4_linear_568_13147)"/>
<rect x="311" y="42" width="56" height="56" rx="28" fill="#E8ECEF"/>
<g clip-path="url(#clip3_568_13147)">
<path fill-rule="evenodd" clip-rule="evenodd" d="M332.553 63.6584C333.061 62.642 334.1 62 335.236 62H342.764C343.9 62 344.939 62.642 345.447 63.6584L346.833 66.4292C347.077 66.3287 347.317 66.2213 347.553 66.1053C348.047 65.8587 348.647 66.0589 348.894 66.5528C349.141 67.0467 348.941 67.6474 348.447 67.8944C348.206 68.0018 347.965 68.1063 347.722 68.2073L348.683 70.1305C348.892 70.5471 349 71.0064 349 71.4721V74C349 74.8885 348.614 75.6868 348 76.2361V77.5C348 78.3284 347.328 79 346.5 79C345.672 79 345 78.3284 345 77.5V77H333V77.5C333 78.3284 332.328 79 331.5 79C330.672 79 330 78.3284 330 77.5V76.2361C329.386 75.6868 329 74.8885 329 74V71.4721C329 71.0064 329.108 70.5471 329.317 70.1305L330.27 68.2232C330.029 68.1209 329.79 68.0122 329.555 67.8956C329.067 67.652 328.861 67.0418 329.106 66.5528C329.353 66.0589 329.953 65.8587 330.447 66.1053C330.683 66.2215 330.924 66.3289 331.167 66.4293L332.553 63.6584ZM336 72.5C336 73.3284 335.328 74 334.5 74C333.672 74 333 73.3284 333 72.5C333 71.6716 333.672 71 334.5 71C335.328 71 336 71.6716 336 72.5ZM343.5 74C344.328 74 345 73.3284 345 72.5C345 71.6716 344.328 71 343.5 71C342.672 71 342 71.6716 342 72.5C342 73.3284 342.672 74 343.5 74ZM334.342 64.5528C334.511 64.214 334.857 64 335.236 64H342.764C343.143 64 343.489 64.214 343.658 64.5528L344.927 67.0908C343.38 67.555 341.295 68 339 68C336.705 68 334.62 67.555 333.073 67.0908L334.342 64.5528Z" fill="#FF6E41"/>
</g>
<rect x="308.5" y="39.5" width="61" height="61" rx="30.5" stroke="url(#paint5_linear_568_13147)"/>
<g opacity="0.3">
<rect x="385" y="42" width="56" height="56" rx="28" fill="#E8ECEF"/>
<g clip-path="url(#clip4_568_13147)">
<path fill-rule="evenodd" clip-rule="evenodd" d="M406.553 63.6584C407.061 62.642 408.1 62 409.236 62H416.764C417.9 62 418.939 62.642 419.447 63.6584L420.833 66.4292C421.077 66.3287 421.317 66.2213 421.553 66.1053C422.047 65.8587 422.647 66.0589 422.894 66.5528C423.141 67.0467 422.941 67.6474 422.447 67.8944C422.206 68.0018 421.965 68.1063 421.722 68.2073L422.683 70.1305C422.892 70.5471 423 71.0064 423 71.4721V74C423 74.8885 422.614 75.6868 422 76.2361V77.5C422 78.3284 421.328 79 420.5 79C419.672 79 419 78.3284 419 77.5V77H407V77.5C407 78.3284 406.328 79 405.5 79C404.672 79 404 78.3284 404 77.5V76.2361C403.386 75.6868 403 74.8885 403 74V71.4721C403 71.0064 403.108 70.5471 403.317 70.1305L404.27 68.2232C404.029 68.1209 403.79 68.0122 403.555 67.8956C403.067 67.652 402.861 67.0418 403.106 66.5528C403.353 66.0589 403.953 65.8587 404.447 66.1053C404.683 66.2215 404.924 66.3289 405.167 66.4293L406.553 63.6584ZM410 72.5C410 73.3284 409.328 74 408.5 74C407.672 74 407 73.3284 407 72.5C407 71.6716 407.672 71 408.5 71C409.328 71 410 71.6716 410 72.5ZM417.5 74C418.328 74 419 73.3284 419 72.5C419 71.6716 418.328 71 417.5 71C416.672 71 416 71.6716 416 72.5C416 73.3284 416.672 74 417.5 74ZM408.342 64.5528C408.511 64.214 408.857 64 409.236 64H416.764C417.143 64 417.489 64.214 417.658 64.5528L418.927 67.0908C417.38 67.555 415.295 68 413 68C410.705 68 408.62 67.555 407.073 67.0908L408.342 64.5528Z" fill="#FF6E41"/>
</g>
<rect x="382.5" y="39.5" width="61" height="61" rx="30.5" stroke="url(#paint6_linear_568_13147)"/>
</g>
<g opacity="0.3">
<rect x="347" y="-20" width="56" height="56" rx="28" fill="#E8ECEF"/>
<g clip-path="url(#clip5_568_13147)">
<path fill-rule="evenodd" clip-rule="evenodd" d="M371.161 0C370.084 0 369.09 0.57686 368.556 1.51158L366.563 5H365.4C365.179 5 365 5.17909 365 5.4V5.87538C365 6.2425 365.25 6.5625 365.606 6.6515L365.63 6.6574C365.213 7.5218 365.053 8.4902 365.173 9.4471L365.898 15.2481C366.023 16.2489 366.874 17 367.883 17H368C369.105 17 370 16.1046 370 15H380C380 16.1046 380.895 17 382 17H382.117C383.126 17 383.977 16.2489 384.102 15.2481L384.827 9.4471C384.947 8.4902 384.787 7.5218 384.37 6.6574L384.394 6.6515C384.75 6.5625 385 6.2425 385 5.87538V5.4C385 5.17909 384.821 5 384.6 5H383.438L381.444 1.51158C380.91 0.57686 379.916 0 378.839 0H371.161ZM381.422 5.50386L379.708 2.50386C379.53 2.19229 379.198 2 378.839 2H371.161C370.802 2 370.47 2.19229 370.292 2.50386L368.578 5.50386C368.198 6.1705 368.679 7 369.446 7H380.554C381.322 7 381.803 6.1705 381.422 5.50386ZM368 11.0392V10.3382C368 9.9596 368.404 9.7184 368.738 9.8983L371.48 11.3793C371.853 11.5808 371.698 12.1479 371.274 12.131L368.96 12.0384C368.424 12.0169 368 11.5759 368 11.0392ZM382 10.3382V11.0392C382 11.5759 381.576 12.0169 381.04 12.0384L378.726 12.131C378.302 12.1479 378.147 11.5808 378.52 11.3793L381.262 9.8983C381.596 9.7184 382 9.9596 382 10.3382Z" fill="#FF6E41"/>
</g>
<rect x="344.5" y="-22.5" width="61" height="61" rx="30.5" stroke="url(#paint7_linear_568_13147)"/>
</g>
<g opacity="0.3">
<rect x="347" y="104" width="56" height="56" rx="28" fill="#E8ECEF"/>
<g clip-path="url(#clip6_568_13147)">
<path fill-rule="evenodd" clip-rule="evenodd" d="M368.553 125.658C369.061 124.642 370.1 124 371.236 124H378.764C379.9 124 380.939 124.642 381.447 125.658L382.833 128.429C383.077 128.329 383.317 128.221 383.553 128.105C384.047 127.859 384.647 128.059 384.894 128.553C385.141 129.047 384.941 129.647 384.447 129.894C384.206 130.002 383.965 130.106 383.722 130.207L384.683 132.13C384.892 132.547 385 133.006 385 133.472V136C385 136.889 384.614 137.687 384 138.236V139.5C384 140.328 383.328 141 382.5 141C381.672 141 381 140.328 381 139.5V139H369V139.5C369 140.328 368.328 141 367.5 141C366.672 141 366 140.328 366 139.5V138.236C365.386 137.687 365 136.889 365 136V133.472C365 133.006 365.108 132.547 365.317 132.13L366.27 130.223C366.029 130.121 365.79 130.012 365.555 129.896C365.067 129.652 364.861 129.042 365.106 128.553C365.353 128.059 365.953 127.859 366.447 128.105C366.683 128.222 366.924 128.329 367.167 128.429L368.553 125.658ZM372 134.5C372 135.328 371.328 136 370.5 136C369.672 136 369 135.328 369 134.5C369 133.672 369.672 133 370.5 133C371.328 133 372 133.672 372 134.5ZM379.5 136C380.328 136 381 135.328 381 134.5C381 133.672 380.328 133 379.5 133C378.672 133 378 133.672 378 134.5C378 135.328 378.672 136 379.5 136ZM370.342 126.553C370.511 126.214 370.857 126 371.236 126H378.764C379.143 126 379.489 126.214 379.658 126.553L380.927 129.091C379.38 129.555 377.295 130 375 130C372.705 130 370.62 129.555 369.073 129.091L370.342 126.553Z" fill="#FF6E41"/>
</g>
<rect x="344.5" y="101.5" width="61" height="61" rx="30.5" stroke="url(#paint8_linear_568_13147)"/>
</g>
<g opacity="0.3">
<rect x="421" y="-20" width="56" height="56" rx="28" fill="#E8ECEF"/>
<g clip-path="url(#clip7_568_13147)">
<path fill-rule="evenodd" clip-rule="evenodd" d="M445.161 0C444.084 0 443.09 0.57686 442.556 1.51158L440.563 5H439.4C439.179 5 439 5.17909 439 5.4V5.87538C439 6.2425 439.25 6.5625 439.606 6.6515L439.63 6.6574C439.213 7.5218 439.053 8.4902 439.173 9.4471L439.898 15.2481C440.023 16.2489 440.874 17 441.883 17H442C443.105 17 444 16.1046 444 15H454C454 16.1046 454.895 17 456 17H456.117C457.126 17 457.977 16.2489 458.102 15.2481L458.827 9.4471C458.947 8.4902 458.787 7.5218 458.37 6.6574L458.394 6.6515C458.75 6.5625 459 6.2425 459 5.87538V5.4C459 5.17909 458.821 5 458.6 5H457.438L455.444 1.51158C454.91 0.57686 453.916 0 452.839 0H445.161ZM455.422 5.50386L453.708 2.50386C453.53 2.19229 453.198 2 452.839 2H445.161C444.802 2 444.47 2.19229 444.292 2.50386L442.578 5.50386C442.198 6.1705 442.679 7 443.446 7H454.554C455.322 7 455.803 6.1705 455.422 5.50386ZM442 11.0392V10.3382C442 9.9596 442.404 9.7184 442.738 9.8983L445.48 11.3793C445.853 11.5808 445.698 12.1479 445.274 12.131L442.96 12.0384C442.424 12.0169 442 11.5759 442 11.0392ZM456 10.3382V11.0392C456 11.5759 455.576 12.0169 455.04 12.0384L452.726 12.131C452.302 12.1479 452.147 11.5808 452.52 11.3793L455.262 9.8983C455.596 9.7184 456 9.9596 456 10.3382Z" fill="#FF6E41"/>
</g>
<rect x="418.5" y="-22.5" width="61" height="61" rx="30.5" stroke="url(#paint9_linear_568_13147)"/>
</g>
<g opacity="0.3">
<rect x="421" y="104" width="56" height="56" rx="28" fill="#E8ECEF"/>
<g clip-path="url(#clip8_568_13147)">
<path fill-rule="evenodd" clip-rule="evenodd" d="M445.161 124C444.084 124 443.09 124.577 442.556 125.512L440.563 129H439.4C439.179 129 439 129.179 439 129.4V129.875C439 130.242 439.25 130.562 439.606 130.651L439.63 130.657C439.213 131.522 439.053 132.49 439.173 133.447L439.898 139.248C440.023 140.249 440.874 141 441.883 141H442C443.105 141 444 140.105 444 139H454C454 140.105 454.895 141 456 141H456.117C457.126 141 457.977 140.249 458.102 139.248L458.827 133.447C458.947 132.49 458.787 131.522 458.37 130.657L458.394 130.651C458.75 130.562 459 130.242 459 129.875V129.4C459 129.179 458.821 129 458.6 129H457.438L455.444 125.512C454.91 124.577 453.916 124 452.839 124H445.161ZM455.422 129.504L453.708 126.504C453.53 126.192 453.198 126 452.839 126H445.161C444.802 126 444.47 126.192 444.292 126.504L442.578 129.504C442.198 130.171 442.679 131 443.446 131H454.554C455.322 131 455.803 130.171 455.422 129.504ZM442 135.039V134.338C442 133.96 442.404 133.718 442.738 133.898L445.48 135.379C445.853 135.581 445.698 136.148 445.274 136.131L442.96 136.038C442.424 136.017 442 135.576 442 135.039ZM456 134.338V135.039C456 135.576 455.576 136.017 455.04 136.038L452.726 136.131C452.302 136.148 452.147 135.581 452.52 135.379L455.262 133.898C455.596 133.718 456 133.96 456 134.338Z" fill="#FF6E41"/>
</g>
<rect x="418.5" y="101.5" width="61" height="61" rx="30.5" stroke="url(#paint10_linear_568_13147)"/>
</g>
<g opacity="0.2">
<rect x="459" y="42" width="56" height="56" rx="28" fill="#E8ECEF"/>
<rect x="456.5" y="39.5" width="61" height="61" rx="30.5" stroke="url(#paint11_linear_568_13147)"/>
</g>
<path d="M11 70H-195" stroke="url(#paint12_linear_568_13147)"/>
<path d="M308 70L141 70" stroke="url(#paint13_linear_568_13147)"/>
<circle cx="207.5" cy="70" r="4" fill="#DCE3E5"/>
</g>
<rect x="-335.5" y="-29.5" width="822" height="199" rx="31.5" stroke="url(#paint14_linear_568_13147)"/>
</g>
<defs>
<filter id="filter0_d_568_13147" x="16" y="10" width="120" height="120" filterUnits="userSpaceOnUse" color-interpolation-filters="sRGB">
<feFlood flood-opacity="0" result="BackgroundImageFix"/>
<feColorMatrix in="SourceAlpha" type="matrix" values="0 0 0 0 0 0 0 0 0 0 0 0 0 0 0 0 0 0 127 0" result="hardAlpha"/>
<feOffset/>
<feGaussianBlur stdDeviation="16"/>
<feComposite in2="hardAlpha" operator="out"/>
<feColorMatrix type="matrix" values="0 0 0 0 0.768627 0 0 0 0 0.780392 0 0 0 0 0.780392 0 0 0 1 0"/>
<feBlend mode="normal" in2="BackgroundImageFix" result="effect1_dropShadow_568_13147"/>
<feBlend mode="normal" in="SourceGraphic" in2="effect1_dropShadow_568_13147" result="shape"/>
</filter>
<linearGradient id="paint0_linear_568_13147" x1="75.5" y1="-30" x2="75.5" y2="170" gradientUnits="userSpaceOnUse">
<stop stop-color="white" stop-opacity="0.9"/>
<stop offset="1" stop-color="#EDF1F2" stop-opacity="0.07"/>
</linearGradient>
<linearGradient id="paint1_linear_568_13147" x1="339.5" y1="202" x2="339.5" y2="465" gradientUnits="userSpaceOnUse">
<stop offset="0.203125" stop-color="#EEF2F3"/>
<stop offset="1" stop-color="#ECF0F1"/>
</linearGradient>
<linearGradient id="paint2_linear_568_13147" x1="339.5" y1="202" x2="412.476" y2="442.892" gradientUnits="userSpaceOnUse">
<stop stop-color="#CED7D9"/>
<stop offset="1" stop-color="#C4D2D6"/>
</linearGradient>
<linearGradient id="paint3_linear_568_13147" x1="168.5" y1="117" x2="168.5" y2="210" gradientUnits="userSpaceOnUse">
<stop offset="0.203125" stop-color="#EBF1F2"/>
<stop offset="1" stop-color="#ECF0F1"/>
</linearGradient>
<linearGradient id="paint4_linear_568_13147" x1="168.5" y1="117" x2="194.686" y2="201.926" gradientUnits="userSpaceOnUse">
<stop stop-color="#E0E9EB" stop-opacity="0.43"/>
<stop offset="1" stop-color="#DAE2E4"/>
</linearGradient>
<linearGradient id="paint5_linear_568_13147" x1="339" y1="39" x2="339" y2="101" gradientUnits="userSpaceOnUse">
<stop stop-color="#D1D6D9"/>
<stop offset="1" stop-color="#E9EEF2"/>
</linearGradient>
<linearGradient id="paint6_linear_568_13147" x1="413" y1="39" x2="413" y2="101" gradientUnits="userSpaceOnUse">
<stop stop-color="#D1D6D9"/>
<stop offset="1" stop-color="#E9EEF2"/>
</linearGradient>
<linearGradient id="paint7_linear_568_13147" x1="375" y1="-23" x2="375" y2="39" gradientUnits="userSpaceOnUse">
<stop stop-color="#D1D6D9"/>
<stop offset="1" stop-color="#E9EEF2"/>
</linearGradient>
<linearGradient id="paint8_linear_568_13147" x1="375" y1="101" x2="375" y2="163" gradientUnits="userSpaceOnUse">
<stop stop-color="#D1D6D9"/>
<stop offset="1" stop-color="#E9EEF2"/>
</linearGradient>
<linearGradient id="paint9_linear_568_13147" x1="449" y1="-23" x2="449" y2="39" gradientUnits="userSpaceOnUse">
<stop stop-color="#D1D6D9"/>
<stop offset="1" stop-color="#E9EEF2"/>
</linearGradient>
<linearGradient id="paint10_linear_568_13147" x1="449" y1="101" x2="449" y2="163" gradientUnits="userSpaceOnUse">
<stop stop-color="#D1D6D9"/>
<stop offset="1" stop-color="#E9EEF2"/>
</linearGradient>
<linearGradient id="paint11_linear_568_13147" x1="487" y1="39" x2="487" y2="101" gradientUnits="userSpaceOnUse">
<stop stop-color="#D1D6D9"/>
<stop offset="1" stop-color="#E9EEF2"/>
</linearGradient>
<linearGradient id="paint12_linear_568_13147" x1="13.5" y1="70.0006" x2="-195" y2="70" gradientUnits="userSpaceOnUse">
<stop stop-color="#DAE2E4"/>
<stop offset="1" stop-color="#E9E9E9"/>
</linearGradient>
<linearGradient id="paint13_linear_568_13147" x1="310.027" y1="70.0007" x2="141" y2="70.0002" gradientUnits="userSpaceOnUse">
<stop stop-color="#DAE2E4"/>
<stop offset="1" stop-color="#E9E9E9"/>
</linearGradient>
<linearGradient id="paint14_linear_568_13147" x1="75.5" y1="-30" x2="75.5" y2="172.667" gradientUnits="userSpaceOnUse">
<stop offset="0.0104167" stop-color="#DBE3E5"/>
<stop offset="0.2345" stop-color="#E1E1E1" stop-opacity="0.29"/>
<stop offset="1" stop-color="#DAE2E4"/>
</linearGradient>
<clipPath id="clip0_568_13147">
<rect width="462" height="140" fill="white"/>
</clipPath>
<clipPath id="clip1_568_13147">
<rect x="-336" y="-30" width="823" height="200" rx="32" fill="white"/>
</clipPath>
<clipPath id="clip2_568_13147">
<rect width="24" height="24" fill="white" transform="translate(64 58)"/>
</clipPath>
<clipPath id="clip3_568_13147">
<rect width="24" height="24" fill="white" transform="translate(327 58)"/>
</clipPath>
<clipPath id="clip4_568_13147">
<rect width="24" height="24" fill="white" transform="translate(401 58)"/>
</clipPath>
<clipPath id="clip5_568_13147">
<rect width="24" height="24" fill="white" transform="translate(363 -4)"/>
</clipPath>
<clipPath id="clip6_568_13147">
<rect width="24" height="24" fill="white" transform="translate(363 120)"/>
</clipPath>
<clipPath id="clip7_568_13147">
<rect width="24" height="24" fill="white" transform="translate(437 -4)"/>
</clipPath>
<clipPath id="clip8_568_13147">
<rect width="24" height="24" fill="white" transform="translate(437 120)"/>
</clipPath>
</defs>
</svg>
