<svg width="371" height="240" viewBox="0 0 371 240" fill="none" xmlns="http://www.w3.org/2000/svg">
<g clip-path="url(#clip0_427_18266)">
<g clip-path="url(#clip1_427_18266)">
<rect width="371" height="240" rx="32" fill="url(#paint0_linear_427_18266)"/>
<path d="M437.5 240C437.5 244.142 434.142 247.5 430 247.5L316 247.5C311.858 247.5 308.5 244.142 308.5 240L308.5 192C308.5 187.858 311.858 184.5 316 184.5L430 184.5C434.142 184.5 437.5 187.858 437.5 192L437.5 240Z" fill="url(#paint1_linear_427_18266)"/>
<path d="M437.5 240C437.5 244.142 434.142 247.5 430 247.5L316 247.5C311.858 247.5 308.5 244.142 308.5 240L308.5 192C308.5 187.858 311.858 184.5 316 184.5L430 184.5C434.142 184.5 437.5 187.858 437.5 192L437.5 240Z" stroke="url(#paint2_linear_427_18266)"/>
<path d="M299.5 240C299.5 244.142 296.142 247.5 292 247.5L178 247.5C173.858 247.5 170.5 244.142 170.5 240L170.5 192C170.5 187.858 173.858 184.5 178 184.5L292 184.5C296.142 184.5 299.5 187.858 299.5 192L299.5 240Z" fill="url(#paint3_linear_427_18266)"/>
<path d="M299.5 240C299.5 244.142 296.142 247.5 292 247.5L178 247.5C173.858 247.5 170.5 244.142 170.5 240L170.5 192C170.5 187.858 173.858 184.5 178 184.5L292 184.5C296.142 184.5 299.5 187.858 299.5 192L299.5 240Z" stroke="url(#paint4_linear_427_18266)"/>
<path d="M161.5 240C161.5 244.142 158.142 247.5 154 247.5L40 247.5C35.8579 247.5 32.5 244.142 32.5 240L32.5 192C32.5 187.858 35.8579 184.5 40 184.5L154 184.5C158.142 184.5 161.5 187.858 161.5 192L161.5 240Z" fill="url(#paint5_linear_427_18266)"/>
<path d="M161.5 240C161.5 244.142 158.142 247.5 154 247.5L40 247.5C35.8579 247.5 32.5 244.142 32.5 240L32.5 192C32.5 187.858 35.8579 184.5 40 184.5L154 184.5C158.142 184.5 161.5 187.858 161.5 192L161.5 240Z" stroke="url(#paint6_linear_427_18266)"/>
<path d="M23.5 240C23.5 244.142 20.1421 247.5 16 247.5L-98 247.5C-102.142 247.5 -105.5 244.142 -105.5 240L-105.5 192C-105.5 187.858 -102.142 184.5 -98 184.5L16 184.5C20.1421 184.5 23.5 187.858 23.5 192L23.5 240Z" fill="url(#paint7_linear_427_18266)"/>
<path d="M23.5 240C23.5 244.142 20.1421 247.5 16 247.5L-98 247.5C-102.142 247.5 -105.5 244.142 -105.5 240L-105.5 192C-105.5 187.858 -102.142 184.5 -98 184.5L16 184.5C20.1421 184.5 23.5 187.858 23.5 192L23.5 240Z" stroke="url(#paint8_linear_427_18266)"/>
</g>
<rect x="0.5" y="0.5" width="370" height="239" rx="31.5" stroke="url(#paint9_linear_427_18266)"/>
<g clip-path="url(#clip2_427_18266)">
<path fill-rule="evenodd" clip-rule="evenodd" d="M42.7972 94.8837C45.3172 93.8749 48.3083 94.3893 50.3519 96.4329C52.2516 98.3326 52.8299 101.051 52.0916 103.448L56.4859 107.167C58.1653 108.588 58.2715 111.141 56.7159 112.696C55.1602 114.252 52.6073 114.146 51.1862 112.466L47.468 108.072C45.0705 108.81 42.3521 108.232 40.4524 106.332C38.4086 104.289 37.8943 101.297 38.9035 98.7771C39.2614 97.8833 40.3829 97.7704 40.9668 98.4046L44.1681 101.882L45.6146 101.594L45.9038 100.146L42.4252 96.9477C41.7903 96.3639 41.9029 95.2418 42.7972 94.8837ZM44.8043 96.4181L47.5679 98.959C47.8891 99.2544 48.0331 99.6959 47.9477 100.124L47.4779 102.477C47.379 102.973 46.9914 103.36 46.4958 103.458L44.1452 103.926C43.7178 104.011 43.277 103.867 42.9818 103.546L40.4378 100.783C40.2611 102.255 40.7382 103.79 41.8666 104.918C43.3185 106.37 45.4428 106.744 47.2417 106.034C47.7256 105.842 48.3035 105.963 48.6633 106.388L52.713 111.174C53.3783 111.961 54.5734 112.01 55.3017 111.282C56.0299 110.554 55.9802 109.359 55.194 108.693L50.408 104.644C49.9827 104.284 49.862 103.706 50.0531 103.222C50.7634 101.423 50.3896 99.299 48.9377 97.8471C47.8098 96.7192 46.276 96.2419 44.8043 96.4181Z" fill="black"/>
</g>
<path d="M18.372 151V141.2H24.546V142.656H19.884V149.544H24.546V151H18.372ZM19.058 146.702V145.246H23.776V146.702H19.058ZM26.6076 151V143.65H28.0496V145.162L27.7976 145.33C27.8909 145.003 28.0729 144.705 28.3436 144.434C28.6143 144.154 28.9363 143.93 29.3096 143.762C29.6829 143.585 30.0656 143.496 30.4576 143.496C31.0176 143.496 31.4843 143.608 31.8576 143.832C32.2309 144.047 32.5109 144.378 32.6976 144.826C32.8843 145.274 32.9776 145.839 32.9776 146.52V151H31.5356V146.618C31.5356 146.198 31.4796 145.853 31.3676 145.582C31.2556 145.302 31.0829 145.101 30.8496 144.98C30.6163 144.849 30.3269 144.793 29.9816 144.812C29.7016 144.812 29.4449 144.859 29.2116 144.952C28.9783 145.036 28.7729 145.157 28.5956 145.316C28.4276 145.475 28.2923 145.661 28.1896 145.876C28.0963 146.081 28.0496 146.305 28.0496 146.548V151H27.3356C27.2143 151 27.0929 151 26.9716 151C26.8503 151 26.7289 151 26.6076 151ZM35.8438 151V141.774H37.2858V151H35.8438ZM34.3178 145.05V143.65H38.9938V145.05H34.3178ZM40.3068 151V143.65H41.7628V145.96L41.6228 145.4C41.7255 145.045 41.8982 144.723 42.1408 144.434C42.3928 144.145 42.6775 143.916 42.9948 143.748C43.3215 143.58 43.6575 143.496 44.0028 143.496C44.1615 143.496 44.3108 143.51 44.4508 143.538C44.6002 143.566 44.7168 143.599 44.8008 143.636L44.4228 145.204C44.3108 145.157 44.1848 145.12 44.0448 145.092C43.9142 145.055 43.7835 145.036 43.6528 145.036C43.4008 145.036 43.1582 145.087 42.9248 145.19C42.7008 145.283 42.5002 145.419 42.3228 145.596C42.1548 145.764 42.0195 145.965 41.9168 146.198C41.8142 146.422 41.7628 146.669 41.7628 146.94V151H40.3068ZM49.0689 151.14C48.3129 151.14 47.6409 150.981 47.0529 150.664C46.4742 150.337 46.0169 149.894 45.6809 149.334C45.3542 148.774 45.1909 148.13 45.1909 147.402C45.1909 146.823 45.2842 146.296 45.4709 145.82C45.6575 145.344 45.9142 144.933 46.2409 144.588C46.5769 144.233 46.9735 143.963 47.4309 143.776C47.8975 143.58 48.4015 143.482 48.9429 143.482C49.4189 143.482 49.8622 143.575 50.2729 143.762C50.6835 143.939 51.0382 144.187 51.3369 144.504C51.6449 144.821 51.8782 145.199 52.0369 145.638C52.2049 146.067 52.2842 146.539 52.2749 147.052L52.2609 147.668H46.2549L45.9329 146.52H51.0149L50.8049 146.758V146.422C50.7769 146.114 50.6742 145.839 50.4969 145.596C50.3195 145.353 50.0955 145.162 49.8249 145.022C49.5542 144.882 49.2602 144.812 48.9429 144.812C48.4389 144.812 48.0142 144.91 47.6689 145.106C47.3235 145.293 47.0622 145.573 46.8849 145.946C46.7075 146.31 46.6189 146.763 46.6189 147.304C46.6189 147.817 46.7262 148.265 46.9409 148.648C47.1555 149.021 47.4589 149.311 47.8509 149.516C48.2429 149.721 48.6955 149.824 49.2089 149.824C49.5729 149.824 49.9089 149.763 50.2169 149.642C50.5342 149.521 50.8749 149.301 51.2389 148.984L51.9669 150.006C51.7429 150.23 51.4675 150.426 51.1409 150.594C50.8235 150.762 50.4829 150.897 50.1189 151C49.7642 151.093 49.4142 151.14 49.0689 151.14ZM54.752 151V141.774H56.194V151H54.752ZM53.226 145.05V143.65H57.902V145.05H53.226ZM59.453 151V143.65H60.895V151H59.453ZM60.153 142.026C59.845 142.026 59.607 141.947 59.439 141.788C59.271 141.629 59.187 141.405 59.187 141.116C59.187 140.845 59.271 140.626 59.439 140.458C59.6164 140.29 59.8544 140.206 60.153 140.206C60.461 140.206 60.699 140.285 60.867 140.444C61.035 140.603 61.119 140.827 61.119 141.116C61.119 141.387 61.0304 141.606 60.853 141.774C60.685 141.942 60.4517 142.026 60.153 142.026ZM66.5415 151.14C65.7855 151.14 65.1135 150.981 64.5255 150.664C63.9468 150.337 63.4895 149.894 63.1535 149.334C62.8268 148.774 62.6635 148.13 62.6635 147.402C62.6635 146.823 62.7568 146.296 62.9435 145.82C63.1302 145.344 63.3868 144.933 63.7135 144.588C64.0495 144.233 64.4462 143.963 64.9035 143.776C65.3702 143.58 65.8742 143.482 66.4155 143.482C66.8915 143.482 67.3348 143.575 67.7455 143.762C68.1562 143.939 68.5108 144.187 68.8095 144.504C69.1175 144.821 69.3508 145.199 69.5095 145.638C69.6775 146.067 69.7568 146.539 69.7475 147.052L69.7335 147.668H63.7275L63.4055 146.52H68.4875L68.2775 146.758V146.422C68.2495 146.114 68.1468 145.839 67.9695 145.596C67.7922 145.353 67.5682 145.162 67.2975 145.022C67.0268 144.882 66.7328 144.812 66.4155 144.812C65.9115 144.812 65.4868 144.91 65.1415 145.106C64.7962 145.293 64.5348 145.573 64.3575 145.946C64.1802 146.31 64.0915 146.763 64.0915 147.304C64.0915 147.817 64.1988 148.265 64.4135 148.648C64.6282 149.021 64.9315 149.311 65.3235 149.516C65.7155 149.721 66.1682 149.824 66.6815 149.824C67.0455 149.824 67.3815 149.763 67.6895 149.642C68.0068 149.521 68.3475 149.301 68.7115 148.984L69.4395 150.006C69.2155 150.23 68.9402 150.426 68.6135 150.594C68.2962 150.762 67.9555 150.897 67.5915 151C67.2368 151.093 66.8868 151.14 66.5415 151.14ZM71.3146 151V143.65H72.7566V145.162L72.5046 145.33C72.598 145.003 72.78 144.705 73.0506 144.434C73.3213 144.154 73.6433 143.93 74.0166 143.762C74.39 143.585 74.7726 143.496 75.1646 143.496C75.7246 143.496 76.1913 143.608 76.5646 143.832C76.938 144.047 77.218 144.378 77.4046 144.826C77.5913 145.274 77.6846 145.839 77.6846 146.52V151H76.2426V146.618C76.2426 146.198 76.1866 145.853 76.0746 145.582C75.9626 145.302 75.79 145.101 75.5566 144.98C75.3233 144.849 75.034 144.793 74.6886 144.812C74.4086 144.812 74.152 144.859 73.9186 144.952C73.6853 145.036 73.48 145.157 73.3026 145.316C73.1346 145.475 72.9993 145.661 72.8966 145.876C72.8033 146.081 72.7566 146.305 72.7566 146.548V151H72.0426C71.9213 151 71.8 151 71.6786 151C71.5573 151 71.436 151 71.3146 151Z" fill="#676767"/>
<rect x="-16.5" y="72.5" width="129" height="103" rx="11.5" stroke="#C3C9CB"/>
<rect x="121.5" y="72.5" width="129" height="103" rx="11.5" fill="#00C3D7"/>
<g clip-path="url(#clip3_427_18266)">
<path fill-rule="evenodd" clip-rule="evenodd" d="M179 101C179 97.134 182.134 94 186 94C189.866 94 193 97.134 193 101V102.035C194.696 102.278 196 103.737 196 105.5V105.75C196 107.545 194.545 109 192.75 109C192.722 109 192.695 108.999 192.668 108.998C191.927 111.118 190.046 112.547 188.015 112.909C187.546 113.081 186.989 113 186.5 113C185.672 113 185 112.328 185 111.5C185 110.672 185.672 110 186.5 110H187.5C187.995 110 188.433 110.239 188.707 110.609C190.003 109.992 191 108.689 191 107V101C191 98.2386 188.761 96 186 96C183.239 96 181 98.2386 181 101V107.25C181 108.217 180.216 109 179.25 109C177.455 109 176 107.545 176 105.75V105.5C176 103.737 177.304 102.278 179 102.035V101ZM179 104.085C178.417 104.291 178 104.847 178 105.5V105.75C178 106.355 178.429 106.859 179 106.975V104.085ZM193 104.085V106.975C193.571 106.859 194 106.355 194 105.75V105.5C194 104.847 193.583 104.291 193 104.085Z" fill="black"/>
</g>
<path d="M153.35 151L157.144 141.2H158.684L162.45 151H160.84L158.6 145.092C158.572 145.027 158.516 144.868 158.432 144.616C158.357 144.364 158.269 144.084 158.166 143.776C158.063 143.468 157.97 143.188 157.886 142.936C157.802 142.675 157.746 142.507 157.718 142.432L158.04 142.418C157.984 142.577 157.914 142.777 157.83 143.02C157.755 143.263 157.671 143.519 157.578 143.79C157.494 144.061 157.41 144.317 157.326 144.56C157.242 144.793 157.172 144.989 157.116 145.148L154.89 151H153.35ZM155.03 148.564L155.59 147.108H160.042L160.686 148.564H155.03ZM166.261 151.14C165.645 151.14 165.089 151.033 164.595 150.818C164.1 150.603 163.689 150.286 163.363 149.866L164.343 149.026C164.623 149.353 164.926 149.591 165.253 149.74C165.589 149.88 165.967 149.95 166.387 149.95C166.555 149.95 166.709 149.931 166.849 149.894C166.998 149.847 167.124 149.782 167.227 149.698C167.339 149.614 167.423 149.516 167.479 149.404C167.535 149.283 167.563 149.152 167.563 149.012C167.563 148.769 167.474 148.573 167.297 148.424C167.203 148.359 167.054 148.289 166.849 148.214C166.653 148.13 166.396 148.046 166.079 147.962C165.537 147.822 165.094 147.663 164.749 147.486C164.403 147.309 164.137 147.108 163.951 146.884C163.811 146.707 163.708 146.515 163.643 146.31C163.577 146.095 163.545 145.862 163.545 145.61C163.545 145.302 163.61 145.022 163.741 144.77C163.881 144.509 164.067 144.285 164.301 144.098C164.543 143.902 164.823 143.753 165.141 143.65C165.467 143.547 165.813 143.496 166.177 143.496C166.522 143.496 166.863 143.543 167.199 143.636C167.544 143.729 167.861 143.865 168.151 144.042C168.44 144.219 168.683 144.429 168.879 144.672L168.053 145.582C167.875 145.405 167.679 145.251 167.465 145.12C167.259 144.98 167.049 144.873 166.835 144.798C166.62 144.723 166.424 144.686 166.247 144.686C166.051 144.686 165.873 144.705 165.715 144.742C165.556 144.779 165.421 144.835 165.309 144.91C165.206 144.985 165.127 145.078 165.071 145.19C165.015 145.302 164.987 145.428 164.987 145.568C164.996 145.689 165.024 145.806 165.071 145.918C165.127 146.021 165.201 146.109 165.295 146.184C165.397 146.259 165.551 146.338 165.757 146.422C165.962 146.506 166.223 146.585 166.541 146.66C167.007 146.781 167.39 146.917 167.689 147.066C167.997 147.206 168.239 147.369 168.417 147.556C168.603 147.733 168.734 147.939 168.809 148.172C168.883 148.405 168.921 148.667 168.921 148.956C168.921 149.376 168.799 149.754 168.557 150.09C168.323 150.417 168.006 150.673 167.605 150.86C167.203 151.047 166.755 151.14 166.261 151.14ZM172.96 151.14C172.344 151.14 171.789 151.033 171.294 150.818C170.799 150.603 170.389 150.286 170.062 149.866L171.042 149.026C171.322 149.353 171.625 149.591 171.952 149.74C172.288 149.88 172.666 149.95 173.086 149.95C173.254 149.95 173.408 149.931 173.548 149.894C173.697 149.847 173.823 149.782 173.926 149.698C174.038 149.614 174.122 149.516 174.178 149.404C174.234 149.283 174.262 149.152 174.262 149.012C174.262 148.769 174.173 148.573 173.996 148.424C173.903 148.359 173.753 148.289 173.548 148.214C173.352 148.13 173.095 148.046 172.778 147.962C172.237 147.822 171.793 147.663 171.448 147.486C171.103 147.309 170.837 147.108 170.65 146.884C170.51 146.707 170.407 146.515 170.342 146.31C170.277 146.095 170.244 145.862 170.244 145.61C170.244 145.302 170.309 145.022 170.44 144.77C170.58 144.509 170.767 144.285 171 144.098C171.243 143.902 171.523 143.753 171.84 143.65C172.167 143.547 172.512 143.496 172.876 143.496C173.221 143.496 173.562 143.543 173.898 143.636C174.243 143.729 174.561 143.865 174.85 144.042C175.139 144.219 175.382 144.429 175.578 144.672L174.752 145.582C174.575 145.405 174.379 145.251 174.164 145.12C173.959 144.98 173.749 144.873 173.534 144.798C173.319 144.723 173.123 144.686 172.946 144.686C172.75 144.686 172.573 144.705 172.414 144.742C172.255 144.779 172.12 144.835 172.008 144.91C171.905 144.985 171.826 145.078 171.77 145.19C171.714 145.302 171.686 145.428 171.686 145.568C171.695 145.689 171.723 145.806 171.77 145.918C171.826 146.021 171.901 146.109 171.994 146.184C172.097 146.259 172.251 146.338 172.456 146.422C172.661 146.506 172.923 146.585 173.24 146.66C173.707 146.781 174.089 146.917 174.388 147.066C174.696 147.206 174.939 147.369 175.116 147.556C175.303 147.733 175.433 147.939 175.508 148.172C175.583 148.405 175.62 148.667 175.62 148.956C175.62 149.376 175.499 149.754 175.256 150.09C175.023 150.417 174.705 150.673 174.304 150.86C173.903 151.047 173.455 151.14 172.96 151.14ZM177.447 151V143.65H178.889V151H177.447ZM178.147 142.026C177.839 142.026 177.601 141.947 177.433 141.788C177.265 141.629 177.181 141.405 177.181 141.116C177.181 140.845 177.265 140.626 177.433 140.458C177.611 140.29 177.849 140.206 178.147 140.206C178.455 140.206 178.693 140.285 178.861 140.444C179.029 140.603 179.113 140.827 179.113 141.116C179.113 141.387 179.025 141.606 178.847 141.774C178.679 141.942 178.446 142.026 178.147 142.026ZM182.016 151V141.774H183.458V151H182.016ZM180.49 145.05V143.65H185.166V145.05H180.49ZM189.238 151.14C188.632 151.14 188.076 150.972 187.572 150.636C187.078 150.3 186.681 149.843 186.382 149.264C186.084 148.685 185.934 148.032 185.934 147.304C185.934 146.567 186.084 145.913 186.382 145.344C186.69 144.765 187.101 144.313 187.614 143.986C188.137 143.659 188.72 143.496 189.364 143.496C189.747 143.496 190.097 143.552 190.414 143.664C190.732 143.776 191.007 143.935 191.24 144.14C191.483 144.336 191.679 144.565 191.828 144.826C191.987 145.087 192.085 145.367 192.122 145.666L191.8 145.554V143.65H193.256V151H191.8V149.25L192.136 149.152C192.08 149.404 191.964 149.651 191.786 149.894C191.618 150.127 191.399 150.337 191.128 150.524C190.867 150.711 190.573 150.86 190.246 150.972C189.929 151.084 189.593 151.14 189.238 151.14ZM189.616 149.81C190.055 149.81 190.442 149.703 190.778 149.488C191.114 149.273 191.376 148.979 191.562 148.606C191.758 148.223 191.856 147.789 191.856 147.304C191.856 146.828 191.758 146.403 191.562 146.03C191.376 145.657 191.114 145.363 190.778 145.148C190.442 144.933 190.055 144.826 189.616 144.826C189.187 144.826 188.804 144.933 188.468 145.148C188.142 145.363 187.88 145.657 187.684 146.03C187.498 146.403 187.404 146.828 187.404 147.304C187.404 147.789 187.498 148.223 187.684 148.606C187.88 148.979 188.142 149.273 188.468 149.488C188.804 149.703 189.187 149.81 189.616 149.81ZM195.27 151V143.65H196.712V145.162L196.46 145.33C196.553 145.003 196.735 144.705 197.006 144.434C197.276 144.154 197.598 143.93 197.972 143.762C198.345 143.585 198.728 143.496 199.12 143.496C199.68 143.496 200.146 143.608 200.52 143.832C200.893 144.047 201.173 144.378 201.36 144.826C201.546 145.274 201.64 145.839 201.64 146.52V151H200.198V146.618C200.198 146.198 200.142 145.853 200.03 145.582C199.918 145.302 199.745 145.101 199.512 144.98C199.278 144.849 198.989 144.793 198.644 144.812C198.364 144.812 198.107 144.859 197.874 144.952C197.64 145.036 197.435 145.157 197.258 145.316C197.09 145.475 196.954 145.661 196.852 145.876C196.758 146.081 196.712 146.305 196.712 146.548V151H195.998C195.876 151 195.755 151 195.634 151C195.512 151 195.391 151 195.27 151ZM206.718 151.14C206.037 151.14 205.425 150.972 204.884 150.636C204.352 150.3 203.927 149.843 203.61 149.264C203.302 148.685 203.148 148.037 203.148 147.318C203.148 146.599 203.302 145.951 203.61 145.372C203.927 144.793 204.352 144.336 204.884 144C205.425 143.664 206.037 143.496 206.718 143.496C207.371 143.496 207.964 143.631 208.496 143.902C209.037 144.163 209.448 144.523 209.728 144.98L208.93 145.96C208.781 145.745 208.589 145.549 208.356 145.372C208.123 145.195 207.875 145.055 207.614 144.952C207.353 144.849 207.101 144.798 206.858 144.798C206.41 144.798 206.009 144.91 205.654 145.134C205.309 145.349 205.033 145.647 204.828 146.03C204.623 146.413 204.52 146.842 204.52 147.318C204.52 147.794 204.627 148.223 204.842 148.606C205.057 148.979 205.341 149.278 205.696 149.502C206.051 149.726 206.443 149.838 206.872 149.838C207.124 149.838 207.367 149.796 207.6 149.712C207.843 149.628 208.076 149.502 208.3 149.334C208.524 149.166 208.734 148.961 208.93 148.718L209.728 149.698C209.429 150.118 209 150.463 208.44 150.734C207.889 151.005 207.315 151.14 206.718 151.14ZM214.518 151.14C213.762 151.14 213.09 150.981 212.502 150.664C211.923 150.337 211.466 149.894 211.13 149.334C210.803 148.774 210.64 148.13 210.64 147.402C210.64 146.823 210.733 146.296 210.92 145.82C211.107 145.344 211.363 144.933 211.69 144.588C212.026 144.233 212.423 143.963 212.88 143.776C213.347 143.58 213.851 143.482 214.392 143.482C214.868 143.482 215.311 143.575 215.722 143.762C216.133 143.939 216.487 144.187 216.786 144.504C217.094 144.821 217.327 145.199 217.486 145.638C217.654 146.067 217.733 146.539 217.724 147.052L217.71 147.668H211.704L211.382 146.52H216.464L216.254 146.758V146.422C216.226 146.114 216.123 145.839 215.946 145.596C215.769 145.353 215.545 145.162 215.274 145.022C215.003 144.882 214.709 144.812 214.392 144.812C213.888 144.812 213.463 144.91 213.118 145.106C212.773 145.293 212.511 145.573 212.334 145.946C212.157 146.31 212.068 146.763 212.068 147.304C212.068 147.817 212.175 148.265 212.39 148.648C212.605 149.021 212.908 149.311 213.3 149.516C213.692 149.721 214.145 149.824 214.658 149.824C215.022 149.824 215.358 149.763 215.666 149.642C215.983 149.521 216.324 149.301 216.688 148.984L217.416 150.006C217.192 150.23 216.917 150.426 216.59 150.594C216.273 150.762 215.932 150.897 215.568 151C215.213 151.093 214.863 151.14 214.518 151.14Z" fill="black"/>
<rect x="121.5" y="72.5" width="129" height="103" rx="11.5" stroke="#00C3D7"/>
<g clip-path="url(#clip4_427_18266)">
<path fill-rule="evenodd" clip-rule="evenodd" d="M327.743 94.0298C327.831 94.0519 327.914 94.0852 327.99 94.1277C329.437 94.5084 330.603 95.6985 331.41 97.1503C332.412 98.9537 333 101.377 333 104C333 106.622 332.412 109.046 331.41 110.85C330.603 112.301 329.437 113.491 327.99 113.872C327.914 113.915 327.831 113.948 327.743 113.97C324.074 114.887 321.905 114.616 320.262 114.009L319.918 113.874C319.805 113.828 319.695 113.78 319.587 113.731C318.191 113.098 317.05 111.757 316.266 110.093C315.473 108.411 315 106.309 315 104C315 101.691 315.473 99.5892 316.266 97.9072C317.05 96.2429 318.191 94.902 319.587 94.2693C319.695 94.2203 319.805 94.1724 319.918 94.1259L320.262 93.9909C321.905 93.3837 324.074 93.1128 327.743 94.0298ZM320.413 96.0908C319.596 96.4613 318.737 97.3534 318.075 98.7597C317.42 100.148 317 101.955 317 104C317 106.045 317.42 107.852 318.075 109.24C318.737 110.647 319.596 111.539 320.413 111.909C321.223 112.277 322.235 112.612 323.849 112.559C323.365 112.07 322.943 111.485 322.59 110.85C321.588 109.046 321 106.622 321 104C321 101.377 321.588 98.9537 322.59 97.1503C322.943 96.5151 323.365 95.9299 323.849 95.4408C322.235 95.3885 321.223 95.7234 320.413 96.0908ZM327 95.9999C326.147 95.9999 325.165 96.6338 324.339 98.1216C323.531 99.5755 323 101.652 323 104C323 106.348 323.531 108.424 324.339 109.878C325.165 111.366 326.147 112 327 112C327.853 112 328.835 111.366 329.661 109.878C330.469 108.424 331 106.348 331 104C331 101.652 330.469 99.5755 329.661 98.1216C328.835 96.6338 327.853 95.9999 327 95.9999ZM327 99.9999C327.997 99.9999 328.63 100.782 328.955 101.431C329.31 102.14 329.5 103.05 329.5 104C329.5 104.95 329.31 105.859 328.955 106.568C328.63 107.218 327.997 108 327 108C326.003 108 325.37 107.218 325.045 106.568C324.69 105.859 324.5 104.95 324.5 104C324.5 103.05 324.69 102.14 325.045 101.431C325.37 100.782 326.003 99.9999 327 99.9999ZM327 102.06C326.958 102.11 326.9 102.193 326.834 102.326C326.645 102.703 326.5 103.293 326.5 104C326.5 104.707 326.645 105.297 326.834 105.674C326.9 105.807 326.958 105.89 327 105.939C327.042 105.89 327.1 105.807 327.166 105.674C327.355 105.297 327.5 104.707 327.5 104C327.5 103.293 327.355 102.703 327.166 102.326C327.1 102.193 327.042 102.11 327 102.06Z" fill="black"/>
</g>
<path d="M276.372 151V141.2H280.362C280.894 141.2 281.375 141.335 281.804 141.606C282.243 141.867 282.593 142.227 282.854 142.684C283.115 143.141 283.246 143.65 283.246 144.21C283.246 144.77 283.115 145.279 282.854 145.736C282.593 146.193 282.243 146.562 281.804 146.842C281.375 147.113 280.894 147.248 280.362 147.248H277.884V151H276.372ZM277.884 145.792H280.334C280.586 145.792 280.815 145.722 281.02 145.582C281.225 145.433 281.389 145.241 281.51 145.008C281.641 144.765 281.706 144.499 281.706 144.21C281.706 143.921 281.641 143.659 281.51 143.426C281.389 143.193 281.225 143.006 281.02 142.866C280.815 142.726 280.586 142.656 280.334 142.656H277.884V145.792ZM284.881 151V143.65H286.323V145.162L286.071 145.33C286.164 145.003 286.346 144.705 286.617 144.434C286.888 144.154 287.21 143.93 287.583 143.762C287.956 143.585 288.339 143.496 288.731 143.496C289.291 143.496 289.758 143.608 290.131 143.832C290.504 144.047 290.784 144.378 290.971 144.826C291.158 145.274 291.251 145.839 291.251 146.52V151H289.809V146.618C289.809 146.198 289.753 145.853 289.641 145.582C289.529 145.302 289.356 145.101 289.123 144.98C288.89 144.849 288.6 144.793 288.255 144.812C287.975 144.812 287.718 144.859 287.485 144.952C287.252 145.036 287.046 145.157 286.869 145.316C286.701 145.475 286.566 145.661 286.463 145.876C286.37 146.081 286.323 146.305 286.323 146.548V151H285.609C285.488 151 285.366 151 285.245 151C285.124 151 285.002 151 284.881 151ZM296.637 151.14C295.881 151.14 295.209 150.981 294.621 150.664C294.043 150.337 293.585 149.894 293.249 149.334C292.923 148.774 292.759 148.13 292.759 147.402C292.759 146.823 292.853 146.296 293.039 145.82C293.226 145.344 293.483 144.933 293.809 144.588C294.145 144.233 294.542 143.963 294.999 143.776C295.466 143.58 295.97 143.482 296.511 143.482C296.987 143.482 297.431 143.575 297.841 143.762C298.252 143.939 298.607 144.187 298.905 144.504C299.213 144.821 299.447 145.199 299.605 145.638C299.773 146.067 299.853 146.539 299.843 147.052L299.829 147.668H293.823L293.501 146.52H298.583L298.373 146.758V146.422C298.345 146.114 298.243 145.839 298.065 145.596C297.888 145.353 297.664 145.162 297.393 145.022C297.123 144.882 296.829 144.812 296.511 144.812C296.007 144.812 295.583 144.91 295.237 145.106C294.892 145.293 294.631 145.573 294.453 145.946C294.276 146.31 294.187 146.763 294.187 147.304C294.187 147.817 294.295 148.265 294.509 148.648C294.724 149.021 295.027 149.311 295.419 149.516C295.811 149.721 296.264 149.824 296.777 149.824C297.141 149.824 297.477 149.763 297.785 149.642C298.103 149.521 298.443 149.301 298.807 148.984L299.535 150.006C299.311 150.23 299.036 150.426 298.709 150.594C298.392 150.762 298.051 150.897 297.687 151C297.333 151.093 296.983 151.14 296.637 151.14ZM303.986 151.14C303.464 151.14 303.006 151.019 302.614 150.776C302.232 150.533 301.933 150.193 301.718 149.754C301.513 149.315 301.41 148.793 301.41 148.186V143.65H302.852V147.794C302.852 148.223 302.918 148.597 303.048 148.914C303.188 149.222 303.384 149.46 303.636 149.628C303.898 149.796 304.21 149.88 304.574 149.88C304.845 149.88 305.092 149.838 305.316 149.754C305.54 149.661 305.732 149.535 305.89 149.376C306.058 149.217 306.189 149.026 306.282 148.802C306.376 148.578 306.422 148.335 306.422 148.074V143.65H307.864V151H306.422V149.46L306.674 149.292C306.562 149.637 306.371 149.95 306.1 150.23C305.839 150.51 305.526 150.734 305.162 150.902C304.798 151.061 304.406 151.14 303.986 151.14ZM309.859 151V143.65H311.315V145.218L311.049 145.386C311.124 145.143 311.24 144.91 311.399 144.686C311.567 144.462 311.768 144.266 312.001 144.098C312.244 143.921 312.5 143.781 312.771 143.678C313.051 143.575 313.336 143.524 313.625 143.524C314.045 143.524 314.414 143.594 314.731 143.734C315.048 143.874 315.31 144.084 315.515 144.364C315.72 144.644 315.87 144.994 315.963 145.414L315.739 145.358L315.837 145.12C315.94 144.905 316.08 144.705 316.257 144.518C316.444 144.322 316.654 144.149 316.887 144C317.12 143.851 317.368 143.734 317.629 143.65C317.89 143.566 318.147 143.524 318.399 143.524C318.95 143.524 319.402 143.636 319.757 143.86C320.121 144.084 320.392 144.425 320.569 144.882C320.756 145.339 320.849 145.909 320.849 146.59V151H319.393V146.674C319.393 146.254 319.337 145.913 319.225 145.652C319.122 145.381 318.964 145.181 318.749 145.05C318.534 144.919 318.259 144.854 317.923 144.854C317.662 144.854 317.414 144.901 317.181 144.994C316.957 145.078 316.761 145.199 316.593 145.358C316.425 145.517 316.294 145.703 316.201 145.918C316.108 146.123 316.061 146.352 316.061 146.604V151H314.605V146.646C314.605 146.263 314.549 145.941 314.437 145.68C314.325 145.409 314.162 145.204 313.947 145.064C313.732 144.924 313.471 144.854 313.163 144.854C312.902 144.854 312.659 144.901 312.435 144.994C312.211 145.078 312.015 145.199 311.847 145.358C311.679 145.507 311.548 145.689 311.455 145.904C311.362 146.109 311.315 146.333 311.315 146.576V151H309.859ZM325.607 151.14C325.001 151.14 324.445 150.972 323.941 150.636C323.447 150.3 323.05 149.843 322.751 149.264C322.453 148.685 322.303 148.032 322.303 147.304C322.303 146.567 322.453 145.913 322.751 145.344C323.059 144.765 323.47 144.313 323.983 143.986C324.506 143.659 325.089 143.496 325.733 143.496C326.116 143.496 326.466 143.552 326.783 143.664C327.101 143.776 327.376 143.935 327.609 144.14C327.852 144.336 328.048 144.565 328.197 144.826C328.356 145.087 328.454 145.367 328.491 145.666L328.169 145.554V143.65H329.625V151H328.169V149.25L328.505 149.152C328.449 149.404 328.333 149.651 328.155 149.894C327.987 150.127 327.768 150.337 327.497 150.524C327.236 150.711 326.942 150.86 326.615 150.972C326.298 151.084 325.962 151.14 325.607 151.14ZM325.985 149.81C326.424 149.81 326.811 149.703 327.147 149.488C327.483 149.273 327.745 148.979 327.931 148.606C328.127 148.223 328.225 147.789 328.225 147.304C328.225 146.828 328.127 146.403 327.931 146.03C327.745 145.657 327.483 145.363 327.147 145.148C326.811 144.933 326.424 144.826 325.985 144.826C325.556 144.826 325.173 144.933 324.837 145.148C324.511 145.363 324.249 145.657 324.053 146.03C323.867 146.403 323.773 146.828 323.773 147.304C323.773 147.789 323.867 148.223 324.053 148.606C324.249 148.979 324.511 149.273 324.837 149.488C325.173 149.703 325.556 149.81 325.985 149.81ZM332.549 151V141.774H333.991V151H332.549ZM331.023 145.05V143.65H335.699V145.05H331.023ZM337.25 151V143.65H338.692V151H337.25ZM337.95 142.026C337.642 142.026 337.404 141.947 337.236 141.788C337.068 141.629 336.984 141.405 336.984 141.116C336.984 140.845 337.068 140.626 337.236 140.458C337.413 140.29 337.651 140.206 337.95 140.206C338.258 140.206 338.496 140.285 338.664 140.444C338.832 140.603 338.916 140.827 338.916 141.116C338.916 141.387 338.827 141.606 338.65 141.774C338.482 141.942 338.249 142.026 337.95 142.026ZM346.27 154.08V149.25H346.55C346.55 149.474 346.476 149.698 346.326 149.922C346.177 150.137 345.976 150.337 345.724 150.524C345.472 150.711 345.192 150.86 344.884 150.972C344.576 151.084 344.259 151.14 343.932 151.14C343.27 151.14 342.677 150.977 342.154 150.65C341.632 150.314 341.216 149.861 340.908 149.292C340.61 148.713 340.46 148.055 340.46 147.318C340.46 146.581 340.61 145.927 340.908 145.358C341.207 144.779 341.613 144.327 342.126 144C342.649 143.664 343.237 143.496 343.89 143.496C344.254 143.496 344.6 143.557 344.926 143.678C345.262 143.799 345.561 143.958 345.822 144.154C346.093 144.35 346.303 144.569 346.452 144.812C346.611 145.045 346.69 145.283 346.69 145.526L346.27 145.554V143.636H347.712V154.08H346.27ZM344.086 149.81C344.525 149.81 344.912 149.703 345.248 149.488C345.584 149.273 345.846 148.979 346.032 148.606C346.228 148.233 346.326 147.803 346.326 147.318C346.326 146.833 346.228 146.403 346.032 146.03C345.846 145.647 345.584 145.349 345.248 145.134C344.912 144.919 344.525 144.812 344.086 144.812C343.648 144.812 343.26 144.924 342.924 145.148C342.588 145.363 342.322 145.661 342.126 146.044C341.94 146.417 341.846 146.842 341.846 147.318C341.846 147.794 341.94 148.223 342.126 148.606C342.322 148.979 342.588 149.273 342.924 149.488C343.26 149.703 343.648 149.81 344.086 149.81ZM352.303 151.14C351.78 151.14 351.323 151.019 350.931 150.776C350.548 150.533 350.249 150.193 350.035 149.754C349.829 149.315 349.727 148.793 349.727 148.186V143.65H351.169V147.794C351.169 148.223 351.234 148.597 351.365 148.914C351.505 149.222 351.701 149.46 351.953 149.628C352.214 149.796 352.527 149.88 352.891 149.88C353.161 149.88 353.409 149.838 353.633 149.754C353.857 149.661 354.048 149.535 354.207 149.376C354.375 149.217 354.505 149.026 354.599 148.802C354.692 148.578 354.739 148.335 354.739 148.074V143.65H356.181V151H354.739V149.46L354.991 149.292C354.879 149.637 354.687 149.95 354.417 150.23C354.155 150.51 353.843 150.734 353.479 150.902C353.115 151.061 352.723 151.14 352.303 151.14ZM361.633 151.14C360.877 151.14 360.205 150.981 359.617 150.664C359.039 150.337 358.581 149.894 358.245 149.334C357.919 148.774 357.755 148.13 357.755 147.402C357.755 146.823 357.849 146.296 358.035 145.82C358.222 145.344 358.479 144.933 358.805 144.588C359.141 144.233 359.538 143.963 359.995 143.776C360.462 143.58 360.966 143.482 361.507 143.482C361.983 143.482 362.427 143.575 362.837 143.762C363.248 143.939 363.603 144.187 363.901 144.504C364.209 144.821 364.443 145.199 364.601 145.638C364.769 146.067 364.849 146.539 364.839 147.052L364.825 147.668H358.819L358.497 146.52H363.579L363.369 146.758V146.422C363.341 146.114 363.239 145.839 363.061 145.596C362.884 145.353 362.66 145.162 362.389 145.022C362.119 144.882 361.825 144.812 361.507 144.812C361.003 144.812 360.579 144.91 360.233 145.106C359.888 145.293 359.627 145.573 359.449 145.946C359.272 146.31 359.183 146.763 359.183 147.304C359.183 147.817 359.291 148.265 359.505 148.648C359.72 149.021 360.023 149.311 360.415 149.516C360.807 149.721 361.26 149.824 361.773 149.824C362.137 149.824 362.473 149.763 362.781 149.642C363.099 149.521 363.439 149.301 363.803 148.984L364.531 150.006C364.307 150.23 364.032 150.426 363.705 150.594C363.388 150.762 363.047 150.897 362.683 151C362.329 151.093 361.979 151.14 361.633 151.14ZM368.856 151.14C368.24 151.14 367.685 151.033 367.19 150.818C366.696 150.603 366.285 150.286 365.958 149.866L366.938 149.026C367.218 149.353 367.522 149.591 367.848 149.74C368.184 149.88 368.562 149.95 368.982 149.95C369.15 149.95 369.304 149.931 369.444 149.894C369.594 149.847 369.72 149.782 369.822 149.698C369.934 149.614 370.018 149.516 370.074 149.404C370.13 149.283 370.158 149.152 370.158 149.012C370.158 148.769 370.07 148.573 369.892 148.424C369.799 148.359 369.65 148.289 369.444 148.214C369.248 148.13 368.992 148.046 368.674 147.962C368.133 147.822 367.69 147.663 367.344 147.486C366.999 147.309 366.733 147.108 366.546 146.884C366.406 146.707 366.304 146.515 366.238 146.31C366.173 146.095 366.14 145.862 366.14 145.61C366.14 145.302 366.206 145.022 366.336 144.77C366.476 144.509 366.663 144.285 366.896 144.098C367.139 143.902 367.419 143.753 367.736 143.65C368.063 143.547 368.408 143.496 368.772 143.496C369.118 143.496 369.458 143.543 369.794 143.636C370.14 143.729 370.457 143.865 370.746 144.042C371.036 144.219 371.278 144.429 371.474 144.672L370.648 145.582C370.471 145.405 370.275 145.251 370.06 145.12C369.855 144.98 369.645 144.873 369.43 144.798C369.216 144.723 369.02 144.686 368.842 144.686C368.646 144.686 368.469 144.705 368.31 144.742C368.152 144.779 368.016 144.835 367.904 144.91C367.802 144.985 367.722 145.078 367.666 145.19C367.61 145.302 367.582 145.428 367.582 145.568C367.592 145.689 367.62 145.806 367.666 145.918C367.722 146.021 367.797 146.109 367.89 146.184C367.993 146.259 368.147 146.338 368.352 146.422C368.558 146.506 368.819 146.585 369.136 146.66C369.603 146.781 369.986 146.917 370.284 147.066C370.592 147.206 370.835 147.369 371.012 147.556C371.199 147.733 371.33 147.939 371.404 148.172C371.479 148.405 371.516 148.667 371.516 148.956C371.516 149.376 371.395 149.754 371.152 150.09C370.919 150.417 370.602 150.673 370.2 150.86C369.799 151.047 369.351 151.14 368.856 151.14Z" fill="#676767"/>
<rect x="259.5" y="72.5" width="129" height="103" rx="11.5" stroke="#C3C9CB"/>
<rect width="24" height="24" transform="translate(212 100)" fill="white" style="mix-blend-mode:multiply"/>
<g filter="url(#filter0_dd_427_18266)">
<path fill-rule="evenodd" clip-rule="evenodd" d="M224.017 113.2H227.2L220 106V115.9L222.252 113.648L224.318 118.516L225.975 117.813L224.017 113.2Z" fill="black"/>
<path d="M224.772 113.7H227.2H228.407L227.554 112.846L220.354 105.646L219.5 104.793V106V115.9V117.107L220.354 116.254L222.081 114.526L223.858 118.712L224.053 119.172L224.514 118.977L226.171 118.273L226.631 118.078L226.435 117.618L224.772 113.7Z" stroke="white"/>
</g>
<g clip-path="url(#clip5_427_18266)">
<path fill-rule="evenodd" clip-rule="evenodd" d="M304.527 36.4718C304.267 36.2115 304.267 35.7893 304.527 35.529L308.299 31.7578C308.559 31.4974 308.981 31.4974 309.241 31.7578C309.502 32.0181 309.502 32.4402 309.241 32.7006L305.941 36.0004L309.241 39.3002C309.502 39.5606 309.502 39.9827 309.241 40.2431C308.981 40.5034 308.559 40.5034 308.299 40.2431L304.527 36.4718Z" fill="black"/>
</g>
<rect x="295.5" y="24.5" width="23" height="23" rx="11.5" stroke="#D2D8DA"/>
<g clip-path="url(#clip6_427_18266)">
<path fill-rule="evenodd" clip-rule="evenodd" d="M337.472 35.529C337.732 35.7893 337.732 36.2115 337.472 36.4718L333.701 40.2431C333.44 40.5034 333.018 40.5034 332.758 40.2431C332.497 39.9827 332.497 39.5606 332.758 39.3002L336.058 36.0004L332.758 32.7006C332.497 32.4402 332.497 32.0181 332.758 31.7578C333.018 31.4974 333.44 31.4974 333.701 31.7578L337.472 35.529Z" fill="black"/>
</g>
<rect x="323.5" y="24.5" width="23" height="23" rx="11.5" stroke="#D2D8DA"/>
</g>
<defs>
<filter id="filter0_dd_427_18266" x="217.5" y="103.086" width="13.6133" height="19.2422" filterUnits="userSpaceOnUse" color-interpolation-filters="sRGB">
<feFlood flood-opacity="0" result="BackgroundImageFix"/>
<feColorMatrix in="SourceAlpha" type="matrix" values="0 0 0 0 0 0 0 0 0 0 0 0 0 0 0 0 0 0 127 0" result="hardAlpha"/>
<feOffset dy="0.75"/>
<feGaussianBlur stdDeviation="0.5"/>
<feColorMatrix type="matrix" values="0 0 0 0 0 0 0 0 0 0 0 0 0 0 0 0 0 0 0.2 0"/>
<feBlend mode="normal" in2="BackgroundImageFix" result="effect1_dropShadow_427_18266"/>
<feColorMatrix in="SourceAlpha" type="matrix" values="0 0 0 0 0 0 0 0 0 0 0 0 0 0 0 0 0 0 127 0" result="hardAlpha"/>
<feOffset dy="1"/>
<feGaussianBlur stdDeviation="0.75"/>
<feColorMatrix type="matrix" values="0 0 0 0 0 0 0 0 0 0 0 0 0 0 0 0 0 0 0.25 0"/>
<feBlend mode="normal" in2="effect1_dropShadow_427_18266" result="effect2_dropShadow_427_18266"/>
<feBlend mode="normal" in="SourceGraphic" in2="effect2_dropShadow_427_18266" result="shape"/>
</filter>
<linearGradient id="paint0_linear_427_18266" x1="185.5" y1="0" x2="185.5" y2="240" gradientUnits="userSpaceOnUse">
<stop stop-color="white" stop-opacity="0.71"/>
<stop offset="1" stop-color="#EDF1F2"/>
</linearGradient>
<linearGradient id="paint1_linear_427_18266" x1="373" y1="248" x2="373" y2="184" gradientUnits="userSpaceOnUse">
<stop offset="0.203125" stop-color="#EEF2F3"/>
<stop offset="1" stop-color="#ECF0F1"/>
</linearGradient>
<linearGradient id="paint2_linear_427_18266" x1="373" y1="248" x2="363.787" y2="185.355" gradientUnits="userSpaceOnUse">
<stop stop-color="#F1F5F6" stop-opacity="0.21"/>
<stop offset="1" stop-color="#DAE2E4"/>
</linearGradient>
<linearGradient id="paint3_linear_427_18266" x1="235" y1="248" x2="235" y2="184" gradientUnits="userSpaceOnUse">
<stop offset="0.203125" stop-color="#EEF2F3"/>
<stop offset="1" stop-color="#ECF0F1"/>
</linearGradient>
<linearGradient id="paint4_linear_427_18266" x1="235" y1="248" x2="225.683" y2="185.387" gradientUnits="userSpaceOnUse">
<stop stop-color="#F1F5F6" stop-opacity="0.21"/>
<stop offset="1" stop-color="#DAE2E4"/>
</linearGradient>
<linearGradient id="paint5_linear_427_18266" x1="97" y1="248" x2="97" y2="184" gradientUnits="userSpaceOnUse">
<stop offset="0.203125" stop-color="#EEF2F3"/>
<stop offset="1" stop-color="#ECF0F1"/>
</linearGradient>
<linearGradient id="paint6_linear_427_18266" x1="97" y1="248" x2="87.709" y2="185.378" gradientUnits="userSpaceOnUse">
<stop stop-color="#F1F5F6" stop-opacity="0.21"/>
<stop offset="1" stop-color="#DAE2E4"/>
</linearGradient>
<linearGradient id="paint7_linear_427_18266" x1="-41" y1="248" x2="-41" y2="184" gradientUnits="userSpaceOnUse">
<stop offset="0.203125" stop-color="#EEF2F3"/>
<stop offset="1" stop-color="#ECF0F1"/>
</linearGradient>
<linearGradient id="paint8_linear_427_18266" x1="-41" y1="248" x2="-50.2779" y2="185.375" gradientUnits="userSpaceOnUse">
<stop stop-color="#F1F5F6" stop-opacity="0.21"/>
<stop offset="1" stop-color="#DAE2E4"/>
</linearGradient>
<linearGradient id="paint9_linear_427_18266" x1="185.5" y1="0" x2="185.5" y2="243.2" gradientUnits="userSpaceOnUse">
<stop offset="0.0104167" stop-color="#DBE3E5"/>
<stop offset="0.2345" stop-color="#E1E1E1" stop-opacity="0.29"/>
<stop offset="1" stop-color="#DAE2E4"/>
</linearGradient>
<clipPath id="clip0_427_18266">
<rect width="371" height="240" fill="white"/>
</clipPath>
<clipPath id="clip1_427_18266">
<rect width="371" height="240" rx="32" fill="white"/>
</clipPath>
<clipPath id="clip2_427_18266">
<rect width="24" height="24" fill="white" transform="translate(36 92)"/>
</clipPath>
<clipPath id="clip3_427_18266">
<rect width="24" height="24" fill="white" transform="translate(174 92)"/>
</clipPath>
<clipPath id="clip4_427_18266">
<rect width="24" height="24" fill="white" transform="translate(312 92)"/>
</clipPath>
<clipPath id="clip5_427_18266">
<rect width="16" height="16" fill="white" transform="translate(299 28)"/>
</clipPath>
<clipPath id="clip6_427_18266">
<rect width="16" height="16" fill="white" transform="translate(327 28)"/>
</clipPath>
</defs>
</svg>
