<svg width="300" height="119" viewBox="0 0 300 119" fill="none" xmlns="http://www.w3.org/2000/svg">
<rect width="299" height="96" transform="translate(0.664062)" fill="#5FBE6E"/>
<path d="M301 96L2 96" stroke="#3D3D3B" stroke-width="0.57" stroke-miterlimit="10" stroke-linecap="round"/>
<path d="M160.522 57.6496C160.522 57.6496 168.887 64.7414 173.707 64.7414C178.527 64.7414 184.038 62.5308 184.038 62.5308V54.979C184.038 54.979 175.657 58.4211 173.354 58.4211C171.052 58.4211 163.269 51.9079 163.269 51.9079C163.269 51.9079 162.348 48.9258 161.673 48.9258C161.258 48.9258 160.783 49.8456 160.476 50.5726C158.618 49.5192 156.515 48.8219 155.732 50.4094C154.228 53.4954 160.522 57.6496 160.522 57.6496Z" fill="white" stroke="black" stroke-width="0.5" stroke-linecap="round" stroke-linejoin="round"/>
<path d="M197.498 117.648H182.961C182.961 117.648 183.299 112.767 187.198 111.758C187.75 111.61 188.119 110.972 188.334 109.963H196.623L197.482 117.633L197.498 117.648Z" fill="#A6A6A6" stroke="black" stroke-width="0.5" stroke-linecap="round" stroke-linejoin="round"/>
<path d="M193.239 79.6523L196.632 109.978H188.343C189.678 103.94 185.656 84.949 185.656 84.949" fill="white"/>
<path d="M193.239 79.6523L196.632 109.978H188.343C189.678 103.94 185.656 84.949 185.656 84.949" stroke="black" stroke-width="0.5" stroke-linecap="round" stroke-linejoin="round"/>
<path d="M183.865 37.7383C181.256 37.7383 183.036 40.9875 181.67 42.3079C180.304 43.6284 178.339 45.201 180.242 45.6906C182.146 46.1802 179.628 50.735 181.747 52.7824C182.269 53.2869 185.63 51.2543 185.63 52.2187C185.63 52.7379 185.062 54.7557 185.369 55.0672C186.674 56.3877 190.558 55.453 191.003 51.1949C191.525 46.2692 195.025 37.7531 183.865 37.7531V37.7383Z" fill="white" stroke="black" stroke-width="0.5" stroke-linecap="round" stroke-linejoin="round"/>
<path d="M180.93 48.5841C180.93 48.5841 182.327 49.6523 184.506 48.0352L180.93 48.5841Z" fill="white"/>
<path d="M180.93 48.5841C180.93 48.5841 182.327 49.6523 184.506 48.0352" stroke="black" stroke-width="0.5" stroke-linecap="round" stroke-linejoin="round"/>
<path d="M184.028 43.9877C184.385 43.9877 184.674 43.7085 184.674 43.364C184.674 43.0195 184.385 42.7402 184.028 42.7402C183.672 42.7402 183.383 43.0195 183.383 43.364C183.383 43.7085 183.672 43.9877 184.028 43.9877Z" fill="black"/>
<path d="M184.387 117.648H167.164C167.486 115.586 169.144 113.969 171.263 113.613C172.936 113.331 174.655 112.633 175.407 109.963H184.448C184.31 114.34 184.372 117.633 184.372 117.633L184.387 117.648Z" fill="#A6A6A6" stroke="black" stroke-width="0.5" stroke-linecap="round" stroke-linejoin="round"/>
<path d="M188.623 86.7738C188.009 88.0497 187.257 90.0527 186.382 93.2129C185.108 97.827 184.632 104.696 184.463 109.978H175.422C175.591 109.37 175.714 108.658 175.775 107.842C176.328 100.156 181.869 79.6523 181.869 79.6523" fill="white"/>
<path d="M188.623 86.7738C188.009 88.0497 187.257 90.0527 186.382 93.2129C185.108 97.827 184.632 104.696 184.463 109.978H175.422C175.591 109.37 175.714 108.658 175.775 107.842C176.328 100.156 181.869 79.6523 181.869 79.6523" stroke="black" stroke-width="0.5" stroke-linecap="round" stroke-linejoin="round"/>
<path d="M193.5 79.3555H181.5L186.5 85.3555L193.5 79.3555Z" fill="white"/>
<path d="M185.53 40.6171C185.53 40.6171 180.219 39.534 180.219 38.6587C180.219 37.7833 183.949 34.2077 185.146 35.365C186.343 36.5222 188.17 35.5727 189.767 36.092C191.363 36.6113 194.848 39.3856 194.848 40.7803C194.848 42.1749 193.067 44.7564 192.852 46.1362C192.637 47.516 189.951 47.0709 189.951 47.0709L189.168 45.7802C189.168 45.7802 192.069 43.9701 190.365 42.7387C188.661 41.5073 187.525 43.0651 187.525 43.0651L185.515 40.6171H185.53Z" fill="black" stroke="black" stroke-width="0.5" stroke-linecap="round" stroke-linejoin="round"/>
<path d="M181.61 79.6528H189.515L190.037 84.9791L191.127 88.5398C191.572 89.979 192.647 91.1956 194.074 91.7594C194.734 92.0264 195.364 92.1154 195.763 91.8632C196.208 91.5962 196.484 91.1955 196.53 90.8543C196.791 89.1778 196.484 86.3292 195.594 83.6735C195.594 83.6735 194.827 56.9827 189.822 55.8997C188.533 55.6178 186.169 54.4754 184.91 55.1282C183.759 55.7365 182.516 58.9412 181.856 64.6829C181.18 70.4246 181.595 79.6528 181.595 79.6528H181.61Z" fill="white" stroke="black" stroke-width="0.5" stroke-linecap="round" stroke-linejoin="round"/>
<path d="M187.641 61.418L189.513 79.652" stroke="black" stroke-width="0.5" stroke-linecap="round" stroke-linejoin="round"/>
<path d="M189.862 54.5182C192.272 55.5123 194.62 53.183 195.342 63.4349C196.063 73.6869 195.419 78.9835 195.419 78.9835C195.419 78.9835 190.614 79.6512 185.687 79.6512H180.237C180.237 79.6512 180.084 56.8921 182.048 55.0079C184.013 53.1236 189.877 54.5182 189.877 54.5182H189.862Z" fill="black" stroke="black" stroke-width="0.5" stroke-linecap="round" stroke-linejoin="round"/>
<path d="M189.639 80.8841C189.639 80.8841 184.912 56.4336 191.144 56.4336C196.225 56.4336 195.473 80.5576 195.473 80.5576" fill="white"/>
<path d="M189.639 80.884C189.639 80.884 184.912 56.4336 191.144 56.4336C196.225 56.4336 195.473 80.5576 195.473 80.5576" stroke="black" stroke-width="0.5" stroke-linecap="round" stroke-linejoin="round"/>
<path d="M184.583 60.973C184.737 60.973 184.875 60.9434 184.997 60.8692C185.12 60.795 185.228 60.706 185.289 60.5873C185.366 60.4686 185.397 60.3351 185.397 60.1867C185.397 60.0384 185.366 59.9048 185.289 59.7862C185.212 59.6675 185.12 59.5784 184.997 59.5043C184.875 59.4301 184.737 59.4004 184.568 59.4004C184.445 59.4004 184.337 59.4152 184.245 59.4597C184.153 59.5043 184.061 59.5636 183.984 59.6378L184.291 59.9345C184.291 59.9345 184.368 59.8603 184.414 59.8455C184.46 59.8306 184.522 59.8158 184.583 59.8158C184.66 59.8158 184.721 59.8158 184.767 59.8603C184.813 59.89 184.859 59.9345 184.89 59.979C184.921 60.0383 184.936 60.0977 184.936 60.1719C184.936 60.2461 184.921 60.3054 184.89 60.3647C184.859 60.4241 184.813 60.4686 184.767 60.4983C184.706 60.5279 184.644 60.5428 184.583 60.5428C184.522 60.5428 184.46 60.5428 184.414 60.5131C184.368 60.4983 184.322 60.4538 184.291 60.4241L183.984 60.7208C184.061 60.8098 184.153 60.8692 184.245 60.8989C184.337 60.9434 184.46 60.9582 184.583 60.9582" fill="#10A96C"/>
<path d="M182.414 59.4441V60.9278H182.875V60.8091C182.875 60.8091 182.967 60.8833 183.013 60.8981C183.089 60.9426 183.197 60.9574 183.289 60.9574C183.427 60.9574 183.55 60.9278 183.657 60.8536C183.765 60.7794 183.857 60.6904 183.918 60.5717C183.98 60.453 184.01 60.3195 184.01 60.1711C184.01 60.0227 183.98 59.8892 183.918 59.7705C183.857 59.6518 183.765 59.5628 183.657 59.4886C183.55 59.4144 183.427 59.3848 183.289 59.3848C183.182 59.3848 183.089 59.3996 183.013 59.4441C182.967 59.4738 182.905 59.5035 182.875 59.5331V59.3996H182.414V59.4441ZM182.844 60.1859C182.844 60.1859 182.844 60.0524 182.89 59.9931C182.921 59.9337 182.967 59.9041 183.013 59.8744C183.059 59.8447 183.12 59.8299 183.197 59.8299C183.274 59.8299 183.32 59.8447 183.381 59.8744C183.427 59.9041 183.473 59.9486 183.504 60.0079C183.535 60.0673 183.55 60.1266 183.55 60.2008C183.55 60.275 183.55 60.3343 183.504 60.3788C183.473 60.4382 183.427 60.4678 183.381 60.4975C183.335 60.5272 183.274 60.542 183.197 60.542C183.089 60.542 183.013 60.5123 182.936 60.4381C182.875 60.3788 182.844 60.2898 182.844 60.1859Z" fill="#00A6BF"/>
<path d="M181.28 59.4277C181.28 59.4277 181.341 59.4277 181.372 59.4277C181.448 59.4277 181.525 59.4426 181.602 59.4871C181.679 59.5316 181.74 59.5761 181.786 59.6355C181.786 59.6503 181.817 59.6651 181.817 59.68V59.4574H182.262V60.9411H181.802V60.1993C181.802 60.1993 181.802 60.1102 181.786 60.0805C181.786 60.0509 181.755 60.0212 181.725 59.9915C181.694 59.9619 181.663 59.947 181.633 59.9322C181.602 59.9322 181.556 59.9174 181.51 59.9174C181.479 59.9174 181.433 59.9174 181.402 59.9174C181.372 59.9174 181.341 59.9322 181.31 59.947L181.188 59.4426C181.188 59.4426 181.234 59.4426 181.264 59.4277H181.28Z" fill="#8280B8"/>
<path d="M185.961 59.4453V60.291C185.961 60.4394 186.083 60.5432 186.221 60.5432C186.36 60.5432 186.482 60.4245 186.482 60.291V59.4453H186.943V60.2613C186.943 60.647 186.621 60.9735 186.221 60.9735C185.822 60.9735 185.5 60.6619 185.5 60.2613V59.4453H185.961Z" fill="#EF664E"/>
<path d="M195.61 83.6738L189.977 84.254" stroke="black" stroke-width="0.5" stroke-linecap="round" stroke-linejoin="round"/>
<path d="M164.637 53.0195L160.523 57.6485" stroke="black" stroke-width="0.5" stroke-linecap="round" stroke-linejoin="round"/>
<path d="M146.807 52.3784C146.807 52.3784 149.036 48.1138 148.398 45.0836C147.666 41.6271 144.067 39.5284 144.067 42.6932C144.067 48.1025 141.605 47.7322 141.605 47.7322C141.605 47.7322 140.676 45.7794 139.631 46.5875C138.818 47.2159 140.549 50.4817 140.549 50.4817L146.795 52.3671L146.807 52.3784Z" fill="white" stroke="black" stroke-width="0.5" stroke-linecap="round" stroke-linejoin="round"/>
<path d="M109.083 80.0312C109.083 80.0312 109.71 84.9131 108.793 87.0566C107.875 89.2001 107.341 84.2622 107.341 84.2622C107.341 84.2622 106.61 85.1937 105.855 85.3171C104.984 85.4518 103.742 85.2498 102.929 84.0938C102.116 82.9379 102.708 80.7382 102.708 80.7382L109.083 80.0312Z" fill="white" stroke="black" stroke-width="0.5" stroke-linecap="round" stroke-linejoin="round"/>
<path d="M125.711 82.084C125.711 82.084 133.236 89.9847 134.072 103.923C134.373 108.951 132.794 114.764 135.198 114.764C141.375 114.764 140.853 117.862 140.853 117.862H131.935C130.646 117.862 129.555 116.953 129.357 115.73L128.649 111.252L127.012 117.862H125.619C125.619 117.862 127.604 108.233 125.816 99.9729C124.028 91.713 116.898 84.8672 116.898 84.8672L125.7 82.084H125.711Z" fill="black" stroke="black" stroke-width="0.5" stroke-linecap="round" stroke-linejoin="round"/>
<path d="M124.012 84.2719C124.012 84.2719 123.106 88.6712 118.543 102.913C116.999 107.716 114.316 114.753 116.72 114.753C122.897 114.753 122.375 117.85 122.375 117.85H113.457C112.168 117.85 111.077 116.941 110.879 115.718L110.45 113.024L108.534 117.861H107.141C107.141 117.861 109.742 107.705 111.82 99.5011C114.131 90.3658 113.968 83.5312 113.968 83.5312L124 84.2831L124.012 84.2719Z" fill="black" stroke="black" stroke-width="0.5" stroke-linecap="round" stroke-linejoin="round"/>
<path d="M140.084 49.9883C138.423 56.0597 134.51 61.4354 124.269 60.5376L111.775 59.449C111.775 59.449 104.251 57.7095 102.695 80.7384L109.047 81.1087C109.163 75.9687 109.743 68.7526 111.996 66.5754L113.355 88.2688L132.513 86.967L128.972 68.2476C128.972 68.2476 143.08 71.8949 147.26 52.2665L140.084 49.9883Z" fill="white" stroke="black" stroke-width="0.5" stroke-linecap="round" stroke-linejoin="round"/>
<path d="M128.797 51.0543L122.121 54.0171L118.034 55.8352L111.357 58.798C110.962 58.9775 110.544 59.0561 110.138 59.0561C109.035 59.0561 107.967 58.4389 107.479 57.4064C106.805 55.9923 107.444 54.3089 108.919 53.658L115.595 50.6952L119.682 48.8771L126.359 45.9143C126.754 45.7348 127.172 45.6562 127.578 45.6562C128.681 45.6562 129.749 46.2623 130.237 47.306C130.911 48.72 130.272 50.4034 128.797 51.0543Z" fill="white" stroke="black" stroke-width="0.5" stroke-linecap="round" stroke-linejoin="round"/>
<path d="M114.562 49.168H125.86L127.219 56.0138H125.605V58.1012C125.605 60.1213 123.91 61.7486 121.831 61.7486H121.332C119.242 61.7486 117.558 60.1101 117.558 58.1012" fill="white"/>
<path d="M114.562 49.168H125.86L127.219 56.0138H125.605V58.1012C125.605 60.1213 123.91 61.7486 121.831 61.7486H121.332C119.242 61.7486 117.558 60.1101 117.558 58.1012" stroke="black" stroke-width="0.5" stroke-linecap="round" stroke-linejoin="round"/>
<path d="M110.578 63.2078C111.635 59.841 112.854 55.0938 112.517 51.5924L112.053 46.7891L118.369 47.945C118.462 47.8103 118.555 47.6869 118.66 47.5522C120.297 45.4985 123.06 44.9149 124.837 46.2279C126.602 47.5522 126.671 49.3591 124.779 51.1884C123.548 52.378 120.703 54.2297 119.472 54.398C116.802 56.4742 118.16 60.492 117.255 63.4435C117.092 63.9822 116.732 64.8463 116.732 64.8463L110.59 63.1966L110.578 63.2078Z" fill="white" stroke="black" stroke-width="0.5" stroke-linecap="round" stroke-linejoin="round"/>
<path d="M120.87 54.1947C120.615 53.555 120.023 53.0612 119.279 52.949C118.141 52.7695 117.073 53.4989 116.887 54.5988C116.702 55.6986 117.456 56.7311 118.594 56.9106" fill="white"/>
<path d="M120.87 54.1947C120.615 53.555 120.023 53.0612 119.279 52.949C118.141 52.7695 117.073 53.4989 116.887 54.5988C116.702 55.6986 117.456 56.7311 118.594 56.9106" stroke="black" stroke-width="0.5" stroke-linecap="round" stroke-linejoin="round"/>
<path d="M125.324 46.3062L119.1 49.0781L114.607 51.0758L108.383 53.8478L108.615 53.051C109.01 51.693 109.289 50.3127 109.532 48.921C109.741 47.7427 110.659 46.7439 111.924 46.4633C112.888 46.2501 113.817 45.947 114.699 45.543C115.582 45.139 116.441 44.6677 117.231 44.1065C117.788 43.7025 118.45 43.5117 119.1 43.5117C119.704 43.5117 120.308 43.6801 120.819 44.0055C122.084 44.8023 123.431 45.4645 124.813 46.0705L125.335 46.3062H125.324Z" fill="white" stroke="black" stroke-width="0.5" stroke-linecap="round" stroke-linejoin="round"/>
<path d="M124.582 54.5335C124.852 54.5335 125.07 54.3223 125.07 54.0617C125.07 53.8011 124.852 53.5898 124.582 53.5898C124.312 53.5898 124.094 53.8011 124.094 54.0617C124.094 54.3223 124.312 54.5335 124.582 54.5335Z" fill="white" stroke="black" stroke-width="0.5" stroke-linecap="round" stroke-linejoin="round"/>
<path d="M125.604 57.3496C125.454 57.4281 125.268 57.473 125.082 57.473C124.455 57.473 124.002 57.3047 123.805 56.5977" fill="white"/>
<path d="M125.604 57.3496C125.454 57.4281 125.268 57.473 125.082 57.473C124.455 57.473 124.002 57.3047 123.805 56.5977" stroke="black" stroke-width="0.5" stroke-linecap="round" stroke-linejoin="round"/>
</svg>
