<svg width="379" height="291" viewBox="0 0 379 291" fill="none" xmlns="http://www.w3.org/2000/svg">
<g clip-path="url(#clip0_831_3168)">
<path d="M306.337 220.532H155.878V232.351H306.337V220.532Z" fill="#A9A9A9" stroke="black" stroke-width="1.72297" stroke-linecap="round" stroke-linejoin="round"/>
<path d="M155.882 177.26V237.671H94.7297C88.6605 237.671 83.7802 232.744 83.7802 226.735C83.7802 226.571 83.7802 226.407 83.7931 226.239L84.1851 217.362L84.2884 216.81C84.3832 216.285 84.5038 215.764 84.6459 215.251C86.412 208.876 91.6197 203.815 98.3737 202.049L99.1405 201.851L101.703 201.179L104.676 200.403C108.496 199.404 111.925 197.354 114.535 194.511L128.659 179.12C129.745 177.936 131.313 177.26 132.958 177.26H155.882Z" fill="white" stroke="black" stroke-width="1.72297" stroke-linecap="round" stroke-linejoin="round"/>
<path d="M94.1525 212.356C91.2966 214.566 87.8421 215.518 84.6416 215.255C86.4077 208.876 91.6154 203.819 98.3694 202.053L99.1362 201.851C99.4635 205.585 97.7104 209.604 94.1525 212.356Z" fill="white" stroke="black" stroke-width="1.72297" stroke-miterlimit="10"/>
<path d="M136.245 182.631C134.156 182.631 132.17 183.488 130.791 184.987L120.759 195.894C119.48 197.285 118.774 199.073 118.774 200.92V205.297C118.774 207.537 121.095 209.109 123.318 208.368L150.244 199.404V182.631H136.245Z" fill="white" stroke="black" stroke-width="1.72297" stroke-miterlimit="10"/>
<path d="M155.878 177.259H125.467C125.467 164.85 134.142 153.956 146.69 150.618L155.878 148.176V177.259Z" fill="white" stroke="black" stroke-width="1.72297" stroke-miterlimit="10"/>
<path d="M306.337 148.176H155.878V220.532H306.337V148.176Z" fill="white" stroke="black" stroke-width="1.72297" stroke-miterlimit="10"/>
<path d="M311.001 209.803L306.28 209.751L306.715 170.566C306.728 169.537 308.141 169.27 308.529 170.221C308.882 171.092 309.088 172.013 309.136 172.944L311.001 209.803Z" fill="#A9A9A9" stroke="black" stroke-width="1.72297" stroke-linecap="round" stroke-linejoin="round"/>
<path d="M311.062 214.536C313.805 214.536 316.028 212.417 316.028 209.803C316.028 207.188 313.805 205.069 311.062 205.069C308.319 205.069 306.095 207.188 306.095 209.803C306.095 212.417 308.319 214.536 311.062 214.536Z" fill="white" stroke="black" stroke-width="1.72297" stroke-miterlimit="10"/>
<path d="M225.077 195.472C223.221 195.472 221.545 195.075 220.059 194.283C218.573 193.49 217.388 192.405 216.51 191.026C215.631 189.648 215.192 188.093 215.192 186.37C215.192 184.647 215.631 183.053 216.51 181.675C217.388 180.297 218.577 179.207 220.076 178.401C221.575 177.6 223.268 177.195 225.15 177.195C226.563 177.195 227.855 177.436 229.036 177.915C230.212 178.393 231.258 179.103 232.176 180.038L228.609 183.493C228.187 183.015 227.687 182.666 227.106 182.45C226.524 182.235 225.874 182.127 225.155 182.127C224.31 182.127 223.574 182.299 222.945 182.648C222.312 182.997 221.812 183.488 221.442 184.122C221.071 184.759 220.886 185.496 220.886 186.336C220.886 187.175 221.071 187.882 221.442 188.528C221.812 189.174 222.32 189.674 222.967 190.023C223.613 190.372 224.341 190.544 225.159 190.544C225.926 190.544 226.602 190.423 227.183 190.182C227.765 189.941 228.269 189.57 228.687 189.066L232.253 192.555C231.31 193.516 230.25 194.24 229.074 194.731C227.899 195.222 226.568 195.467 225.077 195.467" fill="#10A96C"/>
<path d="M245.447 177.596V179.082C244.969 178.638 244.413 178.263 243.776 177.953C242.785 177.475 241.682 177.234 240.468 177.234C238.809 177.234 237.319 177.634 236.01 178.44C234.696 179.245 233.666 180.327 232.925 181.696C232.18 183.062 231.81 184.621 231.81 186.374C231.81 188.127 232.18 189.648 232.925 191.013C233.671 192.379 234.691 193.46 235.992 194.253C237.293 195.045 238.775 195.441 240.433 195.441C241.674 195.441 242.785 195.213 243.78 194.756C244.422 194.464 244.978 194.089 245.451 193.641V195.08H250.913V177.6H245.451L245.447 177.596ZM244.573 189.376C243.815 190.156 242.807 190.544 241.545 190.544C240.752 190.544 240.046 190.363 239.425 190.005C238.805 189.648 238.314 189.153 237.956 188.532C237.599 187.908 237.418 187.188 237.418 186.374C237.418 185.56 237.599 184.798 237.956 184.16C238.314 183.527 238.805 183.027 239.425 182.666C240.046 182.308 240.765 182.127 241.579 182.127C242.393 182.127 243.117 182.308 243.733 182.666C244.353 183.027 244.835 183.518 245.184 184.139C245.529 184.763 245.706 185.495 245.706 186.331C245.706 187.576 245.326 188.593 244.573 189.372V189.376Z" fill="#00A6BF"/>
<path d="M264.369 177.272C264.016 177.208 263.637 177.173 263.228 177.173C262.272 177.173 261.371 177.393 260.531 177.832C259.691 178.272 258.955 178.866 258.33 179.616C258.167 179.809 258.016 180.012 257.878 180.219L257.766 177.578H252.61V195.071H258.072V186.284C258.072 185.754 258.158 185.28 258.326 184.862C258.498 184.444 258.731 184.082 259.024 183.772C259.321 183.462 259.683 183.23 260.118 183.062C260.549 182.898 261.018 182.812 261.518 182.812C261.974 182.812 262.409 182.859 262.832 182.963C263.254 183.062 263.59 183.187 263.84 183.342L265.343 177.496C265.046 177.41 264.723 177.333 264.369 177.264V177.272Z" fill="#8280B8"/>
<path d="M208.622 177.57V187.494C208.622 189.161 207.227 190.514 205.499 190.514C203.776 190.514 202.376 189.161 202.376 187.494V177.57H196.876V187.102C196.876 191.702 200.744 195.446 205.499 195.446C210.255 195.446 214.123 191.702 214.123 187.102V177.57H208.622Z" fill="#EF664E"/>
<path d="M123.245 237.671H94.7297C88.6605 237.671 83.7802 232.743 83.7802 226.735C83.7802 226.571 83.7802 226.407 83.7931 226.239H114.652L123.245 237.671Z" fill="#A9A9A9" stroke="black" stroke-width="1.72297" stroke-linecap="round" stroke-linejoin="round"/>
<path d="M129.098 240.01C129.098 240.238 129.094 240.467 129.081 240.695C128.707 247.983 122.392 253.781 114.651 253.781C106.911 253.781 100.592 247.983 100.221 240.695C100.209 240.467 100.204 240.238 100.204 240.01C100.204 235.828 102.16 232.08 105.248 229.556C107.777 227.488 111.063 226.239 114.656 226.239C118.248 226.239 121.535 227.488 124.063 229.556C127.152 232.08 129.107 235.828 129.107 240.01H129.098Z" fill="white" stroke="black" stroke-width="1.72297" stroke-linecap="round" stroke-linejoin="round"/>
<path d="M114.651 246.196C118.234 246.196 121.138 243.428 121.138 240.014C121.138 236.601 118.234 233.833 114.651 233.833C111.069 233.833 108.164 236.601 108.164 240.014C108.164 243.428 111.069 246.196 114.651 246.196Z" fill="white" stroke="black" stroke-width="1.72297" stroke-linecap="round" stroke-linejoin="round"/>
<path d="M269.559 240.01C269.559 240.238 269.555 240.467 269.542 240.695C269.167 247.983 262.853 253.781 255.112 253.781C247.372 253.781 241.053 247.983 240.682 240.695C240.669 240.467 240.665 240.238 240.665 240.01C240.665 235.828 242.621 232.08 245.709 229.556C248.238 227.488 251.524 226.239 255.117 226.239C258.709 226.239 261.996 227.488 264.524 229.556C267.612 232.08 269.568 235.828 269.568 240.01H269.559Z" fill="white" stroke="black" stroke-width="1.72297" stroke-linecap="round" stroke-linejoin="round"/>
<path d="M255.113 246.196C258.695 246.196 261.6 243.428 261.6 240.014C261.6 236.601 258.695 233.833 255.113 233.833C251.53 233.833 248.626 236.601 248.626 240.014C248.626 243.428 251.53 246.196 255.113 246.196Z" fill="white" stroke="black" stroke-width="1.72297" stroke-linecap="round" stroke-linejoin="round"/>
<path d="M0.861511 253.721H998.58" stroke="black" stroke-width="1.72297" stroke-linecap="round" stroke-linejoin="round"/>
<path d="M278.902 229.991C278.902 230.719 278.721 231.456 278.334 232.124L276.089 236.052C276.038 236.147 275.982 236.237 275.926 236.328C274.547 238.576 272.165 239.989 269.559 240.234C268.448 231.016 260.6 223.875 251.085 223.875C247.803 223.875 244.718 224.723 242.039 226.218C236.233 229.453 229.81 231.439 223.173 231.826L168.989 234.988C163.894 235.285 158.841 233.67 154.964 230.353C152.173 227.963 148.546 226.515 144.579 226.515C140.612 226.515 136.977 227.967 134.181 230.362C131.584 232.593 128.418 234.066 125.058 234.734L115.25 236.689L114.574 232.171C114.453 231.378 114.41 230.586 114.44 229.81C114.634 224.258 118.429 219.335 123.977 217.862L125.303 217.508L152.126 210.38C152.828 210.47 153.526 210.556 154.228 210.638C154.31 210.647 154.387 210.655 154.469 210.664C155.098 210.737 155.731 210.802 156.364 210.866C159.401 211.168 162.446 211.37 165.496 211.465C166.237 211.491 166.978 211.508 167.719 211.521C169.485 211.551 171.251 211.547 173.017 211.504C174.033 211.478 175.054 211.448 176.071 211.4L208.097 209.979L242.763 208.437C245.52 208.312 247.691 206.042 247.691 203.285C247.691 202.282 247.398 201.321 246.881 200.507C246.36 199.693 245.614 199.025 244.701 198.603L230.702 192.125H245.718C249.004 192.125 252.192 193.227 254.776 195.26L271.597 209.264C274.504 211.685 276.094 215.337 275.883 219.115L275.663 223.005C275.581 224.405 276.189 225.748 277.283 226.619C278.342 227.459 278.907 228.712 278.907 229.987L278.902 229.991Z" fill="white" stroke="black" stroke-width="1.72297" stroke-linecap="round" stroke-linejoin="round"/>
<path d="M160.542 241.841L128.611 242.302L116.12 242.482L115.254 236.685L125.066 234.729C128.426 234.061 131.588 232.588 134.19 230.357C136.985 227.958 140.616 226.51 144.588 226.51C148.559 226.51 152.182 227.953 154.973 230.348C158.85 233.669 163.902 235.28 168.998 234.988L223.181 231.826C229.819 231.438 236.241 229.452 242.048 226.218C244.727 224.727 247.811 223.874 251.093 223.874C260.609 223.874 268.457 231.016 269.568 240.234C269.34 240.255 269.107 240.268 268.874 240.273L160.542 241.841Z" fill="#A9A9A9" stroke="black" stroke-width="1.72297" stroke-linecap="round" stroke-linejoin="round"/>
<path d="M247.686 203.285C247.686 206.042 245.515 208.316 242.758 208.437L176.066 211.4C168.072 211.754 160.06 211.413 152.126 210.375L175.265 197.177C181.072 193.865 187.645 192.125 194.33 192.125H230.693L244.692 198.603C245.606 199.025 246.351 199.693 246.872 200.507C247.393 201.321 247.686 202.281 247.686 203.285Z" fill="white" stroke="black" stroke-width="1.72297" stroke-linecap="round" stroke-linejoin="round"/>
<path d="M208.088 209.975L210.164 192.125" stroke="black" stroke-width="1.72297" stroke-linecap="round" stroke-linejoin="round"/>
<path d="M185.978 223.358C185.189 223.396 184.466 223.258 183.815 222.935C183.165 222.612 182.639 222.156 182.23 221.561C181.825 220.967 181.601 220.282 181.562 219.511C181.524 218.731 181.674 218.021 182.019 217.387C182.364 216.754 182.842 216.242 183.462 215.85C184.082 215.458 184.793 215.242 185.59 215.204C186.189 215.173 186.744 215.251 187.257 215.44C187.769 215.63 188.23 215.923 188.64 216.319L187.201 217.939C187.011 217.732 186.787 217.59 186.537 217.504C186.283 217.422 186.008 217.387 185.702 217.4C185.344 217.418 185.034 217.512 184.771 217.68C184.509 217.848 184.311 218.081 184.164 218.37C184.022 218.662 183.957 218.994 183.979 219.369C183.996 219.731 184.091 220.054 184.267 220.334C184.44 220.614 184.668 220.825 184.948 220.967C185.228 221.109 185.547 221.169 185.891 221.152C186.219 221.135 186.503 221.066 186.744 220.95C186.985 220.829 187.192 220.652 187.36 220.42L188.958 221.902C188.579 222.35 188.144 222.698 187.657 222.94C187.166 223.185 186.606 223.323 185.973 223.353L185.978 223.358Z" fill="#10A96C"/>
<path d="M196.557 214.82L194.236 214.941L194.27 215.604C194.055 215.419 193.813 215.259 193.533 215.139C193.103 214.945 192.629 214.863 192.112 214.889C191.406 214.928 190.785 215.139 190.243 215.522C189.7 215.91 189.291 216.414 189.002 217.043C188.718 217.667 188.593 218.374 188.636 219.153C188.675 219.924 188.869 220.605 189.217 221.199C189.566 221.794 190.023 222.25 190.596 222.578C191.169 222.905 191.806 223.047 192.513 223.013C193.038 222.987 193.508 222.862 193.921 222.634C194.188 222.492 194.417 222.311 194.606 222.1L194.64 222.741L196.962 222.625L196.566 214.824L196.557 214.82ZM194.132 220.213C193.826 220.579 193.409 220.773 192.87 220.799C192.53 220.816 192.228 220.751 191.957 220.605C191.686 220.459 191.466 220.247 191.298 219.98C191.13 219.709 191.039 219.395 191.022 219.028C191.005 218.654 191.061 218.322 191.199 218.029C191.337 217.736 191.535 217.504 191.789 217.331C192.043 217.159 192.345 217.06 192.694 217.043C193.042 217.026 193.353 217.09 193.624 217.237C193.895 217.383 194.111 217.594 194.274 217.865C194.438 218.137 194.528 218.46 194.546 218.835C194.576 219.39 194.438 219.851 194.132 220.213Z" fill="#00A6BF"/>
<path d="M202.273 214.385C202.122 214.364 201.958 214.355 201.786 214.364C201.381 214.385 201.002 214.502 200.653 214.717C200.304 214.932 200.007 215.212 199.757 215.561C199.693 215.652 199.632 215.746 199.581 215.841L199.473 214.665L197.28 214.777L197.677 222.582L199.998 222.466L199.8 218.546C199.787 218.309 199.813 218.098 199.878 217.909C199.942 217.719 200.033 217.551 200.149 217.409C200.27 217.267 200.416 217.151 200.597 217.069C200.778 216.987 200.972 216.94 201.187 216.927C201.381 216.918 201.566 216.927 201.747 216.965C201.928 217 202.075 217.052 202.182 217.112L202.686 214.471C202.557 214.437 202.419 214.411 202.268 214.39L202.273 214.385Z" fill="#8280B8"/>
<path d="M178.578 215.725L178.802 220.153C178.841 220.898 178.276 221.531 177.544 221.57C176.812 221.609 176.187 221.036 176.149 220.291L175.925 215.863L173.586 215.983L173.801 220.235C173.904 222.289 175.636 223.874 177.656 223.771C179.676 223.668 181.236 221.915 181.132 219.86L180.917 215.608L178.578 215.729V215.725Z" fill="#EF664E"/>
<path d="M144.584 253.876C150.874 253.876 155.972 248.777 155.972 242.487C155.972 236.197 150.874 231.098 144.584 231.098C138.294 231.098 133.195 236.197 133.195 242.487C133.195 248.777 138.294 253.876 144.584 253.876Z" fill="white" stroke="black" stroke-width="1.72297" stroke-linecap="round" stroke-linejoin="round"/>
<path d="M144.583 249.405C148.404 249.405 151.501 246.308 151.501 242.487C151.501 238.666 148.404 235.569 144.583 235.569C140.763 235.569 137.666 238.666 137.666 242.487C137.666 246.308 140.763 249.405 144.583 249.405Z" fill="white" stroke="black" stroke-width="1.72297" stroke-linecap="round" stroke-linejoin="round"/>
<path d="M251.089 253.876C257.379 253.876 262.478 248.777 262.478 242.487C262.478 236.197 257.379 231.098 251.089 231.098C244.8 231.098 239.701 236.197 239.701 242.487C239.701 248.777 244.8 253.876 251.089 253.876Z" fill="white" stroke="black" stroke-width="1.72297" stroke-linecap="round" stroke-linejoin="round"/>
<path d="M251.089 249.405C254.909 249.405 258.006 246.308 258.006 242.487C258.006 238.666 254.909 235.569 251.089 235.569C247.268 235.569 244.171 238.666 244.171 242.487C244.171 246.308 247.268 249.405 251.089 249.405Z" fill="white" stroke="black" stroke-width="1.72297" stroke-linecap="round" stroke-linejoin="round"/>
<path d="M265.316 203.94V257.529H181.201V237.508C181.201 232.688 184.397 228.454 189.027 227.131L191.185 226.515L205.796 222.342C211.077 220.834 215.919 218.069 219.903 214.291L226.868 207.683C229.397 205.284 232.752 203.944 236.237 203.944H265.308L265.316 203.94Z" fill="white" stroke="black" stroke-width="1.72297" stroke-linecap="round" stroke-linejoin="round"/>
<path d="M181.205 238.968C187.645 238.968 192.865 233.747 192.865 227.308V226.033" fill="white"/>
<path d="M181.205 238.968C187.645 238.968 192.865 233.747 192.865 227.308V226.033" stroke="black" stroke-width="1.72297" stroke-linecap="round" stroke-linejoin="round"/>
<path d="M300.06 203.94H265.317V257.529H300.06V203.94Z" fill="white" stroke="black" stroke-width="1.72297" stroke-linecap="round" stroke-linejoin="round"/>
<path d="M334.808 209.587V251.877C334.808 254.996 332.28 257.524 329.157 257.524H300.065V203.935H329.157C332.28 203.935 334.808 206.464 334.808 209.582V209.587Z" fill="white" stroke="black" stroke-width="1.72297" stroke-linecap="round" stroke-linejoin="round"/>
<path d="M334.804 228.475H284.347C277.347 228.475 270.585 225.933 265.317 221.329" stroke="black" stroke-width="1.72297" stroke-linecap="round" stroke-linejoin="round"/>
<path d="M334.808 249.913V251.877C334.808 254.996 332.28 257.524 329.157 257.524H181.205V249.909H334.808V249.913Z" fill="#A9A9A9" stroke="black" stroke-width="1.72297" stroke-linecap="round" stroke-linejoin="round"/>
<path d="M211.603 269.184C218.04 269.184 223.259 263.966 223.259 257.528C223.259 251.091 218.04 245.873 211.603 245.873C205.165 245.873 199.947 251.091 199.947 257.528C199.947 263.966 205.165 269.184 211.603 269.184Z" fill="white" stroke="black" stroke-width="1.72297" stroke-linecap="round" stroke-linejoin="round"/>
<path d="M211.602 263.589C214.95 263.589 217.663 260.876 217.663 257.529C217.663 254.181 214.95 251.468 211.602 251.468C208.255 251.468 205.542 254.181 205.542 257.529C205.542 260.876 208.255 263.589 211.602 263.589Z" fill="white" stroke="black" stroke-width="1.72297" stroke-linecap="round" stroke-linejoin="round"/>
<path d="M315.442 269.184C321.879 269.184 327.098 263.966 327.098 257.528C327.098 251.091 321.879 245.873 315.442 245.873C309.004 245.873 303.786 251.091 303.786 257.528C303.786 263.966 309.004 269.184 315.442 269.184Z" fill="white" stroke="black" stroke-width="1.72297" stroke-linecap="round" stroke-linejoin="round"/>
<path d="M315.442 263.589C318.789 263.589 321.502 260.876 321.502 257.529C321.502 254.181 318.789 251.468 315.442 251.468C312.095 251.468 309.381 254.181 309.381 257.529C309.381 260.876 312.095 263.589 315.442 263.589Z" fill="white" stroke="black" stroke-width="1.72297" stroke-linecap="round" stroke-linejoin="round"/>
<path d="M214.747 218.314C214.747 223.926 219.296 228.475 224.908 228.475H249.064C254.677 228.475 259.226 223.926 259.226 218.314V203.935" stroke="black" stroke-width="1.72297" stroke-linecap="round" stroke-linejoin="round"/>
<path d="M752.367 132.333H247.144V280.763H752.367V132.333Z" fill="#8280B8" stroke="black" stroke-width="1.72297" stroke-linecap="round" stroke-linejoin="round"/>
<path d="M752.367 55.8718H247.144V132.333H752.367V55.8718Z" fill="#8280B8" stroke="black" stroke-width="1.72297" stroke-linecap="round" stroke-linejoin="round"/>
<path d="M408.19 280.759V156.209H277.67V280.759H408.19Z" fill="#8280B8" stroke="black" stroke-width="1.72297" stroke-linecap="round" stroke-linejoin="round"/>
<path d="M395.999 168.404H289.864V280.763H395.999V168.404Z" stroke="black" stroke-width="1.72297" stroke-linecap="round" stroke-linejoin="round"/>
<path d="M289.864 270.653H395.999" stroke="black" stroke-width="1.72297" stroke-linejoin="round"/>
<path d="M289.864 259.794H395.999" stroke="black" stroke-width="1.72297" stroke-linejoin="round"/>
<path d="M289.864 248.935H395.999" stroke="black" stroke-width="1.72297" stroke-linejoin="round"/>
<path d="M289.864 238.076H395.999" stroke="black" stroke-width="1.72297" stroke-linejoin="round"/>
<path d="M289.864 227.213H395.999" stroke="black" stroke-width="1.72297" stroke-linejoin="round"/>
<path d="M289.864 216.354H395.999" stroke="black" stroke-width="1.72297" stroke-linejoin="round"/>
<path d="M289.864 205.495H395.999" stroke="black" stroke-width="1.72297" stroke-linejoin="round"/>
<path d="M289.864 194.636H395.999" stroke="black" stroke-width="1.72297" stroke-linejoin="round"/>
<path d="M289.864 183.772H395.999" stroke="black" stroke-width="1.72297" stroke-linejoin="round"/>
<path d="M257.602 156.226H260.819V265.23H232.05V181.778C232.05 167.675 243.499 156.226 257.602 156.226Z" fill="white" stroke="black" stroke-width="1.72297" stroke-linecap="round" stroke-linejoin="round"/>
<path d="M232.05 290.248V265.23" stroke="black" stroke-width="1.72297" stroke-linecap="round" stroke-linejoin="round"/>
<path d="M260.819 290.248H221.424" stroke="black" stroke-width="1.72297" stroke-linecap="round" stroke-linejoin="round"/>
<path d="M253.472 227.131C253.472 228.38 253.192 229.5 252.636 230.5C252.08 231.499 251.314 232.291 250.344 232.882C249.371 233.472 248.277 233.769 247.062 233.769C245.847 233.769 244.727 233.472 243.754 232.882C242.781 232.291 242.014 231.495 241.45 230.487C240.885 229.479 240.601 228.346 240.601 227.079C240.601 226.132 240.769 225.262 241.109 224.473C241.45 223.685 241.945 222.979 242.604 222.363L245.038 224.758C244.702 225.042 244.456 225.378 244.301 225.77C244.15 226.162 244.073 226.597 244.073 227.079C244.073 227.644 244.193 228.139 244.439 228.566C244.684 228.992 245.029 229.328 245.477 229.578C245.925 229.828 246.446 229.952 247.036 229.952C247.626 229.952 248.126 229.828 248.583 229.578C249.039 229.328 249.388 228.988 249.634 228.553C249.879 228.122 250 227.631 250 227.079C250 226.563 249.914 226.11 249.746 225.718C249.578 225.326 249.315 224.99 248.962 224.706L251.421 222.311C252.097 222.944 252.61 223.655 252.955 224.443C253.299 225.236 253.476 226.127 253.476 227.127" fill="#10A96C"/>
<path d="M240.876 213.455H241.923C241.613 213.778 241.346 214.149 241.131 214.579C240.795 215.247 240.622 215.984 240.622 216.802C240.622 217.918 240.907 218.917 241.471 219.796C242.035 220.679 242.802 221.368 243.762 221.868C244.727 222.367 245.826 222.617 247.058 222.617C248.29 222.617 249.362 222.367 250.327 221.868C251.292 221.368 252.05 220.683 252.61 219.809C253.166 218.934 253.446 217.939 253.446 216.828C253.446 215.996 253.286 215.247 252.963 214.584C252.756 214.153 252.494 213.778 252.175 213.459H253.191V209.789H240.876V213.459V213.455ZM249.177 214.041C249.728 214.549 250 215.225 250 216.074C250 216.608 249.875 217.082 249.621 217.495C249.366 217.913 249.022 218.241 248.582 218.482C248.143 218.723 247.635 218.844 247.062 218.844C246.489 218.844 245.951 218.723 245.503 218.482C245.055 218.241 244.706 217.913 244.452 217.495C244.197 217.082 244.073 216.595 244.073 216.048C244.073 215.501 244.197 215.019 244.452 214.601C244.706 214.183 245.05 213.86 245.49 213.627C245.929 213.395 246.446 213.279 247.036 213.279C247.915 213.279 248.63 213.533 249.177 214.041Z" fill="#00A6BF"/>
<path d="M240.648 200.748C240.6 200.985 240.579 201.239 240.579 201.515C240.579 202.157 240.734 202.76 241.044 203.324C241.354 203.888 241.772 204.383 242.302 204.801C242.44 204.909 242.582 205.012 242.728 205.103L240.868 205.176V208.639H253.191V204.969H247.001C246.631 204.969 246.295 204.913 246.002 204.797C245.709 204.681 245.451 204.526 245.235 204.327C245.02 204.129 244.852 203.884 244.736 203.595C244.619 203.307 244.559 202.992 244.559 202.656C244.559 202.35 244.593 202.057 244.662 201.773C244.731 201.489 244.822 201.265 244.929 201.097L240.812 200.089C240.751 200.287 240.695 200.507 240.648 200.744V200.748Z" fill="#8280B8"/>
<path d="M240.859 238.18H247.854C249.03 238.18 249.982 239.119 249.982 240.273C249.982 241.432 249.03 242.371 247.854 242.371H240.859V246.062H247.574C250.818 246.062 253.454 243.465 253.454 240.273C253.454 237.081 250.818 234.484 247.574 234.484H240.859V238.18Z" fill="#EF664E"/>
<path fill-rule="evenodd" clip-rule="evenodd" d="M51.5473 205.77C51.5473 187.438 43.4924 156.226 33.5552 156.226C23.6179 156.226 15.563 187.438 15.563 205.77C15.563 222.617 22.3688 221.609 31.1818 222.492V253.01H35.9243V222.492C44.7373 221.609 51.543 222.617 51.543 205.77H51.5473Z" fill="#8280B8" stroke="black" stroke-width="1.72297" stroke-linecap="round" stroke-linejoin="round"/>
<path d="M182.988 19.7539H182.08C182.08 9.32129 173.62 0.861481 163.187 0.861481C152.755 0.861481 144.295 9.32129 144.295 19.7539H143.386C135.495 19.7539 129.098 26.1504 129.098 34.0417C129.098 41.9329 135.495 48.3294 143.386 48.3294H182.988C190.88 48.3294 197.276 41.9329 197.276 34.0417C197.276 26.1504 190.88 19.7539 182.988 19.7539Z" fill="#8280B8" stroke="black" stroke-width="1.72297" stroke-linecap="round" stroke-linejoin="round"/>
</g>
<defs>
<clipPath id="clip0_831_3168">
<rect width="379" height="291" fill="white"/>
</clipPath>
</defs>
</svg>
