<svg width="1000" height="292" viewBox="0 0 1000 292" fill="none" xmlns="http://www.w3.org/2000/svg">
<g clip-path="url(#clip0_546_3953)">
<path d="M306.337 220.532H155.878V232.351H306.337V220.532Z" fill="#A9A9A9" stroke="black" stroke-width="1.72297" stroke-linecap="round" stroke-linejoin="round"/>
<path d="M155.882 177.26V237.671H94.7298C88.6606 237.671 83.7803 232.744 83.7803 226.735C83.7803 226.571 83.7803 226.407 83.7932 226.239L84.1852 217.362L84.2885 216.81C84.3833 216.285 84.5039 215.764 84.6461 215.251C86.4121 208.876 91.6198 203.815 98.3739 202.049L99.1406 201.851L101.704 201.179L104.676 200.403C108.496 199.404 111.925 197.354 114.535 194.511L128.659 179.12C129.745 177.936 131.313 177.26 132.958 177.26H155.882Z" fill="white" stroke="black" stroke-width="1.72297" stroke-linecap="round" stroke-linejoin="round"/>
<path d="M94.1524 212.356C91.2966 214.566 87.842 215.518 84.6416 215.255C86.4077 208.876 91.6153 203.819 98.3694 202.053L99.1361 201.851C99.4635 205.585 97.7104 209.604 94.1524 212.356Z" fill="white" stroke="black" stroke-width="1.72297" stroke-miterlimit="10"/>
<path d="M136.245 182.631C134.156 182.631 132.17 183.488 130.792 184.987L120.76 195.894C119.48 197.285 118.774 199.073 118.774 200.92V205.297C118.774 207.537 121.096 209.109 123.318 208.368L150.244 199.404V182.631H136.245Z" fill="white" stroke="black" stroke-width="1.72297" stroke-miterlimit="10"/>
<path d="M155.878 177.259H125.467C125.467 164.85 134.142 153.956 146.69 150.618L155.878 148.176V177.259Z" fill="white" stroke="black" stroke-width="1.72297" stroke-miterlimit="10"/>
<path d="M306.337 148.176H155.878V220.532H306.337V148.176Z" fill="white" stroke="black" stroke-width="1.72297" stroke-miterlimit="10"/>
<path d="M311.001 209.803L306.28 209.751L306.715 170.566C306.728 169.537 308.141 169.27 308.529 170.222C308.882 171.092 309.089 172.013 309.136 172.944L311.001 209.803Z" fill="#A9A9A9" stroke="black" stroke-width="1.72297" stroke-linecap="round" stroke-linejoin="round"/>
<path d="M311.062 214.536C313.805 214.536 316.029 212.417 316.029 209.802C316.029 207.188 313.805 205.069 311.062 205.069C308.319 205.069 306.096 207.188 306.096 209.802C306.096 212.417 308.319 214.536 311.062 214.536Z" fill="white" stroke="black" stroke-width="1.72297" stroke-miterlimit="10"/>
<path d="M225.077 195.472C223.22 195.472 221.545 195.075 220.059 194.283C218.573 193.49 217.388 192.405 216.509 191.026C215.631 189.648 215.191 188.093 215.191 186.37C215.191 184.647 215.631 183.053 216.509 181.675C217.388 180.296 218.577 179.207 220.076 178.401C221.575 177.6 223.268 177.195 225.15 177.195C226.563 177.195 227.855 177.436 229.035 177.914C230.211 178.393 231.258 179.103 232.176 180.038L228.609 183.493C228.187 183.014 227.687 182.666 227.106 182.45C226.524 182.235 225.874 182.127 225.155 182.127C224.31 182.127 223.574 182.299 222.945 182.648C222.312 182.997 221.812 183.488 221.442 184.121C221.071 184.759 220.886 185.495 220.886 186.335C220.886 187.175 221.071 187.882 221.442 188.528C221.812 189.174 222.32 189.674 222.966 190.023C223.612 190.372 224.34 190.544 225.159 190.544C225.926 190.544 226.602 190.423 227.183 190.182C227.765 189.941 228.269 189.57 228.687 189.066L232.253 192.555C231.31 193.516 230.25 194.24 229.074 194.731C227.898 195.222 226.567 195.467 225.077 195.467" fill="#10A96C"/>
<path d="M245.447 177.596V179.082C244.969 178.638 244.413 178.263 243.776 177.953C242.785 177.475 241.682 177.234 240.468 177.234C238.809 177.234 237.319 177.634 236.009 178.44C234.696 179.245 233.666 180.327 232.925 181.696C232.18 183.062 231.81 184.621 231.81 186.374C231.81 188.127 232.18 189.648 232.925 191.013C233.67 192.379 234.691 193.46 235.992 194.253C237.293 195.045 238.775 195.441 240.433 195.441C241.674 195.441 242.785 195.213 243.78 194.757C244.422 194.464 244.977 194.089 245.451 193.641V195.08H250.913V177.6H245.451L245.447 177.596ZM244.573 189.377C243.814 190.156 242.806 190.544 241.544 190.544C240.752 190.544 240.045 190.363 239.425 190.005C238.805 189.648 238.314 189.153 237.956 188.532C237.599 187.908 237.418 187.188 237.418 186.374C237.418 185.56 237.599 184.798 237.956 184.16C238.314 183.527 238.805 183.027 239.425 182.666C240.045 182.308 240.765 182.127 241.579 182.127C242.393 182.127 243.117 182.308 243.733 182.666C244.353 183.027 244.835 183.518 245.184 184.139C245.529 184.763 245.705 185.496 245.705 186.331C245.705 187.576 245.326 188.593 244.573 189.372V189.377Z" fill="#00A6BF"/>
<path d="M264.369 177.272C264.016 177.208 263.637 177.173 263.228 177.173C262.271 177.173 261.371 177.393 260.531 177.832C259.691 178.272 258.955 178.866 258.33 179.616C258.166 179.809 258.016 180.012 257.878 180.219L257.766 177.578H252.61V195.071H258.072V186.284C258.072 185.754 258.158 185.28 258.326 184.862C258.498 184.444 258.731 184.082 259.024 183.772C259.321 183.462 259.683 183.23 260.118 183.062C260.548 182.898 261.018 182.812 261.518 182.812C261.974 182.812 262.409 182.859 262.831 182.963C263.254 183.062 263.59 183.187 263.839 183.342L265.343 177.496C265.045 177.41 264.722 177.333 264.369 177.264V177.272Z" fill="#8280B8"/>
<path d="M208.622 177.57V187.494C208.622 189.161 207.226 190.514 205.499 190.514C203.776 190.514 202.376 189.161 202.376 187.494V177.57H196.875V187.102C196.875 191.703 200.744 195.446 205.499 195.446C210.254 195.446 214.122 191.703 214.122 187.102V177.57H208.622Z" fill="#EF664E"/>
<path d="M123.245 237.671H94.7298C88.6606 237.671 83.7803 232.743 83.7803 226.735C83.7803 226.571 83.7803 226.407 83.7932 226.239H114.652L123.245 237.671Z" fill="#A9A9A9" stroke="black" stroke-width="1.72297" stroke-linecap="round" stroke-linejoin="round"/>
<path d="M129.098 240.01C129.098 240.238 129.094 240.467 129.081 240.695C128.706 247.983 122.392 253.781 114.651 253.781C106.911 253.781 100.592 247.983 100.221 240.695C100.208 240.467 100.204 240.238 100.204 240.01C100.204 235.828 102.16 232.08 105.248 229.556C107.777 227.488 111.063 226.239 114.656 226.239C118.248 226.239 121.535 227.488 124.063 229.556C127.151 232.08 129.107 235.828 129.107 240.01H129.098Z" fill="white" stroke="black" stroke-width="1.72297" stroke-linecap="round" stroke-linejoin="round"/>
<path d="M114.651 246.196C118.234 246.196 121.138 243.428 121.138 240.014C121.138 236.601 118.234 233.833 114.651 233.833C111.068 233.833 108.164 236.601 108.164 240.014C108.164 243.428 111.068 246.196 114.651 246.196Z" fill="white" stroke="black" stroke-width="1.72297" stroke-linecap="round" stroke-linejoin="round"/>
<path d="M269.559 240.01C269.559 240.238 269.555 240.467 269.542 240.695C269.167 247.983 262.853 253.781 255.112 253.781C247.372 253.781 241.053 247.983 240.682 240.695C240.669 240.467 240.665 240.238 240.665 240.01C240.665 235.828 242.621 232.08 245.709 229.556C248.238 227.488 251.524 226.239 255.117 226.239C258.709 226.239 261.995 227.488 264.524 229.556C267.612 232.08 269.568 235.828 269.568 240.01H269.559Z" fill="white" stroke="black" stroke-width="1.72297" stroke-linecap="round" stroke-linejoin="round"/>
<path d="M255.112 246.196C258.695 246.196 261.599 243.428 261.599 240.014C261.599 236.601 258.695 233.833 255.112 233.833C251.53 233.833 248.625 236.601 248.625 240.014C248.625 243.428 251.53 246.196 255.112 246.196Z" fill="white" stroke="black" stroke-width="1.72297" stroke-linecap="round" stroke-linejoin="round"/>
<path d="M0.861328 253.721H998.58" stroke="black" stroke-width="1.72297" stroke-linecap="round" stroke-linejoin="round"/>
<path d="M278.902 229.991C278.902 230.719 278.721 231.456 278.334 232.124L276.089 236.052C276.038 236.147 275.982 236.237 275.926 236.328C274.547 238.576 272.165 239.989 269.559 240.234C268.448 231.017 260.6 223.875 251.085 223.875C247.802 223.875 244.718 224.723 242.039 226.218C236.233 229.453 229.81 231.439 223.173 231.826L168.989 234.988C163.894 235.285 158.841 233.67 154.964 230.353C152.173 227.963 148.546 226.515 144.579 226.515C140.612 226.515 136.976 227.967 134.181 230.362C131.584 232.593 128.418 234.066 125.058 234.734L115.25 236.689L114.573 232.171C114.453 231.378 114.41 230.586 114.44 229.811C114.634 224.258 118.429 219.335 123.977 217.862L125.303 217.508L152.126 210.38C152.828 210.47 153.526 210.556 154.228 210.638C154.31 210.647 154.387 210.655 154.469 210.664C155.098 210.737 155.731 210.802 156.364 210.866C159.401 211.168 162.446 211.37 165.496 211.465C166.237 211.491 166.978 211.508 167.719 211.521C169.485 211.551 171.251 211.547 173.017 211.504C174.033 211.478 175.054 211.448 176.071 211.401L208.097 209.979L242.763 208.437C245.52 208.312 247.69 206.042 247.69 203.285C247.69 202.282 247.398 201.321 246.881 200.507C246.359 199.693 245.614 199.025 244.701 198.603L230.702 192.125H245.718C249.004 192.125 252.192 193.227 254.776 195.261L271.597 209.264C274.504 211.685 276.094 215.338 275.883 219.115L275.663 223.005C275.581 224.405 276.188 225.749 277.283 226.619C278.342 227.459 278.906 228.712 278.906 229.987L278.902 229.991Z" fill="white" stroke="black" stroke-width="1.72297" stroke-linecap="round" stroke-linejoin="round"/>
<path d="M160.542 241.841L128.611 242.302L116.12 242.483L115.254 236.685L125.066 234.729C128.426 234.062 131.588 232.588 134.189 230.357C136.985 227.958 140.616 226.511 144.588 226.511C148.559 226.511 152.182 227.954 154.973 230.349C158.849 233.67 163.902 235.281 168.998 234.988L223.181 231.826C229.819 231.438 236.241 229.453 242.048 226.218C244.727 224.727 247.811 223.875 251.093 223.875C260.608 223.875 268.456 231.016 269.568 240.234C269.339 240.256 269.107 240.269 268.874 240.273L160.542 241.841Z" fill="#A9A9A9" stroke="black" stroke-width="1.72297" stroke-linecap="round" stroke-linejoin="round"/>
<path d="M247.686 203.285C247.686 206.042 245.515 208.316 242.758 208.437L176.066 211.401C168.072 211.754 160.06 211.413 152.125 210.375L175.265 197.177C181.071 193.865 187.645 192.125 194.33 192.125H230.693L244.692 198.603C245.605 199.025 246.351 199.693 246.872 200.507C247.393 201.321 247.686 202.282 247.686 203.285Z" fill="white" stroke="black" stroke-width="1.72297" stroke-linecap="round" stroke-linejoin="round"/>
<path d="M208.087 209.975L210.164 192.125" stroke="black" stroke-width="1.72297" stroke-linecap="round" stroke-linejoin="round"/>
<path d="M185.977 223.358C185.189 223.396 184.465 223.258 183.815 222.935C183.164 222.612 182.639 222.156 182.23 221.561C181.825 220.967 181.601 220.282 181.562 219.511C181.523 218.731 181.674 218.021 182.019 217.387C182.363 216.754 182.841 216.242 183.462 215.85C184.082 215.458 184.793 215.242 185.59 215.204C186.188 215.173 186.744 215.251 187.257 215.441C187.769 215.63 188.23 215.923 188.639 216.319L187.201 217.939C187.011 217.732 186.787 217.59 186.537 217.504C186.283 217.422 186.007 217.387 185.702 217.4C185.344 217.418 185.034 217.512 184.771 217.68C184.508 217.848 184.31 218.081 184.164 218.37C184.022 218.662 183.957 218.994 183.979 219.369C183.996 219.731 184.091 220.054 184.267 220.334C184.439 220.614 184.668 220.825 184.948 220.967C185.228 221.109 185.546 221.169 185.891 221.152C186.218 221.135 186.503 221.066 186.744 220.95C186.985 220.829 187.192 220.652 187.36 220.42L188.958 221.902C188.579 222.35 188.144 222.699 187.657 222.94C187.166 223.185 186.606 223.323 185.973 223.353L185.977 223.358Z" fill="#10A96C"/>
<path d="M196.557 214.82L194.235 214.941L194.27 215.604C194.055 215.419 193.813 215.26 193.533 215.139C193.103 214.945 192.629 214.863 192.112 214.889C191.405 214.928 190.785 215.139 190.242 215.522C189.7 215.91 189.29 216.414 189.002 217.043C188.718 217.668 188.593 218.374 188.636 219.154C188.675 219.925 188.868 220.605 189.217 221.2C189.566 221.794 190.023 222.251 190.596 222.578C191.169 222.905 191.806 223.048 192.512 223.013C193.038 222.987 193.507 222.862 193.921 222.634C194.188 222.492 194.416 222.311 194.606 222.1L194.64 222.742L196.962 222.625L196.566 214.825L196.557 214.82ZM194.132 220.213C193.826 220.579 193.408 220.773 192.87 220.799C192.53 220.816 192.228 220.752 191.957 220.605C191.685 220.459 191.466 220.248 191.298 219.981C191.13 219.709 191.039 219.395 191.022 219.029C191.005 218.654 191.061 218.322 191.199 218.029C191.337 217.736 191.535 217.504 191.789 217.332C192.043 217.159 192.344 217.06 192.693 217.043C193.042 217.026 193.352 217.09 193.624 217.237C193.895 217.383 194.11 217.594 194.274 217.866C194.438 218.137 194.528 218.46 194.546 218.835C194.576 219.391 194.438 219.851 194.132 220.213Z" fill="#00A6BF"/>
<path d="M202.273 214.385C202.122 214.364 201.958 214.355 201.786 214.364C201.381 214.385 201.002 214.502 200.653 214.717C200.304 214.932 200.007 215.212 199.757 215.561C199.692 215.652 199.632 215.747 199.58 215.841L199.473 214.665L197.28 214.777L197.677 222.582L199.998 222.466L199.8 218.546C199.787 218.31 199.813 218.098 199.878 217.909C199.942 217.719 200.033 217.551 200.149 217.409C200.27 217.267 200.416 217.151 200.597 217.069C200.778 216.987 200.972 216.94 201.187 216.927C201.381 216.918 201.566 216.927 201.747 216.966C201.928 217 202.074 217.052 202.182 217.112L202.686 214.472C202.557 214.437 202.419 214.411 202.268 214.39L202.273 214.385Z" fill="#8280B8"/>
<path d="M178.578 215.725L178.802 220.153C178.841 220.898 178.276 221.531 177.544 221.57C176.812 221.609 176.187 221.036 176.148 220.291L175.924 215.863L173.585 215.983L173.801 220.235C173.904 222.289 175.636 223.875 177.656 223.771C179.676 223.668 181.235 221.915 181.132 219.86L180.917 215.609L178.578 215.729V215.725Z" fill="#EF664E"/>
<path d="M144.584 253.876C150.874 253.876 155.973 248.777 155.973 242.487C155.973 236.197 150.874 231.098 144.584 231.098C138.294 231.098 133.195 236.197 133.195 242.487C133.195 248.777 138.294 253.876 144.584 253.876Z" fill="white" stroke="black" stroke-width="1.72297" stroke-linecap="round" stroke-linejoin="round"/>
<path d="M144.583 249.405C148.404 249.405 151.501 246.308 151.501 242.487C151.501 238.667 148.404 235.569 144.583 235.569C140.763 235.569 137.666 238.667 137.666 242.487C137.666 246.308 140.763 249.405 144.583 249.405Z" fill="white" stroke="black" stroke-width="1.72297" stroke-linecap="round" stroke-linejoin="round"/>
<path d="M251.09 253.876C257.379 253.876 262.478 248.777 262.478 242.487C262.478 236.197 257.379 231.098 251.09 231.098C244.8 231.098 239.701 236.197 239.701 242.487C239.701 248.777 244.8 253.876 251.09 253.876Z" fill="white" stroke="black" stroke-width="1.72297" stroke-linecap="round" stroke-linejoin="round"/>
<path d="M251.089 249.405C254.909 249.405 258.006 246.308 258.006 242.487C258.006 238.667 254.909 235.569 251.089 235.569C247.268 235.569 244.171 238.667 244.171 242.487C244.171 246.308 247.268 249.405 251.089 249.405Z" fill="white" stroke="black" stroke-width="1.72297" stroke-linecap="round" stroke-linejoin="round"/>
<path d="M265.316 203.94V257.529H181.201V237.508C181.201 232.688 184.397 228.454 189.027 227.131L191.185 226.515L205.796 222.342C211.077 220.834 215.919 218.069 219.903 214.291L226.868 207.683C229.397 205.284 232.752 203.944 236.237 203.944H265.308L265.316 203.94Z" fill="white" stroke="black" stroke-width="1.72297" stroke-linecap="round" stroke-linejoin="round"/>
<path d="M181.205 238.968C187.645 238.968 192.865 233.747 192.865 227.308V226.033" fill="white"/>
<path d="M181.205 238.968C187.645 238.968 192.865 233.747 192.865 227.308V226.033" stroke="black" stroke-width="1.72297" stroke-linecap="round" stroke-linejoin="round"/>
<path d="M300.06 203.94H265.316V257.529H300.06V203.94Z" fill="white" stroke="black" stroke-width="1.72297" stroke-linecap="round" stroke-linejoin="round"/>
<path d="M334.808 209.587V251.877C334.808 254.996 332.28 257.524 329.157 257.524H300.064V203.936H329.157C332.28 203.936 334.808 206.464 334.808 209.583V209.587Z" fill="white" stroke="black" stroke-width="1.72297" stroke-linecap="round" stroke-linejoin="round"/>
<path d="M334.804 228.475H284.347C277.347 228.475 270.584 225.934 265.316 221.329" stroke="black" stroke-width="1.72297" stroke-linecap="round" stroke-linejoin="round"/>
<path d="M334.808 249.913V251.877C334.808 254.996 332.28 257.524 329.157 257.524H181.205V249.909H334.808V249.913Z" fill="#A9A9A9" stroke="black" stroke-width="1.72297" stroke-linecap="round" stroke-linejoin="round"/>
<path d="M211.603 269.184C218.04 269.184 223.259 263.966 223.259 257.528C223.259 251.091 218.04 245.873 211.603 245.873C205.165 245.873 199.947 251.091 199.947 257.528C199.947 263.966 205.165 269.184 211.603 269.184Z" fill="white" stroke="black" stroke-width="1.72297" stroke-linecap="round" stroke-linejoin="round"/>
<path d="M211.602 263.589C214.949 263.589 217.663 260.876 217.663 257.529C217.663 254.181 214.949 251.468 211.602 251.468C208.255 251.468 205.542 254.181 205.542 257.529C205.542 260.876 208.255 263.589 211.602 263.589Z" fill="white" stroke="black" stroke-width="1.72297" stroke-linecap="round" stroke-linejoin="round"/>
<path d="M315.442 269.184C321.879 269.184 327.097 263.966 327.097 257.528C327.097 251.091 321.879 245.873 315.442 245.873C309.004 245.873 303.786 251.091 303.786 257.528C303.786 263.966 309.004 269.184 315.442 269.184Z" fill="white" stroke="black" stroke-width="1.72297" stroke-linecap="round" stroke-linejoin="round"/>
<path d="M315.441 263.589C318.789 263.589 321.502 260.876 321.502 257.529C321.502 254.181 318.789 251.468 315.441 251.468C312.094 251.468 309.381 254.181 309.381 257.529C309.381 260.876 312.094 263.589 315.441 263.589Z" fill="white" stroke="black" stroke-width="1.72297" stroke-linecap="round" stroke-linejoin="round"/>
<path d="M214.747 218.314C214.747 223.926 219.296 228.475 224.908 228.475H249.064C254.677 228.475 259.226 223.926 259.226 218.314V203.936" stroke="black" stroke-width="1.72297" stroke-linecap="round" stroke-linejoin="round"/>
<path d="M752.367 132.333H247.144V280.763H752.367V132.333Z" fill="#8280B8" stroke="black" stroke-width="1.72297" stroke-linecap="round" stroke-linejoin="round"/>
<path d="M752.367 55.8716H247.144V132.333H752.367V55.8716Z" fill="#8280B8" stroke="black" stroke-width="1.72297" stroke-linecap="round" stroke-linejoin="round"/>
<path d="M408.189 280.758V156.209H277.67V280.758H408.189Z" fill="#8280B8" stroke="black" stroke-width="1.72297" stroke-linecap="round" stroke-linejoin="round"/>
<path d="M478.617 120.044C473.654 120.044 469.188 118.937 465.216 116.718C461.245 114.5 458.087 111.459 455.74 107.595C453.392 103.731 452.216 99.3808 452.216 94.5435C452.216 89.7063 453.392 85.2567 455.74 81.3886C458.087 77.5248 461.262 74.4666 465.268 72.2181C469.269 69.9653 473.788 68.8411 478.815 68.8411C482.588 68.8411 486.043 69.513 489.187 70.8569C492.327 72.2009 495.127 74.1823 497.574 76.8055L488.046 86.48C486.921 85.1361 485.582 84.1626 484.027 83.5553C482.472 82.9522 480.736 82.6464 478.815 82.6464C476.566 82.6464 474.598 83.1331 472.909 84.1066C471.221 85.0801 469.881 86.4585 468.89 88.2374C467.9 90.0207 467.4 92.084 467.4 94.4358C467.4 96.7877 467.895 98.7691 468.89 100.583C469.881 102.396 471.238 103.792 472.961 104.765C474.68 105.739 476.635 106.225 478.815 106.225C480.865 106.225 482.67 105.889 484.225 105.217C485.78 104.545 487.119 103.503 488.244 102.094L497.772 111.872C495.256 114.56 492.426 116.593 489.286 117.972C486.142 119.35 482.588 120.039 478.617 120.039" fill="#10A96C"/>
<path d="M533.015 69.9481V74.1134C531.736 72.8729 530.25 71.8175 528.549 70.9561C525.9 69.6121 522.958 68.9402 519.714 68.9402C515.282 68.9402 511.31 70.0644 507.804 72.3172C504.298 74.57 501.55 77.6111 499.564 81.4404C497.578 85.2697 496.587 89.6374 496.587 94.5436C496.587 99.4498 497.578 103.714 499.564 107.543C501.55 111.373 504.281 114.397 507.752 116.615C511.228 118.833 515.178 119.94 519.615 119.94C522.923 119.94 525.9 119.303 528.549 118.028C530.259 117.205 531.745 116.158 533.015 114.901V118.937H547.605V69.9524H533.015V69.9481ZM530.685 102.96C528.665 105.144 525.968 106.238 522.596 106.238C520.476 106.238 518.59 105.734 516.94 104.726C515.286 103.718 513.977 102.344 513.02 100.596C512.06 98.8467 511.582 96.8351 511.582 94.5479C511.582 92.2606 512.06 90.1285 513.02 88.3495C513.981 86.5705 515.286 85.1749 516.94 84.167C518.594 83.159 520.511 82.6551 522.695 82.6551C524.879 82.6551 526.795 83.159 528.449 84.167C530.104 85.1749 531.391 86.5533 532.322 88.3021C533.248 90.0509 533.713 92.097 533.713 94.4488C533.713 97.9422 532.705 100.781 530.685 102.965V102.96Z" fill="#00A6BF"/>
<path d="M583.541 69.0437C582.598 68.8584 581.581 68.7637 580.487 68.7637C577.937 68.7637 575.534 69.3796 573.285 70.6159C571.037 71.8521 569.077 73.5191 567.405 75.6125C566.97 76.1595 566.57 76.7238 566.199 77.3053L565.902 69.9095H552.131V118.928H566.721V94.3068C566.721 92.825 566.949 91.4983 567.405 90.3267C567.862 89.1551 568.482 88.1385 569.275 87.2727C570.063 86.4112 571.037 85.7479 572.191 85.2827C573.345 84.8218 574.59 84.5892 575.93 84.5892C577.145 84.5892 578.312 84.727 579.436 85.007C580.56 85.2827 581.456 85.6402 582.124 86.071L586.134 69.6898C585.346 69.4442 584.48 69.2289 583.537 69.0437H583.541Z" fill="#8280B8"/>
<path d="M434.681 69.8792V97.6923C434.681 102.366 430.951 106.156 426.346 106.156C421.741 106.156 418.011 102.366 418.011 97.6923V69.8792H403.323V96.5853C403.323 109.477 413.652 119.966 426.346 119.966C439.04 119.966 449.374 109.477 449.374 96.5853V69.8792H434.681Z" fill="#EF664E"/>
<path d="M395.999 168.404H289.864V280.763H395.999V168.404Z" fill="#8280B8" stroke="black" stroke-width="1.72297" stroke-linecap="round" stroke-linejoin="round"/>
<path d="M289.864 270.653H395.999" stroke="black" stroke-width="1.72297" stroke-linejoin="round"/>
<path d="M289.864 259.794H395.999" stroke="black" stroke-width="1.72297" stroke-linejoin="round"/>
<path d="M289.864 248.935H395.999" stroke="black" stroke-width="1.72297" stroke-linejoin="round"/>
<path d="M289.864 238.076H395.999" stroke="black" stroke-width="1.72297" stroke-linejoin="round"/>
<path d="M289.864 227.213H395.999" stroke="black" stroke-width="1.72297" stroke-linejoin="round"/>
<path d="M289.864 216.354H395.999" stroke="black" stroke-width="1.72297" stroke-linejoin="round"/>
<path d="M289.864 205.495H395.999" stroke="black" stroke-width="1.72297" stroke-linejoin="round"/>
<path d="M289.864 194.636H395.999" stroke="black" stroke-width="1.72297" stroke-linejoin="round"/>
<path d="M289.864 183.772H395.999" stroke="black" stroke-width="1.72297" stroke-linejoin="round"/>
<path d="M446.685 280.763V156.213H434.495V280.763H446.685Z" fill="#10A96C" stroke="black" stroke-width="1.72297" stroke-linecap="round" stroke-linejoin="round"/>
<path d="M704.886 168.404H446.685V280.763H704.886V168.404Z" fill="white" stroke="black" stroke-width="1.72297" stroke-linecap="round" stroke-linejoin="round"/>
<path d="M675.104 261.569H710.158C709.21 247.665 706.316 231.301 697.942 231.301C683.383 231.301 688.982 253.432 677.783 253.432C676.594 253.432 675.448 253.531 674.354 253.734C669.651 254.604 670.327 261.565 675.108 261.565L675.104 261.569Z" fill="white" stroke="black" stroke-width="1.72297" stroke-linecap="round" stroke-linejoin="round"/>
<path d="M710.154 261.569V280.763" stroke="black" stroke-width="1.72297" stroke-linecap="round" stroke-linejoin="round"/>
<path d="M694.631 261.569V280.763" stroke="black" stroke-width="1.72297" stroke-linecap="round" stroke-linejoin="round"/>
<path d="M679.102 261.569V280.763" stroke="black" stroke-width="1.72297" stroke-linecap="round" stroke-linejoin="round"/>
<path d="M674.2 261.569V280.763" stroke="black" stroke-width="1.72297" stroke-linecap="round" stroke-linejoin="round"/>
<path d="M663.556 172.487H446.685V280.767H663.556V172.487Z" fill="#EF664E" stroke="black" stroke-width="1.72297" stroke-linecap="round" stroke-linejoin="round"/>
<path d="M663.56 191.586H485.844V280.767H663.56V191.586Z" fill="white" stroke="black" stroke-width="1.72297" stroke-linecap="round" stroke-linejoin="round"/>
<path d="M512.124 179.994H470.337C463.267 179.994 457.536 185.726 457.536 192.796V256.374C457.536 263.444 463.267 269.176 470.337 269.176H512.124C519.194 269.176 524.926 263.444 524.926 256.374V192.796C524.926 185.726 519.194 179.994 512.124 179.994Z" fill="#00A6BF" stroke="black" stroke-width="1.72297" stroke-linecap="round" stroke-linejoin="round"/>
<path d="M510.935 280.763H524.921C524.921 280.763 524.598 275.904 520.842 274.905C520.308 274.763 519.955 274.121 519.744 273.126H511.766L510.939 280.767L510.935 280.763Z" fill="black" stroke="black" stroke-width="1.72297" stroke-linecap="round" stroke-linejoin="round"/>
<path d="M515.023 241.259L511.758 273.125H519.735C518.456 267.117 522.315 248.203 522.315 248.203" fill="white"/>
<path d="M515.023 241.259L511.758 273.125H519.735C518.456 267.117 522.315 248.203 522.315 248.203" stroke="black" stroke-width="1.72297" stroke-linecap="round" stroke-linejoin="round"/>
<path d="M524.051 201.187C526.566 201.187 525.92 204.866 527.225 206.171C528.53 207.476 530.439 209.057 528.599 209.543C526.76 210.026 528.117 214.127 526.084 216.16C524.051 218.193 517.758 219.278 516.306 214.575C514.854 209.871 513.304 201.191 524.051 201.191V201.187Z" fill="white" stroke="black" stroke-width="1.72297" stroke-linecap="round" stroke-linejoin="round"/>
<path d="M527.226 212.697C527.226 212.697 526.455 213.356 524.357 211.753L527.226 212.697Z" fill="white"/>
<path d="M527.226 212.697C527.226 212.697 526.455 213.356 524.357 211.753" stroke="black" stroke-width="1.72297" stroke-linecap="round" stroke-linejoin="round"/>
<path d="M523.892 207.42C524.237 207.42 524.516 207.14 524.516 206.795C524.516 206.45 524.237 206.171 523.892 206.171C523.547 206.171 523.267 206.45 523.267 206.795C523.267 207.14 523.547 207.42 523.892 207.42Z" fill="black"/>
<path d="M542.318 231.529C540.165 231.529 533.131 227.906 530.003 224.779C528.272 223.047 525.584 219.386 522.948 217.896C521.841 217.271 519.252 218.029 518.223 217.125C516.444 215.57 515.927 222.294 515.281 228.018C514.635 233.743 515.026 241.259 515.026 241.259H525.972C525.972 241.259 524.822 232.61 524.567 229.168C524.559 229.048 524.727 229.005 524.774 229.117C525.214 230.172 526.29 232.093 529.133 233.286C533.29 235.031 538.127 236.749 542.323 235.289V231.524L542.318 231.529Z" fill="#A9A9A9" stroke="black" stroke-width="1.72297" stroke-linecap="round" stroke-linejoin="round"/>
<path d="M523.543 280.762H540.118C539.807 278.712 538.214 277.105 536.168 276.748C534.557 276.468 532.898 275.77 532.175 273.121H523.474C523.611 277.485 523.543 280.762 523.543 280.762Z" fill="black" stroke="black" stroke-width="1.72297" stroke-linecap="round" stroke-linejoin="round"/>
<path d="M515.022 241.259H525.968C525.968 241.259 531.3 263.339 531.83 270.989C531.886 271.812 532.007 272.518 532.175 273.125H523.474C523.31 267.866 522.853 261.026 521.634 256.434C520.799 253.285 520.062 251.287 519.476 250.025" fill="white"/>
<path d="M515.022 241.259H525.968C525.968 241.259 531.3 263.339 531.83 270.989C531.886 271.812 532.007 272.518 532.175 273.125H523.474C523.31 267.866 522.853 261.026 521.634 256.434C520.799 253.285 520.062 251.287 519.476 250.025" stroke="black" stroke-width="1.72297" stroke-linecap="round" stroke-linejoin="round"/>
<path d="M514.609 209.755C514.795 210.254 515.195 210.651 515.703 210.819C518.637 211.818 515.794 208.605 516.901 207.265C518.366 205.495 520.058 206.925 520.261 206.167C521.195 202.695 521.135 202.174 518.378 202.174C515.622 202.174 513.645 202.484 513.645 205.085C513.645 206.864 514.235 208.738 514.605 209.746L514.609 209.755Z" fill="black" stroke="black" stroke-width="1.72297" stroke-linecap="round" stroke-linejoin="round"/>
<path d="M548.026 233.536C546.523 232.515 544.511 231.533 542.319 231.533V235.298L547.311 235.608C548.461 235.681 548.978 234.186 548.022 233.54L548.026 233.536Z" fill="white" stroke="black" stroke-width="1.72297" stroke-miterlimit="10"/>
<path d="M535.771 236.048V280.763H530.326V241.497H473.171V280.763H467.722V236.048H535.771Z" fill="#8280B8" stroke="black" stroke-width="1.72297" stroke-linecap="round" stroke-linejoin="round"/>
<path d="M593.146 280.763H579.16C579.16 280.763 579.483 275.904 583.239 274.905C583.773 274.763 584.127 274.121 584.338 273.126H592.315L593.142 280.767L593.146 280.763Z" fill="black" stroke="black" stroke-width="1.72297" stroke-linecap="round" stroke-linejoin="round"/>
<path d="M589.059 242.922L592.324 273.122H584.347C585.626 267.113 581.767 248.199 581.767 248.199" fill="white"/>
<path d="M589.059 242.922L592.324 273.122H584.347C585.626 267.113 581.767 248.199 581.767 248.199" stroke="black" stroke-width="1.72297" stroke-linecap="round" stroke-linejoin="round"/>
<path d="M555.806 222.315C556.314 218.473 564.443 222.315 564.443 222.315V228.147C564.443 228.147 555.298 226.153 555.806 222.315Z" fill="white" stroke="black" stroke-width="1.72297" stroke-linecap="round" stroke-linejoin="round"/>
<path d="M580.03 201.187C577.515 201.187 578.161 204.866 576.856 206.171C575.551 207.476 573.643 209.057 575.482 209.544C577.321 210.026 575.964 214.127 577.997 216.16C580.03 218.193 586.324 219.278 587.775 214.575C589.227 209.871 590.777 201.192 580.03 201.192V201.187Z" fill="white" stroke="black" stroke-width="1.72297" stroke-linecap="round" stroke-linejoin="round"/>
<path d="M576.856 212.697C576.856 212.697 579.376 213.356 581.478 211.753L576.856 212.697Z" fill="white"/>
<path d="M576.856 212.697C576.856 212.697 579.376 213.356 581.478 211.753" stroke="black" stroke-width="1.72297" stroke-linecap="round" stroke-linejoin="round"/>
<path d="M580.19 207.42C580.535 207.42 580.815 207.14 580.815 206.795C580.815 206.451 580.535 206.171 580.19 206.171C579.846 206.171 579.566 206.451 579.566 206.795C579.566 207.14 579.846 207.42 580.19 207.42Z" fill="black"/>
<path d="M577.795 203.914C577.795 203.914 573.031 202.914 574.289 200.765C575.547 198.616 576.077 196.427 580.19 198.331C584.304 200.235 586.574 199.102 588.155 201.006C589.736 202.91 588.762 209.724 588.762 209.724C588.762 209.724 586.29 205.219 584.868 204.814C583.447 204.409 577.795 203.905 577.795 203.905V203.914Z" fill="black" stroke="black" stroke-width="1.72297" stroke-linecap="round" stroke-linejoin="round"/>
<path d="M564.442 222.315C566.596 222.315 570.322 225.838 574.078 224.783C576.434 224.12 578.498 219.39 581.134 217.9C582.241 217.275 584.829 218.033 585.859 217.129C587.638 215.574 588.155 222.298 588.801 228.022C589.447 233.747 589.055 242.926 589.055 242.926H578.11C578.11 242.926 579.566 229.892 579.566 228.242C579.566 228.242 579.174 232.106 574.72 232.106C570.266 232.106 568.638 229.607 564.442 228.152V222.319V222.315Z" fill="white" stroke="black" stroke-width="1.72297" stroke-linecap="round" stroke-linejoin="round"/>
<path d="M580.534 280.763H563.959C564.27 278.712 565.863 277.106 567.909 276.748C569.52 276.468 571.179 275.77 571.902 273.121H580.603C580.466 277.485 580.534 280.763 580.534 280.763Z" fill="black" stroke="black" stroke-width="1.72297" stroke-linecap="round" stroke-linejoin="round"/>
<path d="M584.605 250.021C584.015 251.287 583.283 253.286 582.447 256.43C581.228 261.018 580.771 267.858 580.608 273.121H571.907C572.075 272.518 572.191 271.812 572.251 270.985C572.781 263.335 578.114 242.918 578.114 242.918" fill="white"/>
<path d="M584.605 250.021C584.015 251.287 583.283 253.286 582.447 256.43C581.228 261.018 580.771 267.858 580.608 273.121H571.907C572.075 272.518 572.191 271.812 572.251 270.985C572.781 263.335 578.114 242.918 578.114 242.918" stroke="black" stroke-width="1.72297" stroke-linecap="round" stroke-linejoin="round"/>
<path d="M603.824 236.048V280.763H598.375V241.497H541.22V280.763H535.771V236.048H603.824Z" fill="#10A96C" stroke="black" stroke-width="1.72297" stroke-linecap="round" stroke-linejoin="round"/>
<path d="M649.944 261.569H614.89C615.838 247.665 618.732 231.301 627.106 231.301C641.665 231.301 636.066 253.432 647.265 253.432C648.454 253.432 649.599 253.531 650.694 253.734C655.397 254.604 654.721 261.565 649.94 261.565L649.944 261.569Z" fill="white" stroke="black" stroke-width="1.72297" stroke-linecap="round" stroke-linejoin="round"/>
<path d="M614.894 261.569V280.763" stroke="black" stroke-width="1.72297" stroke-linecap="round" stroke-linejoin="round"/>
<path d="M630.418 261.569V280.763" stroke="black" stroke-width="1.72297" stroke-linecap="round" stroke-linejoin="round"/>
<path d="M645.947 261.569V280.763" stroke="black" stroke-width="1.72297" stroke-linecap="round" stroke-linejoin="round"/>
<path d="M650.853 261.569V280.763" stroke="black" stroke-width="1.72297" stroke-linecap="round" stroke-linejoin="round"/>
<path d="M680.962 230.779L683.038 230.9C683.038 230.9 681.944 236.698 686.437 236.177C687.88 236.009 687.582 239.101 689.883 239.631C696.852 241.234 696.236 236.177 696.236 236.177L697.821 227.618L685.243 222.384L684.369 226.097L680.966 230.779H680.962Z" fill="white" stroke="black" stroke-width="1.72297" stroke-linejoin="round"/>
<path d="M685.77 229.423C686.141 229.423 686.442 229.122 686.442 228.751C686.442 228.38 686.141 228.079 685.77 228.079C685.399 228.079 685.098 228.38 685.098 228.751C685.098 229.122 685.399 229.423 685.77 229.423Z" fill="black"/>
<path d="M683.094 280.138L676.801 279.781C674.884 279.669 671.632 279.72 673.204 278.622C673.23 278.605 676.779 276.063 676.801 276.05C677.542 275.559 677.645 274.164 677.378 273.027H684.094L685.687 276.188C686.635 278.062 685.192 280.259 683.094 280.138Z" fill="#A9A9A9" stroke="black" stroke-width="1.72297" stroke-linecap="round" stroke-linejoin="round"/>
<path d="M701.19 257.421C698.782 265.006 678.016 260.966 678.016 260.966L684.094 273.031H677.378C677.271 272.566 677.103 272.148 676.887 271.851C674.376 268.345 670.521 262.189 671.74 258.894C673.51 254.113 678.21 252.084 687.544 254.178L701.19 257.425V257.421Z" fill="white" stroke="black" stroke-width="1.72297" stroke-linecap="round" stroke-linejoin="round"/>
<path d="M701.189 257.421L690.653 254.914L689.93 244.761C689.12 245.485 688.302 246.812 687.328 248.061L684.455 243.193C685.545 242.06 686.583 240.798 687.707 239.635C688.745 238.563 689.714 237.766 690.619 237.18C694.091 234.936 698.717 237.133 699.225 241.233C699.712 245.136 700.5 251.563 701.189 257.425V257.421Z" fill="black" stroke="black" stroke-width="1.72297" stroke-linecap="round" stroke-linejoin="round"/>
<path d="M687.324 248.056C686.51 249.099 685.584 250.089 684.451 250.632C677.619 253.91 671.929 249.288 671.929 249.288C665.903 246.945 666.316 243.762 667.1 242.806C667.88 241.849 670.913 244.287 670.913 244.287C670.913 244.287 670.809 242.745 671.365 241.328C671.916 239.907 674.07 243.796 674.07 243.796C674.07 243.796 679.015 247.203 681.888 245.373C682.81 244.783 683.645 244.025 684.455 243.189L687.328 248.056H687.324Z" fill="white" stroke="black" stroke-width="1.72297" stroke-linecap="round" stroke-linejoin="round"/>
<path d="M684.83 224.128C684.83 224.128 682.952 217.379 688.875 219.924C694.793 222.466 696.878 223.53 697.826 223.53C698.773 223.53 700.621 227.725 700.621 228.75C700.621 229.775 699.247 233.751 696.973 232.209C694.332 230.417 697.826 225.778 692.019 227.829C690.4 228.401 684.83 224.128 684.83 224.128Z" fill="black" stroke="black" stroke-width="1.72297" stroke-linecap="round" stroke-linejoin="round"/>
<path d="M717.08 280.758V156.209H704.89V280.758H717.08Z" fill="#00A6BF" stroke="black" stroke-width="1.72297" stroke-linecap="round" stroke-linejoin="round"/>
<path d="M717.076 172.487V156.213L434.491 156.213V172.487L717.076 172.487Z" fill="#A9A9A9" stroke="black" stroke-width="1.72297" stroke-linecap="round" stroke-linejoin="round"/>
<path d="M939.689 156.33V258.149H912.815V183.204C912.815 168.373 924.859 156.33 939.689 156.33Z" fill="white" stroke="black" stroke-width="1.72297" stroke-linecap="round" stroke-linejoin="round"/>
<path d="M912.815 281.517V258.149" stroke="black" stroke-width="1.72297" stroke-linecap="round" stroke-linejoin="round"/>
<path d="M939.689 281.517H902.89" stroke="black" stroke-width="1.72297" stroke-linecap="round" stroke-linejoin="round"/>
<path d="M932.826 222.56C932.826 223.728 932.568 224.774 932.047 225.709C931.525 226.64 930.81 227.385 929.906 227.936C928.997 228.487 927.976 228.763 926.839 228.763C925.702 228.763 924.659 228.487 923.751 227.936C922.842 227.385 922.127 226.64 921.597 225.701C921.067 224.762 920.804 223.702 920.804 222.517C920.804 221.63 920.964 220.82 921.278 220.079C921.593 219.343 922.058 218.684 922.674 218.111L924.948 220.351C924.634 220.613 924.405 220.928 924.263 221.294C924.121 221.66 924.052 222.069 924.052 222.517C924.052 223.047 924.168 223.508 924.397 223.904C924.625 224.301 924.948 224.615 925.366 224.848C925.784 225.08 926.27 225.197 926.822 225.197C927.373 225.197 927.838 225.08 928.265 224.848C928.691 224.615 929.019 224.296 929.247 223.891C929.475 223.487 929.591 223.03 929.591 222.517C929.591 222.035 929.514 221.613 929.355 221.247C929.195 220.881 928.954 220.566 928.622 220.303L930.918 218.063C931.551 218.654 932.025 219.317 932.352 220.058C932.676 220.794 932.839 221.63 932.839 222.565" fill="#10A96C"/>
<path d="M921.06 209.781H922.037C921.745 210.082 921.499 210.431 921.297 210.827C920.982 211.448 920.823 212.141 920.823 212.903C920.823 213.946 921.086 214.876 921.615 215.699C922.145 216.522 922.86 217.168 923.756 217.633C924.656 218.098 925.682 218.331 926.832 218.331C927.982 218.331 928.985 218.098 929.886 217.633C930.786 217.168 931.497 216.526 932.018 215.712C932.539 214.898 932.797 213.967 932.797 212.925C932.797 212.15 932.647 211.448 932.349 210.827C932.156 210.427 931.91 210.078 931.613 209.781H932.561V206.352H921.055V209.781H921.06ZM928.813 210.328C929.326 210.801 929.584 211.435 929.584 212.227C929.584 212.723 929.468 213.166 929.231 213.554C928.994 213.942 928.671 214.247 928.262 214.476C927.852 214.7 927.379 214.812 926.84 214.812C926.302 214.812 925.802 214.7 925.384 214.476C924.967 214.252 924.639 213.942 924.402 213.554C924.165 213.166 924.049 212.714 924.049 212.201C924.049 211.689 924.165 211.236 924.402 210.849C924.639 210.461 924.962 210.155 925.371 209.94C925.781 209.725 926.263 209.613 926.814 209.613C927.637 209.613 928.3 209.849 928.813 210.323V210.328Z" fill="#00A6BF"/>
<path d="M920.848 197.914C920.805 198.133 920.783 198.375 920.783 198.629C920.783 199.227 920.93 199.792 921.218 200.322C921.507 200.851 921.899 201.308 922.394 201.704C922.523 201.808 922.657 201.902 922.791 201.988L921.055 202.057V205.292H932.568V201.864H926.788C926.439 201.864 926.129 201.812 925.853 201.704C925.577 201.597 925.341 201.45 925.134 201.265C924.931 201.08 924.776 200.851 924.669 200.58C924.561 200.309 924.505 200.016 924.505 199.701C924.505 199.417 924.539 199.141 924.604 198.879C924.669 198.616 924.755 198.405 924.854 198.245L921.007 197.302C920.951 197.487 920.9 197.69 920.857 197.914H920.848Z" fill="#8280B8"/>
<path d="M921.042 232.877H927.576C928.675 232.877 929.562 233.751 929.562 234.833C929.562 235.914 928.67 236.788 927.576 236.788H921.042V240.238H927.314C930.342 240.238 932.806 237.813 932.806 234.833C932.806 231.852 930.342 229.427 927.314 229.427H921.042V232.877Z" fill="#EF664E"/>
<path d="M257.602 156.226H260.819V265.23H232.05V181.778C232.05 167.675 243.499 156.226 257.602 156.226Z" fill="white" stroke="black" stroke-width="1.72297" stroke-linecap="round" stroke-linejoin="round"/>
<path d="M232.05 290.248V265.23" stroke="black" stroke-width="1.72297" stroke-linecap="round" stroke-linejoin="round"/>
<path d="M260.819 290.248H221.423" stroke="black" stroke-width="1.72297" stroke-linecap="round" stroke-linejoin="round"/>
<path d="M253.471 227.131C253.471 228.38 253.191 229.5 252.636 230.499C252.08 231.499 251.313 232.291 250.344 232.881C249.371 233.472 248.276 233.769 247.062 233.769C245.847 233.769 244.727 233.472 243.754 232.881C242.78 232.291 242.013 231.495 241.449 230.487C240.885 229.479 240.601 228.346 240.601 227.079C240.601 226.132 240.769 225.262 241.109 224.473C241.449 223.685 241.944 222.979 242.604 222.363L245.037 224.758C244.701 225.042 244.456 225.378 244.301 225.77C244.15 226.162 244.072 226.597 244.072 227.079C244.072 227.644 244.193 228.139 244.438 228.565C244.684 228.992 245.029 229.328 245.477 229.578C245.925 229.828 246.446 229.952 247.036 229.952C247.626 229.952 248.126 229.828 248.582 229.578C249.039 229.328 249.388 228.988 249.633 228.553C249.879 228.122 249.999 227.631 249.999 227.079C249.999 226.562 249.913 226.11 249.745 225.718C249.577 225.326 249.315 224.99 248.961 224.706L251.421 222.311C252.097 222.944 252.61 223.655 252.954 224.443C253.299 225.236 253.476 226.127 253.476 227.127" fill="#10A96C"/>
<path d="M240.876 213.455H241.923C241.613 213.778 241.346 214.148 241.13 214.579C240.794 215.247 240.622 215.983 240.622 216.802C240.622 217.917 240.906 218.917 241.471 219.795C242.035 220.678 242.802 221.368 243.762 221.867C244.727 222.367 245.825 222.617 247.057 222.617C248.289 222.617 249.362 222.367 250.327 221.867C251.292 221.368 252.05 220.683 252.61 219.808C253.165 218.934 253.445 217.939 253.445 216.828C253.445 215.996 253.286 215.247 252.963 214.583C252.756 214.153 252.493 213.778 252.175 213.459H253.191V209.789H240.876V213.459V213.455ZM249.177 214.041C249.728 214.549 249.999 215.225 249.999 216.074C249.999 216.608 249.874 217.082 249.62 217.495C249.366 217.913 249.022 218.24 248.582 218.482C248.143 218.723 247.635 218.844 247.062 218.844C246.489 218.844 245.95 218.723 245.502 218.482C245.054 218.24 244.706 217.913 244.451 217.495C244.197 217.082 244.072 216.595 244.072 216.048C244.072 215.501 244.197 215.019 244.451 214.601C244.706 214.183 245.05 213.86 245.489 213.627C245.929 213.395 246.446 213.278 247.036 213.278C247.915 213.278 248.63 213.532 249.177 214.041Z" fill="#00A6BF"/>
<path d="M240.648 200.748C240.6 200.985 240.579 201.239 240.579 201.515C240.579 202.156 240.734 202.759 241.044 203.324C241.354 203.888 241.772 204.383 242.302 204.801C242.439 204.909 242.582 205.012 242.728 205.103L240.867 205.176V208.639H253.191V204.969H247.001C246.631 204.969 246.295 204.913 246.002 204.797C245.709 204.681 245.45 204.526 245.235 204.327C245.02 204.129 244.852 203.884 244.735 203.595C244.619 203.307 244.559 202.992 244.559 202.656C244.559 202.35 244.593 202.057 244.662 201.773C244.731 201.489 244.821 201.265 244.929 201.097L240.811 200.089C240.751 200.287 240.695 200.507 240.648 200.744V200.748Z" fill="#8280B8"/>
<path d="M240.858 238.18H247.854C249.03 238.18 249.982 239.119 249.982 240.273C249.982 241.432 249.03 242.371 247.854 242.371H240.858V246.062H247.574C250.817 246.062 253.453 243.465 253.453 240.273C253.453 237.081 250.817 234.484 247.574 234.484H240.858V238.18Z" fill="#EF664E"/>
<path d="M654.683 230H652.602C652.602 230 654.498 237.249 647.446 238.451C640.395 239.653 638.03 234.294 638.03 234.294V225.882L650.888 221.376L651.551 225.133L654.683 230.004V230Z" fill="white" stroke="black" stroke-width="1.72297" stroke-linejoin="round"/>
<path d="M650.001 228.372C650.372 228.372 650.673 228.071 650.673 227.7C650.673 227.328 650.372 227.028 650.001 227.028C649.629 227.028 649.329 227.328 649.329 227.7C649.329 228.071 649.629 228.372 650.001 228.372Z" fill="black"/>
<path d="M656.048 279.16H649.742C647.644 279.16 646.33 276.886 647.381 275.068L655.91 260.302C655.91 260.302 629.773 264.08 627.804 256.37L646.783 252.984C656.22 251.429 661.2 254.854 662.694 259.725C663.724 263.085 659.524 269.012 656.815 272.368C656.027 273.341 656.259 274.741 657.263 275.495C657.284 275.508 657.306 275.529 657.327 275.546C658.835 276.735 657.969 279.165 656.048 279.165V279.16Z" fill="black" stroke="black" stroke-width="1.72297" stroke-linecap="round" stroke-linejoin="round"/>
<path d="M661.566 253.238L657.711 258.127C657.711 258.127 648.536 250.266 644.466 246.191L646.779 252.976L627.8 256.361C626.736 252.192 627.718 247.38 628.847 243.835C630.29 239.308 634.141 235.892 638.844 235.229C641.687 234.828 644.827 235.414 647.442 238.442C654.2 246.269 661.566 253.23 661.566 253.23V253.238Z" fill="white" stroke="black" stroke-width="1.72297" stroke-linecap="round" stroke-linejoin="round"/>
<path d="M651.844 220.265C651.844 217.396 648.135 217.099 646.835 217.396C646.611 217.448 647.059 217.349 646.835 217.396C645.318 217.702 643.328 221.889 640.132 221.889C636.768 221.889 633.753 222.931 633.753 226.761C633.753 229.603 634.972 232.825 635.596 235.345C635.217 235.849 634.993 236.478 634.993 237.159C634.993 237.839 635.209 238.438 635.575 238.938C634.533 239.162 633.753 240.088 633.753 241.195C633.753 242.47 634.787 243.504 636.062 243.504C637.337 243.504 638.37 242.47 638.37 241.195C638.37 240.833 638.284 240.493 638.138 240.191C639.762 240.135 641.063 238.8 641.063 237.163C641.063 236.616 640.916 236.103 640.662 235.66C641.093 235.255 641.463 234.897 641.704 234.656C642.949 233.411 648.394 231.525 647.162 226.308C647.162 226.308 651.844 223.758 651.844 220.278V220.265Z" fill="black"/>
<path d="M638.03 245.308C639.032 245.308 639.844 244.496 639.844 243.495C639.844 242.493 639.032 241.681 638.03 241.681C637.029 241.681 636.217 242.493 636.217 243.495C636.217 244.496 637.029 245.308 638.03 245.308Z" fill="black"/>
<path d="M661.057 253.273C661.057 253.273 665.485 252.868 664.62 254.122C663.754 255.375 662.423 256.159 662.423 256.159C662.423 256.159 666.144 257.296 665.791 258.481C665.438 259.665 663.039 261.797 657.715 258.128L661.057 253.273Z" fill="white" stroke="black" stroke-width="1.72297" stroke-linecap="round" stroke-linejoin="round"/>
<path d="M649.109 232.063C649.109 232.063 650.453 233.472 652.232 232.679L649.109 232.063Z" fill="white"/>
<path d="M649.109 232.063C649.109 232.063 650.453 233.472 652.232 232.679" stroke="black" stroke-width="1.72297" stroke-linecap="round" stroke-linejoin="round"/>
<path fill-rule="evenodd" clip-rule="evenodd" d="M51.5473 205.77C51.5473 187.438 43.4924 156.226 33.5551 156.226C23.6179 156.226 15.563 187.438 15.563 205.77C15.563 222.617 22.3687 221.609 31.1817 222.492V253.01H35.9242V222.492C44.7372 221.609 51.543 222.617 51.543 205.77H51.5473Z" fill="#8280B8" stroke="black" stroke-width="1.72297" stroke-linecap="round" stroke-linejoin="round"/>
<path d="M182.988 19.754H182.08C182.08 9.32138 173.62 0.861572 163.187 0.861572C152.755 0.861572 144.295 9.32138 144.295 19.754H143.386C135.495 19.754 129.098 26.1505 129.098 34.0417C129.098 41.933 135.495 48.3295 143.386 48.3295H182.988C190.88 48.3295 197.276 41.933 197.276 34.0417C197.276 26.1505 190.88 19.754 182.988 19.754Z" fill="#8280B8" stroke="black" stroke-width="1.72297" stroke-linecap="round" stroke-linejoin="round"/>
</g>
<defs>
<clipPath id="clip0_546_3953">
<rect width="999.441" height="291.109" fill="white"/>
</clipPath>
</defs>
</svg>
