<svg width="678" height="408" viewBox="0 0 678 408" fill="none" xmlns="http://www.w3.org/2000/svg">
<path d="M670.974 309.704H0" stroke="#13100D" stroke-width="2" stroke-miterlimit="10"/>
<path d="M0 406.599H670.974" stroke="#13100D" stroke-width="2" stroke-miterlimit="10"/>
<path d="M0 358.197H670.974" stroke="#13100D" stroke-width="2" stroke-miterlimit="10" stroke-dasharray="92.2 92.2"/>
<path d="M246.013 268.726V259.56C246.012 255.218 244.285 251.055 241.213 247.985C238.141 244.916 233.974 243.191 229.63 243.191C225.286 243.192 221.12 244.917 218.048 247.986C214.977 251.056 213.251 255.219 213.25 259.56V268.726" stroke="#13100D" stroke-width="2" stroke-linecap="round" stroke-linejoin="round"/>
<path d="M176.856 219.668C176.856 224.01 178.582 228.175 181.654 231.245C184.727 234.315 188.894 236.04 193.239 236.04C195.39 236.04 197.521 235.617 199.509 234.795C201.497 233.972 203.304 232.766 204.825 231.246C206.347 229.726 207.554 227.921 208.377 225.934C209.201 223.948 209.625 221.819 209.625 219.668V201.859C209.625 197.518 207.899 193.354 204.827 190.284C201.756 187.214 197.59 185.489 193.245 185.488C191.093 185.487 188.962 185.91 186.974 186.732C184.985 187.554 183.179 188.76 181.657 190.281C180.135 191.801 178.927 193.606 178.104 195.593C177.28 197.579 176.856 199.709 176.856 201.859V219.668Z" stroke="#13100D" stroke-width="2" stroke-linecap="round" stroke-linejoin="round"/>
<path d="M193.236 211.035V271.348" stroke="#13100D" stroke-width="2" stroke-linecap="round" stroke-linejoin="round"/>
<path d="M411.669 271.222V51.6025" stroke="#13100D" stroke-width="2" stroke-linecap="round" stroke-linejoin="round"/>
<path d="M283.745 270.893V73.9324L310.68 34.1103H385.881L411.669 51.6025" stroke="#13100D" stroke-width="2" stroke-linecap="round" stroke-linejoin="round"/>
<path d="M310.234 68.8373V96.8619" stroke="#13100D" stroke-width="2" stroke-linecap="round" stroke-linejoin="round"/>
<path d="M333.71 68.8373V96.8619" stroke="#13100D" stroke-width="2" stroke-linecap="round" stroke-linejoin="round"/>
<path d="M310.234 116.046V146.406" stroke="#13100D" stroke-width="2" stroke-linecap="round" stroke-linejoin="round"/>
<path d="M333.71 116.046V146.406" stroke="#13100D" stroke-width="2" stroke-linecap="round" stroke-linejoin="round"/>
<path d="M357.359 68.8373V96.8619" stroke="#13100D" stroke-width="2" stroke-linecap="round" stroke-linejoin="round"/>
<path d="M380.839 68.8373V96.8619" stroke="#13100D" stroke-width="2" stroke-linecap="round" stroke-linejoin="round"/>
<path d="M357.359 116.046V146.406" stroke="#13100D" stroke-width="2" stroke-linecap="round" stroke-linejoin="round"/>
<path d="M380.839 116.046V146.406" stroke="#13100D" stroke-width="2" stroke-linecap="round" stroke-linejoin="round"/>
<path d="M310.234 163.255V195.951" stroke="#13100D" stroke-width="2" stroke-linecap="round" stroke-linejoin="round"/>
<path d="M310.234 210.464V245.492" stroke="#13100D" stroke-width="2" stroke-linecap="round" stroke-linejoin="round"/>
<path d="M283.902 127.85H264.227L254.429 107.724H191.919L175.593 146.924H134.773V133.014L114.476 102.035L95.5858 133.014V173.919H72.9043V269.646" stroke="#13100D" stroke-width="2" stroke-linecap="round" stroke-linejoin="round"/>
<path d="M177.84 195.151L165.424 182.744H118.393L96.1924 204.929V269.646" stroke="#13100D" stroke-width="2" stroke-linecap="round" stroke-linejoin="round"/>
<path d="M510.183 16.9383C510.936 12.4819 513.244 8.43605 516.698 5.51843C520.152 2.6008 524.528 1 529.051 1C534.124 1.00083 538.99 3.01544 542.577 6.60074C546.164 10.186 548.179 15.0484 548.179 20.1184C548.182 22.1576 547.857 24.184 547.218 26.1207" stroke="#13100D" stroke-width="2" stroke-linecap="round" stroke-linejoin="round"/>
<path d="M550.79 21.3898C553.083 21.3898 555.282 22.3 556.903 23.9202C558.525 25.5404 559.435 27.7379 559.435 30.0292C559.435 32.3205 558.525 34.518 556.903 36.1382C555.282 37.7584 553.083 38.6686 550.79 38.6686L511.443 38.4677C508.587 38.4668 505.847 37.3323 503.828 35.3136C501.808 33.295 500.674 30.5574 500.674 27.703C500.675 24.8488 501.81 22.1117 503.829 20.0932C505.848 18.0747 508.587 16.94 511.443 16.9383C513.646 16.9403 515.795 17.6169 517.6 18.8771C519.406 20.1373 520.782 21.9203 521.543 23.986" stroke="#13100D" stroke-width="2" stroke-linecap="round" stroke-linejoin="round"/>
<path d="M517.273 115.622L524.279 122.623L534.555 112.354" stroke="#13100D" stroke-width="2" stroke-linecap="round" stroke-linejoin="round"/>
<path d="M462.077 80.098L452.254 89.9335L442.635 80.3021" stroke="#13100D" stroke-width="2" stroke-linecap="round" stroke-linejoin="round"/>
<path d="M370.334 249.58C378.06 237.718 378.185 224.11 370.614 219.185C363.042 214.26 350.641 219.884 342.915 231.745C335.189 243.607 335.064 257.215 342.635 262.14C350.207 267.065 362.608 261.441 370.334 249.58Z" fill="white" stroke="#1D1D1B" stroke-width="2" stroke-miterlimit="10"/>
<path d="M346.594 229.108C338.988 238.548 336.905 250.584 341.941 255.99C346.977 261.396 357.231 258.122 364.839 248.679C372.448 239.236 374.518 227.225 369.479 221.806C364.44 216.388 354.193 219.672 346.594 229.108Z" fill="white" stroke="#1D1D1B" stroke-width="2" stroke-miterlimit="10"/>
<path d="M347.257 229.834C340.261 238.526 338.024 249.238 342.259 253.78C346.493 258.323 355.597 254.967 362.593 246.287C369.589 237.607 371.823 226.886 367.588 222.343C363.354 217.801 354.25 221.153 347.257 229.834Z" fill="#13100D"/>
<path d="M453.809 228.339C453.809 228.339 436.053 245.433 420.591 236.806C405.129 228.179 382.064 242.607 374.744 239.252C367.425 235.896 366.322 232.923 367.641 228.126C368.961 223.329 378.769 221.847 389.198 218.209C399.461 214.63 409.693 206.16 410.014 205.896C409.599 206.179 395.151 216.036 387.895 215.073C379.614 213.974 362.134 215.779 362.134 215.779C362.134 215.779 344.096 237.424 333.713 233.004C323.331 228.584 344.841 200.516 358.581 193.948C372.322 187.381 414.726 182.044 422.837 182.27C430.339 182.474 450.482 188.511 455.455 191.581L453.809 228.339Z" fill="white" stroke="#1D1D1B" stroke-width="2" stroke-linecap="round" stroke-linejoin="round"/>
<path d="M461.296 239.104L453.335 238.884L455.698 186.169L463.658 186.389L461.296 239.104Z" fill="white" stroke="#1D1D1B" stroke-width="2" stroke-linecap="round" stroke-linejoin="round"/>
<path d="M668.52 99.455C616.686 140.894 482.881 182.515 466.469 183.588C465.09 183.679 463.956 185.221 463.875 187.117L461.547 239.035C461.462 240.934 462.455 242.535 463.827 242.698C474.684 243.973 600.614 234.577 676 194.306L668.52 99.455Z" fill="white" stroke="#1D1D1B" stroke-width="2" stroke-miterlimit="10"/>
<path d="M364.123 230.518C352.553 227.586 348.214 233.237 345.799 237.738C342.808 243.668 346.502 246.604 355.009 248.428" stroke="white" stroke-width="2" stroke-miterlimit="10" stroke-linecap="round"/>
<path d="M347.8 234.831L357.105 237.038" stroke="white" stroke-width="2" stroke-miterlimit="10" stroke-linecap="round"/>
<path d="M345.799 237.742L353.92 239.619" stroke="white" stroke-width="2" stroke-miterlimit="10" stroke-linecap="round"/>
<path d="M286.305 291.675H381.659C392.981 291.675 403.839 296.169 411.845 304.17C419.851 312.17 424.348 323.021 424.348 334.335H264.943V313.019C264.943 307.357 267.194 301.928 271.2 297.924C275.206 293.921 280.64 291.672 286.305 291.672V291.675Z" fill="white" stroke="#1D1D1B" stroke-width="2" stroke-miterlimit="10"/>
<path d="M451.485 361.506V364.51H251.13V348.088C251.13 346.282 251.486 344.494 252.178 342.825C252.87 341.157 253.884 339.641 255.162 338.364C256.44 337.087 257.957 336.075 259.627 335.384C261.296 334.693 263.086 334.338 264.893 334.338H268.685C272.644 334.338 276.441 332.766 279.241 329.969C282.041 327.171 283.613 323.376 283.613 319.42V291.675H299.83V319.417C299.83 323.373 301.402 327.167 304.201 329.964C307 332.762 310.796 334.334 314.755 334.335H335.825C339.783 334.334 343.58 332.762 346.379 329.964C349.178 327.167 350.75 323.373 350.75 319.417V291.675H366.966V319.417C366.966 323.373 368.539 327.168 371.339 329.965C374.138 332.763 377.935 334.335 381.895 334.335H424.305C431.514 334.337 438.427 337.201 443.524 342.296C448.621 347.392 451.485 354.301 451.485 361.506Z" fill="white" stroke="#1D1D1B" stroke-width="2" stroke-miterlimit="10"/>
<path d="M450.206 353.262H443.511C438.467 353.262 433.627 351.275 430.039 347.732C426.452 344.189 424.407 339.375 424.348 334.335C430.109 334.345 435.718 336.184 440.365 339.585C445.013 342.987 448.459 347.776 450.206 353.262Z" fill="white" stroke="#1D1D1B" stroke-width="2" stroke-miterlimit="10"/>
<path d="M424.352 334.334C424.352 334.259 424.352 334.184 424.352 334.112" stroke="#1D1D1B" stroke-width="2" stroke-miterlimit="10"/>
<path d="M458.553 364.51H244.065V384.033H458.553V364.51Z" fill="white" stroke="#1D1D1B" stroke-width="2" stroke-miterlimit="10"/>
<path d="M414.817 400.552C425.836 400.552 434.769 391.626 434.769 380.614C434.769 369.603 425.836 360.677 414.817 360.677C403.798 360.677 394.866 369.603 394.866 380.614C394.866 391.626 403.798 400.552 414.817 400.552Z" fill="white" stroke="#1D1D1B" stroke-width="2" stroke-miterlimit="10"/>
<path d="M414.817 391.241C420.69 391.241 425.451 386.483 425.451 380.614C425.451 374.746 420.69 369.988 414.817 369.988C408.944 369.988 404.183 374.746 404.183 380.614C404.183 386.483 408.944 391.241 414.817 391.241Z" fill="white" stroke="#1D1D1B" stroke-width="2" stroke-miterlimit="10"/>
<path d="M281.517 400.552C292.536 400.552 301.469 391.626 301.469 380.614C301.469 369.603 292.536 360.677 281.517 360.677C270.499 360.677 261.566 369.603 261.566 380.614C261.566 391.626 270.499 400.552 281.517 400.552Z" fill="white" stroke="#1D1D1B" stroke-width="2" stroke-miterlimit="10"/>
<path d="M281.518 391.241C287.391 391.241 292.152 386.483 292.152 380.614C292.152 374.746 287.391 369.988 281.518 369.988C275.645 369.988 270.884 374.746 270.884 380.614C270.884 386.483 275.645 391.241 281.518 391.241Z" fill="white" stroke="#1D1D1B" stroke-width="2" stroke-miterlimit="10"/>
</svg>
