<svg width="2890" height="215" viewBox="0 0 2890 215" fill="none" xmlns="http://www.w3.org/2000/svg">
<path d="M0 214.027V5.9452H57.3712L153.089 138.226L139.415 134.064C138.424 126.137 137.532 119.201 136.74 113.256C136.145 107.311 135.551 101.861 134.956 96.9069C134.56 91.7543 134.163 86.7009 133.767 81.7466C133.569 76.7922 133.47 71.3425 133.47 65.3973C133.47 59.452 133.47 52.516 133.47 44.589V5.9452H195.3V214.027H137.334L31.8068 68.3699L55.8849 75.5041C56.8758 82.8365 57.6685 89.2772 58.263 94.826C59.0557 100.177 59.6502 105.131 60.0466 109.689C60.4429 114.247 60.7402 118.805 60.9384 123.363C61.3347 127.723 61.5329 132.677 61.5329 138.226C61.7311 143.577 61.8301 149.918 61.8301 157.251V214.027H0Z" fill="#181A1C" fill-opacity="0.15"/>
<path d="M314.836 214C309.103 212.729 303.58 211.053 298.266 208.974C284.592 203.623 272.701 196.093 262.595 186.382C252.488 176.672 244.66 165.178 239.111 151.9C233.76 138.622 231.085 124.156 231.085 108.5C231.085 92.6461 233.76 78.1794 239.111 65.1C244.66 51.8224 252.488 40.3283 262.595 30.6178C272.701 20.9073 284.592 13.3767 298.266 8.02603C311.94 2.67534 326.902 0 343.152 0C359.601 0 374.563 2.67534 388.038 8.02603C401.712 13.3767 413.603 20.9073 423.71 30.6178C433.816 40.3283 441.545 51.8224 446.896 65.1C452.445 78.1794 455.219 92.547 455.219 108.203C455.219 124.057 452.445 138.622 446.896 151.9C441.545 165.178 433.816 176.672 423.71 186.382C413.603 196.093 401.712 203.623 388.038 208.974C382.819 211.046 377.391 212.718 371.755 213.987C353 213.987 333 214 314.836 214ZM343.152 157.548C349.89 157.548 356.033 156.359 361.582 153.981C367.329 151.603 372.284 148.234 376.445 143.874C380.805 139.316 384.075 134.064 386.255 128.119C388.633 122.174 389.822 115.634 389.822 108.5C389.822 101.366 388.633 94.826 386.255 88.8808C384.075 82.9356 380.805 77.7831 376.445 73.4233C372.284 68.8653 367.329 65.3973 361.582 63.0192C356.033 60.6411 349.89 59.452 343.152 59.452C336.414 59.452 330.172 60.6411 324.425 63.0192C318.876 65.3973 313.922 68.8653 309.562 73.4233C305.4 77.7831 302.13 82.9356 299.752 88.8808C297.572 94.826 296.482 101.366 296.482 108.5C296.482 115.634 297.572 122.174 299.752 128.119C302.13 134.064 305.4 139.316 309.562 143.874C313.922 148.234 318.876 151.603 324.425 153.981C330.172 156.359 336.414 157.548 343.152 157.548Z" fill="#181A1C" fill-opacity="0.15"/>
<path d="M562 213.983C552.49 212.295 543.648 209.436 535.475 205.407C521.603 198.273 510.703 188.562 502.776 176.275C494.849 163.989 490.886 149.918 490.886 134.064V5.9452H555.689V131.389C555.689 137.136 556.878 142.289 559.256 146.847C561.634 151.206 564.904 154.674 569.065 157.251C573.425 159.827 578.28 161.115 583.631 161.115C589.378 161.115 594.432 159.827 598.791 157.251C603.151 154.674 606.619 151.206 609.195 146.847C611.772 142.289 613.06 137.136 613.06 131.389V5.9452H676.376V134.064C676.376 149.918 672.413 163.989 664.486 176.275C656.559 188.562 645.56 198.273 631.49 205.407C623.432 209.436 614.672 212.295 605.21 213.983C591 213.983 576 213.983 562 213.983Z" fill="#181A1C" fill-opacity="0.15"/>
<path d="M761 214.019C758.004 213.419 755.105 212.728 752.301 211.947C740.41 208.379 729.907 203.425 720.791 197.084C711.873 190.742 703.847 183.31 696.713 174.789L733.871 133.173C743.779 145.856 754.084 154.278 764.786 158.44C775.685 162.403 785.891 164.385 795.403 164.385C799.169 164.385 802.538 164.088 805.51 163.493C808.483 162.7 810.762 161.511 812.347 159.926C813.933 158.341 814.725 156.161 814.725 153.386C814.725 150.81 813.834 148.63 812.05 146.847C810.465 145.063 808.285 143.577 805.51 142.388C802.736 141 799.664 139.911 796.295 139.118C793.124 138.127 789.954 137.334 786.783 136.74C783.81 136.145 781.135 135.551 778.757 134.956C766.866 132.182 756.462 128.813 747.545 124.849C738.627 120.886 731.195 116.13 725.25 110.581C719.305 105.032 714.846 98.6904 711.873 91.5562C709.099 84.4219 707.712 76.3959 707.712 67.4781C707.712 57.3712 709.991 48.1562 714.549 39.8329C719.305 31.5096 725.547 24.3753 733.276 18.4301C741.203 12.4849 750.121 7.92694 760.029 4.75616C770.136 1.58539 780.54 0 791.242 0C806.898 0 819.977 1.4863 830.48 4.4589C840.983 7.23333 849.802 11.2959 856.936 16.6466C864.071 21.9973 870.214 28.2397 875.366 35.374L837.912 71.3425C833.552 67.1808 828.994 63.8119 824.238 61.2356C819.482 58.4612 814.527 56.4795 809.375 55.2904C804.42 53.9032 799.466 53.2096 794.512 53.2096C789.954 53.2096 786.089 53.6059 782.919 54.3986C779.748 54.9931 777.271 56.0831 775.487 57.6685C773.703 59.0557 772.812 61.0374 772.812 63.6137C772.812 66.1899 773.902 68.3699 776.081 70.1534C778.46 71.7388 781.333 73.126 784.702 74.3151C788.269 75.5041 791.737 76.495 795.106 77.2877C798.673 77.8822 801.646 78.3776 804.024 78.774C814.924 80.7557 824.931 83.5301 834.047 87.0973C843.163 90.4662 851.09 94.826 857.828 100.177C864.764 105.329 870.016 111.869 873.583 119.796C877.348 127.525 879.231 136.74 879.231 147.441C879.231 162.7 875.366 175.483 867.638 185.788C860.107 196.093 849.901 203.921 837.02 209.271C832.22 211.191 827.213 212.754 822 213.958C802 213.958 780 214.019 761 214.019Z" fill="#181A1C" fill-opacity="0.15"/>
<path d="M1015.45 214.027V5.9452H1112.95C1127.41 5.9452 1140.3 8.81872 1151.59 14.5658C1162.89 20.3128 1171.71 28.1406 1178.05 38.0493C1184.39 47.958 1187.56 59.353 1187.56 72.2342C1187.56 86.7009 1184.39 99.384 1178.05 110.284C1171.71 121.183 1162.89 129.705 1151.59 135.848C1140.3 141.793 1127.41 144.766 1112.95 144.766H1075.49V214.027H1015.45ZM1124.54 214.027L1071.63 120.093L1137.32 112.662L1196.18 214.027H1124.54ZM1075.49 100.177H1102.84C1107.79 100.177 1111.86 99.2849 1115.03 97.5014C1118.4 95.5196 1120.87 92.8443 1122.46 89.4753C1124.24 86.1064 1125.13 82.0438 1125.13 77.2877C1125.13 72.9279 1124.24 69.2616 1122.46 66.289C1120.87 63.1183 1118.3 60.7402 1114.73 59.1548C1111.36 57.3712 1107 56.4795 1101.65 56.4795H1075.49V100.177Z" fill="#181A1C" fill-opacity="0.15"/>
<path d="M1225.62 214.027V5.9452H1381.09V57.9657H1287.15V162.007H1386.44V214.027H1225.62ZM1256.24 133.173V84.4219H1370.09V133.173H1256.24Z" fill="#181A1C" fill-opacity="0.15"/>
<path d="M1451.67 214C1445.1 212.434 1439.13 210.263 1433.76 207.488C1428.01 204.317 1422.86 200.453 1418.3 195.895C1413.94 191.138 1410.08 185.788 1406.71 179.842L1442.08 143.279C1443.87 145.856 1445.65 148.234 1447.43 150.414C1449.42 152.594 1451.4 154.476 1453.38 156.062C1455.36 157.449 1457.44 158.638 1459.62 159.629C1462 160.421 1464.38 160.818 1466.76 160.818C1469.93 160.818 1472.7 160.124 1475.08 158.737C1477.46 157.152 1479.24 155.071 1480.43 152.495C1481.82 149.72 1482.51 146.45 1482.51 142.685V60.6411H1444.16V5.9452H1576.45V60.6411H1544.34V150.711C1544.34 161.412 1542.56 170.826 1538.99 178.951C1535.42 187.076 1530.57 194.012 1524.42 199.759C1518.28 205.506 1511.05 209.866 1502.72 212.838C1501.41 213.287 1500.09 213.672 1498.77 214C1484 214 1467.63 214 1451.67 214Z" fill="#181A1C" fill-opacity="0.15"/>
<path d="M1686.76 214C1681.03 212.729 1675.51 211.053 1670.19 208.974C1656.52 203.623 1644.63 196.093 1634.52 186.382C1624.41 176.672 1616.59 165.178 1611.04 151.9C1605.69 138.622 1603.01 124.156 1603.01 108.5C1603.01 92.6461 1605.69 78.1794 1611.04 65.1C1616.59 51.8224 1624.41 40.3283 1634.52 30.6178C1644.63 20.9073 1656.52 13.3767 1670.19 8.02603C1683.87 2.67534 1698.83 0 1715.08 0C1731.53 0 1746.49 2.67534 1759.96 8.02603C1773.64 13.3767 1785.53 20.9073 1795.64 30.6178C1805.74 40.3283 1813.47 51.8224 1818.82 65.1C1824.37 78.1794 1827.15 92.547 1827.15 108.203C1827.15 124.057 1824.37 138.622 1818.82 151.9C1813.47 165.178 1805.74 176.672 1795.64 186.382C1785.53 196.093 1773.64 203.623 1759.96 208.974C1754.73 211.053 1749.28 212.729 1743.62 214C1724.5 214 1705 214 1686.76 214ZM1715.08 157.548C1721.82 157.548 1727.96 156.359 1733.51 153.981C1739.26 151.603 1744.21 148.234 1748.37 143.874C1752.73 139.316 1756 134.064 1758.18 128.119C1760.56 122.174 1761.75 115.634 1761.75 108.5C1761.75 101.366 1760.56 94.826 1758.18 88.8808C1756 82.9356 1752.73 77.7831 1748.37 73.4233C1744.21 68.8653 1739.26 65.3973 1733.51 63.0192C1727.96 60.6411 1721.82 59.452 1715.08 59.452C1708.34 59.452 1702.1 60.6411 1696.35 63.0192C1690.8 65.3973 1685.85 68.8653 1681.49 73.4233C1677.33 77.7831 1674.06 82.9356 1671.68 88.8808C1669.5 94.826 1668.41 101.366 1668.41 108.5C1668.41 115.634 1669.5 122.174 1671.68 128.119C1674.06 134.064 1677.33 139.316 1681.49 143.874C1685.85 148.234 1690.8 151.603 1696.35 153.981C1702.1 156.359 1708.34 157.548 1715.08 157.548Z" fill="#181A1C" fill-opacity="0.15"/>
<path d="M1856.97 214.027V162.007H1893.53V57.9657H1856.97V5.9452H1994.31V57.9657H1957.74V162.007H1994.31V214.027H1856.97Z" fill="#181A1C" fill-opacity="0.15"/>
<path d="M2040.47 214.027V5.9452H2097.84L2193.56 138.226L2179.89 134.064C2178.9 126.137 2178 119.201 2177.21 113.256C2176.62 107.311 2176.02 101.861 2175.43 96.9069C2175.03 91.7543 2174.63 86.7009 2174.24 81.7466C2174.04 76.7922 2173.94 71.3425 2173.94 65.3973C2173.94 59.452 2173.94 52.516 2173.94 44.589V5.9452H2235.77V214.027H2177.81L2072.28 68.3699L2096.36 75.5041C2097.35 82.8365 2098.14 89.2772 2098.73 94.826C2099.53 100.177 2100.12 105.131 2100.52 109.689C2100.91 114.247 2101.21 118.805 2101.41 123.363C2101.81 127.723 2102 132.677 2102 138.226C2102.2 143.577 2102.3 149.918 2102.3 157.251V214.027H2040.47Z" fill="#181A1C" fill-opacity="0.15"/>
<path d="M2283.45 214.027V5.9452H2375C2390.66 5.9452 2405.03 8.52146 2418.11 13.674C2431.18 18.8265 2442.58 26.0598 2452.29 35.374C2462 44.49 2469.43 55.3895 2474.58 68.0726C2479.94 80.7557 2482.61 94.7269 2482.61 109.986C2482.61 125.047 2479.94 139.019 2474.58 151.9C2469.43 164.583 2462 175.582 2452.29 184.896C2442.58 194.012 2431.18 201.146 2418.11 206.299C2405.03 211.451 2390.66 214.027 2375 214.027H2283.45ZM2347.65 174.492L2336.66 159.331H2373.52C2380.06 159.331 2386 158.142 2391.35 155.764C2396.7 153.188 2401.36 149.72 2405.32 145.36C2409.29 141 2412.36 135.848 2414.54 129.903C2416.72 123.759 2417.81 117.121 2417.81 109.986C2417.81 102.852 2416.72 96.3123 2414.54 90.3671C2412.36 84.2237 2409.29 78.9721 2405.32 74.6123C2401.36 70.2525 2396.7 66.8836 2391.35 64.5055C2386 61.9292 2380.06 60.6411 2373.52 60.6411H2335.76L2347.65 46.0753V174.492Z" fill="#181A1C" fill-opacity="0.15"/>
<path d="M2518.29 214.027V5.9452H2615.79C2630.26 5.9452 2643.14 8.81872 2654.44 14.5658C2665.73 20.3128 2674.55 28.1406 2680.9 38.0493C2687.24 47.958 2690.41 59.353 2690.41 72.2342C2690.41 86.7009 2687.24 99.384 2680.9 110.284C2674.55 121.183 2665.73 129.705 2654.44 135.848C2643.14 141.793 2630.26 144.766 2615.79 144.766H2578.34V214.027H2518.29ZM2627.39 214.027L2574.48 120.093L2640.17 112.662L2699.03 214.027H2627.39ZM2578.34 100.177H2605.69C2610.64 100.177 2614.7 99.2849 2617.88 97.5014C2621.24 95.5196 2623.72 92.8443 2625.31 89.4753C2627.09 86.1064 2627.98 82.0438 2627.98 77.2877C2627.98 72.9279 2627.09 69.2616 2625.31 66.289C2623.72 63.1183 2621.15 60.7402 2617.58 59.1548C2614.21 57.3712 2609.85 56.4795 2604.5 56.4795H2578.34V100.177Z" fill="#181A1C" fill-opacity="0.15"/>
<path d="M2728.47 214.027V5.9452H2883.93V57.9657H2790V162.007H2889.28V214.027H2728.47ZM2759.08 133.173V84.4219H2872.93V133.173H2759.08Z" fill="#181A1C" fill-opacity="0.15"/>
</svg>
