<svg width="1200" height="304" viewBox="0 0 1200 304" fill="none" xmlns="http://www.w3.org/2000/svg">
<g clip-path="url(#clip0_376_9987)">
<path d="M933.503 178.139H661C661 178.139 665.023 168.939 675.244 164.494C685.465 160.049 698.351 163.362 706.825 156.955C715.299 150.548 719.681 144.371 731.988 140.637C744.295 136.893 756.363 141.108 768.44 135.962C780.338 130.886 790.739 129.274 797.257 129.234C803.775 129.274 814.175 130.896 826.073 135.962C838.151 141.108 850.218 136.893 862.525 140.637C874.832 144.381 879.204 150.548 887.689 156.955C896.163 163.362 909.049 160.049 919.27 164.494C929.491 168.939 933.513 178.139 933.513 178.139H933.503Z" fill="white" stroke="black" stroke-width="0.5" stroke-linecap="round" stroke-linejoin="round"/>
<path d="M802.469 178.141C802.469 178.141 823.42 105.75 855.6 105.75C887.78 105.75 903.052 178.141 903.052 178.141H802.469Z" fill="white" stroke="black" stroke-width="0.5" stroke-linecap="round" stroke-linejoin="round"/>
<path d="M865.43 178.139C865.43 178.139 892.799 80 934.821 80C976.843 80 996.805 178.139 996.805 178.139H865.44H865.43Z" fill="white" stroke="black" stroke-width="0.5" stroke-linecap="round" stroke-linejoin="round"/>
<path d="M1125.02 178.139H852.516C852.516 178.139 856.538 168.939 866.759 164.494C876.98 160.049 889.866 163.362 898.34 156.955C906.815 150.548 911.197 144.371 923.504 140.637C935.811 136.893 947.878 141.108 959.956 135.962C971.854 130.886 982.254 129.274 988.772 129.234C995.29 129.274 1005.69 130.896 1017.59 135.962C1029.67 141.108 1041.73 136.893 1054.04 140.637C1066.35 144.381 1070.72 150.548 1079.2 156.955C1087.68 163.362 1100.56 160.049 1110.79 164.494C1121.01 168.939 1125.03 178.139 1125.03 178.139H1125.02Z" fill="white" stroke="black" stroke-width="0.5" stroke-linecap="round" stroke-linejoin="round"/>
<path fill-rule="evenodd" clip-rule="evenodd" d="M719.499 157.016C719.499 148.817 715.906 134.852 711.474 134.852C707.043 134.852 703.449 148.817 703.449 157.016C703.449 164.555 706.484 164.104 710.416 164.495V178.14H712.532V164.495C716.465 164.104 719.499 164.555 719.499 157.016Z" fill="white" stroke="black" stroke-width="0.5" stroke-linecap="round" stroke-linejoin="round"/>
<path fill-rule="evenodd" clip-rule="evenodd" d="M750.086 152.701C750.086 142.83 745.764 126.021 740.424 126.021C735.084 126.021 730.762 142.83 730.762 152.701C730.762 161.771 734.415 161.231 739.146 161.711V178.15H741.691V161.711C746.423 161.231 750.076 161.781 750.076 152.701H750.086Z" fill="white" stroke="black" stroke-width="0.5" stroke-linecap="round" stroke-linejoin="round"/>
<path d="M922.086 172.182C917.943 168.368 914.28 164.083 911.176 159.418H919.72C915.638 155.664 912.094 151.359 909.19 146.654H917.355C912.334 142.029 908.291 136.442 905.467 130.215L905.018 129.234L904.568 130.215C901.754 136.442 897.711 142.029 892.68 146.654H900.845C897.941 151.359 894.397 155.654 890.315 159.418H898.859C895.755 164.083 892.092 168.368 887.949 172.182H902.612V178.149H907.413V172.182H922.076H922.086Z" fill="white" stroke="black" stroke-width="0.5" stroke-linecap="round" stroke-linejoin="round"/>
<path d="M833.45 171.764C829.018 167.689 825.106 163.104 821.782 158.108H830.915C826.543 154.084 822.76 149.489 819.646 144.453H828.379C823.009 139.508 818.677 133.531 815.663 126.864L815.184 125.812L814.705 126.864C811.691 133.521 807.368 139.508 801.988 144.453H810.722C807.618 149.489 803.825 154.084 799.453 158.108H808.586C805.262 163.104 801.35 167.689 796.918 171.764H812.609V178.151H817.749V171.764H833.44H833.45Z" fill="#10A66C" stroke="black" stroke-width="0.93" stroke-linecap="round" stroke-linejoin="round"/>
<path d="M1070.33 170.731C1065.18 165.995 1060.64 160.669 1056.78 154.873H1067.39C1062.31 150.198 1057.91 144.862 1054.3 139.015H1064.44C1058.2 133.269 1053.17 126.331 1049.68 118.592L1049.12 117.371L1048.56 118.592C1045.06 126.331 1040.04 133.279 1033.8 139.015H1043.94C1040.33 144.862 1035.94 150.208 1030.85 154.873H1041.46C1037.6 160.669 1033.05 165.995 1027.91 170.731H1046.14V178.139H1052.11V170.731H1070.33Z" fill="white" stroke="black" stroke-width="0.5" stroke-linecap="round" stroke-linejoin="round"/>
<path d="M1200.44 177.65C1200.44 177.65 1083.55 176.999 1097.35 184.968C1111.16 192.937 1062.8 194.248 1071.35 202.828C1079.9 211.407 1107.78 216.753 1200.44 216.753" fill="white"/>
<path d="M1200.44 177.65C1200.44 177.65 1083.55 176.999 1097.35 184.968C1111.16 192.937 1062.8 194.248 1071.35 202.828C1079.9 211.407 1107.78 216.753 1200.44 216.753" stroke="black" stroke-width="0.5" stroke-linecap="round" stroke-linejoin="round"/>
<path d="M607.312 202.568V152.432" stroke="black" stroke-width="0.93" stroke-linecap="round" stroke-linejoin="round"/>
<path d="M624.199 122.488H590.422V156.366H624.199V122.488Z" fill="white" stroke="black" stroke-width="0.93" stroke-linecap="round" stroke-linejoin="round"/>
<path d="M621.954 124.75H592.668V154.123H621.954V124.75Z" fill="#00A6BF" stroke="black" stroke-width="0.93" stroke-linecap="round" stroke-linejoin="round"/>
<path d="M614.946 136.282C614.946 140.267 612.301 141.939 608.738 141.939H604.965V148.036H601.531V130.816H609.037C612.271 130.816 614.946 132.608 614.946 136.282ZM611.413 136.353C611.413 134.851 610.435 134.16 608.908 134.16H604.955V138.585H608.957C610.554 138.585 611.413 137.844 611.413 136.343V136.353Z" fill="white"/>
<path d="M1159.12 177.56C1156.45 179.552 1153.53 181.154 1150.45 182.345C1146.31 183.937 1141.89 184.778 1137.37 184.778H1112.66C1104.8 184.778 1097.17 182.225 1090.91 177.56C1089.97 176.859 1090.46 175.367 1091.63 175.367H1158.42C1159.58 175.367 1160.07 176.859 1159.13 177.56H1159.12Z" fill="white" stroke="black" stroke-width="0.5" stroke-linecap="round" stroke-linejoin="round"/>
<path d="M1116.53 171.752V175.376H1113L1113.3 174.875C1113.77 174.094 1114.01 173.193 1114.01 172.282V171.752C1114.01 171.051 1114.58 170.48 1115.27 170.48C1115.62 170.48 1115.93 170.621 1116.15 170.851C1116.37 171.081 1116.52 171.401 1116.52 171.752H1116.53Z" fill="#A6A6A6" stroke="black" stroke-width="0.5" stroke-linecap="round" stroke-linejoin="round"/>
<path d="M1137.04 171.752V175.376H1133.5L1133.8 174.875C1134.27 174.094 1134.51 173.193 1134.51 172.282V171.752C1134.51 171.051 1135.08 170.48 1135.77 170.48C1136.12 170.48 1136.44 170.621 1136.67 170.851C1136.9 171.081 1137.04 171.401 1137.04 171.752Z" fill="#A6A6A6" stroke="black" stroke-width="0.5" stroke-linecap="round" stroke-linejoin="round"/>
<path d="M1113.55 179.199L1118.14 180.941L1122.72 179.199L1127.31 180.941L1131.89 179.199L1136.48 180.941" stroke="black" stroke-width="0.5" stroke-linecap="round" stroke-linejoin="round"/>
<path d="M1113.55 179.992C1113.99 179.992 1114.34 179.638 1114.34 179.201C1114.34 178.764 1113.99 178.41 1113.55 178.41C1113.11 178.41 1112.76 178.764 1112.76 179.201C1112.76 179.638 1113.11 179.992 1113.55 179.992Z" fill="black" stroke="black" stroke-width="0.5" stroke-linecap="round" stroke-linejoin="round"/>
<path d="M1136.49 181.734C1136.92 181.734 1137.28 181.38 1137.28 180.943C1137.28 180.506 1136.92 180.152 1136.49 180.152C1136.05 180.152 1135.7 180.506 1135.7 180.943C1135.7 181.38 1136.05 181.734 1136.49 181.734Z" fill="black" stroke="black" stroke-width="0.5" stroke-linecap="round" stroke-linejoin="round"/>
<path d="M215.122 127.727H182.203V177.802H215.122V127.727Z" fill="white" stroke="black" stroke-width="0.47" stroke-linecap="round" stroke-linejoin="round"/>
<path d="M195.473 133.764H188.137V141.252H195.473V133.764Z" fill="white" stroke="black" stroke-width="0.47" stroke-linecap="round" stroke-linejoin="round"/>
<path d="M209.196 133.764H201.859V141.252H209.196V133.764Z" fill="white" stroke="black" stroke-width="0.47" stroke-linecap="round" stroke-linejoin="round"/>
<path d="M195.473 146.287H188.137V153.775H195.473V146.287Z" fill="white" stroke="black" stroke-width="0.47" stroke-linecap="round" stroke-linejoin="round"/>
<path d="M209.196 146.287H201.859V153.775H209.196V146.287Z" fill="white" stroke="black" stroke-width="0.47" stroke-linecap="round" stroke-linejoin="round"/>
<path d="M248.036 122H215.117V177.802H248.036V122Z" fill="white" stroke="black" stroke-width="0.47" stroke-linecap="round" stroke-linejoin="round"/>
<path d="M228.372 128.727H221.035V137.066H228.372V128.727Z" fill="white" stroke="black" stroke-width="0.47" stroke-linecap="round" stroke-linejoin="round"/>
<path d="M242.106 128.727H234.77V137.066H242.106V128.727Z" fill="white" stroke="black" stroke-width="0.47" stroke-linecap="round" stroke-linejoin="round"/>
<path d="M228.372 142.684H221.035V151.023H228.372V142.684Z" fill="white" stroke="black" stroke-width="0.47" stroke-linecap="round" stroke-linejoin="round"/>
<path d="M242.106 142.684H234.77V151.023H242.106V142.684Z" fill="white" stroke="black" stroke-width="0.47" stroke-linecap="round" stroke-linejoin="round"/>
<path d="M182.2 177.802H166V148.93L182.2 137.047V177.802Z" fill="white" stroke="black" stroke-width="0.47" stroke-linecap="round" stroke-linejoin="round"/>
<path d="M195.305 8.75497H194.875C194.875 3.92053 190.904 0 186.007 0C181.109 0 177.138 3.92053 177.138 8.75497H176.709C173.005 8.75497 170 11.7219 170 15.3775C170 19.0331 173.005 22 176.709 22H195.291C198.995 22 202 19.0331 202 15.3775C202 11.7219 198.995 8.75497 195.291 8.75497H195.305Z" fill="white" stroke="black" stroke-width="0.58" stroke-linecap="round" stroke-linejoin="round"/>
<path d="M174.562 49.3967C173.233 49.3967 172.012 49.9477 171.076 50.8705C170.588 45.8843 166.94 42 162.505 42C158.572 42 155.263 45.0441 154.219 49.2038C152.971 47.3443 151.019 46.1598 148.835 46.1598C145.065 46.1598 142 49.6997 142 54.0799C142 58.4601 145.065 62 148.835 62H174.562C177.559 62 180 59.1763 180 55.7052C180 52.2342 177.572 49.4105 174.562 49.4105V49.3967Z" fill="white" stroke="black" stroke-width="0.47" stroke-linecap="round" stroke-linejoin="round"/>
<path d="M142 30.5876C142 27.0546 140.164 23.7261 137.11 22.0619C135.77 21.3389 134.243 20.916 132.621 20.916C131 20.916 129.352 21.3662 127.986 22.1438C127.262 17.5331 123.337 14 118.607 14C113.369 14 109.108 18.3242 109.108 23.6716C109.108 24.0944 109.135 24.5173 109.188 24.9402C107.715 24.0808 106 23.617 104.178 23.6852C99.2471 23.8489 95.201 27.9412 95 32.9612C95 33.1112 95 33.2476 95 33.3977C95.0134 37.0672 98.0279 40 101.632 40H132.742C137.847 40 141.987 35.7849 141.987 30.5876H142Z" fill="white" stroke="black" stroke-width="0.58" stroke-linecap="round" stroke-linejoin="round"/>
<path d="M422.825 68.6174H422.506C422.506 64.9633 419.551 62 415.908 62C412.265 62 409.31 64.9633 409.31 68.6174H408.991C406.236 68.6174 404 70.8599 404 73.623C404 76.386 406.236 78.6285 408.991 78.6285H422.815C425.57 78.6285 427.806 76.386 427.806 73.623C427.806 70.8599 425.57 68.6174 422.815 68.6174H422.825Z" fill="white" stroke="black" stroke-width="0.58" stroke-linecap="round" stroke-linejoin="round"/>
<path d="M377.015 106.802C377.015 104.21 375.647 101.767 373.372 100.546C372.374 100.015 371.236 99.7046 370.028 99.7046C368.82 99.7046 367.592 100.035 366.574 100.606C366.035 97.2218 363.111 94.6289 359.587 94.6289C355.685 94.6289 352.51 97.8024 352.51 101.727C352.51 102.037 352.53 102.348 352.57 102.658C351.472 102.027 350.195 101.687 348.837 101.737C345.164 101.857 342.15 104.86 342 108.544C342 108.655 342 108.755 342 108.865C342.01 111.558 344.256 113.71 346.941 113.71H370.118C373.921 113.71 377.005 110.617 377.005 106.802H377.015Z" fill="white" stroke="black" stroke-width="0.58" stroke-linecap="round" stroke-linejoin="round"/>
<path d="M1065.66 29.6938C1072.26 29.6938 1077.61 24.3241 1077.61 17.7004C1077.61 11.0766 1072.26 5.70703 1065.66 5.70703C1059.05 5.70703 1053.7 11.0766 1053.7 17.7004C1053.7 24.3241 1059.05 29.6938 1065.66 29.6938Z" fill="white" stroke="white" stroke-width="0.59" stroke-linecap="round" stroke-linejoin="round"/>
<path d="M1065.66 3.1335V0" stroke="white" stroke-width="0.59" stroke-linecap="round" stroke-linejoin="round"/>
<path d="M1075.93 7.39802L1078.15 5.18555" stroke="white" stroke-width="0.59" stroke-linecap="round" stroke-linejoin="round"/>
<path d="M1080.18 17.6992H1083.31" stroke="white" stroke-width="0.59" stroke-linecap="round" stroke-linejoin="round"/>
<path d="M1075.93 28L1078.15 30.2225" stroke="white" stroke-width="0.59" stroke-linecap="round" stroke-linejoin="round"/>
<path d="M1065.66 32.2656V35.4091" stroke="white" stroke-width="0.59" stroke-linecap="round" stroke-linejoin="round"/>
<path d="M1055.39 28L1053.17 30.2225" stroke="white" stroke-width="0.59" stroke-linecap="round" stroke-linejoin="round"/>
<path d="M1051.13 17.6992H1048" stroke="white" stroke-width="0.59" stroke-linecap="round" stroke-linejoin="round"/>
<path d="M1055.39 7.39802L1053.17 5.18555" stroke="white" stroke-width="0.59" stroke-linecap="round" stroke-linejoin="round"/>
<path d="M424.447 171.751L435.656 173.025H499.569C501.465 173.025 502.995 171.481 502.995 169.588V168.263H435.9L421.004 166.605V167.905C421.004 169.885 422.482 171.542 424.439 171.76L424.447 171.751Z" fill="white" stroke="black" stroke-width="0.5" stroke-linecap="round" stroke-linejoin="round"/>
<path d="M421.009 166.597L435.904 168.254H503V165.515C503 165.411 503 165.297 502.991 165.193C502.87 163.553 501.826 162.114 500.287 161.503C498.313 160.718 496.287 160.117 494.226 159.689C491.8 159.183 489.313 158.931 486.826 158.931C486.496 158.931 486.165 158.931 485.843 158.939L481.096 159.07L478.078 157.143C472.548 153.602 466.122 151.727 459.565 151.727H452.583C446.704 151.727 440.913 153.105 435.661 155.756L431.409 157.901L426.4 157.849C424.574 157.832 423.087 159.306 423.087 161.137C423.087 162.14 422.904 163.126 422.548 164.05C422.191 164.975 421.678 165.829 421 166.579L421.009 166.597Z" fill="#A6A6A6" stroke="black" stroke-width="0.5" stroke-linecap="round" stroke-linejoin="round"/>
<path d="M478.619 162.41C479.062 162.428 479.236 161.713 478.862 161.425L476.34 159.454C471.323 155.538 465.523 153.471 459.567 153.471H452.584C447.236 153.471 441.888 155.023 437.114 157.962L433.723 160.047C433.314 160.3 433.454 161.05 433.906 161.058L478.61 162.402L478.619 162.41Z" fill="white" stroke="black" stroke-width="0.5" stroke-miterlimit="10"/>
<path d="M489.332 177.027C492.665 177.027 495.366 174.317 495.366 170.975C495.366 167.632 492.665 164.922 489.332 164.922C485.999 164.922 483.297 167.632 483.297 170.975C483.297 174.317 485.999 177.027 489.332 177.027Z" fill="white" stroke="black" stroke-width="0.5" stroke-miterlimit="10"/>
<path d="M489.33 173.696C490.829 173.696 492.043 172.478 492.043 170.975C492.043 169.472 490.829 168.254 489.33 168.254C487.832 168.254 486.617 169.472 486.617 170.975C486.617 172.478 487.832 173.696 489.33 173.696Z" fill="white" stroke="black" stroke-width="0.5" stroke-miterlimit="10"/>
<path d="M440.086 177.027C443.418 177.027 446.12 174.317 446.12 170.975C446.12 167.632 443.418 164.922 440.086 164.922C436.753 164.922 434.051 167.632 434.051 170.975C434.051 174.317 436.753 177.027 440.086 177.027Z" fill="white" stroke="black" stroke-width="0.5" stroke-miterlimit="10"/>
<path d="M440.088 173.696C441.586 173.696 442.801 172.478 442.801 170.975C442.801 169.472 441.586 168.254 440.088 168.254C438.59 168.254 437.375 169.472 437.375 170.975C437.375 172.478 438.59 173.696 440.088 173.696Z" fill="white" stroke="black" stroke-width="0.5" stroke-miterlimit="10"/>
<path d="M494.223 159.699C494.266 161.4 495.518 163.31 497.57 164.496C499.449 165.586 501.51 165.796 502.988 165.203C502.866 163.563 501.823 162.124 500.284 161.513C498.31 160.728 496.284 160.127 494.223 159.699Z" fill="white" stroke="black" stroke-width="0.5" stroke-miterlimit="10"/>
<path d="M457.605 153.48V161.783" stroke="black" stroke-width="0.5" stroke-miterlimit="10"/>
<path d="M280 197.674V204.846H396.376C399.03 204.846 401.299 202.929 401.752 200.308C401.904 199.439 401.986 198.557 402 197.674H280Z" fill="#A6A6A6" stroke="black" stroke-width="0.5" stroke-linecap="round" stroke-linejoin="round"/>
<path d="M280 191.812V197.674H402C402 197.577 402 197.481 402 197.398C402 194.681 401.354 191.978 400.075 189.537L399.552 186.489C399.332 185.234 398.425 184.213 397.201 183.854C389.872 181.73 382.281 180.655 374.649 180.655L360.238 170.973C351.753 165.276 341.784 162.242 331.58 162.242H291.592C287.494 162.242 283.933 165.014 282.901 168.987C281.939 172.71 281.21 176.489 280.729 180.296C280.248 184.103 280 187.951 280 191.799V191.812Z" fill="white" stroke="black" stroke-width="0.5" stroke-miterlimit="10"/>
<path d="M300.531 210.017C305.156 210.017 308.905 206.257 308.905 201.618C308.905 196.979 305.156 193.219 300.531 193.219C295.906 193.219 292.156 196.979 292.156 201.618C292.156 206.257 295.906 210.017 300.531 210.017Z" fill="white" stroke="black" stroke-width="0.5" stroke-miterlimit="10"/>
<path d="M300.533 206.294C303.107 206.294 305.194 204.201 305.194 201.619C305.194 199.037 303.107 196.943 300.533 196.943C297.958 196.943 295.871 199.037 295.871 201.619C295.871 204.201 297.958 206.294 300.533 206.294Z" fill="white" stroke="black" stroke-width="0.5" stroke-miterlimit="10"/>
<path d="M373.992 210.017C378.617 210.017 382.366 206.257 382.366 201.618C382.366 196.979 378.617 193.219 373.992 193.219C369.367 193.219 365.617 196.979 365.617 201.618C365.617 206.257 369.367 210.017 373.992 210.017Z" fill="white" stroke="black" stroke-width="0.5" stroke-miterlimit="10"/>
<path d="M373.99 206.294C376.564 206.294 378.651 204.201 378.651 201.619C378.651 199.037 376.564 196.943 373.99 196.943C371.415 196.943 369.328 199.037 369.328 201.619C369.328 204.201 371.415 206.294 373.99 206.294Z" fill="white" stroke="black" stroke-width="0.5" stroke-miterlimit="10"/>
<path d="M309.088 181.356L362.36 183.108C364.422 183.177 365.275 180.501 363.57 179.343L357.409 175.205C349.75 170.061 340.812 167.344 331.585 167.344H291.596C289.822 167.344 288.282 168.544 287.828 170.268C287.512 171.495 287.223 172.723 286.962 173.95C286.605 175.605 287.622 177.246 289.259 177.674L295.859 179.412C300.177 180.543 304.619 181.191 309.074 181.343L309.088 181.356Z" fill="white" stroke="black" stroke-width="0.5" stroke-miterlimit="10"/>
<path d="M335.32 167.512V182.228" stroke="black" stroke-width="0.5" stroke-miterlimit="10"/>
<path d="M311.072 177.825C310.384 177.825 309.752 177.674 309.202 177.384C308.652 177.081 308.198 176.681 307.882 176.17C307.552 175.66 307.387 175.067 307.387 174.419C307.387 173.77 307.552 173.177 307.882 172.653C308.212 172.143 308.652 171.729 309.216 171.426C309.779 171.122 310.412 170.971 311.113 170.971C311.636 170.971 312.131 171.067 312.571 171.247C313.011 171.426 313.396 171.688 313.74 172.046L312.406 173.343C312.255 173.164 312.062 173.04 311.842 172.957C311.622 172.874 311.375 172.833 311.113 172.833C310.797 172.833 310.522 172.902 310.288 173.026C310.054 173.15 309.862 173.343 309.724 173.577C309.587 173.812 309.518 174.088 309.518 174.405C309.518 174.708 309.587 174.984 309.724 175.232C309.862 175.481 310.054 175.66 310.288 175.798C310.536 175.922 310.797 175.991 311.113 175.991C311.402 175.991 311.65 175.95 311.87 175.853C312.09 175.757 312.268 175.619 312.433 175.439L313.767 176.75C313.41 177.108 313.025 177.384 312.585 177.563C312.145 177.743 311.65 177.839 311.086 177.839" fill="#10A66C"/>
<path d="M318.686 171.136V171.688C318.507 171.522 318.301 171.384 318.067 171.26C317.695 171.081 317.283 170.984 316.829 170.984C316.21 170.984 315.647 171.136 315.165 171.44C314.67 171.743 314.285 172.143 314.01 172.653C313.735 173.164 313.598 173.757 313.598 174.405C313.598 175.053 313.735 175.632 314.01 176.143C314.285 176.653 314.67 177.053 315.152 177.356C315.633 177.66 316.197 177.798 316.815 177.798C317.283 177.798 317.695 177.715 318.067 177.536C318.301 177.425 318.521 177.287 318.686 177.122V177.66H320.721V171.108H318.686V171.136ZM318.356 175.55C318.067 175.839 317.696 175.991 317.228 175.991C316.925 175.991 316.664 175.922 316.43 175.784C316.197 175.646 316.018 175.467 315.88 175.232C315.743 174.998 315.674 174.736 315.674 174.419C315.674 174.101 315.743 173.826 315.88 173.591C316.018 173.357 316.197 173.164 316.43 173.026C316.664 172.888 316.925 172.819 317.242 172.819C317.558 172.819 317.819 172.888 318.053 173.026C318.287 173.164 318.466 173.343 318.589 173.577C318.713 173.812 318.782 174.088 318.782 174.405C318.782 174.874 318.644 175.246 318.356 175.55Z" fill="#00A3BC"/>
<path d="M325.754 171.012C325.616 170.984 325.479 170.971 325.328 170.971C324.97 170.971 324.64 171.053 324.324 171.219C324.007 171.384 323.732 171.605 323.499 171.881C323.444 171.95 323.375 172.033 323.334 172.102L323.292 171.109H321.367V177.66H323.402V174.364C323.402 174.17 323.43 173.991 323.499 173.826C323.567 173.674 323.65 173.536 323.76 173.412C323.87 173.302 324.007 173.205 324.172 173.15C324.337 173.095 324.502 173.053 324.695 173.053C324.86 173.053 325.025 173.067 325.19 173.108C325.341 173.15 325.479 173.191 325.561 173.246L326.125 171.053C326.015 171.026 325.891 170.998 325.768 170.971L325.754 171.012Z" fill="#8080B5"/>
<path d="M304.922 171.121V174.845C304.922 175.466 304.399 175.976 303.753 175.976C303.107 175.976 302.584 175.466 302.584 174.845V171.121H300.535V174.693C300.535 176.417 301.979 177.824 303.753 177.824C305.527 177.824 306.971 176.417 306.971 174.693V171.121H304.908H304.922Z" fill="#EC664E"/>
<path d="M400.075 189.538H398.576C394.148 189.538 390.353 186.393 389.5 182.035" stroke="black" stroke-width="0.5" stroke-miterlimit="10"/>
<path d="M354.781 182.875V178.738C354.781 178.145 355.249 177.676 355.84 177.676C356.431 177.676 356.899 178.145 356.899 178.738V182.944" fill="black"/>
<path d="M354.781 182.875V178.738C354.781 178.145 355.249 177.676 355.84 177.676C356.431 177.676 356.899 178.145 356.899 178.738V182.944" stroke="black" stroke-width="0.5" stroke-miterlimit="10"/>
<path d="M346.901 173.676L346.447 173.965C346.447 173.965 346.378 177.234 344.316 176.255C343.972 176.089 344.935 177.22 344.412 177.303C341.634 177.772 340.699 177.634 340.699 177.634V172.324L345.773 170.545L346.035 172.034L346.983 173.193C347.107 173.345 347.066 173.565 346.901 173.662V173.676Z" fill="white" stroke="black" stroke-width="0.5" stroke-linejoin="round"/>
<path d="M345.418 173.318C345.563 173.318 345.68 173.201 345.68 173.057C345.68 172.912 345.563 172.795 345.418 172.795C345.273 172.795 345.156 172.912 345.156 173.057C345.156 173.201 345.273 173.318 345.418 173.318Z" fill="black"/>
<path d="M338.125 182.127C338.125 179.203 340.655 176.9 343.543 177.272C344.423 177.382 345.358 177.672 346.279 178.237C350.267 180.665 352.811 179.851 352.811 179.851V182.582C352.811 182.582 347.352 183.051 345.468 181.175V182.361L338.125 182.141V182.127Z" fill="white" stroke="black" stroke-width="0.5" stroke-linecap="round" stroke-linejoin="round"/>
<path d="M352.809 179.853C352.809 179.853 354.39 178.529 354.39 179.246C354.39 179.95 354.087 180.598 354.087 180.598C354.087 180.598 355.793 180.06 355.971 180.598C356.15 181.136 355.793 182.584 352.809 182.584V179.853Z" fill="white" stroke="black" stroke-width="0.5" stroke-linecap="round" stroke-linejoin="round"/>
<path d="M345.055 174.752L346.251 175.207" stroke="black" stroke-width="0.5" stroke-linecap="round" stroke-linejoin="round"/>
<path d="M340.692 175.455C340.692 174.958 340.472 174.489 340.101 174.172C339.854 173.965 339.675 173.579 339.854 172.848C340.225 171.317 340.046 171.772 341.408 170.407C342.769 169.041 343.333 168.903 345.065 169.276C346.798 169.648 347.403 170.862 346.372 171.193C345.34 171.524 344.02 172.696 342.26 172.475C341.38 172.365 340.775 174.241 342.191 174.406L340.706 175.468L340.692 175.455Z" fill="black" stroke="black" stroke-width="0.5" stroke-linecap="round" stroke-linejoin="round"/>
<path d="M902.199 217.984V262.199H833.008V245.678C833.008 241.702 835.639 238.214 839.441 237.121L841.215 236.61L842.594 236.214L853.235 233.168C855.844 232.424 858.324 231.296 860.596 229.855C862.115 228.89 863.529 227.774 864.839 226.53L870.565 221.077C872.652 219.101 875.41 217.996 878.274 217.996H902.187L902.199 217.984Z" fill="white" stroke="black" stroke-width="0.5" stroke-linecap="round" stroke-linejoin="round"/>
<path d="M833.008 246.888C838.305 246.888 842.594 242.586 842.594 237.273V236.215" fill="white"/>
<path d="M833.008 246.888C838.305 246.888 842.594 242.586 842.594 237.273V236.215" stroke="black" stroke-width="0.5" stroke-linecap="round" stroke-linejoin="round"/>
<path d="M959.35 222.647V238.226H917.852C912.091 238.226 906.527 236.133 902.203 232.331V217.984H954.714C957.276 217.984 959.362 220.065 959.362 222.647H959.35Z" fill="white" stroke="black" stroke-width="0.5" stroke-linecap="round" stroke-linejoin="round"/>
<path d="M930.777 238.236V262.198H902.203V232.33C906.538 236.132 912.102 238.225 917.852 238.225H930.777V238.236Z" fill="white" stroke="black" stroke-width="0.5" stroke-linecap="round" stroke-linejoin="round"/>
<path d="M959.347 238.238V257.549C959.347 260.119 957.272 262.212 954.699 262.212H930.762V238.25H959.335L959.347 238.238Z" fill="white" stroke="black" stroke-width="0.5" stroke-linecap="round" stroke-linejoin="round"/>
<path d="M959.35 255.92V257.536C959.35 260.105 957.264 262.198 954.702 262.198H833V255.92H959.35Z" fill="#A6A6A6" stroke="black" stroke-width="0.5" stroke-linecap="round" stroke-linejoin="round"/>
<path d="M858.016 271.814C863.311 271.814 867.602 267.509 867.602 262.199C867.602 256.889 863.311 252.584 858.016 252.584C852.722 252.584 848.43 256.889 848.43 262.199C848.43 267.509 852.722 271.814 858.016 271.814Z" fill="white" stroke="black" stroke-width="0.5" stroke-linecap="round" stroke-linejoin="round"/>
<path d="M858.012 267.198C860.765 267.198 862.996 264.96 862.996 262.198C862.996 259.437 860.765 257.199 858.012 257.199C855.259 257.199 853.027 259.437 853.027 262.198C853.027 264.96 855.259 267.198 858.012 267.198Z" fill="white" stroke="black" stroke-width="0.5" stroke-linecap="round" stroke-linejoin="round"/>
<path d="M943.422 271.814C948.717 271.814 953.009 267.509 953.009 262.199C953.009 256.889 948.717 252.584 943.422 252.584C938.128 252.584 933.836 256.889 933.836 262.199C933.836 267.509 938.128 271.814 943.422 271.814Z" fill="white" stroke="black" stroke-width="0.5" stroke-linecap="round" stroke-linejoin="round"/>
<path d="M943.426 267.198C946.179 267.198 948.41 264.96 948.41 262.198C948.41 259.437 946.179 257.199 943.426 257.199C940.673 257.199 938.441 259.437 938.441 262.198C938.441 264.96 940.673 267.198 943.426 267.198Z" fill="white" stroke="black" stroke-width="0.5" stroke-linecap="round" stroke-linejoin="round"/>
<path d="M860.602 229.843C860.602 234.47 864.346 238.226 868.959 238.226H888.827C893.441 238.226 897.185 234.47 897.185 229.843V217.984" stroke="black" stroke-width="0.5" stroke-linecap="round" stroke-linejoin="round"/>
<path d="M884.019 247.491C883.417 247.491 882.86 247.351 882.373 247.084C881.886 246.817 881.504 246.433 881.214 245.968C880.924 245.491 880.785 244.956 880.785 244.364C880.785 243.771 880.924 243.224 881.214 242.747C881.504 242.271 881.886 241.899 882.385 241.62C882.872 241.341 883.428 241.201 884.042 241.201C884.506 241.201 884.923 241.283 885.318 241.445C885.7 241.608 886.048 241.852 886.349 242.178L885.178 243.364C885.039 243.201 884.877 243.085 884.692 243.003C884.506 242.933 884.286 242.887 884.054 242.887C883.776 242.887 883.532 242.945 883.335 243.061C883.127 243.178 882.964 243.352 882.849 243.573C882.733 243.794 882.663 244.05 882.663 244.329C882.663 244.608 882.721 244.863 882.849 245.084C882.964 245.305 883.138 245.48 883.347 245.596C883.556 245.712 883.799 245.77 884.066 245.77C884.321 245.77 884.541 245.724 884.726 245.642C884.912 245.561 885.086 245.433 885.213 245.259L886.384 246.456C886.071 246.782 885.735 247.038 885.341 247.2C884.958 247.375 884.518 247.456 884.031 247.456" fill="#10A66C"/>
<path d="M890.678 241.341V241.852C890.527 241.701 890.342 241.573 890.133 241.469C889.808 241.306 889.449 241.225 889.055 241.225C888.51 241.225 888.023 241.364 887.594 241.643C887.165 241.922 886.829 242.294 886.586 242.759C886.342 243.224 886.227 243.771 886.227 244.364C886.227 244.957 886.342 245.491 886.586 245.957C886.829 246.422 887.165 246.794 887.583 247.073C888.012 247.34 888.487 247.48 889.032 247.48C889.437 247.48 889.797 247.398 890.121 247.247C890.33 247.142 890.516 247.014 890.666 246.863V247.363H892.451V241.353H890.666L890.678 241.341ZM890.388 245.398C890.145 245.666 889.808 245.805 889.403 245.805C889.148 245.805 888.916 245.747 888.707 245.619C888.51 245.491 888.348 245.329 888.232 245.108C888.116 244.899 888.058 244.643 888.058 244.364C888.058 244.085 888.116 243.817 888.232 243.608C888.348 243.387 888.51 243.213 888.707 243.096C888.904 242.969 889.148 242.91 889.414 242.91C889.681 242.91 889.913 242.969 890.121 243.096C890.318 243.224 890.481 243.387 890.597 243.608C890.713 243.817 890.771 244.073 890.771 244.364C890.771 244.794 890.643 245.143 890.4 245.41L890.388 245.398Z" fill="#00A3BC"/>
<path d="M896.868 241.236C896.752 241.213 896.625 241.201 896.497 241.201C896.184 241.201 895.894 241.283 895.616 241.434C895.338 241.585 895.106 241.794 894.898 242.05C894.84 242.12 894.793 242.189 894.747 242.259L894.712 241.352H893.031V247.375H894.816V244.352C894.816 244.166 894.84 244.003 894.898 243.864C894.955 243.724 895.025 243.596 895.129 243.492C895.222 243.387 895.35 243.306 895.489 243.247C895.628 243.189 895.779 243.166 895.941 243.166C896.091 243.166 896.231 243.178 896.37 243.213C896.509 243.247 896.613 243.294 896.694 243.34L897.181 241.329C897.088 241.294 896.984 241.271 896.868 241.248V241.236Z" fill="#8080B5"/>
<path d="M878.638 241.328V244.746C878.638 245.316 878.186 245.781 877.618 245.781C877.05 245.781 876.597 245.316 876.597 244.746V241.328H874.801V244.607C874.801 246.188 876.064 247.478 877.618 247.478C879.171 247.478 880.434 246.188 880.434 244.607V241.328H878.638Z" fill="#EC664E"/>
<path d="M959.744 209.417C956.568 211.789 953.09 213.695 949.439 215.102C944.524 216.997 939.25 217.997 933.894 217.997H904.521C895.166 217.997 886.113 214.963 878.66 209.417C877.547 208.591 878.127 206.812 879.506 206.812H958.898C960.289 206.812 960.868 208.58 959.744 209.417Z" fill="white" stroke="black" stroke-width="0.5" stroke-linecap="round" stroke-linejoin="round"/>
<path d="M909.122 202.511V206.813H904.926L905.285 206.22C905.842 205.29 906.131 204.221 906.131 203.139V202.511C906.131 201.674 906.804 201 907.627 201C908.044 201 908.415 201.174 908.693 201.442C908.971 201.709 909.134 202.093 909.134 202.511H909.122Z" fill="#A6A6A6" stroke="black" stroke-width="0.5" stroke-linecap="round" stroke-linejoin="round"/>
<path d="M933.489 202.511V206.813H929.293L929.652 206.22C930.209 205.29 930.498 204.221 930.498 203.139V202.511C930.498 201.674 931.171 201 931.994 201C932.411 201 932.782 201.174 933.06 201.442C933.327 201.709 933.501 202.093 933.501 202.511H933.489Z" fill="#A6A6A6" stroke="black" stroke-width="0.5" stroke-linecap="round" stroke-linejoin="round"/>
<path d="M905.574 211.369L911.022 213.439L916.482 211.369L921.93 213.439L927.378 211.369L932.826 213.439" stroke="black" stroke-width="0.5" stroke-linecap="round" stroke-linejoin="round"/>
<path d="M905.576 212.311C906.094 212.311 906.515 211.89 906.515 211.369C906.515 210.849 906.094 210.428 905.576 210.428C905.057 210.428 904.637 210.849 904.637 211.369C904.637 211.89 905.057 212.311 905.576 212.311Z" fill="black" stroke="black" stroke-width="0.5" stroke-linecap="round" stroke-linejoin="round"/>
<path d="M932.826 214.383C933.344 214.383 933.765 213.962 933.765 213.442C933.765 212.922 933.344 212.5 932.826 212.5C932.307 212.5 931.887 212.922 931.887 213.442C931.887 213.962 932.307 214.383 932.826 214.383Z" fill="black" stroke="black" stroke-width="0.5" stroke-linecap="round" stroke-linejoin="round"/>
<path d="M947.142 226.637C947.142 226.637 945.681 223.73 946.098 221.672C946.574 219.324 948.938 217.882 948.938 220.044C948.938 223.73 950.55 223.474 950.55 223.474C950.55 223.474 951.164 222.149 951.848 222.695C952.381 223.125 951.245 225.346 951.245 225.346L947.142 226.637Z" fill="white" stroke="black" stroke-width="0.5" stroke-linecap="round" stroke-linejoin="round"/>
<path d="M971.923 245.482C971.923 245.482 971.517 248.807 972.12 250.272C972.722 251.737 973.07 248.366 973.07 248.366C973.07 248.366 973.546 249.005 974.044 249.086C974.624 249.179 975.435 249.04 975.968 248.249C976.501 247.459 976.119 245.959 976.119 245.959L971.934 245.471L971.923 245.482Z" fill="white" stroke="black" stroke-width="0.5" stroke-linecap="round" stroke-linejoin="round"/>
<path d="M961.004 246.877C961.004 246.877 956.055 252.26 955.521 261.759C955.324 265.188 956.356 269.141 954.791 269.141C950.734 269.141 951.082 271.257 951.082 271.257H956.935C957.782 271.257 958.5 270.641 958.628 269.804L959.092 266.758L960.17 271.257H961.085C961.085 271.257 959.787 264.7 960.958 259.061C962.129 253.423 966.812 248.772 966.812 248.772L961.027 246.877H961.004Z" fill="black" stroke="black" stroke-width="0.5" stroke-linecap="round" stroke-linejoin="round"/>
<path d="M962.117 248.377C962.117 248.377 962.72 251.376 965.711 261.073C966.719 264.351 968.481 269.141 966.905 269.141C962.847 269.141 963.195 271.257 963.195 271.257H969.049C969.895 271.257 970.614 270.641 970.741 269.804L971.02 267.967L972.272 271.257H973.187C973.187 271.257 971.472 264.328 970.115 258.747C968.597 252.516 968.701 247.865 968.701 247.865L962.117 248.377Z" fill="black" stroke="black" stroke-width="0.5" stroke-linecap="round" stroke-linejoin="round"/>
<path d="M951.554 225.01C952.644 229.149 955.217 232.811 961.94 232.206L970.147 231.462C970.147 231.462 975.085 230.276 976.105 245.972L971.932 246.228C971.851 242.728 971.469 237.81 969.996 236.322L969.104 251.111L956.527 250.215L958.857 237.461C958.857 237.461 949.595 239.95 946.848 226.568L951.554 225.01Z" fill="white" stroke="black" stroke-width="0.5" stroke-linecap="round" stroke-linejoin="round"/>
<path d="M958.966 225.74L963.348 227.763L966.037 228.996L970.419 231.019C970.674 231.135 970.952 231.193 971.218 231.193C971.949 231.193 972.644 230.774 972.969 230.065C973.409 229.1 972.992 227.949 972.03 227.507L967.648 225.484L964.959 224.252L960.577 222.229C960.322 222.113 960.044 222.055 959.777 222.055C959.047 222.055 958.351 222.473 958.027 223.182C957.586 224.147 958.004 225.298 958.966 225.74Z" fill="white" stroke="black" stroke-width="0.5" stroke-linecap="round" stroke-linejoin="round"/>
<path d="M968.323 224.451H960.904L960.012 229.113H961.067V230.532C961.067 231.904 962.179 233.02 963.547 233.02H963.872C965.24 233.02 966.352 231.904 966.352 230.532" fill="white"/>
<path d="M968.323 224.451H960.904L960.012 229.113H961.067V230.532C961.067 231.904 962.179 233.02 963.547 233.02H963.872C965.24 233.02 966.352 231.904 966.352 230.532" stroke="black" stroke-width="0.5" stroke-linecap="round" stroke-linejoin="round"/>
<path d="M970.94 234.017C970.244 231.726 969.445 228.483 969.665 226.099L969.966 222.821L965.816 223.6C965.758 223.507 965.7 223.425 965.631 223.332C964.553 221.937 962.745 221.53 961.574 222.437C960.415 223.332 960.368 224.576 961.609 225.82C962.42 226.634 964.286 227.89 965.086 228.006C966.848 229.424 965.944 232.157 966.535 234.168C966.639 234.528 966.883 235.121 966.883 235.121L970.917 234.005L970.94 234.017Z" fill="black" stroke="black" stroke-width="0.5" stroke-linecap="round" stroke-linejoin="round"/>
<path d="M964.184 227.88C964.357 227.45 964.74 227.113 965.227 227.031C965.969 226.903 966.676 227.415 966.803 228.159C966.931 228.903 966.421 229.612 965.679 229.74" fill="white"/>
<path d="M964.184 227.88C964.357 227.45 964.74 227.113 965.227 227.031C965.969 226.903 966.676 227.415 966.803 228.159C966.931 228.903 966.421 229.612 965.679 229.74" stroke="black" stroke-width="0.5" stroke-linecap="round" stroke-linejoin="round"/>
<path d="M961.254 222.497L965.346 224.38L968.302 225.74L972.394 227.624L972.243 227.089C971.976 226.17 971.802 225.217 971.64 224.275C971.501 223.473 970.898 222.799 970.064 222.601C969.438 222.45 968.823 222.241 968.244 221.973C967.664 221.706 967.108 221.38 966.586 220.997C966.215 220.729 965.786 220.59 965.357 220.59C964.963 220.59 964.569 220.706 964.221 220.927C963.387 221.473 962.506 221.915 961.602 222.334L961.265 222.497H961.254Z" fill="white" stroke="black" stroke-width="0.5" stroke-linecap="round" stroke-linejoin="round"/>
<path d="M961.751 228.111C961.931 228.111 962.076 227.966 962.076 227.786C962.076 227.607 961.931 227.461 961.751 227.461C961.571 227.461 961.426 227.607 961.426 227.786C961.426 227.966 961.571 228.111 961.751 228.111Z" fill="black"/>
<path d="M961.074 230.03C961.178 230.089 961.294 230.112 961.422 230.112C961.839 230.112 962.129 229.996 962.256 229.52" fill="white"/>
<path d="M961.074 230.03C961.178 230.089 961.294 230.112 961.422 230.112C961.839 230.112 962.129 229.996 962.256 229.52" stroke="black" stroke-width="0.5" stroke-linecap="round" stroke-linejoin="round"/>
<path d="M991.043 271.257H991.831C991.831 271.257 990.695 265.56 991.716 260.666C992.736 255.771 996.804 251.725 996.804 251.725L991.785 250.074C991.785 250.074 987.484 254.748 987.021 263.003C986.847 265.979 987.751 269.42 986.383 269.42C984.714 269.42 984.888 271.257 984.888 271.257H991.043Z" fill="black" stroke="black" stroke-width="0.5" stroke-linecap="round" stroke-linejoin="round"/>
<path d="M998.667 271.257H999.455C999.455 271.257 997.16 265.572 997.728 260.619C998.296 255.666 997.519 251.725 997.519 251.725L992.5 250.074C992.5 250.074 993.508 254.701 993.033 262.956C992.859 265.932 995.375 269.42 994.007 269.42C992.338 269.42 992.512 271.257 992.512 271.257H998.667Z" fill="black" stroke="black" stroke-width="0.5" stroke-linecap="round" stroke-linejoin="round"/>
<path d="M995.822 237.703C998.372 239.796 998.859 245.179 998.384 249.853C998.245 251.283 998.245 252.561 998.256 253.864L988.844 252.631C989.076 250.655 989.551 248.713 990.258 246.853C991.336 244.016 992.171 241.644 992.113 238.168" fill="white"/>
<path d="M995.822 237.703C998.372 239.796 998.859 245.179 998.384 249.853C998.245 251.283 998.245 252.561 998.256 253.864L988.844 252.631C989.076 250.655 989.551 248.713 990.258 246.853C991.336 244.016 992.171 241.644 992.113 238.168" stroke="black" stroke-width="0.5" stroke-linecap="round" stroke-linejoin="round"/>
<path d="M995.814 243.845C994.11 247.298 991.316 249.112 988.013 250.693L987.375 246.798C991.78 244.194 993.994 240.857 993.994 240.857" fill="white"/>
<path d="M995.814 243.845C994.11 247.298 991.316 249.112 988.013 250.693L987.375 246.798C991.78 244.194 993.994 240.857 993.994 240.857" stroke="black" stroke-width="0.5" stroke-linecap="round" stroke-linejoin="round"/>
<path d="M980.371 234.473L990.56 262.771L991.754 262.213L981.89 233.764L980.371 234.473Z" fill="white" stroke="black" stroke-width="0.5" stroke-linecap="round" stroke-linejoin="round"/>
<path d="M990.223 267.306L989.551 261.806L992.066 261.051L994.535 266.004C994.721 266.376 994.535 266.829 994.129 266.957L991.081 267.875C990.675 267.992 990.269 267.724 990.223 267.306Z" fill="white" stroke="black" stroke-width="0.5" stroke-linecap="round" stroke-linejoin="round"/>
<path d="M990.84 261.422L991.836 264.387" stroke="black" stroke-width="0.5" stroke-linecap="round" stroke-linejoin="round"/>
<path d="M977.706 231.031L980.395 235.868L982.876 234.996L981.96 229.531C981.891 229.113 981.462 228.869 981.068 229.008L978.066 230.066C977.671 230.206 977.498 230.671 977.706 231.031Z" fill="white" stroke="black" stroke-width="0.5" stroke-linecap="round" stroke-linejoin="round"/>
<path d="M981.658 235.425L980.719 232.438" stroke="black" stroke-width="0.5" stroke-linecap="round" stroke-linejoin="round"/>
<path d="M985.912 251.634L988.01 250.704L987.373 246.809C987.373 246.809 985.321 246.623 985.553 247.507C985.785 248.39 986.422 248.611 986.422 248.611L984.846 249.53C984.243 249.879 984.069 250.681 984.486 251.251C984.811 251.704 985.414 251.867 985.924 251.634H985.912Z" fill="white" stroke="black" stroke-width="0.5" stroke-linecap="round" stroke-linejoin="round"/>
<path d="M998.706 229.625H989.734L988.656 235.264H989.931V236.984C989.931 238.647 991.276 239.996 992.934 239.996H993.328C994.985 239.996 996.33 238.647 996.33 236.984L998.718 229.625H998.706Z" fill="white" stroke="black" stroke-width="0.5" stroke-linecap="round" stroke-linejoin="round"/>
<path d="M994.797 232.951L996.165 237.939L998.541 233.823L994.797 232.951Z" fill="black" stroke="black" stroke-width="0.5" stroke-linecap="round" stroke-linejoin="round"/>
<path d="M990.488 234.438C990.706 234.438 990.882 234.261 990.882 234.043C990.882 233.825 990.706 233.648 990.488 233.648C990.27 233.648 990.094 233.825 990.094 234.043C990.094 234.261 990.27 234.438 990.488 234.438Z" fill="black"/>
<path d="M998.892 229.869C998.892 232.171 997.339 233.183 994.789 233.183C992.239 233.183 990.813 232.206 989.689 229.869C989.248 228.963 991.926 228.439 994.464 228.439C997.003 228.439 998.892 227.567 998.892 229.869Z" fill="black" stroke="black" stroke-width="0.5" stroke-linecap="round" stroke-linejoin="round"/>
<path d="M998.892 234.694C1001.16 234.694 1003 232.852 1003 230.579C1003 228.306 1001.16 226.463 998.892 226.463C996.626 226.463 994.789 228.306 994.789 230.579C994.789 232.852 996.626 234.694 998.892 234.694Z" fill="black" stroke="black" stroke-width="0.5" stroke-linecap="round" stroke-linejoin="round"/>
<path d="M989.934 236.033C989.934 236.033 990.224 236.938 991.43 235.963L989.934 236.033Z" fill="white"/>
<path d="M989.934 236.033C989.934 236.033 990.224 236.938 991.43 235.963" stroke="black" stroke-width="0.5" stroke-linecap="round" stroke-linejoin="round"/>
<path d="M994.051 233.263C994.294 233.042 994.584 232.891 994.909 232.891C995.824 232.891 996.566 233.635 996.566 234.553C996.566 235.472 995.824 236.216 994.909 236.216" fill="white"/>
<path d="M994.051 233.263C994.294 233.042 994.584 232.891 994.909 232.891C995.824 232.891 996.566 233.635 996.566 234.553C996.566 235.472 995.824 236.216 994.909 236.216" stroke="black" stroke-width="0.5" stroke-linecap="round" stroke-linejoin="round"/>
<path d="M946.855 226.564L951.562 225.006" stroke="black" stroke-width="0.5" stroke-linecap="round" stroke-linejoin="round"/>
<path d="M124.97 219H120.828V244.538H124.97V219Z" fill="white" stroke="black" stroke-width="0.95" stroke-miterlimit="10"/>
<path d="M219.326 219H215.184V244.538H219.326V219Z" fill="white" stroke="black" stroke-width="0.95" stroke-miterlimit="10"/>
<path d="M313.681 219H309.539V244.538H313.681V219Z" fill="white" stroke="black" stroke-width="0.95" stroke-miterlimit="10"/>
<path d="M408.033 219H403.891V244.538H408.033V219Z" fill="white" stroke="black" stroke-width="0.95" stroke-miterlimit="10"/>
<path d="M502.388 219H498.246V244.538H502.388V219Z" fill="white" stroke="black" stroke-width="0.95" stroke-miterlimit="10"/>
<path d="M596.744 219H592.602V244.538H596.744V219Z" fill="white" stroke="black" stroke-width="0.95" stroke-miterlimit="10"/>
<path d="M691.099 219H686.957V244.538H691.099V219Z" fill="white" stroke="black" stroke-width="0.95" stroke-miterlimit="10"/>
<path d="M740.426 223.695H109V238.161H740.426V223.695Z" fill="white" stroke="black" stroke-width="0.95" stroke-miterlimit="10"/>
<path d="M119.626 229.031C120.045 229.031 120.384 228.691 120.384 228.271C120.384 227.85 120.045 227.51 119.626 227.51C119.207 227.51 118.867 227.85 118.867 228.271C118.867 228.691 119.207 229.031 119.626 229.031Z" fill="black" stroke="black" stroke-width="0.48" stroke-miterlimit="10"/>
<path d="M126.153 229.031C126.572 229.031 126.912 228.691 126.912 228.271C126.912 227.85 126.572 227.51 126.153 227.51C125.734 227.51 125.395 227.85 125.395 228.271C125.395 228.691 125.734 229.031 126.153 229.031Z" fill="black" stroke="black" stroke-width="0.48" stroke-miterlimit="10"/>
<path d="M119.626 234.959C120.045 234.959 120.384 234.619 120.384 234.198C120.384 233.778 120.045 233.438 119.626 233.438C119.207 233.438 118.867 233.778 118.867 234.198C118.867 234.619 119.207 234.959 119.626 234.959Z" fill="black" stroke="black" stroke-width="0.48" stroke-miterlimit="10"/>
<path d="M126.153 234.959C126.572 234.959 126.912 234.619 126.912 234.198C126.912 233.778 126.572 233.438 126.153 233.438C125.734 233.438 125.395 233.778 125.395 234.198C125.395 234.619 125.734 234.959 126.153 234.959Z" fill="black" stroke="black" stroke-width="0.48" stroke-miterlimit="10"/>
<path d="M213.985 229.031C214.404 229.031 214.744 228.691 214.744 228.271C214.744 227.85 214.404 227.51 213.985 227.51C213.566 227.51 213.227 227.85 213.227 228.271C213.227 228.691 213.566 229.031 213.985 229.031Z" fill="black" stroke="black" stroke-width="0.48" stroke-miterlimit="10"/>
<path d="M220.512 229.031C220.931 229.031 221.271 228.691 221.271 228.271C221.271 227.85 220.931 227.51 220.512 227.51C220.094 227.51 219.754 227.85 219.754 228.271C219.754 228.691 220.094 229.031 220.512 229.031Z" fill="black" stroke="black" stroke-width="0.48" stroke-miterlimit="10"/>
<path d="M213.985 234.959C214.404 234.959 214.744 234.619 214.744 234.198C214.744 233.778 214.404 233.438 213.985 233.438C213.566 233.438 213.227 233.778 213.227 234.198C213.227 234.619 213.566 234.959 213.985 234.959Z" fill="black" stroke="black" stroke-width="0.48" stroke-miterlimit="10"/>
<path d="M220.512 234.959C220.931 234.959 221.271 234.619 221.271 234.198C221.271 233.778 220.931 233.438 220.512 233.438C220.094 233.438 219.754 233.778 219.754 234.198C219.754 234.619 220.094 234.959 220.512 234.959Z" fill="black" stroke="black" stroke-width="0.48" stroke-miterlimit="10"/>
<path d="M308.337 229.031C308.756 229.031 309.095 228.691 309.095 228.271C309.095 227.85 308.756 227.51 308.337 227.51C307.918 227.51 307.578 227.85 307.578 228.271C307.578 228.691 307.918 229.031 308.337 229.031Z" fill="black" stroke="black" stroke-width="0.48" stroke-miterlimit="10"/>
<path d="M314.864 229.031C315.283 229.031 315.623 228.691 315.623 228.271C315.623 227.85 315.283 227.51 314.864 227.51C314.445 227.51 314.105 227.85 314.105 228.271C314.105 228.691 314.445 229.031 314.864 229.031Z" fill="black" stroke="black" stroke-width="0.48" stroke-miterlimit="10"/>
<path d="M308.337 234.959C308.756 234.959 309.095 234.619 309.095 234.198C309.095 233.778 308.756 233.438 308.337 233.438C307.918 233.438 307.578 233.778 307.578 234.198C307.578 234.619 307.918 234.959 308.337 234.959Z" fill="black" stroke="black" stroke-width="0.48" stroke-miterlimit="10"/>
<path d="M314.864 234.959C315.283 234.959 315.623 234.619 315.623 234.198C315.623 233.778 315.283 233.438 314.864 233.438C314.445 233.438 314.105 233.778 314.105 234.198C314.105 234.619 314.445 234.959 314.864 234.959Z" fill="black" stroke="black" stroke-width="0.48" stroke-miterlimit="10"/>
<path d="M402.692 229.031C403.111 229.031 403.451 228.691 403.451 228.271C403.451 227.85 403.111 227.51 402.692 227.51C402.273 227.51 401.934 227.85 401.934 228.271C401.934 228.691 402.273 229.031 402.692 229.031Z" fill="black" stroke="black" stroke-width="0.48" stroke-miterlimit="10"/>
<path d="M409.22 229.031C409.638 229.031 409.978 228.691 409.978 228.271C409.978 227.85 409.638 227.51 409.22 227.51C408.801 227.51 408.461 227.85 408.461 228.271C408.461 228.691 408.801 229.031 409.22 229.031Z" fill="black" stroke="black" stroke-width="0.48" stroke-miterlimit="10"/>
<path d="M402.692 234.957C403.111 234.957 403.451 234.617 403.451 234.196C403.451 233.776 403.111 233.436 402.692 233.436C402.273 233.436 401.934 233.776 401.934 234.196C401.934 234.617 402.273 234.957 402.692 234.957Z" fill="black" stroke="black" stroke-width="0.48" stroke-miterlimit="10"/>
<path d="M409.22 234.959C409.638 234.959 409.978 234.619 409.978 234.198C409.978 233.778 409.638 233.438 409.22 233.438C408.801 233.438 408.461 233.778 408.461 234.198C408.461 234.619 408.801 234.959 409.22 234.959Z" fill="black" stroke="black" stroke-width="0.48" stroke-miterlimit="10"/>
<path d="M497.044 229.031C497.463 229.031 497.802 228.691 497.802 228.271C497.802 227.85 497.463 227.51 497.044 227.51C496.625 227.51 496.285 227.85 496.285 228.271C496.285 228.691 496.625 229.031 497.044 229.031Z" fill="black" stroke="black" stroke-width="0.48" stroke-miterlimit="10"/>
<path d="M503.571 229.031C503.99 229.031 504.33 228.691 504.33 228.271C504.33 227.85 503.99 227.51 503.571 227.51C503.152 227.51 502.812 227.85 502.812 228.271C502.812 228.691 503.152 229.031 503.571 229.031Z" fill="black" stroke="black" stroke-width="0.48" stroke-miterlimit="10"/>
<path d="M497.044 234.959C497.463 234.959 497.802 234.619 497.802 234.198C497.802 233.778 497.463 233.438 497.044 233.438C496.625 233.438 496.285 233.778 496.285 234.198C496.285 234.619 496.625 234.959 497.044 234.959Z" fill="black" stroke="black" stroke-width="0.48" stroke-miterlimit="10"/>
<path d="M503.571 234.959C503.99 234.959 504.33 234.619 504.33 234.198C504.33 233.778 503.99 233.438 503.571 233.438C503.152 233.438 502.812 233.778 502.812 234.198C502.812 234.619 503.152 234.959 503.571 234.959Z" fill="black" stroke="black" stroke-width="0.48" stroke-miterlimit="10"/>
<path d="M591.399 229.031C591.818 229.031 592.158 228.691 592.158 228.271C592.158 227.85 591.818 227.51 591.399 227.51C590.98 227.51 590.641 227.85 590.641 228.271C590.641 228.691 590.98 229.031 591.399 229.031Z" fill="black" stroke="black" stroke-width="0.48" stroke-miterlimit="10"/>
<path d="M597.934 229.031C598.353 229.031 598.693 228.691 598.693 228.271C598.693 227.85 598.353 227.51 597.934 227.51C597.515 227.51 597.176 227.85 597.176 228.271C597.176 228.691 597.515 229.031 597.934 229.031Z" fill="black" stroke="black" stroke-width="0.48" stroke-miterlimit="10"/>
<path d="M591.399 234.959C591.818 234.959 592.158 234.619 592.158 234.198C592.158 233.778 591.818 233.438 591.399 233.438C590.98 233.438 590.641 233.778 590.641 234.198C590.641 234.619 590.98 234.959 591.399 234.959Z" fill="black" stroke="black" stroke-width="0.48" stroke-miterlimit="10"/>
<path d="M597.934 234.959C598.353 234.959 598.693 234.619 598.693 234.198C598.693 233.778 598.353 233.438 597.934 233.438C597.515 233.438 597.176 233.778 597.176 234.198C597.176 234.619 597.515 234.959 597.934 234.959Z" fill="black" stroke="black" stroke-width="0.48" stroke-miterlimit="10"/>
<path d="M685.766 229.031C686.185 229.031 686.525 228.691 686.525 228.271C686.525 227.85 686.185 227.51 685.766 227.51C685.347 227.51 685.008 227.85 685.008 228.271C685.008 228.691 685.347 229.031 685.766 229.031Z" fill="black" stroke="black" stroke-width="0.48" stroke-miterlimit="10"/>
<path d="M692.294 229.031C692.713 229.031 693.052 228.691 693.052 228.271C693.052 227.85 692.713 227.51 692.294 227.51C691.875 227.51 691.535 227.85 691.535 228.271C691.535 228.691 691.875 229.031 692.294 229.031Z" fill="black" stroke="black" stroke-width="0.48" stroke-miterlimit="10"/>
<path d="M685.766 234.959C686.185 234.959 686.525 234.619 686.525 234.198C686.525 233.778 686.185 233.438 685.766 233.438C685.347 233.438 685.008 233.778 685.008 234.198C685.008 234.619 685.347 234.959 685.766 234.959Z" fill="black" stroke="black" stroke-width="0.48" stroke-miterlimit="10"/>
<path d="M692.294 234.959C692.713 234.959 693.052 234.619 693.052 234.198C693.052 233.778 692.713 233.438 692.294 233.438C691.875 233.438 691.535 233.778 691.535 234.198C691.535 234.619 691.875 234.959 692.294 234.959Z" fill="black" stroke="black" stroke-width="0.48" stroke-miterlimit="10"/>
</g>
<defs>
<clipPath id="clip0_376_9987">
<rect width="1200" height="304" fill="white"/>
</clipPath>
</defs>
</svg>
