<?xml version="1.0" encoding="UTF-8" standalone="no"?>
<svg
   width="1074"
   height="392"
   viewBox="0 0 1074 392"
   fill="none"
   version="1.1"
   id="svg748"
   sodipodi:docname="landscape.svg"
   inkscape:version="1.2.2 (732a01da63, 2022-12-09, custom)"
   inkscape:export-filename="landscape.svg"
   inkscape:export-xdpi="96"
   inkscape:export-ydpi="96"
   xmlns:inkscape="http://www.inkscape.org/namespaces/inkscape"
   xmlns:sodipodi="http://sodipodi.sourceforge.net/DTD/sodipodi-0.dtd"
   xmlns="http://www.w3.org/2000/svg"
   xmlns:svg="http://www.w3.org/2000/svg">
  <defs
     id="defs752" />
  <sodipodi:namedview
     id="namedview750"
     pagecolor="#ffffff"
     bordercolor="#000000"
     borderopacity="0.25"
     inkscape:showpageshadow="2"
     inkscape:pageopacity="0.0"
     inkscape:pagecheckerboard="0"
     inkscape:deskcolor="#d1d1d1"
     showgrid="false"
     inkscape:zoom="1.0119396"
     inkscape:cx="492.12424"
     inkscape:cy="268.29665"
     inkscape:window-width="1846"
     inkscape:window-height="1016"
     inkscape:window-x="1571"
     inkscape:window-y="1467"
     inkscape:window-maximized="1"
     inkscape:current-layer="svg748" />
  <path
     d="m 874.085,128.213 c 0,0 -3.26,10.789 7.132,9.377 10.392,-1.429 12.014,-3.259 13.443,1.429 1.43,4.689 13.06,-1.865 13.06,-1.865 M 876.753,66.0969 c 0,0 -5.614,16.9409 8.265,16.9409 6.765,0 8.492,-8.8887 12.397,-8.7319 3.557,0.1569 7.515,7.477 7.515,7.477 m -60.748,-3.4683 c 0,0 1.971,8.6795 7.707,7.5815 5.737,-1.098 7.166,-4.9498 10.846,2.2135 1.778,3.4683 4.951,-3.3289 4.951,-3.3289 m -74.261,49.0273 c 0,0 -2.685,6.919 3.592,6.64 6.277,-0.278 1.36,8.453 6.556,6.554 5.179,-1.918 9.346,-10.527 9.346,-10.527 m 112.743,59.798 c 0,0 -16.809,-81.637 -36.459,-79.423 -19.651,2.213 -54.541,79.44 -54.541,79.44 l 91,-0.034 z m -174.433,-0.035 42.196,-62.43 c 1.413,-2.091 3.47,-3.695 5.876,-4.479 0.053,-0.018 0.122,-0.035 0.192,-0.052 3.296,-1.011 6.887,0 9.206,2.562 l 4.22,4.653 c 0,0 32.327,-60.6872 35.309,-65.2884 8.857,-13.6294 18.604,11.381 19.406,13.4551 0.018,0.0522 0.087,0.0522 0.122,0 l 12.99,-26.7359 c 1.447,-2.9629 4.289,-5.0369 7.568,-5.3855 0.069,0 0.139,0 0.226,-0.0174 5.632,-0.4706 11.961,3.4509 16.408,29.2804 L 925.679,196.29 751.247,196.256 Z"
     stroke="#1e1e1c"
     stroke-width="0.57"
     stroke-miterlimit="10"
     stroke-linecap="round"
     id="path18" />
  <path
     d="m 715.711,176.16 h -1.69 v 20.078 h 1.69 z"
     fill="#ffffff"
     id="path20" />
  <path
     d="m 715.711,176.16 h -1.69 v 20.078 h 1.69 z"
     stroke="#1e1e1c"
     stroke-width="0.57"
     stroke-linecap="round"
     stroke-linejoin="round"
     id="path22" />
  <path
     d="m 721.919,178.076 c 0,3.887 -3.156,7.042 -7.044,7.042 -3.889,0 -7.044,-3.155 -7.044,-7.042 0,-3.886 3.155,-18.892 7.044,-18.892 3.888,0 7.044,15.006 7.044,18.892 z"
     fill="#ffffff"
     id="path24" />
  <path
     d="m 721.919,178.076 c 0,3.887 -3.156,7.042 -7.044,7.042 -3.889,0 -7.044,-3.155 -7.044,-7.042 0,-3.886 3.155,-18.892 7.044,-18.892 3.888,0 7.044,15.006 7.044,18.892 z"
     stroke="#1e1e1c"
     stroke-width="0.57"
     stroke-linecap="round"
     stroke-linejoin="round"
     id="path26" />
  <path
     d="m 702.672,183.166 h -1.098 v 13.072 h 1.098 z"
     fill="#ffffff"
     id="path28" />
  <path
     d="m 702.672,183.184 h -1.098 v 13.071 h 1.098 z"
     stroke="#1e1e1c"
     stroke-width="0.57"
     stroke-linecap="round"
     stroke-linejoin="round"
     id="path30" />
  <path
     d="m 706.682,184.422 c 0,2.527 -2.04,4.567 -4.569,4.567 -2.528,0 -4.568,-2.04 -4.568,-4.567 0,-2.527 2.04,-12.27 4.568,-12.27 2.529,0 4.569,9.743 4.569,12.27 z"
     fill="#ffffff"
     id="path32" />
  <path
     d="m 706.682,184.422 c 0,2.527 -2.04,4.567 -4.569,4.567 -2.528,0 -4.568,-2.04 -4.568,-4.567 0,-2.527 2.04,-12.27 4.568,-12.27 2.529,0 4.569,9.743 4.569,12.27 z"
     stroke="#1e1e1c"
     stroke-width="0.57"
     stroke-linecap="round"
     stroke-linejoin="round"
     id="path34" />
  <path
     d="m 727.011,176.16 h -1.691 v 20.078 h 1.691 z"
     fill="#ffffff"
     id="path36" />
  <path
     d="m 727.011,176.16 h -1.691 v 20.078 h 1.691 z"
     stroke="#1e1e1c"
     stroke-width="0.57"
     stroke-linecap="round"
     stroke-linejoin="round"
     id="path38" />
  <path
     d="m 733.218,178.076 c 0,3.887 -3.156,7.042 -7.044,7.042 -3.888,0 -7.044,-3.155 -7.044,-7.042 0,-3.886 3.156,-18.892 7.044,-18.892 3.888,0 7.044,15.006 7.044,18.892 z"
     fill="#ffffff"
     id="path40" />
  <path
     d="m 733.218,178.076 c 0,3.887 -3.156,7.042 -7.044,7.042 -3.888,0 -7.044,-3.155 -7.044,-7.042 0,-3.886 3.156,-18.892 7.044,-18.892 3.888,0 7.044,15.006 7.044,18.892 z"
     stroke="#1e1e1c"
     stroke-width="0.57"
     stroke-linecap="round"
     stroke-linejoin="round"
     id="path42" />
  <path
     d="m 744.01,176.16 h -1.69 v 20.078 h 1.69 z"
     fill="#ffffff"
     id="path44" />
  <path
     d="m 744.01,176.16 h -1.69 v 20.078 h 1.69 z"
     stroke="#1e1e1c"
     stroke-width="0.57"
     stroke-linecap="round"
     stroke-linejoin="round"
     id="path46" />
  <path
     d="m 750.222,178.076 c 0,3.887 -3.156,7.042 -7.044,7.042 -3.889,0 -7.045,-3.155 -7.045,-7.042 0,-3.886 3.156,-18.892 7.045,-18.892 3.888,0 7.044,15.006 7.044,18.892 z"
     fill="#ffffff"
     id="path48" />
  <path
     d="m 750.222,178.076 c 0,3.887 -3.156,7.042 -7.044,7.042 -3.889,0 -7.045,-3.155 -7.045,-7.042 0,-3.886 3.156,-18.892 7.045,-18.892 3.888,0 7.044,15.006 7.044,18.892 z"
     stroke="#1e1e1c"
     stroke-width="0.57"
     stroke-linecap="round"
     stroke-linejoin="round"
     id="path50" />
  <path
     d="m 596.572,196.203 c 8.3,-13.699 23.347,-22.849 40.522,-22.849 17.175,0 32.257,9.167 40.539,22.884 l -81.078,-0.035 z"
     fill="#ffffff"
     id="path52" />
  <path
     d="m 596.572,196.203 c 8.3,-13.699 23.347,-22.849 40.522,-22.849 17.175,0 32.257,9.167 40.539,22.884 l -81.078,-0.035 z"
     stroke="#1e1e1c"
     stroke-width="0.57"
     stroke-miterlimit="10"
     stroke-linecap="round"
     id="path54" />
  <path
     d="m 145.652,163.053 -14.036,14.013 v 19.119 h 28.073 v -19.119 z"
     fill="#ffffff"
     id="path56" />
  <path
     d="m 145.652,163.053 -14.036,14.013 v 19.119 h 28.073 v -19.119 z"
     stroke="#1e1e1c"
     stroke-width="0.57"
     stroke-linecap="round"
     stroke-linejoin="round"
     id="path58" />
  <path
     d="m 177.629,163.053 -14.036,14.013 v 19.119 h 28.055 v -19.119 z"
     fill="#ffffff"
     id="path60" />
  <path
     d="m 177.629,163.053 -14.036,14.013 v 19.119 h 28.055 v -19.119 z"
     stroke="#1e1e1c"
     stroke-width="0.57"
     stroke-linecap="round"
     stroke-linejoin="round"
     id="path62" />
  <path
     d="m 408.763,174.888 v -5.944 l -9.05,-8.801 -8.823,8.801 h -0.226 l -8.823,-8.801 -8.805,8.801 V 149.93 133.703 h -25.928 v 13.49 h -33.321 v -23.442 l -31.978,19.73 v -16.645 h -2.755 l -7.916,-7.93 -7.916,7.93 h -2.755 v 18.475 h -12.624 l -0.017,50.927 12.641,-0.017 186.655,-0.018 v -29.176 l -20.487,-0.035 v 7.896 z"
     stroke="#1e1e1c"
     stroke-width="0.57"
     stroke-linecap="round"
     stroke-linejoin="round"
     id="path64" />
  <path
     d="m 218.343,176.195 h -1.691 v 19.974 h 1.691 z"
     fill="#ffffff"
     id="path66" />
  <path
     d="m 218.343,176.195 h -1.691 v 19.974 h 1.691 z"
     stroke="#1e1e1c"
     stroke-width="0.57"
     stroke-linecap="round"
     stroke-linejoin="round"
     id="path68" />
  <path
     d="m 224.548,178.112 c 0,3.886 -3.155,7.041 -7.044,7.041 -3.888,0 -7.044,-3.155 -7.044,-7.041 0,-3.887 3.156,-18.893 7.044,-18.893 3.889,0 7.044,15.006 7.044,18.893 z"
     fill="#ffffff"
     id="path70" />
  <path
     d="m 224.548,178.112 c 0,3.886 -3.155,7.041 -7.044,7.041 -3.888,0 -7.044,-3.155 -7.044,-7.041 0,-3.887 3.156,-18.893 7.044,-18.893 3.889,0 7.044,15.006 7.044,18.893 z"
     stroke="#1e1e1c"
     stroke-width="0.57"
     stroke-linecap="round"
     stroke-linejoin="round"
     id="path72" />
  <path
     d="m 20.3893,176.195 h -1.6906 v 19.974 h 1.6906 z"
     fill="#ffffff"
     id="path74" />
  <path
     d="m 20.3893,176.195 h -1.6906 v 19.974 h 1.6906 z"
     stroke="#1e1e1c"
     stroke-width="0.57"
     stroke-linecap="round"
     stroke-linejoin="round"
     id="path76" />
  <path
     d="m 26.5953,178.112 c 0,3.886 -3.1559,7.041 -7.0442,7.041 -3.8883,0 -7.0443,-3.155 -7.0443,-7.041 0,-3.887 3.156,-18.893 7.0443,-18.893 3.8883,0 7.0442,15.006 7.0442,18.893 z"
     fill="#ffffff"
     id="path78" />
  <path
     d="m 26.5953,178.112 c 0,3.886 -3.1559,7.041 -7.0442,7.041 -3.8883,0 -7.0443,-3.155 -7.0443,-7.041 0,-3.887 3.156,-18.893 7.0443,-18.893 3.8883,0 7.0442,15.006 7.0442,18.893 z"
     stroke="#1e1e1c"
     stroke-width="0.57"
     stroke-linecap="round"
     stroke-linejoin="round"
     id="path80" />
  <path
     d="m 238.115,176.195 h -1.691 v 19.974 h 1.691 z"
     fill="#ffffff"
     id="path82" />
  <path
     d="m 238.115,176.195 h -1.691 v 19.974 h 1.691 z"
     stroke="#1e1e1c"
     stroke-width="0.57"
     stroke-linecap="round"
     stroke-linejoin="round"
     id="path84" />
  <path
     d="m 244.323,178.129 c 0,3.887 -3.156,7.041 -7.044,7.041 -3.889,0 -7.045,-3.154 -7.045,-7.041 0,-3.886 3.156,-18.893 7.045,-18.893 3.888,0 7.044,15.007 7.044,18.893 z"
     fill="#ffffff"
     id="path86" />
  <path
     d="m 244.323,178.129 c 0,3.887 -3.156,7.041 -7.044,7.041 -3.889,0 -7.045,-3.154 -7.045,-7.041 0,-3.886 3.156,-18.893 7.045,-18.893 3.888,0 7.044,15.007 7.044,18.893 z"
     stroke="#1e1e1c"
     stroke-width="0.57"
     stroke-linecap="round"
     stroke-linejoin="round"
     id="path88" />
  <path
     d="m 232.325,180.674 h -1.307 v 15.512 h 1.307 z"
     fill="#ffffff"
     id="path90" />
  <path
     d="m 232.325,180.656 h -1.307 v 15.512 h 1.307 z"
     stroke="#1e1e1c"
     stroke-width="0.57"
     stroke-linecap="round"
     stroke-linejoin="round"
     id="path92" />
  <path
     d="m 237.141,182.156 c 0,3.015 -2.441,5.472 -5.475,5.472 -3.034,0 -5.475,-2.44 -5.475,-5.472 0,-3.033 2.441,-14.658 5.475,-14.658 3.034,0 5.475,11.643 5.475,14.658 z"
     fill="#ffffff"
     id="path94" />
  <path
     d="m 237.141,182.156 c 0,3.015 -2.441,5.472 -5.475,5.472 -3.034,0 -5.475,-2.44 -5.475,-5.472 0,-3.033 2.441,-14.658 5.475,-14.658 3.034,0 5.475,11.643 5.475,14.658 z"
     stroke="#1e1e1c"
     stroke-width="0.57"
     stroke-linecap="round"
     stroke-linejoin="round"
     id="path96" />
  <path
     d="M 1073,196.29 1,196.15"
     stroke="#3d3d3b"
     stroke-width="0.57"
     stroke-miterlimit="10"
     stroke-linecap="round"
     id="path98" />
  <path
     d="m 601.47,79.4473 9.416,9.4115 z m -63.398,-63.3713 9.415,9.4115 z m 9.415,63.3713 -9.415,9.4115 z m 63.399,-63.3713 -9.416,9.4115 z m 1.761,36.3914 h 13.321 z m -89.658,0 h 13.322 z m 51.49,38.1518 V 103.935 Z M 574.479,1 v 13.2982 z m 28.735,51.45 c 0,15.8602 -12.868,28.7227 -28.735,28.7227 -15.867,0 -28.735,-12.8625 -28.735,-28.7227 0,-15.8603 12.868,-28.7228 28.735,-28.7228 15.867,0 28.735,12.8625 28.735,28.7228 z"
     fill="#ffffff"
     id="path100" />
  <path
     d="m 601.47,79.4473 9.416,9.4115 m -72.814,-72.7828 9.415,9.4115 m 0,53.9598 -9.415,9.4115 m 72.814,-72.7828 -9.416,9.4115 m 11.177,26.9799 h 13.321 m -102.979,0 h 13.322 m 38.168,38.1518 V 103.935 M 574.479,1 V 14.2982 M 603.214,52.45 c 0,15.8602 -12.868,28.7227 -28.735,28.7227 -15.867,0 -28.735,-12.8625 -28.735,-28.7227 0,-15.8603 12.868,-28.7228 28.735,-28.7228 15.867,0 28.735,12.8625 28.735,28.7228 z"
     stroke="#1e1e1c"
     stroke-width="0.57"
     stroke-miterlimit="10"
     stroke-linecap="round"
     id="path102" />
  <path
     d="m 680.334,20.7823 c -0.087,0 -0.174,0 -0.279,0 -0.906,-3.3463 -3.958,-5.8038 -7.602,-5.8038 -3.644,0 -6.87,2.5969 -7.672,6.1001 -0.68,-0.1917 -1.377,-0.2963 -2.11,-0.2963 -4.359,0 -7.881,3.5207 -7.881,7.8779 0,4.3572 3.522,7.8778 7.881,7.8778 h 17.646 c 4.359,0 7.881,-3.5206 7.881,-7.8778 0,-4.3572 -3.522,-7.8779 -7.881,-7.8779 z m 3.156,76.3384 c -0.122,0 -0.244,0 -0.366,0 -1.238,-4.5838 -5.423,-7.965 -10.409,-7.965 -4.987,0 -9.399,3.5729 -10.497,8.3484 -0.924,-0.2614 -1.883,-0.4008 -2.894,-0.4008 -5.964,0 -10.776,4.8277 -10.776,10.7707 0,5.944 4.83,10.771 10.776,10.771 h 24.184 c 5.963,0 10.775,-4.827 10.775,-10.771 0,-5.943 -4.83,-10.7707 -10.775,-10.7707 z M 110.569,44.4681 c -0.122,0 -0.244,0 -0.384,0 -1.238,-4.5838 -5.422,-7.965 -10.4091,-7.965 -4.9868,0 -9.3981,3.5555 -10.5141,8.3485 -0.9241,-0.2615 -1.8831,-0.4009 -2.8944,-0.4009 -5.9632,0 -10.7756,4.8278 -10.7756,10.771 0,5.9433 4.8298,10.7711 10.7756,10.7711 h 24.1846 c 5.963,0 10.775,-4.8278 10.775,-10.7711 0,-5.9432 -4.83,-10.771 -10.775,-10.771 z m 872.459,39.7901 c -0.192,0 -0.384,0 -0.575,0 -1.936,-7.1458 -8.474,-12.4093 -16.234,-12.4093 -7.759,0 -14.663,5.5598 -16.372,13.0019 -1.43,-0.4009 -2.947,-0.61 -4.499,-0.61 -9.293,0 -16.808,7.5292 -16.808,16.8012 0,9.272 7.532,16.802 16.808,16.802 h 37.698 c 9.276,0 16.808,-7.53 16.808,-16.802 0,-9.272 -7.532,-16.8012 -16.808,-16.8012 z m -758.373,2.9281 c -0.192,0 -0.384,0 -0.576,0 -1.9,-7.0239 -8.317,-12.2002 -15.937,-12.2002 -7.619,0 -14.402,5.4552 -16.093,12.7753 -1.413,-0.3834 -2.895,-0.5926 -4.429,-0.5926 -9.119,0 -16.512,7.3899 -16.512,16.5052 0,9.115 7.393,16.505 16.512,16.505 h 37.035 c 9.119,0 16.512,-7.39 16.512,-16.505 0,-9.1153 -7.393,-16.5052 -16.512,-16.5052 z"
     fill="#ffffff"
     stroke="#1e1e1c"
     stroke-width="0.57"
     stroke-linecap="round"
     stroke-linejoin="round"
     id="path104" />
  <path
     d="m 611.461,171.018 h -97.696 v 33.446 h 97.696 z"
     fill="#ffffff"
     id="path106" />
  <path
     d="m 611.461,171.018 h -97.696 v 33.446 h 97.696 z"
     stroke="#1e1e1c"
     stroke-width="0.57"
     stroke-linecap="round"
     stroke-linejoin="round"
     id="path108" />
  <path
     d="m 611.461,155.229 h -97.696 v 15.79 h 97.696 z"
     fill="#ffffff"
     id="path110" />
  <path
     d="m 611.461,155.229 h -97.696 v 15.79 h 97.696 z"
     stroke="#1e1e1c"
     stroke-width="0.57"
     stroke-linecap="round"
     stroke-linejoin="round"
     id="path112" />
  <path
     d="m 537.149,178.773 h -14.942 v 25.691 h 14.942 z"
     fill="#1e1e1c"
     id="path114" />
  <path
     d="m 537.149,178.773 h -14.942 v 25.691 h 14.942 z"
     stroke="#1e1e1c"
     stroke-width="0.57"
     stroke-linecap="round"
     stroke-linejoin="round"
     id="path116" />
  <path
     d="m 570.592,178.773 h -29.885 v 25.691 h 29.885 z"
     fill="#1e1e1c"
     id="path118" />
  <path
     d="m 570.592,178.773 h -29.885 v 25.691 h 29.885 z"
     stroke="#1e1e1c"
     stroke-width="0.57"
     stroke-linecap="round"
     stroke-linejoin="round"
     id="path120" />
  <path
     d="m 604.034,178.773 h -29.886 v 25.691 h 29.886 z"
     fill="#1e1e1c"
     id="path122" />
  <path
     d="m 604.034,178.773 h -29.886 v 25.691 h 29.886 z"
     stroke="#1e1e1c"
     stroke-width="0.57"
     stroke-linecap="round"
     stroke-linejoin="round"
     id="path124" />
  <path
     d="m 545.744,197.893 h 1.395 c 0.314,0 0.558,0.244 0.558,0.557 v 5.63 c 0,0.314 -0.244,0.558 -0.558,0.558 h -1.395 c -0.313,0 -0.557,-0.244 -0.557,-0.558 v -5.63 c 0,-0.313 0.244,-0.557 0.557,-0.557 z"
     fill="#ffffff"
     id="path126" />
  <path
     d="m 545.743,197.892 h 1.395 c 0.313,0 0.558,0.244 0.558,0.558 v 5.63 c 0,0.313 -0.245,0.557 -0.558,0.557 h -1.378 c -0.314,0 -0.558,-0.244 -0.558,-0.557 v -5.647 c 0,-0.314 0.244,-0.558 0.558,-0.558 z"
     stroke="#1e1e1c"
     stroke-width="0.57"
     stroke-linecap="round"
     stroke-linejoin="round"
     id="path128" />
  <path
     d="m 564.157,197.893 h 1.394 c 0.314,0 0.558,0.244 0.558,0.557 v 5.63 c 0,0.314 -0.244,0.558 -0.558,0.558 h -1.394 c -0.314,0 -0.558,-0.244 -0.558,-0.558 v -5.63 c 0,-0.313 0.244,-0.557 0.558,-0.557 z"
     fill="#ffffff"
     id="path130" />
  <path
     d="m 564.157,197.892 h 1.395 c 0.314,0 0.558,0.244 0.558,0.558 v 5.63 c 0,0.313 -0.244,0.557 -0.558,0.557 h -1.378 c -0.314,0 -0.558,-0.244 -0.558,-0.557 v -5.647 c 0,-0.314 0.244,-0.558 0.558,-0.558 z"
     stroke="#1e1e1c"
     stroke-width="0.57"
     stroke-linecap="round"
     stroke-linejoin="round"
     id="path132" />
  <path
     d="m 563.355,193.083 h -15.414 l 0.663,-5.037 c 0.192,-1.395 1.377,-2.423 2.772,-2.423 h 8.527 c 1.412,0 2.598,1.046 2.772,2.423 l 0.663,5.037 z"
     fill="#ffffff"
     id="path134" />
  <path
     d="m 563.355,193.083 h -15.414 l 0.663,-5.037 c 0.192,-1.395 1.377,-2.423 2.772,-2.423 h 8.527 c 1.412,0 2.598,1.046 2.772,2.423 l 0.663,5.037 z"
     stroke="#1e1e1c"
     stroke-width="0.57"
     stroke-miterlimit="10"
     stroke-linecap="round"
     id="path136" />
  <path
     d="m 566.163,198.312 h -21.011 v 2.963 h 21.011 z"
     fill="#ffffff"
     id="path138" />
  <path
     d="m 566.163,198.312 h -21.011 v 2.963 h 21.011 z"
     stroke="#1e1e1c"
     stroke-width="0.57"
     stroke-linecap="round"
     stroke-linejoin="round"
     id="path140" />
  <path
     d="m 566.145,198.311 h -21.011 v -2.423 c 0,-1.551 1.255,-2.806 2.79,-2.806 h 15.413 c 1.552,0 2.808,1.255 2.808,2.806 z"
     fill="#a8a8a7"
     id="path142" />
  <path
     d="m 566.145,198.311 h -21.011 v -2.423 c 0,-1.551 1.255,-2.806 2.79,-2.806 h 15.413 c 1.552,0 2.808,1.255 2.808,2.806 z"
     stroke="#1e1e1c"
     stroke-width="0.57"
     stroke-miterlimit="10"
     stroke-linecap="round"
     id="path144" />
  <path
     d="m 549.459,194.581 c 0,0.836 -0.679,1.499 -1.499,1.499 -0.82,0 -1.5,-0.68 -1.5,-1.499 0,-0.819 0.68,-1.499 1.5,-1.499 0.82,0 1.499,0.68 1.499,1.499 z"
     fill="#ffffff"
     id="path146" />
  <path
     d="m 547.94,196.08 c 0.829,0 1.5,-0.671 1.5,-1.499 0,-0.828 -0.671,-1.499 -1.5,-1.499 -0.828,0 -1.499,0.671 -1.499,1.499 0,0.828 0.671,1.499 1.499,1.499 z"
     stroke="#1e1e1c"
     stroke-width="0.57"
     stroke-miterlimit="10"
     stroke-linecap="round"
     id="path148" />
  <path
     d="m 564.855,194.581 c 0,0.836 -0.68,1.499 -1.5,1.499 -0.819,0 -1.499,-0.68 -1.499,-1.499 0,-0.819 0.68,-1.499 1.499,-1.499 0.82,0 1.5,0.68 1.5,1.499 z"
     fill="#ffffff"
     id="path150" />
  <path
     d="m 563.355,196.08 c 0.829,0 1.5,-0.671 1.5,-1.499 0,-0.828 -0.671,-1.499 -1.5,-1.499 -0.828,0 -1.499,0.671 -1.499,1.499 0,0.828 0.671,1.499 1.499,1.499 z"
     stroke="#1e1e1c"
     stroke-width="0.57"
     stroke-miterlimit="10"
     stroke-linecap="round"
     id="path152" />
  <path
     d="m 579.186,197.893 h 1.395 c 0.314,0 0.558,0.244 0.558,0.557 v 5.63 c 0,0.314 -0.244,0.558 -0.558,0.558 h -1.395 c -0.313,0 -0.558,-0.244 -0.558,-0.558 v -5.63 c 0,-0.313 0.245,-0.557 0.558,-0.557 z"
     fill="#ffffff"
     id="path154" />
  <path
     d="m 579.187,197.892 h 1.394 c 0.314,0 0.558,0.244 0.558,0.558 v 5.63 c 0,0.313 -0.244,0.557 -0.558,0.557 h -1.377 c -0.314,0 -0.558,-0.244 -0.558,-0.557 v -5.647 c 0,-0.314 0.244,-0.558 0.558,-0.558 z"
     stroke="#1e1e1c"
     stroke-width="0.57"
     stroke-linecap="round"
     stroke-linejoin="round"
     id="path156" />
  <path
     d="m 597.599,197.893 h 1.394 c 0.314,0 0.558,0.244 0.558,0.557 v 5.63 c 0,0.314 -0.244,0.558 -0.558,0.558 h -1.394 c -0.314,0 -0.558,-0.244 -0.558,-0.558 v -5.63 c 0,-0.313 0.244,-0.557 0.558,-0.557 z"
     fill="#ffffff"
     id="path158" />
  <path
     d="m 597.601,197.892 h 1.394 c 0.314,0 0.558,0.244 0.558,0.558 v 5.63 c 0,0.313 -0.244,0.557 -0.558,0.557 h -1.377 c -0.314,0 -0.558,-0.244 -0.558,-0.557 v -5.647 c 0,-0.314 0.244,-0.558 0.558,-0.558 z"
     stroke="#1e1e1c"
     stroke-width="0.57"
     stroke-linecap="round"
     stroke-linejoin="round"
     id="path160" />
  <path
     d="m 596.797,193.083 h -15.413 l 0.662,-5.037 c 0.192,-1.395 1.378,-2.423 2.773,-2.423 h 8.526 c 1.412,0 2.598,1.046 2.772,2.423 l 0.663,5.037 z"
     fill="#ffffff"
     id="path162" />
  <path
     d="m 596.797,193.083 h -15.413 l 0.662,-5.037 c 0.192,-1.395 1.378,-2.423 2.773,-2.423 h 8.526 c 1.412,0 2.598,1.046 2.772,2.423 l 0.663,5.037 z"
     stroke="#1e1e1c"
     stroke-width="0.57"
     stroke-miterlimit="10"
     stroke-linecap="round"
     id="path164" />
  <path
     d="m 599.606,198.312 h -21.01 v 2.963 h 21.01 z"
     fill="#a8a8a7"
     id="path166" />
  <path
     d="m 599.606,198.312 h -21.01 v 2.963 h 21.01 z"
     stroke="#1e1e1c"
     stroke-width="0.57"
     stroke-miterlimit="10"
     stroke-linecap="round"
     id="path168" />
  <path
     d="m 599.587,198.313 h -21.011 v -2.423 c 0,-1.551 1.256,-2.806 2.79,-2.806 h 15.414 c 1.551,0 2.807,1.255 2.807,2.806 z"
     fill="#ffffff"
     id="path170" />
  <path
     d="m 599.587,198.313 h -21.011 v -2.423 c 0,-1.551 1.256,-2.806 2.79,-2.806 h 15.414 c 1.551,0 2.807,1.255 2.807,2.806 z"
     stroke="#1e1e1c"
     stroke-width="0.57"
     stroke-miterlimit="10"
     stroke-linecap="round"
     id="path172" />
  <path
     d="m 582.902,194.583 c 0,0.836 -0.68,1.499 -1.5,1.499 -0.819,0 -1.499,-0.68 -1.499,-1.499 0,-0.819 0.68,-1.499 1.499,-1.499 0.82,0 1.5,0.68 1.5,1.499 z"
     fill="#ffffff"
     id="path174" />
  <path
     d="m 581.383,196.082 c 0.828,0 1.499,-0.671 1.499,-1.499 0,-0.828 -0.671,-1.499 -1.499,-1.499 -0.828,0 -1.5,0.671 -1.5,1.499 0,0.828 0.672,1.499 1.5,1.499 z"
     stroke="#1e1e1c"
     stroke-width="0.57"
     stroke-miterlimit="10"
     stroke-linecap="round"
     id="path176" />
  <path
     d="m 598.297,194.583 c 0,0.836 -0.68,1.499 -1.5,1.499 -0.819,0 -1.499,-0.68 -1.499,-1.499 0,-0.819 0.68,-1.499 1.499,-1.499 0.82,0 1.5,0.68 1.5,1.499 z"
     fill="#ffffff"
     id="path178" />
  <path
     d="m 596.797,196.082 c 0.829,0 1.5,-0.671 1.5,-1.499 0,-0.828 -0.671,-1.499 -1.5,-1.499 -0.828,0 -1.499,0.671 -1.499,1.499 0,0.828 0.671,1.499 1.499,1.499 z"
     stroke="#1e1e1c"
     stroke-width="0.57"
     stroke-miterlimit="10"
     stroke-linecap="round"
     id="path180" />
  <path
     d="M 278.027,238.016 H 142.164 v 10.788 h 135.863 z"
     fill="#ffffff"
     id="path182" />
  <path
     d="M 278.027,238.016 H 142.164 v 10.788 h 135.863 z"
     stroke="#1e1e1c"
     stroke-width="0.57"
     stroke-linecap="round"
     stroke-linejoin="round"
     id="path184" />
  <path
     d="m 250.966,191.793 h -60.034 c -14.96,0 -27.096,12.13 -27.096,27.084 h 101.009 v -13.228 c 0,-7.652 -6.208,-13.874 -13.879,-13.874"
     fill="#ffffff"
     id="path186" />
  <path
     d="m 250.966,191.793 h -60.034 c -14.96,0 -27.096,12.13 -27.096,27.084 h 101.009 v -13.228 c 0,-7.652 -6.208,-13.874 -13.879,-13.874 z"
     stroke="#1e1e1c"
     stroke-width="0.57"
     stroke-linecap="round"
     stroke-linejoin="round"
     id="path188" />
  <path
     d="m 148.387,229.928 c 13.408,-0.14 15.256,-9.9 15.431,-10.963 -6.853,0.662 -12.659,4.967 -15.431,10.963 z"
     stroke="#1e1e1c"
     stroke-width="0.57"
     stroke-linecap="round"
     stroke-linejoin="round"
     id="path190" />
  <path
     d="m 190.706,210.58 -5.004,0.088 c -0.593,0 -1.046,-0.488 -0.994,-1.081 l 0.488,-4.653 c 0,-0.157 -0.087,-0.314 -0.244,-0.332 l -2.72,-0.557 c -0.192,-0.035 -0.157,-0.227 -0.122,-0.436 0.61,-3.364 3.592,-3.503 3.801,-5.438 l 0.052,-0.523 c 0.244,-2.353 2.215,-4.148 4.569,-4.183 2.353,-0.034 4.376,1.674 4.725,4.009 l 0.959,6.606 c 0.488,3.381 -2.093,6.413 -5.51,6.483"
     fill="#ffffff"
     id="path192" />
  <path
     d="m 190.706,210.58 -5.004,0.088 c -0.593,0 -1.046,-0.488 -0.994,-1.081 l 0.488,-4.653 c 0,-0.157 -0.087,-0.314 -0.244,-0.332 l -2.72,-0.557 c -0.192,-0.035 -0.157,-0.227 -0.122,-0.436 0.61,-3.364 3.592,-3.503 3.801,-5.438 l 0.052,-0.523 c 0.244,-2.353 2.215,-4.148 4.569,-4.183 2.353,-0.034 4.376,1.674 4.725,4.009 l 0.959,6.606 c 0.488,3.381 -2.093,6.413 -5.51,6.483 z"
     stroke="#1e1e1c"
     stroke-width="0.57"
     stroke-miterlimit="10"
     stroke-linecap="round"
     id="path194" />
  <path
     d="m 195.414,198.415 0.802,5.682 -3.156,-0.592 c 1.011,-2.161 1.151,-3.329 0.331,-3.992 -0.418,-0.54 -1.604,-0.418 -2.214,0.175 -0.977,-2.353 -2.563,-3.503 -4.987,-3.033 0.645,-1.812 2.336,-3.12 4.324,-3.154 2.371,-0.035 4.412,1.69 4.76,4.043 l 0.122,0.889 z"
     fill="#ffffff"
     id="path196" />
  <path
     d="m 195.414,198.415 0.802,5.682 -3.156,-0.592 c 1.011,-2.161 1.151,-3.329 0.331,-3.992 -0.418,-0.54 -1.604,-0.418 -2.214,0.175 -0.977,-2.353 -2.563,-3.503 -4.987,-3.033 0.645,-1.812 2.336,-3.12 4.324,-3.154 2.371,-0.035 4.412,1.69 4.76,4.043 l 0.122,0.889 z"
     stroke="#1e1e1c"
     stroke-width="0.57"
     stroke-miterlimit="10"
     stroke-linecap="round"
     id="path198" />
  <path
     d="m 185.336,207.34 c 1.36,0.052 2.807,-0.785 3.33,-1.395"
     stroke="#1e1e1c"
     stroke-width="0.57"
     stroke-miterlimit="10"
     stroke-linecap="round"
     id="path200" />
  <path
     d="m 170.652,220.081 c -0.244,0.104 -0.523,0 -0.61,-0.244 l -3.592,-8.366 c -0.105,-0.244 0,-0.523 0.244,-0.61 0.244,-0.105 0.523,0 0.61,0.244 l 3.592,8.366 c 0.105,0.244 0,0.505 -0.244,0.61 z"
     fill="#1e1e1c"
     id="path202" />
  <path
     d="m 170.652,220.081 c -0.244,0.104 -0.523,0 -0.61,-0.244 l -3.592,-8.366 c -0.105,-0.244 0,-0.523 0.244,-0.61 0.244,-0.105 0.523,0 0.61,0.244 l 3.592,8.366 c 0.105,0.244 0,0.505 -0.244,0.61 z"
     stroke="#1e1e1c"
     stroke-width="0.57"
     stroke-linecap="round"
     stroke-linejoin="round"
     id="path204" />
  <path
     d="m 173.529,216.942 c 0,0 -2.336,0 -3.295,-1.359 -0.959,-1.342 -1.151,-2.179 -1.395,-1.883 -0.244,0.297 -0.488,0.889 -0.157,1.761 0.209,0.54 -0.035,0.801 -0.262,0.941 -0.191,0.122 -0.348,0.296 -0.418,0.523 -0.262,0.766 -0.593,2.405 1.081,2.997 2.214,0.785 4.481,-0.993 4.481,-0.993 l -0.035,-1.97 z"
     fill="#ffffff"
     id="path206" />
  <path
     d="m 173.529,216.942 c 0,0 -2.336,0 -3.295,-1.359 -0.959,-1.342 -1.151,-2.179 -1.395,-1.883 -0.244,0.297 -0.488,0.889 -0.157,1.761 0.209,0.54 -0.035,0.801 -0.262,0.941 -0.191,0.122 -0.348,0.296 -0.418,0.523 -0.262,0.766 -0.593,2.405 1.081,2.997 2.214,0.785 4.481,-0.993 4.481,-0.993 l -0.035,-1.97 z"
     stroke="#1e1e1c"
     stroke-width="0.57"
     stroke-miterlimit="10"
     stroke-linecap="round"
     id="path208" />
  <path
     d="m 191.683,210.059 c -2.529,0 -5.563,0.732 -6.365,4.061 -0.191,0.784 -0.732,1.446 -1.464,1.76 -1.692,0.732 -4.882,1.638 -8.544,0.383 -0.68,-0.226 -1.447,0.07 -1.779,0.697 -0.767,1.464 -0.54,2.963 0.279,4.497 l 27.759,-0.157 c 0,0 -1.029,-4.235 -3.208,-7.599 -1.465,-2.248 -3.976,-3.625 -6.678,-3.625"
     fill="#1e1e1c"
     id="path210" />
  <path
     d="m 191.683,210.059 c -2.529,0 -5.563,0.732 -6.365,4.061 -0.191,0.784 -0.732,1.446 -1.464,1.76 -1.692,0.732 -4.882,1.638 -8.544,0.383 -0.68,-0.226 -1.447,0.07 -1.779,0.697 -0.767,1.464 -0.54,2.963 0.279,4.497 l 27.759,-0.157 c 0,0 -1.029,-4.235 -3.208,-7.599 -1.465,-2.248 -3.976,-3.625 -6.678,-3.625 z"
     stroke="#1e1e1c"
     stroke-width="0.57"
     stroke-miterlimit="10"
     stroke-linecap="round"
     id="path212" />
  <path
     d="m 188.454,200.594 c 0,0.349 -0.278,0.645 -0.627,0.645 -0.349,0 -0.645,-0.279 -0.645,-0.627 0,-0.349 0.279,-0.645 0.628,-0.645 0.348,0 0.644,0.279 0.644,0.627 z"
     fill="#1e1e1c"
     id="path214" />
  <path
     d="m 146.626,237.945 h 126.936 v -9.586 c 0,-5.229 -4.254,-9.482 -9.485,-9.482 h -1.081 c -5.528,0 -10.009,-4.479 -10.009,-10.004 v -17.08 h -10.27 v 17.08 c 0,5.525 -4.481,10.004 -10.008,10.004 h -11.804 c -5.528,0 -10.009,-4.479 -10.009,-10.004 v -17.08 h -10.27 v 17.08 c 0,5.525 -4.481,10.004 -10.008,10.004 h -24.882 c -0.628,0 -1.255,0.035 -1.883,0.088 -0.157,1.063 -2.023,10.823 -15.431,10.962 -1.133,2.423 -1.761,5.142 -1.761,8.018"
     fill="#a8a8a7"
     id="path216" />
  <path
     d="m 146.626,237.945 h 126.936 v -9.586 c 0,-5.229 -4.254,-9.482 -9.485,-9.482 h -1.081 c -5.528,0 -10.009,-4.479 -10.009,-10.004 v -17.08 h -10.27 v 17.08 c 0,5.525 -4.481,10.004 -10.008,10.004 h -11.804 c -5.528,0 -10.009,-4.479 -10.009,-10.004 v -17.08 h -10.27 v 17.08 c 0,5.525 -4.481,10.004 -10.008,10.004 h -24.882 c -0.628,0 -1.255,0.035 -1.883,0.088 -0.157,1.063 -2.023,10.823 -15.431,10.962 -1.133,2.423 -1.761,5.142 -1.761,8.018 z"
     stroke="#1e1e1c"
     stroke-width="0.57"
     stroke-miterlimit="10"
     stroke-linecap="round"
     id="path218" />
  <path
     d="m 237.331,219.382 c 0,0 -0.454,2.022 -0.14,2.475 0.314,0.453 5.336,1.394 6.155,1.342 0.488,-0.017 0.907,-0.697 0.471,-0.993 -0.244,-0.175 0.732,-0.384 0.854,-0.61 0.314,-0.576 -1.429,-1.151 -1.429,-1.151 0,0 1.865,-0.226 1.464,-1.22 -0.279,-0.68 -5.963,0.837 -5.074,0.262 2.023,-1.308 1.604,-2.162 0.907,-1.935 -0.296,0.087 -3.156,1.499 -3.156,1.499 l -0.052,0.366 z"
     fill="#ffffff"
     id="path220" />
  <path
     d="m 237.331,219.382 c 0,0 -0.454,2.022 -0.14,2.475 0.314,0.453 5.336,1.394 6.155,1.342 0.488,-0.017 0.907,-0.697 0.471,-0.993 -0.244,-0.175 0.732,-0.384 0.854,-0.61 0.314,-0.576 -1.429,-1.151 -1.429,-1.151 0,0 1.865,-0.226 1.464,-1.22 -0.279,-0.68 -5.963,0.837 -5.074,0.262 2.023,-1.308 1.604,-2.162 0.907,-1.935 -0.296,0.087 -3.156,1.499 -3.156,1.499 l -0.052,0.366 z"
     stroke="#1e1e1c"
     stroke-width="0.57"
     stroke-linecap="round"
     stroke-linejoin="round"
     id="path222" />
  <path
     d="m 224.688,214.764 c 0,0 3.244,-2.405 6.295,0.122 3.574,2.963 2.947,3.242 6.591,3.329 l -0.174,4.636 c 0,0 -5.266,3.103 -10.096,-4.392"
     fill="#ffffff"
     id="path224" />
  <path
     d="m 224.688,214.764 c 0,0 3.244,-2.405 6.295,0.122 3.574,2.963 2.947,3.242 6.591,3.329 l -0.174,4.636 c 0,0 -5.266,3.103 -10.096,-4.392"
     stroke="#1e1e1c"
     stroke-width="0.57"
     stroke-linecap="round"
     stroke-linejoin="round"
     id="path226" />
  <path
     d="m 245.351,202.564 c 0,0.906 -0.733,1.638 -1.639,1.638 -0.907,0 -1.639,-0.732 -1.639,-1.638 0,-0.906 0.732,-1.638 1.639,-1.638 0.906,0 1.639,0.732 1.639,1.638 z"
     fill="#ffffff"
     id="path228" />
  <path
     d="m 245.351,202.564 c 0,0.906 -0.733,1.638 -1.639,1.638 -0.907,0 -1.639,-0.732 -1.639,-1.638 0,-0.906 0.732,-1.638 1.639,-1.638 0.906,0 1.639,0.732 1.639,1.638 z"
     stroke="#1e1e1c"
     stroke-width="0.57"
     stroke-miterlimit="10"
     id="path230" />
  <path
     d="m 234.278,202.564 c 0,0.906 -0.732,1.638 -1.639,1.638 -0.907,0 -1.639,-0.732 -1.639,-1.638 0,-0.906 0.732,-1.638 1.639,-1.638 0.907,0 1.639,0.732 1.639,1.638 z"
     fill="#ffffff"
     id="path232" />
  <path
     d="m 234.278,202.564 c 0,0.906 -0.732,1.638 -1.639,1.638 -0.907,0 -1.639,-0.732 -1.639,-1.638 0,-0.906 0.732,-1.638 1.639,-1.638 0.907,0 1.639,0.732 1.639,1.638 z"
     stroke="#1e1e1c"
     stroke-width="0.57"
     stroke-miterlimit="10"
     id="path234" />
  <path
     d="m 229.868,208.611 c 0,0.906 -0.732,1.638 -1.639,1.638 -0.907,0 -1.639,-0.732 -1.639,-1.638 0,-0.906 0.732,-1.638 1.639,-1.638 0.907,0 1.639,0.732 1.639,1.638 z"
     fill="#ffffff"
     id="path236" />
  <path
     d="m 229.868,208.611 c 0,0.906 -0.732,1.638 -1.639,1.638 -0.907,0 -1.639,-0.732 -1.639,-1.638 0,-0.906 0.732,-1.638 1.639,-1.638 0.907,0 1.639,0.732 1.639,1.638 z"
     stroke="#1e1e1c"
     stroke-width="0.57"
     stroke-miterlimit="10"
     id="path238" />
  <path
     d="m 214.418,212.045 c 0,0.906 -0.733,1.638 -1.639,1.638 -0.907,0 -1.639,-0.732 -1.639,-1.638 0,-0.907 0.732,-1.639 1.639,-1.639 0.906,0 1.639,0.732 1.639,1.639 z"
     fill="#ffffff"
     id="path240" />
  <path
     d="m 214.418,212.045 c 0,0.906 -0.733,1.638 -1.639,1.638 -0.907,0 -1.639,-0.732 -1.639,-1.638 0,-0.907 0.732,-1.639 1.639,-1.639 0.906,0 1.639,0.732 1.639,1.639 z"
     stroke="#1e1e1c"
     stroke-width="0.57"
     stroke-miterlimit="10"
     id="path242" />
  <path
     d="m 220.296,216.299 c -3.243,0 -7.167,-2.092 -7.585,-5.107 -0.209,-1.534 0.471,-3.172 1.935,-4.619 1.378,-1.359 3.209,-2.318 4.917,-2.544 0.297,-0.035 0.628,-0.07 0.959,-0.07 3.244,0 7.167,2.091 7.585,5.107 0.209,1.533 -0.471,3.172 -1.935,4.618 -1.378,1.36 -3.209,2.318 -4.917,2.545 -0.314,0.035 -0.628,0.07 -0.959,0.07 z"
     fill="#ffffff"
     id="path244" />
  <path
     d="m 220.521,203.471 c -0.349,0 -0.697,0.017 -1.029,0.069 -3.644,0.506 -7.776,4.079 -7.271,7.721 0.454,3.312 4.586,5.525 8.073,5.525 0.349,0 0.698,-0.017 1.029,-0.069 3.644,-0.506 7.777,-4.079 7.271,-7.721 -0.453,-3.312 -4.586,-5.525 -8.073,-5.525 z m 0,0.993 c 3.051,0 6.713,1.917 7.097,4.671 0.401,2.963 -3.261,6.152 -6.434,6.606 -0.279,0.034 -0.576,0.052 -0.89,0.052 -3.051,0 -6.713,-1.917 -7.079,-4.671 -0.401,-2.963 3.243,-6.152 6.434,-6.606 0.279,-0.034 0.576,-0.052 0.89,-0.052"
     fill="#1e1e1c"
     id="path246" />
  <path
     d="m 220.067,207.74 c 0,0 0,1.185 0.401,1.9 0.175,0.296 0.489,0.471 0.837,0.453 0.384,0 0.994,0.087 1.186,0.784 0.14,0.558 -0.122,1.412 -1.412,1.308"
     fill="#ffffff"
     id="path248" />
  <path
     d="m 220.067,207.74 c 0,0 0,1.185 0.401,1.9 0.175,0.296 0.489,0.471 0.837,0.453 0.384,0 0.994,0.087 1.186,0.784 0.14,0.558 -0.122,1.412 -1.412,1.308"
     stroke="#1e1e1c"
     stroke-width="0.57"
     stroke-miterlimit="10"
     id="path250" />
  <path
     d="m 224.216,208.211 c 0,0.349 -0.279,0.645 -0.627,0.645 -0.349,0 -0.645,-0.279 -0.645,-0.627 0,-0.349 0.279,-0.645 0.627,-0.645 0.349,0 0.645,0.279 0.645,0.627 z"
     fill="#1e1e1c"
     id="path252" />
  <path
     d="m 217.854,209.674 c 0,0.349 -0.279,0.645 -0.628,0.645 -0.348,0 -0.644,-0.279 -0.644,-0.627 0,-0.349 0.278,-0.645 0.627,-0.645 0.349,0 0.645,0.279 0.645,0.627 z"
     fill="#1e1e1c"
     id="path254" />
  <path
     d="m 227.094,206.713 c -4.778,1.255 -7.324,-1.377 -8.056,-2.336 -0.087,-0.104 -0.279,-0.07 -0.296,0.07 -0.279,1.342 -1.552,5.595 -6.068,5.647"
     stroke="#1e1e1c"
     stroke-width="0.57"
     stroke-miterlimit="10"
     id="path256" />
  <path
     d="m 220.572,213.962 c 0.226,0.697 0.976,1.063 1.674,0.819 0.697,-0.227 1.063,-0.976 0.819,-1.656 z"
     fill="#ffffff"
     id="path258" />
  <path
     d="m 220.572,213.962 c 0.226,0.697 0.976,1.063 1.674,0.819 0.697,-0.227 1.063,-0.976 0.819,-1.656 z"
     stroke="#1e1e1c"
     stroke-width="0.57"
     stroke-linecap="round"
     stroke-linejoin="round"
     id="path260" />
  <path
     d="m 238.184,211.679 c -3.051,0 -5.527,-2.475 -5.527,-5.525 v -6.414 c 0,-3.05 2.476,-5.525 5.527,-5.525 3.051,0 5.527,2.475 5.527,5.525 v 6.414 c 0,3.05 -2.476,5.525 -5.527,5.525 z"
     fill="#ffffff"
     id="path262" />
  <path
     d="m 238.184,211.679 c -3.051,0 -5.527,-2.475 -5.527,-5.525 v -6.414 c 0,-3.05 2.476,-5.525 5.527,-5.525 3.051,0 5.527,2.475 5.527,5.525 v 6.414 c 0,3.05 -2.476,5.525 -5.527,5.525 z"
     stroke="#1e1e1c"
     stroke-width="0.57"
     stroke-linecap="round"
     stroke-linejoin="round"
     id="path264" />
  <path
     d="m 236.02,200.995 c 0,0.348 -0.279,0.644 -0.628,0.644 -0.348,0 -0.644,-0.278 -0.644,-0.627 0,-0.349 0.278,-0.645 0.627,-0.645 0.349,0 0.645,0.279 0.645,0.628 z"
     fill="#1e1e1c"
     id="path266" />
  <path
     d="m 241.882,200.995 c 0,0.348 -0.279,0.644 -0.628,0.644 -0.348,0 -0.645,-0.278 -0.645,-0.627 0,-0.349 0.279,-0.645 0.628,-0.645 0.348,0 0.645,0.279 0.645,0.628 z"
     fill="#1e1e1c"
     id="path268" />
  <path
     d="m 237.642,201.064 c 0,1.29 -1.046,2.318 -2.319,2.318 -1.272,0 -2.319,-1.046 -2.319,-2.318 0,-1.272 1.047,-2.318 2.319,-2.318 1.273,0 2.319,1.046 2.319,2.318 z m 5.876,0 c 0,1.29 -1.046,2.318 -2.319,2.318 -1.272,0 -2.319,-1.046 -2.319,-2.318 0,-1.272 1.047,-2.318 2.319,-2.318 1.273,0 2.319,1.046 2.319,2.318 z"
     stroke="#1e1e1c"
     stroke-width="0.57"
     stroke-linecap="round"
     stroke-linejoin="round"
     id="path270" />
  <path
     d="m 236.893,199.234 c 0.854,-0.558 1.726,-0.592 2.633,0 z"
     fill="#ffffff"
     id="path272" />
  <path
     d="m 236.893,199.234 c 0.854,-0.558 1.726,-0.592 2.633,0"
     stroke="#1e1e1c"
     stroke-width="0.57"
     stroke-linecap="round"
     stroke-linejoin="round"
     id="path274" />
  <path
     d="m 239.527,199.234 c 0,0 -2.023,1.464 0.802,6.85 h -3.104"
     stroke="#1e1e1c"
     stroke-width="0.57"
     stroke-linecap="round"
     stroke-linejoin="round"
     id="path276" />
  <path
     d="m 243.52,197.597 c 0,-2.841 -2.372,-5.142 -5.301,-5.142 -2.929,0 -5.301,2.301 -5.301,5.142 h 14.507"
     fill="#a8a8a7"
     id="path278" />
  <path
     d="m 243.52,197.597 c 0,-2.841 -2.372,-5.142 -5.301,-5.142 -2.929,0 -5.301,2.301 -5.301,5.142 h 14.507"
     stroke="#1e1e1c"
     stroke-width="0.57"
     stroke-miterlimit="10"
     stroke-linecap="round"
     id="path280" />
  <path
     d="m 240.119,207.793 c 0,1.081 -0.872,1.952 -1.953,1.952 -1.081,0 -1.953,-0.871 -1.953,-1.952"
     stroke="#1e1e1c"
     stroke-width="0.57"
     stroke-linecap="round"
     stroke-linejoin="round"
     id="path282" />
  <path
     d="m 236.195,211.418 c 0,0 -4.341,0.523 -4.341,4.131 z"
     fill="#ffffff"
     id="path284" />
  <path
     d="m 236.195,211.418 c 0,0 -4.341,0.523 -4.341,4.131"
     stroke="#1e1e1c"
     stroke-width="0.57"
     stroke-linecap="round"
     stroke-linejoin="round"
     id="path286" />
  <path
     d="m 179.839,248.803 c 0,-6.797 -5.51,-12.305 -12.31,-12.305 -6.8,0 -12.31,5.508 -12.31,12.305 0,6.797 5.51,12.305 12.31,12.305 6.8,0 12.31,-5.508 12.31,-12.305 z"
     fill="#ffffff"
     id="path288" />
  <path
     d="m 167.529,261.108 c 6.799,0 12.31,-5.509 12.31,-12.305 0,-6.796 -5.511,-12.305 -12.31,-12.305 -6.798,0 -12.31,5.509 -12.31,12.305 0,6.796 5.512,12.305 12.31,12.305 z"
     stroke="#1e1e1c"
     stroke-width="0.57"
     stroke-linecap="round"
     stroke-linejoin="round"
     id="path290" />
  <path
     d="m 265.054,248.803 c 0,-6.797 -5.51,-12.305 -12.31,-12.305 -6.801,0 -12.31,5.508 -12.31,12.305 0,6.797 5.509,12.305 12.31,12.305 6.8,0 12.31,-5.508 12.31,-12.305 z"
     fill="#ffffff"
     id="path292" />
  <path
     d="m 252.744,261.108 c 6.798,0 12.31,-5.509 12.31,-12.305 0,-6.796 -5.512,-12.305 -12.31,-12.305 -6.799,0 -12.31,5.509 -12.31,12.305 0,6.796 5.511,12.305 12.31,12.305 z"
     stroke="#1e1e1c"
     stroke-width="0.57"
     stroke-linecap="round"
     stroke-linejoin="round"
     id="path294" />
  <path
     d="m 259.507,248.803 c 0,-3.747 -3.034,-6.78 -6.782,-6.78 -3.749,0 -6.783,3.033 -6.783,6.78 0,3.747 3.034,6.78 6.783,6.78 3.748,0 6.782,-3.033 6.782,-6.78 z"
     fill="#ffffff"
     id="path296" />
  <path
     d="m 259.507,248.803 c 0,-3.747 -3.034,-6.78 -6.782,-6.78 -3.749,0 -6.783,3.033 -6.783,6.78 0,3.747 3.034,6.78 6.783,6.78 3.748,0 6.782,-3.033 6.782,-6.78 z"
     stroke="#1e1e1c"
     stroke-width="0.57"
     stroke-linecap="round"
     stroke-linejoin="round"
     id="path298" />
  <path
     d="m 174.297,248.803 c 0,-3.747 -3.034,-6.78 -6.783,-6.78 -3.749,0 -6.783,3.033 -6.783,6.78 0,3.747 3.034,6.78 6.783,6.78 3.749,0 6.783,-3.033 6.783,-6.78 z"
     fill="#ffffff"
     id="path300" />
  <path
     d="m 174.297,248.803 c 0,-3.747 -3.034,-6.78 -6.783,-6.78 -3.749,0 -6.783,3.033 -6.783,6.78 0,3.747 3.034,6.78 6.783,6.78 3.749,0 6.783,-3.033 6.783,-6.78 z"
     stroke="#1e1e1c"
     stroke-width="0.57"
     stroke-linecap="round"
     stroke-linejoin="round"
     id="path302" />
  <path
     d="m 480.844,192.926 v 26.892 h -39.946 c 0,0 1.813,-2.945 4.237,-6.901 7.62,-12.41 21.133,-19.991 35.709,-19.991 z"
     fill="#ffffff"
     id="path304" />
  <path
     d="m 480.844,192.926 v 26.892 h -39.946 c 0,0 1.813,-2.945 4.237,-6.901 7.62,-12.41 21.133,-19.991 35.709,-19.991 z"
     stroke="#1e1e1c"
     stroke-width="0.57"
     stroke-linecap="round"
     stroke-linejoin="round"
     id="path306" />
  <path
     d="m 453.852,221.718 c -0.297,0.122 -0.646,0 -0.785,-0.314 l -4.534,-10.579 c -0.122,-0.297 0,-0.645 0.314,-0.785 0.314,-0.139 0.645,0 0.785,0.314 l 4.533,10.579 c 0.122,0.297 0,0.645 -0.313,0.785 z"
     fill="#1e1e1c"
     id="path308" />
  <path
     d="m 453.852,221.718 c -0.297,0.122 -0.646,0 -0.785,-0.314 l -4.534,-10.579 c -0.122,-0.297 0,-0.645 0.314,-0.785 0.314,-0.139 0.645,0 0.785,0.314 l 4.533,10.579 c 0.122,0.297 0,0.645 -0.313,0.785 z"
     stroke="#1e1e1c"
     stroke-width="0.57"
     stroke-linecap="round"
     stroke-linejoin="round"
     id="path310" />
  <path
     d="m 457.185,219.384 c 0,0 -2.476,-0.523 -3.208,-2.179 -0.733,-1.656 -0.75,-2.562 -1.081,-2.318 -0.332,0.261 -0.733,0.837 -0.541,1.83 0.105,0.61 -0.227,0.854 -0.488,0.941 -0.244,0.087 -1.482,-1.168 -1.604,-0.958 -0.454,0.766 -0.122,3.851 1.534,4.845 2.197,1.324 5.004,-0.07 5.004,-0.07 l 0.401,-2.109 z"
     fill="#a8a8a7"
     id="path312" />
  <path
     d="m 457.185,219.384 c 0,0 -2.476,-0.523 -3.208,-2.179 -0.733,-1.656 -0.75,-2.562 -1.081,-2.318 -0.332,0.261 -0.733,0.837 -0.541,1.83 0.105,0.61 -0.227,0.854 -0.488,0.941 -0.244,0.087 -1.482,-1.168 -1.604,-0.958 -0.454,0.766 -0.122,3.851 1.534,4.845 2.197,1.324 5.004,-0.07 5.004,-0.07 l 0.401,-2.109 z"
     stroke="#1e1e1c"
     stroke-width="0.57"
     stroke-miterlimit="10"
     stroke-linecap="round"
     id="path314" />
  <path
     d="m 473.784,212.795 c -2.389,0 -5.266,0.697 -6.016,3.834 -0.174,0.75 -0.697,1.36 -1.395,1.673 -1.604,0.698 -4.621,1.552 -8.09,0.366 -0.645,-0.226 -1.36,0.053 -1.674,0.663 -0.715,1.377 -0.506,2.806 0.261,4.252 l 26.277,-0.156 c 0,0 -0.977,-4.009 -3.052,-7.181 -1.394,-2.126 -3.766,-3.434 -6.311,-3.434"
     fill="#1e1e1c"
     id="path316" />
  <path
     d="m 473.784,212.795 c -2.389,0 -5.266,0.697 -6.016,3.834 -0.174,0.75 -0.697,1.36 -1.395,1.673 -1.604,0.698 -4.621,1.552 -8.09,0.366 -0.645,-0.226 -1.36,0.053 -1.674,0.663 -0.715,1.377 -0.506,2.806 0.261,4.252 l 26.277,-0.156 c 0,0 -0.977,-4.009 -3.052,-7.181 -1.394,-2.126 -3.766,-3.434 -6.311,-3.434 z"
     stroke="#1e1e1c"
     stroke-width="0.57"
     stroke-miterlimit="10"
     stroke-linecap="round"
     id="path318" />
  <path
     d="M 553.348,241.361 H 415.096 v 9.203 h 138.252 z"
     fill="#ffffff"
     id="path320" />
  <path
     d="M 553.348,241.361 H 415.096 v 9.203 h 138.252 z"
     stroke="#1e1e1c"
     stroke-width="0.57"
     stroke-linecap="round"
     stroke-linejoin="round"
     id="path322" />
  <path
     d="M 549.229,241.361 H 418.195 c -0.122,-2.214 0.14,-4.375 0.767,-6.345 l 0.157,0.227 c 0,0 14.246,0.819 14.734,-10.353 h 3.923 l 3.121,-5.072 h 39.947 v -26.892 h 6.504 v 26.892 h 33.756 v -26.892 h 6.504 v 26.892 h 14.978 l 6.625,21.543 z"
     fill="#ffffff"
     id="path324" />
  <path
     d="M 549.229,241.361 H 418.195 c -0.122,-2.214 0.14,-4.375 0.767,-6.345 l 0.157,0.227 c 0,0 14.246,0.819 14.734,-10.353 h 3.923 l 3.121,-5.072 h 39.947 v -26.892 h 6.504 v 26.892 h 33.756 v -26.892 h 6.504 v 26.892 h 14.978 l 6.625,21.543 z"
     stroke="#1e1e1c"
     stroke-width="0.57"
     stroke-miterlimit="10"
     id="path326" />
  <path
     d="M 521.106,192.926 H 487.35 v 26.892 h 33.756 z"
     fill="#8581bd"
     id="path328" />
  <path
     d="M 521.106,192.926 H 487.35 v 26.892 h 33.756 z"
     stroke="#1e1e1c"
     stroke-width="0.57"
     stroke-miterlimit="10"
     id="path330" />
  <path
     d="M 553.348,239.602 H 415.096 v 10.98 h 138.252 z"
     fill="#a8a8a7"
     id="path332" />
  <path
     d="M 553.348,239.602 H 415.096 v 10.98 h 138.252 z"
     stroke="#1e1e1c"
     stroke-width="0.57"
     stroke-miterlimit="10"
     stroke-linecap="round"
     id="path334" />
  <path
     d="m 453.437,250.563 c 0,-6.92 -5.614,-12.532 -12.537,-12.532 -6.922,0 -12.536,5.612 -12.536,12.532 0,6.919 5.614,12.531 12.536,12.531 6.923,0 12.537,-5.612 12.537,-12.531 z"
     fill="#ffffff"
     id="path336" />
  <path
     d="m 440.9,263.094 c 6.924,0 12.537,-5.611 12.537,-12.531 0,-6.921 -5.613,-12.532 -12.537,-12.532 -6.923,0 -12.536,5.611 -12.536,12.532 0,6.92 5.613,12.531 12.536,12.531 z"
     stroke="#1e1e1c"
     stroke-width="0.57"
     stroke-linecap="round"
     stroke-linejoin="round"
     id="path338" />
  <path
     d="m 540.15,250.563 c 0,-6.92 -5.614,-12.532 -12.537,-12.532 -6.922,0 -12.536,5.612 -12.536,12.532 0,6.919 5.614,12.531 12.536,12.531 6.923,0 12.537,-5.612 12.537,-12.531 z"
     fill="#ffffff"
     id="path340" />
  <path
     d="m 527.613,263.094 c 6.924,0 12.537,-5.611 12.537,-12.531 0,-6.921 -5.613,-12.532 -12.537,-12.532 -6.923,0 -12.536,5.611 -12.536,12.532 0,6.92 5.613,12.531 12.536,12.531 z"
     stroke="#1e1e1c"
     stroke-width="0.57"
     stroke-linecap="round"
     stroke-linejoin="round"
     id="path342" />
  <path
     d="m 534.498,250.564 c 0,-3.799 -3.086,-6.884 -6.887,-6.884 -3.801,0 -6.905,3.085 -6.905,6.884 0,3.8 3.086,6.884 6.905,6.884 3.818,0 6.887,-3.084 6.887,-6.884 z"
     fill="#ffffff"
     id="path344" />
  <path
     d="m 534.498,250.564 c 0,-3.799 -3.086,-6.884 -6.887,-6.884 -3.801,0 -6.905,3.085 -6.905,6.884 0,3.8 3.086,6.884 6.905,6.884 3.818,0 6.887,-3.084 6.887,-6.884 z"
     stroke="#1e1e1c"
     stroke-width="0.57"
     stroke-linecap="round"
     stroke-linejoin="round"
     id="path346" />
  <path
     d="m 447.807,250.564 c 0,-3.799 -3.086,-6.884 -6.888,-6.884 -3.801,0 -6.904,3.085 -6.904,6.884 0,3.8 3.086,6.884 6.904,6.884 3.819,0 6.888,-3.084 6.888,-6.884 z"
     fill="#ffffff"
     id="path348" />
  <path
     d="m 447.807,250.564 c 0,-3.799 -3.086,-6.884 -6.888,-6.884 -3.801,0 -6.904,3.085 -6.904,6.884 0,3.8 3.086,6.884 6.904,6.884 3.819,0 6.888,-3.084 6.888,-6.884 z"
     stroke="#1e1e1c"
     stroke-width="0.57"
     stroke-linecap="round"
     stroke-linejoin="round"
     id="path350" />
  <path
     d="m 433.858,224.89 c -0.488,11.172 -14.734,10.353 -14.734,10.353 l -0.157,-0.226 c 1.849,-5.839 6.888,-10.144 14.891,-10.144"
     fill="#ffffff"
     id="path352" />
  <path
     d="m 433.858,224.89 c -0.488,11.172 -14.734,10.353 -14.734,10.353 l -0.157,-0.226 c 1.849,-5.839 6.888,-10.144 14.891,-10.144 z"
     stroke="#1e1e1c"
     stroke-width="0.57"
     stroke-linecap="round"
     stroke-linejoin="round"
     id="path354" />
  <path
     d="M 521.106,192.926 H 487.35 v 26.892 h 33.756 z"
     fill="#ffffff"
     id="path356" />
  <path
     d="M 521.106,192.926 H 487.35 v 26.892 h 33.756 z"
     stroke="#1e1e1c"
     stroke-width="0.57"
     stroke-linecap="round"
     stroke-linejoin="round"
     id="path358" />
  <path
     d="m 542.587,219.818 h -14.978 v -26.892 h 0.401 c 3.749,0 7.062,2.44 8.16,6.03 l 6.434,20.862 z"
     fill="#ffffff"
     id="path360" />
  <path
     d="m 542.587,219.818 h -14.978 v -26.892 h 0.401 c 3.749,0 7.062,2.44 8.16,6.03 l 6.434,20.862 z"
     stroke="#1e1e1c"
     stroke-width="0.57"
     stroke-linecap="round"
     stroke-linejoin="round"
     id="path362" />
  <path
     d="m 477.445,211.332 c -0.959,1.621 -2.72,2.719 -4.742,2.719 -3.034,0 -5.493,-2.458 -5.493,-5.49 v -2.388 c -1.273,0 -2.301,-1.046 -2.301,-2.318 0,-0.924 0.61,-4.654 3.435,-6.675 1.569,0.819 4.167,2.614 2.964,5.176 0.035,-0.035 2.336,-2.039 3.103,0.976 0.785,3.05 -2.388,2.649 -2.388,2.649 0,0 1.412,5.333 5.422,5.351 z"
     fill="#a8a8a7"
     id="path364" />
  <path
     d="m 477.445,211.332 c -0.959,1.621 -2.72,2.719 -4.742,2.719 -3.034,0 -5.493,-2.458 -5.493,-5.49 v -2.388 c -1.273,0 -2.301,-1.046 -2.301,-2.318 0,-0.924 0.61,-4.654 3.435,-6.675 1.569,0.819 4.167,2.614 2.964,5.176 0.035,-0.035 2.336,-2.039 3.103,0.976 0.785,3.05 -2.388,2.649 -2.388,2.649 0,0 1.412,5.333 5.422,5.351 z"
     stroke="#1e1e1c"
     stroke-width="0.57"
     stroke-miterlimit="10"
     stroke-linecap="round"
     id="path366" />
  <path
     d="m 478.197,201.346 v 7.198 c 0,1.011 -0.279,1.969 -0.75,2.771 -4.01,0 -5.422,-5.351 -5.422,-5.351 0,0 3.173,0.384 2.388,-2.649 -0.767,-3.015 -3.068,-1.011 -3.103,-0.976 1.203,-2.562 -1.395,-4.357 -2.964,-5.176 1.098,-0.785 2.511,-1.29 4.359,-1.308 1.517,0 2.894,0.61 3.888,1.604 0.994,0.993 1.604,2.37 1.604,3.887 z"
     fill="#1e1e1c"
     id="path368" />
  <path
     d="m 478.197,201.346 v 7.198 c 0,1.011 -0.279,1.969 -0.75,2.771 -4.01,0 -5.422,-5.351 -5.422,-5.351 0,0 3.173,0.384 2.388,-2.649 -0.767,-3.015 -3.068,-1.011 -3.103,-0.976 1.203,-2.562 -1.395,-4.357 -2.964,-5.176 1.098,-0.785 2.511,-1.29 4.359,-1.308 1.517,0 2.894,0.61 3.888,1.604 0.994,0.993 1.604,2.37 1.604,3.887 z"
     stroke="#1e1e1c"
     stroke-width="0.57"
     stroke-linecap="round"
     stroke-linejoin="round"
     id="path370" />
  <path
     d="m 481.072,196.202 c 0,1.308 -1.063,2.371 -2.371,2.371 -1.308,0 -2.371,-1.063 -2.371,-2.371 0,-1.307 1.063,-2.37 2.371,-2.37 1.308,0 2.371,1.063 2.371,2.37 z"
     fill="#1e1e1c"
     id="path372" />
  <path
     d="m 478.72,198.573 c 1.31,0 2.372,-1.062 2.372,-2.371 0,-1.309 -1.062,-2.37 -2.372,-2.37 -1.309,0 -2.371,1.061 -2.371,2.37 0,1.309 1.062,2.371 2.371,2.371 z"
     stroke="#1e1e1c"
     stroke-width="0.57"
     stroke-linecap="round"
     stroke-linejoin="round"
     id="path374" />
  <path
     d="m 483.864,197.423 c 0,1.08 -0.872,1.952 -1.953,1.952 -1.081,0 -1.953,-0.872 -1.953,-1.952 0,-1.081 0.872,-1.952 1.953,-1.952 1.081,0 1.953,0.871 1.953,1.952 z"
     fill="#1e1e1c"
     id="path376" />
  <path
     d="m 483.864,197.423 c 0,1.08 -0.872,1.952 -1.953,1.952 -1.081,0 -1.953,-0.872 -1.953,-1.952 0,-1.081 0.872,-1.952 1.953,-1.952 1.081,0 1.953,0.871 1.953,1.952 z"
     stroke="#1e1e1c"
     stroke-width="0.57"
     stroke-linecap="round"
     stroke-linejoin="round"
     id="path378" />
  <path
     d="m 483.077,201.082 c 0,0.854 -0.697,1.552 -1.552,1.552 -0.854,0 -1.551,-0.698 -1.551,-1.552 0,-0.854 0.697,-1.551 1.551,-1.551 0.855,0 1.552,0.697 1.552,1.551 z"
     fill="#1e1e1c"
     id="path380" />
  <path
     d="m 483.077,201.082 c 0,0.854 -0.697,1.552 -1.552,1.552 -0.854,0 -1.551,-0.698 -1.551,-1.552 0,-0.854 0.697,-1.551 1.551,-1.551 0.855,0 1.552,0.697 1.552,1.551 z"
     stroke="#1e1e1c"
     stroke-width="0.57"
     stroke-linecap="round"
     stroke-linejoin="round"
     id="path382" />
  <path
     d="m 484.385,203 c 0,0.61 -0.488,1.098 -1.098,1.098 -0.61,0 -1.098,-0.488 -1.098,-1.098 0,-0.61 0.488,-1.098 1.098,-1.098 0.61,0 1.098,0.488 1.098,1.098 z"
     fill="#1e1e1c"
     id="path384" />
  <path
     d="m 484.385,203 c 0,0.61 -0.488,1.098 -1.098,1.098 -0.61,0 -1.098,-0.488 -1.098,-1.098 0,-0.61 0.488,-1.098 1.098,-1.098 0.61,0 1.098,0.488 1.098,1.098 z"
     stroke="#1e1e1c"
     stroke-width="0.57"
     stroke-linecap="round"
     stroke-linejoin="round"
     id="path386" />
  <path
     d="m 468.937,201.85 c 0,0.21 -0.157,0.366 -0.366,0.366 -0.209,0 -0.366,-0.156 -0.366,-0.366 0,-0.209 0.157,-0.366 0.366,-0.366 0.209,0 0.366,0.157 0.366,0.366 z"
     fill="#1e1e1c"
     id="path388" />
  <path
     d="m 468.937,201.85 c 0,0.21 -0.157,0.366 -0.366,0.366 -0.209,0 -0.366,-0.156 -0.366,-0.366 0,-0.209 0.157,-0.366 0.366,-0.366 0.209,0 0.366,0.157 0.366,0.366 z"
     stroke="#1e1e1c"
     stroke-width="0.57"
     stroke-miterlimit="10"
     id="path390" />
  <path
     d="m 505.676,210.616 c 0,0 0.941,2.37 4.708,2.231 l 0.592,-1.987 c -1.952,0.889 -4.359,-1.063 -4.359,-1.063 l -0.924,0.802 z"
     fill="#a8a8a7"
     id="path392" />
  <path
     d="m 505.676,210.616 c 0,0 0.941,2.37 4.708,2.231 l 0.592,-1.987 c -1.952,0.889 -4.359,-1.063 -4.359,-1.063 l -0.924,0.802 z"
     stroke="#1e1e1c"
     stroke-width="0.57"
     stroke-miterlimit="10"
     stroke-linecap="round"
     id="path394" />
  <path
     d="m 467.21,208.543 c 0,0 1.884,0.488 3.017,-0.645 z"
     fill="#1e1e1c"
     id="path396" />
  <path
     d="m 467.21,208.543 c 0,0 1.884,0.488 3.017,-0.645"
     stroke="#1e1e1c"
     stroke-width="0.57"
     stroke-miterlimit="10"
     id="path398" />
  <path
     d="m 527.575,215.672 c 0,-2.179 -1.778,-3.957 -3.958,-3.957 -0.035,0 -0.052,0 -0.087,0 0,-0.104 0,-0.209 0,-0.313 0,-2.179 -1.778,-3.957 -3.958,-3.957 -1.866,0 -3.435,1.29 -3.853,3.033 -0.576,-0.505 -1.308,-0.819 -2.145,-0.819 -1.779,0 -3.208,1.429 -3.208,3.207 0,0.523 0.122,1.028 0.366,1.464 -1.883,0.313 -3.313,1.934 -3.313,3.904 0,2.178 1.778,3.956 3.958,3.956 0.628,0 1.221,-0.139 1.744,-0.401 0.662,1.255 1.987,2.109 3.504,2.109 1.012,0 1.953,-0.383 2.651,-1.011 0.523,0.262 1.116,0.401 1.743,0.401 2.18,0 3.941,-1.743 3.958,-3.921 1.5,-0.558 2.563,-2.005 2.563,-3.713"
     fill="#ffffff"
     id="path400" />
  <path
     d="m 527.575,215.672 c 0,-2.179 -1.778,-3.957 -3.958,-3.957 -0.035,0 -0.052,0 -0.087,0 0,-0.104 0,-0.209 0,-0.313 0,-2.179 -1.778,-3.957 -3.958,-3.957 -1.866,0 -3.435,1.29 -3.853,3.033 -0.576,-0.505 -1.308,-0.819 -2.145,-0.819 -1.779,0 -3.208,1.429 -3.208,3.207 0,0.523 0.122,1.028 0.366,1.464 -1.883,0.313 -3.313,1.934 -3.313,3.904 0,2.178 1.778,3.956 3.958,3.956 0.628,0 1.221,-0.139 1.744,-0.401 0.662,1.255 1.987,2.109 3.504,2.109 1.012,0 1.953,-0.383 2.651,-1.011 0.523,0.262 1.116,0.401 1.743,0.401 2.18,0 3.941,-1.743 3.958,-3.921 1.5,-0.558 2.563,-2.005 2.563,-3.713 z"
     stroke="#1e1e1c"
     stroke-width="0.57"
     stroke-linecap="round"
     stroke-linejoin="round"
     id="path402" />
  <path
     d="m 509.893,217.396 c 0,0 -5.37,5.787 -3.347,7.39 2.005,1.604 5.492,-6.082 5.492,-6.082"
     fill="#ffffff"
     id="path404" />
  <path
     d="m 509.893,217.396 c 0,0 -5.37,5.787 -3.347,7.39 2.005,1.604 5.492,-6.082 5.492,-6.082"
     stroke="#1e1e1c"
     stroke-width="0.57"
     stroke-linecap="round"
     stroke-linejoin="round"
     id="path406" />
  <path
     d="m 520.935,209.78 c 0,0 6.381,-4.096 7.393,-1.812 1.011,2.283 -6.679,4.148 -6.679,4.148"
     fill="#ffffff"
     id="path408" />
  <path
     d="m 520.935,209.78 c 0,0 6.381,-4.096 7.393,-1.812 1.011,2.283 -6.679,4.148 -6.679,4.148"
     stroke="#1e1e1c"
     stroke-width="0.57"
     stroke-linecap="round"
     stroke-linejoin="round"
     id="path410" />
  <path
     d="m 515.404,216.473 c 0,0.21 -0.157,0.366 -0.366,0.366 -0.209,0 -0.366,-0.156 -0.366,-0.366 0,-0.209 0.157,-0.366 0.366,-0.366 0.209,0 0.366,0.157 0.366,0.366 z"
     fill="#1e1e1c"
     id="path412" />
  <path
     d="m 515.404,216.473 c 0,0.21 -0.157,0.366 -0.366,0.366 -0.209,0 -0.366,-0.156 -0.366,-0.366 0,-0.209 0.157,-0.366 0.366,-0.366 0.209,0 0.366,0.157 0.366,0.366 z"
     stroke="#1e1e1c"
     stroke-width="0.57"
     stroke-miterlimit="10"
     id="path414" />
  <path
     d="m 519.884,213.511 c 0,0.209 -0.156,0.366 -0.366,0.366 -0.209,0 -0.366,-0.157 -0.366,-0.366 0,-0.21 0.157,-0.366 0.366,-0.366 0.21,0 0.366,0.156 0.366,0.366 z"
     fill="#1e1e1c"
     id="path416" />
  <path
     d="m 519.884,213.511 c 0,0.209 -0.156,0.366 -0.366,0.366 -0.209,0 -0.366,-0.157 -0.366,-0.366 0,-0.21 0.157,-0.366 0.366,-0.366 0.21,0 0.366,0.156 0.366,0.366 z"
     stroke="#1e1e1c"
     stroke-width="0.57"
     stroke-miterlimit="10"
     id="path418" />
  <path
     d="m 520.269,216.09 -0.261,1.394 c -0.035,0.209 -0.244,0.349 -0.436,0.296 l -1.395,-0.261 c -0.331,-0.07 -0.418,-0.488 -0.139,-0.68 l 1.656,-1.115 c 0.279,-0.192 0.645,0.052 0.593,0.383"
     fill="#1e1e1c"
     id="path420" />
  <path
     d="m 502.747,198.19 c 0,0 -7.829,-0.994 -7.969,1.568 -0.122,2.562 8.143,0.924 8.143,0.924"
     fill="#a8a8a7"
     id="path422" />
  <path
     d="m 502.747,198.19 c 0,0 -7.829,-0.994 -7.969,1.568 -0.122,2.562 8.143,0.924 8.143,0.924"
     stroke="#1e1e1c"
     stroke-width="0.57"
     stroke-miterlimit="10"
     stroke-linecap="round"
     id="path424" />
  <path
     d="m 508.029,206.835 c 0,1.115 -0.488,2.213 -1.412,2.963 -0.122,0.104 -0.244,0.209 -0.349,0.314 -3.766,3.834 -7.724,7.093 -11.892,9.707 h -7.026 v -5.159 c 4.986,-3.346 9.799,-6.936 14.419,-10.771 0.192,-0.156 0.384,-0.296 0.611,-0.418 1.656,-0.906 3.766,-0.453 4.899,1.098 0.506,0.68 0.733,1.464 0.733,2.248"
     fill="#a8a8a7"
     id="path426" />
  <path
     d="m 508.029,206.835 c 0,1.115 -0.488,2.213 -1.412,2.963 -0.122,0.104 -0.244,0.209 -0.349,0.314 -3.766,3.834 -7.724,7.093 -11.892,9.707 h -7.026 v -5.159 c 4.986,-3.346 9.799,-6.936 14.419,-10.771 0.192,-0.156 0.384,-0.296 0.611,-0.418 1.656,-0.906 3.766,-0.453 4.899,1.098 0.506,0.68 0.733,1.464 0.733,2.248 z"
     stroke="#1e1e1c"
     stroke-width="0.57"
     stroke-miterlimit="10"
     stroke-linecap="round"
     id="path428" />
  <path
     d="m 517.027,198.243 c 0.157,0.628 -0.349,2.196 -1.796,2.301 -2.267,0.139 -6.207,0 -6.085,0.366 0.436,1.272 3.522,1.324 3.208,1.499 -2.737,1.551 -5.126,2.196 -6.312,2.492 -2.092,0.505 -4.202,-0.784 -4.708,-2.876 -0.505,-2.091 0.785,-4.2 2.877,-4.706 2.093,-0.505 12.31,-1.185 12.816,0.907"
     fill="#a8a8a7"
     id="path430" />
  <path
     d="m 517.027,198.243 c 0.157,0.628 -0.349,2.196 -1.796,2.301 -2.267,0.139 -6.207,0 -6.085,0.366 0.436,1.272 3.522,1.324 3.208,1.499 -2.737,1.551 -5.126,2.196 -6.312,2.492 -2.092,0.505 -4.202,-0.784 -4.708,-2.876 -0.505,-2.091 0.785,-4.2 2.877,-4.706 2.093,-0.505 12.31,-1.185 12.816,0.907 z"
     stroke="#1e1e1c"
     stroke-width="0.57"
     stroke-miterlimit="10"
     stroke-linecap="round"
     id="path432" />
  <path
     d="m 504.002,200.961 c 0,0 -5.37,5.786 -3.347,7.39 2.005,1.603 5.492,-6.083 5.492,-6.083"
     fill="#a8a8a7"
     id="path434" />
  <path
     d="m 504.002,200.961 c 0,0 -5.37,5.786 -3.347,7.39 2.005,1.603 5.492,-6.083 5.492,-6.083"
     stroke="#1e1e1c"
     stroke-width="0.57"
     stroke-miterlimit="10"
     stroke-linecap="round"
     id="path436" />
  <path
     d="m 517.706,196.988 -0.262,1.395 c -0.035,0.209 -0.244,0.348 -0.436,0.296 l -1.394,-0.262 c -0.332,-0.069 -0.419,-0.488 -0.14,-0.679 l 1.656,-1.116 c 0.279,-0.191 0.646,0.053 0.593,0.384"
     fill="#1e1e1c"
     id="path438" />
  <path
     d="m 507.524,199.776 c 0,0.209 -0.157,0.366 -0.367,0.366 -0.209,0 -0.365,-0.157 -0.365,-0.366 0,-0.209 0.156,-0.366 0.365,-0.366 0.21,0 0.367,0.157 0.367,0.366 z"
     fill="#1e1e1c"
     id="path440" />
  <path
     d="m 507.524,199.776 c 0,0.209 -0.157,0.366 -0.367,0.366 -0.209,0 -0.365,-0.157 -0.365,-0.366 0,-0.209 0.156,-0.366 0.365,-0.366 0.21,0 0.367,0.157 0.367,0.366 z"
     stroke="#1e1e1c"
     stroke-width="0.57"
     stroke-miterlimit="10"
     id="path442" />
  <path
     d="m 838.376,187.297 v 32.853 h 48.787 c 0,0 -2.215,-3.608 -5.179,-8.435 -9.293,-15.163 -25.823,-24.418 -43.608,-24.418 z"
     fill="#ffffff"
     id="path444" />
  <path
     d="m 838.376,187.297 v 32.853 h 48.787 c 0,0 -2.215,-3.608 -5.179,-8.435 -9.293,-15.163 -25.823,-24.418 -43.608,-24.418 z"
     stroke="#1e1e1c"
     stroke-width="0.57"
     stroke-linecap="round"
     stroke-linejoin="round"
     id="path446" />
  <path
     d="m 830.428,187.297 h -41.237 v 32.853 h 41.237 z"
     fill="#ffffff"
     id="path448" />
  <path
     d="m 830.428,187.297 h -41.237 v 32.853 h 41.237 z"
     stroke="#1e1e1c"
     stroke-width="0.57"
     stroke-linecap="round"
     stroke-linejoin="round"
     id="path450" />
  <path
     d="m 852.851,208.455 h -7.411 c -3.034,0 -5.318,-2.579 -5.161,-5.438 0.436,0.349 0.959,0.628 1.517,0.819 2.319,0.767 5.318,1.238 8.387,0.332 2.615,-0.785 4.08,-3.573 3.243,-6.17 l -0.61,-1.917 c -0.68,-2.144 -2.668,-3.591 -4.917,-3.591 h 3.138 c 2.25,0 4.237,1.447 4.917,3.591 l 0.436,1.376 2.703,3.434 -1.622,-0.07 0.297,0.924 c 1.063,3.329 -1.43,6.727 -4.917,6.727"
     fill="#ffffff"
     id="path452" />
  <path
     d="m 852.851,208.455 h -7.411 c -3.034,0 -5.318,-2.579 -5.161,-5.438 0.436,0.349 0.959,0.628 1.517,0.819 2.319,0.767 5.318,1.238 8.387,0.332 2.615,-0.785 4.08,-3.573 3.243,-6.17 l -0.61,-1.917 c -0.68,-2.144 -2.668,-3.591 -4.917,-3.591 h 3.138 c 2.25,0 4.237,1.447 4.917,3.591 l 0.436,1.376 2.703,3.434 -1.622,-0.07 0.297,0.924 c 1.063,3.329 -1.43,6.727 -4.917,6.727 z"
     stroke="#1e1e1c"
     stroke-width="0.57"
     stroke-linecap="round"
     stroke-linejoin="round"
     id="path454" />
  <path
     d="m 852.849,209.066 c 0,0 8.98,7.093 17.105,5.124 0.523,-0.21 1.325,4.183 1.325,4.183 0,0 -10.392,5.507 -17.471,-0.994 v 5.455 l -19.128,-0.261 c -0.592,0 -1.918,-0.14 -3.574,-0.994 -2.894,-1.498 4.115,-12.81 10.357,-14.274 7.48,-1.76 11.369,1.743 11.369,1.743"
     fill="#ffffff"
     id="path456" />
  <path
     d="m 852.849,209.066 c 0,0 8.98,7.093 17.105,5.124 0.523,-0.21 1.325,4.183 1.325,4.183 0,0 -10.392,5.507 -17.471,-0.994 v 5.455 l -19.128,-0.261 c -0.592,0 -1.918,-0.14 -3.574,-0.994 -2.894,-1.498 4.115,-12.81 10.357,-14.274 7.48,-1.76 11.369,1.743 11.369,1.743 z"
     stroke="#1e1e1c"
     stroke-width="0.57"
     stroke-linecap="round"
     stroke-linejoin="round"
     id="path458" />
  <path
     d="m 849.815,205.337 c -2.162,0.645 -4.446,0 -6.643,0.017 -1.395,0 -2.598,-0.976 -2.877,-2.353 0.017,-0.418 0.105,-0.854 0.244,-1.289 l 1.796,-5.665 c 0.68,-2.144 2.668,-3.59 4.917,-3.59 h 0.68 c 1.674,0 10.793,-3.712 7.951,3.311 -0.209,0.506 -2.424,2.196 -2.424,2.196 0.837,2.597 -1.011,6.571 -3.644,7.355"
     fill="#1e1e1c"
     id="path460" />
  <path
     d="m 849.815,205.337 c -2.162,0.645 -4.446,0 -6.643,0.017 -1.395,0 -2.598,-0.976 -2.877,-2.353 0.017,-0.418 0.105,-0.854 0.244,-1.289 l 1.796,-5.665 c 0.68,-2.144 2.668,-3.59 4.917,-3.59 h 0.68 c 1.674,0 10.793,-3.712 7.951,3.311 -0.209,0.506 -2.424,2.196 -2.424,2.196 0.837,2.597 -1.011,6.571 -3.644,7.355 z"
     stroke="#1e1e1c"
     stroke-width="0.57"
     stroke-linecap="round"
     stroke-linejoin="round"
     id="path462" />
  <path
     d="m 846.991,206.224 c 0,1.639 -1.325,2.981 -2.982,2.981 -1.656,0 -2.981,-1.325 -2.981,-2.981 0,-1.655 1.325,-2.98 2.981,-2.98 1.657,0 2.982,1.325 2.982,2.98 z"
     fill="#1e1e1c"
     id="path464" />
  <path
     d="m 846.991,206.224 c 0,1.639 -1.325,2.981 -2.982,2.981 -1.656,0 -2.981,-1.325 -2.981,-2.981 0,-1.655 1.325,-2.98 2.981,-2.98 1.657,0 2.982,1.325 2.982,2.98 z"
     stroke="#1e1e1c"
     stroke-width="0.57"
     stroke-linecap="round"
     stroke-linejoin="round"
     id="path466" />
  <path
     d="m 844.062,210.094 c 0,1.133 -0.924,2.056 -2.057,2.056 -1.134,0 -2.058,-0.923 -2.058,-2.056 0,-1.133 0.924,-2.057 2.058,-2.057 1.133,0 2.057,0.924 2.057,2.057 z"
     fill="#1e1e1c"
     id="path468" />
  <path
     d="m 844.062,210.094 c 0,1.133 -0.924,2.056 -2.057,2.056 -1.134,0 -2.058,-0.923 -2.058,-2.056 0,-1.133 0.924,-2.057 2.058,-2.057 1.133,0 2.057,0.924 2.057,2.057 z"
     stroke="#1e1e1c"
     stroke-width="0.57"
     stroke-linecap="round"
     stroke-linejoin="round"
     id="path470" />
  <path
     d="m 840.924,212.551 c 0,0.767 -0.61,1.377 -1.378,1.377 -0.767,0 -1.377,-0.61 -1.377,-1.377 0,-0.767 0.61,-1.377 1.377,-1.377 0.768,0 1.378,0.61 1.378,1.377 z"
     fill="#1e1e1c"
     id="path472" />
  <path
     d="m 840.924,212.551 c 0,0.767 -0.61,1.377 -1.378,1.377 -0.767,0 -1.377,-0.61 -1.377,-1.377 0,-0.767 0.61,-1.377 1.377,-1.377 0.768,0 1.378,0.61 1.378,1.377 z"
     stroke="#1e1e1c"
     stroke-width="0.57"
     stroke-linecap="round"
     stroke-linejoin="round"
     id="path474" />
  <path
     d="m 855.533,199.41 c 0,0.156 -0.122,0.296 -0.297,0.296 -0.174,0 -0.278,-0.122 -0.278,-0.296 0,-0.175 0.122,-0.297 0.278,-0.297 0.157,0 0.297,0.122 0.297,0.297 z"
     fill="#1e1e1c"
     id="path476" />
  <path
     d="m 855.533,199.41 c 0,0.156 -0.122,0.296 -0.297,0.296 -0.174,0 -0.278,-0.122 -0.278,-0.296 0,-0.175 0.122,-0.297 0.278,-0.297 0.157,0 0.297,0.122 0.297,0.297 z"
     stroke="#1e1e1c"
     stroke-width="0.57"
     stroke-linecap="round"
     stroke-linejoin="round"
     id="path478" />
  <path
     d="m 871.35,222.469 c 0.366,0.157 0.802,0 0.959,-0.383 l 5.544,-12.932 c 0.157,-0.366 0,-0.802 -0.383,-0.959 -0.366,-0.157 -0.802,0 -0.959,0.383 l -5.545,12.933 c -0.157,0.366 0,0.801 0.384,0.958 z"
     fill="#1e1e1c"
     id="path480" />
  <path
     d="m 871.35,222.469 c 0.366,0.157 0.802,0 0.959,-0.383 l 5.544,-12.932 c 0.157,-0.366 0,-0.802 -0.383,-0.959 -0.366,-0.157 -0.802,0 -0.959,0.383 l -5.545,12.933 c -0.157,0.366 0,0.801 0.384,0.958 z"
     stroke="#1e1e1c"
     stroke-width="0.57"
     stroke-linecap="round"
     stroke-linejoin="round"
     id="path482" />
  <path
     d="M 918.67,246.469 H 749.817 V 257.71 H 918.67 Z"
     fill="#ffffff"
     id="path484" />
  <path
     d="M 918.67,246.469 H 749.817 V 257.71 H 918.67 Z"
     stroke="#1e1e1c"
     stroke-width="0.57"
     stroke-linecap="round"
     stroke-linejoin="round"
     id="path486" />
  <path
     d="m 754.858,246.45 h 160.03 c 0.14,-2.701 -0.174,-5.333 -0.941,-7.738 l -0.192,0.279 c 0,0 -17.402,0.993 -18.012,-12.653 h -4.795 l -3.818,-6.188 h -48.787 v -32.853 h -7.951 v 32.853 h -41.237 v -32.853 h -7.951 v 32.853 h -18.29 l -8.108,26.318 z"
     fill="#ffffff"
     id="path488" />
  <path
     d="m 754.858,246.45 h 160.03 c 0.14,-2.701 -0.174,-5.333 -0.941,-7.738 l -0.192,0.279 c 0,0 -17.402,0.993 -18.012,-12.653 h -4.795 l -3.818,-6.188 h -48.787 v -32.853 h -7.951 v 32.853 h -41.237 v -32.853 h -7.951 v 32.853 h -18.29 l -8.108,26.318 z"
     stroke="#1e1e1c"
     stroke-width="0.57"
     stroke-linecap="round"
     stroke-linejoin="round"
     id="path490" />
  <path
     d="M 918.67,244.289 H 749.817 v 13.403 H 918.67 Z"
     fill="#a8a8a7"
     id="path492" />
  <path
     d="M 918.67,244.289 H 749.817 v 13.403 H 918.67 Z"
     stroke="#1e1e1c"
     stroke-width="0.57"
     stroke-miterlimit="10"
     stroke-linecap="round"
     id="path494" />
  <path
     d="m 871.855,257.693 c 0,-8.453 6.853,-15.302 15.31,-15.302 8.456,0 15.309,6.849 15.309,15.302 0,8.453 -6.853,15.303 -15.309,15.303 -8.457,0 -15.31,-6.85 -15.31,-15.303 z"
     fill="#ffffff"
     id="path496" />
  <path
     d="m 871.855,257.693 c 0,-8.453 6.853,-15.302 15.31,-15.302 8.456,0 15.309,6.849 15.309,15.302 0,8.453 -6.853,15.303 -15.309,15.303 -8.457,0 -15.31,-6.85 -15.31,-15.303 z"
     stroke="#1e1e1c"
     stroke-width="0.57"
     stroke-linecap="round"
     stroke-linejoin="round"
     id="path498" />
  <path
     d="m 765.947,257.693 c 0,-8.453 6.852,-15.302 15.309,-15.302 8.456,0 15.309,6.849 15.309,15.302 0,8.453 -6.853,15.303 -15.309,15.303 -8.457,0 -15.309,-6.85 -15.309,-15.303 z"
     fill="#ffffff"
     id="path500" />
  <path
     d="m 765.947,257.693 c 0,-8.453 6.852,-15.302 15.309,-15.302 8.456,0 15.309,6.849 15.309,15.302 0,8.453 -6.853,15.303 -15.309,15.303 -8.457,0 -15.309,-6.85 -15.309,-15.303 z"
     stroke="#1e1e1c"
     stroke-width="0.57"
     stroke-linecap="round"
     stroke-linejoin="round"
     id="path502" />
  <path
     d="m 772.834,257.692 c 0,-4.654 3.767,-8.419 8.422,-8.419 4.656,0 8.422,3.765 8.422,8.419 0,4.653 -3.766,8.418 -8.422,8.418 -4.655,0 -8.422,-3.765 -8.422,-8.418 z"
     fill="#ffffff"
     id="path504" />
  <path
     d="m 772.834,257.692 c 0,-4.654 3.767,-8.419 8.422,-8.419 4.656,0 8.422,3.765 8.422,8.419 0,4.653 -3.766,8.418 -8.422,8.418 -4.655,0 -8.422,-3.765 -8.422,-8.418 z"
     stroke="#1e1e1c"
     stroke-width="0.57"
     stroke-linecap="round"
     stroke-linejoin="round"
     id="path506" />
  <path
     d="m 878.726,257.692 c 0,-4.654 3.766,-8.419 8.421,-8.419 4.656,0 8.422,3.765 8.422,8.419 0,4.653 -3.766,8.418 -8.422,8.418 -4.655,0 -8.421,-3.765 -8.421,-8.418 z"
     fill="#ffffff"
     id="path508" />
  <path
     d="m 878.726,257.692 c 0,-4.654 3.766,-8.419 8.421,-8.419 4.656,0 8.422,3.765 8.422,8.419 0,4.653 -3.766,8.418 -8.422,8.418 -4.655,0 -8.421,-3.765 -8.421,-8.418 z"
     stroke="#1e1e1c"
     stroke-width="0.57"
     stroke-linecap="round"
     stroke-linejoin="round"
     id="path510" />
  <path
     d="m 895.778,226.338 c 0.61,13.647 17.994,12.653 17.994,12.653 l 0.192,-0.279 c -2.249,-7.128 -8.404,-12.374 -18.186,-12.374 z"
     fill="#ffffff"
     id="path512" />
  <path
     d="m 895.778,226.338 c 0.61,13.647 17.994,12.653 17.994,12.653 l 0.192,-0.279 c -2.249,-7.128 -8.404,-12.374 -18.186,-12.374 z"
     stroke="#1e1e1c"
     stroke-width="0.57"
     stroke-linecap="round"
     stroke-linejoin="round"
     id="path514" />
  <path
     d="m 762.967,220.15 h 18.291 v -32.853 h -0.471 c -4.586,0 -8.613,2.98 -9.973,7.355 l -7.847,25.481 z"
     fill="#ffffff"
     id="path516" />
  <path
     d="m 762.967,220.15 h 18.291 v -32.853 h -0.471 c -4.586,0 -8.613,2.98 -9.973,7.355 l -7.847,25.481 z"
     stroke="#1e1e1c"
     stroke-width="0.57"
     stroke-linecap="round"
     stroke-linejoin="round"
     id="path518" />
  <path
     d="m 870.425,214.363 c 0,0 2.232,-3.207 2.772,-2.928 1.482,0.802 -0.244,3.05 -0.244,3.05 l 3.121,1.621 c 0.855,0.436 1.203,1.499 0.767,2.353 -0.366,0.697 -1.046,1.359 -2.354,1.516 -0.662,0.087 -1.342,-0.104 -1.865,-0.523 l -1.325,-1.063 c -0.21,-1.289 -0.506,-2.631 -0.855,-4.008"
     fill="#ffffff"
     id="path520" />
  <path
     d="m 870.425,214.363 c 0,0 2.232,-3.207 2.772,-2.928 1.482,0.802 -0.244,3.05 -0.244,3.05 l 3.121,1.621 c 0.855,0.436 1.203,1.499 0.767,2.353 -0.366,0.697 -1.046,1.359 -2.354,1.516 -0.662,0.087 -1.342,-0.104 -1.865,-0.523 l -1.325,-1.063 c -0.21,-1.289 -0.506,-2.631 -0.855,-4.008 z"
     stroke="#1e1e1c"
     stroke-width="0.57"
     stroke-linecap="round"
     stroke-linejoin="round"
     id="path522" />
  <path
     d="m 858.167,181.18 h -84.758 v 2.196 h 84.758 c 0,0 8.073,0.244 9.52,-5.63 h -0.052 c -1.325,0 -2.581,0.54 -3.54,1.464 -0.994,0.959 -2.807,2.022 -5.928,1.987"
     fill="#ffffff"
     id="path524" />
  <path
     d="m 858.167,181.18 h -84.758 v 2.196 h 84.758 c 0,0 8.073,0.244 9.52,-5.63 h -0.052 c -1.325,0 -2.581,0.54 -3.54,1.464 -0.994,0.959 -2.807,2.022 -5.928,1.987 z"
     stroke="#1e1e1c"
     stroke-width="0.57"
     stroke-linecap="round"
     stroke-linejoin="round"
     id="path526" />
  <path
     d="m 796.25,211.367 c 0,0 -4.882,3.852 -4.882,8.732 h 15.763 c 0,0 -0.558,-5.212 -4.534,-9.185 -3.975,-3.974 -6.347,0.453 -6.347,0.453 z"
     fill="#1e1e1c"
     id="path528" />
  <path
     d="m 796.25,211.367 c 0,0 -4.882,3.852 -4.882,8.732 h 15.763 c 0,0 -0.558,-5.212 -4.534,-9.185 -3.975,-3.974 -6.347,0.453 -6.347,0.453 z"
     stroke="#1e1e1c"
     stroke-width="0.57"
     stroke-linecap="round"
     stroke-linejoin="round"
     id="path530" />
  <path
     d="m 803.086,205.946 1.901,-0.471 c -0.541,-1.62 -2.842,-4.461 -3.139,-4.827 l -0.401,-1.813 c -0.505,-2.266 -2.755,-3.712 -5.021,-3.207 -2.267,0.506 -3.714,2.754 -3.208,5.02 l 1.9,8.627 c 0.506,2.266 2.755,3.712 5.022,3.207 2.266,-0.506 3.714,-2.754 3.208,-5.02 z"
     fill="#ffffff"
     id="path532" />
  <path
     d="m 803.086,205.946 1.901,-0.471 c -0.541,-1.62 -2.842,-4.461 -3.139,-4.827 l -0.401,-1.813 c -0.505,-2.266 -2.755,-3.712 -5.021,-3.207 -2.267,0.506 -3.714,2.754 -3.208,5.02 l 1.9,8.627 c 0.506,2.266 2.755,3.712 5.022,3.207 2.266,-0.506 3.714,-2.754 3.208,-5.02 z"
     stroke="#1e1e1c"
     stroke-width="0.57"
     stroke-linecap="round"
     stroke-linejoin="round"
     id="path534" />
  <path
     d="m 799.739,208.072 c 0.209,0.958 1.168,1.568 2.127,1.359 0.959,-0.209 1.569,-1.168 1.36,-2.126 z"
     fill="#ffffff"
     id="path536" />
  <path
     d="m 799.739,208.072 c 0.209,0.958 1.168,1.568 2.127,1.359 0.959,-0.209 1.569,-1.168 1.36,-2.126 z"
     stroke="#1e1e1c"
     stroke-width="0.57"
     stroke-linecap="round"
     stroke-linejoin="round"
     id="path538" />
  <path
     d="m 799.545,201.344 c 0.053,0.21 -0.087,0.419 -0.296,0.471 -0.209,0.052 -0.418,-0.087 -0.47,-0.296 -0.053,-0.209 0.087,-0.419 0.296,-0.471 0.209,-0.052 0.418,0.087 0.47,0.296 z"
     fill="#1e1e1c"
     id="path540" />
  <path
     d="m 799.545,201.344 c 0.053,0.21 -0.087,0.419 -0.296,0.471 -0.209,0.052 -0.418,-0.087 -0.47,-0.296 -0.053,-0.209 0.087,-0.419 0.296,-0.471 0.209,-0.052 0.418,0.087 0.47,0.296 z"
     stroke="#1e1e1c"
     stroke-width="0.57"
     stroke-miterlimit="10"
     stroke-linecap="round"
     id="path542" />
  <path
     d="m 802.018,196.431 -10.29,2.473 0.529,2.203 10.291,-2.473 z"
     fill="#a8a8a7"
     id="path544" />
  <path
     d="m 802.018,196.431 -10.29,2.473 0.529,2.203 10.291,-2.473 z"
     stroke="#1e1e1c"
     stroke-width="0.57"
     stroke-miterlimit="10"
     stroke-linecap="round"
     id="path546" />
  <path
     d="m 792.485,198.73 c -0.575,-2.371 0.89,-4.758 3.261,-5.333 2.371,-0.576 4.76,0.888 5.336,3.259 z"
     fill="#a8a8a7"
     id="path548" />
  <path
     d="m 792.485,198.73 c -0.575,-2.371 0.89,-4.758 3.261,-5.333 2.371,-0.576 4.76,0.888 5.336,3.259 z"
     stroke="#1e1e1c"
     stroke-width="0.57"
     stroke-miterlimit="10"
     stroke-linecap="round"
     id="path550" />
  <path
     d="m 807.22,214.539 c 0,0 3.714,3.172 3.661,5.56 l -5.318,0.07 -0.906,-5.386 z"
     fill="#ffffff"
     id="path552" />
  <path
     d="m 807.22,214.539 c 0,0 3.714,3.172 3.661,5.56 l -5.318,0.07 -0.906,-5.386 z"
     stroke="#1e1e1c"
     stroke-width="0.57"
     stroke-linecap="round"
     stroke-linejoin="round"
     id="path554" />
  <path
     d="m 805.808,216.595 c -4.29,0.332 -8.3,-0.087 -11.944,-1.516 -0.733,-0.279 -1.169,-1.028 -1.064,-1.812 l 0.436,-3.242 c 0.087,-0.68 0.802,-1.081 1.43,-0.819 2.859,1.185 5.963,1.708 9.276,1.655 1.988,-0.017 3.539,1.691 3.278,3.66 l -0.105,0.82 c -0.087,0.662 -0.627,1.185 -1.307,1.237"
     fill="#ffffff"
     id="path556" />
  <path
     d="m 805.808,216.595 c -4.29,0.332 -8.3,-0.087 -11.944,-1.516 -0.733,-0.279 -1.169,-1.028 -1.064,-1.812 l 0.436,-3.242 c 0.087,-0.68 0.802,-1.081 1.43,-0.819 2.859,1.185 5.963,1.708 9.276,1.655 1.988,-0.017 3.539,1.691 3.278,3.66 l -0.105,0.82 c -0.087,0.662 -0.627,1.185 -1.307,1.237 z"
     stroke="#1e1e1c"
     stroke-width="0.57"
     stroke-linecap="round"
     stroke-linejoin="round"
     id="path558" />
  <path
     d="m 597.338,224.264 v 10.823 h 157.868 c -7.777,-11.259 -15.222,-12.636 -34.367,-12.636 H 599.151 c -1.011,0 -1.813,0.819 -1.813,1.813 z"
     fill="#ffffff"
     id="path560" />
  <path
     d="m 597.338,224.264 v 10.823 h 157.868 c -7.777,-11.259 -15.222,-12.636 -34.367,-12.636 H 599.151 c -1.011,0 -1.813,0.819 -1.813,1.813 z"
     stroke="#1e1e1c"
     stroke-width="0.57"
     stroke-linecap="round"
     stroke-linejoin="round"
     id="path562" />
  <path
     d="m 597.34,235.07 v 69.489 h 214.222 c 0.645,-12.566 -7.079,-23.633 -22.476,-23.633 h -5.631 l -4.482,-7.268 H 721.66 V 235.07 H 597.322 Z"
     fill="#ffffff"
     id="path564" />
  <path
     d="m 597.34,235.07 v 69.489 h 214.222 c 0.645,-12.566 -7.079,-23.633 -22.476,-23.633 h -5.631 l -4.482,-7.268 H 721.66 V 235.07 H 597.322 Z"
     stroke="#1e1e1c"
     stroke-width="0.57"
     stroke-linecap="round"
     stroke-linejoin="round"
     id="path566" />
  <path
     d="m 597.338,224.264 v 10.823 h 157.868 c -7.777,-11.259 -15.222,-12.636 -34.367,-12.636 H 599.151 c -1.011,0 -1.813,0.819 -1.813,1.813 z"
     fill="#ffffff"
     id="path568" />
  <path
     d="m 597.338,224.264 v 10.823 h 157.868 c -7.777,-11.259 -15.222,-12.636 -34.367,-12.636 H 599.151 c -1.011,0 -1.813,0.819 -1.813,1.813 z"
     stroke="#1e1e1c"
     stroke-width="0.57"
     stroke-linecap="round"
     stroke-linejoin="round"
     id="path570" />
  <path
     d="m 721.678,235.07 v 38.588 h 57.313 l -19.929,-32.331 c -1.326,-2.37 -2.581,-4.427 -3.836,-6.239 h -33.53 z"
     fill="#ffffff"
     id="path572" />
  <path
     d="m 721.678,235.07 v 38.588 h 57.313 l -19.929,-32.331 c -1.326,-2.37 -2.581,-4.427 -3.836,-6.239 h -33.53 z"
     stroke="#1e1e1c"
     stroke-width="0.57"
     stroke-linecap="round"
     stroke-linejoin="round"
     id="path574" />
  <path
     d="M 816.007,304.559 H 592.596 v 13.193 h 223.411 z"
     fill="#a8a8a7"
     id="path576" />
  <path
     d="M 816.007,304.559 H 592.596 v 13.193 h 223.411 z"
     stroke="#1e1e1c"
     stroke-width="0.57"
     stroke-miterlimit="10"
     stroke-linecap="round"
     id="path578" />
  <path
     d="m 761.013,317.77 c 0,-9.917 8.056,-17.969 17.977,-17.969 9.921,0 17.977,8.052 17.977,17.969 0,9.917 -8.056,17.969 -17.977,17.969 -9.921,0 -17.977,-8.052 -17.977,-17.969 z"
     fill="#ffffff"
     id="path580" />
  <path
     d="m 778.99,335.739 c 9.928,0 17.977,-8.045 17.977,-17.969 0,-9.924 -8.049,-17.969 -17.977,-17.969 -9.928,0 -17.977,8.045 -17.977,17.969 0,9.924 8.049,17.969 17.977,17.969 z"
     stroke="#1e1e1c"
     stroke-width="0.57"
     stroke-linecap="round"
     stroke-linejoin="round"
     id="path582" />
  <path
     d="m 605.603,317.77 c 0,-9.917 8.056,-17.969 17.977,-17.969 9.921,0 17.977,8.052 17.977,17.969 0,9.917 -8.056,17.969 -17.977,17.969 -9.921,0 -17.977,-8.052 -17.977,-17.969 z"
     fill="#ffffff"
     id="path584" />
  <path
     d="m 623.58,335.739 c 9.928,0 17.977,-8.045 17.977,-17.969 0,-9.924 -8.049,-17.969 -17.977,-17.969 -9.928,0 -17.977,8.045 -17.977,17.969 0,9.924 8.049,17.969 17.977,17.969 z"
     stroke="#1e1e1c"
     stroke-width="0.57"
     stroke-linecap="round"
     stroke-linejoin="round"
     id="path586" />
  <path
     d="m 613.692,317.771 c 0,-5.456 4.429,-9.9 9.904,-9.9 5.475,0 9.887,4.427 9.887,9.9 0,5.472 -4.429,9.899 -9.887,9.899 -5.457,0 -9.904,-4.427 -9.904,-9.899 z"
     fill="#ffffff"
     id="path588" />
  <path
     d="m 613.692,317.771 c 0,-5.456 4.429,-9.9 9.904,-9.9 5.475,0 9.887,4.427 9.887,9.9 0,5.472 -4.429,9.899 -9.887,9.899 -5.457,0 -9.904,-4.427 -9.904,-9.899 z"
     stroke="#1e1e1c"
     stroke-width="0.57"
     stroke-linecap="round"
     stroke-linejoin="round"
     id="path590" />
  <path
     d="m 769.087,317.771 c 0,-5.456 4.429,-9.9 9.904,-9.9 5.475,0 9.886,4.427 9.886,9.9 0,5.472 -4.429,9.899 -9.886,9.899 -5.458,0 -9.904,-4.427 -9.904,-9.899 z"
     fill="#ffffff"
     id="path592" />
  <path
     d="m 769.087,317.771 c 0,-5.456 4.429,-9.9 9.904,-9.9 5.475,0 9.886,4.427 9.886,9.9 0,5.472 -4.429,9.899 -9.886,9.899 -5.458,0 -9.904,-4.427 -9.904,-9.899 z"
     stroke="#1e1e1c"
     stroke-width="0.57"
     stroke-linecap="round"
     stroke-linejoin="round"
     id="path594" />
  <path
     d="m 810.253,295.793 c 0,0 -20.435,1.167 -21.15,-14.867"
     stroke="#1e1e1c"
     stroke-width="0.57"
     stroke-linecap="round"
     stroke-linejoin="round"
     id="path596" />
  <path
     d="m 651.599,280.68 c -2.197,0 -4.185,-0.488 -5.929,-1.446 -1.761,-0.959 -3.156,-2.301 -4.202,-3.974 -1.046,-1.691 -1.569,-3.573 -1.569,-5.682 0,-2.109 0.523,-4.043 1.569,-5.734 1.046,-1.691 2.441,-3.015 4.22,-3.991 1.778,-0.976 3.766,-1.464 5.998,-1.464 1.674,0 3.208,0.296 4.603,0.871 1.395,0.593 2.633,1.447 3.714,2.597 l -4.22,4.218 c -0.505,-0.593 -1.098,-1.011 -1.778,-1.273 -0.68,-0.261 -1.465,-0.4 -2.302,-0.4 -0.994,0 -1.865,0.209 -2.615,0.644 -0.75,0.419 -1.343,1.029 -1.779,1.796 -0.436,0.784 -0.662,1.673 -0.662,2.701 0,1.028 0.226,1.882 0.662,2.684 0.436,0.784 1.047,1.394 1.796,1.83 0.767,0.419 1.622,0.645 2.598,0.645 0.907,0 1.709,-0.139 2.389,-0.436 0.698,-0.296 1.273,-0.749 1.779,-1.359 l 4.219,4.27 c -1.116,1.168 -2.371,2.057 -3.766,2.667 -1.395,0.592 -2.964,0.906 -4.725,0.906"
     fill="#64b76e"
     id="path598" />
  <path
     d="m 674.755,273.885 c -0.89,0.958 -2.093,1.429 -3.592,1.429 -0.942,0 -1.779,-0.227 -2.511,-0.662 -0.732,-0.436 -1.308,-1.046 -1.726,-1.796 -0.419,-0.766 -0.645,-1.638 -0.645,-2.631 0,-0.994 0.209,-1.935 0.645,-2.702 0.418,-0.784 0.994,-1.377 1.726,-1.83 0.732,-0.436 1.587,-0.662 2.546,-0.662 0.959,0 1.813,0.226 2.545,0.662 0.733,0.436 1.308,1.046 1.709,1.795 0.401,0.767 0.61,1.656 0.61,2.684 0,1.517 -0.453,2.772 -1.342,3.713 m 1.028,-14.397 v 1.813 c -0.557,-0.54 -1.22,-0.993 -1.987,-1.377 -1.168,-0.592 -2.476,-0.871 -3.906,-0.871 -1.97,0 -3.714,0.488 -5.283,1.464 -1.552,0.976 -2.773,2.3 -3.644,3.974 -0.872,1.673 -1.325,3.572 -1.325,5.716 0,2.144 0.435,3.991 1.325,5.665 0.871,1.673 2.092,2.98 3.626,3.956 1.535,0.976 3.296,1.447 5.249,1.447 1.464,0 2.79,-0.279 3.958,-0.837 0.767,-0.366 1.412,-0.819 1.987,-1.36 v 1.761 h 6.469 v -21.351 z"
     fill="#2fbad0"
     id="path600" />
  <path
     d="m 698.958,259.103 c -0.802,-0.331 -1.726,-0.488 -2.755,-0.488 -2.319,0 -4.132,0.697 -5.457,2.109 v -1.673 h -6.557 v 21.35 h 6.557 v -11.694 c 0,-1.43 0.348,-2.493 1.028,-3.19 0.698,-0.68 1.587,-1.028 2.703,-1.028 0.593,0 1.098,0.087 1.534,0.244 0.436,0.157 0.785,0.401 1.046,0.732 l 3.959,-4.88 c -0.593,-0.68 -1.291,-1.168 -2.093,-1.499"
     fill="#8581bd"
     id="path602" />
  <path
     d="M 632.002,259.471 V 271.2 c 0,0.75 -0.157,1.429 -0.471,2.022 -0.314,0.593 -0.75,1.063 -1.307,1.377 -0.558,0.314 -1.221,0.471 -1.971,0.471 -0.75,0 -1.377,-0.157 -1.935,-0.471 -0.558,-0.331 -0.994,-0.784 -1.308,-1.377 -0.314,-0.593 -0.471,-1.272 -0.471,-2.022 v -11.729 h -6.573 v 11.45 c 0,1.865 0.453,3.556 1.36,5.055 0.907,1.499 2.145,2.701 3.696,3.573 1.552,0.871 3.331,1.307 5.301,1.307 1.97,0 3.696,-0.436 5.231,-1.307 1.552,-0.872 2.772,-2.057 3.661,-3.573 0.89,-1.499 1.343,-3.19 1.343,-5.055 v -11.45 h -6.573 z"
     fill="#ed6e49"
     id="path604" />
  <path
     d="m 762.756,273.134 c 0,0 2.493,-3.015 4.899,-3.381 5.842,-0.889 4.708,3.381 4.708,3.381 l -6.207,3.642 z"
     fill="#ffffff"
     id="path606" />
  <path
     d="m 762.756,273.134 c 0,0 2.493,-3.015 4.899,-3.381 5.842,-0.889 4.708,3.381 4.708,3.381 l -6.207,3.642 z"
     stroke="#1e1e1c"
     stroke-width="0.57"
     stroke-linecap="round"
     stroke-linejoin="round"
     id="path608" />
  <path
     d="m 771.545,273.657 c 0,0 -4.498,8.784 -15.414,13.926 -7.183,3.381 -12.188,-4.724 -16.948,-11.033 -3.696,-4.897 -3.382,-9.168 -0.366,-12.444 1.238,-1.342 3.418,-1.499 5.545,-1.272 l 5.684,-0.506 c 0,0 6.539,4.828 8.945,11.067 l -5.283,0.332 c 1.133,3.468 1.552,3.154 1.552,3.154 l 6.852,-3.573 c 2.79,0.889 3.017,3.225 9.398,0.349"
     fill="#1e1e1c"
     id="path610" />
  <path
     d="m 771.545,273.657 c 0,0 -4.498,8.784 -15.414,13.926 -7.183,3.381 -12.188,-4.724 -16.948,-11.033 -3.696,-4.897 -3.382,-9.168 -0.366,-12.444 1.238,-1.342 3.418,-1.499 5.545,-1.272 l 5.684,-0.506 c 0,0 6.539,4.828 8.945,11.067 l -5.283,0.332 c 1.133,3.468 1.552,3.154 1.552,3.154 l 6.852,-3.573 c 2.79,0.889 3.017,3.225 9.398,0.349 z"
     stroke="#1e1e1c"
     stroke-width="0.57"
     stroke-linecap="round"
     stroke-linejoin="round"
     id="path612" />
  <path
     d="m 741.884,264.124 13.391,-2.406 c 0.82,-0.139 1.308,-0.976 1.064,-1.76 l -1.971,-6.309 c -0.069,-0.209 0.035,-0.436 0.245,-0.54 l 3.591,-1.534 c 0.262,-0.105 0.297,-0.471 0.053,-0.628 -2.441,-1.551 -5.929,-3.851 -6.765,-6.483 l -0.227,-0.697 c -0.994,-3.19 -4.202,-5.124 -7.48,-4.532 -3.278,0.593 -5.615,3.538 -5.44,6.85 l 0.854,15.912 c 0.07,1.36 1.325,2.353 2.668,2.109"
     fill="#ffffff"
     id="path614" />
  <path
     d="m 741.884,264.124 13.391,-2.406 c 0.82,-0.139 1.308,-0.976 1.064,-1.76 l -1.971,-6.309 c -0.069,-0.209 0.035,-0.436 0.245,-0.54 l 3.591,-1.534 c 0.262,-0.105 0.297,-0.471 0.053,-0.628 -2.441,-1.551 -5.929,-3.851 -6.765,-6.483 l -0.227,-0.697 c -0.994,-3.19 -4.202,-5.124 -7.48,-4.532 -3.278,0.593 -5.615,3.538 -5.44,6.85 l 0.854,15.912 c 0.07,1.36 1.325,2.353 2.668,2.109 z"
     stroke="#1e1e1c"
     stroke-width="0.57"
     stroke-miterlimit="10"
     stroke-linecap="round"
     id="path616" />
  <path
     d="m 738.434,247.426 12.275,-4.984 c -1.395,-2.336 -4.08,-3.678 -6.87,-3.19 -3.295,0.593 -5.649,3.555 -5.475,6.902 l 0.07,1.255 z"
     fill="#1e1e1c"
     id="path618" />
  <path
     d="m 738.434,247.426 12.275,-4.984 c -1.395,-2.336 -4.08,-3.678 -6.87,-3.19 -3.295,0.593 -5.649,3.555 -5.475,6.902 l 0.07,1.255 z"
     stroke="#1e1e1c"
     stroke-width="0.57"
     stroke-miterlimit="10"
     stroke-linecap="round"
     id="path620" />
  <path
     d="m 747.691,243.645 8.527,-3.416"
     stroke="#1e1e1c"
     stroke-width="0.57"
     stroke-miterlimit="10"
     stroke-linecap="round"
     id="path622" />
  <path
     d="m 754.842,256.995 c -1.865,0.436 -4.097,-0.314 -4.987,-1.028"
     stroke="#1e1e1c"
     stroke-width="0.57"
     stroke-miterlimit="10"
     stroke-linecap="round"
     id="path624" />
  <path
     d="m 748.65,248.524 c 0.087,0.488 0.558,0.82 1.046,0.732 0.488,-0.087 0.819,-0.557 0.732,-1.045 -0.087,-0.488 -0.558,-0.819 -1.046,-0.732 -0.488,0.087 -0.819,0.557 -0.732,1.045 z"
     fill="#1e1e1c"
     id="path626" />
  <path
     d="m 736.586,273.658 h -7.567 v -12.846 h 3.853 c 2.057,0 3.714,1.656 3.714,3.713 z"
     fill="#a8a8a7"
     id="path628" />
  <path
     d="m 736.586,273.658 h -7.567 v -12.846 h 3.853 c 2.057,0 3.714,1.656 3.714,3.713 z"
     stroke="#1e1e1c"
     stroke-width="0.57"
     stroke-miterlimit="10"
     stroke-linecap="round"
     id="path630" />
  <path
     d="m 731.826,260.794 c -1.116,0 -2.11,-0.47 -2.807,-1.237 v -10.37 c 0.697,-0.767 1.691,-1.238 2.807,-1.238 2.092,0 3.783,1.691 3.783,3.782 v 5.281 c 0,2.092 -1.691,3.782 -3.783,3.782 z"
     fill="#a8a8a7"
     id="path632" />
  <path
     d="m 731.826,260.794 c -1.116,0 -2.11,-0.47 -2.807,-1.237 v -10.37 c 0.697,-0.767 1.691,-1.238 2.807,-1.238 2.092,0 3.783,1.691 3.783,3.782 v 5.281 c 0,2.092 -1.691,3.782 -3.783,3.782 z"
     stroke="#1e1e1c"
     stroke-width="0.57"
     stroke-miterlimit="10"
     stroke-linecap="round"
     id="path634" />
  <path
     d="m 331.68,260.377 h -12.607 v 40.4 h 12.607 z"
     fill="#ffffff"
     id="path636" />
  <path
     d="m 331.68,260.377 h -12.607 v 40.4 h 12.607 z"
     stroke="#1e1e1c"
     stroke-width="0.57"
     stroke-miterlimit="10"
     stroke-linecap="round"
     id="path638" />
  <path
     d="m 326.462,252.445 h -2.213 v 7.93 h 2.213 z"
     fill="#1e1e1c"
     id="path640" />
  <path
     d="m 326.462,252.445 h -2.213 v 7.93 h 2.213 z"
     stroke="#1e1e1c"
     stroke-width="0.57"
     stroke-miterlimit="10"
     stroke-linecap="round"
     id="path642" />
  <path
     d="m 325.369,260.377 v 39.616"
     stroke="#1e1e1c"
     stroke-width="0.57"
     stroke-miterlimit="10"
     stroke-linecap="round"
     id="path644" />
  <path
     d="M 307.319,307.923 H 476.73 c 0.157,-2.859 -0.192,-5.647 -0.994,-8.192 l -0.192,0.297 c 0,0 -18.412,1.063 -19.057,-13.386 h -5.074 l -4.046,-6.553 h -51.646 v -34.771 h -60.469 v 34.771 H 315.88 l -8.578,27.851 z"
     fill="#1e1e1c"
     id="path646" />
  <path
     d="M 307.319,307.923 H 476.73 c 0.157,-2.859 -0.192,-5.647 -0.994,-8.192 l -0.192,0.297 c 0,0 -18.412,1.063 -19.057,-13.386 h -5.074 l -4.046,-6.553 h -51.646 v -34.771 h -60.469 v 34.771 H 315.88 l -8.578,27.851 z"
     stroke="#1e1e1c"
     stroke-width="0.57"
     stroke-linecap="round"
     stroke-linejoin="round"
     id="path648" />
  <path
     d="m 395.72,245.301 v 34.77 h 51.646 c 0,0 -2.336,-3.817 -5.475,-8.923 -9.851,-16.052 -27.322,-25.847 -46.171,-25.847 z"
     fill="#ffffff"
     id="path650" />
  <path
     d="m 395.72,245.301 v 34.77 h 51.646 c 0,0 -2.336,-3.817 -5.475,-8.923 -9.851,-16.052 -27.322,-25.847 -46.171,-25.847 z"
     stroke="#1e1e1c"
     stroke-width="0.57"
     stroke-linecap="round"
     stroke-linejoin="round"
     id="path652" />
  <path
     d="M 480.741,305.621 H 301.984 v 14.187 h 178.757 z"
     fill="#a8a8a7"
     id="path654" />
  <path
     d="M 480.741,305.621 H 301.984 v 14.187 h 178.757 z"
     stroke="#1e1e1c"
     stroke-width="0.57"
     stroke-miterlimit="10"
     stroke-linecap="round"
     id="path656" />
  <path
     d="m 431.172,319.809 c 0,-8.941 7.254,-16.192 16.199,-16.192 8.944,0 16.198,7.251 16.198,16.192 0,8.941 -7.254,16.191 -16.198,16.191 -8.945,0 -16.199,-7.25 -16.199,-16.191 z"
     fill="#ffffff"
     id="path658" />
  <path
     d="m 447.371,336 c 8.946,0 16.198,-7.249 16.198,-16.191 0,-8.943 -7.252,-16.192 -16.198,-16.192 -8.946,0 -16.199,7.249 -16.199,16.192 0,8.942 7.253,16.191 16.199,16.191 z"
     stroke="#1e1e1c"
     stroke-width="0.57"
     stroke-linecap="round"
     stroke-linejoin="round"
     id="path660" />
  <path
     d="m 319.058,319.809 c 0,-8.941 7.254,-16.192 16.198,-16.192 8.945,0 16.199,7.251 16.199,16.192 0,8.941 -7.254,16.191 -16.199,16.191 -8.944,0 -16.198,-7.25 -16.198,-16.191 z"
     fill="#ffffff"
     id="path662" />
  <path
     d="m 335.272,336 c 8.946,0 16.198,-7.249 16.198,-16.191 0,-8.943 -7.252,-16.192 -16.198,-16.192 -8.946,0 -16.198,7.249 -16.198,16.192 0,8.942 7.252,16.191 16.198,16.191 z"
     stroke="#1e1e1c"
     stroke-width="0.57"
     stroke-linecap="round"
     stroke-linejoin="round"
     id="path664" />
  <path
     d="m 326.344,319.808 c 0,-4.914 3.993,-8.906 8.91,-8.906 4.917,0 8.91,3.992 8.91,8.906 0,4.915 -3.993,8.907 -8.91,8.907 -4.917,0 -8.91,-3.992 -8.91,-8.907 z"
     fill="#ffffff"
     id="path666" />
  <path
     d="m 326.344,319.808 c 0,-4.914 3.993,-8.906 8.91,-8.906 4.917,0 8.91,3.992 8.91,8.906 0,4.915 -3.993,8.907 -8.91,8.907 -4.917,0 -8.91,-3.992 -8.91,-8.907 z"
     stroke="#1e1e1c"
     stroke-width="0.57"
     stroke-linecap="round"
     stroke-linejoin="round"
     id="path668" />
  <path
     d="m 438.443,319.808 c 0,-4.914 3.993,-8.906 8.91,-8.906 4.917,0 8.91,3.992 8.91,8.906 0,4.915 -3.993,8.907 -8.91,8.907 -4.917,0 -8.91,-3.992 -8.91,-8.907 z"
     fill="#ffffff"
     id="path670" />
  <path
     d="m 438.443,319.808 c 0,-4.914 3.993,-8.906 8.91,-8.906 4.917,0 8.91,3.992 8.91,8.906 0,4.915 -3.993,8.907 -8.91,8.907 -4.917,0 -8.91,-3.992 -8.91,-8.907 z"
     stroke="#1e1e1c"
     stroke-width="0.57"
     stroke-linecap="round"
     stroke-linejoin="round"
     id="path672" />
  <path
     d="m 456.492,286.625 c 0.645,14.448 19.058,13.385 19.058,13.385 l 0.191,-0.296 c -2.388,-7.547 -8.892,-13.107 -19.249,-13.107"
     fill="#ffffff"
     id="path674" />
  <path
     d="m 456.492,286.625 c 0.645,14.448 19.058,13.385 19.058,13.385 l 0.191,-0.296 c -2.388,-7.547 -8.892,-13.107 -19.249,-13.107 z"
     stroke="#1e1e1c"
     stroke-width="0.57"
     stroke-linecap="round"
     stroke-linejoin="round"
     id="path676" />
  <path
     d="m 387.318,245.301 v 34.77 h -43.643 v -34.77"
     fill="#ffffff"
     id="path678" />
  <path
     d="m 387.318,245.301 v 34.77 h -43.643 v -34.77"
     stroke="#1e1e1c"
     stroke-width="0.57"
     stroke-linecap="round"
     stroke-linejoin="round"
     id="path680" />
  <path
     d="m 300.488,226.459 v 4.409 c 0,8.262 6.695,14.937 14.943,14.937 h 19.842 v -0.506 c 0,-4.845 -3.156,-9.132 -7.794,-10.544 l -26.991,-8.314 z"
     fill="#ffffff"
     id="path682" />
  <path
     d="m 300.488,226.459 v 4.409 c 0,8.262 6.695,14.937 14.943,14.937 h 19.842 v -0.506 c 0,-4.845 -3.156,-9.132 -7.794,-10.544 l -26.991,-8.314 z"
     stroke="#1e1e1c"
     stroke-width="0.57"
     stroke-linecap="round"
     stroke-linejoin="round"
     id="path684" />
  <path
     d="m 398.006,230.398 h -60.347 v 14.885 h 60.347 z"
     fill="#a8a8a7"
     id="path686" />
  <path
     d="m 398.006,230.398 h -60.347 v 14.885 h 60.347 z"
     stroke="#1e1e1c"
     stroke-width="0.57"
     stroke-miterlimit="10"
     stroke-linecap="round"
     id="path688" />
  <path
     d="m 388.765,207.078 h -51.106 v 10.579 h 51.106 z"
     fill="#ffffff"
     id="path690" />
  <path
     d="m 388.765,207.078 h -51.106 v 10.579 h 51.106 z"
     stroke="#1e1e1c"
     stroke-width="0.57"
     stroke-miterlimit="10"
     stroke-linecap="round"
     id="path692" />
  <path
     d="M 403.237,217.658 H 342.89 v 12.758 h 60.347 z"
     fill="#1e1e1c"
     id="path694" />
  <path
     d="M 403.237,217.658 H 342.89 v 12.758 h 60.347 z"
     stroke="#1e1e1c"
     stroke-width="0.57"
     stroke-miterlimit="10"
     stroke-linecap="round"
     id="path696" />
  <path
     d="m 367.823,205.701 h -6.451 v 40.749 h 6.451 z"
     fill="#ffffff"
     id="path698" />
  <path
     d="m 367.823,205.701 h -6.451 v 40.749 h 6.451 z"
     stroke="#1e1e1c"
     stroke-width="0.57"
     stroke-miterlimit="10"
     stroke-linecap="round"
     id="path700" />
  <path
     d="m 279.896,307.171 c 0,0 -2.546,12.915 -1.029,20.758 1.517,7.843 6.434,8.07 6.434,8.07 h -6.974 c 0,0 -1.273,-4.601 -2.755,-4.671 -1.482,-0.07 -0.977,4.671 -0.977,4.671 h -0.854 c -1.604,-10.458 -2.877,-17.987 -2.563,-29.333 z"
     fill="#1e1e1c"
     id="path702" />
  <path
     d="m 279.896,307.171 c 0,0 -2.546,12.915 -1.029,20.758 1.517,7.843 6.434,8.07 6.434,8.07 h -6.974 c 0,0 -1.273,-4.601 -2.755,-4.671 -1.482,-0.07 -0.977,4.671 -0.977,4.671 h -0.854 c -1.604,-10.458 -2.877,-17.987 -2.563,-29.333 z"
     stroke="#1e1e1c"
     stroke-width="0.57"
     stroke-miterlimit="10"
     stroke-linecap="round"
     id="path704" />
  <path
     d="m 305.631,277.995 c 7.358,1.447 9.886,-1.864 10.705,-3.694 0.21,-0.471 -0.191,-0.976 -0.697,-0.889 -2.563,0.47 -8.631,1.499 -5.754,-0.07 3.592,-1.952 1.273,-3.765 0.523,-3.294 -3.33,2.109 -6.434,1.725 -6.434,1.725 l 1.674,6.222 z"
     fill="#ffffff"
     id="path706" />
  <path
     d="m 305.631,277.995 c 7.358,1.447 9.886,-1.864 10.705,-3.694 0.21,-0.471 -0.191,-0.976 -0.697,-0.889 -2.563,0.47 -8.631,1.499 -5.754,-0.07 3.592,-1.952 1.273,-3.765 0.523,-3.294 -3.33,2.109 -6.434,1.725 -6.434,1.725 l 1.674,6.222 z"
     stroke="#1e1e1c"
     stroke-width="0.57"
     stroke-miterlimit="10"
     stroke-linecap="round"
     id="path708" />
  <path
     d="m 290.077,310.85 c -3.522,-16.732 -2.702,-27.608 -2.476,-29.839 0.018,-0.209 0.227,-0.331 0.419,-0.261 2.999,1.185 13.339,2.754 17.593,-2.719 0.035,-0.035 0.052,-0.087 0.052,-0.139 l 1.221,-7.076 c 0.035,-0.227 -0.192,-0.401 -0.401,-0.332 -1.779,0.576 -16.896,5.09 -19.843,-6.1 -1.848,-6.989 -2.022,-8.435 -2.929,-10.196 -0.035,-0.087 -0.122,-0.156 -0.227,-0.156 l -4.55,-0.802 c -0.123,-0.018 -0.245,0.035 -0.314,0.139 -11.805,17.83 -19.058,33.22 -22.615,49.15 -0.14,0.627 0.017,1.255 0.628,1.324 0.017,0 0.052,0 0.069,0.018 13.008,5.298 23.975,7.668 33.077,7.355 0.192,0 0.331,-0.192 0.296,-0.384"
     fill="#ffffff"
     id="path710" />
  <path
     d="m 290.077,310.85 c -3.522,-16.732 -2.702,-27.608 -2.476,-29.839 0.018,-0.209 0.227,-0.331 0.419,-0.261 2.999,1.185 13.339,2.754 17.593,-2.719 0.035,-0.035 0.052,-0.087 0.052,-0.139 l 1.221,-7.076 c 0.035,-0.227 -0.192,-0.401 -0.401,-0.332 -1.779,0.576 -16.896,5.09 -19.843,-6.1 -1.848,-6.989 -2.022,-8.435 -2.929,-10.196 -0.035,-0.087 -0.122,-0.156 -0.227,-0.156 l -4.55,-0.802 c -0.123,-0.018 -0.245,0.035 -0.314,0.139 -11.805,17.83 -19.058,33.22 -22.615,49.15 -0.14,0.627 0.017,1.255 0.628,1.324 0.017,0 0.052,0 0.069,0.018 13.008,5.298 23.975,7.668 33.077,7.355 0.192,0 0.331,-0.192 0.296,-0.384 z"
     stroke="#1e1e1c"
     stroke-width="0.57"
     stroke-miterlimit="10"
     stroke-linecap="round"
     id="path712" />
  <path
     d="m 288.316,280.873 c 0,0 -4.848,-1.813 -7.707,-6.187 z"
     fill="#ffffff"
     id="path714" />
  <path
     d="m 288.316,280.873 c 0,0 -4.848,-1.813 -7.707,-6.187"
     stroke="#1e1e1c"
     stroke-width="0.57"
     stroke-miterlimit="10"
     stroke-linecap="round"
     id="path716" />
  <path
     d="m 284.132,257.099 c 4.149,0.714 8.125,-2.074 8.84,-6.222 l 0.244,-1.377 c 0.017,-0.122 0.139,-0.21 0.279,-0.192 l 3.452,0.627 c 0,0 0.105,-0.034 0.122,-0.087 0.21,-1.446 2.389,-18.073 -8.264,-19.59 -4.15,-0.714 -8.126,2.074 -8.841,6.222 l -2.04,11.782 c -0.715,4.148 2.075,8.122 6.225,8.837"
     fill="#ffffff"
     id="path718" />
  <path
     d="m 284.132,257.099 c 4.149,0.714 8.125,-2.074 8.84,-6.222 l 0.244,-1.377 c 0.017,-0.122 0.139,-0.21 0.279,-0.192 l 3.452,0.627 c 0,0 0.105,-0.034 0.122,-0.087 0.21,-1.446 2.389,-18.073 -8.264,-19.59 -4.15,-0.714 -8.126,2.074 -8.841,6.222 l -2.04,11.782 c -0.715,4.148 2.075,8.122 6.225,8.837 z"
     stroke="#1e1e1c"
     stroke-width="0.57"
     stroke-miterlimit="10"
     stroke-linecap="round"
     id="path720" />
  <path
     d="m 291.855,252.323 c -2.824,0.419 -5.388,-1.168 -5.736,-3.538"
     stroke="#1e1e1c"
     stroke-width="0.57"
     stroke-miterlimit="10"
     stroke-linecap="round"
     id="path722" />
  <path
     d="m 290.931,242.006 c -0.105,0.645 0.331,1.272 0.976,1.377 0.646,0.104 1.273,-0.332 1.378,-0.976 0.105,-0.645 -0.314,-1.255 -0.977,-1.377 -0.645,-0.105 -1.272,0.313 -1.377,0.976 z"
     fill="#1e1e1c"
     id="path724" />
  <path
     d="m 294.996,234.32 c 0,0 -2.964,7.511 -9.066,8.174 -0.402,0.035 -0.768,-0.14 -0.977,-0.488 -0.628,-1.081 -2.267,-3.242 -4.063,-0.541 -2.301,3.451 1.204,6.153 1.204,6.153 -2.11,3.451 -1.012,13.629 -0.175,17.882 -3.714,0.854 -7.131,0.296 -10.287,-1.551 -3.086,-16.14 -0.663,-34.022 15.222,-34.422 2.04,-0.053 6.747,1.603 8.16,4.81"
     fill="#1e1e1c"
     id="path726" />
  <path
     d="m 294.996,234.32 c 0,0 -2.964,7.511 -9.066,8.174 -0.402,0.035 -0.768,-0.14 -0.977,-0.488 -0.628,-1.081 -2.267,-3.242 -4.063,-0.541 -2.301,3.451 1.204,6.153 1.204,6.153 -2.11,3.451 -1.012,13.629 -0.175,17.882 -3.714,0.854 -7.131,0.296 -10.287,-1.551 -3.086,-16.14 -0.663,-34.022 15.222,-34.422 2.04,-0.053 6.747,1.603 8.16,4.81 z"
     stroke="#1e1e1c"
     stroke-width="0.57"
     stroke-miterlimit="10"
     stroke-linecap="round"
     id="path728" />
  <path
     d="m 830.428,183.462 v 3.834 m -41.237,-3.921 v 3.921"
     stroke="#1e1e1c"
     stroke-width="0.57"
     stroke-linecap="round"
     stroke-linejoin="round"
     id="path730" />
  <path
     d="m 63.7367,165.318 h -2.598 v 30.849 h 2.598 z"
     fill="#ffffff"
     id="path732" />
  <path
     d="m 63.7191,165.318 h -2.598 v 30.849 h 2.598 z"
     stroke="#1e1e1c"
     stroke-width="0.57"
     stroke-linecap="round"
     stroke-linejoin="round"
     id="path734" />
  <path
     d="m 73.2564,168.283 c 0,5.978 -4.8472,10.823 -10.8279,10.823 -5.9806,0 -10.8279,-4.845 -10.8279,-10.823 0,-5.978 4.8473,-29.019 10.8279,-29.019 5.9807,0 10.8279,23.041 10.8279,29.019 z"
     fill="#ffffff"
     id="path736" />
  <path
     d="m 73.2564,168.283 c 0,5.978 -4.8472,10.823 -10.8279,10.823 -5.9806,0 -10.8279,-4.845 -10.8279,-10.823 0,-5.978 4.8473,-29.019 10.8279,-29.019 5.9807,0 10.8279,23.041 10.8279,29.019 z"
     stroke="#1e1e1c"
     stroke-width="0.57"
     stroke-linecap="round"
     stroke-linejoin="round"
     id="path738" />
  <path
     d="m 76.8277,172.553 h -1.9869 v 23.616 h 1.9869 z"
     fill="#ffffff"
     id="path740" />
  <path
     d="m 76.8277,172.553 h -1.9869 v 23.616 h 1.9869 z"
     stroke="#1e1e1c"
     stroke-width="0.57"
     stroke-linecap="round"
     stroke-linejoin="round"
     id="path742" />
  <path
     d="m 84.1358,174.817 c 0,4.584 -3.714,8.279 -8.2823,8.279 -4.5683,0 -8.2822,-3.712 -8.2822,-8.279 0,-4.566 3.7139,-22.221 8.2822,-22.221 4.5683,0 8.2823,17.655 8.2823,22.221 z"
     fill="#ffffff"
     id="path744" />
  <path
     d="m 84.1358,174.817 c 0,4.584 -3.714,8.279 -8.2823,8.279 -4.5683,0 -8.2822,-3.712 -8.2822,-8.279 0,-4.566 3.7139,-22.221 8.2822,-22.221 4.5683,0 8.2823,17.655 8.2823,22.221 z"
     stroke="#1e1e1c"
     stroke-width="0.57"
     stroke-linecap="round"
     stroke-linejoin="round"
     id="path746" />
</svg>
