<svg width="86" height="24" viewBox="0 0 86 24" fill="none" xmlns="http://www.w3.org/2000/svg">
<path d="M35.243 24.0001C32.9198 24.0001 30.8316 23.4818 28.9708 22.4451C27.1137 21.4085 25.6333 19.984 24.5332 18.1754C23.4332 16.3668 22.885 14.3308 22.885 12.0673C22.885 9.80374 23.4332 7.71921 24.5332 5.91063C25.6333 4.10206 27.1175 2.67011 28.9932 1.61853C30.8651 0.559484 32.9795 0.0336914 35.3325 0.0336914C37.0963 0.0336914 38.7147 0.346929 40.1877 0.977135C41.6569 1.60734 42.9658 2.53587 44.1143 3.75899L39.6544 8.28975C39.1286 7.65955 38.5022 7.20461 37.775 6.9212C37.0478 6.63779 36.2349 6.49609 35.3362 6.49609C34.2846 6.49609 33.3636 6.72356 32.573 7.1785C31.7825 7.63344 31.156 8.27857 30.6899 9.11387C30.2237 9.94917 29.9925 10.915 29.9925 12.015C29.9925 13.1151 30.2237 14.0436 30.6899 14.8939C31.156 15.7441 31.7899 16.3967 32.5954 16.8516C33.4009 17.3065 34.3145 17.534 35.3362 17.534C36.2946 17.534 37.1411 17.3774 37.8682 17.0604C38.5954 16.7472 39.2219 16.2587 39.7477 15.5986L44.2076 20.1742C43.0292 21.4308 41.7054 22.3855 40.2362 23.0269C38.7632 23.672 37.1001 23.9927 35.243 23.9927" fill="#5FBE6E"/>
<path d="M60.7047 0.551888V2.50217C60.108 1.92044 59.4107 1.42821 58.6127 1.02547C57.3747 0.395269 55.9949 0.0820312 54.4772 0.0820312C52.4039 0.0820312 50.5431 0.607824 48.9023 1.66314C47.2615 2.71845 45.975 4.13921 45.0465 5.93287C44.118 7.72653 43.6519 9.77004 43.6519 12.0671C43.6519 14.3642 44.118 16.3592 45.0465 18.1529C45.975 19.9465 47.2541 21.3598 48.8799 22.4002C50.5058 23.4369 52.3554 23.959 54.4325 23.959C55.98 23.959 57.3747 23.6607 58.6127 23.064C59.4144 22.6762 60.108 22.1877 60.7047 21.5985V23.4891H67.5325V0.551888H60.7047ZM59.6121 16.0012C58.6686 17.023 57.4045 17.5339 55.8271 17.5339C54.8352 17.5339 53.9514 17.2989 53.1795 16.8253C52.4039 16.3555 51.7923 15.7104 51.3448 14.89C50.8973 14.0733 50.6699 13.1299 50.6699 12.0597C50.6699 10.9894 50.8936 9.99005 51.3448 9.15848C51.7923 8.3269 52.4039 7.6706 53.1795 7.20074C53.9514 6.73088 54.8501 6.49222 55.8719 6.49222C56.8936 6.49222 57.7923 6.72715 58.568 7.20074C59.3436 7.67433 59.944 8.31945 60.3803 9.1361C60.8128 9.95276 61.0291 10.9148 61.0291 12.0149C61.0291 13.652 60.5555 14.9795 59.6121 16.0012Z" fill="#00C3D7"/>
<path d="M84.3543 0.130516C83.9143 0.0447483 83.4369 0 82.9261 0C81.7328 0 80.6066 0.290864 79.555 0.865134C78.5035 1.44313 77.5861 2.2225 76.803 3.20323C76.5979 3.45681 76.4115 3.72157 76.2399 3.99751L76.102 0.536979H69.6582V23.4817H76.486V11.959C76.486 11.2654 76.5942 10.6464 76.8067 10.0945C77.0193 9.5463 77.3102 9.06899 77.6793 8.66625C78.0485 8.26352 78.5034 7.95028 79.0442 7.734C79.5849 7.51771 80.1666 7.40957 80.7931 7.40957C81.3599 7.40957 81.9081 7.47296 82.4338 7.60348C82.9596 7.734 83.3773 7.89807 83.6943 8.10317L85.5699 0.436296C85.2008 0.320696 84.7943 0.220012 84.3543 0.134245V0.130516Z" fill="#8782D7"/>
<path d="M14.6774 0.521973V13.54C14.6774 15.7289 12.9323 17.5002 10.7769 17.5002C8.6215 17.5002 6.87632 15.7252 6.87632 13.54V0.521973H0V13.0217C0 19.0552 4.83282 23.9663 10.7769 23.9663C16.7209 23.9663 21.5538 19.0552 21.5538 13.0217V0.521973H14.6774Z" fill="#FF6E41"/>
</svg>
