<svg width="25" height="28" viewBox="0 0 25 28" fill="none" xmlns="http://www.w3.org/2000/svg">
<path d="M12.9453 0.666992C19.5728 0.666992 24.9453 6.03958 24.9453 12.667C24.9453 16.7654 22.7108 20.1193 20.3565 22.5263C19.0649 23.8468 17.6915 24.9301 16.5209 25.7487L15.9538 26.1359C15.8626 26.1967 15.7731 26.2556 15.6854 26.3127L15.1838 26.6323L14.7358 26.9059L14.1814 27.2283C13.4092 27.6645 12.4814 27.6645 11.7092 27.2283L11.1548 26.9059L10.4622 26.4782C10.3785 26.4249 10.2928 26.3697 10.2052 26.3127L9.65797 25.9479C8.42857 25.109 6.9334 23.9569 5.53414 22.5263C3.17985 20.1193 0.945312 16.7654 0.945312 12.667C0.945312 6.03958 6.3179 0.666992 12.9453 0.666992ZM12.9453 8.66699C10.7361 8.66699 8.94531 10.4579 8.94531 12.667C8.94531 14.8762 10.7361 16.667 12.9453 16.667C15.1545 16.667 16.9453 14.8762 16.9453 12.667C16.9453 10.4579 15.1545 8.66699 12.9453 8.66699Z" fill="#FF6E41"/>
<circle cx="12.9453" cy="12.7158" r="4.5" fill="white"/>
</svg>
