<svg width="25" height="28" viewBox="0 0 25 28" fill="none" xmlns="http://www.w3.org/2000/svg">
<path d="M12.9453 1.16699C19.2966 1.16699 24.4453 6.31572 24.4453 12.667C24.4453 16.5774 22.3119 19.812 19.9991 22.1767C18.7355 23.4685 17.3887 24.5315 16.2367 25.3374L15.6742 25.7214C15.586 25.7801 15.4995 25.8371 15.4148 25.8923C15.4141 25.8927 15.4133 25.8932 15.4126 25.8937L14.9191 26.2081L14.4798 26.4763L13.933 26.7944C13.3147 27.1424 12.576 27.1424 11.9577 26.7944L11.4119 26.477L10.7279 26.0546C10.6473 26.0033 10.5647 25.9501 10.4803 25.8951C10.4795 25.8947 10.4788 25.8942 10.478 25.8937L9.93979 25.5349C9.93908 25.5344 9.93837 25.5339 9.93765 25.5334C8.72733 24.7074 7.26071 23.5765 5.89158 22.1767C3.57872 19.812 1.44531 16.5774 1.44531 12.667C1.44531 6.31572 6.59404 1.16699 12.9453 1.16699ZM12.9453 8.16699C10.46 8.16699 8.44531 10.1817 8.44531 12.667C8.44531 15.1523 10.46 17.167 12.9453 17.167C15.4307 17.167 17.4453 15.1523 17.4453 12.667C17.4453 10.1817 15.4307 8.16699 12.9453 8.16699Z" fill="black" stroke="white"/>
<circle cx="12.9453" cy="12.7158" r="4.5" fill="white"/>
</svg>