<svg width="375" height="91" viewBox="0 0 375 91" fill="none" xmlns="http://www.w3.org/2000/svg">
<path d="M0 91L0 0.198678L23.9723 0.198678L56.8374 54.0309L37.3761 53.9012L70.6279 0.198678L93.8269 0.198678L93.8269 91H67.0192V69.3374C67.0192 61.5544 67.1911 54.5498 67.5347 48.3234C67.9643 42.097 68.6517 35.9139 69.5969 29.774L72.6901 37.9461L50.9088 71.9317L42.4025 71.9317L21.0079 37.9461L24.23 29.774C25.1752 35.568 25.8196 41.5349 26.1633 47.6748C26.5929 53.7282 26.8077 60.9491 26.8077 69.3374L26.8077 91H0Z" fill="#FFEFEB"/>
<path d="M110.653 91L110.653 0.198678L178.059 0.198678V22.899L137.332 22.899V68.2997H180.379L180.379 91L110.653 91ZM123.928 55.7172L123.928 34.4438L173.29 34.4438V55.7172L123.928 55.7172Z" fill="#FFEFEB"/>
<path d="M192.987 91L192.987 0.198678L217.861 0.198678L259.362 57.9224L253.433 56.1063C253.003 52.6473 252.617 49.6205 252.273 47.0262C252.015 44.4319 251.757 42.0538 251.5 39.8918C251.328 37.6434 251.156 35.4382 250.984 33.2763C250.898 31.1144 250.855 28.7362 250.855 26.1419C250.855 23.5476 250.855 20.5209 250.855 17.0618V0.198678L277.663 0.198678V91H252.531L206.777 27.4391L217.217 30.5523C217.646 33.7519 217.99 36.5624 218.248 38.9838C218.592 41.3187 218.849 43.4806 219.021 45.4696C219.193 47.4586 219.322 49.4476 219.408 51.4366C219.58 53.3391 219.666 55.501 219.666 57.9224C219.751 60.2573 219.794 63.0245 219.794 66.2242L219.794 91H192.987Z" fill="#FFEFEB"/>
<path d="M326.722 90.9979C322.097 90.3023 317.826 88.9828 313.909 87.0396C307.895 83.9264 303.169 79.689 299.732 74.3274C296.295 68.9658 294.577 62.8259 294.577 55.9077V0L322.674 0V54.7402C322.674 57.2481 323.189 59.4965 324.22 61.4855C325.251 63.388 326.669 64.9013 328.473 66.0255C330.364 67.1497 332.469 67.7119 334.788 67.7119C337.28 67.7119 339.471 67.1497 341.362 66.0255C343.252 64.9013 344.755 63.388 345.872 61.4855C346.989 59.4965 347.548 57.2481 347.548 54.7402V0L375 0V55.9077C375 62.8259 373.282 68.9658 369.845 74.3274C366.408 79.689 361.639 83.9264 355.539 87.0396C351.673 88.9848 347.435 90.305 342.824 91C338.832 91 331.019 90.9979 326.722 90.9979Z" fill="#FFEFEB"/>
</svg>
