<svg width="1649" height="318" viewBox="0 0 1649 318" fill="none" xmlns="http://www.w3.org/2000/svg">
<path d="M1649 242H95" stroke="black" stroke-width="2" stroke-miterlimit="10"/>
<path d="M95 317H1649" stroke="black" stroke-width="2" stroke-miterlimit="10"/>
<path d="M521.332 279.29H1044.08" stroke="black" stroke-width="2" stroke-miterlimit="10" stroke-dasharray="92.2 92.2"/>
<path d="M1086 279.29H1608.75" stroke="black" stroke-width="2" stroke-miterlimit="10" stroke-dasharray="92.2 92.2"/>
<path d="M0 279.29H522.753" stroke="black" stroke-width="2" stroke-miterlimit="10" stroke-dasharray="92.2 92.2"/>
<path d="M712.999 209.584V202.443C712.999 199.06 711.654 195.817 709.26 193.425C706.866 191.034 703.62 189.69 700.235 189.69C696.851 189.691 693.606 191.035 691.213 193.426C688.819 195.817 687.475 199.061 687.474 202.443V209.584" stroke="black" stroke-width="2" stroke-linecap="round" stroke-linejoin="round"/>
<path d="M659.119 171.363C659.119 174.746 660.464 177.991 662.858 180.383C665.251 182.775 668.498 184.118 671.883 184.118C673.559 184.119 675.219 183.789 676.768 183.148C678.317 182.507 679.724 181.568 680.91 180.383C682.095 179.199 683.036 177.793 683.677 176.245C684.319 174.698 684.649 173.039 684.649 171.363V157.488C684.649 154.106 683.305 150.862 680.912 148.47C678.518 146.078 675.273 144.734 671.888 144.733C670.211 144.733 668.551 145.062 667.002 145.703C665.453 146.344 664.045 147.283 662.859 148.468C661.674 149.652 660.733 151.058 660.091 152.606C659.449 154.154 659.119 155.813 659.119 157.488V171.363Z" stroke="black" stroke-width="2" stroke-linecap="round" stroke-linejoin="round"/>
<path d="M671.882 164.638V211.627" stroke="black" stroke-width="2" stroke-linecap="round" stroke-linejoin="round"/>
<path d="M842.062 211.529V40.4243" stroke="black" stroke-width="2" stroke-linecap="round" stroke-linejoin="round"/>
<path d="M742.396 211.272V57.8214L763.381 26.7961H821.97L842.061 40.4243" stroke="black" stroke-width="2" stroke-linecap="round" stroke-linejoin="round"/>
<path d="M763.034 53.8518V75.6856" stroke="black" stroke-width="2" stroke-linecap="round" stroke-linejoin="round"/>
<path d="M781.325 53.8518V75.6856" stroke="black" stroke-width="2" stroke-linecap="round" stroke-linejoin="round"/>
<path d="M763.034 90.6321V114.286" stroke="black" stroke-width="2" stroke-linecap="round" stroke-linejoin="round"/>
<path d="M781.325 90.6321V114.286" stroke="black" stroke-width="2" stroke-linecap="round" stroke-linejoin="round"/>
<path d="M799.749 53.8518V75.6856" stroke="black" stroke-width="2" stroke-linecap="round" stroke-linejoin="round"/>
<path d="M818.041 53.8518V75.6856" stroke="black" stroke-width="2" stroke-linecap="round" stroke-linejoin="round"/>
<path d="M799.749 90.6321V114.286" stroke="black" stroke-width="2" stroke-linecap="round" stroke-linejoin="round"/>
<path d="M818.041 90.6321V114.286" stroke="black" stroke-width="2" stroke-linecap="round" stroke-linejoin="round"/>
<path d="M763.034 127.412V152.886" stroke="black" stroke-width="2" stroke-linecap="round" stroke-linejoin="round"/>
<path d="M763.034 164.193V191.483" stroke="black" stroke-width="2" stroke-linecap="round" stroke-linejoin="round"/>
<path d="M742.519 99.8283H727.19L719.556 84.1481H670.855L658.136 114.689H626.333V103.852L610.519 79.7163L595.802 103.852V135.721H578.131V210.301" stroke="black" stroke-width="2" stroke-linecap="round" stroke-linejoin="round"/>
<path d="M659.885 152.262L650.213 142.596H613.571L596.274 159.881V210.301" stroke="black" stroke-width="2" stroke-linecap="round" stroke-linejoin="round"/>
<path d="M918.814 13.4174C919.401 9.94549 921.199 6.79339 923.89 4.52029C926.581 2.24718 929.99 1 933.514 1C937.466 1.00065 941.257 2.57022 944.052 5.36351C946.847 8.15681 948.417 11.9451 948.417 15.8951C948.418 17.4838 948.165 19.0626 947.668 20.5715" stroke="black" stroke-width="2" stroke-linecap="round" stroke-linejoin="round"/>
<path d="M950.45 16.8857C952.236 16.8857 953.95 17.5948 955.213 18.8571C956.476 20.1194 957.186 21.8314 957.186 23.6165C957.186 25.4017 956.476 27.1137 955.213 28.376C953.95 29.6383 952.236 30.3474 950.45 30.3474L919.795 30.1909C917.569 30.1903 915.435 29.3064 913.862 27.7336C912.289 26.1609 911.405 24.0281 911.405 21.8042C911.405 19.5805 912.29 17.4481 913.863 15.8755C915.436 14.3029 917.57 13.4188 919.795 13.4175C921.511 13.419 923.185 13.9462 924.592 14.928C925.999 15.9098 927.071 17.299 927.664 18.9083" stroke="black" stroke-width="2" stroke-linecap="round" stroke-linejoin="round"/>
<path d="M924.337 90.3017L929.795 95.7559L937.801 87.7556" stroke="black" stroke-width="2" stroke-linecap="round" stroke-linejoin="round"/>
<path d="M881.335 62.625L873.681 70.2878L866.187 62.784" stroke="black" stroke-width="2" stroke-linecap="round" stroke-linejoin="round"/>
<path d="M809.857 194.667C815.877 185.426 815.974 174.824 810.075 170.987C804.177 167.15 794.515 171.531 788.496 180.773C782.476 190.014 782.379 200.616 788.278 204.453C794.177 208.29 803.838 203.909 809.857 194.667Z" fill="white" stroke="black" stroke-width="2" stroke-miterlimit="10"/>
<path d="M791.361 178.718C785.436 186.073 783.813 195.45 787.736 199.662C791.66 203.873 799.648 201.323 805.576 193.965C811.504 186.608 813.117 177.251 809.191 173.029C805.265 168.808 797.282 171.366 791.361 178.718Z" fill="white" stroke="black" stroke-width="2" stroke-miterlimit="10"/>
<path d="M791.878 179.283C786.427 186.056 784.684 194.401 787.984 197.94C791.283 201.479 798.376 198.864 803.826 192.102C809.277 185.339 811.017 176.986 807.718 173.447C804.419 169.908 797.326 172.52 791.878 179.283Z" fill="black"/>
<path d="M874.893 178.119C874.893 178.119 861.06 191.437 849.013 184.715C836.966 177.994 818.997 189.235 813.294 186.621C807.591 184.006 806.732 181.69 807.76 177.953C808.788 174.215 816.429 173.061 824.555 170.226C832.551 167.438 840.522 160.839 840.772 160.634C840.449 160.854 829.193 168.534 823.539 167.783C817.087 166.927 803.47 168.333 803.47 168.333C803.47 168.333 789.416 185.197 781.327 181.753C773.238 178.31 789.996 156.442 800.701 151.325C811.407 146.208 844.443 142.05 850.763 142.227C856.608 142.386 872.301 147.089 876.175 149.481L874.893 178.119Z" fill="white" stroke="black" stroke-width="2" stroke-linecap="round" stroke-linejoin="round"/>
<path d="M880.726 186.506L874.524 186.335L876.364 145.264L882.566 145.436L880.726 186.506Z" fill="white" stroke="black" stroke-width="2" stroke-linecap="round" stroke-linejoin="round"/>
<path d="M1042.17 77.7058C1001.79 109.991 897.542 142.417 884.756 143.254C883.681 143.325 882.798 144.526 882.734 146.003L880.92 186.452C880.854 187.932 881.628 189.179 882.697 189.306C891.156 190.299 989.267 182.979 1048 151.604L1042.17 77.7058Z" fill="#9D9D9C" stroke="black" stroke-width="2" stroke-miterlimit="10"/>
<path d="M805.019 179.816C796.004 177.532 792.624 181.935 790.742 185.442C788.412 190.062 791.291 192.349 797.918 193.77" stroke="white" stroke-width="2" stroke-miterlimit="10" stroke-linecap="round"/>
<path d="M792.302 183.177L799.552 184.896" stroke="white" stroke-width="2" stroke-miterlimit="10" stroke-linecap="round"/>
<path d="M790.742 185.444L797.069 186.907" stroke="white" stroke-width="2" stroke-miterlimit="10" stroke-linecap="round"/>
<path d="M744.391 227.463H818.681C827.502 227.463 835.961 230.965 842.198 237.198C848.436 243.431 851.94 251.885 851.94 260.7H727.748V244.093C727.748 239.682 729.502 235.451 732.623 232.332C735.744 229.213 739.977 227.461 744.391 227.461V227.463Z" fill="white" stroke="black" stroke-width="2" stroke-miterlimit="10"/>
<path d="M873.082 281.868V284.209H716.987V271.415C716.987 270.008 717.264 268.615 717.803 267.315C718.342 266.015 719.132 264.834 720.128 263.839C721.123 262.844 722.305 262.055 723.606 261.517C724.907 260.979 726.301 260.702 727.709 260.702H730.664C733.748 260.702 736.706 259.478 738.888 257.298C741.069 255.118 742.294 252.162 742.294 249.08V227.463H754.928V249.077C754.928 252.159 756.153 255.115 758.334 257.295C760.514 259.474 763.472 260.699 766.556 260.7H782.972C786.056 260.699 789.014 259.474 791.194 257.295C793.375 255.115 794.6 252.159 794.6 249.077V227.463H807.234V249.077C807.234 252.16 808.459 255.116 810.641 257.295C812.822 259.475 815.78 260.7 818.865 260.7H851.906C857.523 260.702 862.909 262.933 866.88 266.902C870.851 270.872 873.082 276.255 873.082 281.868Z" fill="#9D9D9C" stroke="black" stroke-width="2" stroke-miterlimit="10"/>
<path d="M872.085 275.446H866.869C862.94 275.446 859.168 273.898 856.373 271.137C853.578 268.377 851.985 264.626 851.939 260.7C856.428 260.708 860.797 262.14 864.418 264.79C868.039 267.441 870.724 271.172 872.085 275.446Z" fill="white" stroke="black" stroke-width="2" stroke-miterlimit="10"/>
<path d="M851.942 260.7C851.942 260.641 851.942 260.582 851.942 260.526" stroke="black" stroke-width="2" stroke-miterlimit="10"/>
<path d="M878.588 284.209H711.481V299.42H878.588V284.209Z" fill="white" stroke="black" stroke-width="2" stroke-miterlimit="10"/>
<path d="M844.514 312.289C853.099 312.289 860.058 305.335 860.058 296.756C860.058 288.177 853.099 281.223 844.514 281.223C835.929 281.223 828.97 288.177 828.97 296.756C828.97 305.335 835.929 312.289 844.514 312.289Z" fill="white" stroke="black" stroke-width="2" stroke-miterlimit="10"/>
<path d="M844.514 305.035C849.09 305.035 852.799 301.328 852.799 296.756C852.799 292.183 849.09 288.477 844.514 288.477C839.939 288.477 836.229 292.183 836.229 296.756C836.229 301.328 839.939 305.035 844.514 305.035Z" fill="white" stroke="black" stroke-width="2" stroke-miterlimit="10"/>
<path d="M740.661 312.289C749.246 312.289 756.206 305.335 756.206 296.756C756.206 288.177 749.246 281.223 740.661 281.223C732.077 281.223 725.117 288.177 725.117 296.756C725.117 305.335 732.077 312.289 740.661 312.289Z" fill="white" stroke="black" stroke-width="2" stroke-miterlimit="10"/>
<path d="M740.66 305.035C745.236 305.035 748.945 301.328 748.945 296.756C748.945 292.183 745.236 288.477 740.66 288.477C736.085 288.477 732.375 292.183 732.375 296.756C732.375 301.328 736.085 305.035 740.66 305.035Z" fill="white" stroke="black" stroke-width="2" stroke-miterlimit="10"/>
<path d="M744.391 227.463H818.681C827.502 227.463 835.961 230.965 842.198 237.198C848.436 243.431 851.94 251.885 851.94 260.7H727.748V244.093C727.748 239.682 729.502 235.451 732.623 232.332C735.744 229.213 739.977 227.461 744.391 227.461V227.463Z" fill="white" stroke="black" stroke-width="2" stroke-miterlimit="10"/>
<path d="M873.082 281.868V284.209H716.986V271.415C716.986 270.008 717.264 268.615 717.803 267.315C718.341 266.015 719.131 264.834 720.127 263.839C721.123 262.844 722.305 262.055 723.606 261.517C724.907 260.979 726.301 260.702 727.709 260.702H730.663C733.748 260.702 736.706 259.478 738.887 257.298C741.068 255.118 742.294 252.162 742.294 249.08V227.463H754.928V249.077C754.928 252.159 756.153 255.115 758.333 257.295C760.514 259.474 763.472 260.699 766.556 260.7H782.971C786.056 260.699 789.013 259.474 791.194 257.295C793.374 255.115 794.599 252.159 794.599 249.077V227.463H807.234V249.077C807.234 252.16 808.459 255.116 810.64 257.295C812.821 259.475 815.78 260.7 818.864 260.7H851.906C857.522 260.702 862.909 262.933 866.88 266.902C870.851 270.872 873.082 276.255 873.082 281.868Z" fill="#9D9D9C" stroke="black" stroke-width="2" stroke-miterlimit="10"/>
<path d="M872.085 275.446H866.869C862.94 275.446 859.168 273.898 856.373 271.137C853.578 268.377 851.985 264.626 851.939 260.7C856.428 260.708 860.797 262.14 864.418 264.79C868.039 267.441 870.724 271.172 872.085 275.446Z" fill="white" stroke="black" stroke-width="2" stroke-miterlimit="10"/>
<path d="M878.589 284.209H711.482V299.42H878.589V284.209Z" fill="white" stroke="black" stroke-width="2" stroke-miterlimit="10"/>
<path d="M844.515 312.289C853.1 312.289 860.059 305.335 860.059 296.756C860.059 288.177 853.1 281.223 844.515 281.223C835.93 281.223 828.971 288.177 828.971 296.756C828.971 305.335 835.93 312.289 844.515 312.289Z" fill="white" stroke="black" stroke-width="2" stroke-miterlimit="10"/>
<path d="M844.515 305.035C849.091 305.035 852.8 301.328 852.8 296.756C852.8 292.183 849.091 288.477 844.515 288.477C839.94 288.477 836.23 292.183 836.23 296.756C836.23 301.328 839.94 305.035 844.515 305.035Z" fill="white" stroke="black" stroke-width="2" stroke-miterlimit="10"/>
<path d="M740.661 312.289C749.246 312.289 756.206 305.335 756.206 296.756C756.206 288.177 749.246 281.223 740.661 281.223C732.077 281.223 725.117 288.177 725.117 296.756C725.117 305.335 732.077 312.289 740.661 312.289Z" fill="white" stroke="black" stroke-width="2" stroke-miterlimit="10"/>
<path d="M740.66 305.035C745.235 305.035 748.945 301.328 748.945 296.756C748.945 292.183 745.235 288.477 740.66 288.477C736.084 288.477 732.375 292.183 732.375 296.756C732.375 301.328 736.084 305.035 740.66 305.035Z" fill="white" stroke="black" stroke-width="2" stroke-miterlimit="10"/>
<path d="M461.391 227.463H535.681C544.502 227.463 552.961 230.965 559.198 237.198C565.436 243.431 568.94 251.885 568.94 260.7H444.748V244.093C444.748 239.682 446.502 235.451 449.623 232.332C452.744 229.213 456.977 227.461 461.391 227.461V227.463Z" fill="white" stroke="black" stroke-width="2" stroke-miterlimit="10"/>
<path d="M590.082 281.868V284.209H433.986V271.415C433.986 270.008 434.264 268.615 434.803 267.315C435.341 266.015 436.131 264.834 437.127 263.839C438.123 262.844 439.305 262.055 440.606 261.517C441.907 260.979 443.301 260.702 444.709 260.702H447.663C450.748 260.702 453.706 259.478 455.887 257.298C458.068 255.118 459.294 252.162 459.294 249.08V227.463H471.928V249.077C471.928 252.159 473.153 255.115 475.333 257.295C477.514 259.474 480.472 260.699 483.556 260.7H499.971C503.056 260.699 506.013 259.474 508.194 257.295C510.374 255.115 511.599 252.159 511.599 249.077V227.463H524.234V249.077C524.234 252.16 525.459 255.116 527.64 257.295C529.821 259.475 532.78 260.7 535.864 260.7H568.906C574.522 260.702 579.909 262.933 583.88 266.902C587.851 270.872 590.082 276.255 590.082 281.868Z" fill="#9D9D9C" stroke="black" stroke-width="2" stroke-miterlimit="10"/>
<path d="M589.085 275.446H583.869C579.94 275.446 576.168 273.898 573.373 271.137C570.578 268.377 568.985 264.626 568.939 260.7C573.428 260.708 577.797 262.14 581.418 264.79C585.039 267.441 587.724 271.172 589.085 275.446Z" fill="white" stroke="black" stroke-width="2" stroke-miterlimit="10"/>
<path d="M595.589 284.209H428.482V299.42H595.589V284.209Z" fill="white" stroke="black" stroke-width="2" stroke-miterlimit="10"/>
<path d="M561.515 312.289C570.1 312.289 577.059 305.335 577.059 296.756C577.059 288.177 570.1 281.223 561.515 281.223C552.93 281.223 545.971 288.177 545.971 296.756C545.971 305.335 552.93 312.289 561.515 312.289Z" fill="white" stroke="black" stroke-width="2" stroke-miterlimit="10"/>
<path d="M561.515 305.035C566.091 305.035 569.8 301.328 569.8 296.756C569.8 292.183 566.091 288.477 561.515 288.477C556.94 288.477 553.23 292.183 553.23 296.756C553.23 301.328 556.94 305.035 561.515 305.035Z" fill="white" stroke="black" stroke-width="2" stroke-miterlimit="10"/>
<path d="M457.661 312.289C466.246 312.289 473.206 305.335 473.206 296.756C473.206 288.177 466.246 281.223 457.661 281.223C449.077 281.223 442.117 288.177 442.117 296.756C442.117 305.335 449.077 312.289 457.661 312.289Z" fill="white" stroke="black" stroke-width="2" stroke-miterlimit="10"/>
<path d="M457.66 305.035C462.235 305.035 465.945 301.328 465.945 296.756C465.945 292.183 462.235 288.477 457.66 288.477C453.084 288.477 449.375 292.183 449.375 296.756C449.375 301.328 453.084 305.035 457.66 305.035Z" fill="white" stroke="black" stroke-width="2" stroke-miterlimit="10"/>
<path d="M174.391 227.463H248.681C257.502 227.463 265.961 230.965 272.198 237.198C278.436 243.431 281.94 251.885 281.94 260.7H157.748V244.093C157.748 239.682 159.502 235.451 162.623 232.332C165.744 229.213 169.977 227.461 174.391 227.461V227.463Z" fill="white" stroke="black" stroke-width="2" stroke-miterlimit="10"/>
<path d="M303.082 281.868V284.209H146.986V271.415C146.986 270.008 147.264 268.615 147.803 267.315C148.341 266.015 149.131 264.834 150.127 263.839C151.123 262.844 152.305 262.055 153.606 261.517C154.907 260.979 156.301 260.702 157.709 260.702H160.663C163.748 260.702 166.706 259.478 168.887 257.298C171.068 255.118 172.294 252.162 172.294 249.08V227.463H184.928V249.077C184.928 252.159 186.153 255.115 188.333 257.295C190.514 259.474 193.472 260.699 196.556 260.7H212.971C216.056 260.699 219.013 259.474 221.194 257.295C223.374 255.115 224.599 252.159 224.599 249.077V227.463H237.234V249.077C237.234 252.16 238.459 255.116 240.64 257.295C242.821 259.475 245.78 260.7 248.864 260.7H281.906C287.522 260.702 292.909 262.933 296.88 266.902C300.851 270.872 303.082 276.255 303.082 281.868Z" fill="#9D9D9C" stroke="black" stroke-width="2" stroke-miterlimit="10"/>
<path d="M302.085 275.446H296.869C292.94 275.446 289.168 273.898 286.373 271.137C283.578 268.377 281.985 264.626 281.939 260.7C286.428 260.708 290.797 262.14 294.418 264.79C298.039 267.441 300.724 271.172 302.085 275.446Z" fill="white" stroke="black" stroke-width="2" stroke-miterlimit="10"/>
<path d="M308.589 284.209H141.482V299.42H308.589V284.209Z" fill="white" stroke="black" stroke-width="2" stroke-miterlimit="10"/>
<path d="M274.515 312.289C283.1 312.289 290.059 305.335 290.059 296.756C290.059 288.177 283.1 281.223 274.515 281.223C265.93 281.223 258.971 288.177 258.971 296.756C258.971 305.335 265.93 312.289 274.515 312.289Z" fill="white" stroke="black" stroke-width="2" stroke-miterlimit="10"/>
<path d="M274.515 305.035C279.091 305.035 282.8 301.328 282.8 296.756C282.8 292.183 279.091 288.477 274.515 288.477C269.94 288.477 266.23 292.183 266.23 296.756C266.23 301.328 269.94 305.035 274.515 305.035Z" fill="white" stroke="black" stroke-width="2" stroke-miterlimit="10"/>
<path d="M170.661 312.289C179.246 312.289 186.206 305.335 186.206 296.756C186.206 288.177 179.246 281.223 170.661 281.223C162.077 281.223 155.117 288.177 155.117 296.756C155.117 305.335 162.077 312.289 170.661 312.289Z" fill="white" stroke="black" stroke-width="2" stroke-miterlimit="10"/>
<path d="M170.66 305.035C175.235 305.035 178.945 301.328 178.945 296.756C178.945 292.183 175.235 288.477 170.66 288.477C166.084 288.477 162.375 292.183 162.375 296.756C162.375 301.328 166.084 305.035 170.66 305.035Z" fill="white" stroke="black" stroke-width="2" stroke-miterlimit="10"/>
<path d="M1409.91 227.463H1484.2C1493.02 227.463 1501.48 230.965 1507.72 237.198C1513.95 243.431 1517.46 251.885 1517.46 260.7H1393.27V244.093C1393.27 239.682 1395.02 235.451 1398.14 232.332C1401.26 229.213 1405.49 227.461 1409.91 227.461V227.463Z" fill="white" stroke="black" stroke-width="2" stroke-miterlimit="10"/>
<path d="M1538.6 281.868V284.209H1382.5V271.415C1382.5 270.008 1382.78 268.615 1383.32 267.315C1383.86 266.015 1384.65 264.834 1385.64 263.839C1386.64 262.844 1387.82 262.055 1389.12 261.517C1390.42 260.979 1391.82 260.702 1393.23 260.702H1396.18C1399.27 260.702 1402.22 259.478 1404.4 257.298C1406.59 255.118 1407.81 252.162 1407.81 249.08V227.463H1420.45V249.077C1420.45 252.159 1421.67 255.115 1423.85 257.295C1426.03 259.474 1428.99 260.699 1432.07 260.7H1448.49C1451.57 260.699 1454.53 259.474 1456.71 257.295C1458.89 255.115 1460.12 252.159 1460.12 249.077V227.463H1472.75V249.077C1472.75 252.16 1473.98 255.116 1476.16 257.295C1478.34 259.475 1481.3 260.7 1484.38 260.7H1517.42C1523.04 260.702 1528.43 262.933 1532.4 266.902C1536.37 270.872 1538.6 276.255 1538.6 281.868Z" fill="#9D9D9C" stroke="black" stroke-width="2" stroke-miterlimit="10"/>
<path d="M1537.6 275.446H1532.39C1528.46 275.446 1524.69 273.898 1521.89 271.137C1519.1 268.377 1517.5 264.626 1517.46 260.7C1521.95 260.708 1526.31 262.14 1529.94 264.79C1533.56 267.441 1536.24 271.172 1537.6 275.446Z" fill="white" stroke="black" stroke-width="2" stroke-miterlimit="10"/>
<path d="M1544.11 284.209H1377V299.42H1544.11V284.209Z" fill="white" stroke="black" stroke-width="2" stroke-miterlimit="10"/>
<path d="M1510.03 312.289C1518.62 312.289 1525.58 305.335 1525.58 296.756C1525.58 288.177 1518.62 281.223 1510.03 281.223C1501.45 281.223 1494.49 288.177 1494.49 296.756C1494.49 305.335 1501.45 312.289 1510.03 312.289Z" fill="white" stroke="black" stroke-width="2" stroke-miterlimit="10"/>
<path d="M1510.03 305.035C1514.61 305.035 1518.32 301.328 1518.32 296.756C1518.32 292.183 1514.61 288.477 1510.03 288.477C1505.46 288.477 1501.75 292.183 1501.75 296.756C1501.75 301.328 1505.46 305.035 1510.03 305.035Z" fill="white" stroke="black" stroke-width="2" stroke-miterlimit="10"/>
<path d="M1406.18 312.289C1414.76 312.289 1421.72 305.335 1421.72 296.756C1421.72 288.177 1414.76 281.223 1406.18 281.223C1397.59 281.223 1390.63 288.177 1390.63 296.756C1390.63 305.335 1397.59 312.289 1406.18 312.289Z" fill="white" stroke="black" stroke-width="2" stroke-miterlimit="10"/>
<path d="M1406.18 305.035C1410.75 305.035 1414.46 301.328 1414.46 296.756C1414.46 292.183 1410.75 288.477 1406.18 288.477C1401.6 288.477 1397.89 292.183 1397.89 296.756C1397.89 301.328 1401.6 305.035 1406.18 305.035Z" fill="white" stroke="black" stroke-width="2" stroke-miterlimit="10"/>
</svg>
