<svg width="1821" height="317" viewBox="0 0 1821 317" fill="none" xmlns="http://www.w3.org/2000/svg">
<path d="M0 315.785V85.525H61.2243L145.161 222.036L95.4573 221.707L180.381 85.525H239.631V315.785H171.165V260.851C171.165 241.115 171.604 223.352 172.482 207.563C173.579 191.773 175.334 176.094 177.748 160.524L185.648 181.247L130.019 267.43H108.295L53.6536 181.247L61.8827 160.524C64.2965 175.217 65.9424 190.348 66.8201 205.918C67.9173 221.269 68.4659 239.58 68.4659 260.851V315.785H0Z" fill="#181A1C" fill-opacity="0.05"/>
<path d="M403.454 316.617C393.527 316.617 384.296 316.436 375.041 316.436C367.517 314.968 360.31 312.887 353.421 310.193C338.279 304.272 325.113 295.939 313.921 285.193C302.73 274.448 294.062 261.729 287.917 247.036C281.993 232.343 279.03 216.334 279.03 199.01C279.03 181.467 281.993 165.458 287.917 150.985C294.062 136.292 302.73 123.573 313.921 112.827C325.113 102.082 338.279 93.7486 353.421 87.8276C368.562 81.9067 385.13 78.9462 403.125 78.9462C421.338 78.9462 437.906 81.9067 452.828 87.8276C467.97 93.7486 481.136 102.082 492.328 112.827C503.519 123.573 512.078 136.292 518.003 150.985C524.147 165.458 527.219 181.357 527.219 198.681C527.219 216.225 524.147 232.343 518.003 247.036C512.078 261.729 503.519 274.448 492.328 285.193C481.136 295.939 467.97 304.272 452.828 310.193C445.754 313 438.335 315.141 430.57 316.617C421.756 316.617 412.918 316.617 403.454 316.617ZM403.125 253.286C410.586 253.286 417.388 251.97 423.533 249.338C429.897 246.707 435.383 242.979 439.991 238.154C444.819 233.111 448.439 227.299 450.853 220.72C453.487 214.142 454.803 206.905 454.803 199.01C454.803 191.116 453.487 183.879 450.853 177.3C448.439 170.721 444.819 165.019 439.991 160.195C435.383 155.151 429.897 151.314 423.533 148.682C417.388 146.05 410.586 144.735 403.125 144.735C395.664 144.735 388.751 146.05 382.387 148.682C376.243 151.314 370.757 155.151 365.929 160.195C361.321 165.019 357.7 170.721 355.067 177.3C352.653 183.879 351.446 191.116 351.446 199.01C351.446 206.905 352.653 214.142 355.067 220.72C357.7 227.299 361.321 233.111 365.929 238.154C370.757 242.979 376.243 246.707 382.387 249.338C388.751 251.97 395.664 253.286 403.125 253.286Z" fill="#181A1C" fill-opacity="0.05"/>
<path d="M566.714 315.785V85.525H672.704C689.382 85.525 703.426 87.8276 714.837 92.4328C726.467 97.038 735.245 103.507 741.17 111.84C747.314 120.174 750.387 129.932 750.387 141.116C750.387 154.932 747.205 166.335 740.841 175.326C734.696 184.317 725.59 190.348 713.52 193.418L712.533 187.168C722.627 189.58 731.405 193.528 738.866 199.01C746.327 204.273 752.142 210.742 756.312 218.418C760.481 226.093 762.566 234.865 762.566 244.733C762.566 256.794 760.371 267.321 755.982 276.312C751.594 285.083 745.339 292.43 737.22 298.351C729.32 304.272 720.104 308.658 709.57 311.508C699.257 314.359 688.065 315.785 675.996 315.785H566.714ZM632.546 259.865H674.021C678.19 259.865 681.701 259.207 684.554 257.891C687.407 256.356 689.601 254.163 691.137 251.312C692.673 248.242 693.441 244.624 693.441 240.457C693.441 236.729 692.564 233.659 690.808 231.247C689.272 228.615 686.968 226.641 683.896 225.326C680.823 223.79 676.983 223.023 672.375 223.023H632.546V259.865ZM632.546 175.655H660.525C665.572 175.655 669.632 174.997 672.704 173.682C675.996 172.366 678.3 170.502 679.616 168.09C681.153 165.458 681.921 162.278 681.921 158.55C681.921 153.506 680.165 149.449 676.654 146.379C673.362 143.09 667.767 141.445 659.867 141.445H632.546V175.655Z" fill="#181A1C" fill-opacity="0.05"/>
<path d="M800.368 315.785V258.22H840.855V143.09H800.368V85.525H952.441V143.09H911.954V258.22H952.441V315.785H800.368Z" fill="#181A1C" fill-opacity="0.05"/>
<path d="M1003.56 315.785V85.525H1074.66V255.259H1173.41V315.785H1003.56Z" fill="#181A1C" fill-opacity="0.05"/>
<path d="M1204.75 315.785V258.22H1245.24V143.09H1204.75V85.525H1356.82V143.09H1316.34V258.22H1356.82V315.785H1204.75Z" fill="#181A1C" fill-opacity="0.05"/>
<path d="M1462.59 315.785V146.05H1391.49V85.525H1606.76V146.05H1533.68V315.785H1462.59Z" fill="#181A1C" fill-opacity="0.05"/>
<path d="M1642.92 315.785V85.525H1815.08V143.09H1711.06V258.22H1821V315.785H1642.92ZM1676.83 226.312V172.366H1802.9V226.312H1676.83ZM1698.88 71.7094L1684.73 38.1573L1759.78 0L1779.53 45.0651L1698.88 71.7094Z" fill="#181A1C" fill-opacity="0.05"/>
</svg>
