<svg width="1125" height="88" viewBox="0 0 1125 88" fill="none" xmlns="http://www.w3.org/2000/svg">
<path d="M978.51 87.4407C978.126 87.812 967.184 87.4407 967.184 87.4407C967.184 87.4407 968.581 81.6012 968.906 78.0233H974.087C973.563 81.6575 974.774 82.4451 975.658 82.5576C976.59 82.6813 977.474 83.0864 978.068 83.784C979.488 85.4604 978.813 87.1481 978.51 87.4407Z" fill="black" stroke="black" stroke-width="0.5" stroke-linecap="round" stroke-linejoin="round"/>
<path d="M978.51 64.4757C978.51 64.4757 975.844 70.8553 974.599 75.5921C974.354 76.5147 974.191 77.3248 974.087 78.0224H968.906C968.953 77.5498 968.976 77.1111 968.976 76.7398C968.976 73.5331 969.546 64.9708 969.546 64.9708L978.522 64.4757H978.51Z" fill="white" stroke="black" stroke-width="0.5" stroke-linecap="round" stroke-linejoin="round"/>
<path d="M993.385 87.4407C993.001 87.812 982.059 87.4407 982.059 87.4407C982.059 87.4407 983.456 81.6012 983.781 78.0233H988.962C988.438 81.6575 989.649 82.4451 990.533 82.5576C991.465 82.6813 992.349 83.0864 992.943 83.784C994.363 85.4604 993.688 87.1481 993.385 87.4407Z" fill="black" stroke="black" stroke-width="0.5" stroke-linecap="round" stroke-linejoin="round"/>
<path d="M988.59 63.6544C988.59 63.6544 990.721 70.8665 989.475 75.5921C989.231 76.5147 989.068 77.3248 988.963 78.0224H983.783C983.829 77.5498 983.852 77.111 983.852 76.7397C983.852 73.5331 980.465 64.397 980.465 64.397L988.59 63.6544Z" fill="white" stroke="black" stroke-width="0.5" stroke-linecap="round" stroke-linejoin="round"/>
<path d="M969.539 52.9215V64.9718L978.514 64.4767L979.446 59.8637L980.47 64.398L988.596 63.6554L986.011 50.7388L969.539 52.9215Z" fill="white" stroke="black" stroke-width="0.5" stroke-linecap="round" stroke-linejoin="round"/>
<path d="M987.941 45.9786C987.941 45.9786 1010.61 64.8584 1031.05 62.2593" stroke="black" stroke-width="0.5" stroke-linecap="round" stroke-linejoin="round"/>
<path d="M1012.46 68.6722C1012.46 68.6722 1007.11 55.2718 1014.77 54.1354C1022.43 52.999 1015.18 66.1857 1015.18 66.1857" fill="white"/>
<path d="M1012.46 68.6722C1012.46 68.6722 1007.11 55.2718 1014.77 54.1354C1022.43 52.999 1015.18 66.1857 1015.18 66.1857" stroke="black" stroke-width="0.5" stroke-linecap="round" stroke-linejoin="round"/>
<path d="M1039.56 66.4998C1039.56 67.5349 1039.59 71.0566 1039.02 72.463C1037.84 75.3884 1036.04 78.5388 1036.04 79.5289C1036.04 80.564 1037.67 80.9128 1038.6 81.3742C1038.98 81.5542 1039.25 81.7567 1039.25 82.0267C1039.25 82.9606 1036.52 82.2405 1034.16 82.2405C1031.8 82.2405 1030.4 75.2759 1030.4 75.2759C1025.02 75.2759 1018.14 72.5756 1018.14 72.5756C1018.14 72.5756 1014.81 76.2098 1014.81 78.5951C1014.81 80.9804 1017.96 80.6766 1017.96 81.7229C1017.96 82.7693 1013.01 81.7229 1010.97 81.7229C1009.38 81.7229 1008.85 77.5487 1009.32 73.7457C1009.62 71.2479 1010.72 68.8851 1012.49 67.0511C1013.36 66.151 1014.31 65.4647 1015.19 65.4647C1016.32 65.4647 1018.94 65.8472 1021.48 66.2635C1025.21 66.8824 1028.96 65.3184 1031.05 62.2693L1031.39 61.7855" fill="white"/>
<path d="M1039.56 66.4998C1039.56 67.5349 1039.59 71.0566 1039.02 72.463C1037.84 75.3884 1036.04 78.5388 1036.04 79.5289C1036.04 80.564 1037.67 80.9128 1038.6 81.3742C1038.98 81.5542 1039.25 81.7567 1039.25 82.0267C1039.25 82.9606 1036.52 82.2405 1034.16 82.2405C1031.8 82.2405 1030.4 75.2759 1030.4 75.2759C1025.02 75.2759 1018.14 72.5756 1018.14 72.5756C1018.14 72.5756 1014.81 76.2098 1014.81 78.5951C1014.81 80.9804 1017.96 80.6766 1017.96 81.7229C1017.96 82.7693 1013.01 81.7229 1010.97 81.7229C1009.38 81.7229 1008.85 77.5487 1009.32 73.7457C1009.62 71.2479 1010.72 68.8851 1012.49 67.0511C1013.36 66.151 1014.31 65.4647 1015.19 65.4647C1016.32 65.4647 1018.94 65.8472 1021.48 66.2635C1025.21 66.8824 1028.96 65.3184 1031.05 62.2693L1031.39 61.7855" stroke="black" stroke-width="0.5" stroke-linecap="round" stroke-linejoin="round"/>
<path d="M1036.04 57.8034C1036.04 57.8034 1027.66 51.7951 1026.78 54.1917C1025.91 56.5882 1033.62 60.4699 1033.62 60.4699" fill="white"/>
<path d="M1036.04 57.8034C1036.04 57.8034 1027.66 51.7951 1026.78 54.1917C1025.91 56.5882 1033.62 60.4699 1033.62 60.4699" stroke="black" stroke-width="0.5" stroke-linecap="round" stroke-linejoin="round"/>
<path d="M1048.29 61.8757C1047.93 62.6296 1047.17 63.1696 1046.27 63.2259L1039.43 62.8546C1039.43 62.8546 1039.04 64.5648 1041.55 64.8574C1044.01 65.1499 1046.98 65.8362 1039.29 66.4438C1037.64 66.5788 1036.24 66.4888 1035.09 66.2413C1029.04 64.9586 1030.87 56.16 1036.98 57.1164L1044.68 58.3203C1044.72 58.4328 1046.1 62.1795 1048.29 61.8757Z" fill="white" stroke="black" stroke-width="0.5" stroke-linecap="round" stroke-linejoin="round"/>
<path d="M1038.37 61.3698C1038.8 61.3698 1039.15 61.0323 1039.15 60.6159C1039.15 60.1996 1038.8 59.8621 1038.37 59.8621C1037.94 59.8621 1037.59 60.1996 1037.59 60.6159C1037.59 61.0323 1037.94 61.3698 1038.37 61.3698Z" fill="black"/>
<path d="M1033.24 60.8522C1033.24 60.8522 1029.68 72.0699 1032.73 72.0699C1035.78 72.0699 1037.2 62.3824 1037.2 62.3824" fill="white"/>
<path d="M1033.24 60.8522C1033.24 60.8522 1029.68 72.0699 1032.73 72.0699C1035.78 72.0699 1037.2 62.3824 1037.2 62.3824" stroke="black" stroke-width="0.5" stroke-linecap="round" stroke-linejoin="round"/>
<path d="M1048.52 60.9085C1048.52 61.2573 1048.44 61.5835 1048.3 61.8873C1046.11 62.1911 1044.73 58.4557 1044.69 58.3431L1046.5 58.6244C1047.09 58.7144 1047.59 59.007 1047.95 59.412C1048.31 59.8171 1048.52 60.3459 1048.52 60.9197V60.9085Z" fill="black" stroke="black" stroke-width="0.5" stroke-linecap="round" stroke-linejoin="round"/>
<path d="M983.141 11.9433C983.141 11.9433 983.363 15.3862 984.422 16.2188C985.481 17.0514 983.724 18.2328 983.724 18.2328C983.724 18.2328 984.329 23.6673 982.199 23.3635C980.068 23.0597 978.927 21.9008 978.322 23.8135L973.607 23.3072L972.141 19.4029L972.536 12.7534L983.118 11.9433H983.141Z" fill="white" stroke="black" stroke-width="0.5" stroke-linecap="round" stroke-linejoin="round"/>
<path d="M973.199 22.9807C968.52 26.8737 967.635 36.8762 968.496 45.5623C968.764 48.2176 968.752 50.6029 968.741 53.0219L986.004 50.7379C985.585 47.0699 984.724 43.4582 983.42 40.0041C981.441 34.7384 978.415 29.799 978.519 23.3407L973.199 22.9807Z" fill="white" stroke="black" stroke-width="0.5" stroke-linecap="round" stroke-linejoin="round"/>
<path d="M982.54 16.1292C982.54 15.78 982.26 15.4985 981.922 15.4985C981.584 15.4985 981.305 15.78 981.305 16.1292C981.305 16.4783 981.584 16.7599 981.922 16.7599C982.26 16.7599 982.54 16.4783 982.54 16.1292Z" fill="black"/>
<path d="M972.77 33.5791C974.702 40.2512 979.219 44.2342 984.737 47.9472L987.228 41.0501C980.045 35.2218 977.123 28.6398 977.123 28.6398" fill="white"/>
<path d="M972.77 33.5791C974.702 40.2512 979.219 44.2342 984.737 47.9472L987.228 41.0501C980.045 35.2218 977.123 28.6398 977.123 28.6398" stroke="black" stroke-width="0.5" stroke-linecap="round" stroke-linejoin="round"/>
<path d="M987.551 49.7254C986.213 49.0166 984.723 47.9477 984.723 47.9477L987.214 41.0618C987.214 41.0618 991.044 41.2531 990.322 42.7721C989.6 44.291 988.343 44.561 988.343 44.561L990.182 46.395C990.927 47.1376 991.009 48.2852 990.38 49.1291C989.728 49.9955 988.518 50.2543 987.54 49.7367L987.551 49.7254Z" fill="white" stroke="black" stroke-width="0.5" stroke-linecap="round" stroke-linejoin="round"/>
<path d="M984.736 47.9372C984.736 47.9372 983.362 58.4573 989.963 57.8834C994.829 57.4671 991.732 52.3365 989.765 49.6587" stroke="black" stroke-width="0.5" stroke-linecap="round" stroke-linejoin="round"/>
<path d="M983.147 11.9431C983.147 11.9431 983.578 8.16264 978.188 9.17527C972.798 10.1879 971.797 13.102 971.797 13.102L983.147 11.9431Z" fill="white" stroke="black" stroke-width="0.5" stroke-linecap="round" stroke-linejoin="round"/>
<path d="M971.935 14.1025C971.935 14.1025 971.435 19.447 970.143 19.717C968.851 19.987 968.839 21.7985 970.876 21.596C972.18 21.4722 974.066 21.0784 975.3 18.9632C975.556 18.5244 973.926 18.108 974.904 16.3416C975.614 15.0589 976.708 15.8465 976.766 15.554C976.906 14.8789 976.534 14.5413 976.475 13.7425L971.947 14.0913L971.935 14.1025Z" fill="white" stroke="black" stroke-width="0.5" stroke-linecap="round" stroke-linejoin="round"/>
<path d="M983.823 11.6214L971.402 12.3599L971.577 15.1112L983.998 14.3728L983.823 11.6214Z" fill="black" stroke="black" stroke-width="0.5" stroke-linecap="round" stroke-linejoin="round"/>
<path d="M980.734 19.1425C980.734 19.1425 982.131 19.9774 983.796 19.1425Z" fill="white"/>
<path d="M980.734 19.1425C980.734 19.1425 982.131 19.9774 983.796 19.1425" stroke="black" stroke-width="0.5" stroke-linecap="round" stroke-linejoin="round"/>
<path d="M1091 34.0572C1091 34.0572 1098.46 40.3864 1102.77 40.3864C1107.07 40.3864 1111.99 38.4134 1111.99 38.4134V31.6738C1111.99 31.6738 1104.51 34.7457 1102.45 34.7457C1100.4 34.7457 1093.45 28.9328 1093.45 28.9328C1093.45 28.9328 1092.63 26.2714 1092.02 26.2714C1091.65 26.2714 1091.23 27.0923 1090.96 27.7412C1089.3 26.801 1087.42 26.1787 1086.72 27.5955C1085.38 30.3497 1091 34.0572 1091 34.0572Z" fill="white" stroke="black" stroke-width="0.5" stroke-linecap="round" stroke-linejoin="round"/>
<path d="M1124 87.6057H1111.03C1111.03 87.6057 1111.33 83.2494 1114.81 82.349C1115.3 82.2166 1115.63 81.6472 1115.82 80.7468H1123.22L1123.99 87.5925L1124 87.6057Z" fill="#A6A6A6" stroke="black" stroke-width="0.5" stroke-linecap="round" stroke-linejoin="round"/>
<path d="M1120.2 53.6941L1123.23 80.7588H1115.83C1117.02 75.3697 1113.43 58.4212 1113.43 58.4212" fill="white"/>
<path d="M1120.2 53.6941L1123.23 80.7588H1115.83C1117.02 75.3697 1113.43 58.4212 1113.43 58.4212" stroke="black" stroke-width="0.5" stroke-linecap="round" stroke-linejoin="round"/>
<path d="M1111.83 16.2878C1109.5 16.2878 1111.09 19.1877 1109.87 20.3661C1108.65 21.5446 1106.9 22.9481 1108.6 23.3851C1110.3 23.822 1108.05 27.887 1109.94 29.7143C1110.41 30.1645 1113.41 28.3505 1113.41 29.2111C1113.41 29.6746 1112.9 31.4753 1113.17 31.7534C1114.34 32.9318 1117.81 32.0977 1118.2 28.2975C1118.67 23.9015 1121.79 16.3011 1111.83 16.3011V16.2878Z" fill="white" stroke="black" stroke-width="0.5" stroke-linecap="round" stroke-linejoin="round"/>
<path d="M1109.21 25.9662C1109.21 25.9662 1110.46 26.9196 1112.4 25.4763Z" fill="white"/>
<path d="M1109.21 25.9662C1109.21 25.9662 1110.46 26.9196 1112.4 25.4763" stroke="black" stroke-width="0.5" stroke-linecap="round" stroke-linejoin="round"/>
<path d="M1111.98 21.8631C1112.3 21.8631 1112.56 21.6139 1112.56 21.3065C1112.56 20.999 1112.3 20.7498 1111.98 20.7498C1111.66 20.7498 1111.41 20.999 1111.41 21.3065C1111.41 21.6139 1111.66 21.8631 1111.98 21.8631Z" fill="black"/>
<path d="M1112.3 87.6057H1096.93C1097.21 85.7652 1098.69 84.3219 1100.58 84.0042C1102.08 83.7526 1103.61 83.1302 1104.28 80.7468H1112.35C1112.23 84.6529 1112.28 87.5925 1112.28 87.5925L1112.3 87.6057Z" fill="#A6A6A6" stroke="black" stroke-width="0.5" stroke-linecap="round" stroke-linejoin="round"/>
<path d="M1116.07 60.0498C1115.53 61.1885 1114.86 62.9761 1114.07 65.7964C1112.94 69.9144 1112.51 76.045 1112.36 80.7588H1104.29C1104.44 80.2159 1104.55 79.5804 1104.61 78.8521C1105.1 71.9932 1110.05 53.6941 1110.05 53.6941" fill="white"/>
<path d="M1116.07 60.0498C1115.53 61.1885 1114.86 62.9761 1114.07 65.7964C1112.94 69.9144 1112.51 76.045 1112.36 80.7588H1104.29C1104.44 80.2159 1104.55 79.5804 1104.61 78.8521C1105.1 71.9932 1110.05 53.6941 1110.05 53.6941" stroke="black" stroke-width="0.5" stroke-linecap="round" stroke-linejoin="round"/>
<path d="M1113.31 18.8566C1113.31 18.8566 1108.57 17.89 1108.57 17.1088C1108.57 16.3276 1111.9 13.1365 1112.97 14.1693C1114.04 15.2021 1115.67 14.3547 1117.1 14.8181C1118.52 15.2816 1121.63 17.7576 1121.63 19.0023C1121.63 20.2469 1120.04 22.5509 1119.85 23.7823C1119.66 25.0137 1117.26 24.6165 1117.26 24.6165L1116.56 23.4645C1116.56 23.4645 1119.15 21.8491 1117.63 20.7501C1116.11 19.6511 1115.1 21.0414 1115.1 21.0414L1113.3 18.8566H1113.31Z" fill="black" stroke="black" stroke-width="0.5" stroke-linecap="round" stroke-linejoin="round"/>
<path d="M1109.82 53.6943H1116.87L1117.34 58.4478L1118.31 61.6256C1118.71 62.91 1119.67 63.9958 1120.94 64.499C1121.53 64.7373 1122.09 64.8168 1122.45 64.5917C1122.85 64.3533 1123.09 63.9958 1123.13 63.6913C1123.37 62.195 1123.09 59.6527 1122.3 57.2826C1122.3 57.2826 1121.61 33.4619 1117.15 32.4953C1116 32.2437 1113.89 31.2242 1112.76 31.8068C1111.74 32.3497 1110.63 35.2098 1110.04 40.334C1109.43 45.4583 1109.8 53.6943 1109.8 53.6943H1109.82Z" fill="white" stroke="black" stroke-width="0.5" stroke-linecap="round" stroke-linejoin="round"/>
<path d="M1115.21 37.4207L1116.88 53.6939" stroke="black" stroke-width="0.5" stroke-linecap="round" stroke-linejoin="round"/>
<path d="M1117.18 31.2634C1119.33 32.1506 1121.42 30.0717 1122.07 39.2213C1122.71 48.3709 1122.14 53.0979 1122.14 53.0979C1122.14 53.0979 1117.85 53.6938 1113.45 53.6938H1108.59C1108.59 53.6938 1108.45 33.382 1110.2 31.7004C1111.96 30.0188 1117.19 31.2634 1117.19 31.2634H1117.18Z" fill="black" stroke="black" stroke-width="0.5" stroke-linecap="round" stroke-linejoin="round"/>
<path d="M1116.99 54.7927C1116.99 54.7927 1112.77 32.9714 1118.33 32.9714C1122.87 32.9714 1122.2 54.5014 1122.2 54.5014" fill="white"/>
<path d="M1116.99 54.7927C1116.99 54.7927 1112.77 32.9714 1118.33 32.9714C1122.87 32.9714 1122.2 54.5014 1122.2 54.5014" stroke="black" stroke-width="0.5" stroke-linecap="round" stroke-linejoin="round"/>
<path d="M1112.47 37.0254C1112.6 37.0254 1112.73 36.9989 1112.84 36.9327C1112.95 36.8665 1113.04 36.787 1113.1 36.6811C1113.17 36.5752 1113.19 36.456 1113.19 36.3236C1113.19 36.1912 1113.17 36.072 1113.1 35.9661C1113.03 35.8602 1112.95 35.7807 1112.84 35.7145C1112.73 35.6483 1112.6 35.6218 1112.45 35.6218C1112.34 35.6218 1112.25 35.6351 1112.17 35.6748C1112.08 35.7145 1112 35.7675 1111.93 35.8337L1112.21 36.0985C1112.21 36.0985 1112.28 36.0323 1112.32 36.019C1112.36 36.0058 1112.41 35.9926 1112.47 35.9926C1112.54 35.9926 1112.59 35.9926 1112.63 36.0323C1112.67 36.0588 1112.71 36.0985 1112.74 36.1382C1112.77 36.1912 1112.78 36.2441 1112.78 36.3103C1112.78 36.3766 1112.77 36.4295 1112.74 36.4825C1112.71 36.5355 1112.67 36.5752 1112.63 36.6017C1112.58 36.6281 1112.52 36.6414 1112.47 36.6414C1112.41 36.6414 1112.36 36.6414 1112.32 36.6149C1112.28 36.6017 1112.24 36.5619 1112.21 36.5355L1111.93 36.8003C1112 36.8797 1112.08 36.9327 1112.17 36.9592C1112.25 36.9989 1112.36 37.0121 1112.47 37.0121" fill="#10A96C"/>
<path d="M1110.54 35.6602V36.9843H1110.95V36.8783C1110.95 36.8783 1111.03 36.9446 1111.07 36.9578C1111.14 36.9975 1111.23 37.0107 1111.32 37.0107C1111.44 37.0107 1111.55 36.9843 1111.64 36.9181C1111.74 36.8519 1111.82 36.7724 1111.88 36.6665C1111.93 36.5606 1111.96 36.4414 1111.96 36.309C1111.96 36.1765 1111.93 36.0574 1111.88 35.9515C1111.82 35.8455 1111.74 35.7661 1111.64 35.6999C1111.55 35.6337 1111.44 35.6072 1111.32 35.6072C1111.22 35.6072 1111.14 35.6204 1111.07 35.6602C1111.03 35.6866 1110.97 35.7131 1110.95 35.7396V35.6204H1110.54V35.6602ZM1110.92 36.3222C1110.92 36.3222 1110.92 36.203 1110.96 36.1501C1110.99 36.0971 1111.03 36.0706 1111.07 36.0442C1111.11 36.0177 1111.17 36.0044 1111.23 36.0044C1111.3 36.0044 1111.34 36.0177 1111.4 36.0442C1111.44 36.0706 1111.48 36.1104 1111.51 36.1633C1111.54 36.2163 1111.55 36.2693 1111.55 36.3355C1111.55 36.4017 1111.55 36.4546 1111.51 36.4943C1111.48 36.5473 1111.44 36.5738 1111.4 36.6003C1111.36 36.6267 1111.3 36.64 1111.23 36.64C1111.14 36.64 1111.07 36.6135 1111 36.5473C1110.95 36.4943 1110.92 36.4149 1110.92 36.3222Z" fill="#00A6BF"/>
<path d="M1109.52 35.6462C1109.52 35.6462 1109.58 35.6462 1109.61 35.6462C1109.67 35.6462 1109.74 35.6594 1109.81 35.6992C1109.88 35.7389 1109.93 35.7786 1109.98 35.8316C1109.98 35.8448 1110 35.8581 1110 35.8713V35.6727H1110.4V36.9968H1109.99V36.3347C1109.99 36.3347 1109.99 36.2553 1109.98 36.2288C1109.98 36.2023 1109.95 36.1758 1109.92 36.1493C1109.89 36.1229 1109.87 36.1096 1109.84 36.0964C1109.81 36.0964 1109.77 36.0832 1109.73 36.0832C1109.7 36.0832 1109.66 36.0832 1109.63 36.0832C1109.61 36.0832 1109.58 36.0964 1109.55 36.1096L1109.44 35.6594C1109.44 35.6594 1109.48 35.6594 1109.51 35.6462H1109.52Z" fill="#8280B8"/>
<path d="M1113.7 35.6609V36.4156C1113.7 36.548 1113.81 36.6407 1113.94 36.6407C1114.06 36.6407 1114.17 36.5348 1114.17 36.4156V35.6609H1114.58V36.3891C1114.58 36.7334 1114.29 37.0247 1113.94 37.0247C1113.58 37.0247 1113.29 36.7466 1113.29 36.3891V35.6609H1113.7Z" fill="#EF664E"/>
<path d="M1122.31 57.283L1117.29 57.8008" stroke="black" stroke-width="0.5" stroke-linecap="round" stroke-linejoin="round"/>
<path d="M1094.67 29.9275L1091 34.0587" stroke="black" stroke-width="0.5" stroke-linecap="round" stroke-linejoin="round"/>
<path d="M4.16406 1.77738V10.0839H129.469C123.294 1.43778 117.389 0.379883 102.2 0.379883H5.60994C4.81267 0.379883 4.16406 1.0068 4.16406 1.77738Z" fill="white"/>
<path d="M129.479 10.4616H4.17314C3.95693 10.4616 3.78125 10.2918 3.78125 10.0828V1.77626C3.78125 0.796717 4.60554 0 5.61901 0H102.209C117.128 0 123.371 0.848963 129.803 9.86078C129.884 9.97832 129.897 10.135 129.83 10.2526C129.762 10.3832 129.627 10.4616 129.479 10.4616ZM4.565 9.70406H128.722C122.965 1.95912 117.425 0.770571 102.209 0.770571H5.61901C5.03795 0.770571 4.57853 1.22769 4.57853 1.7893V9.71709L4.565 9.70406Z" fill="#1D1D1B"/>
<path d="M4.16406 10.083V63.4095H174.197C174.711 53.7577 168.576 45.2683 156.36 45.2683H151.887L148.334 39.6914H102.849V10.083H4.16406Z" fill="white"/>
<path d="M174.206 63.788H4.17314C3.95693 63.788 3.78125 63.6183 3.78125 63.4093V10.0828C3.78125 9.87386 3.95693 9.7041 4.17314 9.7041H102.858C103.074 9.7041 103.25 9.87386 103.25 10.0828V39.3125H148.343C148.478 39.3125 148.613 39.3778 148.68 39.4953L152.126 44.8893H156.383C161.964 44.8893 166.639 46.6525 169.909 49.983C173.22 53.3657 174.896 58.1328 174.612 63.4354C174.612 63.6444 174.423 63.8011 174.22 63.8011L174.206 63.788ZM4.565 63.0305H173.828C174.004 58.0936 172.409 53.653 169.328 50.5054C166.207 47.3317 161.734 45.6469 156.383 45.6469H151.91C151.775 45.6469 151.64 45.5815 151.572 45.464L148.126 40.07H102.858C102.642 40.07 102.466 39.9002 102.466 39.6912V10.4616H4.565V63.0305Z" fill="#1D1D1B"/>
<path d="M4.16406 1.77738V10.0839H129.469C123.294 1.43778 117.389 0.379883 102.2 0.379883H5.60994C4.81267 0.379883 4.16406 1.0068 4.16406 1.77738Z" fill="white"/>
<path d="M129.479 10.4616H4.17314C3.95693 10.4616 3.78125 10.2918 3.78125 10.0828V1.77626C3.78125 0.796717 4.60554 0 5.61901 0H102.209C117.128 0 123.371 0.848963 129.803 9.86078C129.884 9.97832 129.897 10.135 129.83 10.2526C129.762 10.3832 129.627 10.4616 129.479 10.4616ZM4.565 9.70406H128.722C122.965 1.95912 117.425 0.770571 102.209 0.770571H5.61901C5.03795 0.770571 4.57853 1.22769 4.57853 1.7893V9.71709L4.565 9.70406Z" fill="#1D1D1B"/>
<path d="M102.863 10.083V39.6914H148.348L132.524 14.8763C131.484 13.0608 130.484 11.4805 129.484 10.083H102.863Z" fill="white"/>
<path d="M148.349 40.07H102.865C102.648 40.07 102.473 39.9002 102.473 39.6912V10.0828C102.473 9.87386 102.648 9.7041 102.865 9.7041H129.485C129.62 9.7041 129.742 9.76937 129.809 9.87386C130.782 11.2452 131.782 12.8125 132.877 14.6932L148.687 39.4953C148.768 39.6129 148.768 39.7565 148.687 39.8871C148.619 40.0047 148.484 40.083 148.349 40.083V40.07ZM103.256 39.3125H147.633L132.188 15.072C131.147 13.2696 130.201 11.7677 129.269 10.4616H103.256V39.3125Z" fill="#1D1D1B"/>
<path d="M177.733 63.4092H0.402344V73.5442H177.733V63.4092Z" fill="#A4A4A3"/>
<path d="M178.128 73.9238H0V63.0312H178.128V73.9238ZM0.797258 73.1663H177.344V63.8018H0.797258V73.1663Z" fill="#1D1D1B"/>
<path d="M10.7305 73.5449C10.7305 65.9306 17.1221 59.7529 25.0001 59.7529C32.8782 59.7529 39.2698 65.9306 39.2698 73.5449C39.2698 81.1592 32.8782 87.3369 25.0001 87.3369C17.1221 87.3369 10.7305 81.1592 10.7305 73.5449Z" fill="white"/>
<path d="M25.0014 87.7145C16.9207 87.7145 10.3398 81.354 10.3398 73.5438C10.3398 65.7335 16.9207 59.373 25.0014 59.373C33.0821 59.373 39.6629 65.7335 39.6629 73.5438C39.6629 81.354 33.0821 87.7145 25.0014 87.7145ZM25.0014 60.1305C17.3531 60.1305 11.1236 66.1515 11.1236 73.5438C11.1236 80.9361 17.3396 86.957 25.0014 86.957C32.6632 86.957 38.8792 80.9361 38.8792 73.5438C38.8792 66.1515 32.6497 60.1305 25.0014 60.1305Z" fill="#1D1D1B"/>
<path d="M17.1445 73.5443C17.1445 69.3518 20.6579 65.9561 24.9955 65.9561C29.3332 65.9561 32.8466 69.3518 32.8466 73.5443C32.8466 77.7367 29.3332 81.1325 24.9955 81.1325C20.6579 81.1325 17.1445 77.7367 17.1445 73.5443Z" fill="white"/>
<path d="M24.9986 81.5114C20.4448 81.5114 16.7422 77.9328 16.7422 73.5445C16.7422 69.1561 20.4448 65.5645 24.9986 65.5645C29.5525 65.5645 33.2415 69.143 33.2415 73.5445C33.2415 77.9459 29.539 81.5114 24.9986 81.5114ZM24.9986 66.322C20.8907 66.322 17.5394 69.561 17.5394 73.5314C17.5394 77.5018 20.8907 80.7409 24.9986 80.7409C29.1065 80.7409 32.4577 77.5018 32.4577 73.5314C32.4577 69.561 29.1201 66.322 24.9986 66.322Z" fill="#1D1D1B"/>
<path d="M47.2422 45.0727C45.499 45.0727 43.9316 44.707 42.5262 43.9625C41.1344 43.218 40.0128 42.1993 39.1885 40.9063C38.3642 39.6133 37.9453 38.1636 37.9453 36.5441C37.9453 34.9246 38.3642 33.4357 39.1885 32.1427C40.0128 30.8497 41.1344 29.8309 42.5397 29.0734C43.945 28.3159 45.5396 27.9502 47.2963 27.9502C48.6205 27.9502 49.8367 28.1723 50.9447 28.6294C52.0528 29.0734 53.0393 29.7395 53.8906 30.6146L50.5394 33.8536C50.1475 33.4096 49.6746 33.083 49.1205 32.8741C48.58 32.6651 47.9584 32.5737 47.2828 32.5737C46.499 32.5737 45.7963 32.7304 45.2018 33.0569C44.6072 33.3834 44.1342 33.8405 43.7829 34.4413C43.4316 35.0421 43.2559 35.7343 43.2559 36.518C43.2559 37.3016 43.4316 37.9677 43.7829 38.5685C44.1342 39.1693 44.6072 39.6394 45.2153 39.966C45.8234 40.2925 46.5125 40.4492 47.2692 40.4492C47.9854 40.4492 48.6205 40.3447 49.1746 40.1096C49.7151 39.8876 50.1881 39.535 50.5934 39.0648L53.9446 42.3299C53.0663 43.2311 52.0663 43.9103 50.9583 44.3674C49.8502 44.8245 48.607 45.0596 47.2017 45.0596" fill="#5DBB75"/>
<path d="M65.6191 39.8615C64.9029 40.5929 63.957 40.9586 62.7814 40.9586C62.0382 40.9586 61.376 40.7888 60.795 40.4492C60.2139 40.1096 59.7545 39.6525 59.4167 39.0648C59.0789 38.4771 58.9167 37.811 58.9167 37.0404C58.9167 36.2698 59.0789 35.5646 59.4167 34.9638C59.7545 34.363 60.2139 33.9059 60.795 33.5663C61.376 33.2267 62.0517 33.0569 62.8219 33.0569C63.5922 33.0569 64.2678 33.2267 64.8489 33.5663C65.4299 33.9059 65.8894 34.363 66.2137 34.9507C66.538 35.5384 66.7001 36.2176 66.7001 37.0143C66.7001 38.1767 66.3488 39.1301 65.6326 39.8615M66.4569 28.8122V30.2097C66.011 29.7918 65.484 29.4391 64.8894 29.1518C63.957 28.7077 62.93 28.4727 61.7814 28.4727C60.2275 28.4727 58.8221 28.8514 57.5924 29.5958C56.3627 30.3534 55.3898 31.3721 54.7006 32.652C53.998 33.932 53.6602 35.3948 53.6602 37.0404C53.6602 38.686 54.0115 40.1096 54.7006 41.3896C55.4033 42.6695 56.3627 43.6882 57.5789 44.4196C58.7951 45.1641 60.1869 45.5298 61.7544 45.5298C62.9165 45.5298 63.9705 45.3208 64.8894 44.8898C65.4975 44.6155 66.011 44.2629 66.4569 43.845V45.2033H71.5918V28.8122H66.4569Z" fill="#00C1D2"/>
<path d="M84.8311 28.5249C84.196 28.2767 83.4663 28.1592 82.6555 28.1592C80.8177 28.1592 79.3719 28.6947 78.3314 29.7787V28.4988H73.1289V44.8898H78.3314V35.9172C78.3314 34.8201 78.6016 33.9973 79.1557 33.4749C79.6962 32.9524 80.4124 32.6782 81.3042 32.6782C81.7637 32.6782 82.1826 32.7435 82.5204 32.861C82.8717 32.9785 83.142 33.1744 83.3582 33.4226L86.4932 29.6742C86.0203 29.1518 85.4797 28.773 84.8311 28.5249Z" fill="#8080CF"/>
<path d="M31.6893 28.8115V37.8103C31.6893 38.385 31.5677 38.9074 31.3245 39.3645C31.0813 39.8216 30.7299 40.1743 30.284 40.4224C29.8381 40.6706 29.3111 40.7881 28.7165 40.7881C28.1219 40.7881 27.622 40.6706 27.1895 40.4224C26.7436 40.1743 26.4058 39.8216 26.1491 39.3645C25.8923 38.9074 25.7707 38.385 25.7707 37.8103V28.8115H20.5547V37.6013C20.5547 39.038 20.9196 40.331 21.6357 41.4803C22.3519 42.6297 23.3384 43.5439 24.568 44.21C25.8112 44.8761 27.2031 45.2156 28.7706 45.2156C30.3381 45.2156 31.7029 44.8761 32.9325 44.21C34.1622 43.5439 35.1351 42.6297 35.8378 41.4803C36.554 40.331 36.9053 39.038 36.9053 37.6013V28.8115H31.6893Z" fill="#FF6947"/>
<path d="M142.44 39.6911C142.44 39.6911 138.872 46.4304 130.211 50.3747C124.508 52.9738 120.535 46.7569 116.752 41.9114C113.819 38.163 114.076 34.8718 116.468 32.3641C117.454 31.3323 119.171 31.2148 120.873 31.3846L125.386 31.0059C125.386 31.0059 130.575 34.715 132.494 39.5083L128.305 39.7564C129.211 42.4208 129.535 42.1727 129.535 42.1727L134.981 39.4299C137.197 40.1221 137.372 41.9114 142.44 39.7042" fill="#1D1D1B"/>
<path d="M127.562 51.3672C123.494 51.3672 120.332 47.227 117.481 43.4917C117.13 43.0345 116.778 42.5774 116.44 42.1333C113.589 38.4764 113.495 34.9108 116.17 32.1028C117.089 31.1363 118.63 30.7837 120.9 31.0057L125.345 30.627C125.44 30.627 125.535 30.64 125.616 30.7053C125.832 30.862 130.913 34.532 132.859 39.3775C132.899 39.4951 132.886 39.6126 132.818 39.7171C132.751 39.8216 132.629 39.8869 132.507 39.8869L128.832 40.109C129.197 41.1407 129.44 41.5587 129.561 41.7285L134.791 39.0902C134.886 39.038 134.994 39.038 135.102 39.0641C135.696 39.2469 136.156 39.5082 136.575 39.7433C137.75 40.4094 138.669 40.9318 142.291 39.3514C142.439 39.2861 142.615 39.3122 142.737 39.4298C142.858 39.5473 142.872 39.7171 142.804 39.8608C142.655 40.1351 139.075 46.7699 130.386 50.7142C129.399 51.1582 128.467 51.3672 127.575 51.3672H127.562ZM119.724 31.6979C118.305 31.6979 117.346 31.9983 116.751 32.6121C114.319 35.159 114.427 38.2935 117.062 41.6631C117.413 42.1072 117.765 42.5643 118.116 43.0345C121.575 47.5666 125.143 52.2423 130.034 50.022C136.534 47.0703 140.142 42.4729 141.48 40.4877C138.372 41.637 137.291 41.0363 136.156 40.3963C135.804 40.2004 135.44 39.9914 134.994 39.8347L129.697 42.499C129.602 42.5513 129.44 42.5513 129.345 42.5251C129.156 42.4598 128.751 42.3423 127.913 39.8608C127.872 39.7433 127.899 39.6257 127.967 39.5343C128.034 39.4429 128.143 39.3776 128.264 39.3645L131.913 39.1424C130.088 35.1328 126.008 31.9461 125.264 31.3845L120.9 31.7501C120.481 31.711 120.089 31.6849 119.724 31.6849V31.6979ZM129.399 41.8068C129.399 41.8068 129.332 41.833 129.291 41.8591L129.399 41.8068Z" fill="#1D1D1B"/>
<path d="M118.902 32.378L129.523 30.5364C130.172 30.4189 130.563 29.792 130.374 29.1781L128.807 24.3326C128.753 24.1629 128.834 23.9931 128.996 23.9278L131.847 22.7523C132.05 22.6609 132.077 22.3866 131.888 22.2691C129.942 21.0806 127.172 19.3174 126.523 17.293L126.347 16.7575C125.564 14.3152 123.01 12.8263 120.415 13.2834C117.807 13.7405 115.97 15.9869 116.105 18.5468L116.78 30.7715C116.834 31.8164 117.834 32.5739 118.888 32.3911" fill="white"/>
<path d="M118.58 32.7825C118.093 32.7825 117.607 32.6258 117.215 32.3254C116.728 31.9467 116.417 31.385 116.39 30.7712L115.715 18.5465C115.566 15.8038 117.566 13.3745 120.35 12.8912C123.147 12.408 125.89 14.0145 126.728 16.6266L126.904 17.1621C127.539 19.1212 130.511 20.9496 132.106 21.9292C132.322 22.0598 132.444 22.2949 132.417 22.543C132.403 22.7912 132.241 23.0002 132.011 23.0916L129.16 24.267L130.755 29.0472C130.876 29.439 130.822 29.87 130.606 30.2227C130.39 30.5753 130.011 30.8234 129.593 30.8887L118.971 32.7303C118.836 32.7564 118.715 32.7695 118.58 32.7695V32.7825ZM121.35 13.5704C121.066 13.5704 120.782 13.5965 120.485 13.6488C118.08 14.0667 116.363 16.1564 116.499 18.5204L117.174 30.7451C117.201 31.1369 117.39 31.4896 117.701 31.7377C118.012 31.9728 118.417 32.0773 118.823 32.012L129.444 30.1704C129.647 30.1312 129.809 30.0268 129.917 29.857C130.025 29.6872 130.052 29.4913 129.984 29.3084L128.417 24.4629C128.295 24.1103 128.471 23.7315 128.836 23.5879L131.498 22.4908C129.228 21.0802 126.795 19.4215 126.147 17.4233L125.971 16.8878C125.336 14.9026 123.431 13.5965 121.336 13.5965L121.35 13.5704Z" fill="#1D1D1B"/>
<path d="M116.146 19.5522L125.889 15.7255C124.781 13.9362 122.646 12.8913 120.444 13.2832C117.822 13.7403 115.957 16.0128 116.106 18.5858L116.16 19.5522H116.146Z" fill="#1D1D1B"/>
<path d="M115.796 20.113L115.715 18.611C115.566 15.8552 117.566 13.3999 120.377 12.9166C122.66 12.5117 125.025 13.5696 126.241 15.5418L126.471 15.9205L115.796 20.113ZM121.35 13.5958C121.066 13.5958 120.796 13.6219 120.512 13.6741C118.093 14.0921 116.363 16.2079 116.499 18.5718L116.526 19.0029L125.309 15.5548C124.377 14.3271 122.89 13.5958 121.35 13.5958Z" fill="#1D1D1B"/>
<path d="M128.222 27.3745C126.871 27.3745 125.56 26.8651 124.966 26.408C124.79 26.2774 124.763 26.0423 124.898 25.8725C125.033 25.7027 125.276 25.6766 125.452 25.8072C126.087 26.2905 127.736 26.826 129.073 26.5125C129.29 26.4603 129.506 26.5909 129.546 26.7998C129.6 27.0088 129.465 27.2047 129.249 27.2569C128.911 27.3353 128.56 27.3745 128.209 27.3745H128.222Z" fill="#1D1D1B"/>
<path d="M124.265 20.4007C124.332 20.7798 124.711 21.0283 125.09 20.9629C125.482 20.8975 125.739 20.5314 125.671 20.1654C125.604 19.7862 125.225 19.5378 124.846 19.6032C124.454 19.6686 124.197 20.0346 124.265 20.4007Z" fill="#1D1D1B"/>
<path d="M114.699 39.6909H108.699V29.8301H111.753C113.375 29.8301 114.699 31.11 114.699 32.6773V39.6909Z" fill="#A4A4A3"/>
<path d="M115.09 40.0704H108.293V29.4521H111.739C113.59 29.4521 115.09 30.9018 115.09 32.6912V40.0835V40.0704ZM109.09 39.3129H114.306V32.6912C114.306 31.3328 113.158 30.2227 111.752 30.2227H109.09V39.3129Z" fill="#1D1D1B"/>
<path d="M110.913 29.8178C110.035 29.8178 109.238 29.4521 108.684 28.8644V20.9105C109.238 20.3227 110.021 19.957 110.913 19.957C112.575 19.957 113.913 21.25 113.913 22.8565V26.9184C113.913 28.5248 112.575 29.8178 110.913 29.8178Z" fill="#A4A4A3"/>
<path d="M110.914 30.197C109.955 30.197 109.036 29.8052 108.401 29.1261L108.293 29.0216V20.7672L108.401 20.6628C109.05 19.9836 109.969 19.5918 110.914 19.5918C112.793 19.5918 114.306 21.0677 114.306 22.87V26.9318C114.306 28.7473 112.779 30.2101 110.914 30.2101V30.197ZM109.09 28.7081C109.577 29.1652 110.239 29.4264 110.914 29.4264C112.347 29.4264 113.523 28.2902 113.523 26.9057V22.8439C113.523 21.4595 112.36 20.3232 110.914 20.3232C110.239 20.3232 109.577 20.5844 109.09 21.0415V28.695V28.7081Z" fill="#1D1D1B"/>
<path d="M123.507 17.0307C123.345 17.0307 123.196 16.9393 123.142 16.7956C123.061 16.5997 123.156 16.3776 123.358 16.2993L130.128 13.6872C130.331 13.6088 130.561 13.7002 130.642 13.8961C130.723 14.092 130.628 14.3141 130.426 14.3924L123.656 17.0046C123.656 17.0046 123.561 17.0307 123.507 17.0307Z" fill="#1D1D1B"/>
<path d="M140.492 73.5443C140.492 69.3518 144.006 65.9561 148.343 65.9561C152.681 65.9561 156.194 69.3518 156.194 73.5443C156.194 77.7367 152.681 81.1325 148.343 81.1325C144.006 81.1325 140.492 77.7367 140.492 73.5443Z" fill="white"/>
<path d="M172.356 57.0752C170.099 57.0752 163.735 56.7356 159.586 53.1179C157.33 51.1457 156.113 48.5075 155.965 45.2815C155.965 45.0725 156.127 44.8896 156.343 44.8896H156.357C156.573 44.8896 156.735 45.0464 156.749 45.2553C156.884 48.2723 158.019 50.7278 160.113 52.5563C164.856 56.6965 173.045 56.3046 173.126 56.2916C173.329 56.2785 173.532 56.4352 173.545 56.6573C173.545 56.8662 173.397 57.0491 173.18 57.0621C173.126 57.0621 172.829 57.0752 172.356 57.0752Z" fill="#1D1D1B"/>
<path d="M135.465 39.2865C135.465 39.2865 137.438 36.9617 139.357 36.6875C143.992 35.9952 143.1 39.2865 143.1 39.2865L138.181 42.0815L135.478 39.2865H135.465Z" fill="white"/>
<path d="M138.169 42.461C138.061 42.461 137.953 42.4219 137.885 42.3435L135.183 39.5485C135.047 39.4049 135.034 39.1959 135.169 39.0392C135.25 38.9347 137.264 36.6099 139.304 36.3095C141.034 36.0483 142.277 36.3095 142.98 37.0539C143.858 37.9943 143.507 39.3265 143.493 39.3918C143.466 39.4832 143.398 39.5746 143.304 39.6269L138.385 42.4219C138.385 42.4219 138.25 42.4741 138.182 42.4741L138.169 42.461ZM136.007 39.2743L138.25 41.586L142.75 39.0392C142.79 38.7388 142.844 38.0335 142.385 37.5503C141.885 37.0148 140.858 36.845 139.426 37.0539C138.047 37.2629 136.561 38.6865 136.007 39.2743Z" fill="#1D1D1B"/>
<path d="M133.75 73.5439C133.75 65.9296 140.142 59.752 148.02 59.752C155.898 59.752 162.289 65.9296 162.289 73.5439C162.289 81.1583 155.898 87.3359 148.02 87.3359C140.142 87.3359 133.75 81.1583 133.75 73.5439Z" fill="white"/>
<path d="M148.341 87.7145C140.26 87.7145 133.68 81.354 133.68 73.5438C133.68 65.7335 140.26 59.373 148.341 59.373C156.422 59.373 163.003 65.7335 163.003 73.5438C163.003 81.354 156.422 87.7145 148.341 87.7145ZM148.341 60.1305C140.693 60.1305 134.463 66.1515 134.463 73.5438C134.463 80.9361 140.693 86.957 148.341 86.957C155.99 86.957 162.219 80.9361 162.219 73.5438C162.219 66.1515 156.003 60.1305 148.341 60.1305Z" fill="#1D1D1B"/>
<path d="M148.344 81.5105C143.791 81.5105 140.102 77.9318 140.102 73.5435C140.102 69.1551 143.804 65.5635 148.344 65.5635C152.885 65.5635 156.587 69.1421 156.587 73.5435C156.587 77.9449 152.885 81.5105 148.344 81.5105ZM148.344 66.321C144.237 66.321 140.885 69.56 140.885 73.5305C140.885 77.5009 144.237 80.7399 148.344 80.7399C152.452 80.7399 155.804 77.5009 155.804 73.5305C155.804 69.56 152.452 66.321 148.344 66.321Z" fill="#1D1D1B"/>
<path d="M272.832 36.1304L264.63 78.9989L236.126 72.4749" stroke="black" stroke-width="0.5" stroke-linecap="round" stroke-linejoin="round"/>
<path d="M263.522 79.0171L240.289 73.4438L246.122 46.7267L269.355 52.3L263.522 79.0171Z" fill="white" stroke="black" stroke-width="0.5" stroke-linecap="round" stroke-linejoin="round"/>
<path d="M246.109 46.7075L252.087 57.7995C253.551 60.5168 256.926 61.325 259.362 59.5446L269.34 52.2828L246.109 46.7075Z" fill="white" stroke="black" stroke-width="0.5" stroke-linecap="round" stroke-linejoin="round"/>
<path d="M264.633 84.4578C261.757 84.4578 259.426 82.0141 259.426 78.9996C259.426 75.9852 261.757 73.5415 264.633 73.5415C267.509 73.5415 269.84 75.9852 269.84 78.9996C269.84 82.0141 267.509 84.4578 264.633 84.4578Z" fill="white" stroke="black" stroke-width="0.5" stroke-miterlimit="10"/>
<path d="M283.337 14.0054C283.337 14.0054 283.013 18.7139 281.974 19.5455C280.935 20.3771 282.656 21.5718 282.656 21.5718C282.656 21.5718 282.164 25.7767 284.254 25.4721C286.343 25.1676 287.449 24.0081 288.019 25.9289L292.6 25.4253L294.02 21.5015L293.628 14.8253L283.315 14.0171L283.337 14.0054Z" fill="white" stroke="black" stroke-width="0.5" stroke-linecap="round" stroke-linejoin="round"/>
<path d="M284.475 87.7018H285.894C285.894 87.7018 283.872 77.0666 285.693 67.9424C287.514 58.8182 294.777 51.2518 294.777 51.2518L285.805 48.1831C285.805 48.1831 278.139 56.909 277.29 72.3113C276.989 77.8631 278.586 84.2817 276.15 84.2817C273.167 84.2817 273.48 87.7018 273.48 87.7018H284.475Z" fill="black" stroke="black" stroke-width="0.5" stroke-linecap="round" stroke-linejoin="round"/>
<path d="M298.085 87.7028H299.504C299.504 87.7028 295.403 77.1028 296.431 67.8497C297.459 58.585 296.051 51.2645 296.051 51.2645L287.079 48.1958C287.079 48.1958 288.866 56.8281 288.028 72.2303C287.727 77.7821 292.196 84.2944 289.76 84.2944C286.777 84.2944 287.09 87.7145 287.09 87.7145H298.085V87.7028Z" fill="black" stroke="black" stroke-width="0.5" stroke-linecap="round" stroke-linejoin="round"/>
<path d="M293.01 25.0864C297.558 28.9985 298.429 39.0362 297.591 47.7622C297.334 50.4327 297.334 52.8221 297.356 55.2583L280.551 52.9627C280.953 49.2732 281.802 45.6539 283.065 42.187C284.987 36.9045 287.937 31.95 287.836 25.4612L293.01 25.0981V25.0864Z" fill="white" stroke="black" stroke-width="0.5" stroke-linecap="round" stroke-linejoin="round"/>
<path d="M284.858 18.6912C284.524 18.6912 284.254 18.4081 284.254 18.0588C284.254 17.7095 284.524 17.4263 284.858 17.4263C285.191 17.4263 285.461 17.7095 285.461 18.0588C285.461 18.4081 285.191 18.6912 284.858 18.6912Z" fill="black"/>
<path d="M293.77 23.2706C293.77 23.2706 289.937 21.1389 291.725 19.5577C293.803 17.7305 293.077 15.669 291.658 15.2942C289.881 14.814 289.591 16.5826 289.065 16.6295C285.948 16.8755 283.512 16.2313 282.015 13.0337C281.344 11.593 287.032 11.1362 290.931 11.1362C294.831 11.1362 297.446 23.9968 293.758 23.2706H293.77Z" fill="black" stroke="black" stroke-width="0.5" stroke-linecap="round" stroke-linejoin="round"/>
<path d="M291.57 36.9512C286.162 41.3552 280.262 42.1165 273.714 42.0814L275.715 35.0304C284.821 34.2456 290.945 30.4624 290.945 30.4624" fill="white"/>
<path d="M291.57 36.9512C286.162 41.3552 280.262 42.1165 273.714 42.0814L275.715 35.0304C284.821 34.2456 290.945 30.4624 290.945 30.4624" stroke="black" stroke-width="0.5" stroke-linecap="round" stroke-linejoin="round"/>
<path d="M271.167 42.0352C272.452 42.1172 273.715 42.0821 273.715 42.0821L275.715 35.031C275.715 35.031 272.553 33.0516 272.251 34.7031C271.949 36.3546 272.787 37.2799 272.787 37.2799C272.787 37.2799 268.139 36.6942 268.497 38.0997L268.519 39.1187C268.541 40.6648 269.703 41.9415 271.167 42.0352Z" fill="white" stroke="black" stroke-width="0.5" stroke-linecap="round" stroke-linejoin="round"/>
<path d="M282.634 23.1882C282.634 23.1882 284.601 23.5279 285.473 21.8179Z" fill="white"/>
<path d="M282.634 23.1882C282.634 23.1882 284.601 23.5279 285.473 21.8179" stroke="black" stroke-width="0.5" stroke-linecap="round" stroke-linejoin="round"/>
</svg>
