<svg width="1063" height="64" viewBox="0 0 1063 64" fill="none" xmlns="http://www.w3.org/2000/svg">
<path d="M29.8889 44.8787H29.4006C29.4006 39.4692 24.8615 35.0908 19.2737 35.0908C13.6858 35.0908 9.14675 39.4779 9.14675 44.8787H8.65848C4.42688 44.8787 1 48.1909 1 52.2809C1 56.3708 4.42688 59.683 8.65848 59.683H29.8889C34.1205 59.683 37.5473 56.3708 37.5473 52.2809C37.5473 48.1909 34.1205 44.8787 29.8889 44.8787Z" fill="white" stroke="black" stroke-width="0.5" stroke-linecap="round" stroke-linejoin="round"/>
<path d="M1029.05 34.616L1029.11 34.6597C1029.35 28.1839 1035.03 23.054 1041.86 23.4036C1048.08 23.7182 1053.09 28.6646 1053.3 34.6859C1053.35 35.9182 1053.19 37.1154 1052.86 38.234C1053.94 37.9194 1055.09 37.7534 1056.28 37.7534C1056.55 37.7534 1056.81 37.7534 1057.06 37.7796C1064.05 38.2078 1063.64 48.3366 1056.63 48.3366H1024.41C1018.35 48.3366 1014.78 41.7822 1018.2 36.9494L1018.53 36.4775C1020.89 33.1391 1025.64 32.2739 1029.05 34.616Z" fill="white" stroke="black" stroke-width="0.5" stroke-linecap="round" stroke-linejoin="round"/>
<path d="M951.846 48.7708L957.58 54.5021ZM913.239 10.1806L918.973 15.9118ZM918.973 48.7708L913.239 54.5021ZM957.58 10.1806L951.846 15.9118ZM958.652 32.3413H966.764ZM904.055 32.3413H912.167ZM935.409 55.574V63.6826ZM935.409 1V9.09801ZM952.908 32.3307C952.908 41.9889 945.072 49.8216 935.409 49.8216C925.747 49.8216 917.911 41.9889 917.911 32.3307C917.911 22.6725 925.747 14.8399 935.409 14.8399C945.072 14.8399 952.908 22.6725 952.908 32.3307V32.3307Z" fill="white"/>
<path d="M951.846 48.7708L957.58 54.5021M913.239 10.1806L918.973 15.9118M918.973 48.7708L913.239 54.5021M957.58 10.1806L951.846 15.9118M958.652 32.3413H966.764M904.055 32.3413H912.167M935.409 55.574V63.6826M935.409 1V9.09801M952.908 32.3307C952.908 41.9889 945.072 49.8216 935.409 49.8216C925.747 49.8216 917.911 41.9889 917.911 32.3307C917.911 22.6725 925.747 14.8399 935.409 14.8399C945.072 14.8399 952.908 22.6725 952.908 32.3307V32.3307Z" stroke="#1E1E1C" stroke-width="0.57" stroke-miterlimit="10" stroke-linecap="round"/>
</svg>
