<svg width="132" height="243" viewBox="0 0 132 243" fill="none" xmlns="http://www.w3.org/2000/svg">
<path d="M19.5001 0.701172H112.502C122.875 0.701172 131.301 9.12697 131.301 19.5001V223.043C131.301 233.416 122.875 241.842 112.502 241.842H19.5001C9.12697 241.842 0.701172 233.416 0.701172 223.043V19.5001C0.701172 9.12697 9.12697 0.701172 19.5001 0.701172Z" fill="white"/>
<path d="M112.514 1.40006C122.492 1.40006 130.613 9.52039 130.613 19.499V223.042C130.613 233.021 122.492 241.141 112.514 241.141H19.499C9.5204 241.141 1.40006 233.021 1.40006 223.042V19.499C1.40006 9.52039 9.5204 1.40006 19.499 1.40006H112.501M112.501 0H19.499C8.73127 0 0 8.73127 0 19.499V223.042C0 233.81 8.73127 242.541 19.499 242.541H112.501C123.269 242.541 132 233.81 132 223.042V19.499C132 8.73127 123.269 0 112.501 0Z" fill="black"/>
<path d="M44.5469 14.4844H87.465" stroke="black" stroke-width="1.1" stroke-miterlimit="10"/>
<path d="M115.201 26.9961H16.8027V210.187H115.201V26.9961Z" fill="white"/>
<path d="M114.5 27.695V209.473H17.5143V27.695H114.513M115.913 26.2949H16.1016V210.886H115.913V26.2949Z" fill="black"/>
<path d="M59.8081 124.831C57.8989 124.831 56.1807 124.411 54.6534 123.559C53.126 122.706 51.9169 121.535 51.0132 120.046C50.1095 118.557 49.6641 116.889 49.6641 115.031C49.6641 113.173 50.1095 111.455 51.0132 109.978C51.9169 108.489 53.1388 107.318 54.6788 106.453C56.2189 105.587 57.9499 105.154 59.8845 105.154C61.3355 105.154 62.6591 105.409 63.8683 105.931C65.0774 106.453 66.1466 107.203 67.0884 108.222L63.4228 111.938C62.9901 111.416 62.481 111.047 61.8827 110.818C61.2845 110.589 60.6227 110.475 59.8845 110.475C59.019 110.475 58.2681 110.665 57.6189 111.035C56.9698 111.404 56.4607 111.938 56.0789 112.626C55.697 113.313 55.5061 114.102 55.5061 115.006C55.5061 115.909 55.697 116.673 56.0789 117.373C56.4607 118.073 56.9826 118.608 57.6444 118.977C58.3062 119.346 59.0572 119.537 59.8972 119.537C60.6863 119.537 61.3736 119.409 61.9718 119.155C62.57 118.9 63.0792 118.493 63.5119 117.958L67.1775 121.713C66.2102 122.744 65.1283 123.533 63.9192 124.055C62.7101 124.59 61.3482 124.844 59.8208 124.844" fill="#10A96C"/>
<path d="M80.7203 105.575V107.179C80.224 106.708 79.6639 106.301 79.0021 105.97C77.9839 105.448 76.8511 105.193 75.6038 105.193C73.8982 105.193 72.3709 105.626 71.0218 106.492C69.6726 107.357 68.6162 108.528 67.8525 110.004C67.0889 111.481 66.707 113.161 66.707 115.045C66.707 116.928 67.0889 118.57 67.8525 120.047C68.6162 121.523 69.6599 122.681 70.9963 123.534C72.3327 124.387 73.8473 124.807 75.5529 124.807C76.8256 124.807 77.9711 124.565 78.9894 124.069C79.6512 123.75 80.224 123.356 80.7076 122.872V124.425H86.3206V105.601H80.7076L80.7203 105.575ZM79.8294 118.265C79.053 119.105 78.022 119.525 76.7238 119.525C75.9092 119.525 75.1837 119.334 74.5474 118.939C73.911 118.558 73.4146 118.023 73.0455 117.348C72.6764 116.674 72.4982 115.897 72.4982 115.019C72.4982 114.141 72.6764 113.326 73.0455 112.639C73.4146 111.952 73.911 111.417 74.5474 111.035C75.1837 110.654 75.922 110.45 76.762 110.45C77.602 110.45 78.3402 110.641 78.9766 111.035C79.613 111.417 80.1094 111.952 80.4658 112.626C80.8222 113.301 81.0004 114.09 81.0004 114.994C81.0004 116.343 80.6185 117.425 79.8421 118.265H79.8294Z" fill="#00A6BF"/>
<path d="M100.146 105.231C99.7896 105.154 99.3951 105.129 98.9751 105.129C97.995 105.129 97.0659 105.371 96.2131 105.842C95.3476 106.313 94.5967 106.962 93.9476 107.764C93.7821 107.967 93.6294 108.196 93.4894 108.413L93.3748 105.574H88.0801V124.412H93.693V114.942C93.693 114.369 93.7821 113.86 93.9603 113.415C94.1385 112.969 94.3803 112.575 94.6731 112.244C94.9785 111.913 95.3476 111.658 95.7931 111.48C96.2386 111.302 96.7095 111.213 97.2313 111.213C97.7023 111.213 98.1478 111.264 98.5805 111.378C99.0133 111.48 99.3569 111.62 99.6115 111.786L101.152 105.485C100.846 105.396 100.515 105.307 100.159 105.231H100.146Z" fill="#8280B8"/>
<path d="M42.9195 105.549V116.24C42.9195 118.035 41.4812 119.498 39.7121 119.498C37.9429 119.498 36.5047 118.048 36.5047 116.24V105.549H30.8535V115.82C30.8535 120.771 34.8246 124.806 39.6993 124.806C44.5741 124.806 48.5452 120.771 48.5452 115.82V105.549H42.894H42.9195Z" fill="#EF664E"/>
<path d="M66.0062 233.325C70.1044 233.325 73.4265 230.003 73.4265 225.905C73.4265 221.807 70.1044 218.484 66.0062 218.484C61.9081 218.484 58.5859 221.807 58.5859 225.905C58.5859 230.003 61.9081 233.325 66.0062 233.325Z" fill="black"/>
</svg>
