<svg width="550" height="816" viewBox="0 0 550 816" fill="none" xmlns="http://www.w3.org/2000/svg">
<g clip-path="url(#clip0_546_4315)">
<path fill-rule="evenodd" clip-rule="evenodd" d="M459.002 715.309V697.849C451.264 697.074 445.292 697.962 445.292 683.169C445.292 667.08 452.36 639.678 461.085 639.678C469.811 639.678 476.874 667.08 476.874 683.169C476.874 697.962 470.903 697.074 463.165 697.849V715.309H458.998H459.002Z" fill="#2BA6C2" stroke="#090203" stroke-width="2.08349" stroke-miterlimit="10"/>
<path fill-rule="evenodd" clip-rule="evenodd" d="M161.096 178.626C161.096 162.575 154.041 135.244 145.344 135.244C136.648 135.244 129.593 162.575 129.593 178.626C129.593 193.377 135.552 192.494 143.269 193.269V219.992H147.42V193.269C155.137 192.494 161.096 193.377 161.096 178.626Z" stroke="#090203" stroke-width="2.08349" stroke-miterlimit="10"/>
<path fill-rule="evenodd" clip-rule="evenodd" d="M271.116 368.282C271.116 383.034 265.158 382.15 257.44 382.925V403.181L253.29 404.714V382.925C245.569 382.15 239.61 383.034 239.61 368.282C239.61 352.231 246.665 324.9 255.365 324.9C264.066 324.9 271.116 352.231 271.116 368.282Z" stroke="#090203" stroke-width="2.08349" stroke-miterlimit="10"/>
<path d="M447.634 233.322V198.107C455.356 197.336 461.31 198.219 461.31 183.464C461.31 167.413 454.26 140.082 445.559 140.082C436.858 140.082 429.804 167.413 429.804 183.464C429.804 198.219 435.763 197.336 443.484 198.107V231.614" stroke="#090203" stroke-width="2.08349" stroke-miterlimit="10"/>
<path fill-rule="evenodd" clip-rule="evenodd" d="M123.759 190.452C123.759 179.264 118.842 160.917 112.779 160.917C106.716 160.917 101.799 179.264 101.799 190.452C101.799 200.736 105.954 200.824 111.333 201.361V219.988H114.229V201.361C119.609 200.824 123.764 200.736 123.764 190.452H123.759Z" stroke="#090203" stroke-width="2.08349" stroke-miterlimit="10"/>
<path d="M412.919 222.813V201.361C418.299 200.824 422.453 200.736 422.453 190.452C422.453 179.264 417.536 160.917 411.473 160.917C405.41 160.917 400.493 179.264 400.493 190.452C400.493 200.736 404.643 200.824 410.023 201.361V222.305" stroke="#090203" stroke-width="2.08349" stroke-miterlimit="10"/>
<path d="M64.0381 254.549H83.2479" stroke="#090203" stroke-width="2.08349" stroke-miterlimit="10"/>
<path d="M122.284 254.549H382.171C454.68 254.549 513.756 313.541 513.852 386.05C513.877 403.718 510.376 420.92 503.447 437.171C496.809 452.739 487.329 466.757 475.269 478.832C463.081 491.038 448.884 500.638 433.075 507.368C416.644 514.36 399.268 517.906 381.421 517.906H264.366L162.525 519.469C146.319 519.719 130.568 522.932 115.7 529.024C100.799 535.133 87.4606 543.858 76.0556 554.967C75.6264 555.384 75.2097 555.797 74.793 556.213C50.0827 580.919 36.4775 613.768 36.4775 648.708C36.4775 683.648 49.9786 716.242 74.4971 740.911C86.7314 753.216 101.145 762.833 117.346 769.496C133.514 776.143 150.636 779.514 168.238 779.514H488.687" stroke="#090203" stroke-width="2.08349" stroke-miterlimit="10"/>
<path d="M508.201 779.522H527.415" stroke="#090203" stroke-width="2.08349" stroke-miterlimit="10"/>
<path d="M527.416 814.958H168.238C123.689 814.958 80.7731 797.499 49.3665 765.9C18.1975 734.544 1.04199 692.949 1.04199 648.716C1.04199 604.484 18.335 562.564 49.7332 531.166C50.2624 530.636 50.7958 530.111 51.3292 529.591C80.9314 500.755 120.659 484.675 161.979 484.041L264.091 482.474H381.421C434.429 482.474 478.491 439.104 478.42 386.1C478.349 333.092 435.2 289.985 382.175 289.985H64.0385" stroke="#090203" stroke-width="2.08349" stroke-miterlimit="10"/>
<path d="M22.0391 219.992H382.171C426.574 219.992 468.323 237.281 499.721 268.679C501.326 270.283 502.893 271.917 504.422 273.575L504.43 273.583L511.727 282.03C535.499 311.47 548.413 347.86 548.413 386.23C548.413 430.637 531.12 472.382 499.721 503.78C468.323 535.183 426.574 552.472 382.171 552.472H167.279C114.213 552.472 71.0386 595.65 71.0386 648.716C71.0386 701.783 114.213 744.961 167.279 744.961H327.687" stroke="#090203" stroke-width="2.08349" stroke-miterlimit="10"/>
<path d="M229.318 582.715L236.206 589.603L246.307 579.503" stroke="#090203" stroke-width="2.08349" stroke-miterlimit="10"/>
<path d="M100.591 317.478L108.012 324.896L118.896 314.016" stroke="#090203" stroke-width="2.08349" stroke-miterlimit="10" stroke-linecap="round"/>
<path d="M141.407 336.876L148.828 344.297L159.712 333.413" stroke="#090203" stroke-width="2.08349" stroke-miterlimit="10" stroke-linecap="round"/>
<path d="M443.009 76.6476L450.43 84.0648L461.31 73.1848" stroke="#090203" stroke-width="2.08349" stroke-miterlimit="10" stroke-linecap="round"/>
<path d="M150.261 648.095V625.681L104.762 604.196L75.564 617.985" stroke="#090203" stroke-width="2.08349" stroke-miterlimit="10"/>
<path d="M171.301 128.401H158.6L152.274 115.405H111.925L101.387 140.723H75.0392V131.739L74.7725 131.335C68.8137 122.234 55.4043 122.451 49.7456 131.739V158.158H35.1069V219.988" stroke="#090203" stroke-width="2.08349" stroke-miterlimit="10"/>
<path d="M343.438 110.413V92.1529C343.438 87.9818 345.359 84.0481 348.651 81.4854C353.539 77.6768 360.39 77.6768 365.278 81.4854C368.565 84.0481 370.491 87.9859 370.491 92.1529V126.647H395.134L405.672 114.705H446.721L464.639 139.998H482.907V253.957" stroke="#090203" stroke-width="2.08349" stroke-miterlimit="10"/>
<path d="M104.408 173.438L94.8284 163.858H64.4719L50.1416 178.189V219.988" stroke="#090203" stroke-width="2.08349" stroke-miterlimit="10"/>
<path d="M235.76 43.3617V67.8552H188.581L171.196 93.578V219.988V219.992H360.798V115.734L314.907 101.666V67.8552H298.569V43.3617H235.76Z" stroke="#090203" stroke-width="2.08349" stroke-miterlimit="10"/>
<path d="M29.0562 556.272L47.4492 514.698C79.0475 443.284 156.67 404.114 232.888 421.124L435.466 466.336" stroke="#090203" stroke-width="2.08349" stroke-miterlimit="10"/>
<path d="M216.466 418.32L273.858 397.118C314.27 382.188 357.986 378.546 400.31 386.58L477.253 401.185" stroke="#090203" stroke-width="2.08349" stroke-miterlimit="10"/>
<path d="M189.156 417.374C144.49 419.565 102.558 440.05 73.3679 473.774C70.101 472.924 67.2591 470.607 65.8632 467.244C63.5838 461.735 66.0424 455.452 71.3594 452.906C65.4798 452.576 60.8003 447.751 60.8003 441.788C60.8003 435.825 65.4798 431 71.3594 430.675C66.0424 428.124 63.5838 421.845 65.8632 416.332C68.1467 410.819 74.3305 408.119 79.8893 410.077C75.964 405.689 76.0681 398.968 80.2851 394.751C84.5021 390.538 91.2235 390.434 95.6113 394.359C93.6528 388.796 96.353 382.617 101.866 380.333C107.379 378.05 113.659 380.512 116.209 385.825C116.534 379.946 121.363 375.266 127.322 375.266C133.281 375.266 138.11 379.946 138.44 385.825C140.986 380.512 147.265 378.05 152.778 380.333C158.291 382.617 160.991 388.796 159.033 394.359C163.425 390.434 170.146 390.538 174.359 394.751C178.576 398.968 178.68 405.689 174.755 410.077C180.314 408.119 186.497 410.819 188.781 416.332C188.923 416.678 189.048 417.024 189.156 417.374Z" stroke="#090203" stroke-width="2.08349" stroke-linecap="round" stroke-linejoin="round"/>
<path d="M281.867 394.322V356.352L307.211 334.138L332.554 356.352V383.588" stroke="#090203" stroke-width="2.08349" stroke-linecap="round" stroke-linejoin="round"/>
<path d="M421.366 356.352H332.555L307.211 334.138H396.022L421.366 356.352ZM421.366 356.352V390.576" stroke="#090203" stroke-width="2.08349" stroke-linecap="round" stroke-linejoin="round"/>
<path fill-rule="evenodd" clip-rule="evenodd" d="M429.77 392.172V375.62C436.312 374.966 441.363 375.712 441.363 363.211C441.363 349.606 435.387 326.446 428.012 326.446C420.636 326.446 414.661 349.61 414.661 363.211C414.661 375.712 419.711 374.966 426.253 375.62V391.505L429.77 392.172Z" fill="#2BA6C2" stroke="#090203" stroke-width="2.08349" stroke-miterlimit="10"/>
<path fill-rule="evenodd" clip-rule="evenodd" d="M511.727 245.119V282.03C509.402 279.146 506.968 276.33 504.43 273.583L504.422 273.575V245.119C473.02 242.219 459.627 212.287 472.257 202.082C474.928 199.924 475.841 196.286 474.416 193.165C472.174 188.252 472.915 181.851 476.649 178.48C478.991 176.359 479.899 173.076 478.783 170.117C476.737 164.675 477.307 157.787 482.466 155.508C485.508 154.162 487.271 150.895 486.829 147.599C486.025 141.54 488.942 137.49 492.446 135.819C495.234 134.489 496.971 131.668 496.834 128.585C496.509 121.522 499.93 115.013 507.818 114.688C507.906 114.675 507.989 114.68 508.076 114.68C508.164 114.68 508.243 114.675 508.331 114.675C516.219 115.013 519.64 121.522 519.319 128.585C519.177 131.668 520.919 134.489 523.703 135.819C527.211 137.49 530.128 141.54 529.32 147.599C528.882 150.895 530.641 154.162 533.687 155.508C538.846 157.787 539.416 164.675 537.366 170.117C536.254 173.076 537.158 176.359 539.504 178.48C543.233 181.851 543.979 188.252 541.737 193.165C540.308 196.286 541.221 199.924 543.892 202.082C556.526 212.287 543.129 242.219 511.727 245.119Z" stroke="#090203" stroke-width="2.08349" stroke-miterlimit="10"/>
<path d="M175.48 641.862V625.702C183.201 624.931 189.156 625.815 189.156 611.059C189.156 595.008 182.105 567.677 173.405 567.677C164.704 567.677 157.649 595.008 157.649 611.059C157.649 625.815 163.608 624.931 171.33 625.702V642.353" stroke="#090203" stroke-width="2.08349" stroke-miterlimit="10"/>
<path d="M72.5386 665.701L165.929 643.566C189.923 637.882 215.2 642.703 235.409 656.821L284.717 691.261" stroke="#090203" stroke-width="2.08349" stroke-miterlimit="10"/>
<path fill-rule="evenodd" clip-rule="evenodd" d="M402.526 680.01C397.38 679.323 392.317 678.014 387.454 676.098L362.436 666.243C356.052 663.726 349.472 662.301 342.926 661.884C342.105 656.863 343.347 652.283 346.872 649.433C349.247 647.516 350.06 644.283 348.793 641.512C346.801 637.145 347.46 631.457 350.777 628.461C352.856 626.577 353.664 623.656 352.672 621.027C350.856 616.193 351.36 610.072 355.948 608.047C358.648 606.851 360.215 603.946 359.823 601.017C359.106 595.633 361.702 592.033 364.815 590.549C367.29 589.366 368.836 586.862 368.715 584.12C368.424 577.844 371.466 572.06 378.474 571.769C378.554 571.76 378.629 571.765 378.704 571.765C378.779 571.765 378.854 571.76 378.929 571.76C385.942 572.06 388.979 577.844 388.696 584.12C388.571 586.862 390.117 589.366 392.592 590.549C395.709 592.033 398.301 595.633 397.584 601.017C397.193 603.946 398.755 606.851 401.464 608.047C406.047 610.072 406.556 616.193 404.735 621.027C403.743 623.656 404.547 626.577 406.635 628.461C409.948 631.457 410.61 637.145 408.618 641.512C407.348 644.283 408.16 647.516 410.531 649.433C418.398 655.788 414.911 670.743 402.526 680.01Z" fill="#2BA6C2" stroke="#090203" stroke-width="2.08349" stroke-miterlimit="10"/>
<path d="M253.032 744.961L283.351 693.478C299.427 666.18 332.967 654.629 362.44 666.239L387.459 676.093C396.768 679.76 406.802 681.206 416.769 680.319C440.738 678.185 463.894 689.59 476.811 709.892L499.121 744.957H253.032V744.961Z" fill="#2BA6C2" stroke="#090203" stroke-width="2.08349" stroke-miterlimit="10"/>
<path d="M175.697 78.9936H174.922C174.922 70.0679 167.684 62.8298 158.758 62.8298C149.832 62.8298 142.594 70.0679 142.594 78.9936H141.819C135.069 78.9936 129.593 84.469 129.593 91.2195C129.593 97.97 135.069 103.445 141.819 103.445H175.701C182.451 103.445 187.927 97.97 187.927 91.2195C187.927 84.469 182.451 78.9936 175.701 78.9936H175.697Z" fill="white" stroke="#090203" stroke-width="2.08349" stroke-miterlimit="10"/>
<path d="M393.484 28.8564H392.709C392.709 19.9307 385.471 12.6926 376.545 12.6926C367.619 12.6926 360.381 19.9307 360.381 28.8564H359.606C352.856 28.8564 347.38 34.3318 347.38 41.0823C347.38 47.8328 352.856 53.3082 359.606 53.3082H393.488C400.239 53.3082 405.714 47.8328 405.714 41.0823C405.714 34.3318 400.239 28.8564 393.488 28.8564H393.484Z" fill="white" stroke="#090203" stroke-width="2.08349" stroke-miterlimit="10"/>
<path d="M438.309 600.871H437.534C437.534 591.945 430.296 584.707 421.37 584.707C412.444 584.707 405.206 591.945 405.206 600.871H404.431C397.681 600.871 392.205 606.346 392.205 613.097C392.205 619.847 397.681 625.323 404.431 625.323H438.313C445.063 625.323 450.539 619.847 450.539 613.097C450.539 606.346 445.063 600.871 438.313 600.871H438.309Z" fill="white" stroke="#090203" stroke-width="2.08349" stroke-miterlimit="10"/>
<path d="M237.731 332.521H236.956C236.956 323.596 229.718 316.358 220.792 316.358C211.866 316.358 204.628 323.596 204.628 332.521H203.853C197.103 332.521 191.627 337.997 191.627 344.747C191.627 351.498 197.103 356.973 203.853 356.973H237.735C244.486 356.973 249.961 351.498 249.961 344.747C249.961 337.997 244.486 332.521 237.735 332.521H237.731Z" fill="white" stroke="#090203" stroke-width="2.08349" stroke-miterlimit="10"/>
<path d="M331.838 662.113C331.938 660.801 331.992 659.471 331.992 658.13C331.992 630.011 309.195 607.213 281.076 607.213C254.715 607.213 233.03 627.248 230.422 652.921" stroke="#090203" stroke-width="2.08349" stroke-linecap="round" stroke-linejoin="round"/>
<path d="M398.264 752.966V754.208H171.726L186.66 721.247L194.352 704.271C199.028 693.949 207.566 686.178 217.812 682.361C222.021 680.786 226.517 679.877 231.147 679.74C231.255 679.735 231.363 679.735 231.472 679.735C231.797 679.727 232.114 679.719 232.439 679.719H316.703C332.43 679.719 346.977 688.032 354.96 701.583L366.549 721.251C366.757 721.251 366.974 721.251 367.186 721.259C367.645 721.264 368.095 721.284 368.545 721.309C376.504 721.805 383.679 725.239 388.976 730.535C391.617 733.177 393.801 736.29 395.38 739.732C396.38 741.907 397.139 744.211 397.626 746.624C398.047 748.67 398.264 750.791 398.264 752.962V752.966Z" fill="white" stroke="#090203" stroke-width="2.27101" stroke-linecap="round" stroke-linejoin="round"/>
<path d="M171.726 754.212H399.214C402.047 754.212 404.348 756.512 404.348 759.346V771.942H171.726V754.212Z" fill="#090203" stroke="#090203" stroke-width="2.27101" stroke-linecap="round" stroke-linejoin="round"/>
<path d="M358.849 788.169C368.919 788.169 377.083 780.005 377.083 769.934C377.083 759.863 368.919 751.699 358.849 751.699C348.778 751.699 340.614 759.863 340.614 769.934C340.614 780.005 348.778 788.169 358.849 788.169Z" fill="white" stroke="#090203" stroke-width="2.08349" stroke-miterlimit="10"/>
<path d="M358.848 781.081C365.004 781.081 369.995 776.09 369.995 769.934C369.995 763.778 365.004 758.787 358.848 758.787C352.692 758.787 347.702 763.778 347.702 769.934C347.702 776.09 352.692 781.081 358.848 781.081Z" fill="white" stroke="#090203" stroke-width="2.08349" stroke-miterlimit="10"/>
<path d="M209.07 788.169C219.141 788.169 227.305 780.005 227.305 769.934C227.305 759.863 219.141 751.699 209.07 751.699C198.999 751.699 190.835 759.863 190.835 769.934C190.835 780.005 198.999 788.169 209.07 788.169Z" fill="white" stroke="#090203" stroke-width="2.08349" stroke-miterlimit="10"/>
<path d="M209.071 781.081C215.227 781.081 220.217 776.09 220.217 769.934C220.217 763.778 215.227 758.787 209.071 758.787C202.914 758.787 197.924 763.778 197.924 769.934C197.924 776.09 202.914 781.081 209.071 781.081Z" fill="white" stroke="#090203" stroke-width="2.08349" stroke-miterlimit="10"/>
<path d="M366.545 721.251C366.545 732.377 375.566 741.398 386.692 741.398H396.085" stroke="#090203" stroke-width="2.08349" stroke-miterlimit="10"/>
<path d="M217.813 682.365V721.251H186.66L194.352 704.275C199.028 693.953 207.566 686.182 217.813 682.365Z" fill="white" stroke="#090203" stroke-width="2.08349" stroke-miterlimit="10"/>
<path d="M292.589 679.719V721.247H231.472V679.731C231.797 679.723 232.114 679.715 232.439 679.715H292.594L292.589 679.719Z" fill="white" stroke="#090203" stroke-width="2.08349" stroke-miterlimit="10"/>
<path d="M366.545 721.251H306.361V679.723H316.703C332.43 679.723 346.976 688.036 354.96 701.587L366.549 721.255L366.545 721.251Z" fill="white" stroke="#090203" stroke-width="2.08349" stroke-miterlimit="10"/>
<path d="M353.886 705.962H350.844V721.251H353.886V705.962Z" fill="#090203"/>
<path d="M335.905 699.245H333.321C333.321 699.245 335.671 708.238 326.921 709.729C318.17 711.221 315.241 704.571 315.241 704.571V694.132L331.192 688.54L332.017 693.199L335.905 699.241V699.245Z" fill="white" stroke="#090203" stroke-width="1.66679" stroke-linejoin="round"/>
<path d="M330.092 697.228C330.552 697.228 330.926 696.855 330.926 696.395C330.926 695.935 330.552 695.562 330.092 695.562C329.632 695.562 329.259 695.935 329.259 696.395C329.259 696.855 329.632 697.228 330.092 697.228Z" fill="#090203"/>
<path d="M306.361 710.1C306.361 710.1 317.57 702.937 328.279 709.463C338.989 715.988 345.843 713.796 345.843 713.796V721.109C345.843 721.109 331.155 722.38 326.1 717.33V721.251H306.357V710.1H306.361Z" fill="white" stroke="#090203" stroke-width="2.08349" stroke-linecap="round" stroke-linejoin="round"/>
<path d="M332.38 687.169C332.38 683.607 327.775 683.24 326.167 683.611C325.888 683.673 326.446 683.552 326.167 683.611C324.283 683.99 321.821 689.182 317.85 689.182C313.678 689.182 309.937 690.478 309.937 695.224C309.937 698.749 311.449 702.754 312.224 705.875C311.758 706.504 311.474 707.279 311.474 708.121C311.474 708.963 311.745 709.709 312.195 710.329C310.903 710.609 309.937 711.755 309.937 713.13C309.937 714.713 311.22 715.992 312.799 715.992C314.379 715.992 315.662 714.709 315.662 713.13C315.662 712.68 315.558 712.259 315.374 711.884C317.391 711.813 319.004 710.159 319.004 708.125C319.004 707.446 318.821 706.808 318.504 706.258C319.041 705.758 319.496 705.312 319.796 705.012C321.337 703.471 328.096 701.129 326.567 694.653C326.567 694.653 332.376 691.486 332.376 687.173L332.38 687.169Z" fill="#090203"/>
<path d="M315.241 718.243C316.484 718.243 317.492 717.235 317.492 715.992C317.492 714.75 316.484 713.742 315.241 713.742C313.999 713.742 312.991 714.75 312.991 715.992C312.991 717.235 313.999 718.243 315.241 718.243Z" fill="#090203"/>
<path d="M345.843 713.792C345.843 713.792 350.081 710.263 350.081 712.15C350.081 714.038 349.269 715.78 349.269 715.78C349.269 715.78 353.869 714.321 354.344 715.78C354.819 717.238 353.869 721.105 345.843 721.105V713.792Z" fill="white" stroke="#090203" stroke-width="2.08349" stroke-linecap="round" stroke-linejoin="round"/>
<path d="M330.092 701.433C330.092 701.433 331.605 703.021 333.605 702.129L330.092 701.433Z" fill="white"/>
<path d="M330.092 701.433C330.092 701.433 331.605 703.021 333.605 702.129" stroke="#090203" stroke-width="1.66679" stroke-linecap="round" stroke-linejoin="round"/>
<path d="M248.139 715.992C248.139 715.992 260.586 710.067 267.753 715.992C274.921 721.918 276.742 721.247 276.742 721.247H248.702L248.135 715.992H248.139Z" stroke="#090203" stroke-width="1.66679" stroke-linecap="round" stroke-linejoin="round"/>
<path d="M270.67 703.958C270.67 710.242 264.99 715.338 257.99 715.338C253.056 715.338 248.777 712.805 246.685 709.104C245.81 707.554 245.314 705.808 245.314 703.958C245.314 703.383 245.36 702.825 245.451 702.275C245.468 702.166 245.489 702.058 245.514 701.954C246.568 696.62 251.76 692.574 257.99 692.574C263.89 692.574 268.853 696.195 270.266 701.095C270.524 702.012 270.67 702.971 270.67 703.962V703.958Z" fill="white" stroke="#090203" stroke-width="2.08349" stroke-linecap="round" stroke-linejoin="round"/>
<path d="M255.557 703.971C256.017 703.971 256.39 703.598 256.39 703.137C256.39 702.677 256.017 702.304 255.557 702.304C255.096 702.304 254.723 702.677 254.723 703.137C254.723 703.598 255.096 703.971 255.557 703.971Z" fill="#090203"/>
<path d="M264.174 703.879C264.591 703.879 264.928 703.541 264.928 703.125C264.928 702.708 264.591 702.371 264.174 702.371C263.758 702.371 263.42 702.708 263.42 703.125C263.42 703.541 263.758 703.879 264.174 703.879Z" fill="#090203"/>
<path d="M251.777 708.759C251.777 708.759 258.882 714.838 265.603 708.117" stroke="#090203" stroke-width="2.08349" stroke-linecap="round" stroke-linejoin="round"/>
<path d="M246.685 709.104C246.298 709.242 245.885 709.317 245.452 709.317C243.418 709.317 241.768 707.671 241.768 705.633C241.768 703.596 243.414 701.946 245.452 701.946H245.514C245.489 702.058 245.468 702.166 245.452 702.271C245.36 702.821 245.314 703.379 245.314 703.954C245.314 705.808 245.81 707.554 246.685 709.1V709.104Z" fill="white" stroke="#090203" stroke-width="2.08349" stroke-linecap="round" stroke-linejoin="round"/>
<path d="M245.51 701.95C245.485 702.058 245.464 702.166 245.448 702.271C245.356 702.821 245.31 703.379 245.31 703.954C245.31 705.808 245.806 707.554 246.681 709.1" fill="white"/>
<path d="M245.51 701.95C245.485 702.058 245.464 702.166 245.448 702.271C245.356 702.821 245.31 703.379 245.31 703.954C245.31 705.808 245.806 707.554 246.681 709.1" stroke="#090203" stroke-width="2.08349" stroke-linecap="round" stroke-linejoin="round"/>
<path d="M245.998 700.262C245.998 700.262 256.594 700.208 261.39 692.986C261.39 692.986 262.899 699.458 265.895 699.458C268.891 699.458 269.908 700.066 269.908 700.066C270.024 700.054 270.141 700.05 270.262 700.05C272.191 700.05 273.75 701.608 273.75 703.537C273.75 705.467 272.191 707.025 270.262 707.025H270.195" stroke="#090203" stroke-width="1.66679" stroke-linecap="round" stroke-linejoin="round"/>
<path d="M254.036 705.958C255.769 705.958 257.173 704.706 257.173 703.162C257.173 701.618 255.769 700.366 254.036 700.366C252.303 700.366 250.898 701.618 250.898 703.162C250.898 704.706 252.303 705.958 254.036 705.958Z" stroke="#090203" stroke-width="1.66679" stroke-linecap="round" stroke-linejoin="round"/>
<path d="M262.482 705.958C264.215 705.958 265.62 704.706 265.62 703.162C265.62 701.618 264.215 700.366 262.482 700.366C260.749 700.366 259.344 701.618 259.344 703.162C259.344 704.706 260.749 705.958 262.482 705.958Z" stroke="#090203" stroke-width="1.66679" stroke-linecap="round" stroke-linejoin="round"/>
<path d="M257.761 704.267C257.761 704.267 260.616 703.921 260.903 705.612C261.245 707.621 258.224 707.7 258.224 707.7" fill="white"/>
<path d="M257.761 704.267C257.761 704.267 260.616 703.921 260.903 705.612C261.245 707.621 258.224 707.7 258.224 707.7" stroke="#090203" stroke-width="1.66679" stroke-linecap="round" stroke-linejoin="round"/>
<path d="M234.622 721.251C234.622 721.251 240.202 712.305 245.898 712.617C251.594 712.93 256.499 721.251 256.499 721.251H234.622Z" fill="white" stroke="#090203" stroke-width="1.66679" stroke-linecap="round" stroke-linejoin="round"/>
<path d="M284.809 435.4V520.927H150.562V488.971C150.562 481.283 155.662 474.524 163.054 472.411L166.5 471.428L189.823 464.765C198.253 462.356 205.978 457.948 212.337 451.914L223.455 441.367C227.492 437.538 232.843 435.4 238.41 435.4H284.813H284.809Z" fill="white" stroke="#090203" stroke-width="2.08349" stroke-linecap="round" stroke-linejoin="round"/>
<path d="M150.562 491.308C160.837 491.308 169.167 482.979 169.167 472.703V470.665" fill="white"/>
<path d="M150.562 491.308C160.837 491.308 169.167 482.979 169.167 472.703V470.665" stroke="#090203" stroke-width="2.08349" stroke-linecap="round" stroke-linejoin="round"/>
<path d="M340.263 435.4H284.809V520.927H340.263V435.4Z" fill="white" stroke="#090203" stroke-width="2.08349" stroke-linecap="round" stroke-linejoin="round"/>
<path d="M395.714 444.417V511.914C395.714 516.894 391.676 520.932 386.696 520.932H340.259V435.404H386.696C391.676 435.404 395.714 439.442 395.714 444.422V444.417Z" fill="white" stroke="#090203" stroke-width="2.08349" stroke-linecap="round" stroke-linejoin="round"/>
<path d="M395.714 474.561H315.183C304.011 474.561 293.218 470.507 284.805 463.156" stroke="#090203" stroke-width="2.08349" stroke-linecap="round" stroke-linejoin="round"/>
<path d="M395.714 508.776V511.914C395.714 516.894 391.676 520.932 386.696 520.932H150.562V508.781H395.714V508.776Z" fill="#9D9FA0" stroke="#090203" stroke-width="2.08349" stroke-linecap="round" stroke-linejoin="round"/>
<path d="M199.078 539.533C209.353 539.533 217.683 531.203 217.683 520.927C217.683 510.652 209.353 502.322 199.078 502.322C188.802 502.322 180.472 510.652 180.472 520.927C180.472 531.203 188.802 539.533 199.078 539.533Z" fill="white" stroke="#090203" stroke-width="2.08349" stroke-linecap="round" stroke-linejoin="round"/>
<path d="M199.078 530.599C204.419 530.599 208.749 526.269 208.749 520.927C208.749 515.586 204.419 511.256 199.078 511.256C193.736 511.256 189.406 515.586 189.406 520.927C189.406 526.269 193.736 530.599 199.078 530.599Z" fill="white" stroke="#090203" stroke-width="2.08349" stroke-linecap="round" stroke-linejoin="round"/>
<path d="M364.803 539.533C375.078 539.533 383.408 531.203 383.408 520.927C383.408 510.652 375.078 502.322 364.803 502.322C354.527 502.322 346.197 510.652 346.197 520.927C346.197 531.203 354.527 539.533 364.803 539.533Z" fill="white" stroke="#090203" stroke-width="2.08349" stroke-linecap="round" stroke-linejoin="round"/>
<path d="M364.802 530.599C370.144 530.599 374.474 526.269 374.474 520.927C374.474 515.586 370.144 511.256 364.802 511.256C359.461 511.256 355.131 515.586 355.131 520.927C355.131 526.269 359.461 530.599 364.802 530.599Z" fill="white" stroke="#090203" stroke-width="2.08349" stroke-linecap="round" stroke-linejoin="round"/>
<path d="M204.095 458.343C204.095 467.298 211.354 474.561 220.313 474.561H258.87C267.825 474.561 275.088 467.302 275.088 458.343V435.4" stroke="#090203" stroke-width="2.08349" stroke-linecap="round" stroke-linejoin="round"/>
<path d="M322.549 475.266C324.145 474.195 326.008 473.157 327.242 473.157L327.479 479.291L323.145 478.366C321.662 478.049 321.291 476.107 322.549 475.266Z" fill="white" stroke="#090203" stroke-width="2.08349" stroke-linecap="round" stroke-linejoin="round"/>
<path d="M239.631 454.36H237.068C236.101 454.36 235.451 453.364 235.851 452.485C236.514 451.039 239.952 448.48 241.877 447.801C245.198 446.626 243.285 438.425 252.678 438.425C262.07 438.425 262.845 462.081 257.845 463.756C254.682 464.819 247.89 465.206 243.331 465.352C240.906 465.427 238.952 463.385 239.131 460.964L239.623 454.364L239.631 454.36Z" fill="white" stroke="#090203" stroke-width="2.08349" stroke-linecap="round" stroke-linejoin="round"/>
<path d="M239.41 457.327C239.41 457.327 243.986 458.518 247.79 455.614L239.41 457.327Z" fill="white"/>
<path d="M239.41 457.327C239.41 457.327 243.986 458.518 247.79 455.614" stroke="#090203" stroke-width="2.08349" stroke-linecap="round" stroke-linejoin="round"/>
<path d="M247.789 448.526C248.413 448.526 248.919 448.02 248.919 447.397C248.919 446.773 248.413 446.268 247.789 446.268C247.166 446.268 246.66 446.773 246.66 447.397C246.66 448.02 247.166 448.526 247.789 448.526Z" fill="#090203"/>
<path d="M265.358 473.211C263.37 474.078 261.178 474.561 258.87 474.561H223.417V472.17C223.417 472.17 236.03 472.924 239.789 472.924C243.548 472.924 249.636 462.39 255.811 462.39C259.911 462.39 263.445 468.869 265.354 473.215L265.358 473.211Z" fill="#090203" stroke="#090203" stroke-width="2.08349" stroke-linecap="round" stroke-linejoin="round"/>
<path d="M223.417 472.169C223.417 472.169 217.683 468.473 211.837 472.169" stroke="#090203" stroke-width="2.08349" stroke-linecap="round" stroke-linejoin="round"/>
<path d="M314.157 474.07C314.528 465.432 323.404 465.498 323.404 465.498L341.659 467.257C341.659 467.257 353.502 463.306 354.802 470.34C356.102 477.374 327.517 480.149 327.517 480.149L327.246 473.157L343.001 471.553" fill="white"/>
<path d="M314.157 474.07C314.528 465.432 323.404 465.498 323.404 465.498L341.659 467.257C341.659 467.257 353.502 463.306 354.802 470.34C356.102 477.374 327.517 480.149 327.517 480.149L327.246 473.157L343.001 471.553" stroke="#090203" stroke-width="2.08349" stroke-linecap="round" stroke-linejoin="round"/>
<path d="M320.716 458.027C320.445 464.302 325.904 469.64 332.896 469.94C337.826 470.153 342.21 467.802 344.456 464.198C345.397 462.69 345.968 460.964 346.047 459.114C346.072 458.539 346.047 457.977 345.985 457.427C345.972 457.318 345.956 457.21 345.935 457.102C345.11 451.726 340.097 447.463 333.871 447.197C327.979 446.943 322.866 450.347 321.241 455.185C320.941 456.089 320.758 457.039 320.716 458.031V458.027Z" fill="white" stroke="#090203" stroke-width="2.08349" stroke-linecap="round" stroke-linejoin="round"/>
<path d="M336.939 458.718C337.5 458.718 337.955 458.263 337.955 457.702C337.955 457.14 337.5 456.685 336.939 456.685C336.377 456.685 335.922 457.14 335.922 457.702C335.922 458.263 336.377 458.718 336.939 458.718Z" fill="#090203"/>
<path d="M329.609 458.006C330.17 458.006 330.625 457.551 330.625 456.989C330.625 456.428 330.17 455.972 329.609 455.972C329.047 455.972 328.592 456.428 328.592 456.989C328.592 457.551 329.047 458.006 329.609 458.006Z" fill="#090203"/>
<path d="M339.384 463.636C339.384 463.636 332.026 469.407 325.6 462.402" stroke="#090203" stroke-width="2.08349" stroke-linecap="round" stroke-linejoin="round"/>
<path d="M333.601 456.61L332.655 459.264C332.655 459.264 329.817 458.798 329.459 460.477C329.034 462.469 332.046 462.681 332.046 462.681" stroke="#090203" stroke-width="1.66679" stroke-linecap="round" stroke-linejoin="round"/>
<path d="M344.456 464.198C344.839 464.352 345.247 464.444 345.681 464.461C347.714 464.548 349.431 462.973 349.518 460.939C349.606 458.906 348.031 457.185 345.997 457.097H345.935C345.956 457.206 345.972 457.314 345.985 457.423C346.052 457.977 346.072 458.539 346.047 459.11C345.968 460.96 345.397 462.685 344.456 464.194V464.198Z" fill="white" stroke="#090203" stroke-width="2.08349" stroke-linecap="round" stroke-linejoin="round"/>
<path d="M344.456 464.198C345.397 462.69 345.968 460.964 346.047 459.114C346.072 458.539 346.047 457.977 345.985 457.427C345.972 457.318 345.956 457.21 345.935 457.102" fill="white"/>
<path d="M344.456 464.198C345.397 462.69 345.968 460.964 346.047 459.114C346.072 458.539 346.047 457.977 345.985 457.427C345.972 457.318 345.956 457.21 345.935 457.102" stroke="#090203" stroke-width="2.08349" stroke-linecap="round" stroke-linejoin="round"/>
<path d="M321.642 454.172C321.525 454.156 321.408 454.147 321.287 454.139C319.362 454.056 317.737 455.547 317.654 457.473C317.57 459.394 319.062 461.023 320.987 461.106H321.054" stroke="#090203" stroke-width="1.66679" stroke-linecap="round" stroke-linejoin="round"/>
<path d="M315.982 473.916C315.982 465.269 309.015 465.111 309.015 465.111L290.701 466.082C290.701 466.082 279.038 461.627 277.438 468.598C275.838 475.57 309.674 479.458 309.674 479.458L310.245 472.482L289.18 470.315" fill="white"/>
<path d="M315.982 473.916C315.982 465.269 309.015 465.111 309.015 465.111L290.701 466.082C290.701 466.082 279.038 461.627 277.438 468.598C275.838 475.57 309.674 479.458 309.674 479.458L310.245 472.482L289.18 470.315" stroke="#090203" stroke-width="2.08349" stroke-linecap="round" stroke-linejoin="round"/>
<path d="M312.024 457.76C312.024 464.044 306.344 469.14 299.343 469.14C294.41 469.14 290.13 466.607 288.038 462.906C287.163 461.356 286.667 459.61 286.667 457.76C286.667 457.185 286.713 456.627 286.805 456.077C286.822 455.968 286.842 455.86 286.867 455.756C287.922 450.422 293.114 446.376 299.343 446.376C305.244 446.376 310.207 449.997 311.619 454.897C311.878 455.814 312.024 456.772 312.024 457.764V457.76Z" fill="white" stroke="#090203" stroke-width="2.08349" stroke-linecap="round" stroke-linejoin="round"/>
<path d="M311.616 454.893C310.674 455.097 309.691 455.202 308.678 455.202C304.536 455.202 300.857 451.755 298.544 449.001C296.319 452.268 292.306 456.106 287.73 456.106C287.418 456.106 287.11 456.097 286.801 456.072C287.706 450.58 292.981 446.372 299.34 446.372C305.24 446.372 310.199 449.993 311.616 454.893Z" stroke="#090203" stroke-width="2.08349" stroke-linecap="round" stroke-linejoin="round"/>
<path d="M295.827 457.756C296.388 457.756 296.844 457.301 296.844 456.739C296.844 456.178 296.388 455.722 295.827 455.722C295.265 455.722 294.81 456.178 294.81 456.739C294.81 457.301 295.265 457.756 295.827 457.756Z" fill="#090203"/>
<path d="M303.186 457.36C303.747 457.36 304.202 456.905 304.202 456.343C304.202 455.782 303.747 455.327 303.186 455.327C302.624 455.327 302.169 455.782 302.169 456.343C302.169 456.905 302.624 457.36 303.186 457.36Z" fill="#090203"/>
<path d="M293.131 462.565C293.131 462.565 300.236 468.644 306.957 461.923" stroke="#090203" stroke-width="2.08349" stroke-linecap="round" stroke-linejoin="round"/>
<path d="M299.21 455.793L300.04 458.485C300.04 458.485 302.894 458.139 303.182 459.831C303.523 461.84 300.502 461.919 300.502 461.919" stroke="#090203" stroke-width="1.66679" stroke-linecap="round" stroke-linejoin="round"/>
<path d="M288.039 462.906C287.651 463.044 287.239 463.119 286.805 463.119C284.772 463.119 283.122 461.473 283.122 459.435C283.122 457.398 284.768 455.747 286.805 455.747H286.868C286.843 455.86 286.822 455.968 286.805 456.072C286.714 456.622 286.668 457.181 286.668 457.756C286.668 459.61 287.164 461.356 288.039 462.902V462.906Z" fill="white" stroke="#090203" stroke-width="2.08349" stroke-linecap="round" stroke-linejoin="round"/>
<path d="M286.864 455.756C286.839 455.864 286.818 455.972 286.801 456.077C286.709 456.627 286.664 457.185 286.664 457.76C286.664 459.614 287.159 461.36 288.035 462.906" fill="white"/>
<path d="M286.864 455.756C286.839 455.864 286.818 455.972 286.801 456.077C286.709 456.627 286.664 457.185 286.664 457.76C286.664 459.614 287.159 461.36 288.035 462.906" stroke="#090203" stroke-width="2.08349" stroke-linecap="round" stroke-linejoin="round"/>
<path d="M311.549 460.831H311.615C313.545 460.831 315.103 459.269 315.103 457.343C315.103 455.418 313.545 453.856 311.615 453.856C311.495 453.856 311.378 453.856 311.261 453.872" stroke="#090203" stroke-width="1.66679" stroke-linecap="round" stroke-linejoin="round"/>
<path d="M309.678 479.462C309.678 479.462 311.236 482.674 312.907 482.674C314.578 482.674 314.141 475.182 310.253 472.486L309.682 479.462H309.678Z" fill="white" stroke="#090203" stroke-width="2.08349" stroke-linecap="round" stroke-linejoin="round"/>
<path d="M321.787 447.184C321.787 447.184 324.004 452.885 332.492 452.885C340.98 452.885 345.731 456.11 345.731 456.11C345.731 456.11 346.289 448.509 342.51 446.376C338.726 444.238 333.73 445.997 332.063 444.33C330.396 442.663 321.787 447.184 321.787 447.184Z" fill="white" stroke="#090203" stroke-width="2.08349" stroke-linecap="round" stroke-linejoin="round"/>
<path d="M360.948 458.568L354.635 474.561H376.487L374.066 466.565" fill="white"/>
<path d="M360.948 458.568L354.635 474.561H376.487L374.066 466.565" stroke="#090203" stroke-width="2.08349" stroke-linecap="round" stroke-linejoin="round"/>
<path d="M368.674 451.76C368.674 451.76 354.786 441.463 353.335 445.567C351.885 449.672 364.665 456.331 364.665 456.331" fill="white"/>
<path d="M368.674 451.76C368.674 451.76 354.786 441.463 353.335 445.567C351.885 449.672 364.665 456.331 364.665 456.331" stroke="#090203" stroke-width="2.08349" stroke-linecap="round" stroke-linejoin="round"/>
<path d="M388.984 458.748C388.392 460.035 387.126 460.956 385.621 461.056L374.304 460.414C374.304 460.414 373.645 463.34 377.812 463.848C381.879 464.348 386.792 465.527 374.062 466.565C371.316 466.79 369.016 466.648 367.107 466.227C357.082 464.036 360.103 448.947 370.233 450.585L383 452.66C383.067 452.86 385.363 459.273 388.98 458.748H388.984Z" fill="white" stroke="#090203" stroke-width="2.08349" stroke-linecap="round" stroke-linejoin="round"/>
<path d="M372.516 457.868C373.229 457.868 373.808 457.29 373.808 456.577C373.808 455.863 373.229 455.285 372.516 455.285C371.802 455.285 371.224 455.863 371.224 456.577C371.224 457.29 371.802 457.868 372.516 457.868Z" fill="#090203"/>
<path d="M364.036 456.985C364.036 456.985 358.123 476.22 363.191 476.22C368.258 476.22 370.604 459.61 370.604 459.61" fill="white"/>
<path d="M364.036 456.985C364.036 456.985 358.123 476.22 363.191 476.22C368.258 476.22 370.604 459.61 370.604 459.61" stroke="#090203" stroke-width="2.08349" stroke-linecap="round" stroke-linejoin="round"/>
<path d="M389.355 457.077C389.355 457.673 389.222 458.235 388.984 458.743C385.367 459.269 383.071 452.856 383.004 452.66L386.013 453.143C386.98 453.297 387.813 453.793 388.409 454.493C389.005 455.193 389.359 456.097 389.359 457.077H389.355Z" fill="#090203" stroke="#090203" stroke-width="2.08349" stroke-linecap="round" stroke-linejoin="round"/>
<path d="M362.482 397.218H375.825C378.354 397.218 380.404 399.272 380.404 401.797V430.82C380.404 433.35 378.35 435.4 375.825 435.4H362.482V397.218Z" fill="white" stroke="#090203" stroke-width="2.08349" stroke-linecap="round" stroke-linejoin="round"/>
<path d="M362.482 404.314H380.404" stroke="#090203" stroke-width="2.08349" stroke-linecap="round" stroke-linejoin="round"/>
<path d="M362.482 397.218V391.205C362.482 389.63 363.757 388.355 365.332 388.355H366.357C367.932 388.355 369.207 389.63 369.207 391.205V397.218H362.482Z" fill="white" stroke="#090203" stroke-width="2.08349" stroke-linecap="round" stroke-linejoin="round"/>
<path d="M355.815 435.975C364.447 435.975 371.445 428.977 371.445 420.345C371.445 411.712 364.447 404.714 355.815 404.714C347.183 404.714 340.185 411.712 340.185 420.345C340.185 428.977 347.183 435.975 355.815 435.975Z" fill="white" stroke="#090203" stroke-width="2.08349" stroke-linecap="round" stroke-linejoin="round"/>
<path d="M341.906 413.215C341.906 413.215 348.11 421.191 352.665 418.399C357.215 415.607 353.577 404.873 353.577 404.873" stroke="#090203" stroke-width="2.08349" stroke-linecap="round" stroke-linejoin="round"/>
<path d="M358.228 435.788C358.228 435.788 354.948 426.854 358.828 424.478C362.707 422.099 370.083 426.72 370.083 426.72" stroke="#090203" stroke-width="2.08349" stroke-linecap="round" stroke-linejoin="round"/>
<path d="M343.677 430.183C343.677 430.183 357.799 422.549 367.383 409.831" stroke="#090203" stroke-width="2.08349" stroke-linecap="round" stroke-linejoin="round"/>
<path d="M346.827 407.56C346.827 407.56 354.611 420.549 364.808 433.162" stroke="#090203" stroke-width="2.08349" stroke-linecap="round" stroke-linejoin="round"/>
<path d="M313.808 405.814L301.173 435.4H350.431L342.885 405.181C342.193 402.406 339.589 400.543 336.743 400.785L318.683 402.297C316.533 402.477 314.654 403.831 313.808 405.819V405.814Z" fill="white" stroke="#090203" stroke-width="2.08349" stroke-linecap="round" stroke-linejoin="round"/>
<path d="M320.233 402.164V400.993C320.233 397.176 323.062 393.951 326.846 393.459L328.159 393.288C332.692 392.697 336.718 396.214 336.743 400.785" stroke="#090203" stroke-width="2.08349" stroke-linecap="round" stroke-linejoin="round"/>
<path d="M331.205 401.247L336.697 435.4" stroke="#090203" stroke-width="2.08349" stroke-linecap="round" stroke-linejoin="round"/>
<path d="M311.874 422.303C313.704 422.303 315.187 420.82 315.187 418.99C315.187 417.161 313.704 415.678 311.874 415.678C310.045 415.678 308.562 417.161 308.562 418.99C308.562 420.82 310.045 422.303 311.874 422.303Z" fill="white" stroke="#090203" stroke-width="2.08349" stroke-linecap="round" stroke-linejoin="round"/>
<path d="M311.874 429.545C313.704 429.545 315.187 428.062 315.187 426.233C315.187 424.403 313.704 422.92 311.874 422.92C310.045 422.92 308.562 424.403 308.562 426.233C308.562 428.062 310.045 429.545 311.874 429.545Z" fill="white" stroke="#090203" stroke-width="2.08349" stroke-linecap="round" stroke-linejoin="round"/>
<path d="M303.848 435.4H263.6C260.995 435.4 258.887 433.291 258.887 430.687V418.236C258.887 415.828 260.704 413.807 263.1 413.553L303.348 409.256C306.132 408.96 308.561 411.14 308.561 413.94V430.687C308.561 433.291 306.453 435.4 303.848 435.4Z" fill="white" stroke="#090203" stroke-width="2.08349" stroke-linecap="round" stroke-linejoin="round"/>
<path d="M263.1 413.548L263.533 411.748C264.166 409.115 266.404 407.173 269.1 406.919L296.473 404.339C299.236 404.081 301.848 405.648 302.915 408.21L303.349 409.248L263.1 413.544V413.548Z" fill="white" stroke="#090203" stroke-width="2.08349" stroke-linecap="round" stroke-linejoin="round"/>
<path d="M88.9318 61.6297C100.97 61.6297 110.729 51.8707 110.729 39.8322C110.729 27.7938 100.97 18.0347 88.9318 18.0347C76.8934 18.0347 67.1343 27.7938 67.1343 39.8322C67.1343 51.8707 76.8934 61.6297 88.9318 61.6297Z" stroke="#090203" stroke-width="2.08349" stroke-miterlimit="10"/>
<path d="M88.9316 10.3841V1.04175" stroke="#090203" stroke-width="2.08349" stroke-miterlimit="10" stroke-linecap="round"/>
<path d="M109.758 19.0098L116.363 12.4052" stroke="#090203" stroke-width="2.08349" stroke-miterlimit="10" stroke-linecap="round"/>
<path d="M118.38 39.8322H127.726" stroke="#090203" stroke-width="2.08349" stroke-miterlimit="10" stroke-linecap="round"/>
<path d="M109.758 60.6547L116.363 67.2635" stroke="#090203" stroke-width="2.08349" stroke-miterlimit="10" stroke-linecap="round"/>
<path d="M88.9316 69.2803V78.6269" stroke="#090203" stroke-width="2.08349" stroke-miterlimit="10" stroke-linecap="round"/>
<path d="M68.1096 60.6547L61.5049 67.2635" stroke="#090203" stroke-width="2.08349" stroke-miterlimit="10" stroke-linecap="round"/>
<path d="M59.484 39.8322H50.1416" stroke="#090203" stroke-width="2.08349" stroke-miterlimit="10" stroke-linecap="round"/>
<path d="M68.1096 19.0098L61.5049 12.4052" stroke="#090203" stroke-width="2.08349" stroke-miterlimit="10" stroke-linecap="round"/>
<path d="M231.881 177.779L220.647 173.271C218.91 172.575 216.938 173.418 216.241 175.154L211.208 187.7C210.511 189.436 211.354 191.409 213.091 192.105L224.325 196.613C226.062 197.309 228.034 196.466 228.731 194.73L233.764 182.184C234.461 180.448 233.618 178.475 231.881 177.779Z" fill="white" stroke="#090203" stroke-width="2.08349" stroke-miterlimit="10"/>
<path d="M230.029 177.047C230.2 174.092 227.629 171.18 225.596 170.721C223.562 170.259 225.246 175.13 225.246 175.13C225.246 175.13 223.104 198.261 231.813 198.261C240.522 198.261 232.642 184.952 232.642 184.952" stroke="#090203" stroke-width="2.08349" stroke-miterlimit="10"/>
<path d="M225.246 175.13C220.762 181.572 215.954 181.981 212.979 181.381" stroke="#090203" stroke-width="2.08349" stroke-miterlimit="10"/>
<path d="M226.096 225.913H388.671C391.505 225.913 393.805 228.213 393.805 231.047V241.702H226.096C221.737 241.702 218.2 238.164 218.2 233.805C218.2 229.447 221.737 225.909 226.096 225.909V225.913Z" fill="#090203" stroke="#090203" stroke-width="2.27101" stroke-miterlimit="10"/>
<path d="M388.384 224.809V225.913H360.136V196.561C360.323 196.561 360.515 196.561 360.702 196.569C361.111 196.573 361.511 196.59 361.915 196.615C369.003 197.057 375.395 200.115 380.112 204.832C382.467 207.187 384.408 209.958 385.817 213.025C386.709 214.962 387.384 217.017 387.817 219.163C388.192 220.988 388.384 222.875 388.384 224.809Z" fill="#090203" stroke="#090203" stroke-width="2.27101" stroke-miterlimit="10"/>
<path d="M387.817 219.163C387.409 219.158 387.009 219.142 386.605 219.117C379.517 218.675 373.124 215.616 368.407 210.899C366.053 208.545 364.111 205.774 362.703 202.707C361.811 200.769 361.132 198.711 360.703 196.569C361.111 196.573 361.511 196.59 361.915 196.615C369.003 197.057 375.395 200.115 380.112 204.832C382.467 207.187 384.409 209.958 385.817 213.025C386.709 214.962 387.384 217.017 387.817 219.163Z" fill="white" stroke="#090203" stroke-width="2.08349" stroke-miterlimit="10"/>
<path d="M255.44 159.571H315.745C329.75 159.571 342.709 166.979 349.814 179.043L360.136 196.561V225.913H226.196L255.44 159.571Z" fill="#090203" stroke="#090203" stroke-width="2.27101" stroke-miterlimit="10"/>
<path d="M252.302 256.157C261.271 256.157 268.541 248.887 268.541 239.918C268.541 230.95 261.271 223.68 252.302 223.68C243.334 223.68 236.063 230.95 236.063 239.918C236.063 248.887 243.334 256.157 252.302 256.157Z" fill="white" stroke="#090203" stroke-width="2.08349" stroke-miterlimit="10"/>
<path d="M252.302 249.848C257.787 249.848 262.232 245.402 262.232 239.918C262.232 234.434 257.787 229.988 252.302 229.988C246.818 229.988 242.373 234.434 242.373 239.918C242.373 245.402 246.818 249.848 252.302 249.848Z" fill="white" stroke="#090203" stroke-width="2.08349" stroke-miterlimit="10"/>
<path d="M360.135 196.561L349.818 179.043C342.709 166.979 329.75 159.571 315.749 159.571H307.031V196.561H360.139H360.135Z" fill="white" stroke="#090203" stroke-width="2.08349" stroke-miterlimit="10"/>
<path d="M300.26 196.569H252.286L268.945 159.571H300.26V196.569Z" fill="white" stroke="#090203" stroke-width="2.08349" stroke-miterlimit="10"/>
<path d="M358.023 256.157C366.991 256.157 374.262 248.887 374.262 239.918C374.262 230.95 366.991 223.68 358.023 223.68C349.055 223.68 341.784 230.95 341.784 239.918C341.784 248.887 349.055 256.157 358.023 256.157Z" fill="white" stroke="#090203" stroke-width="2.08349" stroke-miterlimit="10"/>
<path d="M358.023 249.848C363.507 249.848 367.953 245.402 367.953 239.918C367.953 234.434 363.507 229.988 358.023 229.988C352.539 229.988 348.093 234.434 348.093 239.918C348.093 245.402 352.539 249.848 358.023 249.848Z" fill="white" stroke="#090203" stroke-width="2.08349" stroke-miterlimit="10"/>
<path d="M224.53 127.863L251.837 144.623C256.958 147.767 258.565 154.478 255.421 159.599L209.555 131.448C212.698 126.327 219.409 124.72 224.53 127.863Z" fill="white" stroke="#090203" stroke-width="2.08349" stroke-miterlimit="10"/>
<path d="M190.364 224.15C188.943 226.959 187.085 230.659 185.36 234.139L176.597 230.513C177.651 227.297 178.589 224.005 179.205 220.946L190.364 224.15Z" fill="white" stroke="#090203" stroke-width="2.08349" stroke-linejoin="round"/>
<path d="M190.364 224.15L179.205 220.946C179.497 219.508 179.722 218.117 179.851 216.812C181.122 204.278 185.635 193.448 185.635 193.448L189.677 195.657C194.89 198.507 197.369 204.641 195.598 210.312L194.331 214.371C193.281 217.733 191.956 221.004 190.368 224.15H190.364Z" fill="#090203" stroke="#090203" stroke-width="2.08349" stroke-miterlimit="10"/>
<path d="M181.834 254.79L169.029 249.49C169.029 249.49 173.375 240.327 176.597 230.513L185.36 234.139C183.264 238.381 181.359 242.306 180.684 243.939C179.601 246.556 181.514 250.544 183.16 253.249C183.701 254.132 182.793 255.186 181.834 254.786V254.79Z" fill="#090203" stroke="#090203" stroke-width="2.08349" stroke-miterlimit="10"/>
<path d="M185.364 234.143L185.36 234.139" stroke="#090203" stroke-width="2.08349" stroke-miterlimit="10"/>
<path d="M198.161 197.836L183.426 196.24L183.693 189.577L197.844 191.852L198.161 197.836Z" fill="white" stroke="#090203" stroke-width="2.08349" stroke-linejoin="round"/>
<path d="M197.844 191.852L183.693 189.577L184.051 180.526C184.289 174.547 189.577 170.046 195.515 170.767C196.219 170.855 196.761 171.434 196.798 172.142L197.844 191.856V191.852Z" fill="#090203" stroke="#090203" stroke-width="2.08349" stroke-miterlimit="10"/>
<path d="M200.794 180.776L193.077 185.648C191.202 182.714 189.714 179.497 188.676 176.068L188.418 175.218C187.91 173.542 189.043 171.813 190.785 171.613L191.035 171.584C195.16 171.109 199.002 173.759 200.027 177.78L200.79 180.776H200.794Z" fill="#090203" stroke="#090203" stroke-width="2.08349" stroke-miterlimit="10"/>
<path d="M219.317 200.478C218.967 200.428 218.617 200.374 218.275 200.319C207.374 198.544 197.994 192.131 192.227 183.081L199.944 178.209C201.244 181.201 203.015 183.981 205.236 186.418C208.391 189.869 212.462 192.711 217.091 192.156C227.988 190.844 218.75 195.094 218.75 195.094C218.75 195.094 221.092 196.34 222.663 196.494C225.963 196.807 225.175 201.365 219.317 200.486V200.478Z" fill="white" stroke="#090203" stroke-width="2.08349" stroke-linejoin="round"/>
<path d="M193.148 173.392C189.256 172.717 186.622 168.98 187.297 165.088L189.218 154.012C189.894 150.12 193.631 147.486 197.527 148.161C207.537 149.591 205.495 165.209 205.295 166.575C205.286 166.625 205.236 166.663 205.186 166.654L201.936 166.063C201.815 166.042 201.699 166.121 201.678 166.242L201.449 167.542C200.774 171.434 197.036 174.068 193.144 173.392" fill="white"/>
<path d="M193.148 173.392C189.256 172.717 186.622 168.98 187.297 165.088L189.218 154.012C189.894 150.12 193.631 147.486 197.527 148.161C207.537 149.591 205.495 165.209 205.295 166.575C205.286 166.625 205.236 166.663 205.186 166.654L201.936 166.063C201.815 166.042 201.699 166.121 201.678 166.242L201.449 167.542C200.774 171.434 197.036 174.068 193.144 173.392" stroke="#090203" stroke-width="2.08349" stroke-miterlimit="10"/>
<path d="M200.373 159.612C200.269 160.221 200.677 160.804 201.286 160.908C201.894 161.012 202.477 160.604 202.582 159.996C202.686 159.387 202.282 158.808 201.669 158.704C201.061 158.6 200.477 159.004 200.373 159.616" fill="#090203"/>
<path d="M187.26 169.367C179.293 161.8 184.031 148.17 194.998 147.499C195.227 147.486 195.457 147.474 195.69 147.47C197.603 147.42 202.028 148.974 203.353 151.991C203.353 151.991 200.565 159.046 194.84 159.675C194.473 159.716 194.115 159.537 193.923 159.212C193.327 158.191 191.785 156.17 190.102 158.7C187.943 161.95 191.227 164.488 191.227 164.488C190.289 166.017 190.027 168.955 190.094 172.055L187.26 169.363V169.367Z" fill="#090203" stroke="#090203" stroke-width="2.08349" stroke-miterlimit="10"/>
<path d="M196.394 166.375C196.394 166.375 197.019 169.676 200.994 169.1" stroke="#090203" stroke-width="2.08349" stroke-linecap="round" stroke-linejoin="round"/>
<path d="M199.54 222.8C199.302 225.942 199.002 230.068 198.735 233.943H189.251C188.997 230.564 188.601 227.167 188.005 224.109L199.544 222.8H199.54Z" fill="white" stroke="#090203" stroke-width="2.08349" stroke-linejoin="round"/>
<path d="M199.54 222.8L188.002 224.109C187.722 222.667 187.397 221.296 187.018 220.042C183.397 207.974 183.426 196.24 183.426 196.24L198.161 197.836L199.461 212.25C199.778 215.758 199.803 219.288 199.54 222.805V222.8Z" fill="#090203" stroke="#090203" stroke-width="2.08349" stroke-miterlimit="10"/>
<path d="M203.374 254.374H189.514C189.514 254.374 190.027 244.244 189.248 233.947H198.732C198.415 238.668 196.161 244.265 196.161 246.031C196.161 248.865 201.448 250.578 204.007 252.449C204.845 253.057 204.411 254.378 203.374 254.378V254.374Z" fill="#090203" stroke="#090203" stroke-width="2.08349" stroke-miterlimit="10"/>
<path d="M198.74 233.947H198.735" stroke="#090203" stroke-width="2.08349" stroke-miterlimit="10"/>
<path d="M182.089 153.999C185.932 153.999 189.048 150.884 189.048 147.04C189.048 143.197 185.932 140.082 182.089 140.082C178.245 140.082 175.13 143.197 175.13 147.04C175.13 150.884 178.245 153.999 182.089 153.999Z" fill="#090203" stroke="#090203" stroke-width="2.08349" stroke-miterlimit="10"/>
</g>
<defs>
<clipPath id="clip0_546_4315">
<rect width="549.655" height="816" fill="white"/>
</clipPath>
</defs>
</svg>
