<svg width="1200" height="304" viewBox="0 0 1200 304" fill="none" xmlns="http://www.w3.org/2000/svg">
<g clip-path="url(#clip0_376_11615)">
<path d="M53 219L1136 219" stroke="black" stroke-width="0.5" stroke-linecap="round" stroke-linejoin="round"/>
<path d="M92 178H1092" stroke="black" stroke-width="0.5" stroke-linecap="round" stroke-linejoin="round"/>
<path d="M246 178H214.5H183V147.486V128.97L214.5 104L246 128.97V147.486V178Z" fill="white" stroke="black" stroke-width="0.5" stroke-linecap="round" stroke-linejoin="round"/>
<path d="M780.997 160.996C780.997 156.806 778.918 151.703 776.882 147.703C775.044 144.099 770.95 144.099 769.115 147.703C767.079 151.7 765 156.806 765 160.996C765 168.638 768.097 170.545 772.084 170.772V178H773.916V170.772C777.903 170.542 781 168.638 781 160.996H780.997Z" fill="white" stroke="black" stroke-width="0.5" stroke-linecap="round" stroke-linejoin="round"/>
<path d="M189.995 149.659C189.995 142.676 186.618 134.172 183.308 127.505C180.322 121.498 173.668 121.498 170.688 127.505C167.378 134.167 164 142.676 164 149.659C164 162.396 169.033 165.574 175.512 165.953V178H178.488V165.953C184.967 165.569 190 162.396 190 149.659H189.995Z" fill="white" stroke="black" stroke-width="0.5" stroke-linecap="round" stroke-linejoin="round"/>
<path d="M131.913 66.3104H131.561C131.561 62.2614 128.279 58.9805 124.229 58.9805C120.18 58.9805 116.898 62.2614 116.898 66.3104H116.546C113.484 66.3104 111 68.7918 111 71.8549C111 74.9158 113.482 77.3995 116.546 77.3995H131.911C134.972 77.3995 137.457 74.918 137.457 71.8549C137.457 68.7941 134.975 66.3104 131.911 66.3104H131.913Z" fill="white" stroke="black" stroke-width="0.5" stroke-linecap="round" stroke-linejoin="round"/>
<path d="M827 178V126.392L842.033 111.409L857.684 127.007H866.619V84H885.157V103.815L918.476 137.023H942.925V160H962V178H827Z" fill="white" stroke="black" stroke-width="0.5" stroke-linecap="round" stroke-linejoin="round"/>
<path d="M805.997 154.293C805.997 148.454 803.141 141.339 800.338 135.767C797.814 130.744 792.183 130.744 789.659 135.767C786.856 141.339 784 148.454 784 154.293C784 164.948 788.257 167.601 793.74 167.922V178H796.26V167.922C801.743 167.601 806 164.948 806 154.293H805.997Z" fill="white" stroke="black" stroke-width="0.5" stroke-linecap="round" stroke-linejoin="round"/>
<path d="M1074 154.293C1074 148.454 1071.14 141.339 1068.34 135.767C1065.81 130.744 1060.18 130.744 1057.66 135.767C1054.86 141.339 1052 148.454 1052 154.293C1052 164.948 1056.26 167.601 1061.74 167.922V178H1064.26V167.922C1069.74 167.601 1074 164.948 1074 154.293H1074Z" fill="white" stroke="black" stroke-width="0.5" stroke-linecap="round" stroke-linejoin="round"/>
<path d="M1041 154.293C1041 148.454 1038.14 141.339 1035.34 135.767C1032.81 130.744 1027.18 130.744 1024.66 135.767C1021.86 141.339 1019 148.454 1019 154.293C1019 164.948 1023.26 167.601 1028.74 167.922V178H1031.26V167.922C1036.74 167.601 1041 164.948 1041 154.293H1041Z" fill="white" stroke="black" stroke-width="0.5" stroke-linecap="round" stroke-linejoin="round"/>
<path d="M570.879 99.194C570.879 95.5425 569.104 91.0938 567.366 87.6063C565.798 84.4646 562.303 84.4646 560.736 87.6063C558.995 91.0916 557.223 95.5402 557.223 99.194C557.223 105.857 559.866 107.516 563.269 107.716V114.018H564.832V107.716C568.235 107.516 570.879 105.855 570.879 99.194Z" fill="white" stroke="black" stroke-width="0.5" stroke-linecap="round" stroke-linejoin="round"/>
<path d="M596.241 100.052C596.241 96.612 594.57 92.4193 592.93 89.1339C591.452 86.1741 588.16 86.1741 586.682 89.1339C585.042 92.4171 583.371 96.6098 583.371 100.052C583.371 106.331 585.862 107.894 589.069 108.083V114.02H590.543V108.083C593.75 107.894 596.241 106.329 596.241 100.052Z" fill="white" stroke="black" stroke-width="0.5" stroke-linecap="round" stroke-linejoin="round"/>
<path d="M416.762 36.4918C424.902 36.4918 431.501 29.8942 431.501 21.7557C431.501 13.6171 424.902 7.01953 416.762 7.01953C408.622 7.01953 402.023 13.6171 402.023 21.7557C402.023 29.8942 408.622 36.4918 416.762 36.4918Z" fill="white" stroke="black" stroke-width="0.5" stroke-linecap="round" stroke-linejoin="round"/>
<path d="M416.762 3.85582V0" stroke="black" stroke-width="0.5" stroke-linecap="round" stroke-linejoin="round"/>
<path d="M429.422 9.09959L432.151 6.37109" stroke="black" stroke-width="0.5" stroke-linecap="round" stroke-linejoin="round"/>
<path d="M434.664 21.7559H438.523" stroke="black" stroke-width="0.5" stroke-linecap="round" stroke-linejoin="round"/>
<path d="M429.422 34.4121L432.151 37.1406" stroke="black" stroke-width="0.5" stroke-linecap="round" stroke-linejoin="round"/>
<path d="M416.762 39.6562V43.5143" stroke="black" stroke-width="0.5" stroke-linecap="round" stroke-linejoin="round"/>
<path d="M404.104 34.4121L401.375 37.1406" stroke="black" stroke-width="0.5" stroke-linecap="round" stroke-linejoin="round"/>
<path d="M398.859 21.7559H395" stroke="black" stroke-width="0.5" stroke-linecap="round" stroke-linejoin="round"/>
<path d="M404.104 9.09959L401.375 6.37109" stroke="black" stroke-width="0.5" stroke-linecap="round" stroke-linejoin="round"/>
<path d="M690.711 83.4121H493V178.188H690.711V83.4121Z" fill="white" stroke="black" stroke-width="0.5" stroke-linecap="round" stroke-linejoin="round"/>
<path d="M690.711 73H493V101.755H690.711V73Z" fill="white" stroke="black" stroke-width="0.5" stroke-linecap="round" stroke-linejoin="round"/>
<path d="M607.018 120.328H552.352V178.184H607.018V120.328Z" fill="white" stroke="black" stroke-width="0.5" stroke-linecap="round" stroke-linejoin="round"/>
<path d="M533.318 120.328H499.789V178.184H533.318V120.328Z" fill="white" stroke="black" stroke-width="0.5" stroke-linecap="round" stroke-linejoin="round"/>
<path d="M672.783 120.328H618.117V178.184H672.783V120.328Z" fill="white" stroke="black" stroke-width="0.5" stroke-linecap="round" stroke-linejoin="round"/>
<path d="M533.318 120.328V127.497H506.953V178.191H499.789V120.328H533.318Z" fill="#8280B8" stroke="black" stroke-width="0.5" stroke-linecap="round" stroke-linejoin="round"/>
<path d="M587.439 96.3463C585.892 96.3463 584.5 96.0002 583.271 95.308C582.034 94.6158 581.052 93.6693 580.318 92.4685C579.583 91.2678 579.223 89.9116 579.223 88.4071C579.223 86.9026 579.59 85.5182 580.318 84.3103C581.045 83.1096 582.034 82.156 583.285 81.4567C584.528 80.7575 585.934 80.4043 587.502 80.4043C588.675 80.4043 589.756 80.6162 590.731 81.0329C591.706 81.4497 592.582 82.0713 593.345 82.8835L590.378 85.8925C590.024 85.4758 589.608 85.1721 589.127 84.9814C588.64 84.7907 588.103 84.6988 587.502 84.6988C586.803 84.6988 586.188 84.8542 585.666 85.1509C585.143 85.4546 584.726 85.8855 584.415 86.4364C584.104 86.9944 583.949 87.6372 583.949 88.3647C583.949 89.0922 584.104 89.7138 584.415 90.2789C584.726 90.844 585.143 91.2748 585.68 91.5785C586.217 91.8823 586.824 92.0306 587.502 92.0306C588.138 92.0306 588.703 91.9247 589.184 91.7198C589.664 91.5079 590.088 91.183 590.434 90.7451L593.401 93.7894C592.617 94.6228 591.734 95.2586 590.759 95.6894C589.777 96.1203 588.675 96.3322 587.439 96.3322" fill="#10A96C"/>
<path d="M604.37 80.7502V82.0499C603.974 81.6614 603.508 81.3365 602.978 81.0681C602.152 80.6513 601.24 80.4395 600.23 80.4395C598.853 80.4395 597.616 80.7926 596.521 81.4919C595.426 82.1912 594.571 83.1376 593.957 84.3314C593.342 85.5251 593.031 86.8812 593.031 88.4069C593.031 89.9326 593.342 91.2605 593.957 92.4542C594.571 93.6479 595.426 94.5874 596.507 95.2796C597.588 95.9718 598.817 96.3179 600.202 96.3179C601.233 96.3179 602.159 96.1201 602.985 95.7246C603.515 95.4703 603.981 95.1454 604.377 94.7498V96.0071H608.92V80.7573H604.377L604.37 80.7502ZM603.642 91.0274C603.014 91.7055 602.173 92.0445 601.127 92.0445C600.47 92.0445 599.884 91.8891 599.368 91.5713C598.853 91.2605 598.443 90.8296 598.146 90.2858C597.849 89.7419 597.701 89.1133 597.701 88.4069C597.701 87.7006 597.849 87.0296 598.146 86.4786C598.443 85.9277 598.853 85.4898 599.368 85.179C599.884 84.8682 600.477 84.7057 601.163 84.7057C601.848 84.7057 602.441 84.8611 602.957 85.179C603.473 85.4898 603.875 85.9206 604.165 86.4645C604.455 87.0084 604.596 87.6441 604.596 88.3787C604.596 89.4664 604.285 90.3493 603.657 91.0274H603.642Z" fill="#00A6BF"/>
<path d="M620.106 80.4695C619.809 80.413 619.498 80.3848 619.152 80.3848C618.361 80.3848 617.612 80.5755 616.912 80.964C616.213 81.3454 615.605 81.8681 615.083 82.5179C614.948 82.6874 614.821 82.864 614.708 83.0476L614.616 80.745H610.328V96.0019H614.871V88.3381C614.871 87.879 614.941 87.4623 615.083 87.102C615.224 86.7347 615.422 86.4239 615.662 86.1485C615.909 85.8801 616.213 85.6752 616.573 85.5269C616.934 85.3856 617.322 85.3079 617.739 85.3079C618.121 85.3079 618.481 85.3503 618.834 85.4351C619.187 85.5198 619.463 85.6328 619.675 85.767L620.925 80.6673C620.678 80.5896 620.409 80.526 620.12 80.4625L620.106 80.4695Z" fill="#8280B8"/>
<path d="M573.756 80.7285V89.3882C573.756 90.8433 572.598 92.0228 571.164 92.0228C569.729 92.0228 568.571 90.8433 568.571 89.3882V80.7285H564V89.0421C564 93.0541 567.214 96.3174 571.171 96.3174C575.127 96.3174 578.341 93.0541 578.341 89.0421V80.7285H573.763H573.756Z" fill="#EF664E"/>
<path d="M564.27 120.326H552.359V178.182H564.27V120.326Z" fill="#10A96C" stroke="black" stroke-width="0.5" stroke-linecap="round" stroke-linejoin="round"/>
<path d="M564.273 120.326H607.022V135.745H579.689V178.189H564.273V120.326Z" fill="#EF664E" stroke="black" stroke-width="0.5" stroke-linecap="round" stroke-linejoin="round"/>
<path d="M672.791 120.326H618.125V135.745H672.791V120.326Z" fill="#EF664E" stroke="black" stroke-width="0.5" stroke-linecap="round" stroke-linejoin="round"/>
<path d="M1047.41 38.9196C1047.41 38.96 1047.41 39.0004 1047.41 39.0409C1047.47 42.1915 1044.9 44.7651 1041.75 44.7651H997.66C994.583 44.7651 992.013 42.3083 992 39.2317C992 39.1127 992 38.9915 992.007 38.8702C992.173 34.664 995.623 31.2394 999.83 31.1024C1001.39 31.0507 1002.85 31.4415 1004.1 32.1556C1004.06 31.8098 1004.03 31.4572 1004.03 31.0979C1004.03 26.6245 1007.66 23 1012.13 23C1016.17 23 1019.52 25.9531 1020.13 29.8201C1021.3 29.1644 1022.65 28.7894 1024.09 28.7894C1028.11 28.7894 1031.45 31.72 1032.08 35.5623C1033.46 32.8226 1036.34 30.9721 1039.65 31.1046C1043.86 31.2731 1047.27 34.7157 1047.41 38.9196Z" fill="white" stroke="black" stroke-width="0.5" stroke-linecap="round" stroke-linejoin="round"/>
<path d="M235.079 38.8873C235.079 35.9297 233.518 33.1451 230.91 31.746C229.772 31.1352 228.471 30.7894 227.088 30.7894C225.704 30.7894 224.302 31.1644 223.134 31.8201C222.519 27.9531 219.172 25 215.134 25C210.662 25 207.035 28.6245 207.035 33.0979C207.035 33.4572 207.057 33.8098 207.104 34.1556C205.851 33.4415 204.389 33.0507 202.83 33.1024C198.623 33.2394 195.173 36.664 195.007 40.8702C195.002 40.9915 195 41.1127 195 41.2317C195.013 44.3083 197.583 46.7651 200.66 46.7651H227.2C231.553 46.7651 235.079 43.2371 235.079 38.8873Z" fill="white" stroke="black" stroke-width="0.5" stroke-linecap="round" stroke-linejoin="round"/>
<path d="M848.079 81.8873C848.079 78.9297 846.518 76.1451 843.91 74.746C842.772 74.1352 841.471 73.7894 840.088 73.7894C838.704 73.7894 837.302 74.1644 836.134 74.8201C835.519 70.9531 832.172 68 828.134 68C823.662 68 820.035 71.6245 820.035 76.0979C820.035 76.4572 820.057 76.8098 820.104 77.1556C818.851 76.4415 817.389 76.0507 815.83 76.1024C811.623 76.2394 808.173 79.664 808.007 83.8702C808.002 83.9915 808 84.1127 808 84.2317C808.013 87.3083 810.583 89.7651 813.66 89.7651H840.2C844.553 89.7651 848.079 86.2371 848.079 81.8873Z" fill="white" stroke="black" stroke-width="0.5" stroke-linecap="round" stroke-linejoin="round"/>
<path d="M444.857 159.35H363.02V165.777H444.857V159.35Z" fill="#A9A9A9" stroke="black" stroke-width="0.5" stroke-linecap="round" stroke-linejoin="round"/>
<path d="M363.019 135.818V168.672H329.757C326.455 168.672 323.801 165.992 323.801 162.725C323.801 162.635 323.801 162.546 323.807 162.456L324.02 157.627L324.075 157.328C324.126 157.042 324.193 156.759 324.271 156.481C325.232 153.012 328.063 150.261 331.738 149.301L332.155 149.193L333.55 148.827L335.167 148.404C337.245 147.861 339.11 146.745 340.529 145.2L348.211 136.829C348.8 136.186 349.652 135.816 350.549 135.816H363.017L363.019 135.818Z" fill="white" stroke="black" stroke-width="0.5" stroke-linecap="round" stroke-linejoin="round"/>
<path d="M329.443 154.903C327.889 156.105 326.01 156.623 324.27 156.479C325.231 153.01 328.062 150.259 331.737 149.299L332.154 149.189C332.331 151.221 331.379 153.406 329.443 154.901V154.903Z" fill="white" stroke="black" stroke-width="0.5" stroke-miterlimit="10"/>
<path d="M352.337 138.738C351.2 138.738 350.12 139.206 349.372 140.019L343.916 145.95C343.22 146.707 342.836 147.679 342.836 148.683V151.064C342.836 152.284 344.099 153.138 345.307 152.735L359.953 147.86V138.738H352.339H352.337Z" fill="white" stroke="black" stroke-width="0.5" stroke-miterlimit="10"/>
<path d="M363.02 135.817H346.48C346.48 129.066 351.201 123.143 358.023 121.33L363.02 120V135.817Z" fill="white" stroke="black" stroke-width="0.5" stroke-miterlimit="10"/>
<path d="M444.857 120H363.02V159.35H444.857V120Z" fill="white" stroke="black" stroke-width="0.5" stroke-miterlimit="10"/>
<path d="M447.397 153.516L444.828 153.488L445.064 132.179C445.07 131.62 445.839 131.474 446.05 131.992C446.244 132.466 446.355 132.966 446.382 133.472L447.397 153.518V153.516Z" fill="#A9A9A9" stroke="black" stroke-width="0.5" stroke-linecap="round" stroke-linejoin="round"/>
<path d="M447.425 156.09C448.918 156.09 450.128 154.937 450.128 153.516C450.128 152.094 448.918 150.941 447.425 150.941C445.933 150.941 444.723 152.094 444.723 153.516C444.723 154.937 445.933 156.09 447.425 156.09Z" fill="white" stroke="black" stroke-width="0.5" stroke-miterlimit="10"/>
<path d="M400.658 145.722C399.647 145.722 398.738 145.506 397.929 145.077C397.12 144.646 396.477 144.056 395.999 143.306C395.521 142.556 395.281 141.712 395.281 140.773C395.281 139.833 395.521 138.969 395.999 138.221C396.477 137.471 397.124 136.879 397.939 136.442C398.755 136.005 399.674 135.787 400.699 135.787C401.468 135.787 402.171 135.917 402.812 136.177C403.452 136.438 404.022 136.822 404.52 137.332L402.58 139.211C402.35 138.951 402.078 138.762 401.76 138.644C401.443 138.526 401.089 138.467 400.699 138.467C400.241 138.467 399.841 138.563 399.497 138.752C399.153 138.941 398.881 139.209 398.677 139.553C398.476 139.898 398.374 140.299 398.374 140.756C398.374 141.214 398.476 141.598 398.677 141.95C398.879 142.302 399.155 142.572 399.507 142.761C399.857 142.95 400.256 143.046 400.701 143.046C401.118 143.046 401.486 142.981 401.803 142.851C402.12 142.721 402.393 142.517 402.623 142.245L404.563 144.142C404.05 144.664 403.475 145.059 402.834 145.325C402.194 145.592 401.47 145.726 400.66 145.726" fill="#10A96C"/>
<path d="M411.739 136V136.809C411.479 136.569 411.176 136.364 410.83 136.197C410.291 135.937 409.691 135.807 409.03 135.807C408.127 135.807 407.318 136.024 406.604 136.461C405.89 136.899 405.331 137.488 404.926 138.232C404.522 138.977 404.32 139.824 404.32 140.776C404.32 141.728 404.522 142.555 404.926 143.299C405.331 144.043 405.886 144.629 406.594 145.06C407.302 145.491 408.107 145.705 409.01 145.705C409.683 145.705 410.291 145.581 410.83 145.333C411.178 145.172 411.481 144.971 411.739 144.725V145.507H414.71V136.002H411.739V136ZM411.263 142.407C410.852 142.83 410.303 143.043 409.616 143.043C409.185 143.043 408.8 142.945 408.463 142.75C408.125 142.555 407.859 142.287 407.664 141.949C407.468 141.61 407.371 141.219 407.371 140.776C407.371 140.333 407.468 139.918 407.664 139.572C407.859 139.227 408.125 138.956 408.463 138.761C408.8 138.566 409.191 138.468 409.636 138.468C410.082 138.468 410.472 138.566 410.81 138.761C411.147 138.956 411.41 139.225 411.599 139.562C411.788 139.902 411.881 140.298 411.881 140.756C411.881 141.433 411.676 141.986 411.265 142.409L411.263 142.407Z" fill="#00A6BF"/>
<path d="M422.027 135.824C421.836 135.788 421.628 135.77 421.404 135.77C420.884 135.77 420.396 135.889 419.938 136.129C419.481 136.369 419.082 136.693 418.74 137.099C418.651 137.205 418.57 137.315 418.494 137.429L418.433 135.993H415.629V145.505H418.6V140.727C418.6 140.44 418.647 140.182 418.738 139.954C418.832 139.726 418.958 139.529 419.119 139.36C419.279 139.194 419.477 139.063 419.712 138.974C419.948 138.884 420.201 138.84 420.473 138.84C420.721 138.84 420.959 138.866 421.187 138.921C421.417 138.974 421.598 139.043 421.734 139.128L422.551 135.948C422.391 135.9 422.214 135.859 422.023 135.822L422.027 135.824Z" fill="#8280B8"/>
<path d="M391.708 135.984V141.383C391.708 142.29 390.947 143.026 390.01 143.026C389.072 143.026 388.312 142.29 388.312 141.383V135.984H385.32V141.167C385.32 143.67 387.425 145.705 390.01 145.705C392.595 145.705 394.699 143.67 394.699 141.167V135.984H391.706H391.708Z" fill="#EF664E"/>
<path d="M345.272 168.671H329.761C326.459 168.671 323.805 165.991 323.805 162.723C323.805 162.634 323.805 162.545 323.811 162.455H340.596L345.272 168.671Z" fill="#A9A9A9" stroke="black" stroke-width="0.5" stroke-linecap="round" stroke-linejoin="round"/>
<path d="M348.458 169.946C348.458 170.07 348.456 170.194 348.448 170.318C348.245 174.28 344.808 177.434 340.598 177.434C336.389 177.434 332.952 174.28 332.748 170.318C332.74 170.194 332.738 170.07 332.738 169.946C332.738 167.672 333.802 165.635 335.482 164.261C336.856 163.136 338.644 162.457 340.598 162.457C342.553 162.457 344.34 163.136 345.715 164.261C347.395 165.633 348.458 167.67 348.458 169.946Z" fill="white" stroke="black" stroke-width="0.5" stroke-linecap="round" stroke-linejoin="round"/>
<path d="M340.599 173.306C342.547 173.306 344.127 171.801 344.127 169.945C344.127 168.089 342.547 166.584 340.599 166.584C338.65 166.584 337.07 168.089 337.07 169.945C337.07 171.801 338.65 173.306 340.599 173.306Z" fill="white" stroke="black" stroke-width="0.5" stroke-linecap="round" stroke-linejoin="round"/>
<path d="M424.857 169.946C424.857 170.07 424.855 170.194 424.847 170.318C424.643 174.28 421.206 177.434 416.997 177.434C412.787 177.434 409.35 174.28 409.147 170.318C409.139 170.194 409.137 170.07 409.137 169.946C409.137 167.672 410.2 165.635 411.88 164.261C413.255 163.136 415.042 162.457 416.997 162.457C418.951 162.457 420.739 163.136 422.113 164.261C423.793 165.633 424.857 167.67 424.857 169.946Z" fill="white" stroke="black" stroke-width="0.5" stroke-linecap="round" stroke-linejoin="round"/>
<path d="M416.997 173.306C418.946 173.306 420.525 171.801 420.525 169.945C420.525 168.089 418.946 166.584 416.997 166.584C415.048 166.584 413.469 168.089 413.469 169.945C413.469 171.801 415.048 173.306 416.997 173.306Z" fill="white" stroke="black" stroke-width="0.5" stroke-linecap="round" stroke-linejoin="round"/>
<path d="M354.09 141.709C353.13 141.709 353.376 143.112 352.877 143.61C352.379 144.108 351.651 144.712 352.353 144.895C353.054 145.08 352.538 146.644 353.313 147.418C354.087 148.193 356.489 148.608 357.042 146.813C357.596 145.017 358.187 141.707 354.087 141.707L354.09 141.709Z" fill="white" stroke="black" stroke-width="0.5" stroke-linecap="round" stroke-linejoin="round"/>
<path d="M352.875 146.1C352.875 146.1 353.837 146.35 354.638 145.74Z" fill="white"/>
<path d="M352.875 146.1C352.875 146.1 353.837 146.35 354.638 145.74" stroke="black" stroke-width="0.5" stroke-linecap="round" stroke-linejoin="round"/>
<path d="M354.148 144.087C354.279 144.087 354.386 143.981 354.386 143.849C354.386 143.718 354.279 143.611 354.148 143.611C354.017 143.611 353.91 143.718 353.91 143.849C353.91 143.981 354.017 144.087 354.148 144.087Z" fill="black"/>
<path d="M353.235 142.747C353.235 142.747 351.417 142.367 351.897 141.546C352.377 140.726 352.578 139.891 354.148 140.619C355.718 141.347 356.585 140.913 357.187 141.639C357.791 142.367 357.418 144.966 357.418 144.966C357.418 144.966 356.475 143.248 355.934 143.093C355.393 142.939 353.235 142.747 353.235 142.747Z" fill="black" stroke="black" stroke-width="0.5" stroke-linecap="round" stroke-linejoin="round"/>
<path d="M353.02 150.166C354.382 148.704 355.883 146.673 357.038 146.814C358.193 146.952 358.246 148.428 358.246 148.428L353.02 150.168V150.166Z" fill="white" stroke="black" stroke-width="0.5" stroke-linecap="round" stroke-linejoin="round"/>
<path d="M345.309 152.732V150.412C345.309 149.914 345.711 149.512 346.209 149.512C346.708 149.512 347.11 149.914 347.11 150.412V152.133" fill="black"/>
<path d="M345.309 152.732V150.412C345.309 149.914 345.711 149.512 346.209 149.512C346.708 149.512 347.11 149.914 347.11 150.412V152.133" stroke="black" stroke-width="0.5" stroke-linecap="round" stroke-linejoin="round"/>
<path d="M347.442 148.498C346.257 148.374 345.508 149.415 346.702 150.017C347.896 150.619 348.028 151.829 348.028 151.829L350.442 151.026C350.442 151.026 349.254 148.69 347.442 148.5V148.498Z" fill="white" stroke="black" stroke-width="0.5" stroke-linecap="round" stroke-linejoin="round"/>
<path d="M732.544 154H728.629V178.074H732.544V154Z" fill="white" stroke="black" stroke-width="0.5" stroke-miterlimit="10"/>
<path d="M821.77 154H817.855V178.074H821.77V154Z" fill="white" stroke="black" stroke-width="0.5" stroke-miterlimit="10"/>
<path d="M910.997 154H907.082V178.074H910.997V154Z" fill="white" stroke="black" stroke-width="0.5" stroke-miterlimit="10"/>
<path d="M1000.22 154H996.309V178.074H1000.22V154Z" fill="white" stroke="black" stroke-width="0.5" stroke-miterlimit="10"/>
<path d="M1089.45 154H1085.54V178.074H1089.45V154Z" fill="white" stroke="black" stroke-width="0.5" stroke-miterlimit="10"/>
<path d="M1136 158H722V172H1136V158Z" fill="white" stroke="black" stroke-width="0.5" stroke-miterlimit="10"/>
<path d="M727.502 163.459C727.9 163.459 728.223 163.137 728.223 162.738C728.223 162.34 727.9 162.018 727.502 162.018C727.104 162.018 726.781 162.34 726.781 162.738C726.781 163.137 727.104 163.459 727.502 163.459Z" fill="black" stroke="black" stroke-width="0.5" stroke-miterlimit="10"/>
<path d="M733.674 163.459C734.072 163.459 734.395 163.137 734.395 162.738C734.395 162.34 734.072 162.018 733.674 162.018C733.276 162.018 732.953 162.34 732.953 162.738C732.953 163.137 733.276 163.459 733.674 163.459Z" fill="black" stroke="black" stroke-width="0.5" stroke-miterlimit="10"/>
<path d="M727.502 169.045C727.9 169.045 728.223 168.722 728.223 168.324C728.223 167.926 727.9 167.604 727.502 167.604C727.104 167.604 726.781 167.926 726.781 168.324C726.781 168.722 727.104 169.045 727.502 169.045Z" fill="black" stroke="black" stroke-width="0.5" stroke-miterlimit="10"/>
<path d="M733.674 169.045C734.072 169.045 734.395 168.722 734.395 168.324C734.395 167.926 734.072 167.604 733.674 167.604C733.276 167.604 732.953 167.926 732.953 168.324C732.953 168.722 733.276 169.045 733.674 169.045Z" fill="black" stroke="black" stroke-width="0.5" stroke-miterlimit="10"/>
<path d="M816.729 163.459C817.127 163.459 817.45 163.137 817.45 162.738C817.45 162.34 817.127 162.018 816.729 162.018C816.331 162.018 816.008 162.34 816.008 162.738C816.008 163.137 816.331 163.459 816.729 163.459Z" fill="black" stroke="black" stroke-width="0.5" stroke-miterlimit="10"/>
<path d="M822.905 163.459C823.303 163.459 823.626 163.137 823.626 162.738C823.626 162.34 823.303 162.018 822.905 162.018C822.506 162.018 822.184 162.34 822.184 162.738C822.184 163.137 822.506 163.459 822.905 163.459Z" fill="black" stroke="black" stroke-width="0.5" stroke-miterlimit="10"/>
<path d="M816.729 169.045C817.127 169.045 817.45 168.722 817.45 168.324C817.45 167.926 817.127 167.604 816.729 167.604C816.331 167.604 816.008 167.926 816.008 168.324C816.008 168.722 816.331 169.045 816.729 169.045Z" fill="black" stroke="black" stroke-width="0.5" stroke-miterlimit="10"/>
<path d="M822.905 169.045C823.303 169.045 823.626 168.722 823.626 168.324C823.626 167.926 823.303 167.604 822.905 167.604C822.506 167.604 822.184 167.926 822.184 168.324C822.184 168.722 822.506 169.045 822.905 169.045Z" fill="black" stroke="black" stroke-width="0.5" stroke-miterlimit="10"/>
<path d="M905.955 163.459C906.354 163.459 906.676 163.137 906.676 162.738C906.676 162.34 906.354 162.018 905.955 162.018C905.557 162.018 905.234 162.34 905.234 162.738C905.234 163.137 905.557 163.459 905.955 163.459Z" fill="black" stroke="black" stroke-width="0.5" stroke-miterlimit="10"/>
<path d="M912.131 163.459C912.529 163.459 912.852 163.137 912.852 162.738C912.852 162.34 912.529 162.018 912.131 162.018C911.733 162.018 911.41 162.34 911.41 162.738C911.41 163.137 911.733 163.459 912.131 163.459Z" fill="black" stroke="black" stroke-width="0.5" stroke-miterlimit="10"/>
<path d="M905.955 169.045C906.354 169.045 906.676 168.722 906.676 168.324C906.676 167.926 906.354 167.604 905.955 167.604C905.557 167.604 905.234 167.926 905.234 168.324C905.234 168.722 905.557 169.045 905.955 169.045Z" fill="black" stroke="black" stroke-width="0.5" stroke-miterlimit="10"/>
<path d="M912.131 169.045C912.529 169.045 912.852 168.722 912.852 168.324C912.852 167.926 912.529 167.604 912.131 167.604C911.733 167.604 911.41 167.926 911.41 168.324C911.41 168.722 911.733 169.045 912.131 169.045Z" fill="black" stroke="black" stroke-width="0.5" stroke-miterlimit="10"/>
<path d="M995.178 163.459C995.576 163.459 995.899 163.137 995.899 162.738C995.899 162.34 995.576 162.018 995.178 162.018C994.78 162.018 994.457 162.34 994.457 162.738C994.457 163.137 994.78 163.459 995.178 163.459Z" fill="black" stroke="black" stroke-width="0.5" stroke-miterlimit="10"/>
<path d="M1001.35 163.459C1001.75 163.459 1002.07 163.137 1002.07 162.738C1002.07 162.34 1001.75 162.018 1001.35 162.018C1000.96 162.018 1000.63 162.34 1000.63 162.738C1000.63 163.137 1000.96 163.459 1001.35 163.459Z" fill="black" stroke="black" stroke-width="0.5" stroke-miterlimit="10"/>
<path d="M995.178 169.045C995.576 169.045 995.899 168.722 995.899 168.324C995.899 167.926 995.576 167.604 995.178 167.604C994.78 167.604 994.457 167.926 994.457 168.324C994.457 168.722 994.78 169.045 995.178 169.045Z" fill="black" stroke="black" stroke-width="0.5" stroke-miterlimit="10"/>
<path d="M1001.35 169.045C1001.75 169.045 1002.07 168.722 1002.07 168.324C1002.07 167.926 1001.75 167.604 1001.35 167.604C1000.96 167.604 1000.63 167.926 1000.63 168.324C1000.63 168.722 1000.96 169.045 1001.35 169.045Z" fill="black" stroke="black" stroke-width="0.5" stroke-miterlimit="10"/>
<path d="M1084.4 163.459C1084.8 163.459 1085.13 163.137 1085.13 162.738C1085.13 162.34 1084.8 162.018 1084.4 162.018C1084.01 162.018 1083.68 162.34 1083.68 162.738C1083.68 163.137 1084.01 163.459 1084.4 163.459Z" fill="black" stroke="black" stroke-width="0.5" stroke-miterlimit="10"/>
<path d="M1090.58 163.459C1090.98 163.459 1091.3 163.137 1091.3 162.738C1091.3 162.34 1090.98 162.018 1090.58 162.018C1090.18 162.018 1089.86 162.34 1089.86 162.738C1089.86 163.137 1090.18 163.459 1090.58 163.459Z" fill="black" stroke="black" stroke-width="0.5" stroke-miterlimit="10"/>
<path d="M1084.4 169.045C1084.8 169.045 1085.13 168.722 1085.13 168.324C1085.13 167.926 1084.8 167.604 1084.4 167.604C1084.01 167.604 1083.68 167.926 1083.68 168.324C1083.68 168.722 1084.01 169.045 1084.4 169.045Z" fill="black" stroke="black" stroke-width="0.5" stroke-miterlimit="10"/>
<path d="M1090.58 169.045C1090.98 169.045 1091.3 168.722 1091.3 168.324C1091.3 167.926 1090.98 167.604 1090.58 167.604C1090.18 167.604 1089.86 167.926 1089.86 168.324C1089.86 168.722 1090.18 169.045 1090.58 169.045Z" fill="black" stroke="black" stroke-width="0.5" stroke-miterlimit="10"/>
<path d="M140.004 247.77V256.22H277.671C280.809 256.22 283.493 253.963 284.03 250.873C284.212 249.842 284.306 248.807 284.319 247.77H140.004Z" fill="#A9A9A9" stroke="black" stroke-width="0.5" stroke-linecap="round" stroke-linejoin="round"/>
<path d="M140.002 240.855V247.77H284.318C284.324 247.657 284.324 247.549 284.324 247.437C284.324 244.228 283.554 241.046 282.051 238.169L281.427 234.578C281.169 233.096 280.088 231.89 278.642 231.475C269.97 228.978 260.99 227.709 251.967 227.709L234.913 216.294C224.882 209.582 213.083 206 201.015 206H153.715C148.874 206 144.647 209.272 143.43 213.956C142.291 218.349 141.435 222.804 140.862 227.298C140.29 231.789 140 236.319 140 240.855H140.002Z" fill="white" stroke="black" stroke-width="0.5" stroke-miterlimit="10"/>
<path d="M164.286 262.335C169.758 262.335 174.194 257.9 174.194 252.429C174.194 246.958 169.758 242.523 164.286 242.523C158.815 242.523 154.379 246.958 154.379 252.429C154.379 257.9 158.815 262.335 164.286 262.335Z" fill="white" stroke="black" stroke-width="0.5" stroke-miterlimit="10"/>
<path d="M164.286 257.945C167.333 257.945 169.802 255.476 169.802 252.429C169.802 249.383 167.333 246.914 164.286 246.914C161.239 246.914 158.77 249.383 158.77 252.429C158.77 255.476 161.239 257.945 164.286 257.945Z" fill="white" stroke="black" stroke-width="0.5" stroke-miterlimit="10"/>
<path d="M251.185 262.335C256.657 262.335 261.092 257.9 261.092 252.429C261.092 246.958 256.657 242.523 251.185 242.523C245.713 242.523 241.277 246.958 241.277 252.429C241.277 257.9 245.713 262.335 251.185 262.335Z" fill="white" stroke="black" stroke-width="0.5" stroke-miterlimit="10"/>
<path d="M251.184 257.945C254.231 257.945 256.701 255.476 256.701 252.429C256.701 249.383 254.231 246.914 251.184 246.914C248.138 246.914 245.668 249.383 245.668 252.429C245.668 255.476 248.138 257.945 251.184 257.945Z" fill="white" stroke="black" stroke-width="0.5" stroke-miterlimit="10"/>
<path d="M174.405 228.542L237.417 230.613C239.852 230.693 240.867 227.534 238.843 226.18L231.557 221.304C222.489 215.236 211.928 212.027 201.015 212.027H153.714C151.621 212.027 149.79 213.444 149.263 215.47C148.89 216.914 148.548 218.362 148.238 219.82C147.823 221.776 149.024 223.712 150.958 224.217L158.77 226.265C163.88 227.603 169.125 228.367 174.405 228.542Z" fill="white" stroke="black" stroke-width="0.5" stroke-miterlimit="10"/>
<path d="M205.438 212.205V229.56" stroke="black" stroke-width="0.5" stroke-miterlimit="10"/>
<path d="M176.75 224.378C175.928 224.378 175.189 224.203 174.533 223.853C173.875 223.503 173.351 223.024 172.963 222.414C172.574 221.805 172.379 221.118 172.379 220.354C172.379 219.582 172.574 218.89 172.963 218.279C173.351 217.671 173.877 217.188 174.54 216.833C175.202 216.478 175.95 216.301 176.781 216.301C177.406 216.301 177.978 216.406 178.497 216.62C179.018 216.831 179.481 217.145 179.885 217.558L178.309 219.085C178.122 218.874 177.9 218.719 177.644 218.625C177.385 218.531 177.098 218.481 176.781 218.481C176.408 218.481 176.083 218.558 175.804 218.713C175.526 218.865 175.303 219.083 175.139 219.364C174.975 219.645 174.892 219.97 174.892 220.341C174.892 220.711 174.975 221.023 175.139 221.311C175.303 221.596 175.528 221.816 175.813 221.971C176.098 222.124 176.422 222.202 176.783 222.202C177.123 222.202 177.421 222.149 177.68 222.043C177.938 221.937 178.158 221.773 178.345 221.551L179.921 223.094C179.506 223.518 179.036 223.84 178.517 224.055C177.996 224.273 177.408 224.381 176.752 224.381" fill="#10A96C"/>
<path d="M185.755 216.478V217.136C185.544 216.94 185.297 216.774 185.016 216.637C184.578 216.426 184.091 216.318 183.554 216.318C182.819 216.318 182.164 216.496 181.582 216.851C181 217.205 180.546 217.686 180.218 218.29C179.891 218.894 179.727 219.584 179.727 220.356C179.727 221.12 179.891 221.802 180.218 222.406C180.546 223.01 180.998 223.487 181.573 223.837C182.148 224.187 182.801 224.362 183.536 224.362C184.084 224.362 184.576 224.261 185.014 224.061C185.297 223.931 185.544 223.767 185.753 223.567V224.203H188.167V216.478H185.753H185.755ZM185.369 221.683C185.034 222.027 184.589 222.2 184.03 222.2C183.68 222.2 183.367 222.121 183.093 221.962C182.819 221.802 182.604 221.587 182.444 221.311C182.285 221.034 182.206 220.718 182.206 220.356C182.206 219.986 182.285 219.66 182.444 219.379C182.604 219.099 182.819 218.878 183.093 218.719C183.367 218.56 183.684 218.481 184.046 218.481C184.407 218.481 184.724 218.56 184.998 218.719C185.272 218.878 185.486 219.096 185.638 219.37C185.791 219.646 185.867 219.97 185.867 220.34C185.867 220.891 185.701 221.34 185.366 221.683H185.369Z" fill="#00A6BF"/>
<path d="M194.118 216.334C193.963 216.305 193.794 216.289 193.612 216.289C193.19 216.289 192.792 216.386 192.42 216.581C192.047 216.776 191.723 217.039 191.447 217.369C191.375 217.455 191.308 217.544 191.247 217.636L191.198 216.471H188.918V224.203H191.333V220.32C191.333 220.087 191.371 219.878 191.445 219.691C191.521 219.507 191.622 219.345 191.755 219.208C191.885 219.071 192.047 218.968 192.238 218.894C192.429 218.82 192.635 218.784 192.855 218.784C193.058 218.784 193.251 218.806 193.437 218.849C193.624 218.892 193.772 218.948 193.882 219.018L194.547 216.433C194.416 216.395 194.273 216.359 194.118 216.332V216.334Z" fill="#8280B8"/>
<path d="M169.478 216.467V220.853C169.478 221.589 168.86 222.187 168.098 222.187C167.337 222.187 166.719 221.589 166.719 220.853V216.467H164.289V220.68C164.289 222.714 165.998 224.367 168.101 224.367C170.203 224.367 171.912 222.712 171.912 220.68V216.467H169.48H169.478Z" fill="#EF664E"/>
<path d="M282.05 238.172H280.271C275.037 238.172 270.539 234.464 269.539 229.326" stroke="black" stroke-width="0.5" stroke-miterlimit="10"/>
<path d="M284.32 247.77H284.316" stroke="black" stroke-width="0.5" stroke-miterlimit="10"/>
<path d="M228.457 230.317V225.434C228.457 224.743 229.019 224.184 229.708 224.184C230.4 224.184 230.959 224.745 230.959 225.434V230.393" fill="black"/>
<path d="M228.457 230.317V225.434C228.457 224.743 229.019 224.184 229.708 224.184C230.4 224.184 230.959 224.745 230.959 225.434V230.393" stroke="black" stroke-width="0.5" stroke-miterlimit="10"/>
<path d="M219.139 219.476L218.602 219.819C218.602 219.819 218.519 223.668 216.08 222.525C215.678 222.337 216.812 223.659 216.194 223.765C212.904 224.326 211.801 224.162 211.801 224.162V217.899L217.802 215.795L218.112 217.547L219.231 218.916C219.375 219.092 219.332 219.354 219.141 219.476H219.139Z" fill="white" stroke="black" stroke-width="0.5" stroke-linejoin="round"/>
<path d="M217.389 219.06C217.562 219.06 217.703 218.92 217.703 218.746C217.703 218.572 217.562 218.432 217.389 218.432C217.215 218.432 217.074 218.572 217.074 218.746C217.074 218.92 217.215 219.06 217.389 219.06Z" fill="black"/>
<path d="M208.758 229.441C208.758 226.001 211.759 223.274 215.173 223.712C216.219 223.847 217.315 224.188 218.403 224.851C223.115 227.721 226.131 226.757 226.131 226.757V229.976C226.131 229.976 219.667 230.535 217.446 228.311V229.702L208.76 229.441H208.758Z" fill="white" stroke="black" stroke-width="0.5" stroke-linecap="round" stroke-linejoin="round"/>
<path d="M226.127 226.757C226.127 226.757 227.991 225.203 227.991 226.037C227.991 226.87 227.634 227.633 227.634 227.633C227.634 227.633 229.658 226.991 229.867 227.633C230.076 228.276 229.658 229.975 226.125 229.975V226.757H226.127Z" fill="white" stroke="black" stroke-width="0.5" stroke-linecap="round" stroke-linejoin="round"/>
<path d="M216.961 220.748L218.365 221.28" stroke="black" stroke-width="0.5" stroke-linecap="round" stroke-linejoin="round"/>
<path d="M211.8 221.572C211.8 220.986 211.539 220.431 211.092 220.051C210.807 219.809 210.587 219.351 210.8 218.486C211.245 216.678 211.025 217.224 212.64 215.609C214.185 214.064 214.915 213.829 216.961 214.275C219.007 214.72 219.731 216.144 218.513 216.53C217.296 216.916 215.724 218.311 213.648 218.044C212.608 217.909 211.899 220.121 213.558 220.328L211.797 221.574L211.8 221.572Z" fill="black" stroke="black" stroke-width="0.5" stroke-linecap="round" stroke-linejoin="round"/>
<path d="M734.454 238.81H725.944C720.115 238.81 714.662 235.92 711.398 231.092L707.762 225.709L723.911 229.531C728.81 230.69 732.727 234.216 734.454 238.81Z" stroke="black" stroke-width="0.5" stroke-miterlimit="10"/>
<path d="M690.81 205.983H657.738V197.285H678.117C683.739 197.285 688.781 200.741 690.81 205.983Z" fill="white" stroke="black" stroke-width="0.5" stroke-miterlimit="10"/>
<path d="M727.886 264.327H657.738V250.51H736.659L737.14 253.443C738.072 259.149 733.667 264.327 727.888 264.327H727.886Z" fill="#A9A9A9" stroke="black" stroke-width="0.5" stroke-linecap="round" stroke-linejoin="round"/>
<path d="M735.213 241.653C735.053 240.669 734.795 239.719 734.451 238.81H725.941C720.112 238.81 714.659 235.92 711.395 231.091L707.759 225.708L703.59 220.856L690.81 205.982H657.738V250.51H736.659L735.213 241.653ZM694.248 231.049C694.136 230.251 693.925 228.221 694.543 227.431C694.763 227.15 696.083 228.933 696.333 228.65C697.281 227.568 698.381 226.609 699.208 226.762C700.167 226.939 700.594 227.384 700.785 227.761C699.154 229.677 696.795 230.88 694.248 231.049Z" fill="white" stroke="black" stroke-width="0.5" stroke-miterlimit="10"/>
<path d="M700.785 227.761C701.659 226.739 702.324 225.513 702.699 224.132L703.591 220.855" stroke="black" stroke-width="0.5" stroke-miterlimit="10"/>
<path d="M694.246 231.049C693.37 231.109 692.472 231.044 691.573 230.844L691.454 230.817L680.502 228.379C679.784 228.217 679.085 228.008 678.411 227.754C672.531 225.531 668.52 219.87 668.52 213.434V205.982" stroke="black" stroke-width="0.5" stroke-miterlimit="10"/>
<path d="M707.757 276.076C714.818 276.076 720.542 270.354 720.542 263.294C720.542 256.235 714.818 250.512 707.757 250.512C700.697 250.512 694.973 256.235 694.973 263.294C694.973 270.354 700.697 276.076 707.757 276.076Z" fill="white" stroke="black" stroke-width="0.5" stroke-miterlimit="10"/>
<path d="M707.759 269.201C711.021 269.201 713.666 266.557 713.666 263.295C713.666 260.033 711.021 257.389 707.759 257.389C704.496 257.389 701.852 260.033 701.852 263.295C701.852 266.557 704.496 269.201 707.759 269.201Z" fill="white" stroke="black" stroke-width="0.5" stroke-miterlimit="10"/>
<path d="M651.312 232.26H518V250.513H651.312V232.26Z" fill="white" stroke="black" stroke-width="0.5" stroke-miterlimit="10"/>
<path d="M657.74 250.512H526.117V260.543H657.74V250.512Z" fill="#A9A9A9" stroke="black" stroke-width="0.5" stroke-linecap="round" stroke-linejoin="round"/>
<path d="M561.148 276.076C568.209 276.076 573.933 270.354 573.933 263.294C573.933 256.235 568.209 250.512 561.148 250.512C554.087 250.512 548.363 256.235 548.363 263.294C548.363 270.354 554.087 276.076 561.148 276.076Z" fill="white" stroke="black" stroke-width="0.5" stroke-miterlimit="10"/>
<path d="M561.149 269.201C564.412 269.201 567.057 266.557 567.057 263.295C567.057 260.033 564.412 257.389 561.149 257.389C557.887 257.389 555.242 260.033 555.242 263.295C555.242 266.557 557.887 269.201 561.149 269.201Z" fill="white" stroke="black" stroke-width="0.5" stroke-miterlimit="10"/>
<path d="M677.358 220.917L676.671 217.154C676.138 215.68 675.606 215.809 675.698 214.246C675.806 212.373 677.16 210.81 679 210.435L679.211 210.392C681.293 209.968 683.326 211.203 683.986 213.221C684.139 213.686 684.822 214.621 685.015 214.775C685.785 215.402 684.375 216.718 684.375 216.718C684.375 216.718 685.246 219.954 682.223 219.244L681.902 220.857" fill="white"/>
<path d="M677.358 220.917L676.671 217.154C676.138 215.68 675.606 215.809 675.698 214.246C675.806 212.373 677.16 210.81 679 210.435L679.211 210.392C681.293 209.968 683.326 211.203 683.986 213.221C684.139 213.686 684.822 214.621 685.015 214.775C685.785 215.402 684.375 216.718 684.375 216.718C684.375 216.718 685.246 219.954 682.223 219.244L681.902 220.857" stroke="black" stroke-width="0.5" stroke-linecap="round" stroke-linejoin="round"/>
<path d="M683.115 211.707C683.115 211.707 686.105 211.285 685.602 209.816C685.099 208.345 684.243 208.509 681.341 208.509C678.439 208.509 675.106 208.673 675.106 210.306C675.106 211.938 673.581 213.124 674.603 215.206C675.625 217.288 676.849 217.984 677.298 216.104C677.747 214.227 676.31 215.168 676.667 214.141C677.419 211.979 678.917 213.775 680.456 213.286C681.994 212.796 683.113 211.707 683.113 211.707H683.115Z" fill="black" stroke="black" stroke-width="0.5" stroke-linecap="round" stroke-linejoin="round"/>
<path d="M683.113 214.142C683.113 213.881 682.911 213.67 682.664 213.67C682.417 213.67 682.215 213.881 682.215 214.142C682.215 214.402 682.417 214.613 682.664 214.613C682.911 214.613 683.113 214.402 683.113 214.142Z" fill="black"/>
<path d="M682.215 216.787C682.215 216.787 682.788 217.966 684.481 217.753Z" fill="white"/>
<path d="M682.215 216.787C682.215 216.787 682.788 217.966 684.481 217.753" stroke="black" stroke-width="0.5" stroke-linecap="round" stroke-linejoin="round"/>
<path d="M675.801 226.47C676.27 223.858 677.263 219.576 678.718 219.61C683.579 219.726 685.589 226.753 686.211 229.648" stroke="black" stroke-width="0.5" stroke-linecap="round" stroke-linejoin="round"/>
<path d="M676.694 226.965C676.59 224.488 676.712 220.221 678.715 219.61C678.715 219.61 682.388 218.658 684.279 229.219" stroke="black" stroke-width="0.5" stroke-miterlimit="10"/>
<path d="M675.155 244.193C674.321 244.193 673.571 244.015 672.904 243.661C672.237 243.306 671.707 242.818 671.312 242.201C670.916 241.583 670.719 240.885 670.719 240.112C670.719 239.34 670.916 238.626 671.312 238.006C671.707 237.388 672.239 236.899 672.913 236.537C673.585 236.178 674.344 235.996 675.188 235.996C675.822 235.996 676.404 236.104 676.931 236.319C677.459 236.535 677.929 236.852 678.34 237.272L676.738 238.821C676.55 238.606 676.325 238.451 676.062 238.354C675.802 238.257 675.51 238.208 675.186 238.208C674.809 238.208 674.476 238.287 674.193 238.442C673.91 238.599 673.686 238.819 673.517 239.104C673.351 239.389 673.268 239.719 673.268 240.097C673.268 240.474 673.351 240.791 673.517 241.08C673.684 241.37 673.913 241.595 674.2 241.75C674.49 241.904 674.818 241.983 675.184 241.983C675.528 241.983 675.831 241.929 676.094 241.821C676.354 241.714 676.579 241.547 676.77 241.321L678.371 242.886C677.949 243.317 677.473 243.643 676.945 243.863C676.417 244.083 675.82 244.193 675.153 244.193H675.155Z" fill="#10A96C"/>
<path d="M684.292 236.173V236.84C684.077 236.643 683.828 236.472 683.542 236.335C683.098 236.12 682.603 236.012 682.058 236.012C681.312 236.012 680.645 236.191 680.056 236.553C679.468 236.914 679.005 237.4 678.673 238.013C678.34 238.626 678.172 239.324 678.172 240.11C678.172 240.896 678.338 241.579 678.673 242.192C679.005 242.805 679.466 243.29 680.05 243.645C680.634 244 681.298 244.177 682.042 244.177C682.597 244.177 683.098 244.074 683.542 243.872C683.83 243.739 684.079 243.573 684.292 243.371V244.018H686.743V236.176H684.292V236.173ZM683.902 241.457C683.562 241.808 683.109 241.983 682.543 241.983C682.188 241.983 681.869 241.902 681.593 241.74C681.314 241.579 681.094 241.359 680.935 241.078C680.773 240.797 680.692 240.476 680.692 240.11C680.692 239.744 680.773 239.403 680.935 239.118C681.096 238.832 681.316 238.61 681.593 238.448C681.871 238.287 682.192 238.206 682.561 238.206C682.929 238.206 683.25 238.287 683.529 238.448C683.807 238.61 684.023 238.83 684.18 239.111C684.335 239.391 684.414 239.719 684.414 240.094C684.414 240.654 684.245 241.109 683.906 241.457H683.902Z" fill="#00A6BF"/>
<path d="M692.784 236.027C692.627 235.998 692.454 235.982 692.272 235.982C691.843 235.982 691.438 236.081 691.061 236.279C690.684 236.476 690.354 236.744 690.073 237.078C689.999 237.166 689.931 237.256 689.871 237.35L689.821 236.167H687.508V244.013H689.958V240.072C689.958 239.834 689.996 239.623 690.073 239.434C690.149 239.248 690.255 239.084 690.387 238.944C690.52 238.805 690.684 238.7 690.877 238.626C691.07 238.551 691.279 238.516 691.506 238.516C691.71 238.516 691.906 238.538 692.094 238.583C692.283 238.628 692.433 238.684 692.546 238.754L693.22 236.131C693.087 236.09 692.941 236.057 692.784 236.027Z" fill="#8280B8"/>
<path d="M667.771 236.162V240.615C667.771 241.363 667.144 241.969 666.372 241.969C665.599 241.969 664.972 241.363 664.972 240.615V236.162H662.504V240.438C662.504 242.502 664.24 244.181 666.372 244.181C668.503 244.181 670.239 242.502 670.239 240.438V236.162H667.771Z" fill="#EF664E"/>
<path d="M651.312 241.385H518" stroke="black" stroke-width="0.5" stroke-miterlimit="10"/>
<path d="M588.916 196H545.922V208.086H588.916V196Z" fill="#A9A9A9" stroke="black" stroke-width="0.5" stroke-linecap="round" stroke-linejoin="round"/>
<path d="M588.916 208.086H545.922V220.172H588.916V208.086Z" fill="#A9A9A9" stroke="black" stroke-width="0.5" stroke-linecap="round" stroke-linejoin="round"/>
<path d="M588.916 220.172H545.922V232.258H588.916V220.172Z" fill="#A9A9A9" stroke="black" stroke-width="0.5" stroke-linecap="round" stroke-linejoin="round"/>
<path d="M567.418 196V232.259" stroke="black" stroke-width="0.5" stroke-linecap="round" stroke-linejoin="round"/>
<path d="M641.745 196H598.75V208.086H641.745V196Z" fill="#A9A9A9" stroke="black" stroke-width="0.5" stroke-linecap="round" stroke-linejoin="round"/>
<path d="M641.745 208.086H598.75V220.172H641.745V208.086Z" fill="#A9A9A9" stroke="black" stroke-width="0.5" stroke-linecap="round" stroke-linejoin="round"/>
<path d="M641.745 220.172H598.75V232.258H641.745V220.172Z" fill="#A9A9A9" stroke="black" stroke-width="0.5" stroke-linecap="round" stroke-linejoin="round"/>
<path d="M620.246 196V232.259" stroke="black" stroke-width="0.5" stroke-linecap="round" stroke-linejoin="round"/>
<path d="M699.12 222.826H697.453V228.589H699.12V222.826Z" fill="black" stroke="black" stroke-width="0.5" stroke-miterlimit="10"/>
<path d="M700.785 227.761C699.154 229.677 696.796 230.881 694.249 231.049C694.136 230.252 693.925 228.222 694.543 227.431C694.763 227.151 696.084 228.934 696.333 228.651C697.281 227.568 698.381 226.609 699.208 226.762C700.167 226.94 700.594 227.384 700.785 227.761Z" fill="white" stroke="black" stroke-width="0.5" stroke-miterlimit="10"/>
<path d="M905.538 238.95L926.863 241.357H1048.46C1052.06 241.357 1054.98 238.435 1054.98 234.833V232.318H927.337L899 229.172V231.635C899 235.381 901.814 238.532 905.538 238.952V238.95Z" fill="white" stroke="black" stroke-width="0.5" stroke-linecap="round" stroke-linejoin="round"/>
<path d="M899 229.17L927.337 232.318H1054.98V227.128C1054.98 226.924 1054.97 226.722 1054.95 226.52C1054.73 223.416 1052.74 220.688 1049.81 219.529C1046.07 218.045 1042.21 216.897 1038.28 216.091C1033.66 215.137 1028.94 214.656 1024.2 214.656C1023.57 214.656 1022.95 214.663 1022.32 214.681L1013.29 214.928L1007.56 211.269C997.037 204.562 984.818 201 972.341 201H959.063C947.879 201 936.856 203.618 926.869 208.644L918.788 212.711L909.26 212.615C905.79 212.581 902.96 215.384 902.96 218.853C902.96 220.757 902.607 222.63 901.938 224.38C901.269 226.127 900.276 227.753 899 229.17Z" fill="#A9A9A9" stroke="black" stroke-width="0.5" stroke-linecap="round" stroke-linejoin="round"/>
<path d="M1008.59 221.243C1009.43 221.268 1009.76 219.925 1009.06 219.37L1004.25 215.636C994.703 208.216 983.67 204.293 972.345 204.293H959.066C948.898 204.293 938.724 207.239 929.64 212.811L923.194 216.765C922.419 217.242 922.682 218.663 923.549 218.688L1008.59 221.241L1008.59 221.243Z" fill="white" stroke="black" stroke-width="0.5" stroke-miterlimit="10"/>
<path d="M1028.98 248.966C1035.32 248.966 1040.46 243.826 1040.46 237.484C1040.46 231.143 1035.32 226.002 1028.98 226.002C1022.63 226.002 1017.49 231.143 1017.49 237.484C1017.49 243.826 1022.63 248.966 1028.98 248.966Z" fill="white" stroke="black" stroke-width="0.5" stroke-miterlimit="10"/>
<path d="M1028.98 242.651C1031.83 242.651 1034.15 240.338 1034.15 237.484C1034.15 234.63 1031.83 232.316 1028.98 232.316C1026.12 232.316 1023.81 234.63 1023.81 237.484C1023.81 240.338 1026.12 242.651 1028.98 242.651Z" fill="white" stroke="black" stroke-width="0.5" stroke-miterlimit="10"/>
<path d="M935.281 248.966C941.624 248.966 946.765 243.826 946.765 237.484C946.765 231.143 941.624 226.002 935.281 226.002C928.939 226.002 923.797 231.143 923.797 237.484C923.797 243.826 928.939 248.966 935.281 248.966Z" fill="white" stroke="black" stroke-width="0.5" stroke-miterlimit="10"/>
<path d="M935.281 242.651C938.136 242.651 940.45 240.338 940.45 237.484C940.45 234.63 938.136 232.316 935.281 232.316C932.427 232.316 930.113 234.63 930.113 237.484C930.113 240.338 932.427 242.651 935.281 242.651Z" fill="white" stroke="black" stroke-width="0.5" stroke-miterlimit="10"/>
<path d="M1038.28 216.092C1038.36 219.321 1040.75 222.932 1044.65 225.189C1048.23 227.251 1052.14 227.646 1054.95 226.523C1054.73 223.419 1052.74 220.691 1049.81 219.532C1046.07 218.048 1042.21 216.9 1038.28 216.094V216.092Z" fill="white" stroke="black" stroke-width="0.5" stroke-miterlimit="10"/>
<path d="M968.625 204.295V220.044" stroke="black" stroke-width="0.5" stroke-miterlimit="10"/>
<path d="M992.784 220.719H995.562V213.674H992.784V220.719Z" fill="black" stroke="black" stroke-width="0.5" stroke-miterlimit="10"/>
<path d="M983.64 209.728H982.589C982.589 209.728 983.64 213.308 980.507 212.656C980.038 212.56 980.653 213.882 979.984 213.997C976.421 214.603 975.227 214.426 975.227 214.426V207.646L981.722 205.369L982.057 207.267L983.64 209.728Z" fill="white" stroke="black" stroke-width="0.5" stroke-linejoin="round"/>
<path d="M981.277 208.907C981.464 208.907 981.616 208.755 981.616 208.568C981.616 208.38 981.464 208.229 981.277 208.229C981.089 208.229 980.938 208.38 980.938 208.568C980.938 208.755 981.089 208.907 981.277 208.907Z" fill="black"/>
<path d="M981.176 210.576C981.176 210.576 981.791 211.223 982.604 210.859Z" fill="white"/>
<path d="M981.176 210.576C981.176 210.576 981.791 211.223 982.604 210.859" stroke="black" stroke-width="0.5" stroke-linecap="round" stroke-linejoin="round"/>
<path d="M971.932 220.143C971.932 216.42 975.18 213.469 978.875 213.943C980.007 214.089 981.195 214.457 982.369 215.173C987.468 218.281 990.734 217.237 990.734 217.237V220.72C990.734 220.72 983.737 221.324 981.332 218.919V220.424L971.93 220.141L971.932 220.143Z" fill="white" stroke="black" stroke-width="0.5" stroke-linecap="round" stroke-linejoin="round"/>
<path d="M990.734 217.236C990.734 217.236 992.754 215.554 992.754 216.455C992.754 217.355 992.367 218.182 992.367 218.182C992.367 218.182 994.559 217.488 994.784 218.182C995.009 218.875 994.557 220.717 990.734 220.717V217.234V217.236Z" fill="white" stroke="black" stroke-width="0.5" stroke-linecap="round" stroke-linejoin="round"/>
<path d="M982.591 203.996C983.371 204.524 983.321 205.685 982.504 206.152C981.502 206.723 980.06 207.663 978.4 207.893C977.852 207.969 976.444 206.956 976.444 208.566C976.444 209.44 975.227 210.226 975.227 210.617V206.949C975.227 205.6 976.404 204.553 977.742 204.708L978.557 204.802C979.177 204.874 979.804 204.704 980.3 204.326L980.887 203.882C981.32 203.552 981.918 203.536 982.367 203.844L982.589 203.994L982.591 203.996Z" fill="black" stroke="black" stroke-width="0.5" stroke-linecap="round" stroke-linejoin="round"/>
<path d="M309.97 194H305.828V219.538H309.97V194Z" fill="white" stroke="black" stroke-width="0.5" stroke-miterlimit="10"/>
<path d="M404.326 194H400.184V219.538H404.326V194Z" fill="white" stroke="black" stroke-width="0.5" stroke-miterlimit="10"/>
<path d="M498.681 194H494.539V219.538H498.681V194Z" fill="white" stroke="black" stroke-width="0.5" stroke-miterlimit="10"/>
<path d="M514 199H294V213H514V199Z" fill="white" stroke="black" stroke-width="0.5" stroke-miterlimit="10"/>
<path d="M304.626 204.031C305.045 204.031 305.384 203.691 305.384 203.271C305.384 202.85 305.045 202.51 304.626 202.51C304.207 202.51 303.867 202.85 303.867 203.271C303.867 203.691 304.207 204.031 304.626 204.031Z" fill="black" stroke="black" stroke-width="0.5" stroke-miterlimit="10"/>
<path d="M311.153 204.031C311.572 204.031 311.912 203.691 311.912 203.271C311.912 202.85 311.572 202.51 311.153 202.51C310.734 202.51 310.395 202.85 310.395 203.271C310.395 203.691 310.734 204.031 311.153 204.031Z" fill="black" stroke="black" stroke-width="0.5" stroke-miterlimit="10"/>
<path d="M304.626 209.959C305.045 209.959 305.384 209.619 305.384 209.198C305.384 208.778 305.045 208.438 304.626 208.438C304.207 208.438 303.867 208.778 303.867 209.198C303.867 209.619 304.207 209.959 304.626 209.959Z" fill="black" stroke="black" stroke-width="0.5" stroke-miterlimit="10"/>
<path d="M311.153 209.959C311.572 209.959 311.912 209.619 311.912 209.198C311.912 208.778 311.572 208.438 311.153 208.438C310.734 208.438 310.395 208.778 310.395 209.198C310.395 209.619 310.734 209.959 311.153 209.959Z" fill="black" stroke="black" stroke-width="0.5" stroke-miterlimit="10"/>
<path d="M398.985 204.031C399.404 204.031 399.744 203.691 399.744 203.271C399.744 202.85 399.404 202.51 398.985 202.51C398.566 202.51 398.227 202.85 398.227 203.271C398.227 203.691 398.566 204.031 398.985 204.031Z" fill="black" stroke="black" stroke-width="0.5" stroke-miterlimit="10"/>
<path d="M405.512 204.031C405.931 204.031 406.271 203.691 406.271 203.271C406.271 202.85 405.931 202.51 405.512 202.51C405.094 202.51 404.754 202.85 404.754 203.271C404.754 203.691 405.094 204.031 405.512 204.031Z" fill="black" stroke="black" stroke-width="0.5" stroke-miterlimit="10"/>
<path d="M398.985 209.959C399.404 209.959 399.744 209.619 399.744 209.198C399.744 208.778 399.404 208.438 398.985 208.438C398.566 208.438 398.227 208.778 398.227 209.198C398.227 209.619 398.566 209.959 398.985 209.959Z" fill="black" stroke="black" stroke-width="0.5" stroke-miterlimit="10"/>
<path d="M405.512 209.959C405.931 209.959 406.271 209.619 406.271 209.198C406.271 208.778 405.931 208.438 405.512 208.438C405.094 208.438 404.754 208.778 404.754 209.198C404.754 209.619 405.094 209.959 405.512 209.959Z" fill="black" stroke="black" stroke-width="0.5" stroke-miterlimit="10"/>
<path d="M493.337 204.031C493.756 204.031 494.095 203.691 494.095 203.271C494.095 202.85 493.756 202.51 493.337 202.51C492.918 202.51 492.578 202.85 492.578 203.271C492.578 203.691 492.918 204.031 493.337 204.031Z" fill="black" stroke="black" stroke-width="0.5" stroke-miterlimit="10"/>
<path d="M499.864 204.031C500.283 204.031 500.623 203.691 500.623 203.271C500.623 202.85 500.283 202.51 499.864 202.51C499.445 202.51 499.105 202.85 499.105 203.271C499.105 203.691 499.445 204.031 499.864 204.031Z" fill="black" stroke="black" stroke-width="0.5" stroke-miterlimit="10"/>
<path d="M493.337 209.959C493.756 209.959 494.095 209.619 494.095 209.198C494.095 208.778 493.756 208.438 493.337 208.438C492.918 208.438 492.578 208.778 492.578 209.198C492.578 209.619 492.918 209.959 493.337 209.959Z" fill="black" stroke="black" stroke-width="0.5" stroke-miterlimit="10"/>
<path d="M499.864 209.959C500.283 209.959 500.623 209.619 500.623 209.198C500.623 208.778 500.283 208.438 499.864 208.438C499.445 208.438 499.105 208.778 499.105 209.198C499.105 209.619 499.445 209.959 499.864 209.959Z" fill="black" stroke="black" stroke-width="0.5" stroke-miterlimit="10"/>
</g>
<defs>
<clipPath id="clip0_376_11615">
<rect width="1200" height="304" fill="white"/>
</clipPath>
</defs>
</svg>
