<svg width="2043" height="289" viewBox="0 0 2043 289" fill="none" xmlns="http://www.w3.org/2000/svg">
<path d="M0 288.99L84.5823 78.268H135.753L219.733 288.99H155.318L121.606 196.874C119.398 190.653 117.492 185.335 115.887 180.92C114.281 176.504 112.877 172.39 111.673 168.577C110.469 164.564 109.265 160.349 108.061 155.934C106.857 151.318 105.653 145.9 104.449 139.678H114.683C113.479 145.9 112.275 151.318 111.071 155.934C109.867 160.349 108.562 164.564 107.158 168.577C105.954 172.39 104.449 176.504 102.643 180.92C101.037 185.335 99.1308 190.653 96.9235 196.874L63.211 288.99H0ZM42.1406 257.682L61.1039 213.431H158.93L176.088 257.682H42.1406Z" fill="#181A1C" fill-opacity="0.05"/>
<path d="M306.312 289C300.318 287.708 294.526 285.999 288.934 283.872C274.887 278.454 262.646 270.928 252.211 261.295C241.977 251.461 234.051 239.821 228.432 226.375C222.813 212.929 220.004 198.179 220.004 182.124C220.004 166.069 222.813 151.318 228.432 137.872C234.251 124.426 242.378 112.887 252.813 103.254C263.248 93.4199 275.589 85.7938 289.837 80.3753C304.285 74.9567 320.138 72.2474 337.396 72.2474C347.228 72.2474 356.86 73.4516 366.292 75.8598C375.924 78.0674 384.954 81.5794 393.382 86.3959C402.011 91.0117 409.837 96.932 416.861 104.157L378.031 149.612C375.222 146.201 371.81 143.09 367.797 140.28C363.984 137.471 359.469 135.263 354.252 133.658C349.235 131.852 343.416 130.948 336.793 130.948C329.971 130.948 323.449 132.153 317.228 134.561C311.208 136.768 305.89 140.08 301.275 144.495C296.86 148.91 293.348 154.329 290.74 160.751C288.131 167.173 286.827 174.598 286.827 183.027C286.827 190.653 288.131 197.577 290.74 203.798C293.348 210.019 297.061 215.337 301.877 219.753C306.693 224.168 312.512 227.579 319.335 229.988C326.158 232.396 333.783 233.6 342.212 233.6C348.232 233.6 353.951 232.697 359.369 230.891C364.787 229.085 369.703 226.777 374.118 223.967C378.533 220.957 382.346 217.645 385.556 214.033L416.56 262.8C411.342 268.419 404.419 273.436 395.79 277.852C387.162 282.267 377.63 285.779 367.195 288.388C366.297 288.595 365.399 288.793 364.5 288.982C344.5 288.982 325.5 289 306.312 289Z" fill="#181A1C" fill-opacity="0.05"/>
<path d="M494.242 288.99V133.658H429.225V78.268H626.082V133.658H559.259V288.99H494.242Z" fill="#181A1C" fill-opacity="0.05"/>
<path d="M731 288.916C721.432 287.202 712.533 284.317 704.304 280.26C690.257 273.035 679.22 263.201 671.193 250.759C663.166 238.316 659.153 224.067 659.153 208.012V78.268H724.772V205.303C724.772 211.123 725.976 216.341 728.384 220.957C730.792 225.372 734.103 228.884 738.317 231.493C742.732 234.102 747.648 235.406 753.066 235.406C758.886 235.406 764.003 234.102 768.417 231.493C772.832 228.884 776.344 225.372 778.953 220.957C781.561 216.341 782.866 211.123 782.866 205.303V78.268H846.98V208.012C846.98 224.067 842.966 238.316 834.94 250.759C826.913 263.201 815.776 273.035 801.528 280.26C793.415 284.317 784.519 287.286 775 289C760.921 289 745.5 288.916 731 288.916Z" fill="#181A1C" fill-opacity="0.05"/>
<path d="M859.215 288.99L943.797 78.268H994.968L1078.95 288.99H1014.53L980.821 196.874C978.614 190.653 976.707 185.335 975.102 180.92C973.496 176.504 972.092 172.39 970.888 168.577C969.684 164.564 968.48 160.349 967.276 155.934C966.072 151.318 964.868 145.9 963.664 139.678H973.898C972.694 145.9 971.49 151.318 970.286 155.934C969.082 160.349 967.777 164.564 966.373 168.577C965.169 172.39 963.664 176.504 961.858 180.92C960.252 185.335 958.346 190.653 956.138 196.874L922.426 288.99H859.215ZM901.356 257.682L920.319 213.431H1018.15L1035.3 257.682H901.356Z" fill="#181A1C" fill-opacity="0.05"/>
<path d="M1097.14 288.99V78.268H1162.15V233.6H1252.46V288.99H1097.14Z" fill="#181A1C" fill-opacity="0.05"/>
<path d="M1281.12 288.99V236.309H1318.14V130.948H1281.12V78.268H1420.18V130.948H1383.16V236.309H1420.18V288.99H1281.12Z" fill="#181A1C" fill-opacity="0.05"/>
<path d="M1516.89 288.99V133.658H1451.88V78.268H1648.73V133.658H1581.91V288.99H1516.89Z" fill="#181A1C" fill-opacity="0.05"/>
<path d="M1681.8 288.99V78.268H1839.23V130.948H1744.11V236.309H1844.65V288.99H1681.8ZM1712.81 207.109V157.74H1828.09V207.109H1712.81ZM1732.97 65.6247L1720.03 34.9196L1788.66 0L1806.72 41.2412L1732.97 65.6247Z" fill="#181A1C" fill-opacity="0.05"/>
<path d="M1923.37 289C1920.31 288.388 1917.34 287.682 1914.47 286.883C1902.43 283.27 1891.8 278.253 1882.56 271.831C1873.53 265.409 1865.41 257.883 1858.18 249.254L1895.81 207.109C1905.84 219.953 1916.28 228.482 1927.11 232.697C1938.15 236.711 1948.48 238.718 1958.12 238.718C1961.93 238.718 1965.34 238.417 1968.35 237.814C1971.36 237.012 1973.67 235.808 1975.27 234.202C1976.88 232.597 1977.68 230.389 1977.68 227.579C1977.68 224.97 1976.78 222.763 1974.97 220.957C1973.37 219.151 1971.16 217.645 1968.35 216.441C1965.54 215.036 1962.43 213.933 1959.02 213.13C1955.81 212.126 1952.6 211.324 1949.39 210.722C1946.38 210.12 1943.67 209.518 1941.26 208.915C1929.22 206.106 1918.69 202.694 1909.65 198.68C1900.62 194.667 1893.1 189.85 1887.08 184.231C1881.06 178.612 1876.54 172.19 1873.53 164.965C1870.73 157.74 1869.32 149.612 1869.32 140.581C1869.32 130.346 1871.63 121.014 1876.24 112.586C1881.06 104.157 1887.38 96.932 1895.21 90.9113C1903.23 84.8907 1912.26 80.2749 1922.3 77.0639C1932.53 73.8529 1943.07 72.2474 1953.9 72.2474C1969.76 72.2474 1983 73.7526 1993.64 76.7629C2004.27 79.5725 2013.2 83.6866 2020.42 89.1052C2027.65 94.5237 2033.87 100.845 2039.09 108.07L2001.16 144.495C1996.75 140.28 1992.13 136.869 1987.31 134.26C1982.5 131.45 1977.48 129.443 1972.26 128.239C1967.25 126.834 1962.23 126.132 1957.21 126.132C1952.6 126.132 1948.69 126.533 1945.47 127.336C1942.26 127.938 1939.76 129.042 1937.95 130.647C1936.14 132.052 1935.24 134.059 1935.24 136.668C1935.24 139.277 1936.34 141.485 1938.55 143.291C1940.96 144.896 1943.87 146.301 1947.28 147.505C1950.89 148.709 1954.4 149.713 1957.82 150.515C1961.43 151.118 1964.44 151.619 1966.85 152.021C1977.88 154.027 1988.02 156.837 1997.25 160.449C2006.48 163.861 2014.5 168.276 2021.33 173.695C2028.35 178.913 2033.67 185.535 2037.28 193.563C2041.09 201.39 2043 210.722 2043 221.559C2043 237.012 2039.09 249.956 2031.26 260.392C2023.64 270.827 2013.3 278.755 2000.26 284.173C1995.29 286.161 1990.1 287.77 1984.7 289C1965.5 289 1943.5 289 1923.37 289Z" fill="#181A1C" fill-opacity="0.05"/>
</svg>
