<svg width="724" height="388" viewBox="0 0 724 388" fill="none" xmlns="http://www.w3.org/2000/svg">
<path d="M17.9783 202.554C17.9783 197.938 15.7397 192.3 13.5412 187.894C11.5625 183.918 7.14532 183.918 5.16661 187.894C2.96804 192.3 0.729492 197.938 0.729492 202.554C0.729492 210.986 4.06732 213.089 8.36453 213.34V221.311H10.3432V213.34C14.6405 213.089 17.9783 210.986 17.9783 202.554Z" fill="white" stroke="black" stroke-width="0.73" stroke-linecap="round" stroke-linejoin="round"/>
<path d="M31.0798 132.936H30.5801C30.5801 127.138 25.8932 122.441 20.1069 122.441C14.3207 122.441 9.63374 127.138 9.63374 132.936H9.13406C4.75691 132.936 1.20921 136.491 1.20921 140.877H1.19922C1.19922 145.264 4.74691 148.819 9.12407 148.819H31.0798C35.457 148.819 39.0046 145.264 39.0046 140.877C39.0046 136.491 35.457 132.936 31.0798 132.936Z" fill="white" stroke="black" stroke-width="0.73" stroke-linecap="round" stroke-linejoin="round"/>
<path d="M93.1394 215.67H79.848H66.5566V202.752V194.911L79.848 184.336L93.1394 194.911V202.752V215.67Z" stroke="black" stroke-width="0.73" stroke-linecap="round" stroke-linejoin="round"/>
<path d="M103.372 215.65V174.122L115.404 162.065L127.936 174.622H135.081V140.014H149.922V155.956L176.584 182.684H196.152V199.057H211.422V215.65H103.372Z" stroke="black" stroke-width="0.73" stroke-linecap="round" stroke-linejoin="round"/>
<path d="M69.9841 195.654C69.9841 189.335 66.9261 181.634 63.918 175.606C61.2098 170.168 55.1737 170.168 52.4655 175.606C49.4574 181.634 46.3994 189.335 46.3994 195.654C46.3994 207.18 50.9664 210.054 56.8426 210.405V221.31H59.5409V210.405C65.417 210.054 69.9841 207.18 69.9841 195.654Z" fill="white" stroke="black" stroke-width="0.73" stroke-linecap="round" stroke-linejoin="round"/>
<path d="M534.533 205.639C534.533 205.919 534.603 206.2 534.753 206.46L535.613 207.972C535.613 207.972 535.652 208.042 535.672 208.082C536.202 208.944 537.121 209.494 538.121 209.584C538.551 206.039 541.559 203.296 545.216 203.296C546.475 203.296 547.665 203.626 548.684 204.197C550.913 205.439 553.381 206.21 555.929 206.35L576.726 207.562C578.684 207.672 580.623 207.051 582.112 205.779C583.182 204.858 584.581 204.307 586.1 204.307C587.619 204.307 589.018 204.868 590.087 205.789C591.086 206.65 592.296 207.211 593.585 207.471L597.352 208.223L597.612 206.48C597.662 206.18 597.672 205.869 597.662 205.569C597.592 203.436 596.133 201.543 594.005 200.972L593.495 200.832L583.202 198.088C582.932 198.128 582.662 198.158 582.392 198.188H582.302C582.062 198.228 581.822 198.248 581.573 198.279C580.403 198.399 579.234 198.469 578.065 198.509C577.785 198.509 577.495 198.529 577.215 198.529C576.536 198.539 575.856 198.529 575.177 198.529C574.787 198.529 574.397 198.509 574.008 198.489L561.716 197.938L548.404 197.347C547.345 197.297 546.515 196.426 546.515 195.364C546.515 194.974 546.625 194.613 546.825 194.293C547.025 193.982 547.315 193.722 547.665 193.562L553.041 191.068H547.275C546.016 191.068 544.787 191.489 543.797 192.27L537.341 197.658C536.222 198.589 535.612 199.991 535.692 201.443L535.772 202.935C535.802 203.476 535.573 203.987 535.153 204.327C534.743 204.647 534.533 205.128 534.533 205.619V205.639Z" fill="white" stroke="black" stroke-width="0.73" stroke-linecap="round" stroke-linejoin="round"/>
<path d="M579.964 210.205L592.226 210.385L597.023 210.455L597.353 208.222L593.585 207.471C592.296 207.21 591.077 206.65 590.087 205.788C589.018 204.867 587.619 204.306 586.1 204.306C584.581 204.306 583.182 204.857 582.113 205.778C580.623 207.06 578.685 207.681 576.726 207.561L555.93 206.349C553.381 206.199 550.913 205.438 548.684 204.196C547.655 203.625 546.476 203.295 545.217 203.295C541.559 203.295 538.551 206.039 538.121 209.584C538.211 209.584 538.301 209.594 538.391 209.594L579.974 210.195L579.964 210.205Z" fill="#A9A9A9" stroke="black" stroke-width="0.73" stroke-linecap="round" stroke-linejoin="round"/>
<path d="M546.516 195.364C546.516 196.426 547.345 197.297 548.404 197.347L574.008 198.489C577.076 198.629 580.154 198.489 583.202 198.098L574.318 193.021C572.089 191.749 569.571 191.078 567.002 191.078H553.041L547.665 193.572C547.315 193.732 547.025 193.992 546.825 194.303C546.626 194.613 546.516 194.984 546.516 195.374V195.364Z" fill="white" stroke="black" stroke-width="0.73" stroke-linecap="round" stroke-linejoin="round"/>
<path d="M561.716 197.938L560.916 191.078" stroke="black" stroke-width="0.73" stroke-linecap="round" stroke-linejoin="round"/>
<path d="M586.09 214.823C588.502 214.823 590.457 212.863 590.457 210.446C590.457 208.03 588.502 206.07 586.09 206.07C583.678 206.07 581.723 208.03 581.723 210.446C581.723 212.863 583.678 214.823 586.09 214.823Z" fill="white" stroke="black" stroke-width="0.73" stroke-linecap="round" stroke-linejoin="round"/>
<path d="M586.09 213.109C587.558 213.109 588.748 211.916 588.748 210.445C588.748 208.974 587.558 207.781 586.09 207.781C584.622 207.781 583.432 208.974 583.432 210.445C583.432 211.916 584.622 213.109 586.09 213.109Z" fill="white" stroke="black" stroke-width="0.73" stroke-linecap="round" stroke-linejoin="round"/>
<path d="M545.206 214.823C547.618 214.823 549.573 212.863 549.573 210.446C549.573 208.03 547.618 206.07 545.206 206.07C542.794 206.07 540.839 208.03 540.839 210.446C540.839 212.863 542.794 214.823 545.206 214.823Z" fill="white" stroke="black" stroke-width="0.73" stroke-linecap="round" stroke-linejoin="round"/>
<path d="M545.206 213.109C546.674 213.109 547.864 211.916 547.864 210.445C547.864 208.974 546.674 207.781 545.206 207.781C543.738 207.781 542.548 208.974 542.548 210.445C542.548 211.916 543.738 213.109 545.206 213.109Z" fill="white" stroke="black" stroke-width="0.73" stroke-linecap="round" stroke-linejoin="round"/>
<path d="M340.989 201.113H277.65V206.1H340.989V201.113Z" fill="#A9A9A9" stroke="black" stroke-width="0.73" stroke-linecap="round" stroke-linejoin="round"/>
<path d="M277.65 182.857V208.343H251.907C249.348 208.343 247.3 206.26 247.3 203.727C247.3 203.657 247.3 203.587 247.3 203.517L247.46 199.771L247.5 199.541C247.54 199.321 247.59 199.1 247.65 198.88C248.389 196.186 250.588 194.053 253.426 193.312L253.746 193.232L254.825 192.952L256.074 192.621C257.683 192.201 259.122 191.339 260.221 190.138L266.168 183.649C266.627 183.148 267.287 182.867 267.976 182.867H277.63L277.65 182.857Z" fill="white" stroke="black" stroke-width="0.73" stroke-linecap="round" stroke-linejoin="round"/>
<path d="M251.668 197.659C250.468 198.59 249.009 198.991 247.66 198.88C248.4 196.187 250.598 194.054 253.436 193.313L253.756 193.232C253.896 194.805 253.157 196.507 251.658 197.659H251.668Z" fill="white" stroke="black" stroke-width="0.73" stroke-miterlimit="10"/>
<path d="M269.386 185.12C268.506 185.12 267.667 185.48 267.087 186.111L262.86 190.708C262.32 191.298 262.021 192.049 262.021 192.831V194.673C262.021 195.614 263 196.285 263.929 195.965L275.262 192.18V185.1H269.366L269.386 185.12Z" fill="white" stroke="black" stroke-width="0.73" stroke-miterlimit="10"/>
<path d="M277.65 182.857H264.849C264.849 177.62 268.496 173.023 273.783 171.621L277.65 170.59V182.857Z" fill="white" stroke="black" stroke-width="0.73" stroke-miterlimit="10"/>
<path d="M340.989 170.59H277.65V201.113H340.989V170.59Z" fill="white" stroke="black" stroke-width="0.73" stroke-miterlimit="10"/>
<path d="M342.948 196.587L340.959 196.567L341.139 180.034C341.139 179.603 341.738 179.483 341.898 179.883C342.048 180.254 342.138 180.634 342.158 181.035L342.948 196.587Z" fill="#A9A9A9" stroke="black" stroke-width="0.73" stroke-linecap="round" stroke-linejoin="round"/>
<path d="M342.968 198.579C344.121 198.579 345.056 197.687 345.056 196.587C345.056 195.486 344.121 194.594 342.968 194.594C341.814 194.594 340.879 195.486 340.879 196.587C340.879 197.687 341.814 198.579 342.968 198.579Z" fill="white" stroke="black" stroke-width="0.73" stroke-miterlimit="10"/>
<path d="M306.772 190.537C305.992 190.537 305.283 190.367 304.663 190.036C304.034 189.706 303.544 189.245 303.164 188.664C302.794 188.084 302.604 187.433 302.604 186.702C302.604 185.971 302.794 185.3 303.164 184.719C303.534 184.138 304.034 183.677 304.663 183.337C305.293 182.996 306.002 182.826 306.802 182.826C307.391 182.826 307.941 182.926 308.441 183.127C308.94 183.327 309.38 183.627 309.76 184.018L308.261 185.47C308.081 185.27 307.871 185.119 307.631 185.029C307.381 184.939 307.112 184.889 306.812 184.889C306.462 184.889 306.142 184.959 305.882 185.109C305.613 185.26 305.403 185.46 305.253 185.73C305.093 186.001 305.023 186.311 305.023 186.662C305.023 187.012 305.103 187.312 305.253 187.583C305.413 187.853 305.623 188.064 305.892 188.214C306.162 188.364 306.472 188.434 306.812 188.434C307.132 188.434 307.421 188.384 307.661 188.284C307.911 188.184 308.121 188.024 308.291 187.813L309.79 189.285C309.39 189.686 308.95 189.996 308.451 190.207C307.951 190.417 307.391 190.517 306.772 190.517" fill="#10A96C"/>
<path d="M315.346 182.996V183.627C315.146 183.436 314.906 183.286 314.646 183.156C314.226 182.956 313.767 182.855 313.257 182.855C312.557 182.855 311.928 183.026 311.378 183.366C310.829 183.707 310.389 184.167 310.079 184.738C309.769 185.319 309.609 185.97 309.609 186.711C309.609 187.452 309.769 188.093 310.079 188.664C310.389 189.244 310.819 189.695 311.368 190.026C311.918 190.356 312.537 190.526 313.237 190.526C313.757 190.526 314.226 190.426 314.646 190.236C314.916 190.116 315.146 189.955 315.346 189.765V190.376H317.644V183.006H315.346V182.996ZM314.976 187.963C314.656 188.293 314.236 188.453 313.697 188.453C313.367 188.453 313.067 188.373 312.807 188.223C312.547 188.073 312.338 187.863 312.188 187.602C312.038 187.342 311.958 187.031 311.958 186.691C311.958 186.35 312.038 186.03 312.188 185.76C312.338 185.489 312.547 185.279 312.807 185.129C313.067 184.978 313.367 184.898 313.717 184.898C314.066 184.898 314.366 184.978 314.626 185.129C314.886 185.279 315.086 185.489 315.236 185.75C315.386 186.01 315.456 186.32 315.456 186.671C315.456 187.202 315.296 187.622 314.976 187.953V187.963Z" fill="#00A6BF"/>
<path d="M323.321 182.856C323.171 182.826 323.011 182.816 322.841 182.816C322.442 182.816 322.062 182.907 321.702 183.097C321.352 183.287 321.042 183.537 320.773 183.848C320.703 183.928 320.643 184.018 320.583 184.098L320.533 182.987H318.364V190.367H320.663V186.662C320.663 186.442 320.703 186.241 320.773 186.061C320.843 185.881 320.943 185.731 321.062 185.6C321.182 185.47 321.342 185.37 321.522 185.3C321.702 185.23 321.902 185.2 322.112 185.2C322.302 185.2 322.492 185.22 322.661 185.26C322.841 185.3 322.981 185.36 323.081 185.42L323.711 182.957C323.591 182.917 323.451 182.887 323.301 182.856H323.321Z" fill="#8280B8"/>
<path d="M299.846 182.986V187.172C299.846 187.873 299.256 188.444 298.537 188.444C297.807 188.444 297.228 187.873 297.228 187.172V182.986H294.909V187.002C294.909 188.945 296.538 190.517 298.537 190.517C300.535 190.517 302.164 188.935 302.164 187.002V182.986H299.846Z" fill="#EF664E"/>
<path d="M263.909 208.342H251.907C249.348 208.342 247.3 206.26 247.3 203.726C247.3 203.656 247.3 203.586 247.3 203.516H260.291L263.909 208.342Z" fill="#A9A9A9" stroke="black" stroke-width="0.73" stroke-linecap="round" stroke-linejoin="round"/>
<path d="M266.378 209.324C266.378 209.424 266.378 209.514 266.378 209.614C266.218 212.689 263.56 215.132 260.302 215.132C257.044 215.132 254.385 212.689 254.226 209.614C254.226 209.514 254.226 209.424 254.226 209.324C254.226 207.561 255.045 205.979 256.344 204.918C257.414 204.046 258.793 203.516 260.302 203.516C261.811 203.516 263.2 204.046 264.259 204.918C265.558 205.979 266.378 207.561 266.378 209.324Z" fill="white" stroke="black" stroke-width="0.73" stroke-linecap="round" stroke-linejoin="round"/>
<path d="M260.292 211.928C261.798 211.928 263.02 210.762 263.02 209.324C263.02 207.886 261.798 206.721 260.292 206.721C258.785 206.721 257.563 207.886 257.563 209.324C257.563 210.762 258.785 211.928 260.292 211.928Z" fill="white" stroke="black" stroke-width="0.73" stroke-linecap="round" stroke-linejoin="round"/>
<path d="M325.499 209.324C325.499 209.424 325.499 209.514 325.499 209.614C325.339 212.689 322.681 215.132 319.423 215.132C316.165 215.132 313.507 212.689 313.347 209.614C313.347 209.514 313.347 209.424 313.347 209.324C313.347 207.561 314.166 205.979 315.465 204.918C316.535 204.046 317.914 203.516 319.423 203.516C320.932 203.516 322.321 204.046 323.38 204.918C324.679 205.979 325.499 207.561 325.499 209.324Z" fill="white" stroke="black" stroke-width="0.73" stroke-linecap="round" stroke-linejoin="round"/>
<path d="M319.423 211.928C320.929 211.928 322.151 210.762 322.151 209.324C322.151 207.886 320.929 206.721 319.423 206.721C317.916 206.721 316.694 207.886 316.694 209.324C316.694 210.762 317.916 211.928 319.423 211.928Z" fill="white" stroke="black" stroke-width="0.73" stroke-linecap="round" stroke-linejoin="round"/>
<path d="M111.598 215.695H723" stroke="black" stroke-width="0.73" stroke-linecap="round" stroke-linejoin="round"/>
<path d="M329.436 205.097C329.436 205.407 329.357 205.718 329.197 205.998L328.257 207.651C328.257 207.651 328.207 207.731 328.187 207.771C327.608 208.722 326.608 209.313 325.509 209.423C325.039 205.538 321.741 202.523 317.734 202.523C316.355 202.523 315.056 202.884 313.927 203.515C311.478 204.877 308.78 205.718 305.982 205.878L283.177 207.21C281.028 207.34 278.899 206.659 277.27 205.257C276.091 204.246 274.572 203.635 272.903 203.635C271.234 203.635 269.705 204.246 268.526 205.257C267.437 206.199 266.098 206.819 264.689 207.1L260.561 207.921L260.271 206.018C260.221 205.688 260.201 205.347 260.211 205.027C260.291 202.684 261.89 200.611 264.229 199.99L264.788 199.84L276.081 196.835C276.371 196.875 276.671 196.905 276.971 196.946H277.071C277.34 196.986 277.6 197.016 277.87 197.046C279.149 197.176 280.428 197.256 281.717 197.296C282.027 197.306 282.337 197.316 282.657 197.316C283.396 197.326 284.146 197.326 284.885 197.316C285.315 197.306 285.745 197.296 286.175 197.276L299.656 196.675L314.246 196.024C315.406 195.974 316.325 195.013 316.325 193.851C316.325 193.431 316.205 193.02 315.985 192.68C315.765 192.339 315.456 192.059 315.066 191.878L309.17 189.145H315.496C316.875 189.145 318.224 189.605 319.313 190.466L326.398 196.375C327.618 197.396 328.287 198.938 328.197 200.531L328.107 202.173C328.077 202.764 328.327 203.335 328.787 203.695C329.237 204.046 329.466 204.576 329.466 205.117L329.436 205.097Z" fill="white" stroke="black" stroke-width="0.73" stroke-linecap="round" stroke-linejoin="round"/>
<path d="M279.609 210.094L266.167 210.284L260.911 210.364L260.541 207.921L264.668 207.1C266.087 206.819 267.417 206.199 268.506 205.257C269.685 204.246 271.214 203.635 272.883 203.635C274.552 203.635 276.081 204.246 277.25 205.257C278.879 206.659 281.008 207.34 283.156 207.21L305.962 205.878C308.76 205.718 311.458 204.877 313.906 203.515C315.036 202.884 316.335 202.523 317.714 202.523C321.721 202.523 325.019 205.538 325.489 209.423C325.389 209.423 325.299 209.433 325.199 209.443L279.599 210.104L279.609 210.094Z" fill="#A9A9A9" stroke="black" stroke-width="0.73" stroke-linecap="round" stroke-linejoin="round"/>
<path d="M316.295 193.832C316.295 194.993 315.376 195.955 314.216 196.005L286.145 197.256C282.777 197.407 279.409 197.256 276.071 196.826L285.815 191.258C288.263 189.866 291.022 189.125 293.84 189.125H309.15L315.046 191.859C315.426 192.039 315.745 192.32 315.965 192.66C316.185 193 316.305 193.411 316.305 193.832H316.295Z" fill="white" stroke="black" stroke-width="0.73" stroke-linecap="round" stroke-linejoin="round"/>
<path d="M299.626 196.656L300.496 189.125" stroke="black" stroke-width="0.73" stroke-linecap="round" stroke-linejoin="round"/>
<path d="M290.322 202.304C289.992 202.324 289.683 202.264 289.413 202.124C289.143 201.983 288.913 201.793 288.743 201.543C288.573 201.292 288.483 201.002 288.463 200.682C288.443 200.361 288.513 200.051 288.653 199.79C288.793 199.52 289.003 199.31 289.263 199.139C289.523 198.979 289.822 198.879 290.162 198.869C290.412 198.859 290.652 198.889 290.862 198.969C291.082 199.049 291.272 199.169 291.441 199.34L290.832 200.021C290.752 199.931 290.662 199.87 290.552 199.84C290.442 199.8 290.332 199.79 290.202 199.8C290.052 199.8 289.922 199.85 289.812 199.921C289.703 199.991 289.613 200.091 289.553 200.211C289.493 200.331 289.463 200.471 289.473 200.632C289.483 200.792 289.523 200.922 289.593 201.042C289.663 201.162 289.762 201.252 289.882 201.312C290.002 201.373 290.132 201.403 290.282 201.393C290.422 201.393 290.542 201.353 290.642 201.302C290.742 201.252 290.832 201.182 290.902 201.082L291.571 201.703C291.411 201.893 291.232 202.034 291.022 202.144C290.812 202.244 290.582 202.304 290.312 202.314L290.322 202.304Z" fill="#10A96C"/>
<path d="M294.77 198.698L293.79 198.748V199.028C293.711 198.948 293.611 198.888 293.491 198.828C293.311 198.748 293.111 198.708 292.891 198.718C292.591 198.738 292.331 198.818 292.102 198.988C291.872 199.148 291.702 199.368 291.582 199.629C291.462 199.889 291.412 200.19 291.432 200.52C291.452 200.841 291.532 201.131 291.672 201.381C291.822 201.632 292.012 201.822 292.251 201.962C292.491 202.102 292.761 202.162 293.061 202.142C293.281 202.132 293.481 202.082 293.651 201.982C293.761 201.922 293.86 201.842 293.94 201.762V202.032L294.93 201.982L294.76 198.688L294.77 198.698ZM293.751 200.971C293.621 201.121 293.451 201.211 293.221 201.221C293.081 201.221 292.951 201.201 292.841 201.141C292.731 201.081 292.631 200.991 292.561 200.881C292.491 200.77 292.451 200.63 292.441 200.48C292.441 200.32 292.461 200.18 292.521 200.059C292.581 199.939 292.661 199.839 292.771 199.769C292.881 199.699 293.001 199.659 293.151 199.649C293.301 199.649 293.431 199.669 293.541 199.729C293.651 199.789 293.751 199.879 293.81 199.989C293.88 200.099 293.92 200.24 293.92 200.4C293.93 200.63 293.87 200.831 293.751 200.981V200.971Z" fill="#00A6BF"/>
<path d="M297.178 198.518C297.118 198.518 297.048 198.508 296.968 198.518C296.798 198.518 296.639 198.578 296.489 198.668C296.339 198.758 296.219 198.879 296.109 199.029C296.079 199.069 296.059 199.109 296.029 199.149L295.979 198.658L295.06 198.708L295.229 202.003L296.209 201.953L296.129 200.301C296.129 200.2 296.129 200.11 296.159 200.03C296.189 199.95 296.219 199.88 296.269 199.82C296.319 199.76 296.379 199.71 296.459 199.68C296.539 199.65 296.619 199.63 296.708 199.62C296.788 199.62 296.868 199.62 296.948 199.64C297.028 199.65 297.088 199.68 297.128 199.7L297.338 198.588C297.288 198.578 297.228 198.558 297.158 198.558L297.178 198.518Z" fill="#8280B8"/>
<path d="M287.204 199.079L287.294 200.952C287.314 201.262 287.074 201.533 286.765 201.553C286.455 201.573 286.195 201.323 286.175 201.012L286.085 199.139L285.096 199.19L285.186 200.982C285.226 201.843 285.955 202.514 286.805 202.474C287.654 202.434 288.314 201.693 288.264 200.822L288.174 199.029L287.184 199.079H287.204Z" fill="#EF664E"/>
<path d="M272.894 215.172C275.543 215.172 277.69 213.02 277.69 210.365C277.69 207.711 275.543 205.559 272.894 205.559C270.244 205.559 268.097 207.711 268.097 210.365C268.097 213.02 270.244 215.172 272.894 215.172Z" fill="white" stroke="black" stroke-width="0.73" stroke-linecap="round" stroke-linejoin="round"/>
<path d="M272.893 213.279C274.5 213.279 275.802 211.975 275.802 210.365C275.802 208.756 274.5 207.451 272.893 207.451C271.287 207.451 269.985 208.756 269.985 210.365C269.985 211.975 271.287 213.279 272.893 213.279Z" fill="white" stroke="black" stroke-width="0.73" stroke-linecap="round" stroke-linejoin="round"/>
<path d="M317.724 215.172C320.373 215.172 322.52 213.02 322.52 210.365C322.52 207.711 320.373 205.559 317.724 205.559C315.074 205.559 312.927 207.711 312.927 210.365C312.927 213.02 315.074 215.172 317.724 215.172Z" fill="white" stroke="black" stroke-width="0.73" stroke-linecap="round" stroke-linejoin="round"/>
<path d="M317.725 213.279C319.331 213.279 320.633 211.975 320.633 210.365C320.633 208.756 319.331 207.451 317.725 207.451C316.118 207.451 314.816 208.756 314.816 210.365C314.816 211.975 316.118 213.279 317.725 213.279Z" fill="white" stroke="black" stroke-width="0.73" stroke-linecap="round" stroke-linejoin="round"/>
<path d="M323.719 194.111V216.713H288.312V208.271C288.312 206.238 289.662 204.456 291.61 203.895L292.52 203.635L298.666 201.872C300.884 201.231 302.923 200.07 304.602 198.477L307.53 195.694C308.599 194.682 310.008 194.121 311.477 194.121H323.719V194.111Z" fill="white" stroke="black" stroke-width="0.73" stroke-linecap="round" stroke-linejoin="round"/>
<path d="M288.303 208.882C291.011 208.882 293.21 206.678 293.21 203.965V203.424" fill="white"/>
<path d="M288.303 208.882C291.011 208.882 293.21 206.678 293.21 203.965V203.424" stroke="black" stroke-width="0.73" stroke-linecap="round" stroke-linejoin="round"/>
<path d="M338.35 194.111H323.72V216.713H338.35V194.111Z" fill="white" stroke="black" stroke-width="0.73" stroke-linecap="round" stroke-linejoin="round"/>
<path d="M352.97 196.495V214.33C352.97 215.642 351.901 216.713 350.592 216.713H338.34V194.111H350.592C351.901 194.111 352.97 195.183 352.97 196.495Z" fill="white" stroke="black" stroke-width="0.73" stroke-linecap="round" stroke-linejoin="round"/>
<path d="M352.971 204.456H331.735C328.786 204.456 325.938 203.384 323.72 201.441" stroke="black" stroke-width="0.73" stroke-linecap="round" stroke-linejoin="round"/>
<path d="M352.97 213.498V214.329C352.97 215.641 351.901 216.713 350.592 216.713H288.312V213.498H352.97Z" fill="#A9A9A9" stroke="black" stroke-width="0.73" stroke-linecap="round" stroke-linejoin="round"/>
<path d="M301.104 221.631C303.814 221.631 306.011 219.429 306.011 216.714C306.011 213.998 303.814 211.797 301.104 211.797C298.394 211.797 296.197 213.998 296.197 216.714C296.197 219.429 298.394 221.631 301.104 221.631Z" fill="white" stroke="black" stroke-width="0.73" stroke-linecap="round" stroke-linejoin="round"/>
<path d="M301.104 219.267C302.511 219.267 303.652 218.124 303.652 216.714C303.652 215.303 302.511 214.16 301.104 214.16C299.697 214.16 298.556 215.303 298.556 216.714C298.556 218.124 299.697 219.267 301.104 219.267Z" fill="white" stroke="black" stroke-width="0.73" stroke-linecap="round" stroke-linejoin="round"/>
<path d="M344.816 221.631C347.526 221.631 349.723 219.429 349.723 216.714C349.723 213.998 347.526 211.797 344.816 211.797C342.106 211.797 339.909 213.998 339.909 216.714C339.909 219.429 342.106 221.631 344.816 221.631Z" fill="white" stroke="black" stroke-width="0.73" stroke-linecap="round" stroke-linejoin="round"/>
<path d="M344.816 219.267C346.223 219.267 347.364 218.124 347.364 216.714C347.364 215.303 346.223 214.16 344.816 214.16C343.409 214.16 342.268 215.303 342.268 216.714C342.268 218.124 343.409 219.267 344.816 219.267Z" fill="white" stroke="black" stroke-width="0.73" stroke-linecap="round" stroke-linejoin="round"/>
<path d="M302.424 200.17C302.424 202.533 304.343 204.456 306.701 204.456H316.874C319.233 204.456 321.152 202.533 321.152 200.17V194.102" stroke="black" stroke-width="0.73" stroke-linecap="round" stroke-linejoin="round"/>
<path d="M543.247 194.111V216.954H579.034V208.422C579.034 206.369 577.675 204.566 575.706 203.995L574.787 203.735L568.571 201.952C566.322 201.311 564.264 200.13 562.565 198.518L559.597 195.704C558.517 194.682 557.098 194.111 555.609 194.111H543.237H543.247Z" fill="white" stroke="black" stroke-width="0.73" stroke-linecap="round" stroke-linejoin="round"/>
<path d="M579.034 209.043C576.296 209.043 574.077 206.82 574.077 204.076V203.535" fill="white"/>
<path d="M579.034 209.043C576.296 209.043 574.077 206.82 574.077 204.076V203.535" stroke="black" stroke-width="0.73" stroke-linecap="round" stroke-linejoin="round"/>
<path d="M528.467 216.953H543.247V194.111H528.467V216.953Z" fill="white" stroke="black" stroke-width="0.73" stroke-linecap="round" stroke-linejoin="round"/>
<path d="M513.687 196.515V214.54C513.687 215.872 514.766 216.944 516.095 216.944H528.477V194.102H516.095C514.766 194.102 513.687 195.183 513.687 196.505V196.515Z" fill="white" stroke="black" stroke-width="0.73" stroke-linecap="round" stroke-linejoin="round"/>
<path d="M513.687 204.566H535.153C538.131 204.566 541.009 203.484 543.247 201.521" stroke="black" stroke-width="0.73" stroke-linecap="round" stroke-linejoin="round"/>
<path d="M513.687 213.709V214.55C513.687 215.882 514.766 216.954 516.095 216.954H579.044V213.709H513.696H513.687Z" fill="#A9A9A9" stroke="black" stroke-width="0.73" stroke-linecap="round" stroke-linejoin="round"/>
<path d="M566.102 221.92C568.84 221.92 571.059 219.697 571.059 216.953C571.059 214.21 568.84 211.986 566.102 211.986C563.365 211.986 561.146 214.21 561.146 216.953C561.146 219.697 563.365 221.92 566.102 221.92Z" fill="white" stroke="black" stroke-width="0.73" stroke-linecap="round" stroke-linejoin="round"/>
<path d="M566.103 219.538C567.527 219.538 568.681 218.382 568.681 216.955C568.681 215.528 567.527 214.371 566.103 214.371C564.679 214.371 563.524 215.528 563.524 216.955C563.524 218.382 564.679 219.538 566.103 219.538Z" fill="white" stroke="black" stroke-width="0.73" stroke-linecap="round" stroke-linejoin="round"/>
<path d="M521.921 221.92C524.658 221.92 526.877 219.697 526.877 216.953C526.877 214.21 524.658 211.986 521.921 211.986C519.183 211.986 516.964 214.21 516.964 216.953C516.964 219.697 519.183 221.92 521.921 221.92Z" fill="white" stroke="black" stroke-width="0.73" stroke-linecap="round" stroke-linejoin="round"/>
<path d="M521.921 219.538C523.345 219.538 524.499 218.382 524.499 216.955C524.499 215.528 523.345 214.371 521.921 214.371C520.497 214.371 519.343 215.528 519.343 216.955C519.343 218.382 520.497 219.538 521.921 219.538Z" fill="white" stroke="black" stroke-width="0.73" stroke-linecap="round" stroke-linejoin="round"/>
<path d="M564.764 200.24C564.764 202.633 562.825 204.576 560.436 204.576H550.163C547.775 204.576 545.836 202.633 545.836 200.24V194.111" stroke="black" stroke-width="0.73" stroke-linecap="round" stroke-linejoin="round"/>
<path d="M534.883 210.595C534.583 210.595 534.313 210.525 534.073 210.394C533.834 210.264 533.644 210.074 533.504 209.844C533.364 209.613 533.294 209.343 533.294 209.052C533.294 208.752 533.364 208.492 533.504 208.251C533.644 208.021 533.834 207.831 534.083 207.691C534.323 207.55 534.603 207.49 534.903 207.49C535.133 207.49 535.343 207.53 535.532 207.61C535.722 207.691 535.892 207.811 536.042 207.971L535.463 208.562C535.393 208.482 535.313 208.422 535.223 208.381C535.133 208.341 535.023 208.331 534.903 208.331C534.763 208.331 534.643 208.361 534.543 208.422C534.443 208.482 534.363 208.562 534.303 208.672C534.243 208.782 534.213 208.902 534.213 209.052C534.213 209.193 534.243 209.313 534.303 209.423C534.363 209.533 534.443 209.613 534.553 209.673C534.653 209.733 534.773 209.763 534.903 209.763C535.023 209.763 535.133 209.743 535.233 209.703C535.323 209.663 535.413 209.603 535.473 209.513L536.052 210.104C535.902 210.264 535.732 210.394 535.542 210.474C535.353 210.555 535.133 210.605 534.893 210.605" fill="#10A96C"/>
<path d="M538.171 207.56V207.81C538.091 207.73 538.001 207.67 537.901 207.62C537.741 207.54 537.562 207.5 537.372 207.5C537.102 207.5 536.862 207.57 536.652 207.7C536.442 207.84 536.272 208.021 536.153 208.251C536.033 208.481 535.973 208.752 535.973 209.042C535.973 209.333 536.033 209.603 536.153 209.833C536.272 210.064 536.442 210.244 536.652 210.384C536.862 210.514 537.102 210.584 537.372 210.584C537.572 210.584 537.752 210.544 537.911 210.464C538.011 210.414 538.101 210.354 538.181 210.274V210.514H539.061V207.55H538.181L538.171 207.56ZM538.031 209.563C537.911 209.693 537.742 209.763 537.542 209.763C537.412 209.763 537.302 209.733 537.202 209.673C537.102 209.613 537.022 209.533 536.962 209.423C536.902 209.313 536.872 209.192 536.872 209.052C536.872 208.912 536.902 208.782 536.962 208.672C537.022 208.561 537.102 208.481 537.202 208.421C537.302 208.361 537.422 208.331 537.552 208.331C537.682 208.331 537.801 208.361 537.901 208.421C538.001 208.481 538.081 208.561 538.131 208.672C538.191 208.782 538.211 208.902 538.211 209.042C538.211 209.252 538.151 209.423 538.031 209.563Z" fill="#00A6BF"/>
<path d="M541.229 207.51C541.169 207.5 541.109 207.49 541.049 207.49C540.899 207.49 540.749 207.53 540.609 207.6C540.469 207.67 540.359 207.781 540.249 207.901C540.219 207.931 540.199 207.971 540.18 208.001L540.16 207.55H539.33V210.525H540.21V209.032C540.21 208.942 540.219 208.862 540.249 208.792C540.279 208.722 540.319 208.662 540.359 208.612C540.409 208.562 540.469 208.522 540.539 208.492C540.609 208.462 540.689 208.452 540.769 208.452C540.839 208.452 540.909 208.452 540.979 208.482C541.049 208.502 541.099 208.522 541.139 208.542L541.379 207.55C541.379 207.55 541.279 207.52 541.219 207.51H541.229Z" fill="#8280B8"/>
<path d="M532.225 207.561V209.243C532.225 209.523 531.995 209.754 531.725 209.754C531.445 209.754 531.225 209.523 531.225 209.243V207.561H530.336V209.183C530.336 209.964 530.966 210.605 531.725 210.605C532.485 210.605 533.114 209.974 533.114 209.183V207.561H532.225Z" fill="#EF664E"/>
<path d="M528.737 163.91H316.065V226.518H528.737V163.91Z" fill="white" stroke="black" stroke-width="0.73" stroke-linecap="round" stroke-linejoin="round"/>
<path d="M528.737 131.654H316.065V163.91H528.737V131.654Z" fill="white" stroke="black" stroke-width="0.73" stroke-linecap="round" stroke-linejoin="round"/>
<path d="M383.852 226.518V173.984H328.907V226.518H383.852Z" fill="white" stroke="black" stroke-width="0.73" stroke-linecap="round" stroke-linejoin="round"/>
<path d="M413.502 158.723C411.414 158.723 409.535 158.253 407.866 157.321C406.197 156.39 404.868 155.108 403.878 153.476C402.889 151.844 402.399 150.011 402.399 147.968C402.399 145.925 402.889 144.053 403.878 142.42C404.868 140.788 406.207 139.506 407.886 138.555C409.575 137.603 411.473 137.133 413.592 137.133C415.181 137.133 416.63 137.413 417.959 137.984C419.278 138.555 420.458 139.386 421.487 140.498L417.48 144.583C417.01 144.013 416.44 143.602 415.791 143.352C415.131 143.101 414.402 142.971 413.592 142.971C412.643 142.971 411.813 143.181 411.104 143.592C410.394 144.002 409.825 144.583 409.415 145.334C408.995 146.085 408.785 146.957 408.785 147.948C408.785 148.939 408.995 149.781 409.415 150.542C409.835 151.303 410.404 151.894 411.124 152.304C411.843 152.715 412.673 152.925 413.592 152.925C414.452 152.925 415.211 152.785 415.871 152.504C416.52 152.224 417.09 151.783 417.56 151.183L421.567 155.308C420.508 156.44 419.318 157.301 417.999 157.882C416.68 158.463 415.181 158.753 413.512 158.753" fill="#10A96C"/>
<path d="M436.407 137.592V139.355C435.868 138.834 435.248 138.384 434.528 138.023C433.409 137.452 432.17 137.172 430.811 137.172C428.942 137.172 427.273 137.643 425.794 138.594C424.315 139.545 423.166 140.827 422.326 142.439C421.487 144.052 421.077 145.894 421.077 147.967C421.077 150.04 421.497 151.833 422.326 153.455C423.166 155.067 424.315 156.349 425.774 157.28C427.233 158.212 428.902 158.682 430.771 158.682C432.16 158.682 433.419 158.412 434.528 157.871C435.248 157.521 435.878 157.08 436.407 156.549V158.252H442.553V137.592H436.407ZM435.428 151.512C434.578 152.433 433.439 152.894 432.02 152.894C431.131 152.894 430.331 152.684 429.642 152.253C428.942 151.833 428.392 151.252 427.993 150.511C427.593 149.77 427.383 148.928 427.383 147.957C427.383 146.986 427.583 146.094 427.993 145.343C428.392 144.592 428.942 144.002 429.642 143.581C430.341 143.16 431.141 142.94 432.06 142.94C432.979 142.94 433.789 143.15 434.478 143.581C435.178 144.002 435.718 144.592 436.107 145.323C436.497 146.064 436.697 146.926 436.697 147.917C436.697 149.389 436.267 150.591 435.418 151.512H435.428Z" fill="#00A6BF"/>
<path d="M457.673 137.212C457.273 137.132 456.843 137.092 456.384 137.092C455.314 137.092 454.295 137.352 453.356 137.873C452.406 138.394 451.587 139.095 450.877 139.986C450.697 140.216 450.527 140.457 450.368 140.697L450.238 137.582H444.441V158.262H450.587V147.877C450.587 147.256 450.687 146.695 450.877 146.195C451.067 145.704 451.327 145.273 451.667 144.903C451.997 144.542 452.406 144.262 452.896 144.062C453.386 143.861 453.905 143.771 454.465 143.771C454.975 143.771 455.464 143.831 455.944 143.951C456.414 144.072 456.793 144.222 457.073 144.402L458.762 137.492C458.432 137.392 458.063 137.292 457.673 137.222V137.212Z" fill="#8280B8"/>
<path d="M395.014 137.562V149.299C395.014 151.272 393.445 152.874 391.506 152.874C389.567 152.874 387.998 151.272 387.998 149.299V137.562H381.812V148.828C381.812 154.266 386.16 158.692 391.506 158.692C396.853 158.692 401.2 154.266 401.2 148.828V137.562H395.014Z" fill="#EF664E"/>
<path d="M378.735 179.121H334.054V226.518H378.735V179.121Z" fill="white" stroke="black" stroke-width="0.73" stroke-linecap="round" stroke-linejoin="round"/>
<path d="M334.054 222.252H378.725" stroke="black" stroke-width="0.73" stroke-linejoin="round"/>
<path d="M334.054 217.664H378.725" stroke="black" stroke-width="0.73" stroke-linejoin="round"/>
<path d="M334.054 213.088H378.725" stroke="black" stroke-width="0.73" stroke-linejoin="round"/>
<path d="M334.054 208.512H378.725" stroke="black" stroke-width="0.73" stroke-linejoin="round"/>
<path d="M334.054 203.926H378.725" stroke="black" stroke-width="0.73" stroke-linejoin="round"/>
<path d="M334.054 199.35H378.725" stroke="black" stroke-width="0.73" stroke-linejoin="round"/>
<path d="M334.054 194.762H378.725" stroke="black" stroke-width="0.73" stroke-linejoin="round"/>
<path d="M334.054 190.186H378.725" stroke="black" stroke-width="0.73" stroke-linejoin="round"/>
<path d="M334.054 185.6H378.725" stroke="black" stroke-width="0.73" stroke-linejoin="round"/>
<path d="M400.061 226.509V173.975H394.924V226.509H400.061Z" fill="white" stroke="black" stroke-width="0.73" stroke-linecap="round" stroke-linejoin="round"/>
<path d="M508.75 179.121H400.061V226.518H508.75V179.121Z" fill="white" stroke="black" stroke-width="0.73" stroke-linecap="round" stroke-linejoin="round"/>
<path d="M496.218 218.416H510.969C510.569 212.548 509.35 205.648 505.822 205.648C499.696 205.648 502.054 214.982 497.337 214.982C496.838 214.982 496.358 215.022 495.898 215.112C493.92 215.482 494.199 218.416 496.218 218.416Z" fill="white" stroke="black" stroke-width="0.73" stroke-linecap="round" stroke-linejoin="round"/>
<path d="M510.968 218.416V226.517" stroke="black" stroke-width="0.73" stroke-linecap="round" stroke-linejoin="round"/>
<path d="M504.433 218.416V226.517" stroke="black" stroke-width="0.73" stroke-linecap="round" stroke-linejoin="round"/>
<path d="M497.896 218.416V226.517" stroke="black" stroke-width="0.73" stroke-linecap="round" stroke-linejoin="round"/>
<path d="M495.838 218.416V226.517" stroke="black" stroke-width="0.73" stroke-linecap="round" stroke-linejoin="round"/>
<path d="M491.351 180.844H400.061V226.518H491.351V180.844Z" fill="white" stroke="black" stroke-width="0.73" stroke-linecap="round" stroke-linejoin="round"/>
<path d="M491.361 188.895H416.55V226.518H491.361V188.895Z" fill="white" stroke="black" stroke-width="0.73" stroke-linecap="round" stroke-linejoin="round"/>
<path d="M427.613 184.008H410.014C407.04 184.008 404.628 186.424 404.628 189.405V216.223C404.628 219.204 407.04 221.621 410.014 221.621H427.613C430.588 221.621 433 219.204 433 216.223V189.405C433 186.424 430.588 184.008 427.613 184.008Z" fill="white" stroke="black" stroke-width="0.73" stroke-linecap="round" stroke-linejoin="round"/>
<path d="M427.113 226.519H432.999C432.999 226.519 432.86 224.467 431.281 224.046C431.051 223.986 430.911 223.716 430.821 223.295H427.463L427.113 226.519Z" fill="black" stroke="black" stroke-width="0.73" stroke-linecap="round" stroke-linejoin="round"/>
<path d="M428.832 209.855L427.463 223.294H430.821C430.281 220.761 431.91 212.78 431.91 212.78" fill="white"/>
<path d="M428.832 209.855L427.463 223.294H430.821C430.281 220.761 431.91 212.78 431.91 212.78" stroke="black" stroke-width="0.73" stroke-linecap="round" stroke-linejoin="round"/>
<path d="M432.63 192.951C433.689 192.951 433.419 194.503 433.969 195.054C434.519 195.605 435.318 196.276 434.549 196.476C433.779 196.676 434.349 198.409 433.489 199.27C432.63 200.131 429.982 200.582 429.372 198.599C428.762 196.616 428.113 192.951 432.63 192.951Z" fill="white" stroke="black" stroke-width="0.73" stroke-linecap="round" stroke-linejoin="round"/>
<path d="M433.97 197.808C433.97 197.808 433.65 198.088 432.76 197.408L433.97 197.808Z" fill="white"/>
<path d="M433.97 197.808C433.97 197.808 433.65 198.088 432.76 197.408" stroke="black" stroke-width="0.73" stroke-linecap="round" stroke-linejoin="round"/>
<path d="M432.56 195.575C432.703 195.575 432.82 195.458 432.82 195.315C432.82 195.171 432.703 195.055 432.56 195.055C432.416 195.055 432.3 195.171 432.3 195.315C432.3 195.458 432.416 195.575 432.56 195.575Z" fill="black"/>
<path d="M440.325 205.75C439.415 205.75 436.457 204.217 435.138 202.906C434.409 202.175 433.279 200.632 432.17 200.002C431.7 199.741 430.611 200.062 430.181 199.681C429.432 199.02 429.212 201.864 428.942 204.278C428.672 206.691 428.832 209.865 428.832 209.865H433.439C433.439 209.865 432.95 206.22 432.85 204.768C432.85 204.718 432.92 204.698 432.94 204.748C433.119 205.189 433.579 206 434.778 206.511C436.527 207.252 438.566 207.973 440.335 207.352V205.76L440.325 205.75Z" fill="#A9A9A9" stroke="black" stroke-width="0.73" stroke-linecap="round" stroke-linejoin="round"/>
<path d="M432.42 226.519H439.395C439.265 225.658 438.596 224.977 437.736 224.827C437.057 224.707 436.357 224.417 436.057 223.295H432.39C432.45 225.138 432.42 226.519 432.42 226.519Z" fill="black" stroke="black" stroke-width="0.73" stroke-linecap="round" stroke-linejoin="round"/>
<path d="M428.832 209.855H433.439C433.439 209.855 435.688 219.169 435.907 222.393C435.927 222.744 435.977 223.044 436.047 223.294H432.38C432.31 221.071 432.12 218.187 431.6 216.254C431.25 214.923 430.941 214.081 430.691 213.551" fill="white"/>
<path d="M428.832 209.855H433.439C433.439 209.855 435.688 219.169 435.907 222.393C435.927 222.744 435.977 223.044 436.047 223.294H432.38C432.31 221.071 432.12 218.187 431.6 216.254C431.25 214.923 430.941 214.081 430.691 213.551" stroke="black" stroke-width="0.73" stroke-linecap="round" stroke-linejoin="round"/>
<path d="M428.653 196.566C428.733 196.776 428.902 196.946 429.112 197.016C430.352 197.437 429.152 196.085 429.612 195.514C430.232 194.763 430.941 195.374 431.031 195.053C431.421 193.591 431.401 193.371 430.242 193.371C429.082 193.371 428.253 193.501 428.253 194.603C428.253 195.354 428.503 196.145 428.663 196.566H428.653Z" fill="black" stroke="black" stroke-width="0.73" stroke-linecap="round" stroke-linejoin="round"/>
<path d="M442.723 206.592C442.093 206.161 441.244 205.75 440.324 205.75V207.343L442.423 207.473C442.903 207.503 443.122 206.872 442.723 206.602V206.592Z" fill="white" stroke="black" stroke-width="0.73" stroke-miterlimit="10"/>
<path d="M437.566 207.652V226.519H435.268V209.956H411.214V226.519H408.915V207.652H437.566Z" fill="white" stroke="black" stroke-width="0.73" stroke-linecap="round" stroke-linejoin="round"/>
<path d="M461.72 226.519H455.834C455.834 226.519 455.974 224.467 457.553 224.046C457.783 223.986 457.923 223.716 458.013 223.295H461.37L461.72 226.519Z" fill="black" stroke="black" stroke-width="0.73" stroke-linecap="round" stroke-linejoin="round"/>
<path d="M459.991 210.557L461.36 223.295H458.002C458.542 220.761 456.913 212.78 456.913 212.78" fill="white"/>
<path d="M459.991 210.557L461.36 223.295H458.002C458.542 220.761 456.913 212.78 456.913 212.78" stroke="black" stroke-width="0.73" stroke-linecap="round" stroke-linejoin="round"/>
<path d="M446 201.864C446.21 200.241 449.638 201.864 449.638 201.864V204.327C449.638 204.327 445.791 203.486 446 201.864Z" fill="white" stroke="black" stroke-width="0.73" stroke-linecap="round" stroke-linejoin="round"/>
<path d="M456.194 192.951C455.135 192.951 455.404 194.503 454.855 195.054C454.305 195.605 453.506 196.276 454.275 196.476C455.045 196.676 454.475 198.409 455.334 199.27C456.194 200.131 458.842 200.582 459.452 198.599C460.061 196.616 460.711 192.951 456.194 192.951Z" fill="white" stroke="black" stroke-width="0.73" stroke-linecap="round" stroke-linejoin="round"/>
<path d="M454.854 197.808C454.854 197.808 455.914 198.088 456.803 197.408L454.854 197.808Z" fill="white"/>
<path d="M454.854 197.808C454.854 197.808 455.914 198.088 456.803 197.408" stroke="black" stroke-width="0.73" stroke-linecap="round" stroke-linejoin="round"/>
<path d="M456.264 195.575C456.408 195.575 456.524 195.458 456.524 195.315C456.524 195.171 456.408 195.055 456.264 195.055C456.12 195.055 456.004 195.171 456.004 195.315C456.004 195.458 456.12 195.575 456.264 195.575Z" fill="black"/>
<path d="M455.254 194.103C455.254 194.103 453.246 193.683 453.775 192.771C454.305 191.86 454.525 190.939 456.264 191.75C458.003 192.561 458.952 192.07 459.622 192.882C460.291 193.693 459.881 196.557 459.881 196.557C459.881 196.557 458.842 194.654 458.243 194.484C457.643 194.314 455.264 194.103 455.264 194.103H455.254Z" fill="black" stroke="black" stroke-width="0.73" stroke-linecap="round" stroke-linejoin="round"/>
<path d="M449.638 201.864C450.547 201.864 452.116 203.346 453.695 202.906C454.684 202.625 455.554 200.632 456.663 200.002C457.133 199.741 458.222 200.062 458.652 199.681C459.401 199.02 459.621 201.864 459.891 204.278C460.161 206.691 460.001 210.566 460.001 210.566H455.394C455.394 210.566 456.004 205.069 456.004 204.368C456.004 204.368 455.844 206 453.965 206C452.086 206 451.407 204.948 449.638 204.328V201.864Z" fill="white" stroke="black" stroke-width="0.73" stroke-linecap="round" stroke-linejoin="round"/>
<path d="M456.404 226.519H449.429C449.559 225.658 450.228 224.977 451.088 224.827C451.767 224.707 452.467 224.417 452.767 223.295H456.434C456.374 225.138 456.404 226.519 456.404 226.519Z" fill="black" stroke="black" stroke-width="0.73" stroke-linecap="round" stroke-linejoin="round"/>
<path d="M458.122 213.551C457.872 214.082 457.563 214.923 457.213 216.255C456.703 218.187 456.503 221.071 456.433 223.295H452.766C452.836 223.044 452.886 222.744 452.906 222.393C453.125 219.169 455.374 210.557 455.374 210.557" fill="white"/>
<path d="M458.122 213.551C457.872 214.082 457.563 214.923 457.213 216.255C456.703 218.187 456.503 221.071 456.433 223.295H452.766C452.836 223.044 452.886 222.744 452.906 222.393C453.125 219.169 455.374 210.557 455.374 210.557" stroke="black" stroke-width="0.73" stroke-linecap="round" stroke-linejoin="round"/>
<path d="M466.208 207.652V226.519H463.919V209.956H439.855V226.519H437.566V207.652H466.208Z" fill="white" stroke="black" stroke-width="0.73" stroke-linecap="round" stroke-linejoin="round"/>
<path d="M485.624 218.416H470.874C471.274 212.548 472.493 205.648 476.021 205.648C482.147 205.648 479.788 214.982 484.505 214.982C485.005 214.982 485.485 215.022 485.944 215.112C487.923 215.482 487.643 218.416 485.624 218.416Z" fill="white" stroke="black" stroke-width="0.73" stroke-linecap="round" stroke-linejoin="round"/>
<path d="M470.874 218.416V226.517" stroke="black" stroke-width="0.73" stroke-linecap="round" stroke-linejoin="round"/>
<path d="M477.41 218.416V226.517" stroke="black" stroke-width="0.73" stroke-linecap="round" stroke-linejoin="round"/>
<path d="M483.945 218.416V226.517" stroke="black" stroke-width="0.73" stroke-linecap="round" stroke-linejoin="round"/>
<path d="M486.004 218.416V226.517" stroke="black" stroke-width="0.73" stroke-linecap="round" stroke-linejoin="round"/>
<path d="M498.687 205.43L499.566 205.48C499.566 205.48 499.106 207.923 500.995 207.703C501.605 207.633 501.475 208.935 502.444 209.165C505.382 209.836 505.122 207.703 505.122 207.703L505.792 204.088L500.495 201.885L500.126 203.447L498.696 205.42L498.687 205.43Z" fill="white" stroke="black" stroke-width="0.73" stroke-linejoin="round"/>
<path d="M500.705 204.858C500.859 204.858 500.985 204.732 500.985 204.577C500.985 204.422 500.859 204.297 500.705 204.297C500.55 204.297 500.425 204.422 500.425 204.577C500.425 204.732 500.55 204.858 500.705 204.858Z" fill="black"/>
<path d="M499.576 226.258L496.928 226.108C496.118 226.058 494.749 226.088 495.409 225.617C495.419 225.617 496.918 224.535 496.928 224.535C497.237 224.325 497.287 223.734 497.167 223.264H499.996L500.665 224.596C501.065 225.387 500.455 226.308 499.576 226.258Z" fill="#A9A9A9" stroke="black" stroke-width="0.73" stroke-linecap="round" stroke-linejoin="round"/>
<path d="M507.201 216.666C506.192 219.87 497.447 218.158 497.447 218.158L500.006 223.245H497.177C497.137 223.045 497.057 222.875 496.968 222.744C495.908 221.262 494.289 218.669 494.799 217.277C495.548 215.264 497.517 214.403 501.455 215.284L507.201 216.656V216.666Z" fill="white" stroke="black" stroke-width="0.73" stroke-linecap="round" stroke-linejoin="round"/>
<path d="M507.201 216.664L502.764 215.603L502.464 211.317C502.124 211.627 501.774 212.178 501.365 212.709L500.155 210.656C500.615 210.175 501.055 209.645 501.524 209.154C501.964 208.703 502.374 208.363 502.754 208.122C504.213 207.171 506.161 208.102 506.381 209.835C506.601 211.567 506.921 214.191 507.211 216.664H507.201Z" fill="black" stroke="black" stroke-width="0.73" stroke-linecap="round" stroke-linejoin="round"/>
<path d="M501.364 212.72C501.025 213.161 500.635 213.582 500.155 213.812C497.277 215.194 494.889 213.241 494.889 213.241C492.35 212.25 492.53 210.908 492.86 210.507C493.19 210.107 494.469 211.128 494.469 211.128C494.469 211.128 494.429 210.477 494.659 209.876C494.889 209.275 495.798 210.918 495.798 210.918C495.798 210.918 497.877 212.36 499.086 211.579C499.476 211.328 499.825 211.008 500.165 210.657L501.374 212.71L501.364 212.72Z" fill="white" stroke="black" stroke-width="0.73" stroke-linecap="round" stroke-linejoin="round"/>
<path d="M500.315 202.625C500.315 202.625 499.526 199.781 502.014 200.853C504.503 201.924 505.382 202.375 505.782 202.375C506.181 202.375 506.961 204.147 506.961 204.578C506.961 205.009 506.381 206.691 505.422 206.04C504.313 205.289 505.782 203.326 503.333 204.197C502.654 204.438 500.305 202.635 500.305 202.635L500.315 202.625Z" fill="black" stroke="black" stroke-width="0.73" stroke-linecap="round" stroke-linejoin="round"/>
<path d="M513.887 226.509V173.975H508.75V226.509H513.887Z" fill="white" stroke="black" stroke-width="0.73" stroke-linecap="round" stroke-linejoin="round"/>
<path d="M513.887 180.844V173.984H394.934V180.844H513.887Z" fill="#A9A9A9" stroke="black" stroke-width="0.73" stroke-linecap="round" stroke-linejoin="round"/>
<path d="M607.596 174.023V216.974H596.283V185.359C596.283 179.101 601.35 174.023 607.596 174.023Z" fill="white" stroke="black" stroke-width="0.73" stroke-linecap="round" stroke-linejoin="round"/>
<path d="M596.283 226.828V216.975" stroke="black" stroke-width="0.73" stroke-linecap="round" stroke-linejoin="round"/>
<path d="M607.595 226.828H592.105" stroke="black" stroke-width="0.73" stroke-linecap="round" stroke-linejoin="round"/>
<path d="M604.707 201.961C604.707 202.452 604.597 202.892 604.377 203.293C604.158 203.683 603.858 204.004 603.478 204.234C603.098 204.465 602.668 204.585 602.189 204.585C601.709 204.585 601.269 204.465 600.89 204.234C600.51 204.004 600.21 203.683 599.98 203.293C599.76 202.892 599.65 202.452 599.65 201.951C599.65 201.58 599.72 201.23 599.85 200.92C599.98 200.609 600.18 200.329 600.44 200.088L601.399 201.03C601.269 201.14 601.169 201.27 601.109 201.43C601.05 201.58 601.019 201.761 601.019 201.951C601.019 202.171 601.069 202.372 601.159 202.532C601.259 202.702 601.389 202.832 601.569 202.932C601.749 203.033 601.949 203.083 602.179 203.083C602.409 203.083 602.608 203.033 602.788 202.932C602.968 202.832 603.108 202.702 603.198 202.532C603.298 202.362 603.338 202.171 603.338 201.951C603.338 201.751 603.308 201.57 603.238 201.41C603.168 201.26 603.068 201.12 602.928 201.01L603.898 200.068C604.167 200.319 604.367 200.599 604.497 200.91C604.637 201.22 604.697 201.57 604.697 201.971" fill="#10A96C"/>
<path d="M599.75 196.575H600.16C600.04 196.705 599.93 196.845 599.85 197.015C599.72 197.276 599.65 197.566 599.65 197.887C599.65 198.327 599.76 198.718 599.98 199.068C600.2 199.419 600.5 199.689 600.88 199.88C601.259 200.08 601.689 200.17 602.179 200.17C602.668 200.17 603.088 200.07 603.468 199.88C603.848 199.679 604.147 199.409 604.367 199.068C604.587 198.728 604.697 198.337 604.697 197.897C604.697 197.566 604.637 197.276 604.507 197.015C604.427 196.845 604.327 196.695 604.197 196.575H604.597V195.133H599.75V196.575ZM603.018 196.805C603.238 197.005 603.338 197.276 603.338 197.606C603.338 197.817 603.288 198.007 603.188 198.167C603.088 198.327 602.948 198.457 602.778 198.558C602.608 198.648 602.409 198.698 602.179 198.698C601.949 198.698 601.739 198.648 601.569 198.558C601.389 198.468 601.259 198.337 601.159 198.167C601.059 198.007 601.01 197.817 601.01 197.596C601.01 197.376 601.059 197.186 601.159 197.025C601.259 196.865 601.399 196.735 601.569 196.645C601.739 196.555 601.949 196.505 602.179 196.505C602.529 196.505 602.808 196.605 603.018 196.805Z" fill="#00A6BF"/>
<path d="M599.661 191.567C599.641 191.657 599.631 191.758 599.631 191.868C599.631 192.118 599.691 192.358 599.811 192.579C599.931 192.799 600.101 192.999 600.3 193.16C600.35 193.2 600.41 193.24 600.47 193.28L599.741 193.31V194.672H604.588V193.23H602.149C601.999 193.23 601.869 193.21 601.759 193.16C601.64 193.109 601.54 193.049 601.46 192.979C601.37 192.899 601.31 192.809 601.26 192.689C601.21 192.579 601.19 192.449 601.19 192.318C601.19 192.198 601.2 192.078 601.23 191.968C601.26 191.858 601.29 191.768 601.34 191.697L599.721 191.297C599.701 191.377 599.671 191.457 599.661 191.557V191.567Z" fill="#8280B8"/>
<path d="M599.751 206.318H602.499C602.959 206.318 603.339 206.688 603.339 207.139C603.339 207.6 602.969 207.96 602.499 207.96H599.751V209.412H602.389C603.668 209.412 604.698 208.391 604.698 207.129C604.698 205.867 603.658 204.846 602.389 204.846H599.751V206.298V206.318Z" fill="#EF664E"/>
<path d="M320.473 173.984H321.832V219.969H309.72V184.77C309.72 178.821 314.537 173.994 320.473 173.994V173.984Z" fill="white" stroke="black" stroke-width="0.73" stroke-linecap="round" stroke-linejoin="round"/>
<path d="M309.709 230.514V219.969" stroke="black" stroke-width="0.73" stroke-linecap="round" stroke-linejoin="round"/>
<path d="M321.821 230.514H305.242" stroke="black" stroke-width="0.73" stroke-linecap="round" stroke-linejoin="round"/>
<path d="M318.733 203.896C318.733 204.427 318.613 204.897 318.383 205.318C318.153 205.738 317.823 206.079 317.414 206.319C317.004 206.57 316.544 206.69 316.035 206.69C315.525 206.69 315.055 206.57 314.646 206.319C314.236 206.069 313.916 205.728 313.676 205.308C313.436 204.887 313.316 204.407 313.316 203.876C313.316 203.475 313.386 203.105 313.526 202.774C313.666 202.444 313.876 202.143 314.156 201.883L315.175 202.894C315.035 203.015 314.925 203.155 314.865 203.325C314.805 203.485 314.765 203.676 314.765 203.876C314.765 204.116 314.815 204.327 314.915 204.507C315.015 204.687 315.165 204.827 315.355 204.937C315.545 205.048 315.765 205.098 316.015 205.098C316.265 205.098 316.474 205.048 316.664 204.937C316.854 204.827 317.004 204.687 317.104 204.507C317.204 204.327 317.254 204.116 317.254 203.886C317.254 203.666 317.214 203.475 317.144 203.315C317.074 203.155 316.964 203.005 316.814 202.884L317.853 201.873C318.133 202.143 318.353 202.444 318.503 202.774C318.653 203.105 318.723 203.485 318.723 203.906" fill="#10A96C"/>
<path d="M313.427 198.119H313.867C313.737 198.259 313.627 198.409 313.537 198.59C313.397 198.87 313.327 199.18 313.327 199.531C313.327 200.001 313.447 200.422 313.687 200.793C313.927 201.163 314.247 201.454 314.656 201.664C315.066 201.874 315.526 201.984 316.045 201.984C316.565 201.984 317.015 201.874 317.424 201.664C317.834 201.454 318.154 201.163 318.384 200.793C318.614 200.422 318.734 200.001 318.734 199.531C318.734 199.18 318.664 198.86 318.534 198.579C318.444 198.399 318.334 198.239 318.204 198.109H318.634V196.557H313.447V198.109L313.427 198.119ZM316.925 198.369C317.155 198.579 317.275 198.87 317.275 199.23C317.275 199.451 317.225 199.651 317.115 199.831C317.005 200.012 316.865 200.142 316.675 200.252C316.485 200.352 316.275 200.402 316.035 200.402C315.796 200.402 315.566 200.352 315.376 200.252C315.186 200.152 315.036 200.012 314.936 199.831C314.826 199.651 314.776 199.451 314.776 199.22C314.776 198.99 314.826 198.79 314.936 198.61C315.046 198.429 315.186 198.299 315.376 198.199C315.566 198.099 315.776 198.049 316.025 198.049C316.395 198.049 316.695 198.159 316.925 198.369Z" fill="#00A6BF"/>
<path d="M313.327 192.761C313.307 192.861 313.297 192.971 313.297 193.081C313.297 193.352 313.367 193.602 313.497 193.842C313.627 194.083 313.807 194.293 314.026 194.463C314.086 194.513 314.146 194.553 314.206 194.593L313.427 194.623V196.086H318.613V194.533H316.005C315.845 194.533 315.705 194.513 315.585 194.463C315.465 194.413 315.356 194.353 315.266 194.263C315.176 194.183 315.106 194.073 315.056 193.953C315.006 193.832 314.986 193.702 314.986 193.552C314.986 193.422 314.996 193.302 315.026 193.181C315.056 193.061 315.096 192.971 315.136 192.901L313.397 192.48C313.367 192.561 313.347 192.661 313.327 192.761Z" fill="#8280B8"/>
<path d="M313.417 208.552H316.365C316.865 208.552 317.264 208.953 317.264 209.434C317.264 209.924 316.865 210.315 316.365 210.315H313.417V211.877H316.245C317.614 211.877 318.724 210.786 318.724 209.434C318.724 208.082 317.614 206.99 316.245 206.99H313.417V208.552Z" fill="#EF664E"/>
<path d="M487.624 205.098H486.744C486.744 205.098 487.544 208.152 484.576 208.663C481.608 209.174 480.608 206.911 480.608 206.911V203.366L486.025 201.463L486.305 203.045L487.624 205.098Z" fill="white" stroke="black" stroke-width="0.73" stroke-linejoin="round"/>
<path d="M485.645 204.418C485.8 204.418 485.925 204.293 485.925 204.138C485.925 203.983 485.8 203.857 485.645 203.857C485.491 203.857 485.365 203.983 485.365 204.138C485.365 204.293 485.491 204.418 485.645 204.418Z" fill="black"/>
<path d="M488.194 225.838H485.536C484.656 225.838 484.097 224.876 484.546 224.115L488.134 217.887C488.134 217.887 477.131 219.479 476.302 216.224L484.287 214.792C488.264 214.131 490.353 215.583 490.982 217.636C491.412 219.058 489.643 221.552 488.504 222.974C488.174 223.384 488.274 223.975 488.694 224.296C488.694 224.296 488.714 224.306 488.724 224.316C489.353 224.816 488.994 225.838 488.184 225.838H488.194Z" fill="black" stroke="black" stroke-width="0.73" stroke-linecap="round" stroke-linejoin="round"/>
<path d="M490.522 214.902L488.903 216.965C488.903 216.965 485.046 213.65 483.327 211.928L484.296 214.792L476.311 216.224C475.862 214.461 476.281 212.438 476.751 210.936C477.361 209.024 478.98 207.582 480.958 207.311C482.157 207.141 483.477 207.391 484.576 208.663C487.424 211.968 490.522 214.902 490.522 214.902Z" fill="white" stroke="black" stroke-width="0.73" stroke-linecap="round" stroke-linejoin="round"/>
<path d="M486.425 200.992C486.425 199.781 484.866 199.661 484.316 199.781C484.226 199.801 484.416 199.761 484.316 199.781C483.676 199.911 482.837 201.673 481.498 201.673C480.079 201.673 478.81 202.114 478.81 203.726C478.81 204.928 479.319 206.29 479.589 207.351C479.429 207.562 479.339 207.832 479.339 208.113C479.339 208.393 479.429 208.653 479.579 208.864C479.139 208.954 478.81 209.344 478.81 209.815C478.81 210.356 479.249 210.786 479.779 210.786C480.309 210.786 480.748 210.346 480.748 209.815C480.748 209.665 480.708 209.515 480.648 209.394C481.328 209.374 481.878 208.803 481.878 208.113C481.878 207.882 481.818 207.662 481.708 207.482C481.888 207.311 482.047 207.161 482.147 207.061C482.667 206.54 484.966 205.739 484.446 203.536C484.446 203.536 486.415 202.465 486.415 200.992H486.425Z" fill="black"/>
<path d="M480.609 211.558C481.028 211.558 481.369 211.217 481.369 210.797C481.369 210.376 481.028 210.035 480.609 210.035C480.189 210.035 479.849 210.376 479.849 210.797C479.849 211.217 480.189 211.558 480.609 211.558Z" fill="black"/>
<path d="M490.303 214.922C490.303 214.922 492.171 214.752 491.802 215.283C491.432 215.814 490.872 216.144 490.872 216.144C490.872 216.144 492.441 216.625 492.291 217.126C492.141 217.626 491.132 218.528 488.894 216.975L490.303 214.933V214.922Z" fill="white" stroke="black" stroke-width="0.73" stroke-linecap="round" stroke-linejoin="round"/>
<path d="M485.275 205.969C485.275 205.969 485.845 206.559 486.585 206.229L485.275 205.969Z" fill="white"/>
<path d="M485.275 205.969C485.275 205.969 485.845 206.559 486.585 206.229" stroke="black" stroke-width="0.73" stroke-linecap="round" stroke-linejoin="round"/>
<path fill-rule="evenodd" clip-rule="evenodd" d="M221.519 198.874C221.519 191.143 218.131 177.975 213.944 177.975C209.757 177.975 206.369 191.143 206.369 198.874C206.369 205.984 209.237 205.553 212.945 205.924V218.792H214.944V205.924C218.651 205.553 221.519 205.974 221.519 198.874Z" fill="white" stroke="black" stroke-width="0.73" stroke-linecap="round" stroke-linejoin="round"/>
<path fill-rule="evenodd" clip-rule="evenodd" d="M622.526 198.558C622.526 192.249 619.758 181.514 616.35 181.514C612.942 181.514 610.174 192.249 610.174 198.558C610.174 204.356 612.512 204.005 615.53 204.306V214.801H617.159V204.306C620.187 204.005 622.516 204.346 622.516 198.558H622.526Z" fill="white" stroke="black" stroke-width="0.73" stroke-linecap="round" stroke-linejoin="round"/>
<path d="M260.241 85.4498H259.861C259.861 81.0435 256.303 77.4785 251.906 77.4785C247.509 77.4785 243.952 81.0435 243.952 85.4498H243.572C240.254 85.4498 237.556 88.1435 237.556 91.4782C237.556 94.8029 240.244 97.5068 243.572 97.5068H260.241C263.559 97.5068 266.257 94.813 266.257 91.4782C266.257 88.1536 263.569 85.4498 260.241 85.4498Z" fill="white" stroke="black" stroke-width="0.73" stroke-linecap="round" stroke-linejoin="round"/>
<path d="M566.142 127.608L566.192 127.648C566.382 122.38 570.839 118.195 576.205 118.485C581.092 118.745 585.03 122.771 585.189 127.668C585.219 128.669 585.099 129.641 584.84 130.562C585.689 130.312 586.599 130.171 587.538 130.171C587.748 130.171 587.948 130.171 588.147 130.191C593.634 130.542 593.304 138.784 587.808 138.784H562.504C557.747 138.784 554.939 133.446 557.627 129.51L557.887 129.13C559.746 126.416 563.464 125.705 566.142 127.618V127.608Z" fill="white" stroke="black" stroke-width="0.73" stroke-linecap="round" stroke-linejoin="round"/>
<path d="M378.274 56.4085L378.214 56.4485C377.994 50.1697 372.688 45.2027 366.292 45.5332C360.476 45.8436 355.789 50.6303 355.599 56.4686C355.559 57.6603 355.709 58.8219 356.009 59.9134C354.989 59.613 353.92 59.4528 352.801 59.4528C352.551 59.4528 352.311 59.4528 352.071 59.4728C345.536 59.8934 345.925 69.7072 352.481 69.7072H382.611C388.278 69.7072 391.616 63.3483 388.418 58.6717L388.108 58.221C385.899 54.9865 381.462 54.1453 378.274 56.4185V56.4085Z" fill="white" stroke="black" stroke-width="0.73" stroke-linecap="round" stroke-linejoin="round"/>
<path d="M484.115 37.441C492.223 37.441 498.795 30.8548 498.795 22.7303C498.795 14.6058 492.223 8.01953 484.115 8.01953C476.007 8.01953 469.435 14.6058 469.435 22.7303C469.435 30.8548 476.007 37.441 484.115 37.441Z" fill="white" stroke="black" stroke-width="0.73" stroke-linecap="round" stroke-linejoin="round"/>
<path d="M484.115 4.85544V1" stroke="black" stroke-width="0.73" stroke-linecap="round" stroke-linejoin="round"/>
<path d="M496.728 10.093L499.446 7.36914" stroke="black" stroke-width="0.73" stroke-linecap="round" stroke-linejoin="round"/>
<path d="M501.954 22.7305H505.792" stroke="black" stroke-width="0.73" stroke-linecap="round" stroke-linejoin="round"/>
<path d="M496.728 35.3691L499.446 38.093" stroke="black" stroke-width="0.73" stroke-linecap="round" stroke-linejoin="round"/>
<path d="M484.115 40.5957V44.4511" stroke="black" stroke-width="0.73" stroke-linecap="round" stroke-linejoin="round"/>
<path d="M471.503 35.3691L468.785 38.093" stroke="black" stroke-width="0.73" stroke-linecap="round" stroke-linejoin="round"/>
<path d="M466.277 22.7305H462.439" stroke="black" stroke-width="0.73" stroke-linecap="round" stroke-linejoin="round"/>
<path d="M471.503 10.093L468.785 7.36914" stroke="black" stroke-width="0.73" stroke-linecap="round" stroke-linejoin="round"/>
<path d="M630.051 297.058C630.051 298.249 629.402 300.522 629.232 301.704L614.431 302.355H503.533C501.165 302.355 498.846 301.834 496.748 300.873C494.639 299.902 492.74 298.49 491.191 296.687V285.661C491.191 283.719 491.811 281.836 492.97 280.284L504.833 264.311L524.46 261.938L541.888 261.227C560.356 260.476 578.565 265.723 593.865 276.118C593.955 276.178 594.045 276.238 594.134 276.308L594.434 276.509C601.879 276.509 609.275 277.54 616.41 279.573C618.898 280.274 621.347 281.105 623.765 282.056L623.985 282.146C624.435 282.327 624.855 282.567 625.224 282.878C625.594 283.178 625.924 283.538 626.184 283.949C627.343 285.742 628.252 287.664 628.892 289.667C629.661 292.06 630.061 294.554 630.061 297.078L630.051 297.058Z" fill="white" stroke="black" stroke-width="0.73" stroke-linecap="round" stroke-linejoin="round"/>
<path d="M630.051 297.058C630.051 298.249 629.402 300.523 629.232 301.704L614.431 302.355H503.533C501.165 302.355 498.846 301.834 496.748 300.873C494.639 299.902 492.74 298.49 491.191 296.687L492.311 296.357C498.357 294.574 504.043 291.78 509.31 288.305C511.368 286.943 513.827 286.152 516.465 286.152C520.572 286.152 524.23 288.055 526.618 291.029C527.997 292.752 529.736 294.134 531.755 295.015L532.105 295.165C536.512 297.078 541.259 298.059 546.056 298.059H571.789C579.064 298.059 586.16 295.796 592.096 291.58L593.765 290.398C595.923 288.365 598.831 287.114 602.019 287.114C605.587 287.114 608.785 288.666 610.994 291.129C613.202 293.593 615.75 295.566 618.669 296.998C620.088 297.689 621.677 297.969 623.256 297.799L630.061 297.048L630.051 297.058Z" fill="#A9A9A9" stroke="black" stroke-width="0.73" stroke-linecap="round" stroke-linejoin="round"/>
<path d="M602.009 309.134C607.484 309.134 611.923 304.686 611.923 299.2C611.923 293.713 607.484 289.266 602.009 289.266C596.534 289.266 592.096 293.713 592.096 299.2C592.096 304.686 596.534 309.134 602.009 309.134Z" fill="white" stroke="black" stroke-width="0.73" stroke-linecap="round" stroke-linejoin="round"/>
<path d="M516.455 309.134C521.93 309.134 526.368 304.686 526.368 299.2C526.368 293.713 521.93 289.266 516.455 289.266C510.979 289.266 506.541 293.713 506.541 299.2C506.541 304.686 510.979 309.134 516.455 309.134Z" fill="white" stroke="black" stroke-width="0.73" stroke-linecap="round" stroke-linejoin="round"/>
<path d="M516.455 305.198C519.761 305.198 522.441 302.513 522.441 299.2C522.441 295.887 519.761 293.201 516.455 293.201C513.149 293.201 510.469 295.887 510.469 299.2C510.469 302.513 513.149 305.198 516.455 305.198Z" fill="white" stroke="black" stroke-width="0.73" stroke-linecap="round" stroke-linejoin="round"/>
<path d="M517.284 271.972C517.284 274.866 519.573 277.239 522.451 277.35L583.871 279.613C583.871 277.199 582.532 274.986 580.393 273.875L577.625 272.433C569.77 268.347 561.206 265.793 552.392 264.902C547.635 264.421 542.828 264.431 538.071 264.932L522.081 266.614C519.353 266.905 517.274 269.208 517.274 271.962L517.284 271.972Z" fill="white" stroke="black" stroke-width="0.73" stroke-linecap="round" stroke-linejoin="round"/>
<path d="M523.251 266.494L523.861 277.389" stroke="black" stroke-width="0.73" stroke-linecap="round" stroke-linejoin="round"/>
<path d="M549.153 264.652C550.552 268.678 551.072 272.964 550.682 277.21L550.572 278.382" stroke="black" stroke-width="0.73" stroke-linecap="round" stroke-linejoin="round"/>
<path d="M628.881 289.646C626.413 290.648 622.895 289.877 620.057 287.453C617.399 285.18 616.06 282.096 616.4 279.572C618.888 280.273 621.336 281.104 623.755 282.056L623.975 282.146C624.424 282.326 624.844 282.566 625.214 282.877C625.584 283.177 625.913 283.538 626.173 283.948C627.333 285.741 628.242 287.664 628.881 289.666V289.646Z" fill="white" stroke="black" stroke-width="0.73" stroke-linecap="round" stroke-linejoin="round"/>
<path d="M602.01 305.198C605.316 305.198 607.996 302.513 607.996 299.2C607.996 295.887 605.316 293.201 602.01 293.201C598.704 293.201 596.023 295.887 596.023 299.2C596.023 302.513 598.704 305.198 602.01 305.198Z" fill="white" stroke="black" stroke-width="0.73" stroke-linecap="round" stroke-linejoin="round"/>
<path d="M386.606 294.894C386.606 294.894 376.712 303.587 371.016 303.587C365.32 303.587 358.794 300.873 358.794 300.873V291.62C358.794 291.62 368.707 295.846 371.426 295.846C374.144 295.846 383.358 287.854 383.358 287.854C383.358 287.854 384.437 284.199 385.257 284.199C385.746 284.199 386.306 285.321 386.666 286.222C388.864 284.93 391.353 284.079 392.272 286.022C394.061 289.807 386.606 294.894 386.606 294.894Z" fill="white" stroke="black" stroke-width="0.73" stroke-linecap="round" stroke-linejoin="round"/>
<path d="M342.874 368.458H360.053C360.053 368.458 359.663 362.479 355.036 361.248C354.377 361.067 353.947 360.286 353.687 359.055H343.884L342.864 368.458H342.874Z" fill="#A9A9A9" stroke="black" stroke-width="0.73" stroke-linecap="round" stroke-linejoin="round"/>
<path d="M347.901 321.873L343.894 359.055H353.697C352.128 351.655 356.865 328.372 356.865 328.372" fill="white"/>
<path d="M347.901 321.873L343.894 359.055H353.697C352.128 351.655 356.865 328.372 356.865 328.372" stroke="black" stroke-width="0.73" stroke-linecap="round" stroke-linejoin="round"/>
<path d="M358.994 270.49C362.082 270.49 359.983 274.476 361.582 276.088C363.181 277.701 365.53 279.643 363.271 280.234C361.013 280.825 363.991 286.423 361.492 288.916C360.873 289.537 356.905 287.054 356.905 288.225C356.905 288.856 357.575 291.34 357.215 291.71C355.666 293.323 351.079 292.171 350.549 286.964C349.94 280.935 345.793 270.48 358.994 270.48V270.49Z" fill="white" stroke="black" stroke-width="0.73" stroke-linecap="round" stroke-linejoin="round"/>
<path d="M362.462 283.779C362.462 283.779 360.813 285.081 358.234 283.107L362.462 283.779Z" fill="white"/>
<path d="M362.462 283.779C362.462 283.779 360.813 285.081 358.234 283.107" stroke="black" stroke-width="0.73" stroke-linecap="round" stroke-linejoin="round"/>
<path d="M358.794 278.162C359.219 278.162 359.563 277.817 359.563 277.391C359.563 276.965 359.219 276.619 358.794 276.619C358.369 276.619 358.024 276.965 358.024 277.391C358.024 277.817 358.369 278.162 358.794 278.162Z" fill="black"/>
<path d="M358.374 368.458H378.741C378.361 365.934 376.402 363.952 373.894 363.521C371.915 363.18 369.876 362.319 368.987 359.055H358.294C358.464 364.422 358.384 368.458 358.384 368.458H358.374Z" fill="#A9A9A9" stroke="black" stroke-width="0.73" stroke-linecap="round" stroke-linejoin="round"/>
<path d="M353.367 330.615C354.087 332.177 354.986 334.631 356.015 338.506C357.514 344.154 358.074 352.576 358.274 359.055H368.967C368.757 358.314 368.617 357.443 368.547 356.432C367.898 347.018 361.342 321.883 361.342 321.883" fill="white"/>
<path d="M353.367 330.615C354.087 332.177 354.986 334.631 356.015 338.506C357.514 344.154 358.074 352.576 358.274 359.055H368.967C368.757 358.314 368.617 357.443 368.547 356.432C367.898 347.018 361.342 321.883 361.342 321.883" stroke="black" stroke-width="0.73" stroke-linecap="round" stroke-linejoin="round"/>
<path d="M357.035 274.025C357.035 274.025 363.311 272.703 363.311 271.621C363.311 270.54 358.894 266.163 357.475 267.595C356.056 269.028 353.907 267.846 352.008 268.477C350.11 269.108 345.992 272.502 345.992 274.225C345.992 275.947 348.101 279.102 348.351 280.794C348.6 282.486 351.778 281.946 351.778 281.946L352.708 280.363C352.708 280.363 349.28 278.15 351.289 276.628C353.297 275.106 354.647 277.029 354.647 277.029L357.025 274.035L357.035 274.025Z" fill="black" stroke="black" stroke-width="0.73" stroke-linecap="round" stroke-linejoin="round"/>
<path d="M361.662 321.872H352.308L351.689 328.391L350.389 332.757C349.86 334.529 348.601 336.001 346.902 336.712C346.122 337.033 345.383 337.143 344.913 336.843C344.393 336.512 344.063 336.031 344.004 335.601C343.694 333.548 344.063 330.043 345.103 326.798C345.103 326.798 346.002 294.082 351.918 292.75C353.437 292.41 356.246 290.998 357.725 291.799C359.094 292.54 360.553 296.476 361.342 303.516C362.132 310.566 361.652 321.872 361.652 321.872H361.662Z" fill="white" stroke="black" stroke-width="0.73" stroke-linecap="round" stroke-linejoin="round"/>
<path d="M354.526 299.51L352.298 321.871" stroke="black" stroke-width="0.73" stroke-linecap="round" stroke-linejoin="round"/>
<path d="M351.918 291.059C349.06 292.27 346.292 289.416 345.442 301.984C344.593 314.562 345.342 321.051 345.342 321.051C345.342 321.051 351.029 321.862 356.855 321.862H363.301C363.301 321.862 363.481 293.963 361.162 291.639C358.844 289.316 351.908 291.049 351.908 291.049L351.918 291.059Z" fill="black" stroke="black" stroke-width="0.73" stroke-linecap="round" stroke-linejoin="round"/>
<path d="M352.158 323.385C352.158 323.385 357.754 293.402 350.379 293.402C344.363 293.402 345.262 322.974 345.262 322.974" fill="white"/>
<path d="M352.158 323.385C352.158 323.385 357.754 293.402 350.379 293.402C344.363 293.402 345.262 322.974 345.262 322.974" stroke="black" stroke-width="0.73" stroke-linecap="round" stroke-linejoin="round"/>
<path d="M358.154 298.97C357.974 298.97 357.804 298.93 357.654 298.85C357.505 298.77 357.385 298.65 357.305 298.509C357.215 298.369 357.175 298.199 357.175 298.018C357.175 297.838 357.215 297.668 357.305 297.528C357.395 297.387 357.515 297.267 357.654 297.187C357.804 297.107 357.974 297.057 358.154 297.057C358.294 297.057 358.424 297.077 358.544 297.127C358.664 297.177 358.764 297.247 358.854 297.347L358.504 297.708C358.504 297.708 358.414 297.618 358.354 297.598C358.294 297.578 358.234 297.568 358.164 297.568C358.084 297.568 358.004 297.588 357.944 297.618C357.884 297.658 357.834 297.708 357.794 297.768C357.754 297.838 357.734 297.908 357.734 297.998C357.734 298.089 357.754 298.159 357.794 298.229C357.834 298.299 357.884 298.349 357.944 298.389C358.004 298.429 358.084 298.439 358.164 298.439C358.244 298.439 358.304 298.429 358.364 298.399C358.424 298.379 358.474 298.339 358.514 298.279L358.864 298.64C358.774 298.74 358.664 298.82 358.544 298.87C358.424 298.92 358.294 298.95 358.144 298.95" fill="#10A96C"/>
<path d="M360.174 297.106V297.257C360.174 297.257 360.074 297.167 360.004 297.137C359.904 297.086 359.794 297.066 359.674 297.066C359.514 297.066 359.364 297.106 359.234 297.197C359.104 297.277 359.004 297.397 358.924 297.537C358.854 297.678 358.814 297.838 358.814 298.028C358.814 298.219 358.854 298.369 358.924 298.509C358.994 298.649 359.104 298.76 359.224 298.85C359.354 298.93 359.504 298.97 359.664 298.97C359.784 298.97 359.894 298.95 359.994 298.9C360.054 298.87 360.114 298.83 360.164 298.78V298.93H360.703V297.106H360.164H360.174ZM360.084 298.339C360.004 298.419 359.904 298.459 359.784 298.459C359.704 298.459 359.634 298.439 359.574 298.399C359.514 298.359 359.464 298.309 359.424 298.249C359.384 298.189 359.374 298.108 359.374 298.028C359.374 297.948 359.394 297.868 359.424 297.798C359.464 297.728 359.504 297.678 359.574 297.637C359.634 297.597 359.704 297.577 359.784 297.577C359.864 297.577 359.934 297.597 359.994 297.637C360.054 297.678 360.104 297.728 360.134 297.788C360.164 297.848 360.184 297.928 360.184 298.018C360.184 298.148 360.144 298.259 360.074 298.339H360.084Z" fill="#00A6BF"/>
<path d="M362.053 297.076C362.053 297.076 361.983 297.066 361.943 297.066C361.853 297.066 361.763 297.086 361.673 297.137C361.593 297.187 361.513 297.247 361.453 297.327C361.433 297.347 361.423 297.367 361.413 297.387V297.117H360.893V298.94H361.433V298.018C361.433 297.958 361.433 297.918 361.463 297.868C361.483 297.828 361.503 297.788 361.533 297.758C361.563 297.728 361.603 297.698 361.643 297.688C361.683 297.668 361.733 297.658 361.783 297.658C361.833 297.658 361.873 297.658 361.913 297.678C361.953 297.688 361.993 297.698 362.013 297.718L362.163 297.106C362.163 297.106 362.103 297.086 362.063 297.086L362.053 297.076Z" fill="#8280B8"/>
<path d="M356.526 297.107V298.139C356.526 298.31 356.386 298.45 356.216 298.45C356.046 298.45 355.906 298.31 355.906 298.139V297.107H355.356V298.099C355.356 298.58 355.736 298.971 356.216 298.971C356.696 298.971 357.075 298.58 357.075 298.099V297.107H356.526Z" fill="#EF664E"/>
<path d="M345.103 326.799L351.768 327.52" stroke="black" stroke-width="0.73" stroke-linecap="round" stroke-linejoin="round"/>
<path d="M381.729 289.217L386.605 294.895" stroke="black" stroke-width="0.73" stroke-linecap="round" stroke-linejoin="round"/>
<path d="M495.928 286.818V323.64H456.084V284.314H482.117C482.427 284.314 482.727 284.314 483.026 284.335C483.126 284.335 483.236 284.335 483.336 284.335C487.713 284.465 491.961 285.326 495.938 286.818H495.928Z" fill="white" stroke="black" stroke-width="0.73" stroke-linecap="round" stroke-linejoin="round"/>
<path d="M386.199 323.641C386.199 334.175 377.675 342.718 367.161 342.718H358.287C358.497 342.187 358.717 341.666 358.957 341.145C360.446 337.881 362.514 334.937 365.003 332.433C370.009 327.416 376.785 324.171 384.31 323.701C384.74 323.671 385.16 323.661 385.599 323.651C385.799 323.641 385.999 323.641 386.199 323.641Z" fill="white" stroke="black" stroke-width="0.73" stroke-linecap="round" stroke-linejoin="round"/>
<path d="M539.469 354.844H356.229V353.672C356.229 351.62 356.428 349.607 356.828 347.674C357.168 345.962 357.658 344.309 358.287 342.717H367.161C377.675 342.717 386.199 334.175 386.199 323.64L397.152 305.014C397.392 304.613 397.632 304.213 397.881 303.822C399.121 301.869 400.5 300.037 402.019 298.334C402.319 297.994 402.628 297.664 402.938 297.333C403.098 297.173 403.248 297.003 403.408 296.842C403.568 296.682 403.728 296.522 403.888 296.362C411.633 288.731 422.156 284.305 433.298 284.305H456.084V323.63H495.928V286.808C505.601 290.423 513.676 297.784 518.093 307.547L525.359 323.62L539.469 354.824V354.844Z" fill="#A9A9A9" stroke="black" stroke-width="0.73" stroke-linecap="round" stroke-linejoin="round"/>
<path d="M531.725 371.627H356.589C353.211 371.627 350.473 368.883 350.473 365.498V361.122C350.473 357.657 353.281 354.833 356.749 354.833H539.47V363.866C539.47 368.152 536.002 371.627 531.725 371.627Z" fill="white" stroke="black" stroke-width="0.73" stroke-linecap="round" stroke-linejoin="round"/>
<path d="M393.475 386.999C402.99 386.999 410.704 379.27 410.704 369.735C410.704 360.2 402.99 352.471 393.475 352.471C383.96 352.471 376.246 360.2 376.246 369.735C376.246 379.27 383.96 386.999 393.475 386.999Z" fill="white" stroke="black" stroke-width="0.73" stroke-miterlimit="10"/>
<path d="M393.475 380.289C399.292 380.289 404.008 375.564 404.008 369.735C404.008 363.905 399.292 359.18 393.475 359.18C387.657 359.18 382.941 363.905 382.941 369.735C382.941 375.564 387.657 380.289 393.475 380.289Z" fill="white" stroke="black" stroke-width="0.73" stroke-miterlimit="10"/>
<path d="M504.183 386.999C513.698 386.999 521.412 379.27 521.412 369.735C521.412 360.2 513.698 352.471 504.183 352.471C494.668 352.471 486.954 360.2 486.954 369.735C486.954 379.27 494.668 386.999 504.183 386.999Z" fill="white" stroke="black" stroke-width="0.73" stroke-miterlimit="10"/>
<path d="M504.183 380.289C510 380.289 514.716 375.564 514.716 369.735C514.716 363.905 510 359.18 504.183 359.18C498.365 359.18 493.649 363.905 493.649 369.735C493.649 375.564 498.365 380.289 504.183 380.289Z" fill="white" stroke="black" stroke-width="0.73" stroke-miterlimit="10"/>
<path d="M525.359 323.64H495.928V286.818C505.601 290.433 513.676 297.794 518.093 307.568L525.359 323.64Z" fill="white" stroke="black" stroke-width="0.73" stroke-linecap="round" stroke-linejoin="round"/>
<path d="M443.062 284.315V323.64H386.189L397.142 305.014C397.382 304.613 397.622 304.213 397.872 303.822C399.111 301.869 400.5 300.037 402.009 298.334C402.309 297.994 402.619 297.664 402.929 297.333C403.088 297.173 403.238 297.003 403.398 296.842C403.558 296.682 403.718 296.522 403.878 296.362C411.623 288.731 422.146 284.305 433.289 284.305H443.062V284.315Z" fill="white" stroke="black" stroke-width="0.73" stroke-miterlimit="10"/>
<path d="M401.03 309.17H398.162V323.64H401.03V309.17Z" fill="black"/>
<path d="M419.838 301.649H421.927C421.927 301.649 419.838 308.769 426.054 307.467C426.983 307.277 425.764 309.91 427.093 310.131C434.159 311.342 436.527 310.982 436.527 310.982V297.503L423.636 292.977L422.966 296.752L419.828 301.649H419.838Z" fill="white" stroke="black" stroke-width="0.73" stroke-linejoin="round"/>
<path d="M424.535 300.007C424.905 300.007 425.205 299.706 425.205 299.335C425.205 298.965 424.905 298.664 424.535 298.664C424.165 298.664 423.865 298.965 423.865 299.335C423.865 299.706 424.165 300.007 424.535 300.007Z" fill="black"/>
<path d="M424.735 303.332C424.735 303.332 423.515 304.614 421.896 303.893L424.735 303.332Z" fill="white"/>
<path d="M424.735 303.332C424.735 303.332 423.515 304.614 421.896 303.893" stroke="black" stroke-width="0.73" stroke-linecap="round" stroke-linejoin="round"/>
<path d="M443.063 313.084C443.063 313.084 432.469 306.305 422.356 312.483C412.243 318.662 405.757 316.589 405.757 316.589V323.519C405.757 323.519 419.638 324.721 424.415 319.944V323.659H443.073V313.104L443.063 313.084Z" fill="white" stroke="black" stroke-width="0.73" stroke-linecap="round" stroke-linejoin="round"/>
<path d="M405.757 316.578C405.757 316.578 401.75 313.234 401.75 315.026C401.75 316.819 402.519 318.461 402.519 318.461C402.519 318.461 398.172 317.079 397.722 318.461C397.273 319.843 398.172 323.508 405.757 323.508V316.578Z" fill="white" stroke="black" stroke-width="0.73" stroke-linecap="round" stroke-linejoin="round"/>
<path d="M421.926 290.252C420.377 291.304 420.477 293.607 422.096 294.538C424.085 295.67 426.943 297.542 430.241 298.003C431.33 298.153 434.119 296.14 434.119 299.345C434.119 301.087 436.537 302.64 436.537 303.421C436.537 303.421 436.537 305.454 436.537 303.421V296.13C436.537 293.447 434.199 291.364 431.54 291.674L429.921 291.864C428.692 292.005 427.453 291.664 426.464 290.913L425.304 290.032C424.445 289.381 423.256 289.341 422.366 289.952L421.926 290.252Z" fill="black" stroke="black" stroke-width="0.73" stroke-linecap="round" stroke-linejoin="round"/>
<path d="M713.776 206.049V206.38H653.915L657.862 197.657L659.891 193.161C661.13 190.427 663.379 188.374 666.087 187.363C667.196 186.942 668.386 186.702 669.615 186.672C669.645 186.672 669.675 186.672 669.705 186.672C669.795 186.672 669.875 186.672 669.965 186.672H692.23C696.387 186.672 700.225 188.875 702.334 192.46L705.392 197.667C705.452 197.667 705.502 197.667 705.562 197.667C705.681 197.667 705.801 197.667 705.921 197.677C708.02 197.808 709.919 198.719 711.318 200.121C712.017 200.822 712.597 201.643 713.007 202.554C713.266 203.135 713.476 203.736 713.596 204.377C713.706 204.918 713.766 205.478 713.766 206.059L713.776 206.049Z" fill="white" stroke="black" stroke-width="0.73" stroke-linecap="round" stroke-linejoin="round"/>
<path d="M653.915 206.371H713.916C714.726 206.371 715.385 207.032 715.385 207.843V211.068H653.915V206.371Z" fill="white" stroke="black" stroke-width="0.73" stroke-linecap="round" stroke-linejoin="round"/>
<path d="M703.363 215.363C706.023 215.363 708.18 213.202 708.18 210.536C708.18 207.87 706.023 205.709 703.363 205.709C700.702 205.709 698.546 207.87 698.546 210.536C698.546 213.202 700.702 215.363 703.363 215.363Z" fill="white" stroke="black" stroke-width="0.73" stroke-linecap="round" stroke-linejoin="round"/>
<path d="M703.363 213.49C704.991 213.49 706.311 212.168 706.311 210.536C706.311 208.905 704.991 207.582 703.363 207.582C701.735 207.582 700.415 208.905 700.415 210.536C700.415 212.168 701.735 213.49 703.363 213.49Z" fill="white" stroke="black" stroke-width="0.73" stroke-linecap="round" stroke-linejoin="round"/>
<path d="M663.788 215.363C666.449 215.363 668.605 213.202 668.605 210.536C668.605 207.87 666.449 205.709 663.788 205.709C661.128 205.709 658.972 207.87 658.972 210.536C658.972 213.202 661.128 215.363 663.788 215.363Z" fill="white" stroke="black" stroke-width="0.73" stroke-linecap="round" stroke-linejoin="round"/>
<path d="M663.789 213.49C665.417 213.49 666.737 212.168 666.737 210.536C666.737 208.905 665.417 207.582 663.789 207.582C662.161 207.582 660.841 208.905 660.841 210.536C660.841 212.168 662.161 213.49 663.789 213.49Z" fill="white" stroke="black" stroke-width="0.73" stroke-linecap="round" stroke-linejoin="round"/>
<path d="M705.392 197.648C705.392 200.593 707.77 202.986 710.718 202.986H713.197" fill="white"/>
<path d="M705.392 197.648C705.392 200.593 707.77 202.986 710.718 202.986H713.197" stroke="black" stroke-width="0.73" stroke-linecap="round" stroke-linejoin="round"/>
<path d="M666.097 187.354V197.648H657.862L659.891 193.152C661.13 190.418 663.379 188.365 666.087 187.354H666.097Z" fill="white" stroke="black" stroke-width="0.73" stroke-linecap="round" stroke-linejoin="round"/>
<path d="M685.855 186.652V197.648H669.705V186.652C669.795 186.652 669.875 186.652 669.965 186.652H685.855Z" fill="white" stroke="black" stroke-width="0.73" stroke-linecap="round" stroke-linejoin="round"/>
<path d="M705.392 197.648H689.492V186.652H692.22C696.378 186.652 700.215 188.855 702.324 192.441L705.382 197.648H705.392Z" fill="white" stroke="black" stroke-width="0.73" stroke-linecap="round" stroke-linejoin="round"/>
<path d="M264.158 306.74H255.134C248.958 306.74 243.172 303.666 239.714 298.538L235.856 292.82L252.975 296.876C258.172 298.108 262.319 301.853 264.148 306.73L264.158 306.74Z" fill="white" stroke="black" stroke-width="0.73" stroke-linecap="round" stroke-linejoin="round"/>
<path d="M217.898 271.86H182.841V262.617H204.437C210.393 262.617 215.739 266.292 217.888 271.86H217.898Z" fill="white" stroke="black" stroke-width="0.73" stroke-linecap="round" stroke-linejoin="round"/>
<path d="M257.192 333.847H182.841V319.166H266.496L267.006 322.28C267.995 328.339 263.329 333.847 257.202 333.847H257.192Z" fill="#A9A9A9" stroke="black" stroke-width="0.73" stroke-linecap="round" stroke-linejoin="round"/>
<path d="M264.958 309.753C264.788 308.712 264.518 307.7 264.148 306.729H255.124C248.948 306.729 243.162 303.654 239.704 298.527L235.847 292.809L231.43 287.652L217.878 271.85H182.821V319.156H266.477L264.948 309.743L264.958 309.753ZM221.536 298.487C221.416 297.636 221.196 295.483 221.846 294.642C222.076 294.341 223.475 296.234 223.745 295.934C224.754 294.782 225.913 293.761 226.793 293.931C227.812 294.121 228.262 294.592 228.462 294.992C226.733 297.025 224.234 298.307 221.536 298.487Z" fill="white" stroke="black" stroke-width="0.73" stroke-linecap="round" stroke-linejoin="round"/>
<path d="M228.472 295.002C229.401 293.921 230.101 292.619 230.5 291.147L231.45 287.662" stroke="black" stroke-width="0.95" stroke-miterlimit="10"/>
<path d="M221.536 298.487C220.607 298.547 219.657 298.487 218.708 298.267L218.578 298.237L206.965 295.643C206.206 295.473 205.466 295.252 204.747 294.982C198.511 292.619 194.264 286.61 194.264 279.771V271.859" fill="white"/>
<path d="M221.536 298.487C220.607 298.547 219.657 298.487 218.708 298.267L218.578 298.237L206.965 295.643C206.206 295.473 205.466 295.252 204.747 294.982C198.511 292.619 194.264 286.61 194.264 279.771V271.859" stroke="black" stroke-width="0.73" stroke-linecap="round" stroke-linejoin="round"/>
<path d="M235.857 346.324C243.341 346.324 249.408 340.245 249.408 332.745C249.408 325.246 243.341 319.166 235.857 319.166C228.373 319.166 222.306 325.246 222.306 332.745C222.306 340.245 228.373 346.324 235.857 346.324Z" fill="white" stroke="black" stroke-width="0.95" stroke-miterlimit="10"/>
<path d="M235.857 339.025C239.317 339.025 242.123 336.213 242.123 332.746C242.123 329.278 239.317 326.467 235.857 326.467C232.396 326.467 229.591 329.278 229.591 332.746C229.591 336.213 232.396 339.025 235.857 339.025Z" fill="white" stroke="black" stroke-width="0.73" stroke-linecap="round" stroke-linejoin="round"/>
<path d="M176.036 299.779H34.7275V319.167H176.036V299.779Z" fill="white" stroke="black" stroke-width="0.95" stroke-linecap="round" stroke-linejoin="round"/>
<path d="M182.851 319.166H43.332V329.821H182.851V319.166Z" fill="#A9A9A9" stroke="black" stroke-width="0.95" stroke-linecap="round" stroke-linejoin="round"/>
<path d="M80.4574 346.324C87.9416 346.324 94.0086 340.245 94.0086 332.745C94.0086 325.246 87.9416 319.166 80.4574 319.166C72.9733 319.166 66.9062 325.246 66.9062 332.745C66.9062 340.245 72.9733 346.324 80.4574 346.324Z" fill="white" stroke="black" stroke-width="0.73" stroke-linecap="round" stroke-linejoin="round"/>
<path d="M80.4573 339.025C83.9179 339.025 86.7233 336.213 86.7233 332.746C86.7233 329.278 83.9179 326.467 80.4573 326.467C76.9968 326.467 74.1914 329.278 74.1914 332.746C74.1914 336.213 76.9968 339.025 80.4573 339.025Z" fill="white" stroke="black" stroke-width="0.73" stroke-linecap="round" stroke-linejoin="round"/>
<path d="M203.638 287.723L202.908 283.728C202.339 282.166 201.779 282.296 201.879 280.633C201.989 278.641 203.428 276.978 205.377 276.588L205.596 276.538C207.805 276.087 209.954 277.399 210.653 279.542C210.813 280.033 211.543 281.024 211.742 281.194C212.562 281.865 211.063 283.257 211.063 283.257C211.063 283.257 211.982 286.692 208.784 285.941L208.445 287.653" fill="white"/>
<path d="M203.638 287.723L202.908 283.728C202.339 282.166 201.779 282.296 201.879 280.633C201.989 278.641 203.428 276.978 205.377 276.588L205.596 276.538C207.805 276.087 209.954 277.399 210.653 279.542C210.813 280.033 211.543 281.024 211.742 281.194C212.562 281.865 211.063 283.257 211.063 283.257C211.063 283.257 211.982 286.692 208.784 285.941L208.445 287.653" stroke="black" stroke-width="0.73" stroke-linecap="round" stroke-linejoin="round"/>
<path d="M209.743 277.949C209.743 277.949 212.911 277.499 212.382 275.936C211.852 274.374 210.943 274.545 207.865 274.545C204.787 274.545 201.259 274.715 201.259 276.457C201.259 278.2 199.64 279.451 200.729 281.665C201.809 283.878 203.108 284.619 203.587 282.616C204.067 280.623 202.538 281.625 202.918 280.533C203.717 278.24 205.306 280.142 206.935 279.622C208.564 279.101 209.753 277.939 209.753 277.939L209.743 277.949Z" fill="white" stroke="black" stroke-width="0.73" stroke-linecap="round" stroke-linejoin="round"/>
<path d="M209.264 281.035C209.529 281.035 209.744 280.811 209.744 280.534C209.744 280.257 209.529 280.033 209.264 280.033C208.999 280.033 208.784 280.257 208.784 280.534C208.784 280.811 208.999 281.035 209.264 281.035Z" fill="white" stroke="black" stroke-width="0.73" stroke-linecap="round" stroke-linejoin="round"/>
<path d="M208.784 283.348C208.784 283.348 209.394 284.6 211.183 284.37L208.784 283.348Z" fill="white"/>
<path d="M208.784 283.348C208.784 283.348 209.394 284.6 211.183 284.37" stroke="black" stroke-width="0.73" stroke-linecap="round" stroke-linejoin="round"/>
<path d="M201.988 293.632C202.488 290.858 203.537 286.312 205.076 286.342C210.233 286.462 212.362 293.933 213.021 297.007" fill="white"/>
<path d="M201.988 293.632C202.488 290.858 203.537 286.312 205.076 286.342C210.233 286.462 212.362 293.933 213.021 297.007" stroke="black" stroke-width="0.73" stroke-linecap="round" stroke-linejoin="round"/>
<path d="M202.938 294.153C202.828 291.519 202.958 286.993 205.076 286.342C205.076 286.342 208.964 285.331 210.972 296.546" fill="white"/>
<path d="M202.938 294.153C202.828 291.519 202.958 286.993 205.076 286.342C205.076 286.342 208.964 285.331 210.972 296.546" stroke="black" stroke-width="0.73" stroke-linecap="round" stroke-linejoin="round"/>
<path d="M201.299 312.458C200.419 312.458 199.62 312.268 198.91 311.897C198.201 311.517 197.641 311.006 197.221 310.345C196.802 309.684 196.592 308.943 196.592 308.122C196.592 307.301 196.802 306.54 197.221 305.889C197.641 305.228 198.201 304.707 198.92 304.327C199.63 303.946 200.439 303.756 201.329 303.756C201.998 303.756 202.618 303.866 203.178 304.096C203.737 304.327 204.237 304.657 204.667 305.108L202.968 306.75C202.768 306.52 202.528 306.36 202.248 306.249C201.968 306.149 201.658 306.099 201.319 306.099C200.919 306.099 200.569 306.179 200.269 306.35C199.97 306.52 199.73 306.75 199.55 307.051C199.37 307.351 199.28 307.701 199.28 308.102C199.28 308.503 199.37 308.843 199.55 309.143C199.73 309.454 199.97 309.694 200.279 309.854C200.589 310.025 200.929 310.105 201.319 310.105C201.688 310.105 202.008 310.045 202.278 309.935C202.558 309.824 202.798 309.644 202.998 309.404L204.697 311.066C204.247 311.527 203.747 311.867 203.188 312.108C202.628 312.338 201.998 312.458 201.289 312.458H201.299Z" fill="#10A96C"/>
<path d="M210.983 303.936V304.647C210.753 304.437 210.493 304.256 210.183 304.106C209.714 303.876 209.184 303.766 208.614 303.766C207.825 303.766 207.115 303.956 206.496 304.336C205.866 304.717 205.386 305.238 205.027 305.889C204.677 306.54 204.497 307.281 204.497 308.122C204.497 308.963 204.677 309.684 205.027 310.335C205.376 310.986 205.866 311.497 206.486 311.877C207.105 312.258 207.805 312.438 208.594 312.438C209.184 312.438 209.714 312.328 210.183 312.107C210.483 311.967 210.753 311.787 210.983 311.577V312.268H213.581V303.936H210.983ZM210.563 309.554C210.203 309.924 209.724 310.115 209.124 310.115C208.744 310.115 208.415 310.024 208.115 309.854C207.825 309.684 207.585 309.454 207.415 309.153C207.245 308.853 207.155 308.512 207.155 308.122C207.155 307.731 207.245 307.371 207.415 307.07C207.585 306.77 207.815 306.53 208.115 306.359C208.405 306.189 208.754 306.099 209.144 306.099C209.534 306.099 209.874 306.189 210.173 306.359C210.463 306.53 210.693 306.77 210.863 307.06C211.033 307.361 211.113 307.701 211.113 308.102C211.113 308.693 210.933 309.183 210.573 309.554H210.563Z" fill="#00A6BF"/>
<path d="M219.987 303.786C219.817 303.756 219.637 303.736 219.447 303.736C218.997 303.736 218.568 303.836 218.168 304.047C217.768 304.257 217.418 304.537 217.119 304.898C217.039 304.988 216.969 305.088 216.899 305.188L216.849 303.927H214.4V312.258H216.999V308.072C216.999 307.822 217.039 307.592 217.119 307.391C217.199 307.191 217.309 307.021 217.448 306.871C217.588 306.721 217.758 306.61 217.968 306.53C218.178 306.45 218.398 306.41 218.638 306.41C218.857 306.41 219.057 306.43 219.267 306.48C219.467 306.53 219.627 306.59 219.747 306.66L220.456 303.877C220.317 303.836 220.157 303.796 219.997 303.766L219.987 303.786Z" fill="#8280B8"/>
<path d="M193.474 303.926V308.652C193.474 309.444 192.815 310.094 191.985 310.094C191.166 310.094 190.496 309.454 190.496 308.652V303.926H187.878V308.472C187.878 310.665 189.717 312.448 191.975 312.448C194.234 312.448 196.073 310.665 196.073 308.472V303.926H193.454H193.474Z" fill="#EF664E"/>
<path d="M176.026 309.475H34.7275" stroke="black" stroke-width="0.73" stroke-linecap="round" stroke-linejoin="round"/>
<path d="M109.889 261.256H64.3184V274.094H109.889V261.256Z" fill="#A9A9A9" stroke="black" stroke-width="0.73" stroke-linecap="round" stroke-linejoin="round"/>
<path d="M109.889 274.104H64.3184V286.942H109.889V274.104Z" fill="#A9A9A9" stroke="black" stroke-width="0.73" stroke-linecap="round" stroke-linejoin="round"/>
<path d="M109.889 286.941H64.3184V299.78H109.889V286.941Z" fill="#A9A9A9" stroke="black" stroke-width="0.73" stroke-linecap="round" stroke-linejoin="round"/>
<path d="M87.1035 261.256V299.78" stroke="black" stroke-width="0.73" stroke-linecap="round" stroke-linejoin="round"/>
<path d="M165.882 261.256H120.312V274.094H165.882V261.256Z" fill="#A9A9A9" stroke="black" stroke-width="0.73" stroke-linecap="round" stroke-linejoin="round"/>
<path d="M165.882 274.104H120.312V286.942H165.882V274.104Z" fill="#A9A9A9" stroke="black" stroke-width="0.73" stroke-linecap="round" stroke-linejoin="round"/>
<path d="M165.882 286.941H120.312V299.78H165.882V286.941Z" fill="#A9A9A9" stroke="black" stroke-width="0.73" stroke-linecap="round" stroke-linejoin="round"/>
<path d="M143.097 261.256V299.78" stroke="black" stroke-width="0.73" stroke-linecap="round" stroke-linejoin="round"/>
<path d="M226.702 289.756H224.934V295.875H226.702V289.756Z" fill="black" stroke="black" stroke-width="0.95" stroke-miterlimit="10"/>
<path d="M228.471 295.004C226.742 297.037 224.244 298.319 221.546 298.499C221.426 297.648 221.206 295.495 221.856 294.653C222.085 294.353 223.485 296.246 223.754 295.945C224.764 294.794 225.923 293.772 226.802 293.942C227.822 294.133 228.271 294.603 228.471 295.004Z" fill="white" stroke="black" stroke-width="0.73" stroke-linecap="round" stroke-linejoin="round"/>
</svg>
