<svg width="642" height="206" viewBox="0 0 642 206" fill="none" xmlns="http://www.w3.org/2000/svg">
<path d="M105.613 104.426L118.285 116.98M20.4718 20.079L33.1054 32.5948M33.1054 104.426L20.4718 116.98M118.285 20.079L105.613 32.5948M120.649 68.5297H138.592M0.28125 68.5297H18.1853M69.4561 119.322V137.021M69.4561 0V17.7371M108.21 68.5297C108.21 76.1229 105.937 83.5457 101.678 89.8592C97.4202 96.1727 91.3677 101.094 84.2864 103.999C77.2052 106.905 69.4131 107.665 61.8957 106.184C54.3783 104.703 47.4731 101.046 42.0533 95.677C36.6335 90.3078 32.9426 83.467 31.4473 76.0196C29.952 68.5723 30.7195 60.853 33.6526 53.8377C36.5858 46.8225 41.5529 40.8265 47.9259 36.6079C54.2988 32.3893 61.7914 30.1377 69.4561 30.1377C79.6939 30.1985 89.4913 34.2702 96.7087 41.4636C103.926 48.6569 107.977 58.3873 107.977 68.5297H108.21Z" stroke="#1D1D1B" stroke-width="0.34" stroke-miterlimit="10" stroke-linecap="round"/>
<path d="M211.566 76.3372H211.179C210.555 74.0912 209.194 72.115 207.311 70.7207C205.427 69.3264 203.129 68.5933 200.778 68.6374C198.427 68.6814 196.158 69.5 194.329 70.9638C192.5 72.4277 191.216 74.4534 190.678 76.721C189.755 76.4752 188.805 76.3463 187.849 76.3372C185.043 76.3372 182.352 77.4414 180.368 79.4069C178.384 81.3725 177.27 84.0384 177.27 86.8182C177.27 89.5979 178.384 92.2638 180.368 94.2294C182.352 96.1949 185.043 97.2992 187.849 97.2992H211.566C214.372 97.2992 217.063 96.1949 219.047 94.2294C221.031 92.2638 222.146 89.5979 222.146 86.8182C222.146 84.0384 221.031 81.3725 219.047 79.4069C217.063 77.4414 214.372 76.3372 211.566 76.3372ZM275.79 117.807H275.287C274.439 114.725 272.578 112.01 269.998 110.093C267.418 108.177 264.267 107.167 261.042 107.224C257.818 107.282 254.705 108.403 252.196 110.41C249.687 112.417 247.926 115.196 247.19 118.306C245.93 117.951 244.626 117.77 243.315 117.769C239.471 117.769 235.785 119.282 233.066 121.974C230.348 124.667 228.821 128.319 228.821 132.127C228.821 135.936 230.348 139.588 233.066 142.28C235.785 144.973 239.471 146.486 243.315 146.486H275.79C279.634 146.486 283.321 144.973 286.039 142.28C288.757 139.588 290.284 135.936 290.284 132.127C290.284 128.319 288.757 124.667 286.039 121.974C283.321 119.282 279.634 117.769 275.79 117.769V117.807ZM618.167 160.876H617.392C616.08 156.057 613.179 151.81 609.15 148.812C605.122 145.813 600.197 144.235 595.159 144.328C590.122 144.42 585.259 146.179 581.346 149.323C577.433 152.468 574.693 156.818 573.562 161.683C571.594 161.139 569.56 160.867 567.516 160.876C564.473 160.751 561.436 161.237 558.587 162.305C555.739 163.372 553.137 165 550.939 167.088C548.742 169.177 546.993 171.685 545.798 174.461C544.604 177.236 543.988 180.222 543.988 183.24C543.988 186.257 544.604 189.243 545.798 192.019C546.993 194.794 548.742 197.302 550.939 199.391C553.137 201.48 555.739 203.107 558.587 204.175C561.436 205.242 564.473 205.728 567.516 205.603H618.167C621.21 205.728 624.248 205.242 627.096 204.175C629.945 203.107 632.547 201.48 634.744 199.391C636.942 197.302 638.691 194.794 639.885 192.019C641.08 189.243 641.696 186.257 641.696 183.24C641.696 180.222 641.08 177.236 639.885 174.461C638.691 171.685 636.942 169.177 634.744 167.088C632.547 165 629.945 163.372 627.096 162.305C624.248 161.237 621.21 160.751 618.167 160.876Z" stroke="#1D1D1B" stroke-width="0.34" stroke-linecap="round" stroke-linejoin="round"/>
</svg>
