<svg width="933" height="280" viewBox="0 0 933 280" fill="none" xmlns="http://www.w3.org/2000/svg">
<g clip-path="url(#clip0_823_3085)">
<path d="M70.7804 40.2074H186.417C218.127 40.2074 243.875 65.9552 243.875 97.6658H29.3267V81.6611C29.3267 58.785 47.8982 40.2074 70.7804 40.2074Z" fill="white" stroke="black" stroke-width="2.43881" stroke-miterlimit="10"/>
<path d="M280.397 134.266V138.309H10.731V116.189C10.731 105.958 19.0229 97.6658 29.2537 97.6658H34.3569C45.4535 97.6658 54.4467 88.6727 54.4467 77.5761V40.2074H76.274V77.5761C76.274 88.6727 85.2671 97.6658 96.3637 97.6658H124.721C135.818 97.6658 144.811 88.6727 144.811 77.5761V40.2074H166.638V77.5761C166.638 88.6727 175.631 97.6658 186.728 97.6658H243.796C264.008 97.6658 280.39 114.049 280.39 134.266H280.397Z" fill="#9C9B9B" stroke="black" stroke-width="2.43881" stroke-miterlimit="10"/>
<path d="M278.677 123.157H269.666C255.515 123.157 244.034 111.774 243.875 97.6597C260.185 97.6902 273.989 108.39 278.677 123.157Z" fill="white" stroke="black" stroke-width="2.43881" stroke-miterlimit="10"/>
<path d="M243.875 97.6657C243.875 97.5681 243.875 97.4645 243.875 97.3669" stroke="#1D1D1B" stroke-width="1.80472" stroke-miterlimit="10"/>
<path d="M289.908 138.309H1.21973V164.605H289.908V138.309Z" fill="white" stroke="black" stroke-width="2.43881" stroke-miterlimit="10"/>
<path d="M231.048 186.847C245.877 186.847 257.899 174.825 257.899 159.996C257.899 145.166 245.877 133.144 231.048 133.144C216.218 133.144 204.196 145.166 204.196 159.996C204.196 174.825 216.218 186.847 231.048 186.847Z" fill="white" stroke="black" stroke-width="2.43881" stroke-miterlimit="10"/>
<path d="M231.047 174.305C238.95 174.305 245.357 167.899 245.357 159.996C245.357 152.093 238.95 145.686 231.047 145.686C223.144 145.686 216.737 152.093 216.737 159.996C216.737 167.899 223.144 174.305 231.047 174.305Z" fill="white" stroke="black" stroke-width="2.43881" stroke-miterlimit="10"/>
<path d="M51.6301 186.847C66.4597 186.847 78.4814 174.825 78.4814 159.996C78.4814 145.166 66.4597 133.144 51.6301 133.144C36.8006 133.144 24.7788 145.166 24.7788 159.996C24.7788 174.825 36.8006 186.847 51.6301 186.847Z" fill="white" stroke="black" stroke-width="2.43881" stroke-miterlimit="10"/>
<path d="M51.63 174.305C59.5331 174.305 65.9398 167.899 65.9398 159.996C65.9398 152.093 59.5331 145.686 51.63 145.686C43.727 145.686 37.3203 152.093 37.3203 159.996C37.3203 167.899 43.727 174.305 51.63 174.305Z" fill="white" stroke="black" stroke-width="2.43881" stroke-miterlimit="10"/>
<path d="M918.244 105.781H701.796V122.785H918.244V105.781Z" fill="#9C9B9B" stroke="black" stroke-width="1.63228" stroke-miterlimit="10"/>
<path d="M701.796 43.5299V130.436H613.825C605.092 130.436 598.073 123.348 598.073 114.701C598.073 114.465 598.077 114.228 598.09 113.991L598.653 101.219L598.8 100.427C598.934 99.668 599.11 98.9212 599.314 98.1867C601.856 89.0133 609.344 81.7333 619.064 79.1952L620.166 78.9095L623.855 77.9424L628.132 76.8243C633.628 75.3879 638.562 72.4375 642.316 68.3487L662.634 46.2068C664.193 44.5052 666.449 43.5299 668.82 43.5299H701.796Z" fill="white" stroke="black" stroke-width="1.63228" stroke-linecap="round" stroke-linejoin="round"/>
<path d="M612.997 94.0161C608.887 97.1949 603.917 98.566 599.314 98.1865C601.856 89.0131 609.344 81.7332 619.065 79.195L620.166 78.9053C620.636 84.2795 618.118 90.0578 612.997 94.0161Z" fill="white" stroke="black" stroke-width="1.63228" stroke-miterlimit="10"/>
<path d="M673.549 51.2505C670.546 51.2505 667.685 52.487 665.706 54.6375L651.277 70.3237C649.437 72.3232 648.42 74.8941 648.42 77.5547V83.8512C648.42 87.0749 651.762 89.3356 654.954 88.2706L693.688 75.3756V51.2465H673.549V51.2505Z" fill="white" stroke="black" stroke-width="1.63228" stroke-miterlimit="10"/>
<path d="M701.796 43.5257H658.051C658.051 25.6686 670.534 10.0029 688.579 5.19988L701.796 1.6864V43.5257Z" fill="white" stroke="black" stroke-width="1.63228" stroke-miterlimit="10"/>
<path d="M918.244 1.6864H701.796V105.777H918.244V1.6864Z" fill="white" stroke="black" stroke-width="1.63228" stroke-miterlimit="10"/>
<path d="M924.949 90.3435L918.159 90.2701L918.783 33.8994C918.799 32.4222 920.836 32.0345 921.391 33.4016C921.901 34.6543 922.199 35.9765 922.264 37.319L924.949 90.3435Z" fill="#9C9B9B" stroke="black" stroke-width="1.63228" stroke-miterlimit="10"/>
<path d="M925.034 97.1543C928.981 97.1543 932.18 94.1051 932.18 90.3436C932.18 86.5822 928.981 83.533 925.034 83.533C921.088 83.533 917.889 86.5822 917.889 90.3436C917.889 94.1051 921.088 97.1543 925.034 97.1543Z" fill="white" stroke="black" stroke-width="1.63228" stroke-miterlimit="10"/>
<path d="M801.336 69.7239C798.664 69.7239 796.256 69.1566 794.118 68.0181C791.979 66.8796 790.278 65.3208 789.013 63.3335C787.748 61.3503 787.115 59.1181 787.115 56.633C787.115 54.1478 787.748 51.8627 789.013 49.8794C790.278 47.8962 791.988 46.3252 794.146 45.1703C796.301 44.0155 798.737 43.436 801.443 43.436C803.475 43.436 805.336 43.7829 807.029 44.4725C808.723 45.1622 810.228 46.1783 811.546 47.5249L806.413 52.4911C805.805 51.8015 805.087 51.2995 804.246 50.9894C803.409 50.6793 802.471 50.5242 801.439 50.5242C800.227 50.5242 799.166 50.7731 798.256 51.275C797.346 51.777 796.623 52.4829 796.089 53.397C795.554 54.3111 795.285 55.3721 795.285 56.5799C795.285 57.7878 795.554 58.8039 796.089 59.7343C796.623 60.6647 797.354 61.3829 798.28 61.8808C799.206 62.3827 800.259 62.6316 801.434 62.6316C802.54 62.6316 803.512 62.4602 804.348 62.1134C805.185 61.7706 805.907 61.2319 806.515 60.5096L811.648 65.5289C810.294 66.9082 808.767 67.9528 807.078 68.6588C805.385 69.3648 803.471 69.7198 801.328 69.7198" fill="#10A96C"/>
<path d="M830.644 44.0072V46.1455C829.955 45.5089 829.155 44.9662 828.237 44.5255C826.812 43.8358 825.225 43.489 823.478 43.489C821.091 43.489 818.953 44.0684 817.064 45.2233C815.174 46.3781 813.697 47.941 812.624 49.9079C811.555 51.8748 811.02 54.1151 811.02 56.6329C811.02 59.1507 811.555 61.342 812.624 63.3089C813.693 65.2758 815.162 66.8265 817.035 67.965C818.908 69.1035 821.034 69.6707 823.425 69.6707C825.209 69.6707 826.812 69.3442 828.237 68.6873C829.159 68.2629 829.959 67.7283 830.644 67.0795V69.1525H838.504V44.0032H830.644V44.0072ZM829.387 60.9543C828.298 62.0765 826.849 62.6356 825.029 62.6356C823.887 62.6356 822.87 62.3785 821.981 61.8603C821.091 61.342 820.385 60.6361 819.867 59.7383C819.349 58.8405 819.092 57.8081 819.092 56.6329C819.092 55.4577 819.349 54.364 819.867 53.45C820.385 52.5359 821.087 51.8218 821.981 51.3035C822.87 50.7853 823.907 50.5282 825.082 50.5282C826.257 50.5282 827.294 50.7853 828.184 51.3035C829.073 51.8218 829.771 52.5277 830.269 53.4255C830.767 54.3232 831.016 55.376 831.016 56.5839C831.016 58.3794 830.473 59.8362 829.383 60.9543H829.387Z" fill="#00A6BF"/>
<path d="M857.863 43.5421C857.357 43.4483 856.806 43.3993 856.218 43.3993C854.843 43.3993 853.549 43.7176 852.337 44.3501C851.125 44.9826 850.068 45.8395 849.171 46.9168C848.938 47.1984 848.722 47.4881 848.522 47.786L848.363 43.991H840.944V69.1566H848.803V56.5187C848.803 55.7597 848.926 55.0782 849.171 54.4743C849.416 53.8744 849.75 53.3521 850.179 52.9073C850.603 52.4625 851.129 52.1238 851.75 51.8871C852.37 51.6505 853.043 51.5321 853.761 51.5321C854.414 51.5321 855.047 51.6015 855.651 51.7443C856.255 51.8871 856.74 52.0708 857.099 52.2911L859.258 43.8808C858.834 43.7543 858.364 43.6441 857.858 43.5503L857.863 43.5421Z" fill="#8280B8"/>
<path d="M777.668 43.9705V58.2488C777.668 60.6483 775.657 62.5948 773.18 62.5948C770.698 62.5948 768.691 60.6483 768.691 58.2488V43.9705H760.778V57.6816C760.778 64.3005 766.344 69.687 773.184 69.687C780.023 69.687 785.589 64.3005 785.589 57.6816V43.9705H777.672H777.668Z" fill="#EF664E"/>
<path d="M654.848 130.436H613.825C605.092 130.436 598.073 123.348 598.073 114.701C598.073 114.465 598.077 114.228 598.09 113.991H642.483L654.848 130.436Z" fill="#A9A9A9" stroke="black" stroke-width="1.63228" stroke-linecap="round" stroke-linejoin="round"/>
<path d="M663.27 133.799C663.27 134.129 663.262 134.456 663.242 134.782C662.703 145.266 653.615 153.607 642.483 153.607C631.351 153.607 622.259 145.266 621.725 134.782C621.704 134.456 621.696 134.129 621.696 133.799C621.696 127.784 624.508 122.393 628.952 118.761C632.588 115.783 637.313 113.987 642.483 113.987C647.654 113.987 652.379 115.783 656.015 118.761C660.459 122.393 663.27 127.784 663.27 133.799Z" fill="white" stroke="black" stroke-width="1.63228" stroke-linecap="round" stroke-linejoin="round"/>
<path d="M642.483 142.695C647.637 142.695 651.816 138.714 651.816 133.803C651.816 128.892 647.637 124.911 642.483 124.911C637.329 124.911 633.151 128.892 633.151 133.803C633.151 138.714 637.329 142.695 642.483 142.695Z" fill="white" stroke="black" stroke-width="1.63228" stroke-linecap="round" stroke-linejoin="round"/>
<path d="M865.334 133.799C865.334 134.129 865.326 134.456 865.305 134.782C864.767 145.266 855.679 153.607 844.547 153.607C833.415 153.607 824.323 145.266 823.788 134.782C823.768 134.456 823.76 134.129 823.76 133.799C823.76 127.784 826.571 122.393 831.015 118.761C834.651 115.783 839.377 113.987 844.547 113.987C849.717 113.987 854.442 115.783 858.078 118.761C862.522 122.393 865.334 127.784 865.334 133.799Z" fill="white" stroke="black" stroke-width="1.63228" stroke-linecap="round" stroke-linejoin="round"/>
<path d="M844.547 142.695C849.701 142.695 853.879 138.714 853.879 133.803C853.879 128.892 849.701 124.911 844.547 124.911C839.393 124.911 835.214 128.892 835.214 133.803C835.214 138.714 839.393 142.695 844.547 142.695Z" fill="white" stroke="black" stroke-width="1.63228" stroke-linecap="round" stroke-linejoin="round"/>
<path d="M605.506 209.272C605.509 211.225 604.998 213.144 604.026 214.837L598.166 225.092C598.026 225.336 597.887 225.576 597.739 225.813C595.948 228.684 593.514 231.101 590.627 232.871C587.741 234.642 584.483 235.717 581.109 236.013C579.673 224.232 573.971 213.384 565.08 205.516C556.188 197.647 544.722 193.302 532.845 193.302C524.581 193.294 516.453 195.401 509.235 199.42C494.061 207.867 477.288 213.048 459.948 214.059L318.405 222.308C305.092 223.082 291.891 218.873 281.764 210.206C274.213 203.729 264.586 200.176 254.634 200.191C244.669 200.176 235.03 203.74 227.474 210.233C220.643 216.02 212.435 219.952 203.642 221.649L178.016 226.754L176.245 214.957C175.938 212.918 175.82 210.854 175.892 208.792C176.15 201.612 178.71 194.704 183.194 189.087C187.679 183.471 193.852 179.443 200.801 177.598L204.266 176.676L274.33 158.087C276.16 158.327 277.99 158.552 279.822 158.761L280.45 158.831C282.099 159.022 283.748 159.198 285.399 159.358C293.334 160.132 301.284 160.655 309.25 160.926C311.185 160.991 313.123 161.038 315.064 161.069C319.681 161.142 324.296 161.127 328.908 161.027C331.566 160.965 334.224 160.876 336.88 160.759L420.54 157.046L511.076 153.026C514.547 152.874 517.825 151.389 520.226 148.88C522.627 146.371 523.966 143.032 523.962 139.561C523.962 136.991 523.226 134.476 521.842 132.311C520.459 130.143 518.481 128.419 516.145 127.342L479.563 110.426H518.792C527.376 110.427 535.712 113.308 542.461 118.609L586.403 155.163C590.151 158.279 593.115 162.228 595.06 166.695C597.004 171.162 597.874 176.022 597.6 180.886L597.026 191.04C596.924 192.837 597.255 194.633 597.992 196.275C598.73 197.918 599.851 199.359 601.262 200.478C602.587 201.53 603.656 202.867 604.391 204.39C605.126 205.913 605.507 207.582 605.506 209.272Z" fill="white" stroke="black" stroke-width="1.83466" stroke-linecap="round" stroke-linejoin="round"/>
<path d="M296.309 240.207L212.897 241.412L180.268 241.884L178 226.754L203.626 221.65C212.425 219.955 220.639 216.023 227.473 210.233C235.022 203.748 244.648 200.185 254.603 200.191C264.555 200.176 274.181 203.73 281.733 210.206C291.86 218.873 305.06 223.086 318.369 222.312L459.917 214.059C477.256 213.048 494.022 207.863 509.203 199.42C516.432 195.398 524.571 193.294 532.845 193.309C544.721 193.31 556.186 197.654 565.077 205.521C573.968 213.388 579.671 224.234 581.109 236.013C580.512 236.071 579.907 236.106 579.299 236.114L296.309 240.207Z" fill="#A8A8A8" stroke="black" stroke-width="1.83466" stroke-linecap="round" stroke-linejoin="round"/>
<path d="M523.962 139.561C523.965 143.032 522.626 146.371 520.225 148.88C517.824 151.389 514.546 152.874 511.075 153.026L336.852 160.771C315.967 161.685 295.042 160.778 274.314 158.06L334.775 123.613C349.943 114.972 367.102 110.428 384.562 110.426H479.558L516.133 127.338C518.469 128.415 520.447 130.14 521.83 132.307C523.219 134.472 523.958 136.989 523.962 139.561Z" fill="white" stroke="black" stroke-width="1.83466" stroke-linecap="round" stroke-linejoin="round"/>
<path d="M420.513 157.03L425.935 110.434" stroke="black" stroke-width="1.83466" stroke-linecap="round" stroke-linejoin="round"/>
<path d="M362.754 191.954C360.81 192.083 358.866 191.705 357.111 190.858C355.441 190.043 354.015 188.803 352.976 187.264C351.907 185.679 351.305 183.826 351.236 181.916C351.105 179.994 351.516 178.075 352.422 176.374C353.305 174.73 354.604 173.346 356.189 172.358C357.865 171.321 359.784 170.739 361.754 170.67C363.233 170.577 364.716 170.788 366.11 171.289C367.464 171.791 368.696 172.572 369.726 173.582L365.967 177.807C365.496 177.288 364.9 176.898 364.235 176.676C363.528 176.45 362.785 176.359 362.045 176.409C361.186 176.432 360.35 176.685 359.623 177.141C358.938 177.585 358.39 178.21 358.037 178.946C357.652 179.757 357.483 180.656 357.549 181.552C357.58 182.443 357.837 183.312 358.297 184.077C358.723 184.784 359.341 185.356 360.08 185.727C360.844 186.103 361.695 186.27 362.545 186.211C363.316 186.187 364.074 186.007 364.773 185.68C365.415 185.358 365.967 184.882 366.378 184.294L370.548 188.166C369.613 189.293 368.456 190.216 367.149 190.877C365.776 191.541 364.279 191.911 362.754 191.962V191.954Z" fill="#1DA868"/>
<path d="M390.391 169.678L384.321 169.988L384.41 171.719C383.831 171.217 383.177 170.807 382.473 170.503C381.303 169.993 380.029 169.769 378.756 169.849C377.002 169.914 375.306 170.49 373.876 171.506C372.465 172.522 371.352 173.896 370.652 175.487C369.9 177.214 369.576 179.096 369.71 180.975C369.775 182.852 370.295 184.686 371.225 186.319C372.081 187.817 373.323 189.058 374.822 189.913C376.344 190.769 378.083 191.163 379.826 191.048C381.11 191.003 382.366 190.665 383.5 190.06C384.172 189.699 384.778 189.228 385.294 188.666L385.379 190.343L391.445 190.037L390.391 169.678ZM384.05 183.752C383.645 184.232 383.141 184.619 382.573 184.886C382.004 185.154 381.384 185.295 380.756 185.301C379.928 185.358 379.101 185.183 378.368 184.793C377.661 184.41 377.069 183.846 376.651 183.159C376.203 182.406 375.953 181.552 375.927 180.677C375.861 179.781 376.021 178.884 376.392 178.066C376.734 177.331 377.27 176.701 377.942 176.246C378.645 175.781 379.463 175.52 380.306 175.495C381.146 175.435 381.987 175.611 382.732 176.002C383.438 176.382 384.025 176.949 384.43 177.64C384.871 178.41 385.114 179.278 385.135 180.165C385.254 181.456 384.865 182.743 384.05 183.752Z" fill="#2BA6C2"/>
<path d="M405.32 168.54C404.897 168.483 404.47 168.466 404.045 168.489C402.997 168.541 401.979 168.858 401.088 169.411C400.174 169.985 399.384 170.734 398.762 171.615C398.596 171.851 398.441 172.095 398.297 172.343L398.003 169.291L392.274 169.581L393.313 189.955L399.382 189.646L398.859 179.414C398.821 178.85 398.89 178.284 399.061 177.745C399.214 177.268 399.456 176.824 399.774 176.436C400.089 176.056 400.486 175.752 400.937 175.549C401.424 175.326 401.951 175.201 402.487 175.181C402.979 175.155 403.472 175.187 403.956 175.278C404.354 175.344 404.739 175.475 405.095 175.665L406.417 168.772C406.055 168.675 405.689 168.598 405.32 168.54Z" fill="#8580BC"/>
<path d="M343.418 172.033L344.007 183.593C344.035 184.051 343.973 184.511 343.823 184.945C343.673 185.379 343.438 185.779 343.133 186.123C342.827 186.466 342.457 186.746 342.043 186.946C341.629 187.145 341.18 187.262 340.721 187.287C340.261 187.308 339.802 187.239 339.37 187.082C338.937 186.925 338.54 186.685 338.201 186.374C337.862 186.064 337.588 185.689 337.395 185.272C337.201 184.855 337.092 184.404 337.073 183.945L336.484 172.389L330.376 172.703L330.942 183.802C331.059 186.359 332.185 188.766 334.073 190.497C335.962 192.227 338.459 193.139 341.019 193.034C343.571 192.877 345.958 191.717 347.658 189.808C349.358 187.9 350.235 185.397 350.096 182.845L349.53 171.742L343.418 172.033Z" fill="#EB6A4B"/>
<path d="M254.618 271.611C271.046 271.611 284.364 258.303 284.364 241.888C284.364 225.473 271.046 212.165 254.618 212.165C238.19 212.165 224.873 225.473 224.873 241.888C224.873 258.303 238.19 271.611 254.618 271.611Z" fill="white" stroke="black" stroke-width="1.83466" stroke-linecap="round" stroke-linejoin="round"/>
<path d="M254.619 259.942C264.597 259.942 272.687 251.859 272.687 241.888C272.687 231.917 264.597 223.834 254.619 223.834C244.64 223.834 236.55 231.917 236.55 241.888C236.55 251.859 244.64 259.942 254.619 259.942Z" fill="white" stroke="black" stroke-width="1.83466" stroke-linecap="round" stroke-linejoin="round"/>
<path d="M532.841 271.611C549.27 271.611 562.587 258.303 562.587 241.888C562.587 225.473 549.27 212.165 532.841 212.165C516.413 212.165 503.096 225.473 503.096 241.888C503.096 258.303 516.413 271.611 532.841 271.611Z" fill="white" stroke="black" stroke-width="1.83466" stroke-linecap="round" stroke-linejoin="round"/>
<path d="M532.841 259.942C542.82 259.942 550.909 251.859 550.909 241.888C550.909 231.917 542.82 223.834 532.841 223.834C522.862 223.834 514.772 231.917 514.772 241.888C514.772 251.859 522.862 259.942 532.841 259.942Z" fill="white" stroke="black" stroke-width="1.83466" stroke-linecap="round" stroke-linejoin="round"/>
<path d="M394.859 105.946C410.551 105.946 423.272 93.2349 423.272 77.5552C423.272 61.8756 410.551 49.1647 394.859 49.1647C379.168 49.1647 366.447 61.8756 366.447 77.5552C366.447 93.2349 379.168 105.946 394.859 105.946Z" fill="white" stroke="black" stroke-width="1.83466" stroke-linecap="round" stroke-linejoin="round"/>
<path d="M394.86 100.648C407.624 100.648 417.971 90.3091 417.971 77.5554C417.971 64.8016 407.624 54.4626 394.86 54.4626C382.096 54.4626 371.749 64.8016 371.749 77.5554C371.749 90.3091 382.096 100.648 394.86 100.648Z" fill="white" stroke="black" stroke-width="1.83466" stroke-linecap="round" stroke-linejoin="round"/>
<path d="M508.463 105.946C524.155 105.946 536.876 93.2349 536.876 77.5552C536.876 61.8756 524.155 49.1647 508.463 49.1647C492.772 49.1647 480.051 61.8756 480.051 77.5552C480.051 93.2349 492.772 105.946 508.463 105.946Z" fill="white" stroke="black" stroke-width="1.83466" stroke-linecap="round" stroke-linejoin="round"/>
<path d="M508.464 100.648C521.228 100.648 531.575 90.3091 531.575 77.5554C531.575 64.8016 521.228 54.4626 508.464 54.4626C495.7 54.4626 485.354 64.8016 485.354 77.5554C485.354 90.3091 495.7 100.648 508.464 100.648Z" fill="white" stroke="black" stroke-width="1.83466" stroke-linecap="round" stroke-linejoin="round"/>
<path d="M394.86 77.5551L411.331 40.9816H478.062L509.455 75.0069L450.778 81.664L411.331 40.9816" stroke="black" stroke-width="1.83466" stroke-linecap="round" stroke-linejoin="round"/>
<path d="M454.851 89.4523C459.155 89.4523 462.645 85.9655 462.645 81.6643C462.645 77.3632 459.155 73.8764 454.851 73.8764C450.546 73.8764 447.057 77.3632 447.057 81.6643C447.057 85.9655 450.546 89.4523 454.851 89.4523Z" fill="white" stroke="black" stroke-width="1.83466" stroke-linecap="round" stroke-linejoin="round"/>
<path d="M485.787 25.8203C485.787 25.8203 466.839 28.4344 465.552 24.0892C464.266 19.7441 472.316 22.9507 481.981 18.4467C491.647 13.9428 501.147 21.1925 501.147 21.1925C501.147 26.1805 485.787 25.8397 485.787 25.8397L478.063 41.0012L458.712 74.918" fill="white"/>
<path d="M485.787 25.8203C485.787 25.8203 466.839 28.4344 465.552 24.0892C464.266 19.7441 472.316 22.9507 481.981 18.4467C491.647 13.9428 501.147 21.1925 501.147 21.1925C501.147 26.1805 485.787 25.8397 485.787 25.8397L478.063 41.0012L458.712 74.918" stroke="black" stroke-width="1.83466" stroke-linecap="round" stroke-linejoin="round"/>
<path d="M411.331 40.9819L419.699 18.4468L403.878 17.1185" stroke="black" stroke-width="1.83466" stroke-linecap="round" stroke-linejoin="round"/>
<path d="M516.479 110.427L512.374 101.76C511.036 98.9292 508.92 96.5371 506.274 94.8621C503.627 93.1871 500.559 92.2981 497.426 92.2986C493.421 92.2989 489.552 93.7516 486.539 96.387C483.525 99.0223 481.571 102.661 481.039 106.627L480.528 110.434L516.479 110.427Z" fill="white" stroke="black" stroke-width="1.83466" stroke-linecap="round" stroke-linejoin="round"/>
<path d="M420.094 110.426L415.99 101.755C414.651 98.9249 412.536 96.5329 409.889 94.8578C407.242 93.1828 404.174 92.2938 401.041 92.2943C397.036 92.2945 393.167 93.7471 390.152 96.3824C387.138 99.0177 385.183 102.657 384.651 106.623L384.143 110.43L420.094 110.426Z" fill="white" stroke="black" stroke-width="1.83466" stroke-linecap="round" stroke-linejoin="round"/>
<path d="M200.344 196.346C194.5 205.679 184.528 210.438 175.897 208.792C176.154 201.612 178.714 194.704 183.199 189.087C187.683 183.471 193.856 179.443 200.806 177.598L204.27 176.676C205.542 182.818 204.309 189.983 200.344 196.346Z" fill="white" stroke="black" stroke-width="1.83466" stroke-linecap="round" stroke-linejoin="round"/>
<path d="M503.809 123.756C503.809 123.756 519.199 116.867 530.272 125.46C541.345 134.054 517.452 138.79 517.452 138.79" fill="white"/>
<path d="M503.809 123.756C503.809 123.756 519.199 116.867 530.272 125.46C541.345 134.054 517.452 138.79 517.452 138.79" stroke="black" stroke-width="1.83466" stroke-linecap="round" stroke-linejoin="round"/>
<path d="M527.838 154.645C526.875 155.182 525.784 155.45 524.682 155.418C523.579 155.387 522.505 155.058 521.575 154.466L508.103 143.425C508.103 143.425 504.762 146.33 509.351 150.865C511.591 153.076 509.61 157.584 502.231 150.842C499.092 147.991 495.879 146.376 493.887 144.119C483.423 132.326 500.863 116.328 511.94 127.536L525.9 141.675C525.822 141.985 522.858 152.023 527.838 154.645Z" fill="white" stroke="black" stroke-width="1.83466" stroke-linecap="round" stroke-linejoin="round"/>
<path d="M529.799 152.91C529.281 153.625 528.611 154.217 527.838 154.645C522.858 152.023 525.823 141.985 525.9 141.683L529.191 145.009C530.217 146.04 530.84 147.405 530.946 148.855C531.057 150.3 530.651 151.737 529.799 152.91Z" fill="black" stroke="black" stroke-width="1.83466" stroke-linecap="round" stroke-linejoin="round"/>
<path d="M489.379 141.408C489.379 141.408 465.35 134.085 451.963 155.384L484.701 154.432L489.379 141.408Z" fill="white" stroke="black" stroke-width="1.83466" stroke-linecap="round" stroke-linejoin="round"/>
<path d="M500.138 134.023C500.138 134.023 504.401 158.556 497.568 158.754C490.735 158.951 488.953 154.757 488.953 154.757C488.953 154.757 482.639 163.982 478.488 157.53C474.337 151.078 493.417 128.736 493.417 128.736" fill="white"/>
<path d="M500.138 134.023C500.138 134.023 504.401 158.556 497.568 158.754C490.735 158.951 488.953 154.757 488.953 154.757C488.953 154.757 482.639 163.982 478.488 157.53C474.337 151.078 493.417 128.736 493.417 128.736" stroke="black" stroke-width="1.83466" stroke-linecap="round" stroke-linejoin="round"/>
<path d="M508.979 138.283C510.088 138.283 510.987 137.385 510.987 136.277C510.987 135.169 510.088 134.271 508.979 134.271C507.87 134.271 506.971 135.169 506.971 136.277C506.971 137.385 507.87 138.283 508.979 138.283Z" fill="black"/>
<path d="M590.364 277.187C590.364 280.223 613.893 277.187 613.893 277.187C613.893 277.187 609.672 264.795 606.475 253.812H592.682C595.298 260.395 597.817 265.503 597.817 267.296C597.817 270.275 590.364 274.147 590.364 277.187Z" fill="#A8A8A8" stroke="black" stroke-width="1.83466" stroke-linecap="round" stroke-linejoin="round"/>
<path d="M584.531 192.969C584.531 192.969 585.198 226.088 588.073 239.344C589.217 244.283 590.758 249.121 592.682 253.812H606.475C604.89 248.344 603.553 243.216 603.115 240.114C601.801 230.781 601.886 194.274 601.886 194.274L584.531 192.969Z" fill="white" stroke="black" stroke-width="1.83466" stroke-linecap="round" stroke-linejoin="round"/>
<path d="M573.319 278.818C573.319 278.818 574.23 265.326 575.559 253.812L562.769 250.199C562.688 256.751 562.967 261.929 562.312 263.494C561.149 266.243 552.797 266.944 551.623 269.748C550.448 272.552 573.319 278.818 573.319 278.818Z" fill="#A8A8A8" stroke="black" stroke-width="1.83466" stroke-linecap="round" stroke-linejoin="round"/>
<path d="M562.754 250.199L575.544 253.812C576.175 248.39 576.896 243.387 577.664 240.459C580.051 231.335 594.213 197.689 594.213 197.689L578.726 189.816C578.726 189.816 566.56 220.612 564.099 233.965C563.072 239.514 562.808 245.25 562.754 250.199Z" fill="white" stroke="black" stroke-width="1.83466" stroke-linecap="round" stroke-linejoin="round"/>
<path d="M577.02 108.405C577.02 108.405 576.218 119.353 573.703 121.297C571.187 123.241 575.361 126.006 575.361 126.006C575.361 126.006 574.172 135.777 579.237 135.072C584.303 134.367 587.023 131.656 588.438 136.129L599.631 134.967L603.119 125.843L602.177 110.302L577.02 108.405Z" fill="white" stroke="black" stroke-width="1.83466" stroke-linecap="round" stroke-linejoin="round"/>
<path d="M600.637 134.185C611.745 143.286 608.47 166.623 606.412 186.931C606.33 187.781 606.35 188.638 606.47 189.483C607.478 196.818 601.044 203.037 593.68 202.073L570.217 199.014C571.21 190.432 573.273 182.009 576.356 173.938C581.046 161.65 588.251 150.113 588.006 135.029L600.637 134.185Z" fill="white" stroke="black" stroke-width="1.83466" stroke-linecap="round" stroke-linejoin="round"/>
<path d="M580.713 119.279C581.523 119.279 582.178 118.624 582.178 117.816C582.178 117.007 581.523 116.352 580.713 116.352C579.904 116.352 579.248 117.007 579.248 117.816C579.248 118.624 579.904 119.279 580.713 119.279Z" fill="black"/>
<path d="M594.957 162.417C579.454 168.613 565.114 166.313 549.789 161.809L559.037 147.399C580.888 151.806 597.704 147.488 597.704 147.488" fill="white"/>
<path d="M594.957 162.417C579.454 168.613 565.114 166.313 549.789 161.809L559.037 147.399C580.888 151.806 597.704 147.488 597.704 147.488" stroke="black" stroke-width="1.83466" stroke-linecap="round" stroke-linejoin="round"/>
<path d="M540.337 158.726C543.429 159.93 546.585 160.964 549.79 161.825L559.037 147.399C559.037 147.399 552.906 140.839 551.119 144.336C549.332 147.833 550.731 150.447 550.731 150.447L542.79 149.451C541.631 149.306 540.458 149.584 539.488 150.236C538.519 150.887 537.818 151.867 537.515 152.995C537.21 154.13 537.328 155.337 537.847 156.391C538.366 157.445 539.251 158.275 540.337 158.726Z" fill="white" stroke="black" stroke-width="1.83466" stroke-linecap="round" stroke-linejoin="round"/>
<path d="M575.292 129.751C575.292 129.751 580.094 130.526 582.226 126.556Z" fill="white"/>
<path d="M575.292 129.751C575.292 129.751 580.094 130.526 582.226 126.556" stroke="black" stroke-width="1.83466" stroke-linecap="round" stroke-linejoin="round"/>
<path d="M577.021 108.405C577.021 108.405 572.758 101.066 584.334 101.066C595.911 101.066 608.518 103.003 609.941 112.971C611.363 122.939 606.546 138.991 612.51 146.663C618.475 154.335 603.538 160.926 597.849 153.464C592.159 146.001 593.403 135.212 595.911 128.167C596.298 127.056 593.768 124.387 594.791 124.387C601.554 124.387 598.279 116.642 595.093 117.804C591.287 119.175 591.64 112.247 585.404 112.247C579.168 112.247 577.021 108.405 577.021 108.405Z" fill="black" stroke="black" stroke-width="1.83466" stroke-linecap="round" stroke-linejoin="round"/>
<path d="M562.745 250.199H562.755" stroke="black" stroke-width="1.83466" stroke-linecap="round" stroke-linejoin="round"/>
</g>
<defs>
<clipPath id="clip0_823_3085">
<rect width="933" height="280" fill="white"/>
</clipPath>
</defs>
</svg>
