<svg width="301" height="88" viewBox="0 0 301 88" fill="none" xmlns="http://www.w3.org/2000/svg">
<path d="M4.52344 1.77445V10.081H129.829C123.653 1.43485 117.748 0.376953 102.56 0.376953H5.96931C5.17205 0.376953 4.52344 1.00387 4.52344 1.77445Z" fill="white"/>
<path d="M129.838 10.4586H4.53251C4.3163 10.4586 4.14062 10.2888 4.14062 10.0799V1.77333C4.14062 0.793788 4.96491 -0.00292969 5.97838 -0.00292969H102.569C117.487 -0.00292969 123.73 0.846033 130.162 9.85785C130.243 9.97539 130.257 10.1321 130.189 10.2496C130.122 10.3803 129.987 10.4586 129.838 10.4586ZM4.92438 9.70113H129.081C123.325 1.95619 117.784 0.767641 102.569 0.767641H5.97838C5.39733 0.767641 4.9379 1.22476 4.9379 1.78637V9.71416L4.92438 9.70113Z" fill="#1D1D1B"/>
<path d="M4.52344 10.0801V63.4065H174.557C175.07 53.7547 168.935 45.2653 156.72 45.2653H152.247L148.693 39.6885H103.208V10.0801H4.52344Z" fill="white"/>
<path d="M174.566 63.7851H4.53251C4.3163 63.7851 4.14062 63.6153 4.14062 63.4064V10.0799C4.14062 9.87093 4.3163 9.70117 4.53251 9.70117H103.217C103.434 9.70117 103.609 9.87093 103.609 10.0799V39.3095H148.702C148.837 39.3095 148.972 39.3749 149.04 39.4924L152.486 44.8864H156.742C162.323 44.8864 166.999 46.6496 170.269 49.9801C173.579 53.3628 175.255 58.1299 174.971 63.4325C174.971 63.6414 174.782 63.7982 174.579 63.7982L174.566 63.7851ZM4.92438 63.0276H174.187C174.363 58.0907 172.769 53.6501 169.688 50.5025C166.566 47.3287 162.093 45.6439 156.742 45.6439H152.269C152.134 45.6439 151.999 45.5786 151.932 45.4611L148.486 40.0671H103.217C103.001 40.0671 102.826 39.8973 102.826 39.6883V10.4587H4.92438V63.0276Z" fill="#1D1D1B"/>
<path d="M4.52344 1.77445V10.081H129.829C123.653 1.43485 117.748 0.376953 102.56 0.376953H5.96931C5.17205 0.376953 4.52344 1.00387 4.52344 1.77445Z" fill="white"/>
<path d="M129.838 10.4586H4.53251C4.3163 10.4586 4.14062 10.2888 4.14062 10.0799V1.77333C4.14062 0.793788 4.96491 -0.00292969 5.97838 -0.00292969H102.569C117.487 -0.00292969 123.73 0.846033 130.162 9.85785C130.243 9.97539 130.257 10.1321 130.189 10.2496C130.122 10.3803 129.987 10.4586 129.838 10.4586ZM4.92438 9.70113H129.081C123.325 1.95619 117.784 0.767641 102.569 0.767641H5.97838C5.39733 0.767641 4.9379 1.22476 4.9379 1.78637V9.71416L4.92438 9.70113Z" fill="#1D1D1B"/>
<path d="M103.223 10.0801V39.6885H148.707L132.884 14.8733C131.843 13.0579 130.843 11.4776 129.843 10.0801H103.223Z" fill="white"/>
<path d="M148.708 40.0671H103.224C103.008 40.0671 102.832 39.8973 102.832 39.6883V10.0799C102.832 9.87093 103.008 9.70117 103.224 9.70117H129.844C129.98 9.70117 130.101 9.76644 130.169 9.87093C131.142 11.2423 132.142 12.8096 133.236 14.6903L149.046 39.4924C149.127 39.6099 149.127 39.7536 149.046 39.8842C148.979 40.0017 148.844 40.0801 148.708 40.0801V40.0671ZM103.616 39.3095H147.992L132.547 15.0691C131.507 13.2667 130.561 11.7647 129.628 10.4587H103.616V39.3095Z" fill="#1D1D1B"/>
<path d="M178.092 63.4062H0.761719V73.5412H178.092V63.4062Z" fill="#A4A4A3"/>
<path d="M178.487 73.9209H0.359375V63.0283H178.487V73.9209ZM1.15663 73.1634H177.703V63.7989H1.15663V73.1634Z" fill="#1D1D1B"/>
<path d="M11.0898 73.542C11.0898 65.9277 17.4815 59.75 25.3595 59.75C33.2375 59.75 39.6292 65.9277 39.6292 73.542C39.6292 81.1563 33.2375 87.334 25.3595 87.334C17.4815 87.334 11.0898 81.1563 11.0898 73.542Z" fill="white"/>
<path d="M25.3608 87.7116C17.28 87.7116 10.6992 81.3511 10.6992 73.5408C10.6992 65.7306 17.28 59.3701 25.3608 59.3701C33.4415 59.3701 40.0223 65.7306 40.0223 73.5408C40.0223 81.3511 33.4415 87.7116 25.3608 87.7116ZM25.3608 60.1276C17.7124 60.1276 11.483 66.1485 11.483 73.5408C11.483 80.9331 17.6989 86.9541 25.3608 86.9541C33.0226 86.9541 39.2385 80.9331 39.2385 73.5408C39.2385 66.1485 33.0091 60.1276 25.3608 60.1276Z" fill="#1D1D1B"/>
<path d="M17.5039 73.5413C17.5039 69.3489 21.0173 65.9531 25.3549 65.9531C29.6926 65.9531 33.2059 69.3489 33.2059 73.5413C33.2059 77.7338 29.6926 81.1295 25.3549 81.1295C21.0173 81.1295 17.5039 77.7338 17.5039 73.5413Z" fill="white"/>
<path d="M25.358 81.5085C20.8041 81.5085 17.1016 77.9299 17.1016 73.5415C17.1016 69.1532 20.8041 65.5615 25.358 65.5615C29.9118 65.5615 33.6009 69.1401 33.6009 73.5415C33.6009 77.943 29.8983 81.5085 25.358 81.5085ZM25.358 66.319C21.2501 66.319 17.8988 69.5581 17.8988 73.5285C17.8988 77.4989 21.2501 80.7379 25.358 80.7379C29.4659 80.7379 32.8171 77.4989 32.8171 73.5285C32.8171 69.5581 29.4794 66.319 25.358 66.319Z" fill="#1D1D1B"/>
<path d="M47.6016 45.0697C45.8584 45.0697 44.2909 44.704 42.8856 43.9596C41.4938 43.2151 40.3722 42.1964 39.5479 40.9034C38.7236 39.6104 38.3047 38.1607 38.3047 36.5412C38.3047 34.9216 38.7236 33.4327 39.5479 32.1397C40.3722 30.8467 41.4937 29.828 42.8991 29.0705C44.3044 28.313 45.899 27.9473 47.6557 27.9473C48.9799 27.9473 50.1961 28.1693 51.3041 28.6264C52.4122 29.0705 53.3987 29.7366 54.25 30.6116L50.8988 33.8507C50.5069 33.4066 50.0339 33.0801 49.4799 32.8711C48.9394 32.6622 48.3178 32.5707 47.6421 32.5707C46.8584 32.5707 46.1557 32.7274 45.5611 33.054C44.9666 33.3805 44.4936 33.8376 44.1423 34.4384C43.7909 35.0392 43.6153 35.7314 43.6153 36.5151C43.6153 37.2987 43.7909 37.9648 44.1423 38.5655C44.4936 39.1663 44.9666 39.6365 45.5747 39.963C46.1827 40.2895 46.8719 40.4463 47.6286 40.4463C48.3448 40.4463 48.9799 40.3418 49.5339 40.1067C50.0745 39.8847 50.5474 39.532 50.9528 39.0618L54.304 42.327C53.4257 43.2282 52.4257 43.9073 51.3176 44.3644C50.2096 44.8216 48.9664 45.0567 47.5611 45.0567" fill="#5DBB75"/>
<path d="M65.9785 39.8586C65.2623 40.59 64.3164 40.9557 63.1408 40.9557C62.3975 40.9557 61.7354 40.7858 61.1544 40.4463C60.5733 40.1067 60.1139 39.6496 59.7761 39.0619C59.4382 38.4741 59.2761 37.8081 59.2761 37.0375C59.2761 36.2669 59.4382 35.5616 59.7761 34.9608C60.1139 34.3601 60.5733 33.9029 61.1544 33.5634C61.7354 33.2238 62.4111 33.054 63.1813 33.054C63.9515 33.054 64.6272 33.2238 65.2082 33.5634C65.7893 33.9029 66.2487 34.36 66.5731 34.9478C66.8974 35.5355 67.0595 36.2146 67.0595 37.0113C67.0595 38.1737 66.7082 39.1272 65.992 39.8586M66.8163 28.8093V30.2068C66.3704 29.7888 65.8433 29.4362 65.2488 29.1489C64.3164 28.7048 63.2894 28.4697 62.1408 28.4697C60.5868 28.4697 59.1815 28.8485 57.9518 29.5929C56.7221 30.3504 55.7492 31.3692 55.06 32.6491C54.3573 33.929 54.0195 35.3918 54.0195 37.0375C54.0195 38.6831 54.3709 40.1067 55.06 41.3866C55.7627 42.6666 56.7221 43.6853 57.9383 44.4167C59.1544 45.1612 60.5463 45.5269 62.1138 45.5269C63.2759 45.5269 64.3299 45.3179 65.2488 44.8869C65.8569 44.6126 66.3704 44.26 66.8163 43.842V45.2004H71.9512V28.8093H66.8163Z" fill="#00C1D2"/>
<path d="M85.1905 28.5219C84.5554 28.2738 83.8257 28.1562 83.0149 28.1562C81.1771 28.1562 79.7313 28.6918 78.6908 29.7758V28.4958H73.4883V44.8869H78.6908V35.9142C78.6908 34.8172 78.961 33.9943 79.515 33.4719C80.0556 32.9495 80.7717 32.6752 81.6636 32.6752C82.123 32.6752 82.542 32.7405 82.8798 32.8581C83.2311 32.9756 83.5014 33.1715 83.7176 33.4197L86.8526 29.6713C86.3796 29.1489 85.8391 28.7701 85.1905 28.5219Z" fill="#8080CF"/>
<path d="M32.0487 28.8086V37.8074C32.0487 38.382 31.9271 38.9045 31.6839 39.3616C31.4406 39.8187 31.0893 40.1713 30.6434 40.4195C30.1975 40.6676 29.6705 40.7852 29.0759 40.7852C28.4813 40.7852 27.9813 40.6676 27.5489 40.4195C27.103 40.1713 26.7652 39.8187 26.5084 39.3616C26.2517 38.9045 26.1301 38.382 26.1301 37.8074V28.8086H20.9141V37.5984C20.9141 39.0351 21.2789 40.3281 21.9951 41.4774C22.7113 42.6267 23.6977 43.541 24.9274 44.2071C26.1706 44.8731 27.5624 45.2127 29.1299 45.2127C30.6975 45.2127 32.0622 44.8731 33.2919 44.2071C34.5216 43.541 35.4945 42.6267 36.1972 41.4774C36.9134 40.3281 37.2647 39.0351 37.2647 37.5984V28.8086H32.0487Z" fill="#FF6947"/>
<path d="M142.799 39.6882C142.799 39.6882 139.232 46.4275 130.57 50.3718C124.867 52.9708 120.895 46.754 117.111 41.9085C114.179 38.1601 114.436 34.8688 116.827 32.3612C117.814 31.3294 119.53 31.2119 121.233 31.3817L125.746 31.0029C125.746 31.0029 130.935 34.7121 132.854 39.5054L128.665 39.7535C129.57 42.4179 129.894 42.1697 129.894 42.1697L135.34 39.427C137.556 40.1192 137.732 41.9085 142.799 39.7013" fill="#1D1D1B"/>
<path d="M127.921 51.3643C123.854 51.3643 120.692 47.2241 117.84 43.4887C117.489 43.0316 117.138 42.5745 116.8 42.1304C113.949 38.4734 113.854 34.9079 116.53 32.0999C117.448 31.1334 118.989 30.7808 121.259 31.0028L125.705 30.624C125.799 30.624 125.894 30.6371 125.975 30.7024C126.191 30.8591 131.272 34.5291 133.218 39.3746C133.259 39.4921 133.245 39.6097 133.177 39.7142C133.11 39.8187 132.988 39.884 132.867 39.884L129.191 40.106C129.556 41.1378 129.799 41.5557 129.921 41.7255L135.15 39.0873C135.245 39.0351 135.353 39.035 135.461 39.0612C136.056 39.244 136.515 39.5052 136.934 39.7403C138.11 40.4064 139.029 40.9288 142.65 39.3485C142.799 39.2832 142.974 39.3093 143.096 39.4269C143.218 39.5444 143.231 39.7142 143.164 39.8579C143.015 40.1321 139.434 46.7669 130.745 50.7112C129.759 51.1553 128.826 51.3643 127.934 51.3643H127.921ZM120.083 31.695C118.665 31.695 117.705 31.9954 117.111 32.6092C114.678 35.156 114.786 38.2906 117.421 41.6602C117.773 42.1043 118.124 42.5614 118.475 43.0316C121.935 47.5636 125.502 52.2393 130.394 50.019C136.893 47.0673 140.501 42.47 141.839 40.4848C138.731 41.6341 137.65 41.0333 136.515 40.3934C136.164 40.1975 135.799 39.9885 135.353 39.8317L130.056 42.4961C129.961 42.5483 129.799 42.5483 129.705 42.5222C129.515 42.4569 129.11 42.3394 128.272 39.8579C128.232 39.7403 128.259 39.6228 128.326 39.5314C128.394 39.4399 128.502 39.3746 128.624 39.3616L132.272 39.1395C130.448 35.1299 126.367 31.9431 125.624 31.3815L121.259 31.7472C120.84 31.708 120.448 31.6819 120.083 31.6819V31.695ZM129.759 41.8039C129.759 41.8039 129.691 41.83 129.651 41.8561L129.759 41.8039Z" fill="#1D1D1B"/>
<path d="M119.261 32.3751L129.882 30.5335C130.531 30.416 130.923 29.789 130.734 29.1752L129.166 24.3297C129.112 24.1599 129.193 23.9901 129.355 23.9248L132.207 22.7494C132.409 22.658 132.436 22.3837 132.247 22.2662C130.301 21.0776 127.531 19.3145 126.883 17.2901L126.707 16.7546C125.923 14.3123 123.369 12.8233 120.775 13.2805C118.167 13.7376 116.329 15.984 116.464 18.5439L117.14 30.7686C117.194 31.8134 118.194 32.571 119.248 32.3881" fill="white"/>
<path d="M118.939 32.7796C118.452 32.7796 117.966 32.6229 117.574 32.3225C117.088 31.9437 116.777 31.3821 116.75 30.7683L116.074 18.5436C115.926 15.8008 117.925 13.3715 120.709 12.8883C123.506 12.4051 126.249 14.0115 127.087 16.6237L127.263 17.1591C127.898 19.1182 130.871 20.9467 132.465 21.9263C132.682 22.0569 132.803 22.292 132.776 22.5401C132.763 22.7883 132.6 22.9972 132.371 23.0887L129.52 24.2641L131.114 29.0443C131.236 29.4361 131.182 29.8671 130.965 30.2197C130.749 30.5724 130.371 30.8205 129.952 30.8858L119.331 32.7274C119.196 32.7535 119.074 32.7665 118.939 32.7665V32.7796ZM121.709 13.5675C121.425 13.5675 121.142 13.5936 120.844 13.6458C118.439 14.0638 116.723 16.1535 116.858 18.5175L117.534 30.7422C117.561 31.134 117.75 31.4866 118.061 31.7348C118.371 31.9699 118.777 32.0743 119.182 32.009L129.803 30.1675C130.006 30.1283 130.168 30.0238 130.276 29.854C130.384 29.6843 130.411 29.4883 130.344 29.3055L128.776 24.46C128.655 24.1074 128.83 23.7286 129.195 23.5849L131.857 22.4878C129.587 21.0773 127.155 19.4186 126.506 17.4203L126.33 16.8849C125.695 14.8997 123.79 13.5936 121.696 13.5936L121.709 13.5675Z" fill="#1D1D1B"/>
<path d="M116.506 19.5493L126.249 15.7226C125.141 13.9333 123.006 12.8884 120.803 13.2802C118.181 13.7374 116.317 16.0099 116.465 18.5828L116.519 19.5493H116.506Z" fill="#1D1D1B"/>
<path d="M116.155 20.1101L116.074 18.6081C115.926 15.8523 117.925 13.3969 120.736 12.9137C123.02 12.5088 125.385 13.5667 126.601 15.5388L126.83 15.9176L116.155 20.1101ZM121.709 13.5928C121.425 13.5928 121.155 13.6189 120.871 13.6712C118.452 14.0891 116.723 16.2049 116.858 18.5689L116.885 18.9999L125.668 15.5519C124.736 14.3242 123.25 13.5928 121.709 13.5928Z" fill="#1D1D1B"/>
<path d="M128.582 27.3716C127.23 27.3716 125.919 26.8622 125.325 26.4051C125.149 26.2745 125.122 26.0394 125.257 25.8696C125.392 25.6998 125.636 25.6737 125.811 25.8043C126.446 26.2875 128.095 26.823 129.433 26.5096C129.649 26.4573 129.865 26.5879 129.906 26.7969C129.96 27.0059 129.825 27.2017 129.609 27.254C129.271 27.3324 128.919 27.3716 128.568 27.3716H128.582Z" fill="#1D1D1B"/>
<path d="M124.624 20.3978C124.692 20.7769 125.07 21.0253 125.449 20.96C125.841 20.8946 126.098 20.5285 126.031 20.1624C125.963 19.7833 125.584 19.5349 125.206 19.6003C124.813 19.6656 124.556 20.0317 124.624 20.3978Z" fill="#1D1D1B"/>
<path d="M115.058 39.6879H109.059V29.8271H112.112C113.734 29.8271 115.058 31.1071 115.058 32.6744V39.6879Z" fill="#A4A4A3"/>
<path d="M115.449 40.0675H108.652V29.4492H112.098C113.949 29.4492 115.449 30.8989 115.449 32.6882V40.0805V40.0675ZM109.45 39.31H114.666V32.6882C114.666 31.3299 113.517 30.2198 112.112 30.2198H109.45V39.31Z" fill="#1D1D1B"/>
<path d="M111.273 29.8149C110.394 29.8149 109.597 29.4492 109.043 28.8614V20.9075C109.597 20.3198 110.381 19.9541 111.273 19.9541C112.935 19.9541 114.272 21.2471 114.272 22.8536V26.9154C114.272 28.5219 112.935 29.8149 111.273 29.8149Z" fill="#A4A4A3"/>
<path d="M111.274 30.1941C110.314 30.1941 109.396 29.8023 108.76 29.1231L108.652 29.0186V20.7643L108.76 20.6598C109.409 19.9807 110.328 19.5889 111.274 19.5889C113.152 19.5889 114.666 21.0647 114.666 22.8671V26.9289C114.666 28.7443 113.139 30.2071 111.274 30.2071V30.1941ZM109.45 28.7052C109.936 29.1623 110.598 29.4235 111.274 29.4235C112.706 29.4235 113.882 28.2872 113.882 26.9028V22.841C113.882 21.4566 112.72 20.3203 111.274 20.3203C110.598 20.3203 109.936 20.5815 109.45 21.0386V28.6921V28.7052Z" fill="#1D1D1B"/>
<path d="M123.866 17.0277C123.704 17.0277 123.556 16.9363 123.502 16.7927C123.421 16.5968 123.515 16.3747 123.718 16.2964L130.488 13.6842C130.69 13.6059 130.92 13.6973 131.001 13.8932C131.082 14.0891 130.988 14.3112 130.785 14.3895L124.015 17.0016C124.015 17.0016 123.92 17.0277 123.866 17.0277Z" fill="#1D1D1B"/>
<path d="M140.852 73.5413C140.852 69.3489 144.365 65.9531 148.703 65.9531C153.04 65.9531 156.554 69.3489 156.554 73.5413C156.554 77.7338 153.04 81.1295 148.703 81.1295C144.365 81.1295 140.852 77.7338 140.852 73.5413Z" fill="white"/>
<path d="M172.715 57.0723C170.459 57.0723 164.094 56.7327 159.946 53.1149C157.689 51.1428 156.473 48.5045 156.324 45.2786C156.324 45.0696 156.486 44.8867 156.703 44.8867H156.716C156.932 44.8867 157.094 45.0434 157.108 45.2524C157.243 48.2694 158.378 50.7248 160.473 52.5533C165.216 56.6935 173.405 56.3017 173.486 56.2886C173.688 56.2756 173.891 56.4323 173.905 56.6543C173.905 56.8633 173.756 57.0461 173.54 57.0592C173.486 57.0592 173.188 57.0723 172.715 57.0723Z" fill="#1D1D1B"/>
<path d="M135.824 39.2836C135.824 39.2836 137.797 36.9588 139.716 36.6845C144.351 35.9923 143.459 39.2836 143.459 39.2836L138.54 42.0786L135.838 39.2836H135.824Z" fill="white"/>
<path d="M138.528 42.4581C138.42 42.4581 138.312 42.4189 138.245 42.3406L135.542 39.5456C135.407 39.4019 135.393 39.193 135.528 39.0362C135.61 38.9318 137.623 36.607 139.663 36.3066C141.393 36.0454 142.636 36.3066 143.339 37.051C144.217 37.9914 143.866 39.3236 143.852 39.3889C143.825 39.4803 143.758 39.5717 143.663 39.624L138.745 42.4189C138.745 42.4189 138.609 42.4712 138.542 42.4712L138.528 42.4581ZM136.366 39.2713L138.609 41.583L143.109 39.0362C143.15 38.7359 143.204 38.0306 142.744 37.5473C142.244 37.0118 141.217 36.842 139.785 37.051C138.407 37.26 136.92 38.6836 136.366 39.2713Z" fill="#1D1D1B"/>
<path d="M134.109 73.541C134.109 65.9267 140.501 59.749 148.379 59.749C156.257 59.749 162.649 65.9267 162.649 73.541C162.649 81.1553 156.257 87.333 148.379 87.333C140.501 87.333 134.109 81.1553 134.109 73.541Z" fill="white"/>
<path d="M148.701 87.7116C140.62 87.7116 134.039 81.3511 134.039 73.5408C134.039 65.7306 140.62 59.3701 148.701 59.3701C156.781 59.3701 163.362 65.7306 163.362 73.5408C163.362 81.3511 156.781 87.7116 148.701 87.7116ZM148.701 60.1276C141.052 60.1276 134.823 66.1485 134.823 73.5408C134.823 80.9331 141.052 86.9541 148.701 86.9541C156.349 86.9541 162.578 80.9331 162.578 73.5408C162.578 66.1485 156.362 60.1276 148.701 60.1276Z" fill="#1D1D1B"/>
<path d="M148.704 81.5075C144.15 81.5075 140.461 77.9289 140.461 73.5406C140.461 69.1522 144.163 65.5605 148.704 65.5605C153.244 65.5605 156.947 69.1391 156.947 73.5406C156.947 77.942 153.244 81.5075 148.704 81.5075ZM148.704 66.318C144.596 66.318 141.245 69.5571 141.245 73.5275C141.245 77.4979 144.596 80.737 148.704 80.737C152.812 80.737 156.163 77.4979 156.163 73.5275C156.163 69.5571 152.812 66.318 148.704 66.318Z" fill="#1D1D1B"/>
<path d="M273.191 36.1274L264.99 78.996L236.485 72.472" stroke="black" stroke-width="0.5" stroke-linecap="round" stroke-linejoin="round"/>
<path d="M263.882 79.0142L240.648 73.4409L246.481 46.7238L269.715 52.2971L263.882 79.0142Z" fill="white" stroke="black" stroke-width="0.5" stroke-linecap="round" stroke-linejoin="round"/>
<path d="M246.469 46.7046L252.447 57.7965C253.911 60.5139 257.285 61.322 259.721 59.5417L269.699 52.2799L246.469 46.7046Z" fill="white" stroke="black" stroke-width="0.5" stroke-linecap="round" stroke-linejoin="round"/>
<path d="M264.992 84.4548C262.116 84.4548 259.785 82.0111 259.785 78.9967C259.785 75.9823 262.116 73.5386 264.992 73.5386C267.868 73.5386 270.199 75.9823 270.199 78.9967C270.199 82.0111 267.868 84.4548 264.992 84.4548Z" fill="white" stroke="black" stroke-width="0.5" stroke-miterlimit="10"/>
<path d="M283.697 14.0024C283.697 14.0024 283.373 18.711 282.333 19.5426C281.294 20.3742 283.015 21.5689 283.015 21.5689C283.015 21.5689 282.523 25.7737 284.613 25.4692C286.702 25.1647 287.809 24.0051 288.379 25.926L292.96 25.4223L294.379 21.4986L293.988 14.8223L283.674 14.0142L283.697 14.0024Z" fill="white" stroke="black" stroke-width="0.5" stroke-linecap="round" stroke-linejoin="round"/>
<path d="M284.834 87.6989H286.253C286.253 87.6989 284.231 77.0637 286.052 67.9395C287.874 58.8153 295.137 51.2489 295.137 51.2489L286.164 48.1802C286.164 48.1802 278.499 56.9061 277.65 72.3083C277.348 77.8602 278.946 84.2787 276.51 84.2787C273.526 84.2787 273.839 87.6989 273.839 87.6989H284.834Z" fill="black" stroke="black" stroke-width="0.5" stroke-linecap="round" stroke-linejoin="round"/>
<path d="M298.444 87.6999H299.863C299.863 87.6999 295.762 77.0998 296.79 67.8468C297.818 58.582 296.411 51.2616 296.411 51.2616L287.438 48.1929C287.438 48.1929 289.226 56.8252 288.388 72.2274C288.086 77.7792 292.556 84.2915 290.12 84.2915C287.136 84.2915 287.449 87.7116 287.449 87.7116H298.444V87.6999Z" fill="black" stroke="black" stroke-width="0.5" stroke-linecap="round" stroke-linejoin="round"/>
<path d="M293.369 25.0835C297.917 28.9955 298.788 39.0333 297.95 47.7593C297.693 50.4298 297.693 52.8192 297.716 55.2554L280.91 52.9597C281.312 49.2702 282.162 45.651 283.424 42.184C285.346 36.9016 288.296 31.9471 288.196 25.4583L293.369 25.0952V25.0835Z" fill="white" stroke="black" stroke-width="0.5" stroke-linecap="round" stroke-linejoin="round"/>
<path d="M285.217 18.6883C284.884 18.6883 284.614 18.4051 284.614 18.0558C284.614 17.7065 284.884 17.4233 285.217 17.4233C285.55 17.4233 285.82 17.7065 285.82 18.0558C285.82 18.4051 285.55 18.6883 285.217 18.6883Z" fill="black"/>
<path d="M294.129 23.2677C294.129 23.2677 290.296 21.136 292.084 19.5547C294.163 17.7276 293.436 15.6661 292.017 15.2913C290.24 14.8111 289.95 16.5797 289.425 16.6266C286.307 16.8725 283.871 16.2283 282.374 13.0308C281.704 11.5901 287.391 11.1333 291.291 11.1333C295.191 11.1333 297.805 23.9938 294.118 23.2677H294.129Z" fill="black" stroke="black" stroke-width="0.5" stroke-linecap="round" stroke-linejoin="round"/>
<path d="M291.93 36.9483C286.522 41.3523 280.622 42.1136 274.074 42.0785L276.074 35.0274C285.181 34.2427 291.304 30.4595 291.304 30.4595" fill="white"/>
<path d="M291.93 36.9483C286.522 41.3523 280.622 42.1136 274.074 42.0785L276.074 35.0274C285.181 34.2427 291.304 30.4595 291.304 30.4595" stroke="black" stroke-width="0.5" stroke-linecap="round" stroke-linejoin="round"/>
<path d="M271.526 42.0323C272.811 42.1143 274.074 42.0791 274.074 42.0791L276.074 35.0281C276.074 35.0281 272.912 33.0486 272.61 34.7001C272.309 36.3516 273.147 37.2769 273.147 37.2769C273.147 37.2769 268.498 36.6913 268.856 38.0968L268.878 39.1158C268.901 40.6619 270.063 41.9386 271.526 42.0323Z" fill="white" stroke="black" stroke-width="0.5" stroke-linecap="round" stroke-linejoin="round"/>
<path d="M282.994 23.1853C282.994 23.1853 284.96 23.525 285.832 21.8149Z" fill="white"/>
<path d="M282.994 23.1853C282.994 23.1853 284.96 23.525 285.832 21.8149" stroke="black" stroke-width="0.5" stroke-linecap="round" stroke-linejoin="round"/>
</svg>
