<svg width="1844" height="324" viewBox="0 0 1844 324" fill="none" xmlns="http://www.w3.org/2000/svg">
<path d="M85.3478 320.66L0 86.8454H66.0757L100.337 189.056C102.784 195.959 104.722 201.86 106.149 206.759C107.781 211.658 109.209 216.334 110.432 220.788C111.656 225.019 112.777 229.583 113.797 234.482C115.021 239.381 116.346 245.394 117.774 252.52H107.067C109.107 243.167 110.84 235.485 112.268 229.472C113.899 223.46 115.633 217.559 117.468 211.769C119.507 205.757 122.057 198.186 125.116 189.056L159.377 86.8454H223.312L137.352 320.66H85.3478Z" fill="#E8ECEF" fill-opacity="0.1"/>
<path d="M239.513 320.66V86.8454H399.501V145.299H302.835V262.206H405.008V320.66H239.513ZM271.021 229.806V175.027H388.183V229.806H271.021ZM291.517 72.8165L278.363 38.7464L348.109 0L366.464 45.7608L291.517 72.8165Z" fill="#E8ECEF" fill-opacity="0.1"/>
<path d="M566.211 320.66V86.8454H632.286V320.66H566.211ZM438.648 320.66V86.8454H504.724V320.66H438.648ZM463.426 235.485L463.732 172.689H603.531V235.485H463.426Z" fill="#E8ECEF" fill-opacity="0.1"/>
<path d="M674.492 320.66V262.206H712.118V145.299H674.492V86.8454H815.821V145.299H778.194V262.206H815.821V320.66H674.492Z" fill="#E8ECEF" fill-opacity="0.1"/>
<path d="M958.88 321.276C941.749 321.276 925.944 320.994 911.464 314.981C897.188 308.969 884.748 300.619 874.143 289.93C863.743 279.019 855.687 266.103 849.977 251.184C844.267 236.264 841.412 219.897 841.412 202.082C841.412 184.268 844.267 167.901 849.977 152.981C855.891 138.062 864.151 125.258 874.755 114.569C885.36 103.658 897.902 95.1959 912.382 89.1835C927.065 83.1711 943.176 80.1649 960.715 80.1649C970.708 80.1649 980.497 81.501 990.082 84.1732C999.871 86.6227 1009.05 90.5196 1017.61 95.8639C1026.38 100.986 1034.34 107.555 1041.47 115.571L1002.01 166.008C999.157 162.223 995.69 158.771 991.612 155.654C987.737 152.536 983.148 150.087 977.846 148.305C972.747 146.301 966.833 145.299 960.103 145.299C953.169 145.299 946.541 146.635 940.219 149.307C934.101 151.757 928.697 155.431 924.006 160.33C919.52 165.229 915.951 171.241 913.299 178.367C910.648 185.493 909.323 193.732 909.323 203.085C909.323 211.546 910.648 219.229 913.299 226.132C915.951 233.035 919.723 238.936 924.618 243.835C929.512 248.734 935.427 252.52 942.361 255.192C949.294 257.864 957.044 259.2 965.609 259.2C971.728 259.2 977.54 258.198 983.046 256.194C988.552 254.19 993.549 251.629 998.036 248.511C1002.52 245.171 1006.4 241.497 1009.66 237.489L1041.17 291.6C1035.87 297.835 1028.83 303.402 1020.06 308.301C1011.29 313.2 1001.6 317.097 991 319.992C989.137 320.461 987.272 320.889 985.403 321.276C976.502 321.276 967.79 321.276 958.88 321.276Z" fill="#E8ECEF" fill-opacity="0.1"/>
<path d="M1159.58 322.664C1141.02 322.664 1124.5 318.767 1110.02 310.973C1095.75 302.957 1084.53 292.045 1076.37 278.239C1068.21 264.433 1064.14 248.623 1064.14 230.808V86.8454H1130.82V227.802C1130.82 234.26 1132.05 240.049 1134.49 245.171C1136.94 250.07 1140.31 253.967 1144.59 256.862C1149.08 259.757 1154.07 261.204 1159.58 261.204C1165.49 261.204 1170.69 259.757 1175.18 256.862C1179.67 253.967 1183.23 250.07 1185.89 245.171C1188.54 240.049 1189.86 234.26 1189.86 227.802V86.8454H1255.02V230.808C1255.02 248.623 1250.94 264.433 1242.78 278.239C1234.63 292.045 1223.31 302.957 1208.83 310.973C1194.55 318.767 1178.14 322.664 1159.58 322.664Z" fill="#E8ECEF" fill-opacity="0.1"/>
<path d="M1298.82 320.66V86.8454H1364.9V259.2H1456.67V320.66H1298.82Z" fill="#E8ECEF" fill-opacity="0.1"/>
<path d="M1482.12 320.66V86.8454H1642.11V145.299H1545.45V262.206H1647.62V320.66H1482.12ZM1513.63 229.806V175.027H1630.79V229.806H1513.63Z" fill="#E8ECEF" fill-opacity="0.1"/>
<path d="M1756.2 324C1740.09 324 1725.82 322.107 1713.38 318.322C1701.14 314.313 1690.33 308.746 1680.95 301.621C1671.77 294.495 1663.52 286.144 1656.17 276.569L1694.41 229.806C1704.61 244.058 1715.21 253.522 1726.23 258.198C1737.44 262.652 1747.95 264.878 1757.73 264.878C1761.61 264.878 1765.08 264.544 1768.14 263.876C1771.19 262.986 1773.54 261.649 1775.17 259.868C1776.8 258.087 1777.62 255.637 1777.62 252.52C1777.62 249.625 1776.7 247.175 1774.87 245.171C1773.23 243.167 1770.99 241.497 1768.14 240.161C1765.28 238.602 1762.12 237.377 1758.65 236.487C1755.39 235.373 1752.13 234.482 1748.86 233.814C1745.8 233.146 1743.05 232.478 1740.6 231.81C1728.37 228.693 1717.66 224.907 1708.48 220.454C1699.31 216 1691.66 210.656 1685.54 204.421C1679.42 198.186 1674.83 191.06 1671.77 183.043C1668.92 175.027 1667.49 166.008 1667.49 155.988C1667.49 144.631 1669.84 134.276 1674.53 124.924C1679.42 115.571 1685.85 107.555 1693.8 100.874C1701.96 94.1938 1711.13 89.0722 1721.33 85.5093C1731.73 81.9464 1742.44 80.1649 1753.45 80.1649C1769.56 80.1649 1783.02 81.835 1793.83 85.1753C1804.64 88.2928 1813.72 92.8577 1821.06 98.8701C1828.4 104.882 1834.72 111.897 1840.02 119.913L1801.48 160.33C1796.99 155.654 1792.3 151.868 1787.41 148.973C1782.51 145.856 1777.41 143.629 1772.11 142.293C1767.01 140.734 1761.92 139.955 1756.82 139.955C1752.13 139.955 1748.15 140.4 1744.89 141.291C1741.62 141.959 1739.07 143.184 1737.24 144.965C1735.4 146.524 1734.49 148.75 1734.49 151.645C1734.49 154.54 1735.61 156.99 1737.85 158.994C1740.3 160.775 1743.25 162.334 1746.72 163.67C1750.39 165.006 1753.96 166.12 1757.43 167.01C1761.1 167.678 1764.16 168.235 1766.61 168.68C1777.82 170.907 1788.12 174.025 1797.5 178.033C1806.88 181.819 1815.04 186.718 1821.97 192.73C1829.11 198.52 1834.52 205.868 1838.19 214.775C1842.06 223.46 1844 233.814 1844 245.839C1844 262.986 1840.02 277.348 1832.07 288.928C1824.32 300.507 1813.82 309.303 1800.56 315.315C1787.31 321.105 1772.52 324 1756.2 324Z" fill="#E8ECEF" fill-opacity="0.1"/>
</svg>
