<svg width="1442" height="259" viewBox="0 0 1442 259" fill="none" xmlns="http://www.w3.org/2000/svg">
<path d="M100.228 259L0 7.20547H77.5958L117.831 117.449C120.705 124.895 122.98 131.26 124.656 136.544C126.572 141.828 128.249 146.872 129.686 151.675C131.123 156.239 132.44 161.163 133.637 166.447C135.074 171.731 136.631 178.216 138.307 185.901H125.734C128.129 175.814 130.165 167.527 131.841 161.042C133.757 154.558 135.793 148.193 137.948 141.948C140.343 135.463 143.337 127.297 146.929 117.449L187.164 7.20547H262.245L161.299 259H100.228Z" fill="#E8ECEF" fill-opacity="0.1"/>
<path d="M276.421 259V196.349H320.608V70.2534H276.421V7.20547H442.39V70.2534H398.203V196.349H442.39V259H276.421Z" fill="#E8ECEF" fill-opacity="0.1"/>
<path d="M535.388 259C532.426 258.367 529.544 257.659 526.741 256.875C512.371 252.552 499.678 246.548 488.662 238.862C477.884 231.176 468.185 222.169 459.563 211.841L504.468 161.403C516.443 176.774 528.896 186.982 541.829 192.026C555.001 196.83 567.335 199.232 578.831 199.232C583.381 199.232 587.453 198.871 591.045 198.151C594.637 197.19 597.391 195.749 599.307 193.827C601.223 191.906 602.181 189.264 602.181 185.901C602.181 182.779 601.104 180.137 598.948 177.975C597.032 175.814 594.398 174.012 591.045 172.571C587.692 170.89 583.98 169.569 579.909 168.608C576.077 167.407 572.245 166.447 568.413 165.726C564.82 165.005 561.587 164.285 558.713 163.564C544.344 160.202 531.77 156.119 520.993 151.315C510.216 146.511 501.235 140.747 494.05 134.022C486.865 127.297 481.477 119.611 477.884 110.964C474.531 102.318 472.855 92.5904 472.855 81.7822C472.855 69.5329 475.609 58.3644 481.118 48.2767C486.865 38.189 494.409 29.5425 503.75 22.337C513.329 15.1315 524.107 9.6073 536.081 5.76437C548.295 1.92146 560.869 0 573.801 0C592.721 0 608.528 1.80137 621.221 5.4041C633.914 8.76666 644.572 13.6904 653.193 20.1753C661.815 26.6603 669.24 34.226 675.466 42.8726L630.202 86.4658C624.933 81.4219 619.425 77.3388 613.677 74.2164C607.929 70.8539 601.942 68.4521 595.715 67.0109C589.728 65.3297 583.74 64.489 577.753 64.489C572.245 64.489 567.575 64.9694 563.743 65.9301C559.911 66.6507 556.917 67.9717 554.762 69.8932C552.606 71.5744 551.529 73.9762 551.529 77.0986C551.529 80.221 552.846 82.863 555.48 85.0247C558.354 86.9461 561.827 88.6274 565.898 90.0685C570.209 91.5096 574.4 92.7105 578.472 93.6712C582.782 94.3918 586.375 94.9922 589.249 95.4726C602.421 97.8744 614.515 101.237 625.532 105.56C636.549 109.643 646.128 114.927 654.271 121.412C662.653 127.657 669 135.583 673.311 145.19C677.861 154.558 680.136 165.726 680.136 178.696C680.136 197.19 675.466 212.682 666.126 225.171C657.025 237.661 644.691 247.148 629.124 253.633C623.73 255.797 618.12 257.586 612.294 259C588.5 259 561.5 259 535.388 259Z" fill="#E8ECEF" fill-opacity="0.1"/>
<path d="M708.202 259V196.349H752.388V70.2534H708.202V7.20547H874.171V70.2534H829.984V196.349H874.171V259H708.202Z" fill="#E8ECEF" fill-opacity="0.1"/>
<path d="M1000.79 259C994.43 257.508 988.286 255.599 982.358 253.273C965.833 246.788 951.464 237.661 939.249 225.892C927.035 214.123 917.575 200.192 910.869 184.1C904.403 168.008 901.17 150.474 901.17 131.5C901.17 112.285 904.403 94.7521 910.869 78.9C917.575 62.8078 927.035 48.8772 939.249 37.1082C951.464 25.3393 965.833 16.2123 982.358 9.7274C998.883 3.24247 1016.96 0 1036.6 0C1056.48 0 1074.56 3.24247 1090.85 9.7274C1107.37 16.2123 1121.74 25.3393 1133.96 37.1082C1146.17 48.8772 1155.51 62.8078 1161.98 78.9C1168.68 94.7521 1172.04 112.165 1172.04 131.14C1172.04 150.354 1168.68 168.008 1161.98 184.1C1155.51 200.192 1146.17 214.123 1133.96 225.892C1121.74 237.661 1107.37 246.788 1090.85 253.273C1085.01 255.599 1078.95 257.508 1072.67 259C1050.5 259 1024.5 259 1000.79 259ZM1036.6 190.945C1044.75 190.945 1052.17 189.504 1058.88 186.622C1065.82 183.74 1071.81 179.657 1076.84 174.373C1082.11 168.848 1086.06 162.484 1088.69 155.278C1091.57 148.073 1093 140.147 1093 131.5C1093 122.853 1091.57 114.927 1088.69 107.722C1086.06 100.516 1082.11 94.2717 1076.84 88.9877C1071.81 83.4635 1065.82 79.2603 1058.88 76.3781C1052.17 73.4959 1044.75 72.0548 1036.6 72.0548C1028.46 72.0548 1020.92 73.4959 1013.97 76.3781C1007.27 79.2603 1001.28 83.4635 996.009 88.9877C990.98 94.2717 987.028 100.516 984.154 107.722C981.52 114.927 980.203 122.853 980.203 131.5C980.203 140.147 981.52 148.073 984.154 155.278C987.028 162.484 990.98 168.848 996.009 174.373C1001.28 179.657 1007.27 183.74 1013.97 186.622C1020.92 189.504 1028.46 190.945 1036.6 190.945Z" fill="#E8ECEF" fill-opacity="0.1"/>
<path d="M1205.98 259V6.80819H1275.31L1390.99 167.13L1374.46 162.086C1373.27 152.479 1372.19 144.073 1371.23 136.867C1370.51 129.662 1369.79 123.057 1369.07 117.052C1368.6 110.807 1368.12 104.683 1367.64 98.6781C1367.4 92.6735 1367.28 86.0685 1367.28 78.863C1367.28 71.6575 1367.28 63.2511 1367.28 53.6438V6.80819H1442V259H1371.95L1244.42 82.4657L1273.52 91.1123C1274.71 99.9991 1275.67 107.805 1276.39 114.53C1277.35 121.015 1278.07 127.02 1278.55 132.544C1279.02 138.068 1279.38 143.592 1279.62 149.116C1280.1 154.4 1280.34 160.405 1280.34 167.13C1280.58 173.615 1280.7 181.301 1280.7 190.188V259H1205.98Z" fill="#E8ECEF" fill-opacity="0.1"/>
</svg>
