<svg xmlns="http://www.w3.org/2000/svg" fill="none" viewBox="-0.5 -0.5 24 24" height="24" width="24" id="Overview-Key-Fill--Streamline-Outlined-Fill---Material-Symbols.svg">
  <path fill="#000000" d="M2.3958333333333335 18.208333333333336C2.0125 18.208333333333336 1.6770833333333335 18.064583333333335 1.3895833333333334 17.777083333333334C1.1020833333333333 17.489583333333336 0.9583333333333334 17.154166666666665 0.9583333333333334 16.770833333333336V6.229166666666667C0.9583333333333334 5.845833333333333 1.1020833333333333 5.510416666666667 1.3895833333333334 5.222916666666667C1.6770833333333335 4.935416666666667 2.0125 4.791666666666667 2.3958333333333335 4.791666666666667H12.9375C13.320833333333335 4.791666666666667 13.65625 4.935416666666667 13.943750000000001 5.222916666666667C14.231250000000001 5.510416666666667 14.375 5.845833333333333 14.375 6.229166666666667V16.770833333333336C14.375 17.154166666666665 14.231250000000001 17.489583333333336 13.943750000000001 17.777083333333334C13.65625 18.064583333333335 13.320833333333335 18.208333333333336 12.9375 18.208333333333336H2.3958333333333335ZM16.770833333333336 18.208333333333336V4.791666666666667H18.208333333333336V18.208333333333336H16.770833333333336ZM20.604166666666668 18.208333333333336V4.791666666666667H22.041666666666668V18.208333333333336H20.604166666666668Z" stroke-width="1"></path>
</svg>