<?xml version="1.0"?>
<svg width="24" height="24" xmlns="http://www.w3.org/2000/svg" xmlns:svg="http://www.w3.org/2000/svg">

 <g class="layer">
  <title>Layer 1</title>
  <path d="m2.4,18.21c-0.39,0 -0.72,-0.15 -1.01,-0.43c-0.29,-0.29 -0.43,-0.63 -0.43,-1.01l0,-10.54c0,-0.38 0.14,-0.72 0.43,-1.01c0.29,-0.28 0.62,-0.43 1.01,-0.43l10.54,0c0.38,0 0.72,0.15 1,0.43c0.29,0.29 0.44,0.63 0.44,1.01l0,10.54c0,0.38 -0.15,0.72 -0.44,1.01c-0.28,0.28 -0.62,0.43 -1,0.43l-10.54,0zm14.37,0l0,-13.42l1.44,0l0,13.42l-1.44,0zm3.83,0l0,-13.42l1.44,0l0,13.42l-1.44,0z" fill="#000000" id="svg_1" transform="rotate(-180, 11.5, 11.5)"/>
 </g>
</svg>